%FSLAX34Y34*%
G04 Gerber Fmt 3.4, Leading zero omitted, Abs format*
G04 (created by PCBNEW (2014-03-19 BZR 4756)-product) date Ter 03 Jun 2014 12:28:43 BRT*
%MOIN*%
G01*
G70*
G90*
G04 APERTURE LIST*
%ADD10C,0.005906*%
%ADD11C,0.006000*%
%ADD12C,0.020000*%
%ADD13C,0.007874*%
%ADD14C,0.003100*%
%ADD15C,0.019685*%
%ADD16C,0.005000*%
%ADD17C,0.010000*%
%ADD18C,0.003900*%
%ADD19C,0.012500*%
%ADD20C,0.012000*%
%ADD21C,0.007500*%
%ADD22C,0.004300*%
%ADD23C,0.004500*%
G04 APERTURE END LIST*
G54D10*
G54D11*
X555Y-9525D02*
X255Y-9525D01*
X470Y-9425D01*
X255Y-9325D01*
X555Y-9325D01*
X255Y-9125D02*
X255Y-9068D01*
X270Y-9039D01*
X298Y-9011D01*
X355Y-8997D01*
X455Y-8997D01*
X512Y-9011D01*
X541Y-9039D01*
X555Y-9068D01*
X555Y-9125D01*
X541Y-9154D01*
X512Y-9182D01*
X455Y-9197D01*
X355Y-9197D01*
X298Y-9182D01*
X270Y-9154D01*
X255Y-9125D01*
X555Y-8868D02*
X255Y-8868D01*
X255Y-8797D01*
X270Y-8754D01*
X298Y-8725D01*
X327Y-8711D01*
X384Y-8697D01*
X427Y-8697D01*
X484Y-8711D01*
X512Y-8725D01*
X541Y-8754D01*
X555Y-8797D01*
X555Y-8868D01*
X555Y-8339D02*
X255Y-8339D01*
X255Y-8225D01*
X270Y-8197D01*
X284Y-8182D01*
X312Y-8168D01*
X355Y-8168D01*
X384Y-8182D01*
X398Y-8197D01*
X412Y-8225D01*
X412Y-8339D01*
X398Y-8039D02*
X398Y-7939D01*
X555Y-7897D02*
X555Y-8039D01*
X255Y-8039D01*
X255Y-7897D01*
X255Y-7797D02*
X555Y-7597D01*
X255Y-7597D02*
X555Y-7797D01*
X555Y-7082D02*
X412Y-7182D01*
X555Y-7254D02*
X255Y-7254D01*
X255Y-7140D01*
X270Y-7111D01*
X284Y-7097D01*
X312Y-7082D01*
X355Y-7082D01*
X384Y-7097D01*
X398Y-7111D01*
X412Y-7140D01*
X412Y-7254D01*
X398Y-6954D02*
X398Y-6854D01*
X555Y-6811D02*
X555Y-6954D01*
X255Y-6954D01*
X255Y-6811D01*
X255Y-6725D02*
X555Y-6625D01*
X255Y-6525D01*
X555Y-6268D02*
X555Y-6439D01*
X555Y-6354D02*
X255Y-6354D01*
X298Y-6382D01*
X327Y-6411D01*
X341Y-6439D01*
X527Y-6139D02*
X541Y-6125D01*
X555Y-6139D01*
X541Y-6154D01*
X527Y-6139D01*
X555Y-6139D01*
X255Y-5940D02*
X255Y-5911D01*
X270Y-5882D01*
X284Y-5868D01*
X312Y-5854D01*
X370Y-5840D01*
X441Y-5840D01*
X498Y-5854D01*
X527Y-5868D01*
X541Y-5882D01*
X555Y-5911D01*
X555Y-5940D01*
X541Y-5968D01*
X527Y-5982D01*
X498Y-5997D01*
X441Y-6011D01*
X370Y-6011D01*
X312Y-5997D01*
X284Y-5982D01*
X270Y-5968D01*
X255Y-5940D01*
X764Y-9089D02*
X750Y-9075D01*
X735Y-9047D01*
X735Y-8975D01*
X750Y-8947D01*
X764Y-8932D01*
X792Y-8918D01*
X821Y-8918D01*
X864Y-8932D01*
X1035Y-9104D01*
X1035Y-8918D01*
X735Y-8732D02*
X735Y-8704D01*
X750Y-8675D01*
X764Y-8661D01*
X792Y-8647D01*
X850Y-8632D01*
X921Y-8632D01*
X978Y-8647D01*
X1007Y-8661D01*
X1021Y-8675D01*
X1035Y-8704D01*
X1035Y-8732D01*
X1021Y-8761D01*
X1007Y-8775D01*
X978Y-8789D01*
X921Y-8804D01*
X850Y-8804D01*
X792Y-8789D01*
X764Y-8775D01*
X750Y-8761D01*
X735Y-8732D01*
X1035Y-8347D02*
X1035Y-8518D01*
X1035Y-8432D02*
X735Y-8432D01*
X778Y-8461D01*
X807Y-8490D01*
X821Y-8518D01*
X835Y-8090D02*
X1035Y-8090D01*
X721Y-8161D02*
X935Y-8232D01*
X935Y-8047D01*
X721Y-7718D02*
X1107Y-7975D01*
X735Y-7561D02*
X735Y-7532D01*
X750Y-7504D01*
X764Y-7490D01*
X792Y-7475D01*
X850Y-7461D01*
X921Y-7461D01*
X978Y-7475D01*
X1007Y-7490D01*
X1021Y-7504D01*
X1035Y-7532D01*
X1035Y-7561D01*
X1021Y-7590D01*
X1007Y-7604D01*
X978Y-7618D01*
X921Y-7632D01*
X850Y-7632D01*
X792Y-7618D01*
X764Y-7604D01*
X750Y-7590D01*
X735Y-7561D01*
X835Y-7204D02*
X1035Y-7204D01*
X721Y-7275D02*
X935Y-7347D01*
X935Y-7161D01*
X721Y-6832D02*
X1107Y-7090D01*
X1035Y-6575D02*
X1035Y-6747D01*
X1035Y-6661D02*
X735Y-6661D01*
X778Y-6690D01*
X807Y-6718D01*
X821Y-6747D01*
X835Y-6318D02*
X1035Y-6318D01*
X721Y-6390D02*
X935Y-6461D01*
X935Y-6275D01*
G54D12*
X21356Y-11375D02*
G75*
G03X21356Y-11375I-101J0D01*
G74*
G01*
X16940Y-5415D02*
G75*
G03X16940Y-5415I-150J0D01*
G74*
G01*
X29401Y-4730D02*
G75*
G03X29401Y-4730I-126J0D01*
G74*
G01*
X29410Y-8380D02*
G75*
G03X29410Y-8380I-130J0D01*
G74*
G01*
X30421Y-13080D02*
G75*
G03X30421Y-13080I-161J0D01*
G74*
G01*
G54D13*
X22915Y-10785D02*
X22915Y-10535D01*
X24845Y-12715D02*
X25095Y-12715D01*
X22910Y-14645D02*
X22910Y-14895D01*
X20980Y-12720D02*
X20730Y-12720D01*
G54D11*
X30539Y-9764D02*
X30539Y-9864D01*
X30696Y-9864D02*
X30396Y-9864D01*
X30396Y-9721D01*
X30396Y-9550D02*
X30396Y-9493D01*
X30410Y-9464D01*
X30439Y-9436D01*
X30496Y-9421D01*
X30596Y-9421D01*
X30653Y-9436D01*
X30682Y-9464D01*
X30696Y-9493D01*
X30696Y-9550D01*
X30682Y-9578D01*
X30653Y-9607D01*
X30596Y-9621D01*
X30496Y-9621D01*
X30439Y-9607D01*
X30410Y-9578D01*
X30396Y-9550D01*
X30396Y-9236D02*
X30396Y-9178D01*
X30410Y-9150D01*
X30439Y-9121D01*
X30496Y-9107D01*
X30596Y-9107D01*
X30653Y-9121D01*
X30682Y-9150D01*
X30696Y-9178D01*
X30696Y-9236D01*
X30682Y-9264D01*
X30653Y-9293D01*
X30596Y-9307D01*
X30496Y-9307D01*
X30439Y-9293D01*
X30410Y-9264D01*
X30396Y-9236D01*
X30396Y-9021D02*
X30396Y-8850D01*
X30696Y-8936D02*
X30396Y-8936D01*
X30685Y-6599D02*
X30385Y-6599D01*
X30385Y-6485D01*
X30400Y-6457D01*
X30414Y-6442D01*
X30442Y-6428D01*
X30485Y-6428D01*
X30514Y-6442D01*
X30528Y-6457D01*
X30542Y-6485D01*
X30542Y-6599D01*
X30385Y-6242D02*
X30385Y-6185D01*
X30400Y-6157D01*
X30428Y-6128D01*
X30485Y-6114D01*
X30585Y-6114D01*
X30642Y-6128D01*
X30671Y-6157D01*
X30685Y-6185D01*
X30685Y-6242D01*
X30671Y-6271D01*
X30642Y-6299D01*
X30585Y-6314D01*
X30485Y-6314D01*
X30428Y-6299D01*
X30400Y-6271D01*
X30385Y-6242D01*
X30385Y-6028D02*
X30385Y-5857D01*
X30685Y-5942D02*
X30385Y-5942D01*
X15728Y-6181D02*
X16082Y-6181D01*
X16496Y-5629D02*
X16102Y-5629D01*
X15314Y-5629D02*
X15708Y-5629D01*
X16496Y-5629D02*
X16496Y-6181D01*
X15314Y-5629D02*
X15314Y-6181D01*
G54D14*
X15327Y-6260D02*
G75*
G03X15327Y-6260I-62J0D01*
G74*
G01*
G54D11*
X13064Y-6194D02*
X13419Y-6194D01*
X13832Y-5643D02*
X13438Y-5643D01*
X12651Y-5643D02*
X13045Y-5643D01*
X13832Y-5643D02*
X13832Y-6194D01*
X12651Y-5643D02*
X12651Y-6194D01*
G54D14*
X12664Y-6273D02*
G75*
G03X12664Y-6273I-62J0D01*
G74*
G01*
G54D13*
X6173Y-7736D02*
X6173Y-7638D01*
X6173Y-7638D02*
X6271Y-7638D01*
G54D15*
X6312Y-7638D02*
G75*
G03X6312Y-7638I-139J0D01*
G74*
G01*
G54D13*
X6173Y-9016D02*
X3614Y-9016D01*
X3614Y-9016D02*
X3614Y-7638D01*
X3614Y-7638D02*
X6173Y-7638D01*
X6173Y-7638D02*
X6173Y-9016D01*
X7079Y-12859D02*
X7079Y-12761D01*
X7079Y-12761D02*
X7177Y-12761D01*
G54D15*
X7218Y-12761D02*
G75*
G03X7218Y-12761I-139J0D01*
G74*
G01*
G54D13*
X7079Y-14138D02*
X4520Y-14138D01*
X4520Y-14138D02*
X4520Y-12761D01*
X4520Y-12761D02*
X7079Y-12761D01*
X7079Y-12761D02*
X7079Y-14138D01*
G54D16*
X21819Y-7532D02*
X21769Y-7532D01*
X21769Y-7532D02*
X21769Y-9632D01*
X23269Y-9632D02*
X23269Y-7532D01*
X23269Y-7532D02*
X21819Y-7532D01*
X22719Y-7532D02*
X22719Y-7732D01*
X22719Y-7732D02*
X22319Y-7732D01*
X22319Y-7732D02*
X22319Y-7532D01*
X23269Y-9632D02*
X21769Y-9632D01*
G54D17*
X8149Y-5885D02*
X6417Y-5885D01*
X6417Y-5885D02*
X6417Y-3720D01*
X6417Y-3720D02*
X8149Y-3720D01*
X8149Y-3720D02*
X8149Y-5885D01*
G54D18*
X29523Y-11327D02*
G75*
G03X29523Y-11327I-50J0D01*
G74*
G01*
X29473Y-11777D02*
X29473Y-11377D01*
X29473Y-11377D02*
X30073Y-11377D01*
X30073Y-11377D02*
X30073Y-11777D01*
X30073Y-12177D02*
X30073Y-12577D01*
X30073Y-12577D02*
X29473Y-12577D01*
X29473Y-12577D02*
X29473Y-12177D01*
X8821Y-9886D02*
G75*
G03X8821Y-9886I-50J0D01*
G74*
G01*
X9221Y-9886D02*
X8821Y-9886D01*
X8821Y-9886D02*
X8821Y-9286D01*
X8821Y-9286D02*
X9221Y-9286D01*
X9621Y-9286D02*
X10021Y-9286D01*
X10021Y-9286D02*
X10021Y-9886D01*
X10021Y-9886D02*
X9621Y-9886D01*
X23219Y-5133D02*
G75*
G03X23219Y-5133I-50J0D01*
G74*
G01*
X22719Y-5133D02*
X23119Y-5133D01*
X23119Y-5133D02*
X23119Y-5733D01*
X23119Y-5733D02*
X22719Y-5733D01*
X22319Y-5733D02*
X21919Y-5733D01*
X21919Y-5733D02*
X21919Y-5133D01*
X21919Y-5133D02*
X22319Y-5133D01*
X9426Y-14985D02*
G75*
G03X9426Y-14985I-50J0D01*
G74*
G01*
X9826Y-14985D02*
X9426Y-14985D01*
X9426Y-14985D02*
X9426Y-14385D01*
X9426Y-14385D02*
X9826Y-14385D01*
X10226Y-14385D02*
X10626Y-14385D01*
X10626Y-14385D02*
X10626Y-14985D01*
X10626Y-14985D02*
X10226Y-14985D01*
X12250Y-6400D02*
G75*
G03X12250Y-6400I-50J0D01*
G74*
G01*
X12200Y-5950D02*
X12200Y-6350D01*
X12200Y-6350D02*
X11600Y-6350D01*
X11600Y-6350D02*
X11600Y-5950D01*
X11600Y-5550D02*
X11600Y-5150D01*
X11600Y-5150D02*
X12200Y-5150D01*
X12200Y-5150D02*
X12200Y-5550D01*
X14877Y-6398D02*
G75*
G03X14877Y-6398I-50J0D01*
G74*
G01*
X14827Y-5948D02*
X14827Y-6348D01*
X14827Y-6348D02*
X14227Y-6348D01*
X14227Y-6348D02*
X14227Y-5948D01*
X14227Y-5548D02*
X14227Y-5148D01*
X14227Y-5148D02*
X14827Y-5148D01*
X14827Y-5148D02*
X14827Y-5548D01*
X18651Y-5733D02*
G75*
G03X18651Y-5733I-50J0D01*
G74*
G01*
X19051Y-5733D02*
X18651Y-5733D01*
X18651Y-5733D02*
X18651Y-5133D01*
X18651Y-5133D02*
X19051Y-5133D01*
X19451Y-5133D02*
X19851Y-5133D01*
X19851Y-5133D02*
X19851Y-5733D01*
X19851Y-5733D02*
X19451Y-5733D01*
X24557Y-5929D02*
G75*
G03X24557Y-5929I-50J0D01*
G74*
G01*
X24957Y-5929D02*
X24557Y-5929D01*
X24557Y-5929D02*
X24557Y-5329D01*
X24557Y-5329D02*
X24957Y-5329D01*
X25357Y-5329D02*
X25757Y-5329D01*
X25757Y-5329D02*
X25757Y-5929D01*
X25757Y-5929D02*
X25357Y-5929D01*
X22663Y-5964D02*
G75*
G03X22663Y-5964I-50J0D01*
G74*
G01*
X22613Y-6414D02*
X22613Y-6014D01*
X22613Y-6014D02*
X23213Y-6014D01*
X23213Y-6014D02*
X23213Y-6414D01*
X23213Y-6814D02*
X23213Y-7214D01*
X23213Y-7214D02*
X22613Y-7214D01*
X22613Y-7214D02*
X22613Y-6814D01*
X21875Y-5964D02*
G75*
G03X21875Y-5964I-50J0D01*
G74*
G01*
X21825Y-6414D02*
X21825Y-6014D01*
X21825Y-6014D02*
X22425Y-6014D01*
X22425Y-6014D02*
X22425Y-6414D01*
X22425Y-6814D02*
X22425Y-7214D01*
X22425Y-7214D02*
X21825Y-7214D01*
X21825Y-7214D02*
X21825Y-6814D01*
G54D16*
X9277Y-10278D02*
X9277Y-11178D01*
X9277Y-11178D02*
X8777Y-11178D01*
X8777Y-11178D02*
X8777Y-10278D01*
X8777Y-10278D02*
X9277Y-10278D01*
X19746Y-11954D02*
X20646Y-11954D01*
X20646Y-11954D02*
X20646Y-12454D01*
X20646Y-12454D02*
X19746Y-12454D01*
X19746Y-12454D02*
X19746Y-11954D01*
X3335Y-7317D02*
X2435Y-7317D01*
X2435Y-7317D02*
X2435Y-6817D01*
X2435Y-6817D02*
X3335Y-6817D01*
X3335Y-6817D02*
X3335Y-7317D01*
X19864Y-9395D02*
X20764Y-9395D01*
X20764Y-9395D02*
X20764Y-9895D01*
X20764Y-9895D02*
X19864Y-9895D01*
X19864Y-9895D02*
X19864Y-9395D01*
X27512Y-12081D02*
X28412Y-12081D01*
X28412Y-12081D02*
X28412Y-12581D01*
X28412Y-12581D02*
X27512Y-12581D01*
X27512Y-12581D02*
X27512Y-12081D01*
X27512Y-11333D02*
X28412Y-11333D01*
X28412Y-11333D02*
X28412Y-11833D01*
X28412Y-11833D02*
X27512Y-11833D01*
X27512Y-11833D02*
X27512Y-11333D01*
X13677Y-11964D02*
X13677Y-11064D01*
X13677Y-11064D02*
X14177Y-11064D01*
X14177Y-11064D02*
X14177Y-11964D01*
X14177Y-11964D02*
X13677Y-11964D01*
X12732Y-11964D02*
X12732Y-11064D01*
X12732Y-11064D02*
X13232Y-11064D01*
X13232Y-11064D02*
X13232Y-11964D01*
X13232Y-11964D02*
X12732Y-11964D01*
X11964Y-11964D02*
X11964Y-11064D01*
X11964Y-11064D02*
X12464Y-11064D01*
X12464Y-11064D02*
X12464Y-11964D01*
X12464Y-11964D02*
X11964Y-11964D01*
X28412Y-11085D02*
X27512Y-11085D01*
X27512Y-11085D02*
X27512Y-10585D01*
X27512Y-10585D02*
X28412Y-10585D01*
X28412Y-10585D02*
X28412Y-11085D01*
X28806Y-7502D02*
X27906Y-7502D01*
X27906Y-7502D02*
X27906Y-7002D01*
X27906Y-7002D02*
X28806Y-7002D01*
X28806Y-7002D02*
X28806Y-7502D01*
X28806Y-5495D02*
X27906Y-5495D01*
X27906Y-5495D02*
X27906Y-4995D01*
X27906Y-4995D02*
X28806Y-4995D01*
X28806Y-4995D02*
X28806Y-5495D01*
X28806Y-6479D02*
X27906Y-6479D01*
X27906Y-6479D02*
X27906Y-5979D01*
X27906Y-5979D02*
X28806Y-5979D01*
X28806Y-5979D02*
X28806Y-6479D01*
X25074Y-11954D02*
X25074Y-11054D01*
X25074Y-11054D02*
X25574Y-11054D01*
X25574Y-11054D02*
X25574Y-11954D01*
X25574Y-11954D02*
X25074Y-11954D01*
X13346Y-7668D02*
X13346Y-6768D01*
X13346Y-6768D02*
X13846Y-6768D01*
X13846Y-6768D02*
X13846Y-7668D01*
X13846Y-7668D02*
X13346Y-7668D01*
X22581Y-9946D02*
X23481Y-9946D01*
X23481Y-9946D02*
X23481Y-10446D01*
X23481Y-10446D02*
X22581Y-10446D01*
X22581Y-10446D02*
X22581Y-9946D01*
X20643Y-12975D02*
X20643Y-13875D01*
X20643Y-13875D02*
X20143Y-13875D01*
X20143Y-13875D02*
X20143Y-12975D01*
X20143Y-12975D02*
X20643Y-12975D01*
X16636Y-12899D02*
X17536Y-12899D01*
X17536Y-12899D02*
X17536Y-13399D01*
X17536Y-13399D02*
X16636Y-13399D01*
X16636Y-13399D02*
X16636Y-12899D01*
X18329Y-12899D02*
X19229Y-12899D01*
X19229Y-12899D02*
X19229Y-13399D01*
X19229Y-13399D02*
X18329Y-13399D01*
X18329Y-13399D02*
X18329Y-12899D01*
X19746Y-11305D02*
X20646Y-11305D01*
X20646Y-11305D02*
X20646Y-11805D01*
X20646Y-11805D02*
X19746Y-11805D01*
X19746Y-11805D02*
X19746Y-11305D01*
X20646Y-11155D02*
X19746Y-11155D01*
X19746Y-11155D02*
X19746Y-10655D01*
X19746Y-10655D02*
X20646Y-10655D01*
X20646Y-10655D02*
X20646Y-11155D01*
X11350Y-5160D02*
X11350Y-6060D01*
X11350Y-6060D02*
X10850Y-6060D01*
X10850Y-6060D02*
X10850Y-5160D01*
X10850Y-5160D02*
X11350Y-5160D01*
X19864Y-8529D02*
X20764Y-8529D01*
X20764Y-8529D02*
X20764Y-9029D01*
X20764Y-9029D02*
X19864Y-9029D01*
X19864Y-9029D02*
X19864Y-8529D01*
X16009Y-7654D02*
X16009Y-6754D01*
X16009Y-6754D02*
X16509Y-6754D01*
X16509Y-6754D02*
X16509Y-7654D01*
X16509Y-7654D02*
X16009Y-7654D01*
X5550Y-11460D02*
X5550Y-10560D01*
X5550Y-10560D02*
X6050Y-10560D01*
X6050Y-10560D02*
X6050Y-11460D01*
X6050Y-11460D02*
X5550Y-11460D01*
X19150Y-7021D02*
X18250Y-7021D01*
X18250Y-7021D02*
X18250Y-6521D01*
X18250Y-6521D02*
X19150Y-6521D01*
X19150Y-6521D02*
X19150Y-7021D01*
X19864Y-7663D02*
X20764Y-7663D01*
X20764Y-7663D02*
X20764Y-8163D01*
X20764Y-8163D02*
X19864Y-8163D01*
X19864Y-8163D02*
X19864Y-7663D01*
X24274Y-7584D02*
X25174Y-7584D01*
X25174Y-7584D02*
X25174Y-8084D01*
X25174Y-8084D02*
X24274Y-8084D01*
X24274Y-8084D02*
X24274Y-7584D01*
X25450Y-7139D02*
X24550Y-7139D01*
X24550Y-7139D02*
X24550Y-6639D01*
X24550Y-6639D02*
X25450Y-6639D01*
X25450Y-6639D02*
X25450Y-7139D01*
G54D19*
X8527Y-8866D02*
X9527Y-8866D01*
X8527Y-7866D02*
X9527Y-7866D01*
G54D20*
X8527Y-8866D02*
X8527Y-7866D01*
X9527Y-7866D02*
X9527Y-8866D01*
G54D19*
X9150Y-13620D02*
X10150Y-13620D01*
X9150Y-12620D02*
X10150Y-12620D01*
G54D20*
X9150Y-13620D02*
X9150Y-12620D01*
X10150Y-12620D02*
X10150Y-13620D01*
G54D17*
X18711Y-4771D02*
X18711Y-36D01*
X12311Y-36D02*
X12311Y-4771D01*
X18711Y-4771D02*
X12311Y-4771D01*
X25522Y-4771D02*
X25522Y-36D01*
X19122Y-36D02*
X19122Y-4771D01*
X25522Y-4771D02*
X19122Y-4771D01*
G54D20*
X30265Y-15064D02*
X25265Y-15064D01*
X25265Y-15064D02*
X25265Y-13064D01*
X25265Y-13064D02*
X30265Y-13064D01*
X30265Y-13064D02*
X30265Y-15064D01*
G54D17*
X16783Y-5413D02*
X16783Y-10413D01*
X17783Y-10413D02*
X17783Y-5413D01*
X17783Y-5413D02*
X16783Y-5413D01*
X16783Y-10413D02*
X17783Y-10413D01*
G54D11*
X29273Y-4729D02*
X30273Y-4729D01*
X30273Y-4729D02*
X30273Y-7729D01*
X30273Y-7729D02*
X29273Y-7729D01*
X29273Y-7729D02*
X29273Y-4729D01*
X30273Y-5729D02*
X29273Y-5729D01*
X29273Y-8378D02*
X30273Y-8378D01*
X30273Y-8378D02*
X30273Y-10378D01*
X30273Y-10378D02*
X29273Y-10378D01*
X29273Y-10378D02*
X29273Y-8378D01*
G54D16*
X21889Y-11606D02*
G75*
G03X21889Y-11606I-109J0D01*
G74*
G01*
X21556Y-11480D02*
X21556Y-13952D01*
X21556Y-13952D02*
X21677Y-14073D01*
X21677Y-14073D02*
X24149Y-14073D01*
X24149Y-14073D02*
X24270Y-13952D01*
X24270Y-13952D02*
X24270Y-11480D01*
X24270Y-11480D02*
X24149Y-11359D01*
X24149Y-11359D02*
X21677Y-11359D01*
X21677Y-11359D02*
X21556Y-11480D01*
G54D11*
X19704Y-15556D02*
X19704Y-15126D01*
X14694Y-14086D02*
X14694Y-13656D01*
X14694Y-13656D02*
X19704Y-13656D01*
X19704Y-13656D02*
X19704Y-14086D01*
X19704Y-15556D02*
X14704Y-15556D01*
X14704Y-15556D02*
X14704Y-15126D01*
G54D16*
X10654Y-4133D02*
X10734Y-4133D01*
X11254Y-4883D02*
X9454Y-4883D01*
X9454Y-4883D02*
X9454Y-4633D01*
X10094Y-3383D02*
X10094Y-4883D01*
X9964Y-3383D02*
X9964Y-4883D01*
X11254Y-3633D02*
X11254Y-3383D01*
X11254Y-3383D02*
X9454Y-3383D01*
X9454Y-3383D02*
X9454Y-3633D01*
X11254Y-4633D02*
X11254Y-4883D01*
X10404Y-4133D02*
X10654Y-4320D01*
X10654Y-4320D02*
X10654Y-4133D01*
X10654Y-4133D02*
X10654Y-3946D01*
X10654Y-3946D02*
X10404Y-4133D01*
X10404Y-4133D02*
X10404Y-4258D01*
X10404Y-4258D02*
X10466Y-4320D01*
X10404Y-4133D02*
X10404Y-4008D01*
X10404Y-4008D02*
X10342Y-3946D01*
X10404Y-4133D02*
X9967Y-4133D01*
G54D10*
X25925Y0D02*
X30846Y0D01*
X30846Y0D02*
X30846Y-3937D01*
X30846Y-3937D02*
X25925Y-3937D01*
X25925Y-3937D02*
X25925Y0D01*
X19Y0D02*
X4940Y0D01*
X4940Y0D02*
X4940Y-3937D01*
X4940Y-3937D02*
X19Y-3937D01*
X19Y-3937D02*
X19Y0D01*
X3484Y-5354D02*
G75*
G03X3484Y-5354I-295J0D01*
G74*
G01*
X4566Y-5354D02*
G75*
G03X4566Y-5354I-984J0D01*
G74*
G01*
X8602Y-13937D02*
G75*
G03X8602Y-13937I-295J0D01*
G74*
G01*
X9291Y-14330D02*
G75*
G03X9291Y-14330I-984J0D01*
G74*
G01*
X7708Y-8799D02*
G75*
G03X7708Y-8799I-295J0D01*
G74*
G01*
X8397Y-9193D02*
G75*
G03X8397Y-9193I-984J0D01*
G74*
G01*
G54D13*
X11515Y98D02*
X5413Y98D01*
X5413Y295D02*
X11515Y295D01*
X11515Y-98D02*
X5413Y-98D01*
X11515Y-98D02*
X11515Y295D01*
X5413Y295D02*
X5413Y98D01*
X5413Y98D02*
X5413Y-98D01*
X11318Y-590D02*
X11318Y-98D01*
X11318Y-2854D02*
X11318Y-1377D01*
X5610Y-590D02*
X5610Y-98D01*
X11318Y-2854D02*
X5610Y-2854D01*
X5610Y-2854D02*
X5610Y-1377D01*
G54D21*
X23671Y-5689D02*
X23766Y-5689D01*
X24280Y-5689D02*
X24186Y-5689D01*
X24282Y-6751D02*
X24186Y-6751D01*
X23671Y-6751D02*
X23766Y-6751D01*
X24281Y-5689D02*
X24281Y-6751D01*
X23671Y-6751D02*
X23671Y-5689D01*
X23671Y-6496D02*
X24281Y-6496D01*
X23976Y-6496D02*
X23740Y-6259D01*
X23740Y-6259D02*
X24212Y-6259D01*
X24212Y-6259D02*
X23976Y-6496D01*
X20757Y-5689D02*
X20852Y-5689D01*
X21366Y-5689D02*
X21272Y-5689D01*
X21368Y-6751D02*
X21272Y-6751D01*
X20757Y-6751D02*
X20852Y-6751D01*
X21367Y-5689D02*
X21367Y-6751D01*
X20757Y-6751D02*
X20757Y-5689D01*
X20757Y-6496D02*
X21367Y-6496D01*
X21062Y-6496D02*
X20826Y-6259D01*
X20826Y-6259D02*
X21298Y-6259D01*
X21298Y-6259D02*
X21062Y-6496D01*
X20167Y-7017D02*
X20167Y-6525D01*
X19999Y-6938D02*
X19999Y-6604D01*
X19999Y-6604D02*
X20167Y-6771D01*
X20167Y-6771D02*
X19999Y-6938D01*
X20295Y-6525D02*
X20295Y-6574D01*
X20295Y-7017D02*
X20295Y-6968D01*
X19625Y-6525D02*
X19625Y-6574D01*
X19625Y-7017D02*
X19625Y-6968D01*
X20295Y-6527D02*
X19625Y-6527D01*
X20295Y-7019D02*
X19625Y-7019D01*
G54D16*
X28921Y-7905D02*
X28921Y-8805D01*
X28921Y-8805D02*
X28421Y-8805D01*
X28421Y-8805D02*
X28421Y-7905D01*
X28421Y-7905D02*
X28921Y-7905D01*
G54D11*
X15286Y-5518D02*
X15257Y-5504D01*
X15229Y-5475D01*
X15186Y-5432D01*
X15157Y-5418D01*
X15129Y-5418D01*
X15143Y-5490D02*
X15114Y-5475D01*
X15086Y-5447D01*
X15072Y-5390D01*
X15072Y-5290D01*
X15086Y-5232D01*
X15114Y-5204D01*
X15143Y-5190D01*
X15200Y-5190D01*
X15229Y-5204D01*
X15257Y-5232D01*
X15272Y-5290D01*
X15272Y-5390D01*
X15257Y-5447D01*
X15229Y-5475D01*
X15200Y-5490D01*
X15143Y-5490D01*
X15386Y-5218D02*
X15400Y-5204D01*
X15429Y-5190D01*
X15500Y-5190D01*
X15529Y-5204D01*
X15543Y-5218D01*
X15557Y-5247D01*
X15557Y-5275D01*
X15543Y-5318D01*
X15372Y-5490D01*
X15557Y-5490D01*
X13829Y-5518D02*
X13801Y-5504D01*
X13772Y-5475D01*
X13729Y-5432D01*
X13701Y-5418D01*
X13672Y-5418D01*
X13686Y-5490D02*
X13658Y-5475D01*
X13629Y-5447D01*
X13615Y-5390D01*
X13615Y-5290D01*
X13629Y-5232D01*
X13658Y-5204D01*
X13686Y-5190D01*
X13743Y-5190D01*
X13772Y-5204D01*
X13801Y-5232D01*
X13815Y-5290D01*
X13815Y-5390D01*
X13801Y-5447D01*
X13772Y-5475D01*
X13743Y-5490D01*
X13686Y-5490D01*
X14101Y-5490D02*
X13929Y-5490D01*
X14015Y-5490D02*
X14015Y-5190D01*
X13986Y-5232D01*
X13958Y-5261D01*
X13929Y-5275D01*
X3184Y-8518D02*
X3427Y-8518D01*
X3456Y-8504D01*
X3470Y-8490D01*
X3484Y-8461D01*
X3484Y-8404D01*
X3470Y-8375D01*
X3456Y-8361D01*
X3427Y-8347D01*
X3184Y-8347D01*
X3213Y-8218D02*
X3199Y-8204D01*
X3184Y-8175D01*
X3184Y-8104D01*
X3199Y-8075D01*
X3213Y-8061D01*
X3241Y-8047D01*
X3270Y-8047D01*
X3313Y-8061D01*
X3484Y-8232D01*
X3484Y-8047D01*
X4031Y-13668D02*
X4273Y-13668D01*
X4302Y-13654D01*
X4316Y-13639D01*
X4331Y-13611D01*
X4331Y-13554D01*
X4316Y-13525D01*
X4302Y-13511D01*
X4273Y-13496D01*
X4031Y-13496D01*
X4031Y-13382D02*
X4031Y-13196D01*
X4145Y-13296D01*
X4145Y-13254D01*
X4159Y-13225D01*
X4173Y-13211D01*
X4202Y-13196D01*
X4273Y-13196D01*
X4302Y-13211D01*
X4316Y-13225D01*
X4331Y-13254D01*
X4331Y-13339D01*
X4316Y-13368D01*
X4302Y-13382D01*
X24087Y-8850D02*
X24330Y-8850D01*
X24359Y-8836D01*
X24373Y-8822D01*
X24387Y-8793D01*
X24387Y-8736D01*
X24373Y-8707D01*
X24359Y-8693D01*
X24330Y-8679D01*
X24087Y-8679D01*
X24187Y-8407D02*
X24387Y-8407D01*
X24073Y-8479D02*
X24287Y-8550D01*
X24287Y-8364D01*
X7158Y-6316D02*
X7058Y-6173D01*
X6987Y-6316D02*
X6987Y-6016D01*
X7101Y-6016D01*
X7129Y-6031D01*
X7144Y-6045D01*
X7158Y-6073D01*
X7158Y-6116D01*
X7144Y-6145D01*
X7129Y-6159D01*
X7101Y-6173D01*
X6987Y-6173D01*
X7244Y-6016D02*
X7415Y-6016D01*
X7329Y-6316D02*
X7329Y-6016D01*
X7672Y-6316D02*
X7501Y-6316D01*
X7587Y-6316D02*
X7587Y-6016D01*
X7558Y-6059D01*
X7529Y-6088D01*
X7501Y-6102D01*
G54D22*
X29646Y-11279D02*
X29581Y-11185D01*
X29534Y-11279D02*
X29534Y-11082D01*
X29609Y-11082D01*
X29628Y-11091D01*
X29637Y-11100D01*
X29646Y-11119D01*
X29646Y-11147D01*
X29637Y-11166D01*
X29628Y-11175D01*
X29609Y-11185D01*
X29534Y-11185D01*
X29721Y-11100D02*
X29731Y-11091D01*
X29750Y-11082D01*
X29796Y-11082D01*
X29815Y-11091D01*
X29825Y-11100D01*
X29834Y-11119D01*
X29834Y-11138D01*
X29825Y-11166D01*
X29712Y-11279D01*
X29834Y-11279D01*
X29909Y-11100D02*
X29918Y-11091D01*
X29937Y-11082D01*
X29984Y-11082D01*
X30003Y-11091D01*
X30012Y-11100D01*
X30022Y-11119D01*
X30022Y-11138D01*
X30012Y-11166D01*
X29900Y-11279D01*
X30022Y-11279D01*
X9294Y-9203D02*
X9229Y-9109D01*
X9182Y-9203D02*
X9182Y-9006D01*
X9257Y-9006D01*
X9275Y-9015D01*
X9285Y-9025D01*
X9294Y-9044D01*
X9294Y-9072D01*
X9285Y-9091D01*
X9275Y-9100D01*
X9257Y-9109D01*
X9182Y-9109D01*
X9482Y-9203D02*
X9369Y-9203D01*
X9426Y-9203D02*
X9426Y-9006D01*
X9407Y-9034D01*
X9388Y-9053D01*
X9369Y-9062D01*
X9669Y-9203D02*
X9557Y-9203D01*
X9613Y-9203D02*
X9613Y-9006D01*
X9594Y-9034D01*
X9576Y-9053D01*
X9557Y-9062D01*
X23377Y-5246D02*
X23311Y-5152D01*
X23264Y-5246D02*
X23264Y-5049D01*
X23339Y-5049D01*
X23358Y-5058D01*
X23367Y-5068D01*
X23377Y-5087D01*
X23377Y-5115D01*
X23367Y-5134D01*
X23358Y-5143D01*
X23339Y-5152D01*
X23264Y-5152D01*
X23564Y-5246D02*
X23452Y-5246D01*
X23508Y-5246D02*
X23508Y-5049D01*
X23489Y-5077D01*
X23471Y-5096D01*
X23452Y-5105D01*
X23639Y-5068D02*
X23649Y-5058D01*
X23668Y-5049D01*
X23715Y-5049D01*
X23733Y-5058D01*
X23743Y-5068D01*
X23752Y-5087D01*
X23752Y-5105D01*
X23743Y-5134D01*
X23630Y-5246D01*
X23752Y-5246D01*
X9919Y-14311D02*
X9854Y-14217D01*
X9807Y-14311D02*
X9807Y-14114D01*
X9882Y-14114D01*
X9901Y-14123D01*
X9910Y-14133D01*
X9919Y-14152D01*
X9919Y-14180D01*
X9910Y-14198D01*
X9901Y-14208D01*
X9882Y-14217D01*
X9807Y-14217D01*
X10107Y-14311D02*
X9994Y-14311D01*
X10051Y-14311D02*
X10051Y-14114D01*
X10032Y-14142D01*
X10013Y-14161D01*
X9994Y-14170D01*
X10276Y-14114D02*
X10238Y-14114D01*
X10220Y-14123D01*
X10210Y-14133D01*
X10191Y-14161D01*
X10182Y-14198D01*
X10182Y-14274D01*
X10191Y-14292D01*
X10201Y-14302D01*
X10220Y-14311D01*
X10257Y-14311D01*
X10276Y-14302D01*
X10285Y-14292D01*
X10295Y-14274D01*
X10295Y-14227D01*
X10285Y-14208D01*
X10276Y-14198D01*
X10257Y-14189D01*
X10220Y-14189D01*
X10201Y-14198D01*
X10191Y-14208D01*
X10182Y-14227D01*
X11867Y-6639D02*
X11801Y-6545D01*
X11754Y-6639D02*
X11754Y-6442D01*
X11829Y-6442D01*
X11848Y-6451D01*
X11857Y-6460D01*
X11867Y-6479D01*
X11867Y-6507D01*
X11857Y-6526D01*
X11848Y-6535D01*
X11829Y-6545D01*
X11754Y-6545D01*
X11932Y-6442D02*
X12054Y-6442D01*
X11989Y-6517D01*
X12017Y-6517D01*
X12036Y-6526D01*
X12045Y-6535D01*
X12054Y-6554D01*
X12054Y-6601D01*
X12045Y-6620D01*
X12036Y-6629D01*
X12017Y-6639D01*
X11960Y-6639D01*
X11942Y-6629D01*
X11932Y-6620D01*
X14534Y-6624D02*
X14468Y-6530D01*
X14421Y-6624D02*
X14421Y-6427D01*
X14496Y-6427D01*
X14515Y-6436D01*
X14524Y-6446D01*
X14534Y-6465D01*
X14534Y-6493D01*
X14524Y-6511D01*
X14515Y-6521D01*
X14496Y-6530D01*
X14421Y-6530D01*
X14702Y-6493D02*
X14702Y-6624D01*
X14656Y-6418D02*
X14609Y-6558D01*
X14731Y-6558D01*
X19228Y-6042D02*
X19163Y-5949D01*
X19116Y-6042D02*
X19116Y-5845D01*
X19191Y-5845D01*
X19210Y-5855D01*
X19219Y-5864D01*
X19228Y-5883D01*
X19228Y-5911D01*
X19219Y-5930D01*
X19210Y-5939D01*
X19191Y-5949D01*
X19116Y-5949D01*
X19407Y-5845D02*
X19313Y-5845D01*
X19303Y-5939D01*
X19313Y-5930D01*
X19332Y-5920D01*
X19378Y-5920D01*
X19397Y-5930D01*
X19407Y-5939D01*
X19416Y-5958D01*
X19416Y-6005D01*
X19407Y-6024D01*
X19397Y-6033D01*
X19378Y-6042D01*
X19332Y-6042D01*
X19313Y-6033D01*
X19303Y-6024D01*
X25134Y-6239D02*
X25068Y-6145D01*
X25022Y-6239D02*
X25022Y-6042D01*
X25097Y-6042D01*
X25115Y-6051D01*
X25125Y-6060D01*
X25134Y-6079D01*
X25134Y-6107D01*
X25125Y-6126D01*
X25115Y-6135D01*
X25097Y-6145D01*
X25022Y-6145D01*
X25303Y-6042D02*
X25265Y-6042D01*
X25247Y-6051D01*
X25237Y-6060D01*
X25219Y-6088D01*
X25209Y-6126D01*
X25209Y-6201D01*
X25219Y-6220D01*
X25228Y-6229D01*
X25247Y-6239D01*
X25284Y-6239D01*
X25303Y-6229D01*
X25312Y-6220D01*
X25322Y-6201D01*
X25322Y-6154D01*
X25312Y-6135D01*
X25303Y-6126D01*
X25284Y-6117D01*
X25247Y-6117D01*
X25228Y-6126D01*
X25219Y-6135D01*
X25209Y-6154D01*
X23514Y-6647D02*
X23420Y-6712D01*
X23514Y-6759D02*
X23317Y-6759D01*
X23317Y-6684D01*
X23326Y-6665D01*
X23336Y-6656D01*
X23354Y-6647D01*
X23382Y-6647D01*
X23401Y-6656D01*
X23411Y-6665D01*
X23420Y-6684D01*
X23420Y-6759D01*
X23317Y-6581D02*
X23317Y-6450D01*
X23514Y-6534D01*
X21742Y-6647D02*
X21648Y-6712D01*
X21742Y-6759D02*
X21545Y-6759D01*
X21545Y-6684D01*
X21555Y-6665D01*
X21564Y-6656D01*
X21583Y-6647D01*
X21611Y-6647D01*
X21630Y-6656D01*
X21639Y-6665D01*
X21648Y-6684D01*
X21648Y-6759D01*
X21630Y-6534D02*
X21620Y-6553D01*
X21611Y-6562D01*
X21592Y-6571D01*
X21583Y-6571D01*
X21564Y-6562D01*
X21555Y-6553D01*
X21545Y-6534D01*
X21545Y-6496D01*
X21555Y-6478D01*
X21564Y-6468D01*
X21583Y-6459D01*
X21592Y-6459D01*
X21611Y-6468D01*
X21620Y-6478D01*
X21630Y-6496D01*
X21630Y-6534D01*
X21639Y-6553D01*
X21648Y-6562D01*
X21667Y-6571D01*
X21705Y-6571D01*
X21723Y-6562D01*
X21733Y-6553D01*
X21742Y-6534D01*
X21742Y-6496D01*
X21733Y-6478D01*
X21723Y-6468D01*
X21705Y-6459D01*
X21667Y-6459D01*
X21648Y-6468D01*
X21639Y-6478D01*
X21630Y-6496D01*
G54D23*
X8958Y-11469D02*
X8949Y-11478D01*
X8923Y-11488D01*
X8906Y-11488D01*
X8881Y-11478D01*
X8863Y-11459D01*
X8855Y-11440D01*
X8846Y-11402D01*
X8846Y-11374D01*
X8855Y-11336D01*
X8863Y-11317D01*
X8881Y-11297D01*
X8906Y-11288D01*
X8923Y-11288D01*
X8949Y-11297D01*
X8958Y-11307D01*
X9112Y-11355D02*
X9112Y-11488D01*
X9069Y-11278D02*
X9026Y-11421D01*
X9138Y-11421D01*
X19657Y-12300D02*
X19562Y-12360D01*
X19657Y-12403D02*
X19457Y-12403D01*
X19457Y-12335D01*
X19466Y-12317D01*
X19476Y-12309D01*
X19495Y-12300D01*
X19524Y-12300D01*
X19543Y-12309D01*
X19552Y-12317D01*
X19562Y-12335D01*
X19562Y-12403D01*
X19476Y-12232D02*
X19466Y-12223D01*
X19457Y-12206D01*
X19457Y-12163D01*
X19466Y-12146D01*
X19476Y-12137D01*
X19495Y-12129D01*
X19514Y-12129D01*
X19543Y-12137D01*
X19657Y-12240D01*
X19657Y-12129D01*
X19457Y-12017D02*
X19457Y-12000D01*
X19466Y-11983D01*
X19476Y-11975D01*
X19495Y-11966D01*
X19533Y-11957D01*
X19581Y-11957D01*
X19619Y-11966D01*
X19638Y-11975D01*
X19647Y-11983D01*
X19657Y-12000D01*
X19657Y-12017D01*
X19647Y-12035D01*
X19638Y-12043D01*
X19619Y-12052D01*
X19581Y-12060D01*
X19533Y-12060D01*
X19495Y-12052D01*
X19476Y-12043D01*
X19466Y-12035D01*
X19457Y-12017D01*
X2855Y-7650D02*
X2847Y-7660D01*
X2821Y-7669D01*
X2804Y-7669D01*
X2778Y-7660D01*
X2761Y-7640D01*
X2753Y-7621D01*
X2744Y-7583D01*
X2744Y-7555D01*
X2753Y-7517D01*
X2761Y-7498D01*
X2778Y-7479D01*
X2804Y-7469D01*
X2821Y-7469D01*
X2847Y-7479D01*
X2855Y-7488D01*
X2924Y-7488D02*
X2933Y-7479D01*
X2950Y-7469D01*
X2993Y-7469D01*
X3010Y-7479D01*
X3018Y-7488D01*
X3027Y-7507D01*
X3027Y-7526D01*
X3018Y-7555D01*
X2915Y-7669D01*
X3027Y-7669D01*
X21070Y-9752D02*
X20975Y-9812D01*
X21070Y-9855D02*
X20870Y-9855D01*
X20870Y-9786D01*
X20880Y-9769D01*
X20889Y-9761D01*
X20908Y-9752D01*
X20937Y-9752D01*
X20956Y-9761D01*
X20965Y-9769D01*
X20975Y-9786D01*
X20975Y-9855D01*
X21070Y-9581D02*
X21070Y-9683D01*
X21070Y-9632D02*
X20870Y-9632D01*
X20899Y-9649D01*
X20918Y-9666D01*
X20927Y-9683D01*
X20870Y-9418D02*
X20870Y-9503D01*
X20965Y-9512D01*
X20956Y-9503D01*
X20946Y-9486D01*
X20946Y-9443D01*
X20956Y-9426D01*
X20965Y-9418D01*
X20984Y-9409D01*
X21032Y-9409D01*
X21051Y-9418D01*
X21060Y-9426D01*
X21070Y-9443D01*
X21070Y-9486D01*
X21060Y-9503D01*
X21051Y-9512D01*
X27846Y-12894D02*
X27786Y-12799D01*
X27743Y-12894D02*
X27743Y-12694D01*
X27812Y-12694D01*
X27829Y-12704D01*
X27838Y-12713D01*
X27846Y-12732D01*
X27846Y-12761D01*
X27838Y-12780D01*
X27829Y-12789D01*
X27812Y-12799D01*
X27743Y-12799D01*
X27915Y-12713D02*
X27923Y-12704D01*
X27941Y-12694D01*
X27983Y-12694D01*
X28001Y-12704D01*
X28009Y-12713D01*
X28018Y-12732D01*
X28018Y-12751D01*
X28009Y-12780D01*
X27906Y-12894D01*
X28018Y-12894D01*
X28078Y-12694D02*
X28198Y-12694D01*
X28121Y-12894D01*
X27344Y-11699D02*
X27249Y-11759D01*
X27344Y-11802D02*
X27144Y-11802D01*
X27144Y-11733D01*
X27153Y-11716D01*
X27163Y-11707D01*
X27182Y-11699D01*
X27211Y-11699D01*
X27230Y-11707D01*
X27239Y-11716D01*
X27249Y-11733D01*
X27249Y-11802D01*
X27163Y-11630D02*
X27153Y-11622D01*
X27144Y-11605D01*
X27144Y-11562D01*
X27153Y-11545D01*
X27163Y-11536D01*
X27182Y-11527D01*
X27201Y-11527D01*
X27230Y-11536D01*
X27344Y-11639D01*
X27344Y-11527D01*
X27144Y-11373D02*
X27144Y-11407D01*
X27153Y-11425D01*
X27163Y-11433D01*
X27191Y-11450D01*
X27230Y-11459D01*
X27306Y-11459D01*
X27325Y-11450D01*
X27334Y-11442D01*
X27344Y-11425D01*
X27344Y-11390D01*
X27334Y-11373D01*
X27325Y-11365D01*
X27306Y-11356D01*
X27258Y-11356D01*
X27239Y-11365D01*
X27230Y-11373D01*
X27220Y-11390D01*
X27220Y-11425D01*
X27230Y-11442D01*
X27239Y-11450D01*
X27258Y-11459D01*
X13801Y-10955D02*
X13741Y-10860D01*
X13698Y-10955D02*
X13698Y-10755D01*
X13767Y-10755D01*
X13784Y-10765D01*
X13793Y-10774D01*
X13801Y-10793D01*
X13801Y-10822D01*
X13793Y-10841D01*
X13784Y-10850D01*
X13767Y-10860D01*
X13698Y-10860D01*
X13870Y-10774D02*
X13878Y-10765D01*
X13895Y-10755D01*
X13938Y-10755D01*
X13955Y-10765D01*
X13964Y-10774D01*
X13973Y-10793D01*
X13973Y-10812D01*
X13964Y-10841D01*
X13861Y-10955D01*
X13973Y-10955D01*
X14033Y-10755D02*
X14144Y-10755D01*
X14084Y-10831D01*
X14110Y-10831D01*
X14127Y-10841D01*
X14135Y-10850D01*
X14144Y-10869D01*
X14144Y-10917D01*
X14135Y-10936D01*
X14127Y-10945D01*
X14110Y-10955D01*
X14058Y-10955D01*
X14041Y-10945D01*
X14033Y-10936D01*
X12846Y-10945D02*
X12786Y-10850D01*
X12744Y-10945D02*
X12744Y-10745D01*
X12812Y-10745D01*
X12829Y-10755D01*
X12838Y-10764D01*
X12846Y-10783D01*
X12846Y-10812D01*
X12838Y-10831D01*
X12829Y-10840D01*
X12812Y-10850D01*
X12744Y-10850D01*
X12915Y-10764D02*
X12924Y-10755D01*
X12941Y-10745D01*
X12984Y-10745D01*
X13001Y-10755D01*
X13009Y-10764D01*
X13018Y-10783D01*
X13018Y-10802D01*
X13009Y-10831D01*
X12906Y-10945D01*
X13018Y-10945D01*
X13172Y-10812D02*
X13172Y-10945D01*
X13129Y-10736D02*
X13086Y-10879D01*
X13198Y-10879D01*
X12128Y-10955D02*
X12068Y-10860D01*
X12025Y-10955D02*
X12025Y-10755D01*
X12094Y-10755D01*
X12111Y-10765D01*
X12119Y-10774D01*
X12128Y-10793D01*
X12128Y-10822D01*
X12119Y-10841D01*
X12111Y-10850D01*
X12094Y-10860D01*
X12025Y-10860D01*
X12196Y-10774D02*
X12205Y-10765D01*
X12222Y-10755D01*
X12265Y-10755D01*
X12282Y-10765D01*
X12291Y-10774D01*
X12299Y-10793D01*
X12299Y-10812D01*
X12291Y-10841D01*
X12188Y-10955D01*
X12299Y-10955D01*
X12462Y-10755D02*
X12376Y-10755D01*
X12368Y-10850D01*
X12376Y-10841D01*
X12394Y-10831D01*
X12436Y-10831D01*
X12454Y-10841D01*
X12462Y-10850D01*
X12471Y-10869D01*
X12471Y-10917D01*
X12462Y-10936D01*
X12454Y-10945D01*
X12436Y-10955D01*
X12394Y-10955D01*
X12376Y-10945D01*
X12368Y-10936D01*
X27886Y-10493D02*
X27826Y-10397D01*
X27783Y-10493D02*
X27783Y-10293D01*
X27851Y-10293D01*
X27869Y-10302D01*
X27877Y-10312D01*
X27886Y-10331D01*
X27886Y-10359D01*
X27877Y-10378D01*
X27869Y-10388D01*
X27851Y-10397D01*
X27783Y-10397D01*
X27954Y-10312D02*
X27963Y-10302D01*
X27980Y-10293D01*
X28023Y-10293D01*
X28040Y-10302D01*
X28049Y-10312D01*
X28057Y-10331D01*
X28057Y-10350D01*
X28049Y-10378D01*
X27946Y-10493D01*
X28057Y-10493D01*
X28160Y-10378D02*
X28143Y-10369D01*
X28134Y-10359D01*
X28126Y-10340D01*
X28126Y-10331D01*
X28134Y-10312D01*
X28143Y-10302D01*
X28160Y-10293D01*
X28194Y-10293D01*
X28211Y-10302D01*
X28220Y-10312D01*
X28229Y-10331D01*
X28229Y-10340D01*
X28220Y-10359D01*
X28211Y-10369D01*
X28194Y-10378D01*
X28160Y-10378D01*
X28143Y-10388D01*
X28134Y-10397D01*
X28126Y-10416D01*
X28126Y-10454D01*
X28134Y-10474D01*
X28143Y-10483D01*
X28160Y-10493D01*
X28194Y-10493D01*
X28211Y-10483D01*
X28220Y-10474D01*
X28229Y-10454D01*
X28229Y-10416D01*
X28220Y-10397D01*
X28211Y-10388D01*
X28194Y-10378D01*
X28240Y-6910D02*
X28180Y-6815D01*
X28137Y-6910D02*
X28137Y-6710D01*
X28206Y-6710D01*
X28223Y-6719D01*
X28231Y-6729D01*
X28240Y-6748D01*
X28240Y-6777D01*
X28231Y-6796D01*
X28223Y-6805D01*
X28206Y-6815D01*
X28137Y-6815D01*
X28411Y-6910D02*
X28309Y-6910D01*
X28360Y-6910D02*
X28360Y-6710D01*
X28343Y-6738D01*
X28326Y-6758D01*
X28309Y-6767D01*
X28471Y-6710D02*
X28591Y-6710D01*
X28514Y-6910D01*
X28240Y-4902D02*
X28180Y-4807D01*
X28137Y-4902D02*
X28137Y-4702D01*
X28206Y-4702D01*
X28223Y-4712D01*
X28231Y-4721D01*
X28240Y-4740D01*
X28240Y-4769D01*
X28231Y-4788D01*
X28223Y-4797D01*
X28206Y-4807D01*
X28137Y-4807D01*
X28411Y-4902D02*
X28309Y-4902D01*
X28360Y-4902D02*
X28360Y-4702D01*
X28343Y-4731D01*
X28326Y-4750D01*
X28309Y-4759D01*
X28514Y-4788D02*
X28497Y-4778D01*
X28489Y-4769D01*
X28480Y-4750D01*
X28480Y-4740D01*
X28489Y-4721D01*
X28497Y-4712D01*
X28514Y-4702D01*
X28549Y-4702D01*
X28566Y-4712D01*
X28574Y-4721D01*
X28583Y-4740D01*
X28583Y-4750D01*
X28574Y-4769D01*
X28566Y-4778D01*
X28549Y-4788D01*
X28514Y-4788D01*
X28497Y-4797D01*
X28489Y-4807D01*
X28480Y-4826D01*
X28480Y-4864D01*
X28489Y-4883D01*
X28497Y-4892D01*
X28514Y-4902D01*
X28549Y-4902D01*
X28566Y-4892D01*
X28574Y-4883D01*
X28583Y-4864D01*
X28583Y-4826D01*
X28574Y-4807D01*
X28566Y-4797D01*
X28549Y-4788D01*
X28240Y-5926D02*
X28180Y-5830D01*
X28137Y-5926D02*
X28137Y-5726D01*
X28206Y-5726D01*
X28223Y-5735D01*
X28231Y-5745D01*
X28240Y-5764D01*
X28240Y-5792D01*
X28231Y-5811D01*
X28223Y-5821D01*
X28206Y-5830D01*
X28137Y-5830D01*
X28411Y-5926D02*
X28309Y-5926D01*
X28360Y-5926D02*
X28360Y-5726D01*
X28343Y-5754D01*
X28326Y-5773D01*
X28309Y-5783D01*
X28497Y-5926D02*
X28531Y-5926D01*
X28549Y-5916D01*
X28557Y-5907D01*
X28574Y-5878D01*
X28583Y-5840D01*
X28583Y-5764D01*
X28574Y-5745D01*
X28566Y-5735D01*
X28549Y-5726D01*
X28514Y-5726D01*
X28497Y-5735D01*
X28489Y-5745D01*
X28480Y-5764D01*
X28480Y-5811D01*
X28489Y-5830D01*
X28497Y-5840D01*
X28514Y-5849D01*
X28549Y-5849D01*
X28566Y-5840D01*
X28574Y-5830D01*
X28583Y-5811D01*
X25868Y-11534D02*
X25878Y-11543D01*
X25887Y-11569D01*
X25887Y-11586D01*
X25878Y-11612D01*
X25859Y-11629D01*
X25840Y-11637D01*
X25801Y-11646D01*
X25773Y-11646D01*
X25735Y-11637D01*
X25716Y-11629D01*
X25697Y-11612D01*
X25687Y-11586D01*
X25687Y-11569D01*
X25697Y-11543D01*
X25706Y-11534D01*
X25887Y-11449D02*
X25887Y-11414D01*
X25878Y-11397D01*
X25868Y-11389D01*
X25840Y-11372D01*
X25801Y-11363D01*
X25725Y-11363D01*
X25706Y-11372D01*
X25697Y-11380D01*
X25687Y-11397D01*
X25687Y-11432D01*
X25697Y-11449D01*
X25706Y-11457D01*
X25725Y-11466D01*
X25773Y-11466D01*
X25792Y-11457D01*
X25801Y-11449D01*
X25811Y-11432D01*
X25811Y-11397D01*
X25801Y-11380D01*
X25792Y-11372D01*
X25773Y-11363D01*
X13253Y-7248D02*
X13158Y-7308D01*
X13253Y-7350D02*
X13053Y-7350D01*
X13053Y-7282D01*
X13063Y-7265D01*
X13072Y-7256D01*
X13091Y-7248D01*
X13120Y-7248D01*
X13139Y-7256D01*
X13149Y-7265D01*
X13158Y-7282D01*
X13158Y-7350D01*
X13253Y-7076D02*
X13253Y-7179D01*
X13253Y-7128D02*
X13053Y-7128D01*
X13082Y-7145D01*
X13101Y-7162D01*
X13111Y-7179D01*
X22466Y-10315D02*
X22475Y-10324D01*
X22485Y-10350D01*
X22485Y-10367D01*
X22475Y-10392D01*
X22456Y-10410D01*
X22437Y-10418D01*
X22399Y-10427D01*
X22371Y-10427D01*
X22333Y-10418D01*
X22314Y-10410D01*
X22295Y-10392D01*
X22285Y-10367D01*
X22285Y-10350D01*
X22295Y-10324D01*
X22304Y-10315D01*
X22485Y-10144D02*
X22485Y-10247D01*
X22485Y-10195D02*
X22285Y-10195D01*
X22314Y-10212D01*
X22333Y-10230D01*
X22342Y-10247D01*
X22352Y-9990D02*
X22485Y-9990D01*
X22275Y-10032D02*
X22418Y-10075D01*
X22418Y-9964D01*
X20277Y-12866D02*
X20269Y-12876D01*
X20243Y-12885D01*
X20226Y-12885D01*
X20200Y-12876D01*
X20183Y-12857D01*
X20175Y-12838D01*
X20166Y-12800D01*
X20166Y-12771D01*
X20175Y-12733D01*
X20183Y-12714D01*
X20200Y-12695D01*
X20226Y-12685D01*
X20243Y-12685D01*
X20269Y-12695D01*
X20277Y-12704D01*
X20449Y-12885D02*
X20346Y-12885D01*
X20397Y-12885D02*
X20397Y-12685D01*
X20380Y-12714D01*
X20363Y-12733D01*
X20346Y-12742D01*
X20509Y-12685D02*
X20620Y-12685D01*
X20560Y-12761D01*
X20586Y-12761D01*
X20603Y-12771D01*
X20612Y-12780D01*
X20620Y-12800D01*
X20620Y-12847D01*
X20612Y-12866D01*
X20603Y-12876D01*
X20586Y-12885D01*
X20535Y-12885D01*
X20517Y-12876D01*
X20509Y-12866D01*
X16964Y-12791D02*
X16955Y-12800D01*
X16930Y-12810D01*
X16912Y-12810D01*
X16887Y-12800D01*
X16870Y-12781D01*
X16861Y-12762D01*
X16852Y-12724D01*
X16852Y-12696D01*
X16861Y-12658D01*
X16870Y-12639D01*
X16887Y-12620D01*
X16912Y-12610D01*
X16930Y-12610D01*
X16955Y-12620D01*
X16964Y-12629D01*
X17135Y-12810D02*
X17032Y-12810D01*
X17084Y-12810D02*
X17084Y-12610D01*
X17067Y-12639D01*
X17050Y-12658D01*
X17032Y-12667D01*
X17307Y-12810D02*
X17204Y-12810D01*
X17255Y-12810D02*
X17255Y-12610D01*
X17238Y-12639D01*
X17221Y-12658D01*
X17204Y-12667D01*
X18634Y-12781D02*
X18625Y-12790D01*
X18600Y-12800D01*
X18582Y-12800D01*
X18557Y-12790D01*
X18540Y-12771D01*
X18531Y-12752D01*
X18522Y-12714D01*
X18522Y-12686D01*
X18531Y-12648D01*
X18540Y-12629D01*
X18557Y-12610D01*
X18582Y-12600D01*
X18600Y-12600D01*
X18625Y-12610D01*
X18634Y-12619D01*
X18805Y-12800D02*
X18702Y-12800D01*
X18754Y-12800D02*
X18754Y-12600D01*
X18737Y-12629D01*
X18720Y-12648D01*
X18702Y-12657D01*
X18874Y-12619D02*
X18882Y-12610D01*
X18900Y-12600D01*
X18942Y-12600D01*
X18960Y-12610D01*
X18968Y-12619D01*
X18977Y-12638D01*
X18977Y-12657D01*
X18968Y-12686D01*
X18865Y-12800D01*
X18977Y-12800D01*
X19657Y-11651D02*
X19562Y-11711D01*
X19657Y-11754D02*
X19457Y-11754D01*
X19457Y-11685D01*
X19466Y-11668D01*
X19476Y-11659D01*
X19495Y-11651D01*
X19524Y-11651D01*
X19543Y-11659D01*
X19552Y-11668D01*
X19562Y-11685D01*
X19562Y-11754D01*
X19476Y-11582D02*
X19466Y-11574D01*
X19457Y-11556D01*
X19457Y-11514D01*
X19466Y-11496D01*
X19476Y-11488D01*
X19495Y-11479D01*
X19514Y-11479D01*
X19543Y-11488D01*
X19657Y-11591D01*
X19657Y-11479D01*
X19657Y-11308D02*
X19657Y-11411D01*
X19657Y-11359D02*
X19457Y-11359D01*
X19485Y-11376D01*
X19505Y-11394D01*
X19514Y-11411D01*
X20100Y-10563D02*
X20092Y-10573D01*
X20066Y-10582D01*
X20049Y-10582D01*
X20023Y-10573D01*
X20006Y-10554D01*
X19997Y-10534D01*
X19989Y-10496D01*
X19989Y-10468D01*
X19997Y-10430D01*
X20006Y-10411D01*
X20023Y-10392D01*
X20049Y-10382D01*
X20066Y-10382D01*
X20092Y-10392D01*
X20100Y-10401D01*
X20272Y-10582D02*
X20169Y-10582D01*
X20220Y-10582D02*
X20220Y-10382D01*
X20203Y-10411D01*
X20186Y-10430D01*
X20169Y-10439D01*
X20383Y-10382D02*
X20400Y-10382D01*
X20417Y-10392D01*
X20426Y-10401D01*
X20435Y-10420D01*
X20443Y-10458D01*
X20443Y-10506D01*
X20435Y-10544D01*
X20426Y-10563D01*
X20417Y-10573D01*
X20400Y-10582D01*
X20383Y-10582D01*
X20366Y-10573D01*
X20357Y-10563D01*
X20349Y-10544D01*
X20340Y-10506D01*
X20340Y-10458D01*
X20349Y-10420D01*
X20357Y-10401D01*
X20366Y-10392D01*
X20383Y-10382D01*
X11030Y-6350D02*
X11022Y-6360D01*
X10996Y-6369D01*
X10979Y-6369D01*
X10953Y-6360D01*
X10936Y-6341D01*
X10927Y-6322D01*
X10919Y-6284D01*
X10919Y-6255D01*
X10927Y-6217D01*
X10936Y-6198D01*
X10953Y-6179D01*
X10979Y-6169D01*
X10996Y-6169D01*
X11022Y-6179D01*
X11030Y-6188D01*
X11184Y-6169D02*
X11150Y-6169D01*
X11133Y-6179D01*
X11124Y-6188D01*
X11107Y-6217D01*
X11099Y-6255D01*
X11099Y-6331D01*
X11107Y-6350D01*
X11116Y-6360D01*
X11133Y-6369D01*
X11167Y-6369D01*
X11184Y-6360D01*
X11193Y-6350D01*
X11202Y-6331D01*
X11202Y-6284D01*
X11193Y-6265D01*
X11184Y-6255D01*
X11167Y-6245D01*
X11133Y-6245D01*
X11116Y-6255D01*
X11107Y-6265D01*
X11099Y-6284D01*
X21060Y-8872D02*
X20965Y-8932D01*
X21060Y-8975D02*
X20860Y-8975D01*
X20860Y-8906D01*
X20870Y-8889D01*
X20879Y-8881D01*
X20898Y-8872D01*
X20927Y-8872D01*
X20946Y-8881D01*
X20955Y-8889D01*
X20965Y-8906D01*
X20965Y-8975D01*
X21060Y-8701D02*
X21060Y-8803D01*
X21060Y-8752D02*
X20860Y-8752D01*
X20889Y-8769D01*
X20908Y-8786D01*
X20917Y-8803D01*
X20860Y-8641D02*
X20860Y-8529D01*
X20936Y-8589D01*
X20936Y-8563D01*
X20946Y-8546D01*
X20955Y-8538D01*
X20974Y-8529D01*
X21022Y-8529D01*
X21041Y-8538D01*
X21050Y-8546D01*
X21060Y-8563D01*
X21060Y-8615D01*
X21050Y-8632D01*
X21041Y-8641D01*
X15917Y-7274D02*
X15822Y-7334D01*
X15917Y-7376D02*
X15717Y-7376D01*
X15717Y-7308D01*
X15726Y-7291D01*
X15736Y-7282D01*
X15755Y-7274D01*
X15783Y-7274D01*
X15802Y-7282D01*
X15812Y-7291D01*
X15822Y-7308D01*
X15822Y-7376D01*
X15736Y-7205D02*
X15726Y-7196D01*
X15717Y-7179D01*
X15717Y-7136D01*
X15726Y-7119D01*
X15736Y-7111D01*
X15755Y-7102D01*
X15774Y-7102D01*
X15802Y-7111D01*
X15917Y-7214D01*
X15917Y-7102D01*
X5770Y-10421D02*
X5761Y-10430D01*
X5735Y-10440D01*
X5718Y-10440D01*
X5692Y-10430D01*
X5675Y-10411D01*
X5667Y-10392D01*
X5658Y-10354D01*
X5658Y-10326D01*
X5667Y-10288D01*
X5675Y-10269D01*
X5692Y-10250D01*
X5718Y-10240D01*
X5735Y-10240D01*
X5761Y-10250D01*
X5770Y-10259D01*
X5872Y-10326D02*
X5855Y-10316D01*
X5847Y-10307D01*
X5838Y-10288D01*
X5838Y-10278D01*
X5847Y-10259D01*
X5855Y-10250D01*
X5872Y-10240D01*
X5907Y-10240D01*
X5924Y-10250D01*
X5932Y-10259D01*
X5941Y-10278D01*
X5941Y-10288D01*
X5932Y-10307D01*
X5924Y-10316D01*
X5907Y-10326D01*
X5872Y-10326D01*
X5855Y-10335D01*
X5847Y-10345D01*
X5838Y-10364D01*
X5838Y-10402D01*
X5847Y-10421D01*
X5855Y-10430D01*
X5872Y-10440D01*
X5907Y-10440D01*
X5924Y-10430D01*
X5932Y-10421D01*
X5941Y-10402D01*
X5941Y-10364D01*
X5932Y-10345D01*
X5924Y-10335D01*
X5907Y-10326D01*
X18585Y-6389D02*
X18525Y-6294D01*
X18482Y-6389D02*
X18482Y-6189D01*
X18550Y-6189D01*
X18567Y-6199D01*
X18576Y-6208D01*
X18585Y-6227D01*
X18585Y-6256D01*
X18576Y-6275D01*
X18567Y-6284D01*
X18550Y-6294D01*
X18482Y-6294D01*
X18756Y-6389D02*
X18653Y-6389D01*
X18705Y-6389D02*
X18705Y-6189D01*
X18687Y-6218D01*
X18670Y-6237D01*
X18653Y-6246D01*
X18867Y-6189D02*
X18885Y-6189D01*
X18902Y-6199D01*
X18910Y-6208D01*
X18919Y-6227D01*
X18927Y-6265D01*
X18927Y-6313D01*
X18919Y-6351D01*
X18910Y-6370D01*
X18902Y-6380D01*
X18885Y-6389D01*
X18867Y-6389D01*
X18850Y-6380D01*
X18842Y-6370D01*
X18833Y-6351D01*
X18825Y-6313D01*
X18825Y-6265D01*
X18833Y-6227D01*
X18842Y-6208D01*
X18850Y-6199D01*
X18867Y-6189D01*
X21050Y-8022D02*
X20955Y-8082D01*
X21050Y-8125D02*
X20850Y-8125D01*
X20850Y-8056D01*
X20860Y-8039D01*
X20869Y-8031D01*
X20888Y-8022D01*
X20917Y-8022D01*
X20936Y-8031D01*
X20945Y-8039D01*
X20955Y-8056D01*
X20955Y-8125D01*
X21050Y-7851D02*
X21050Y-7953D01*
X21050Y-7902D02*
X20850Y-7902D01*
X20879Y-7919D01*
X20898Y-7936D01*
X20907Y-7953D01*
X20917Y-7696D02*
X21050Y-7696D01*
X20840Y-7739D02*
X20983Y-7782D01*
X20983Y-7671D01*
X24694Y-7512D02*
X24685Y-7521D01*
X24660Y-7531D01*
X24642Y-7531D01*
X24617Y-7521D01*
X24600Y-7502D01*
X24591Y-7483D01*
X24582Y-7445D01*
X24582Y-7417D01*
X24591Y-7379D01*
X24600Y-7359D01*
X24617Y-7340D01*
X24642Y-7331D01*
X24660Y-7331D01*
X24685Y-7340D01*
X24694Y-7350D01*
X24857Y-7331D02*
X24771Y-7331D01*
X24762Y-7426D01*
X24771Y-7417D01*
X24788Y-7407D01*
X24831Y-7407D01*
X24848Y-7417D01*
X24857Y-7426D01*
X24865Y-7445D01*
X24865Y-7493D01*
X24857Y-7512D01*
X24848Y-7521D01*
X24831Y-7531D01*
X24788Y-7531D01*
X24771Y-7521D01*
X24762Y-7512D01*
X24970Y-6547D02*
X24910Y-6451D01*
X24867Y-6547D02*
X24867Y-6347D01*
X24935Y-6347D01*
X24952Y-6356D01*
X24961Y-6366D01*
X24970Y-6385D01*
X24970Y-6413D01*
X24961Y-6432D01*
X24952Y-6442D01*
X24935Y-6451D01*
X24867Y-6451D01*
X25055Y-6547D02*
X25090Y-6547D01*
X25107Y-6537D01*
X25115Y-6528D01*
X25132Y-6499D01*
X25141Y-6461D01*
X25141Y-6385D01*
X25132Y-6366D01*
X25124Y-6356D01*
X25107Y-6347D01*
X25072Y-6347D01*
X25055Y-6356D01*
X25047Y-6366D01*
X25038Y-6385D01*
X25038Y-6432D01*
X25047Y-6451D01*
X25055Y-6461D01*
X25072Y-6470D01*
X25107Y-6470D01*
X25124Y-6461D01*
X25132Y-6451D01*
X25141Y-6432D01*
G54D11*
X8649Y-7414D02*
X8820Y-7414D01*
X8734Y-7714D02*
X8734Y-7414D01*
X8920Y-7714D02*
X8920Y-7414D01*
X9034Y-7414D01*
X9063Y-7429D01*
X9077Y-7443D01*
X9091Y-7471D01*
X9091Y-7514D01*
X9077Y-7543D01*
X9063Y-7557D01*
X9034Y-7571D01*
X8920Y-7571D01*
X9377Y-7714D02*
X9206Y-7714D01*
X9291Y-7714D02*
X9291Y-7414D01*
X9263Y-7457D01*
X9234Y-7486D01*
X9206Y-7500D01*
X9271Y-12168D02*
X9442Y-12168D01*
X9357Y-12468D02*
X9357Y-12168D01*
X9542Y-12468D02*
X9542Y-12168D01*
X9657Y-12168D01*
X9685Y-12182D01*
X9700Y-12196D01*
X9714Y-12225D01*
X9714Y-12268D01*
X9700Y-12296D01*
X9685Y-12311D01*
X9657Y-12325D01*
X9542Y-12325D01*
X9828Y-12196D02*
X9842Y-12182D01*
X9871Y-12168D01*
X9942Y-12168D01*
X9971Y-12182D01*
X9985Y-12196D01*
X10000Y-12225D01*
X10000Y-12254D01*
X9985Y-12296D01*
X9814Y-12468D01*
X10000Y-12468D01*
X11809Y-4363D02*
X11809Y-4577D01*
X11795Y-4620D01*
X11766Y-4648D01*
X11723Y-4663D01*
X11695Y-4663D01*
X11938Y-4391D02*
X11952Y-4377D01*
X11980Y-4363D01*
X12052Y-4363D01*
X12080Y-4377D01*
X12095Y-4391D01*
X12109Y-4420D01*
X12109Y-4448D01*
X12095Y-4491D01*
X11923Y-4663D01*
X12109Y-4663D01*
X25785Y-4363D02*
X25785Y-4577D01*
X25771Y-4620D01*
X25742Y-4648D01*
X25700Y-4663D01*
X25671Y-4663D01*
X26085Y-4663D02*
X25914Y-4663D01*
X26000Y-4663D02*
X26000Y-4363D01*
X25971Y-4406D01*
X25942Y-4434D01*
X25914Y-4448D01*
X27544Y-15498D02*
X27544Y-15198D01*
X27658Y-15198D01*
X27687Y-15213D01*
X27701Y-15227D01*
X27715Y-15256D01*
X27715Y-15298D01*
X27701Y-15327D01*
X27687Y-15341D01*
X27658Y-15356D01*
X27544Y-15356D01*
X27815Y-15198D02*
X28001Y-15198D01*
X27901Y-15313D01*
X27944Y-15313D01*
X27972Y-15327D01*
X27987Y-15341D01*
X28001Y-15370D01*
X28001Y-15441D01*
X27987Y-15470D01*
X27972Y-15484D01*
X27944Y-15498D01*
X27858Y-15498D01*
X27829Y-15484D01*
X27815Y-15470D01*
X17062Y-10923D02*
X17062Y-10623D01*
X17176Y-10623D01*
X17204Y-10637D01*
X17219Y-10651D01*
X17233Y-10680D01*
X17233Y-10723D01*
X17219Y-10751D01*
X17204Y-10765D01*
X17176Y-10780D01*
X17062Y-10780D01*
X17347Y-10651D02*
X17362Y-10637D01*
X17390Y-10623D01*
X17462Y-10623D01*
X17490Y-10637D01*
X17504Y-10651D01*
X17519Y-10680D01*
X17519Y-10708D01*
X17504Y-10751D01*
X17333Y-10923D01*
X17519Y-10923D01*
X29552Y-8097D02*
X29552Y-7797D01*
X29666Y-7797D01*
X29694Y-7811D01*
X29709Y-7825D01*
X29723Y-7854D01*
X29723Y-7897D01*
X29709Y-7925D01*
X29694Y-7940D01*
X29666Y-7954D01*
X29552Y-7954D01*
X30009Y-8097D02*
X29837Y-8097D01*
X29923Y-8097D02*
X29923Y-7797D01*
X29894Y-7840D01*
X29866Y-7868D01*
X29837Y-7883D01*
X29591Y-10813D02*
X29591Y-10513D01*
X29705Y-10513D01*
X29734Y-10528D01*
X29748Y-10542D01*
X29762Y-10571D01*
X29762Y-10613D01*
X29748Y-10642D01*
X29734Y-10656D01*
X29705Y-10671D01*
X29591Y-10671D01*
X30020Y-10613D02*
X30020Y-10813D01*
X29948Y-10499D02*
X29877Y-10713D01*
X30062Y-10713D01*
X21021Y-10825D02*
X21021Y-11068D01*
X21035Y-11097D01*
X21050Y-11111D01*
X21078Y-11125D01*
X21135Y-11125D01*
X21164Y-11111D01*
X21178Y-11097D01*
X21192Y-11068D01*
X21192Y-10825D01*
X21492Y-11125D02*
X21321Y-11125D01*
X21407Y-11125D02*
X21407Y-10825D01*
X21378Y-10868D01*
X21350Y-10897D01*
X21321Y-10911D01*
X14835Y-13260D02*
X15035Y-13560D01*
X15035Y-13260D02*
X14835Y-13560D01*
X15307Y-13560D02*
X15135Y-13560D01*
X15221Y-13560D02*
X15221Y-13260D01*
X15193Y-13303D01*
X15164Y-13332D01*
X15135Y-13346D01*
X10336Y-3315D02*
X10336Y-3015D01*
X10415Y-3015D01*
X10462Y-3030D01*
X10493Y-3058D01*
X10509Y-3087D01*
X10525Y-3144D01*
X10525Y-3187D01*
X10509Y-3244D01*
X10493Y-3272D01*
X10462Y-3301D01*
X10415Y-3315D01*
X10336Y-3315D01*
X10839Y-3315D02*
X10650Y-3315D01*
X10745Y-3315D02*
X10745Y-3015D01*
X10713Y-3058D01*
X10682Y-3087D01*
X10650Y-3101D01*
X2429Y-5364D02*
X2444Y-5379D01*
X2458Y-5422D01*
X2458Y-5450D01*
X2444Y-5493D01*
X2415Y-5522D01*
X2387Y-5536D01*
X2329Y-5550D01*
X2287Y-5550D01*
X2229Y-5536D01*
X2201Y-5522D01*
X2172Y-5493D01*
X2158Y-5450D01*
X2158Y-5422D01*
X2172Y-5379D01*
X2187Y-5364D01*
X2458Y-5079D02*
X2458Y-5250D01*
X2458Y-5164D02*
X2158Y-5164D01*
X2201Y-5193D01*
X2229Y-5222D01*
X2244Y-5250D01*
X8291Y-13222D02*
X8276Y-13237D01*
X8233Y-13251D01*
X8205Y-13251D01*
X8162Y-13237D01*
X8133Y-13208D01*
X8119Y-13179D01*
X8105Y-13122D01*
X8105Y-13079D01*
X8119Y-13022D01*
X8133Y-12994D01*
X8162Y-12965D01*
X8205Y-12951D01*
X8233Y-12951D01*
X8276Y-12965D01*
X8291Y-12979D01*
X8391Y-12951D02*
X8591Y-12951D01*
X8462Y-13251D01*
X7363Y-8079D02*
X7349Y-8094D01*
X7306Y-8108D01*
X7277Y-8108D01*
X7234Y-8094D01*
X7206Y-8065D01*
X7192Y-8037D01*
X7177Y-7979D01*
X7177Y-7937D01*
X7192Y-7879D01*
X7206Y-7851D01*
X7234Y-7822D01*
X7277Y-7808D01*
X7306Y-7808D01*
X7349Y-7822D01*
X7363Y-7837D01*
X7463Y-7808D02*
X7649Y-7808D01*
X7549Y-7922D01*
X7592Y-7922D01*
X7620Y-7937D01*
X7634Y-7951D01*
X7649Y-7979D01*
X7649Y-8051D01*
X7634Y-8079D01*
X7620Y-8094D01*
X7592Y-8108D01*
X7506Y-8108D01*
X7477Y-8094D01*
X7463Y-8079D01*
X8064Y-3231D02*
X8107Y-3245D01*
X8178Y-3245D01*
X8207Y-3231D01*
X8221Y-3217D01*
X8235Y-3188D01*
X8235Y-3160D01*
X8221Y-3131D01*
X8207Y-3117D01*
X8178Y-3103D01*
X8121Y-3088D01*
X8093Y-3074D01*
X8078Y-3060D01*
X8064Y-3031D01*
X8064Y-3003D01*
X8078Y-2974D01*
X8093Y-2960D01*
X8121Y-2945D01*
X8193Y-2945D01*
X8235Y-2960D01*
X8335Y-2945D02*
X8407Y-3245D01*
X8464Y-3031D01*
X8521Y-3245D01*
X8593Y-2945D01*
X8864Y-3245D02*
X8693Y-3245D01*
X8778Y-3245D02*
X8778Y-2945D01*
X8750Y-2988D01*
X8721Y-3017D01*
X8693Y-3031D01*
X23794Y-7458D02*
X23794Y-7158D01*
X23865Y-7158D01*
X23908Y-7172D01*
X23937Y-7201D01*
X23951Y-7229D01*
X23965Y-7287D01*
X23965Y-7329D01*
X23951Y-7387D01*
X23937Y-7415D01*
X23908Y-7444D01*
X23865Y-7458D01*
X23794Y-7458D01*
X24065Y-7158D02*
X24251Y-7158D01*
X24151Y-7272D01*
X24194Y-7272D01*
X24222Y-7287D01*
X24237Y-7301D01*
X24251Y-7329D01*
X24251Y-7401D01*
X24237Y-7429D01*
X24222Y-7444D01*
X24194Y-7458D01*
X24108Y-7458D01*
X24080Y-7444D01*
X24065Y-7429D01*
X20841Y-5293D02*
X20841Y-4993D01*
X20912Y-4993D01*
X20955Y-5007D01*
X20984Y-5036D01*
X20998Y-5064D01*
X21012Y-5121D01*
X21012Y-5164D01*
X20998Y-5221D01*
X20984Y-5250D01*
X20955Y-5278D01*
X20912Y-5293D01*
X20841Y-5293D01*
X21127Y-5021D02*
X21141Y-5007D01*
X21170Y-4993D01*
X21241Y-4993D01*
X21270Y-5007D01*
X21284Y-5021D01*
X21298Y-5050D01*
X21298Y-5078D01*
X21284Y-5121D01*
X21112Y-5293D01*
X21298Y-5293D01*
X19739Y-6434D02*
X19739Y-6134D01*
X19810Y-6134D01*
X19853Y-6149D01*
X19882Y-6177D01*
X19896Y-6206D01*
X19910Y-6263D01*
X19910Y-6306D01*
X19896Y-6363D01*
X19882Y-6392D01*
X19853Y-6420D01*
X19810Y-6434D01*
X19739Y-6434D01*
X20167Y-6234D02*
X20167Y-6434D01*
X20096Y-6120D02*
X20024Y-6334D01*
X20210Y-6334D01*
G54D23*
X28555Y-9096D02*
X28546Y-9105D01*
X28521Y-9115D01*
X28504Y-9115D01*
X28478Y-9105D01*
X28461Y-9086D01*
X28452Y-9067D01*
X28444Y-9029D01*
X28444Y-9000D01*
X28452Y-8962D01*
X28461Y-8943D01*
X28478Y-8924D01*
X28504Y-8915D01*
X28521Y-8915D01*
X28546Y-8924D01*
X28555Y-8934D01*
X28726Y-9115D02*
X28624Y-9115D01*
X28675Y-9115D02*
X28675Y-8915D01*
X28658Y-8943D01*
X28641Y-8962D01*
X28624Y-8972D01*
X28889Y-8915D02*
X28804Y-8915D01*
X28795Y-9010D01*
X28804Y-9000D01*
X28821Y-8991D01*
X28864Y-8991D01*
X28881Y-9000D01*
X28889Y-9010D01*
X28898Y-9029D01*
X28898Y-9077D01*
X28889Y-9096D01*
X28881Y-9105D01*
X28864Y-9115D01*
X28821Y-9115D01*
X28804Y-9105D01*
X28795Y-9096D01*
M02*
