M48
;DRILL file {Pcbnew (2014-03-19 BZR 4756)-product} date Ter 03 Jun 2014 12:28:51 BRT
;FORMAT={-:-/ absolute / inch / decimal}
FMAT,2
INCH,TZ
T1C0.012
T2C0.015
T3C0.020
T4C0.024
T5C0.025
T6C0.031
T7C0.032
T8C0.035
T9C0.039
T10C0.040
T11C0.061
T12C0.128
T13C0.138
%
G90
G05
M72
T1
X2.193Y-0.883
X2.2505Y-0.883
T2
X0.9473Y-0.5105
X0.9474Y-0.3108
X0.9804Y-0.3108
X0.9804Y-0.5106
X1.0134Y-0.3108
X1.0134Y-0.5105
X1.7913Y-0.3898
X1.968Y-0.7907
X1.968Y-0.8777
X1.968Y-0.9647
X2.1693Y-0.3898
X2.3268Y-0.3898
X2.3396Y-1.3277
X2.4065Y-1.2529
X2.5049Y-1.2529
X2.506Y-1.329
T3
X0.5799Y-0.6359
X0.6429Y-0.7067
X0.671Y-1.148
X0.728Y-1.219
X1.165Y-0.959
X1.2963Y-1.5325
X1.363Y-0.96
X1.543Y-0.81
X2.0846Y-1.4724
X2.271Y-1.532
T4
X0.3189Y-0.5354
X0.3976Y-0.5354
X0.7413Y-0.88
X0.7413Y-0.9587
X0.8307Y-1.3937
X0.8307Y-1.4724
T5
X0.2138Y-0.7067
X0.628Y-1.072
X0.855Y-1.103
X1.062Y-0.591
X1.222Y-1.22
X1.2868Y-0.6805
X1.298Y-1.22
X1.393Y-1.22
X1.5531Y-0.6791
X1.641Y-1.315
X1.81Y-1.315
X1.9488Y-1.0906
X1.9921Y-1.372
X2.1496Y-0.5551
X2.1535Y-0.7362
X2.1654Y-0.4803
X2.1834Y-1.2422
X2.2126Y-0.3504
X2.3209Y-1.1638
X2.3346Y-0.4803
X2.3543Y-0.5551
X2.3583Y-0.7362
X2.3711Y-1.0206
X2.4094Y-0.9331
X2.5325Y-1.0796
X2.5394Y-0.7835
X2.5709Y-0.689
X2.7648Y-0.5245
T6
X0.7677Y-0.1476
X0.8465Y-0.1476
X0.9252Y-0.1476
X1.0039Y-0.1476
T7
X0.9028Y-0.8366
X0.965Y-1.312
T8
X1.2812Y-0.4372
X1.3712Y-0.4372
X1.4112Y-0.1772
X1.4512Y-0.2472
X1.4912Y-0.1772
X1.5312Y-0.2472
X1.5712Y-0.1772
X1.6112Y-0.2472
X1.6512Y-0.1772
X1.6912Y-0.2472
X1.7312Y-0.4372
X1.8212Y-0.4372
X1.9623Y-0.4372
X2.0523Y-0.4372
X2.0923Y-0.1772
X2.1323Y-0.2472
X2.1723Y-0.1772
X2.2123Y-0.2472
X2.2523Y-0.1772
X2.2923Y-0.2472
X2.3323Y-0.1772
X2.3723Y-0.2472
X2.4123Y-0.4372
X2.5023Y-0.4372
T9
X1.7283Y-0.9913
T10
X1.7283Y-0.5913
X1.7283Y-0.6913
X1.7283Y-0.7913
X1.7283Y-0.8913
X2.5766Y-1.3564
X2.5766Y-1.4564
X2.6766Y-1.3564
X2.6766Y-1.4564
X2.7766Y-1.3564
X2.7766Y-1.4564
X2.8766Y-1.3564
X2.8766Y-1.4564
X2.9766Y-1.3564
X2.9766Y-1.4564
X2.9774Y-0.5229
X2.9774Y-0.6229
X2.9774Y-0.7229
X2.9774Y-0.8879
X2.9774Y-0.9879
T11
X0.5709Y-0.0984
X1.122Y-0.0984
T12
X1.3012Y-0.0772
X1.8012Y-0.0772
X1.9823Y-0.0772
X2.4823Y-0.0772
T13
X0.1004Y-0.0984
X0.1004Y-0.2953
X0.3957Y-0.0984
X0.3957Y-0.2953
X2.6909Y-0.0984
X2.6909Y-0.2953
X2.9862Y-0.0984
X2.9862Y-0.2953
T0
M30
