%FSLAX34Y34*%
G04 Gerber Fmt 3.4, Leading zero omitted, Abs format*
G04 (created by PCBNEW (2014-03-19 BZR 4756)-product) date Ter 03 Jun 2014 12:28:43 BRT*
%MOIN*%
G01*
G70*
G90*
G04 APERTURE LIST*
%ADD10C,0.005906*%
%ADD11R,0.031500X0.039400*%
%ADD12R,0.141732X0.074803*%
%ADD13R,0.047244X0.074803*%
%ADD14R,0.055100X0.023600*%
%ADD15R,0.078740X0.212598*%
%ADD16R,0.055000X0.035000*%
%ADD17R,0.035000X0.055000*%
%ADD18R,0.045000X0.025000*%
%ADD19R,0.025000X0.045000*%
%ADD20R,0.055000X0.055000*%
%ADD21C,0.052000*%
%ADD22C,0.128000*%
%ADD23R,0.060000X0.060000*%
%ADD24C,0.060000*%
%ADD25C,0.059055*%
%ADD26R,0.039400X0.010600*%
%ADD27R,0.010600X0.039400*%
%ADD28R,0.220000X0.083000*%
%ADD29R,0.063000X0.086600*%
%ADD30C,0.177165*%
%ADD31C,0.047244*%
%ADD32R,0.047244X0.047244*%
%ADD33R,0.049213X0.049213*%
%ADD34C,0.049213*%
%ADD35C,0.061024*%
%ADD36R,0.033500X0.033500*%
%ADD37R,0.024000X0.027000*%
%ADD38C,0.035000*%
%ADD39C,0.050000*%
%ADD40C,0.025000*%
%ADD41C,0.020000*%
%ADD42C,0.012000*%
%ADD43C,0.015000*%
%ADD44C,0.025000*%
%ADD45C,0.040000*%
%ADD46C,0.030000*%
%ADD47C,0.060000*%
%ADD48C,0.020000*%
%ADD49C,0.080000*%
%ADD50C,0.070000*%
%ADD51C,0.050000*%
%ADD52C,0.010000*%
G04 APERTURE END LIST*
G54D10*
G54D11*
X15905Y-5472D03*
X16280Y-6338D03*
X15530Y-6338D03*
X13242Y-5485D03*
X13617Y-6351D03*
X12867Y-6351D03*
G54D12*
X4893Y-9586D03*
G54D13*
X4893Y-7067D03*
X3988Y-7067D03*
X5799Y-7067D03*
G54D12*
X5800Y-14709D03*
G54D13*
X5800Y-12190D03*
X4894Y-12190D03*
X6705Y-12190D03*
G54D14*
X23569Y-7832D03*
X21469Y-7832D03*
X23569Y-8332D03*
X23569Y-8832D03*
X23569Y-9332D03*
X21469Y-8332D03*
X21469Y-8832D03*
X21469Y-9332D03*
G54D15*
X8582Y-4803D03*
X5984Y-4803D03*
G54D16*
X29773Y-11602D03*
X29773Y-12352D03*
G54D17*
X9046Y-9586D03*
X9796Y-9586D03*
X22894Y-5433D03*
X22144Y-5433D03*
X9651Y-14685D03*
X10401Y-14685D03*
G54D16*
X11900Y-6125D03*
X11900Y-5375D03*
X14527Y-6123D03*
X14527Y-5373D03*
G54D17*
X18876Y-5433D03*
X19626Y-5433D03*
X24782Y-5629D03*
X25532Y-5629D03*
G54D16*
X22913Y-6239D03*
X22913Y-6989D03*
X22125Y-6239D03*
X22125Y-6989D03*
G54D18*
X9027Y-10428D03*
X9027Y-11028D03*
G54D19*
X19896Y-12204D03*
X20496Y-12204D03*
X3185Y-7067D03*
X2585Y-7067D03*
X20014Y-9645D03*
X20614Y-9645D03*
X27662Y-12331D03*
X28262Y-12331D03*
X27662Y-11583D03*
X28262Y-11583D03*
G54D18*
X13927Y-11814D03*
X13927Y-11214D03*
X12982Y-11814D03*
X12982Y-11214D03*
X12214Y-11814D03*
X12214Y-11214D03*
G54D19*
X28262Y-10835D03*
X27662Y-10835D03*
X28656Y-7252D03*
X28056Y-7252D03*
X28656Y-5245D03*
X28056Y-5245D03*
X28656Y-6229D03*
X28056Y-6229D03*
G54D18*
X25324Y-11804D03*
X25324Y-11204D03*
X13596Y-7518D03*
X13596Y-6918D03*
G54D19*
X22731Y-10196D03*
X23331Y-10196D03*
G54D18*
X20393Y-13125D03*
X20393Y-13725D03*
G54D19*
X16786Y-13149D03*
X17386Y-13149D03*
X18479Y-13149D03*
X19079Y-13149D03*
X19896Y-11555D03*
X20496Y-11555D03*
X20496Y-10905D03*
X19896Y-10905D03*
G54D18*
X11100Y-5310D03*
X11100Y-5910D03*
G54D19*
X20014Y-8779D03*
X20614Y-8779D03*
G54D18*
X16259Y-7504D03*
X16259Y-6904D03*
X5800Y-11310D03*
X5800Y-10710D03*
G54D19*
X19000Y-6771D03*
X18400Y-6771D03*
X20014Y-7913D03*
X20614Y-7913D03*
X24424Y-7834D03*
X25024Y-7834D03*
X25300Y-6889D03*
X24700Y-6889D03*
G54D20*
X9027Y-8366D03*
X9650Y-13120D03*
G54D21*
X12811Y-4371D03*
X13711Y-4371D03*
X17311Y-4371D03*
X18211Y-4371D03*
X16911Y-2471D03*
X16111Y-2471D03*
X15311Y-2471D03*
X14511Y-2471D03*
X15711Y-1771D03*
X14911Y-1771D03*
X16511Y-1771D03*
X14111Y-1771D03*
G54D22*
X13011Y-771D03*
X18011Y-771D03*
G54D21*
X19622Y-4371D03*
X20522Y-4371D03*
X24122Y-4371D03*
X25022Y-4371D03*
X23722Y-2471D03*
X22922Y-2471D03*
X22122Y-2471D03*
X21322Y-2471D03*
X22522Y-1771D03*
X21722Y-1771D03*
X23322Y-1771D03*
X20922Y-1771D03*
G54D22*
X19822Y-771D03*
X24822Y-771D03*
G54D23*
X29765Y-13564D03*
G54D24*
X29765Y-14564D03*
X28765Y-13564D03*
X28765Y-14564D03*
X27765Y-13564D03*
X27765Y-14564D03*
X26765Y-13564D03*
X26765Y-14564D03*
X25765Y-13564D03*
X25765Y-14564D03*
G54D23*
X17283Y-5913D03*
G54D24*
X17283Y-6913D03*
X17283Y-7913D03*
X17283Y-8913D03*
G54D25*
X17283Y-9913D03*
G54D23*
X29773Y-5229D03*
G54D24*
X29773Y-6229D03*
X29773Y-7229D03*
G54D23*
X29773Y-8878D03*
G54D24*
X29773Y-9878D03*
G54D26*
X24567Y-13799D03*
X21259Y-11633D03*
X21259Y-11830D03*
X21259Y-12027D03*
X21259Y-12224D03*
X21259Y-12421D03*
X21259Y-12618D03*
X21259Y-12814D03*
X21259Y-13011D03*
X21259Y-13208D03*
X21259Y-13405D03*
X21259Y-13602D03*
X21259Y-13799D03*
G54D27*
X21830Y-14370D03*
X22027Y-14370D03*
X22224Y-14370D03*
X22416Y-14370D03*
X22618Y-14370D03*
X22815Y-14370D03*
X23011Y-14370D03*
X23208Y-14370D03*
X23405Y-14370D03*
X23602Y-14370D03*
X23799Y-14370D03*
X23996Y-14370D03*
G54D26*
X24567Y-13602D03*
X24567Y-13405D03*
X24567Y-13208D03*
X24567Y-13011D03*
X24567Y-12814D03*
X24567Y-12618D03*
X24567Y-12421D03*
X24567Y-12224D03*
X24567Y-12027D03*
X24567Y-11830D03*
X24567Y-11633D03*
G54D27*
X23996Y-11062D03*
X23799Y-11062D03*
X23602Y-11062D03*
X23405Y-11062D03*
X23208Y-11062D03*
X23011Y-11062D03*
X22815Y-11062D03*
X22618Y-11062D03*
X22421Y-11062D03*
X22224Y-11062D03*
X22027Y-11062D03*
X21830Y-11062D03*
G54D28*
X19074Y-14606D03*
X15334Y-14606D03*
G54D29*
X11102Y-4133D03*
X9606Y-4133D03*
G54D30*
X29862Y-2952D03*
X26909Y-2952D03*
X29862Y-984D03*
X26909Y-984D03*
X3956Y-2952D03*
X1003Y-2952D03*
X3956Y-984D03*
X1003Y-984D03*
G54D31*
X3188Y-5354D03*
G54D32*
X3976Y-5354D03*
G54D31*
X8307Y-13937D03*
G54D32*
X8307Y-14724D03*
G54D31*
X7413Y-8799D03*
G54D32*
X7413Y-9586D03*
G54D33*
X10039Y-1476D03*
G54D34*
X8464Y-1476D03*
X7677Y-1476D03*
G54D35*
X11220Y-984D03*
X5708Y-984D03*
G54D34*
X9251Y-1476D03*
G54D36*
X23976Y-6879D03*
X23976Y-5561D03*
X21062Y-6879D03*
X21062Y-5561D03*
G54D37*
X20400Y-6771D03*
X19520Y-6771D03*
G54D18*
X28671Y-8055D03*
X28671Y-8655D03*
G54D38*
X13930Y-12200D03*
X12980Y-12200D03*
X12220Y-12200D03*
G54D39*
X12962Y-15324D03*
X20846Y-14724D03*
G54D38*
X21653Y-4803D03*
X23346Y-4803D03*
G54D39*
X22710Y-15320D03*
G54D40*
X19680Y-9646D03*
X19680Y-7906D03*
X19680Y-8776D03*
G54D39*
X13630Y-9600D03*
X11650Y-9590D03*
X15430Y-8100D03*
G54D38*
X23582Y-7362D03*
X21535Y-7362D03*
X25393Y-7834D03*
X24094Y-9330D03*
X21834Y-12422D03*
X12868Y-6804D03*
X15531Y-6791D03*
X2137Y-7067D03*
G54D39*
X5799Y-6358D03*
X6429Y-7067D03*
G54D38*
X19921Y-13720D03*
X23209Y-11638D03*
X10620Y-5910D03*
G54D39*
X6710Y-11480D03*
X7280Y-12190D03*
G54D38*
X6280Y-10720D03*
X8550Y-11030D03*
X16410Y-13150D03*
X18100Y-13150D03*
X23543Y-5551D03*
X21496Y-5551D03*
X25708Y-6889D03*
X19488Y-10905D03*
X23710Y-10205D03*
X27647Y-5245D03*
X25324Y-10796D03*
G54D41*
X21930Y-8830D03*
X22505Y-8830D03*
G54D40*
X23267Y-3897D03*
X21692Y-3897D03*
X17913Y-3897D03*
X23395Y-13276D03*
X25060Y-13290D03*
G54D38*
X22125Y-3503D03*
G54D40*
X10134Y-3108D03*
X10134Y-5105D03*
X9804Y-3108D03*
X9804Y-5106D03*
X9474Y-3108D03*
X9473Y-5105D03*
X24064Y-12528D03*
X25049Y-12528D03*
G54D42*
X20964Y-13011D02*
X20851Y-13125D01*
X20836Y-13125D02*
X20393Y-13125D01*
X20851Y-13125D02*
X20836Y-13125D01*
X21259Y-13011D02*
X20964Y-13011D01*
G54D43*
X19896Y-11555D02*
X19896Y-12204D01*
G54D42*
X22618Y-10649D02*
X22731Y-10536D01*
X22731Y-10536D02*
X22731Y-10196D01*
X22618Y-11062D02*
X22618Y-10649D01*
G54D44*
X13927Y-11814D02*
X13927Y-12197D01*
X13927Y-12197D02*
X13930Y-12200D01*
X12982Y-12197D02*
X12982Y-11814D01*
X12982Y-12197D02*
X12980Y-12200D01*
X12214Y-12194D02*
X12214Y-11814D01*
X12214Y-12194D02*
X12220Y-12200D01*
G54D45*
X10401Y-14018D02*
X12220Y-12200D01*
X10401Y-14685D02*
X10401Y-14018D01*
G54D44*
X19892Y-12200D02*
X19896Y-12204D01*
G54D46*
X14590Y-12200D02*
X19892Y-12200D01*
X13930Y-12200D02*
X14590Y-12200D01*
X13018Y-8232D02*
X13018Y-9949D01*
X13018Y-8232D02*
X11900Y-7113D01*
X11900Y-7113D02*
X11900Y-6125D01*
X14190Y-10285D02*
X14590Y-10685D01*
X13354Y-10285D02*
X14190Y-10285D01*
X13018Y-9949D02*
X13354Y-10285D01*
X14590Y-12200D02*
X14590Y-10685D01*
G54D47*
X10401Y-14685D02*
X11041Y-15324D01*
X12962Y-15324D02*
X11041Y-15324D01*
G54D42*
X20836Y-13125D02*
X20836Y-14714D01*
X20836Y-14714D02*
X20846Y-14724D01*
G54D48*
X14310Y-5905D02*
X14527Y-6123D01*
X14310Y-5905D02*
X14310Y-5905D01*
X11900Y-6125D02*
X12024Y-6125D01*
X12024Y-6125D02*
X12244Y-5905D01*
X12244Y-5905D02*
X14310Y-5905D01*
X14745Y-5905D02*
X14527Y-6123D01*
X14890Y-5905D02*
X14745Y-5905D01*
X15040Y-5905D02*
X14890Y-5905D01*
X16224Y-5905D02*
X16850Y-5280D01*
X16224Y-5905D02*
X15040Y-5905D01*
X14890Y-5905D02*
X14310Y-5905D01*
X18876Y-5433D02*
X18723Y-5280D01*
X16850Y-5280D02*
X18723Y-5280D01*
X19935Y-5970D02*
X21102Y-4803D01*
X21102Y-4803D02*
X21653Y-4803D01*
X24782Y-5569D02*
X24782Y-5629D01*
X24015Y-4803D02*
X23346Y-4803D01*
X24782Y-5569D02*
X24015Y-4803D01*
X18876Y-5433D02*
X18876Y-5816D01*
X18876Y-5816D02*
X19030Y-5970D01*
X19030Y-5970D02*
X19935Y-5970D01*
G54D45*
X22710Y-15320D02*
X24497Y-15320D01*
X30521Y-11583D02*
X30521Y-10835D01*
X24497Y-15320D02*
X30052Y-15320D01*
X30052Y-15320D02*
X30521Y-14851D01*
X30521Y-14851D02*
X30521Y-11583D01*
G54D42*
X22618Y-11498D02*
X22620Y-11500D01*
X22618Y-11465D02*
X22618Y-11498D01*
X22618Y-11062D02*
X22618Y-11465D01*
G54D44*
X28262Y-10835D02*
X30521Y-10835D01*
G54D46*
X30521Y-11602D02*
X30521Y-11583D01*
X29773Y-11602D02*
X30521Y-11602D01*
G54D44*
X22618Y-11712D02*
X23828Y-12922D01*
X23828Y-12922D02*
X23828Y-13630D01*
X23828Y-13630D02*
X24530Y-14332D01*
X24530Y-14332D02*
X24530Y-15320D01*
X24530Y-15320D02*
X24497Y-15320D01*
X22618Y-11465D02*
X22618Y-11712D01*
X30221Y-8055D02*
X30206Y-8040D01*
G54D45*
X30521Y-8355D02*
X30521Y-10835D01*
X30521Y-8355D02*
X30206Y-8040D01*
G54D44*
X28671Y-8055D02*
X30221Y-8055D01*
X28056Y-7819D02*
X28292Y-8055D01*
X28292Y-8055D02*
X28671Y-8055D01*
X28056Y-7252D02*
X28056Y-7819D01*
X17307Y-6889D02*
X17283Y-6913D01*
G54D48*
X24422Y-7832D02*
X24424Y-7834D01*
X23569Y-7832D02*
X24422Y-7832D01*
X19680Y-9646D02*
X19681Y-9645D01*
X19681Y-9645D02*
X20014Y-9645D01*
X20014Y-7913D02*
X19686Y-7913D01*
X19686Y-7913D02*
X19680Y-7906D01*
X19682Y-8779D02*
X19680Y-8776D01*
X20014Y-8779D02*
X19682Y-8779D01*
G54D47*
X13630Y-9600D02*
X13930Y-9600D01*
X11646Y-9586D02*
X9796Y-9586D01*
X11646Y-9586D02*
X11650Y-9590D01*
X13930Y-9600D02*
X15430Y-8100D01*
G54D46*
X17283Y-6929D02*
X17716Y-7362D01*
X18425Y-7362D02*
X19645Y-7362D01*
X17716Y-7362D02*
X18425Y-7362D01*
X17283Y-6913D02*
X17283Y-6929D01*
X19645Y-7362D02*
X21535Y-7362D01*
G54D48*
X23582Y-7819D02*
X23569Y-7832D01*
X23582Y-7362D02*
X23582Y-7819D01*
X18400Y-7362D02*
X18425Y-7337D01*
X18425Y-7337D02*
X18425Y-7362D01*
X18400Y-6771D02*
X18400Y-7362D01*
X19680Y-7362D02*
X19645Y-7362D01*
X19680Y-7906D02*
X19680Y-7362D01*
G54D44*
X3185Y-7067D02*
X3988Y-7067D01*
G54D49*
X5511Y-5354D02*
X3976Y-5354D01*
X5984Y-4881D02*
X5511Y-5354D01*
X5984Y-4803D02*
X5984Y-4881D01*
G54D50*
X3988Y-5366D02*
X3976Y-5354D01*
X3988Y-7067D02*
X3988Y-5366D01*
G54D46*
X23722Y-2171D02*
X23322Y-1771D01*
X23722Y-2471D02*
X23722Y-2171D01*
X16911Y-2171D02*
X16511Y-1771D01*
X16911Y-2471D02*
X16911Y-2171D01*
G54D48*
X25024Y-7834D02*
X25393Y-7834D01*
X24092Y-9332D02*
X24094Y-9330D01*
X23569Y-9332D02*
X24092Y-9332D01*
G54D42*
X21833Y-12421D02*
X21834Y-12422D01*
X21259Y-12421D02*
X21833Y-12421D01*
G54D44*
X12867Y-6803D02*
X12868Y-6804D01*
X12867Y-6351D02*
X12867Y-6803D01*
X15530Y-6790D02*
X15531Y-6791D01*
X15530Y-6338D02*
X15530Y-6790D01*
X2585Y-7067D02*
X2137Y-7067D01*
G54D51*
X5799Y-7067D02*
X5799Y-6358D01*
X5799Y-7067D02*
X6429Y-7067D01*
G54D48*
X19925Y-13725D02*
X19921Y-13720D01*
X20393Y-13725D02*
X19925Y-13725D01*
G54D42*
X23208Y-11637D02*
X23209Y-11638D01*
X23208Y-11062D02*
X23208Y-11637D01*
G54D44*
X11100Y-5910D02*
X10620Y-5910D01*
G54D51*
X6705Y-11484D02*
X6710Y-11480D01*
X6705Y-12190D02*
X6705Y-11484D01*
X7279Y-12190D02*
X7280Y-12190D01*
X6705Y-12190D02*
X7279Y-12190D01*
G54D48*
X6270Y-10710D02*
X6280Y-10720D01*
X5800Y-10710D02*
X6270Y-10710D01*
X8551Y-11028D02*
X8550Y-11030D01*
X9027Y-11028D02*
X8551Y-11028D01*
G54D44*
X16410Y-13149D02*
X16410Y-13150D01*
X16786Y-13149D02*
X16410Y-13149D01*
X18100Y-13149D02*
X18100Y-13150D01*
X18479Y-13149D02*
X18100Y-13149D01*
G54D48*
X23553Y-5561D02*
X23543Y-5551D01*
X23976Y-5561D02*
X23553Y-5561D01*
X21485Y-5561D02*
X21496Y-5551D01*
X21062Y-5561D02*
X21485Y-5561D01*
G54D44*
X25300Y-6889D02*
X25708Y-6889D01*
X19896Y-10905D02*
X19488Y-10905D01*
X23701Y-10196D02*
X23710Y-10205D01*
X23331Y-10196D02*
X23701Y-10196D01*
X29549Y-8655D02*
X29773Y-8878D01*
X28671Y-8655D02*
X29549Y-8655D01*
X28056Y-5245D02*
X27647Y-5245D01*
X25324Y-11204D02*
X25324Y-10796D01*
G54D52*
X22421Y-8913D02*
X22505Y-8830D01*
X21927Y-8832D02*
X21930Y-8830D01*
G54D43*
X21927Y-8832D02*
X21469Y-8832D01*
G54D52*
X22421Y-11062D02*
X22421Y-8913D01*
G54D48*
X21469Y-8832D02*
X21469Y-8332D01*
G54D43*
X20614Y-9109D02*
X20511Y-9212D01*
X20614Y-8779D02*
X20614Y-9109D01*
X17582Y-9212D02*
X17283Y-8913D01*
X20511Y-9212D02*
X17582Y-9212D01*
G54D48*
X20668Y-8832D02*
X20614Y-8779D01*
X21469Y-8832D02*
X20668Y-8832D01*
G54D52*
X26364Y-12224D02*
X27753Y-10835D01*
X27753Y-10835D02*
X27662Y-10835D01*
X24567Y-12224D02*
X26364Y-12224D01*
G54D43*
X28289Y-9878D02*
X27662Y-10505D01*
X27662Y-10505D02*
X27662Y-10835D01*
X29773Y-9878D02*
X28289Y-9878D01*
G54D52*
X13609Y-7504D02*
X13596Y-7518D01*
X21574Y-10374D02*
X17076Y-10374D01*
X21830Y-10629D02*
X21574Y-10374D01*
X21830Y-11062D02*
X21830Y-10629D01*
X16023Y-7952D02*
X15575Y-7504D01*
X16023Y-9320D02*
X16023Y-7952D01*
X17076Y-10374D02*
X16023Y-9320D01*
X15575Y-7504D02*
X13609Y-7504D01*
X22027Y-9547D02*
X21812Y-9332D01*
X21812Y-9332D02*
X21469Y-9332D01*
X22027Y-11062D02*
X22027Y-9547D01*
G54D43*
X16259Y-8889D02*
X17283Y-9913D01*
X16259Y-7504D02*
X16259Y-8889D01*
X20614Y-9645D02*
X20614Y-9936D01*
X20614Y-9936D02*
X20472Y-10078D01*
X17448Y-10078D02*
X17283Y-9913D01*
X20472Y-10078D02*
X17448Y-10078D01*
G54D48*
X20927Y-9332D02*
X20614Y-9645D01*
X21469Y-9332D02*
X20927Y-9332D01*
G54D43*
X28789Y-11583D02*
X29261Y-12056D01*
X29261Y-12056D02*
X29261Y-14060D01*
X29261Y-14060D02*
X29765Y-14564D01*
X28262Y-11583D02*
X28789Y-11583D01*
G54D49*
X8582Y-4527D02*
X8976Y-4133D01*
X8582Y-4803D02*
X8582Y-4527D01*
X8976Y-4133D02*
X9606Y-4133D01*
G54D52*
X20516Y-12224D02*
X20496Y-12204D01*
X21259Y-12224D02*
X20516Y-12224D01*
G54D48*
X19520Y-6771D02*
X19000Y-6771D01*
G54D43*
X28262Y-14060D02*
X28765Y-14564D01*
X28262Y-12331D02*
X28262Y-14060D01*
G54D44*
X15905Y-5275D02*
X16260Y-4920D01*
X16260Y-4920D02*
X17662Y-4920D01*
X17662Y-4920D02*
X18211Y-4371D01*
X15905Y-5472D02*
X15905Y-5275D01*
G54D48*
X18685Y-3897D02*
X18211Y-4371D01*
X25022Y-4314D02*
X24606Y-3897D01*
X24606Y-3897D02*
X23267Y-3897D01*
X25022Y-4371D02*
X25022Y-4314D01*
X21692Y-3897D02*
X18685Y-3897D01*
G54D43*
X16259Y-6359D02*
X16280Y-6338D01*
X16259Y-6904D02*
X16259Y-6359D01*
X13596Y-6372D02*
X13617Y-6351D01*
X13596Y-6918D02*
X13596Y-6372D01*
G54D48*
X24689Y-6879D02*
X24700Y-6889D01*
X23976Y-6879D02*
X24689Y-6879D01*
X23023Y-6879D02*
X22913Y-6989D01*
X23976Y-6879D02*
X23023Y-6879D01*
X22913Y-8110D02*
X23135Y-8332D01*
X23135Y-8332D02*
X23569Y-8332D01*
X22913Y-6989D02*
X22913Y-8110D01*
X21052Y-6889D02*
X21062Y-6879D01*
X23045Y-8832D02*
X22519Y-8307D01*
X23569Y-8832D02*
X23045Y-8832D01*
X22519Y-7461D02*
X22086Y-7028D01*
X22519Y-8307D02*
X22519Y-7461D01*
X22016Y-6879D02*
X22125Y-6989D01*
X21062Y-6879D02*
X22016Y-6879D01*
X20816Y-6879D02*
X20708Y-6771D01*
X20708Y-6771D02*
X20400Y-6771D01*
X21062Y-6879D02*
X20816Y-6879D01*
G54D44*
X29749Y-7252D02*
X29773Y-7229D01*
X28656Y-7252D02*
X29749Y-7252D01*
X28656Y-5245D02*
X29757Y-5245D01*
X29757Y-5245D02*
X29773Y-5229D01*
X28656Y-6229D02*
X29773Y-6229D01*
G54D46*
X29773Y-13556D02*
X29765Y-13564D01*
X29773Y-12352D02*
X29773Y-13556D01*
G54D44*
X11947Y-5375D02*
X12811Y-4511D01*
X12811Y-4511D02*
X12811Y-4371D01*
X11900Y-5375D02*
X11947Y-5375D01*
X14527Y-4803D02*
X14959Y-4371D01*
X14959Y-4371D02*
X17311Y-4371D01*
X14527Y-5373D02*
X14527Y-4803D01*
X19622Y-5428D02*
X19626Y-5433D01*
G54D48*
X19626Y-4375D02*
X19622Y-4371D01*
X19626Y-5433D02*
X19626Y-4375D01*
G54D44*
X13659Y-4371D02*
X13242Y-4789D01*
X13242Y-4789D02*
X13242Y-5485D01*
X13711Y-4371D02*
X13659Y-4371D01*
G54D48*
X14185Y-3897D02*
X13711Y-4371D01*
X17913Y-3897D02*
X14185Y-3897D01*
X24292Y-4371D02*
X24842Y-4921D01*
X24842Y-4921D02*
X25275Y-4921D01*
X25275Y-4921D02*
X25532Y-5178D01*
X25532Y-5178D02*
X25532Y-5629D01*
X24122Y-4371D02*
X24292Y-4371D01*
G54D52*
X17917Y-12618D02*
X17386Y-13149D01*
X21259Y-12618D02*
X17917Y-12618D01*
G54D48*
X17386Y-13755D02*
X16535Y-14606D01*
X16535Y-14606D02*
X15334Y-14606D01*
X17386Y-13149D02*
X17386Y-13755D01*
X5941Y-12009D02*
X5784Y-12165D01*
G54D50*
X8292Y-14709D02*
X8307Y-14724D01*
X5800Y-14709D02*
X8292Y-14709D01*
X9612Y-14724D02*
X9651Y-14685D01*
X8307Y-14724D02*
X9612Y-14724D01*
G54D44*
X5800Y-11310D02*
X5800Y-12190D01*
G54D46*
X9651Y-13121D02*
X9650Y-13120D01*
X9651Y-14685D02*
X9651Y-13121D01*
G54D47*
X5800Y-14020D02*
X5800Y-13760D01*
X5800Y-14709D02*
X5800Y-14020D01*
X4420Y-14709D02*
X4420Y-14710D01*
X5800Y-14709D02*
X4420Y-14709D01*
G54D45*
X5800Y-12190D02*
X5800Y-14020D01*
G54D52*
X19414Y-12814D02*
X19079Y-13149D01*
X21259Y-12814D02*
X19414Y-12814D01*
G54D48*
X19079Y-14601D02*
X19074Y-14606D01*
X19079Y-13149D02*
X19079Y-14601D01*
G54D47*
X7413Y-9586D02*
X9046Y-9586D01*
G54D44*
X9027Y-9605D02*
X9046Y-9586D01*
X9027Y-10428D02*
X9027Y-9605D01*
G54D46*
X9046Y-8385D02*
X9027Y-8366D01*
G54D50*
X4894Y-9587D02*
X4893Y-9586D01*
X4894Y-12190D02*
X4894Y-9587D01*
G54D47*
X4893Y-9586D02*
X7413Y-9586D01*
X3679Y-9586D02*
X3679Y-9586D01*
X4893Y-9586D02*
X3679Y-9586D01*
X4893Y-8690D02*
X4896Y-8688D01*
X4893Y-9586D02*
X4893Y-8690D01*
G54D45*
X4893Y-7067D02*
X4893Y-8690D01*
G54D46*
X9046Y-9586D02*
X9046Y-8385D01*
G54D42*
X25299Y-11830D02*
X25324Y-11804D01*
X24567Y-11830D02*
X25299Y-11830D01*
G54D43*
X25575Y-11804D02*
X26755Y-10625D01*
X26755Y-10625D02*
X26755Y-7529D01*
X26755Y-7529D02*
X28056Y-6229D01*
X25324Y-11804D02*
X25575Y-11804D01*
X20496Y-11555D02*
X20496Y-10905D01*
G54D52*
X21003Y-12027D02*
X20531Y-11555D01*
X20531Y-11555D02*
X20496Y-11555D01*
X21259Y-12027D02*
X21003Y-12027D01*
X22146Y-12027D02*
X23395Y-13276D01*
G54D43*
X25060Y-13290D02*
X25060Y-13858D01*
X25060Y-13858D02*
X25765Y-14564D01*
G54D52*
X21259Y-12027D02*
X22146Y-12027D01*
G54D46*
X22122Y-2171D02*
X21722Y-1771D01*
X22122Y-2471D02*
X22122Y-2171D01*
X15311Y-2171D02*
X14911Y-1771D01*
X15311Y-2471D02*
X15311Y-2171D01*
G54D48*
X15311Y-2471D02*
X15365Y-2471D01*
G54D44*
X16344Y-3503D02*
X15311Y-2471D01*
X22125Y-3503D02*
X16344Y-3503D01*
X22125Y-5414D02*
X22144Y-5433D01*
X22125Y-3503D02*
X22125Y-5414D01*
G54D48*
X22144Y-6220D02*
X22125Y-6239D01*
X22144Y-5433D02*
X22144Y-6220D01*
G54D46*
X22922Y-2171D02*
X22522Y-1771D01*
X22922Y-2471D02*
X22922Y-2171D01*
X16111Y-2171D02*
X15711Y-1771D01*
X16111Y-2471D02*
X16111Y-2171D01*
G54D44*
X22894Y-2499D02*
X22922Y-2471D01*
X22894Y-3031D02*
X22894Y-2499D01*
X22894Y-5433D02*
X22894Y-3031D01*
X16133Y-2471D02*
X16692Y-3031D01*
X16692Y-3031D02*
X22894Y-3031D01*
X16111Y-2471D02*
X16133Y-2471D01*
G54D48*
X22894Y-6220D02*
X22913Y-6239D01*
X22894Y-5433D02*
X22894Y-6220D01*
G54D52*
X22224Y-8248D02*
X21809Y-7832D01*
X21809Y-7832D02*
X21469Y-7832D01*
X22224Y-11062D02*
X22224Y-8248D01*
G54D43*
X20614Y-8243D02*
X20511Y-8346D01*
X20614Y-7913D02*
X20614Y-8243D01*
X17716Y-8346D02*
X17283Y-7913D01*
X20511Y-8346D02*
X17716Y-8346D01*
G54D48*
X20695Y-7832D02*
X20614Y-7913D01*
X21469Y-7832D02*
X20695Y-7832D01*
G54D52*
X13823Y-11214D02*
X13927Y-11214D01*
G54D43*
X13927Y-11214D02*
X13829Y-11214D01*
G54D52*
X21614Y-15236D02*
X14149Y-15236D01*
X21830Y-15020D02*
X21614Y-15236D01*
X21830Y-15020D02*
X21830Y-14370D01*
X13927Y-11214D02*
X13815Y-11214D01*
X13550Y-11479D02*
X13815Y-11214D01*
X14149Y-15236D02*
X13550Y-14636D01*
X13550Y-11479D02*
X13550Y-14636D01*
G54D43*
X13734Y-11214D02*
X13927Y-11214D01*
X10134Y-3108D02*
X10134Y-2358D01*
X9251Y-1476D02*
X10134Y-2358D01*
X10134Y-6063D02*
X10134Y-5105D01*
X12674Y-8604D02*
X10134Y-6063D01*
X13734Y-11214D02*
X12674Y-10154D01*
X12674Y-8604D02*
X12674Y-10154D01*
G54D52*
X13085Y-11214D02*
X12982Y-11214D01*
G54D43*
X12982Y-11214D02*
X12977Y-11214D01*
G54D52*
X21688Y-15416D02*
X14045Y-15416D01*
X22027Y-15077D02*
X21688Y-15416D01*
X22027Y-15077D02*
X22027Y-14370D01*
X12982Y-11214D02*
X13084Y-11214D01*
X13370Y-11500D02*
X13084Y-11214D01*
X14045Y-15416D02*
X13370Y-14740D01*
X13370Y-14740D02*
X13370Y-11500D01*
G54D43*
X12982Y-11137D02*
X12982Y-11214D01*
X9804Y-3108D02*
X9804Y-2815D01*
X8464Y-1476D02*
X9804Y-2815D01*
X9804Y-6118D02*
X9804Y-5106D01*
X12444Y-8759D02*
X9804Y-6118D01*
X12982Y-11137D02*
X12444Y-10600D01*
X12444Y-8759D02*
X12444Y-10600D01*
G54D52*
X12318Y-11214D02*
X12214Y-11214D01*
X21763Y-15596D02*
X13960Y-15596D01*
X22224Y-15135D02*
X21763Y-15596D01*
X22224Y-15135D02*
X22224Y-14370D01*
X12214Y-11214D02*
X12337Y-11214D01*
X12598Y-11475D02*
X12337Y-11214D01*
X13960Y-15596D02*
X12598Y-14233D01*
X12598Y-11475D02*
X12598Y-14233D01*
G54D43*
X9473Y-5105D02*
X9473Y-6163D01*
X9458Y-3108D02*
X7826Y-1476D01*
X7826Y-1476D02*
X7677Y-1476D01*
X9474Y-3108D02*
X9458Y-3108D01*
X9473Y-6163D02*
X12214Y-8904D01*
X12214Y-11214D02*
X12214Y-8904D01*
G54D52*
X26652Y-13011D02*
X24567Y-13011D01*
X26652Y-13011D02*
X27332Y-12331D01*
X27662Y-12331D02*
X27332Y-12331D01*
X23602Y-12066D02*
X24064Y-12528D01*
G54D43*
X27647Y-11583D02*
X27662Y-11583D01*
X26702Y-12528D02*
X25049Y-12528D01*
X27647Y-11583D02*
X26702Y-12528D01*
G54D52*
X23602Y-11062D02*
X23602Y-12066D01*
G54D47*
X14111Y-2071D02*
X14511Y-2471D01*
X14111Y-1771D02*
X14111Y-2071D01*
X20922Y-2071D02*
X21322Y-2471D01*
X20922Y-1771D02*
X20922Y-2071D01*
X14111Y-1537D02*
X14606Y-1043D01*
X14606Y-1043D02*
X16811Y-1043D01*
X16811Y-1043D02*
X17839Y-2071D01*
X17839Y-2071D02*
X20922Y-2071D01*
X14111Y-1771D02*
X14111Y-1537D01*
G54D49*
X11535Y-4133D02*
X13897Y-1771D01*
X13897Y-1771D02*
X14111Y-1771D01*
X11102Y-4133D02*
X11535Y-4133D01*
G54D44*
X11100Y-4136D02*
X11102Y-4133D01*
X11100Y-5310D02*
X11100Y-4136D01*
G54D10*
G36*
X9570Y-10890D02*
X9452Y-10890D01*
X9452Y-10864D01*
X9422Y-10790D01*
X9395Y-10764D01*
X9464Y-10695D01*
X9502Y-10603D01*
X9502Y-10541D01*
X9440Y-10478D01*
X9077Y-10478D01*
X9077Y-10486D01*
X8996Y-10486D01*
X8996Y-10049D01*
X8996Y-9636D01*
X8996Y-9536D01*
X8996Y-9124D01*
X8977Y-9105D01*
X8977Y-8828D01*
X8977Y-8416D01*
X8977Y-8316D01*
X8977Y-7903D01*
X8915Y-7841D01*
X8703Y-7841D01*
X8611Y-7879D01*
X8540Y-7949D01*
X8502Y-8041D01*
X8502Y-8140D01*
X8502Y-8253D01*
X8565Y-8316D01*
X8977Y-8316D01*
X8977Y-8416D01*
X8565Y-8416D01*
X8502Y-8478D01*
X8502Y-8591D01*
X8502Y-8691D01*
X8540Y-8783D01*
X8611Y-8853D01*
X8703Y-8891D01*
X8915Y-8891D01*
X8977Y-8828D01*
X8977Y-9105D01*
X8933Y-9061D01*
X8821Y-9061D01*
X8729Y-9099D01*
X8659Y-9170D01*
X8621Y-9261D01*
X8621Y-9361D01*
X8621Y-9474D01*
X8683Y-9536D01*
X8996Y-9536D01*
X8996Y-9636D01*
X8683Y-9636D01*
X8621Y-9699D01*
X8621Y-9812D01*
X8621Y-9911D01*
X8659Y-10003D01*
X8722Y-10066D01*
X8660Y-10091D01*
X8590Y-10162D01*
X8552Y-10254D01*
X8552Y-10316D01*
X8615Y-10378D01*
X8977Y-10378D01*
X8977Y-10116D01*
X8953Y-10092D01*
X8996Y-10049D01*
X8996Y-10486D01*
X8977Y-10486D01*
X8977Y-10478D01*
X8615Y-10478D01*
X8552Y-10541D01*
X8552Y-10603D01*
X8574Y-10655D01*
X8475Y-10654D01*
X8337Y-10711D01*
X8232Y-10817D01*
X8202Y-10890D01*
X7899Y-10890D01*
X7899Y-9773D01*
X7899Y-9400D01*
X7899Y-9300D01*
X7861Y-9208D01*
X7791Y-9138D01*
X7720Y-9109D01*
X7783Y-9046D01*
X7849Y-8886D01*
X7849Y-8713D01*
X7783Y-8552D01*
X7660Y-8429D01*
X7500Y-8363D01*
X7327Y-8363D01*
X7166Y-8429D01*
X7043Y-8552D01*
X6977Y-8712D01*
X6977Y-8885D01*
X7043Y-9046D01*
X7106Y-9109D01*
X7035Y-9138D01*
X6965Y-9208D01*
X6927Y-9300D01*
X6927Y-9400D01*
X6927Y-9474D01*
X6989Y-9536D01*
X7363Y-9536D01*
X7363Y-9529D01*
X7463Y-9529D01*
X7463Y-9536D01*
X7837Y-9536D01*
X7899Y-9474D01*
X7899Y-9400D01*
X7899Y-9773D01*
X7899Y-9699D01*
X7837Y-9636D01*
X7463Y-9636D01*
X7463Y-10010D01*
X7525Y-10073D01*
X7699Y-10073D01*
X7791Y-10035D01*
X7861Y-9964D01*
X7899Y-9873D01*
X7899Y-9773D01*
X7899Y-10890D01*
X7363Y-10890D01*
X7363Y-10010D01*
X7363Y-9636D01*
X6989Y-9636D01*
X6927Y-9699D01*
X6927Y-9773D01*
X6927Y-9873D01*
X6965Y-9964D01*
X7035Y-10035D01*
X7127Y-10073D01*
X7300Y-10073D01*
X7363Y-10010D01*
X7363Y-10890D01*
X6615Y-10890D01*
X6654Y-10794D01*
X6655Y-10645D01*
X6598Y-10507D01*
X6492Y-10402D01*
X6354Y-10345D01*
X6205Y-10344D01*
X6086Y-10394D01*
X6064Y-10385D01*
X5985Y-10384D01*
X5852Y-10384D01*
X5852Y-9911D01*
X5852Y-9262D01*
X5852Y-9162D01*
X5814Y-9071D01*
X5743Y-9000D01*
X5651Y-8962D01*
X5006Y-8962D01*
X4943Y-9025D01*
X4943Y-9536D01*
X5789Y-9536D01*
X5852Y-9474D01*
X5852Y-9262D01*
X5852Y-9911D01*
X5852Y-9699D01*
X5789Y-9636D01*
X4943Y-9636D01*
X4943Y-10148D01*
X5006Y-10210D01*
X5651Y-10210D01*
X5743Y-10173D01*
X5814Y-10102D01*
X5852Y-10010D01*
X5852Y-9911D01*
X5852Y-10384D01*
X5535Y-10384D01*
X5461Y-10415D01*
X5405Y-10471D01*
X5375Y-10545D01*
X5374Y-10624D01*
X5374Y-10874D01*
X5381Y-10890D01*
X4843Y-10890D01*
X4843Y-10148D01*
X4843Y-9636D01*
X4843Y-9536D01*
X4843Y-9025D01*
X4781Y-8962D01*
X4135Y-8962D01*
X4043Y-9000D01*
X3973Y-9071D01*
X3935Y-9162D01*
X3935Y-9262D01*
X3935Y-9474D01*
X3997Y-9536D01*
X4843Y-9536D01*
X4843Y-9636D01*
X3997Y-9636D01*
X3935Y-9699D01*
X3935Y-9911D01*
X3935Y-10010D01*
X3973Y-10102D01*
X4043Y-10173D01*
X4135Y-10210D01*
X4781Y-10210D01*
X4843Y-10148D01*
X4843Y-10890D01*
X239Y-10890D01*
X239Y-6240D01*
X3438Y-6240D01*
X3438Y-6686D01*
X3424Y-6672D01*
X3350Y-6642D01*
X3271Y-6642D01*
X3021Y-6642D01*
X2947Y-6672D01*
X2891Y-6728D01*
X2885Y-6742D01*
X2880Y-6729D01*
X2824Y-6672D01*
X2750Y-6642D01*
X2671Y-6642D01*
X2421Y-6642D01*
X2347Y-6672D01*
X2294Y-6726D01*
X2212Y-6692D01*
X2063Y-6692D01*
X1925Y-6749D01*
X1820Y-6854D01*
X1762Y-6992D01*
X1762Y-7141D01*
X1819Y-7279D01*
X1925Y-7384D01*
X2062Y-7442D01*
X2212Y-7442D01*
X2294Y-7408D01*
X2347Y-7461D01*
X2420Y-7492D01*
X2500Y-7492D01*
X2750Y-7492D01*
X2824Y-7461D01*
X2880Y-7405D01*
X2885Y-7392D01*
X2891Y-7405D01*
X2947Y-7461D01*
X3020Y-7492D01*
X3100Y-7492D01*
X3350Y-7492D01*
X3424Y-7461D01*
X3480Y-7405D01*
X3485Y-7392D01*
X3551Y-7392D01*
X3551Y-7480D01*
X3582Y-7554D01*
X3638Y-7610D01*
X3712Y-7641D01*
X3791Y-7641D01*
X4264Y-7641D01*
X4337Y-7610D01*
X4393Y-7554D01*
X4413Y-7506D01*
X4445Y-7583D01*
X4516Y-7653D01*
X4608Y-7691D01*
X4781Y-7691D01*
X4843Y-7628D01*
X4843Y-7117D01*
X4835Y-7117D01*
X4835Y-7017D01*
X4843Y-7017D01*
X4843Y-6505D01*
X4781Y-6443D01*
X4608Y-6443D01*
X4538Y-6472D01*
X4538Y-6240D01*
X5361Y-6240D01*
X5349Y-6268D01*
X5349Y-6447D01*
X5349Y-6447D01*
X5349Y-6569D01*
X5341Y-6551D01*
X5271Y-6481D01*
X5179Y-6443D01*
X5006Y-6443D01*
X4943Y-6505D01*
X4943Y-7017D01*
X4951Y-7017D01*
X4951Y-7117D01*
X4943Y-7117D01*
X4943Y-7628D01*
X5006Y-7691D01*
X5179Y-7691D01*
X5271Y-7653D01*
X5341Y-7583D01*
X5373Y-7506D01*
X5393Y-7554D01*
X5449Y-7610D01*
X5523Y-7641D01*
X5602Y-7641D01*
X6075Y-7641D01*
X6148Y-7610D01*
X6204Y-7554D01*
X6220Y-7517D01*
X6429Y-7517D01*
X6429Y-7517D01*
X6518Y-7517D01*
X6601Y-7482D01*
X6683Y-7448D01*
X6747Y-7385D01*
X6810Y-7322D01*
X6844Y-7239D01*
X6879Y-7157D01*
X6879Y-7067D01*
X6879Y-6978D01*
X6810Y-6812D01*
X6684Y-6685D01*
X6519Y-6617D01*
X6340Y-6617D01*
X6339Y-6617D01*
X6249Y-6617D01*
X6249Y-6358D01*
X6249Y-6358D01*
X6249Y-6269D01*
X6237Y-6240D01*
X9213Y-6240D01*
X9218Y-6268D01*
X9278Y-6357D01*
X9570Y-6648D01*
X9570Y-9116D01*
X9552Y-9123D01*
X9552Y-8591D01*
X9552Y-8140D01*
X9552Y-8041D01*
X9514Y-7949D01*
X9444Y-7879D01*
X9352Y-7841D01*
X9140Y-7841D01*
X9077Y-7903D01*
X9077Y-8316D01*
X9490Y-8316D01*
X9552Y-8253D01*
X9552Y-8140D01*
X9552Y-8591D01*
X9552Y-8478D01*
X9490Y-8416D01*
X9077Y-8416D01*
X9077Y-8828D01*
X9140Y-8891D01*
X9352Y-8891D01*
X9444Y-8853D01*
X9514Y-8783D01*
X9552Y-8691D01*
X9552Y-8591D01*
X9552Y-9123D01*
X9508Y-9142D01*
X9451Y-9198D01*
X9448Y-9206D01*
X9433Y-9170D01*
X9362Y-9099D01*
X9270Y-9061D01*
X9158Y-9061D01*
X9096Y-9124D01*
X9096Y-9536D01*
X9104Y-9536D01*
X9104Y-9636D01*
X9096Y-9636D01*
X9096Y-10049D01*
X9120Y-10073D01*
X9077Y-10116D01*
X9077Y-10378D01*
X9440Y-10378D01*
X9502Y-10316D01*
X9502Y-10254D01*
X9464Y-10162D01*
X9394Y-10091D01*
X9357Y-10076D01*
X9362Y-10073D01*
X9433Y-10003D01*
X9448Y-9967D01*
X9451Y-9975D01*
X9507Y-10031D01*
X9570Y-10057D01*
X9570Y-10890D01*
X9570Y-10890D01*
G37*
G54D52*
X9570Y-10890D02*
X9452Y-10890D01*
X9452Y-10864D01*
X9422Y-10790D01*
X9395Y-10764D01*
X9464Y-10695D01*
X9502Y-10603D01*
X9502Y-10541D01*
X9440Y-10478D01*
X9077Y-10478D01*
X9077Y-10486D01*
X8996Y-10486D01*
X8996Y-10049D01*
X8996Y-9636D01*
X8996Y-9536D01*
X8996Y-9124D01*
X8977Y-9105D01*
X8977Y-8828D01*
X8977Y-8416D01*
X8977Y-8316D01*
X8977Y-7903D01*
X8915Y-7841D01*
X8703Y-7841D01*
X8611Y-7879D01*
X8540Y-7949D01*
X8502Y-8041D01*
X8502Y-8140D01*
X8502Y-8253D01*
X8565Y-8316D01*
X8977Y-8316D01*
X8977Y-8416D01*
X8565Y-8416D01*
X8502Y-8478D01*
X8502Y-8591D01*
X8502Y-8691D01*
X8540Y-8783D01*
X8611Y-8853D01*
X8703Y-8891D01*
X8915Y-8891D01*
X8977Y-8828D01*
X8977Y-9105D01*
X8933Y-9061D01*
X8821Y-9061D01*
X8729Y-9099D01*
X8659Y-9170D01*
X8621Y-9261D01*
X8621Y-9361D01*
X8621Y-9474D01*
X8683Y-9536D01*
X8996Y-9536D01*
X8996Y-9636D01*
X8683Y-9636D01*
X8621Y-9699D01*
X8621Y-9812D01*
X8621Y-9911D01*
X8659Y-10003D01*
X8722Y-10066D01*
X8660Y-10091D01*
X8590Y-10162D01*
X8552Y-10254D01*
X8552Y-10316D01*
X8615Y-10378D01*
X8977Y-10378D01*
X8977Y-10116D01*
X8953Y-10092D01*
X8996Y-10049D01*
X8996Y-10486D01*
X8977Y-10486D01*
X8977Y-10478D01*
X8615Y-10478D01*
X8552Y-10541D01*
X8552Y-10603D01*
X8574Y-10655D01*
X8475Y-10654D01*
X8337Y-10711D01*
X8232Y-10817D01*
X8202Y-10890D01*
X7899Y-10890D01*
X7899Y-9773D01*
X7899Y-9400D01*
X7899Y-9300D01*
X7861Y-9208D01*
X7791Y-9138D01*
X7720Y-9109D01*
X7783Y-9046D01*
X7849Y-8886D01*
X7849Y-8713D01*
X7783Y-8552D01*
X7660Y-8429D01*
X7500Y-8363D01*
X7327Y-8363D01*
X7166Y-8429D01*
X7043Y-8552D01*
X6977Y-8712D01*
X6977Y-8885D01*
X7043Y-9046D01*
X7106Y-9109D01*
X7035Y-9138D01*
X6965Y-9208D01*
X6927Y-9300D01*
X6927Y-9400D01*
X6927Y-9474D01*
X6989Y-9536D01*
X7363Y-9536D01*
X7363Y-9529D01*
X7463Y-9529D01*
X7463Y-9536D01*
X7837Y-9536D01*
X7899Y-9474D01*
X7899Y-9400D01*
X7899Y-9773D01*
X7899Y-9699D01*
X7837Y-9636D01*
X7463Y-9636D01*
X7463Y-10010D01*
X7525Y-10073D01*
X7699Y-10073D01*
X7791Y-10035D01*
X7861Y-9964D01*
X7899Y-9873D01*
X7899Y-9773D01*
X7899Y-10890D01*
X7363Y-10890D01*
X7363Y-10010D01*
X7363Y-9636D01*
X6989Y-9636D01*
X6927Y-9699D01*
X6927Y-9773D01*
X6927Y-9873D01*
X6965Y-9964D01*
X7035Y-10035D01*
X7127Y-10073D01*
X7300Y-10073D01*
X7363Y-10010D01*
X7363Y-10890D01*
X6615Y-10890D01*
X6654Y-10794D01*
X6655Y-10645D01*
X6598Y-10507D01*
X6492Y-10402D01*
X6354Y-10345D01*
X6205Y-10344D01*
X6086Y-10394D01*
X6064Y-10385D01*
X5985Y-10384D01*
X5852Y-10384D01*
X5852Y-9911D01*
X5852Y-9262D01*
X5852Y-9162D01*
X5814Y-9071D01*
X5743Y-9000D01*
X5651Y-8962D01*
X5006Y-8962D01*
X4943Y-9025D01*
X4943Y-9536D01*
X5789Y-9536D01*
X5852Y-9474D01*
X5852Y-9262D01*
X5852Y-9911D01*
X5852Y-9699D01*
X5789Y-9636D01*
X4943Y-9636D01*
X4943Y-10148D01*
X5006Y-10210D01*
X5651Y-10210D01*
X5743Y-10173D01*
X5814Y-10102D01*
X5852Y-10010D01*
X5852Y-9911D01*
X5852Y-10384D01*
X5535Y-10384D01*
X5461Y-10415D01*
X5405Y-10471D01*
X5375Y-10545D01*
X5374Y-10624D01*
X5374Y-10874D01*
X5381Y-10890D01*
X4843Y-10890D01*
X4843Y-10148D01*
X4843Y-9636D01*
X4843Y-9536D01*
X4843Y-9025D01*
X4781Y-8962D01*
X4135Y-8962D01*
X4043Y-9000D01*
X3973Y-9071D01*
X3935Y-9162D01*
X3935Y-9262D01*
X3935Y-9474D01*
X3997Y-9536D01*
X4843Y-9536D01*
X4843Y-9636D01*
X3997Y-9636D01*
X3935Y-9699D01*
X3935Y-9911D01*
X3935Y-10010D01*
X3973Y-10102D01*
X4043Y-10173D01*
X4135Y-10210D01*
X4781Y-10210D01*
X4843Y-10148D01*
X4843Y-10890D01*
X239Y-10890D01*
X239Y-6240D01*
X3438Y-6240D01*
X3438Y-6686D01*
X3424Y-6672D01*
X3350Y-6642D01*
X3271Y-6642D01*
X3021Y-6642D01*
X2947Y-6672D01*
X2891Y-6728D01*
X2885Y-6742D01*
X2880Y-6729D01*
X2824Y-6672D01*
X2750Y-6642D01*
X2671Y-6642D01*
X2421Y-6642D01*
X2347Y-6672D01*
X2294Y-6726D01*
X2212Y-6692D01*
X2063Y-6692D01*
X1925Y-6749D01*
X1820Y-6854D01*
X1762Y-6992D01*
X1762Y-7141D01*
X1819Y-7279D01*
X1925Y-7384D01*
X2062Y-7442D01*
X2212Y-7442D01*
X2294Y-7408D01*
X2347Y-7461D01*
X2420Y-7492D01*
X2500Y-7492D01*
X2750Y-7492D01*
X2824Y-7461D01*
X2880Y-7405D01*
X2885Y-7392D01*
X2891Y-7405D01*
X2947Y-7461D01*
X3020Y-7492D01*
X3100Y-7492D01*
X3350Y-7492D01*
X3424Y-7461D01*
X3480Y-7405D01*
X3485Y-7392D01*
X3551Y-7392D01*
X3551Y-7480D01*
X3582Y-7554D01*
X3638Y-7610D01*
X3712Y-7641D01*
X3791Y-7641D01*
X4264Y-7641D01*
X4337Y-7610D01*
X4393Y-7554D01*
X4413Y-7506D01*
X4445Y-7583D01*
X4516Y-7653D01*
X4608Y-7691D01*
X4781Y-7691D01*
X4843Y-7628D01*
X4843Y-7117D01*
X4835Y-7117D01*
X4835Y-7017D01*
X4843Y-7017D01*
X4843Y-6505D01*
X4781Y-6443D01*
X4608Y-6443D01*
X4538Y-6472D01*
X4538Y-6240D01*
X5361Y-6240D01*
X5349Y-6268D01*
X5349Y-6447D01*
X5349Y-6447D01*
X5349Y-6569D01*
X5341Y-6551D01*
X5271Y-6481D01*
X5179Y-6443D01*
X5006Y-6443D01*
X4943Y-6505D01*
X4943Y-7017D01*
X4951Y-7017D01*
X4951Y-7117D01*
X4943Y-7117D01*
X4943Y-7628D01*
X5006Y-7691D01*
X5179Y-7691D01*
X5271Y-7653D01*
X5341Y-7583D01*
X5373Y-7506D01*
X5393Y-7554D01*
X5449Y-7610D01*
X5523Y-7641D01*
X5602Y-7641D01*
X6075Y-7641D01*
X6148Y-7610D01*
X6204Y-7554D01*
X6220Y-7517D01*
X6429Y-7517D01*
X6429Y-7517D01*
X6518Y-7517D01*
X6601Y-7482D01*
X6683Y-7448D01*
X6747Y-7385D01*
X6810Y-7322D01*
X6844Y-7239D01*
X6879Y-7157D01*
X6879Y-7067D01*
X6879Y-6978D01*
X6810Y-6812D01*
X6684Y-6685D01*
X6519Y-6617D01*
X6340Y-6617D01*
X6339Y-6617D01*
X6249Y-6617D01*
X6249Y-6358D01*
X6249Y-6358D01*
X6249Y-6269D01*
X6237Y-6240D01*
X9213Y-6240D01*
X9218Y-6268D01*
X9278Y-6357D01*
X9570Y-6648D01*
X9570Y-9116D01*
X9552Y-9123D01*
X9552Y-8591D01*
X9552Y-8140D01*
X9552Y-8041D01*
X9514Y-7949D01*
X9444Y-7879D01*
X9352Y-7841D01*
X9140Y-7841D01*
X9077Y-7903D01*
X9077Y-8316D01*
X9490Y-8316D01*
X9552Y-8253D01*
X9552Y-8140D01*
X9552Y-8591D01*
X9552Y-8478D01*
X9490Y-8416D01*
X9077Y-8416D01*
X9077Y-8828D01*
X9140Y-8891D01*
X9352Y-8891D01*
X9444Y-8853D01*
X9514Y-8783D01*
X9552Y-8691D01*
X9552Y-8591D01*
X9552Y-9123D01*
X9508Y-9142D01*
X9451Y-9198D01*
X9448Y-9206D01*
X9433Y-9170D01*
X9362Y-9099D01*
X9270Y-9061D01*
X9158Y-9061D01*
X9096Y-9124D01*
X9096Y-9536D01*
X9104Y-9536D01*
X9104Y-9636D01*
X9096Y-9636D01*
X9096Y-10049D01*
X9120Y-10073D01*
X9077Y-10116D01*
X9077Y-10378D01*
X9440Y-10378D01*
X9502Y-10316D01*
X9502Y-10254D01*
X9464Y-10162D01*
X9394Y-10091D01*
X9357Y-10076D01*
X9362Y-10073D01*
X9433Y-10003D01*
X9448Y-9967D01*
X9451Y-9975D01*
X9507Y-10031D01*
X9570Y-10057D01*
X9570Y-10890D01*
M02*
