%FSLAX34Y34*%
G04 Gerber Fmt 3.4, Leading zero omitted, Abs format*
G04 (created by PCBNEW (2014-03-19 BZR 4756)-product) date Ter 03 Jun 2014 12:28:43 BRT*
%MOIN*%
G01*
G70*
G90*
G04 APERTURE LIST*
%ADD10C,0.005906*%
%ADD11R,0.031500X0.039400*%
%ADD12R,0.141732X0.074803*%
%ADD13R,0.047244X0.074803*%
%ADD14R,0.055100X0.023600*%
%ADD15R,0.078740X0.212598*%
%ADD16R,0.055000X0.035000*%
%ADD17R,0.035000X0.055000*%
%ADD18R,0.045000X0.025000*%
%ADD19R,0.025000X0.045000*%
%ADD20R,0.055000X0.055000*%
%ADD21C,0.052000*%
%ADD22C,0.128000*%
%ADD23R,0.060000X0.060000*%
%ADD24C,0.060000*%
%ADD25C,0.059055*%
%ADD26R,0.039400X0.010600*%
%ADD27R,0.010600X0.039400*%
%ADD28R,0.220000X0.083000*%
%ADD29R,0.063000X0.086600*%
%ADD30C,0.177165*%
%ADD31C,0.047244*%
%ADD32R,0.047244X0.047244*%
%ADD33R,0.049213X0.049213*%
%ADD34C,0.049213*%
%ADD35C,0.061024*%
%ADD36R,0.033500X0.033500*%
%ADD37R,0.024000X0.027000*%
G04 APERTURE END LIST*
G54D10*
G54D11*
X15905Y-5472D03*
X16280Y-6338D03*
X15530Y-6338D03*
X13242Y-5485D03*
X13617Y-6351D03*
X12867Y-6351D03*
G54D12*
X4893Y-9586D03*
G54D13*
X4893Y-7067D03*
X3988Y-7067D03*
X5799Y-7067D03*
G54D12*
X5800Y-14709D03*
G54D13*
X5800Y-12190D03*
X4894Y-12190D03*
X6705Y-12190D03*
G54D14*
X23569Y-7832D03*
X21469Y-7832D03*
X23569Y-8332D03*
X23569Y-8832D03*
X23569Y-9332D03*
X21469Y-8332D03*
X21469Y-8832D03*
X21469Y-9332D03*
G54D15*
X8582Y-4803D03*
X5984Y-4803D03*
G54D16*
X29773Y-11602D03*
X29773Y-12352D03*
G54D17*
X9046Y-9586D03*
X9796Y-9586D03*
X22894Y-5433D03*
X22144Y-5433D03*
X9651Y-14685D03*
X10401Y-14685D03*
G54D16*
X11900Y-6125D03*
X11900Y-5375D03*
X14527Y-6123D03*
X14527Y-5373D03*
G54D17*
X18876Y-5433D03*
X19626Y-5433D03*
X24782Y-5629D03*
X25532Y-5629D03*
G54D16*
X22913Y-6239D03*
X22913Y-6989D03*
X22125Y-6239D03*
X22125Y-6989D03*
G54D18*
X9027Y-10428D03*
X9027Y-11028D03*
G54D19*
X19896Y-12204D03*
X20496Y-12204D03*
X3185Y-7067D03*
X2585Y-7067D03*
X20014Y-9645D03*
X20614Y-9645D03*
X27662Y-12331D03*
X28262Y-12331D03*
X27662Y-11583D03*
X28262Y-11583D03*
G54D18*
X13927Y-11814D03*
X13927Y-11214D03*
X12982Y-11814D03*
X12982Y-11214D03*
X12214Y-11814D03*
X12214Y-11214D03*
G54D19*
X28262Y-10835D03*
X27662Y-10835D03*
X28656Y-7252D03*
X28056Y-7252D03*
X28656Y-5245D03*
X28056Y-5245D03*
X28656Y-6229D03*
X28056Y-6229D03*
G54D18*
X25324Y-11804D03*
X25324Y-11204D03*
X13596Y-7518D03*
X13596Y-6918D03*
G54D19*
X22731Y-10196D03*
X23331Y-10196D03*
G54D18*
X20393Y-13125D03*
X20393Y-13725D03*
G54D19*
X16786Y-13149D03*
X17386Y-13149D03*
X18479Y-13149D03*
X19079Y-13149D03*
X19896Y-11555D03*
X20496Y-11555D03*
X20496Y-10905D03*
X19896Y-10905D03*
G54D18*
X11100Y-5310D03*
X11100Y-5910D03*
G54D19*
X20014Y-8779D03*
X20614Y-8779D03*
G54D18*
X16259Y-7504D03*
X16259Y-6904D03*
X5800Y-11310D03*
X5800Y-10710D03*
G54D19*
X19000Y-6771D03*
X18400Y-6771D03*
X20014Y-7913D03*
X20614Y-7913D03*
X24424Y-7834D03*
X25024Y-7834D03*
X25300Y-6889D03*
X24700Y-6889D03*
G54D20*
X9027Y-8366D03*
X9650Y-13120D03*
G54D21*
X12811Y-4371D03*
X13711Y-4371D03*
X17311Y-4371D03*
X18211Y-4371D03*
X16911Y-2471D03*
X16111Y-2471D03*
X15311Y-2471D03*
X14511Y-2471D03*
X15711Y-1771D03*
X14911Y-1771D03*
X16511Y-1771D03*
X14111Y-1771D03*
G54D22*
X13011Y-771D03*
X18011Y-771D03*
G54D21*
X19622Y-4371D03*
X20522Y-4371D03*
X24122Y-4371D03*
X25022Y-4371D03*
X23722Y-2471D03*
X22922Y-2471D03*
X22122Y-2471D03*
X21322Y-2471D03*
X22522Y-1771D03*
X21722Y-1771D03*
X23322Y-1771D03*
X20922Y-1771D03*
G54D22*
X19822Y-771D03*
X24822Y-771D03*
G54D23*
X29765Y-13564D03*
G54D24*
X29765Y-14564D03*
X28765Y-13564D03*
X28765Y-14564D03*
X27765Y-13564D03*
X27765Y-14564D03*
X26765Y-13564D03*
X26765Y-14564D03*
X25765Y-13564D03*
X25765Y-14564D03*
G54D23*
X17283Y-5913D03*
G54D24*
X17283Y-6913D03*
X17283Y-7913D03*
X17283Y-8913D03*
G54D25*
X17283Y-9913D03*
G54D23*
X29773Y-5229D03*
G54D24*
X29773Y-6229D03*
X29773Y-7229D03*
G54D23*
X29773Y-8878D03*
G54D24*
X29773Y-9878D03*
G54D26*
X24567Y-13799D03*
X21259Y-11633D03*
X21259Y-11830D03*
X21259Y-12027D03*
X21259Y-12224D03*
X21259Y-12421D03*
X21259Y-12618D03*
X21259Y-12814D03*
X21259Y-13011D03*
X21259Y-13208D03*
X21259Y-13405D03*
X21259Y-13602D03*
X21259Y-13799D03*
G54D27*
X21830Y-14370D03*
X22027Y-14370D03*
X22224Y-14370D03*
X22416Y-14370D03*
X22618Y-14370D03*
X22815Y-14370D03*
X23011Y-14370D03*
X23208Y-14370D03*
X23405Y-14370D03*
X23602Y-14370D03*
X23799Y-14370D03*
X23996Y-14370D03*
G54D26*
X24567Y-13602D03*
X24567Y-13405D03*
X24567Y-13208D03*
X24567Y-13011D03*
X24567Y-12814D03*
X24567Y-12618D03*
X24567Y-12421D03*
X24567Y-12224D03*
X24567Y-12027D03*
X24567Y-11830D03*
X24567Y-11633D03*
G54D27*
X23996Y-11062D03*
X23799Y-11062D03*
X23602Y-11062D03*
X23405Y-11062D03*
X23208Y-11062D03*
X23011Y-11062D03*
X22815Y-11062D03*
X22618Y-11062D03*
X22421Y-11062D03*
X22224Y-11062D03*
X22027Y-11062D03*
X21830Y-11062D03*
G54D28*
X19074Y-14606D03*
X15334Y-14606D03*
G54D29*
X11102Y-4133D03*
X9606Y-4133D03*
G54D30*
X29862Y-2952D03*
X26909Y-2952D03*
X29862Y-984D03*
X26909Y-984D03*
X3956Y-2952D03*
X1003Y-2952D03*
X3956Y-984D03*
X1003Y-984D03*
G54D31*
X3188Y-5354D03*
G54D32*
X3976Y-5354D03*
G54D31*
X8307Y-13937D03*
G54D32*
X8307Y-14724D03*
G54D31*
X7413Y-8799D03*
G54D32*
X7413Y-9586D03*
G54D33*
X10039Y-1476D03*
G54D34*
X8464Y-1476D03*
X7677Y-1476D03*
G54D35*
X11220Y-984D03*
X5708Y-984D03*
G54D34*
X9251Y-1476D03*
G54D36*
X23976Y-6879D03*
X23976Y-5561D03*
X21062Y-6879D03*
X21062Y-5561D03*
G54D37*
X20400Y-6771D03*
X19520Y-6771D03*
G54D18*
X28671Y-8055D03*
X28671Y-8655D03*
M02*
