M48
;DRILL file {kicad (2014-jul-16 BZR unknown)-product} date Seg 15 Dez 2014 17:02:49 BRST
;FORMAT={-:-/ absolute / inch / decimal}
FMAT,2
INCH,TZ
T1C0.012
T2C0.015
T3C0.020
T4C0.025
T5C0.028
T6C0.031
T7C0.035
T8C0.040
T9C0.059
T10C0.061
T11C0.128
T12C0.138
%
G90
G05
M72
T1
X3.7283Y-2.7598
X3.7598Y-2.815
X3.815Y-2.7008
X3.8626Y-3.3544
X3.9016Y-3.1339
X3.9724Y-3.7795
X3.9961Y-2.8189
X4.Y-3.2638
X4.0197Y-3.6299
X4.0276Y-3.4488
X4.0315Y-3.685
X4.0472Y-3.5354
X4.0591Y-2.9488
X4.0866Y-3.437
X4.141Y-3.815
X4.1466Y-2.5557
X4.1535Y-2.9803
X4.2598Y-3.626
X4.2913Y-3.5079
X4.2992Y-3.5748
X4.31Y-3.815
X4.3228Y-3.0984
X4.3307Y-3.028
X4.3504Y-2.7087
X4.3622Y-3.4331
X4.4134Y-2.9921
X4.4198Y-3.535
X4.4252Y-3.6654
X4.437Y-2.6614
X4.437Y-3.4055
X4.4567Y-3.5039
X4.4606Y-3.1969
X4.4921Y-3.872
X4.5354Y-3.1772
X4.5394Y-3.0433
X4.563Y-3.5039
X4.5709Y-3.4488
X4.5945Y-3.2835
X4.5945Y-3.378
X4.5984Y-3.2362
X4.6339Y-2.8465
X4.6654Y-3.1614
X4.6834Y-3.7422
X4.6929Y-3.0945
X4.6929Y-3.2953
X4.7008Y-3.3465
X4.7087Y-3.2323
X4.7205Y-2.8189
X4.7205Y-2.8661
X4.7244Y-3.3898
X4.7559Y-3.0984
X4.7559Y-3.1339
X4.7913Y-2.5984
X4.8071Y-3.2717
X4.811Y-3.3937
X4.815Y-3.3504
X4.8209Y-3.6638
X4.8661Y-3.2441
X4.8819Y-2.815
X4.9134Y-3.3976
X4.9213Y-3.0906
X4.9449Y-3.3071
X5.0325Y-3.5796
X5.0866Y-3.1732
T2
X3.4473Y-3.0105
X3.4474Y-2.8108
X3.4804Y-2.8108
X3.4804Y-3.0106
X3.5134Y-2.8108
X3.5134Y-3.0105
X4.468Y-3.2907
X4.4685Y-3.3346
X4.8396Y-3.8277
X4.9065Y-3.7529
X5.0049Y-3.7529
X5.006Y-3.829
T3
X3.0799Y-3.1359
X3.1429Y-3.2067
X3.171Y-3.648
X3.228Y-3.719
X3.665Y-3.459
X3.7963Y-4.0325
X4.5846Y-3.9724
X4.771Y-4.032
T4
X2.7138Y-3.2067
X3.128Y-3.572
X3.355Y-3.603
X3.722Y-3.72
X3.7233Y-3.2599
X3.7506Y-3.0905
X3.798Y-3.72
X3.893Y-3.72
X4.032Y-3.1991
X5.2648Y-3.0245
T5
X2.8189Y-3.0354
X2.8976Y-3.0354
X3.2413Y-3.38
X3.2413Y-3.4587
X3.3307Y-3.8937
X3.3307Y-3.9724
X3.6102Y-3.0433
X3.6102Y-3.122
T6
X3.2677Y-2.6476
X3.3465Y-2.6476
X3.4252Y-2.6476
X3.5039Y-2.6476
T7
X3.7812Y-2.9372
X3.8712Y-2.9372
X3.9112Y-2.6772
X3.9512Y-2.7472
X3.9912Y-2.6772
X4.0312Y-2.7472
X4.0712Y-2.6772
X4.1112Y-2.7472
X4.1512Y-2.6772
X4.1912Y-2.7472
X4.2312Y-2.9372
X4.3212Y-2.9372
X4.4623Y-2.9372
X4.5523Y-2.9372
X4.5923Y-2.6772
X4.6323Y-2.7472
X4.6723Y-2.6772
X4.7123Y-2.7472
X4.7523Y-2.6772
X4.7923Y-2.7472
X4.8323Y-2.6772
X4.8723Y-2.7472
X4.9123Y-2.9372
X5.0023Y-2.9372
T8
X4.126Y-3.088
X4.126Y-3.188
X4.126Y-3.288
X4.126Y-3.388
X4.126Y-3.488
X4.226Y-3.088
X4.226Y-3.188
X4.226Y-3.288
X4.226Y-3.388
X4.226Y-3.488
X5.0766Y-3.8564
X5.0766Y-3.9564
X5.1766Y-3.8564
X5.1766Y-3.9564
X5.2766Y-3.8564
X5.2766Y-3.9564
X5.3766Y-3.8564
X5.3766Y-3.9564
X5.4766Y-3.8564
X5.4766Y-3.9564
X5.4774Y-3.0229
X5.4774Y-3.1229
X5.4774Y-3.2229
X5.4774Y-3.3879
X5.4774Y-3.4879
T9
X3.4028Y-3.3366
X3.465Y-3.812
T10
X3.0709Y-2.5984
X3.622Y-2.5984
T11
X3.8012Y-2.5772
X4.3012Y-2.5772
X4.4823Y-2.5772
X4.9823Y-2.5772
T12
X2.6004Y-2.5984
X2.6004Y-2.7953
X2.8957Y-2.5984
X2.8957Y-2.7953
X5.1909Y-2.5984
X5.1909Y-2.7953
X5.4862Y-2.5984
X5.4862Y-2.7953
T0
M30
