G04 #@! TF.FileFunction,Legend,Top*
%FSLAX46Y46*%
G04 Gerber Fmt 4.6, Leading zero omitted, Abs format (unit mm)*
G04 Created by KiCad (PCBNEW (2014-jul-16 BZR unknown)-product) date Ter 09 Dez 2014 15:03:46 BRST*
%MOMM*%
G01*
G04 APERTURE LIST*
%ADD10C,0.150000*%
%ADD11C,0.200000*%
%ADD12C,0.125000*%
%ADD13C,0.152400*%
%ADD14C,0.508000*%
%ADD15C,0.099060*%
%ADD16C,0.254000*%
%ADD17C,0.127000*%
%ADD18C,0.190500*%
%ADD19C,0.304800*%
%ADD20C,0.078740*%
%ADD21C,0.317500*%
%ADD22C,0.500000*%
%ADD23C,0.114300*%
%ADD24C,0.109220*%
G04 APERTURE END LIST*
D10*
D11*
X44028360Y-13416280D02*
X43454320Y-12842240D01*
X44058840Y-13385800D02*
X44587160Y-12857480D01*
X44058840Y-12506960D02*
X44058840Y-13385800D01*
X45760640Y-12506960D02*
X44058840Y-12506960D01*
X45760640Y-13431520D02*
X45760640Y-12506960D01*
D12*
X45532550Y-19668120D02*
X45937312Y-19668120D01*
X45984931Y-19644311D01*
X46008741Y-19620501D01*
X46032550Y-19572882D01*
X46032550Y-19477644D01*
X46008741Y-19430025D01*
X45984931Y-19406216D01*
X45937312Y-19382406D01*
X45532550Y-19382406D01*
X45889693Y-19168120D02*
X45889693Y-18930025D01*
X46032550Y-19215739D02*
X45532550Y-19049072D01*
X46032550Y-18882406D01*
X46032550Y-18430025D02*
X45794455Y-18596692D01*
X46032550Y-18715739D02*
X45532550Y-18715739D01*
X45532550Y-18525263D01*
X45556360Y-18477644D01*
X45580170Y-18453835D01*
X45627789Y-18430025D01*
X45699217Y-18430025D01*
X45746836Y-18453835D01*
X45770646Y-18477644D01*
X45794455Y-18525263D01*
X45794455Y-18715739D01*
X45532550Y-18287168D02*
X45532550Y-18001454D01*
X46032550Y-18144311D02*
X45532550Y-18144311D01*
X46032550Y-17453835D02*
X45532550Y-17453835D01*
X45532550Y-17334788D01*
X45556360Y-17263359D01*
X45603979Y-17215740D01*
X45651598Y-17191931D01*
X45746836Y-17168121D01*
X45818265Y-17168121D01*
X45913503Y-17191931D01*
X45961122Y-17215740D01*
X46008741Y-17263359D01*
X46032550Y-17334788D01*
X46032550Y-17453835D01*
X45770646Y-16953835D02*
X45770646Y-16787169D01*
X46032550Y-16715740D02*
X46032550Y-16953835D01*
X45532550Y-16953835D01*
X45532550Y-16715740D01*
X45770646Y-16334788D02*
X45794455Y-16263359D01*
X45818265Y-16239550D01*
X45865884Y-16215740D01*
X45937312Y-16215740D01*
X45984931Y-16239550D01*
X46008741Y-16263359D01*
X46032550Y-16310978D01*
X46032550Y-16501454D01*
X45532550Y-16501454D01*
X45532550Y-16334788D01*
X45556360Y-16287169D01*
X45580170Y-16263359D01*
X45627789Y-16239550D01*
X45675408Y-16239550D01*
X45723027Y-16263359D01*
X45746836Y-16287169D01*
X45770646Y-16334788D01*
X45770646Y-16501454D01*
X45532550Y-16001454D02*
X45937312Y-16001454D01*
X45984931Y-15977645D01*
X46008741Y-15953835D01*
X46032550Y-15906216D01*
X46032550Y-15810978D01*
X46008741Y-15763359D01*
X45984931Y-15739550D01*
X45937312Y-15715740D01*
X45532550Y-15715740D01*
X45556360Y-15215740D02*
X45532550Y-15263359D01*
X45532550Y-15334787D01*
X45556360Y-15406216D01*
X45603979Y-15453835D01*
X45651598Y-15477644D01*
X45746836Y-15501454D01*
X45818265Y-15501454D01*
X45913503Y-15477644D01*
X45961122Y-15453835D01*
X46008741Y-15406216D01*
X46032550Y-15334787D01*
X46032550Y-15287168D01*
X46008741Y-15215740D01*
X45984931Y-15191930D01*
X45818265Y-15191930D01*
X45818265Y-15287168D01*
X45556360Y-14715740D02*
X45532550Y-14763359D01*
X45532550Y-14834787D01*
X45556360Y-14906216D01*
X45603979Y-14953835D01*
X45651598Y-14977644D01*
X45746836Y-15001454D01*
X45818265Y-15001454D01*
X45913503Y-14977644D01*
X45961122Y-14953835D01*
X46008741Y-14906216D01*
X46032550Y-14834787D01*
X46032550Y-14787168D01*
X46008741Y-14715740D01*
X45984931Y-14691930D01*
X45818265Y-14691930D01*
X45818265Y-14787168D01*
X45770646Y-14477644D02*
X45770646Y-14310978D01*
X46032550Y-14239549D02*
X46032550Y-14477644D01*
X45532550Y-14477644D01*
X45532550Y-14239549D01*
X46032550Y-13739549D02*
X45794455Y-13906216D01*
X46032550Y-14025263D02*
X45532550Y-14025263D01*
X45532550Y-13834787D01*
X45556360Y-13787168D01*
X45580170Y-13763359D01*
X45627789Y-13739549D01*
X45699217Y-13739549D01*
X45746836Y-13763359D01*
X45770646Y-13787168D01*
X45794455Y-13834787D01*
X45794455Y-14025263D01*
D13*
X1411514Y-24195313D02*
X649514Y-24195313D01*
X1193800Y-23941313D01*
X649514Y-23687313D01*
X1411514Y-23687313D01*
X649514Y-23179314D02*
X649514Y-23034171D01*
X685800Y-22961599D01*
X758371Y-22889028D01*
X903514Y-22852742D01*
X1157514Y-22852742D01*
X1302657Y-22889028D01*
X1375229Y-22961599D01*
X1411514Y-23034171D01*
X1411514Y-23179314D01*
X1375229Y-23251885D01*
X1302657Y-23324456D01*
X1157514Y-23360742D01*
X903514Y-23360742D01*
X758371Y-23324456D01*
X685800Y-23251885D01*
X649514Y-23179314D01*
X1411514Y-22526170D02*
X649514Y-22526170D01*
X649514Y-22344742D01*
X685800Y-22235885D01*
X758371Y-22163313D01*
X830943Y-22127028D01*
X976086Y-22090742D01*
X1084943Y-22090742D01*
X1230086Y-22127028D01*
X1302657Y-22163313D01*
X1375229Y-22235885D01*
X1411514Y-22344742D01*
X1411514Y-22526170D01*
X1411514Y-21183599D02*
X649514Y-21183599D01*
X649514Y-20893314D01*
X685800Y-20820742D01*
X722086Y-20784457D01*
X794657Y-20748171D01*
X903514Y-20748171D01*
X976086Y-20784457D01*
X1012371Y-20820742D01*
X1048657Y-20893314D01*
X1048657Y-21183599D01*
X1012371Y-20421599D02*
X1012371Y-20167599D01*
X1411514Y-20058742D02*
X1411514Y-20421599D01*
X649514Y-20421599D01*
X649514Y-20058742D01*
X649514Y-19804742D02*
X1411514Y-19296742D01*
X649514Y-19296742D02*
X1411514Y-19804742D01*
X1411514Y-17990457D02*
X1048657Y-18244457D01*
X1411514Y-18425885D02*
X649514Y-18425885D01*
X649514Y-18135600D01*
X685800Y-18063028D01*
X722086Y-18026743D01*
X794657Y-17990457D01*
X903514Y-17990457D01*
X976086Y-18026743D01*
X1012371Y-18063028D01*
X1048657Y-18135600D01*
X1048657Y-18425885D01*
X1012371Y-17663885D02*
X1012371Y-17409885D01*
X1411514Y-17301028D02*
X1411514Y-17663885D01*
X649514Y-17663885D01*
X649514Y-17301028D01*
X649514Y-17083314D02*
X1411514Y-16829314D01*
X649514Y-16575314D01*
X1411514Y-15922171D02*
X1411514Y-16357599D01*
X1411514Y-16139885D02*
X649514Y-16139885D01*
X758371Y-16212456D01*
X830943Y-16285028D01*
X867229Y-16357599D01*
X1338943Y-15595599D02*
X1375229Y-15559314D01*
X1411514Y-15595599D01*
X1375229Y-15631885D01*
X1338943Y-15595599D01*
X1411514Y-15595599D01*
X649514Y-15087600D02*
X649514Y-15015028D01*
X685800Y-14942457D01*
X722086Y-14906171D01*
X794657Y-14869885D01*
X939800Y-14833600D01*
X1121229Y-14833600D01*
X1266371Y-14869885D01*
X1338943Y-14906171D01*
X1375229Y-14942457D01*
X1411514Y-15015028D01*
X1411514Y-15087600D01*
X1375229Y-15160171D01*
X1338943Y-15196457D01*
X1266371Y-15232742D01*
X1121229Y-15269028D01*
X939800Y-15269028D01*
X794657Y-15232742D01*
X722086Y-15196457D01*
X685800Y-15160171D01*
X649514Y-15087600D01*
X1941286Y-23088599D02*
X1905000Y-23052313D01*
X1868714Y-22979742D01*
X1868714Y-22798313D01*
X1905000Y-22725742D01*
X1941286Y-22689456D01*
X2013857Y-22653171D01*
X2086429Y-22653171D01*
X2195286Y-22689456D01*
X2630714Y-23124885D01*
X2630714Y-22653171D01*
X1868714Y-22181457D02*
X1868714Y-22108885D01*
X1905000Y-22036314D01*
X1941286Y-22000028D01*
X2013857Y-21963742D01*
X2159000Y-21927457D01*
X2340429Y-21927457D01*
X2485571Y-21963742D01*
X2558143Y-22000028D01*
X2594429Y-22036314D01*
X2630714Y-22108885D01*
X2630714Y-22181457D01*
X2594429Y-22254028D01*
X2558143Y-22290314D01*
X2485571Y-22326599D01*
X2340429Y-22362885D01*
X2159000Y-22362885D01*
X2013857Y-22326599D01*
X1941286Y-22290314D01*
X1905000Y-22254028D01*
X1868714Y-22181457D01*
X2630714Y-21201743D02*
X2630714Y-21637171D01*
X2630714Y-21419457D02*
X1868714Y-21419457D01*
X1977571Y-21492028D01*
X2050143Y-21564600D01*
X2086429Y-21637171D01*
X2122714Y-20548600D02*
X2630714Y-20548600D01*
X1832429Y-20730029D02*
X2376714Y-20911457D01*
X2376714Y-20439743D01*
X1832429Y-19605172D02*
X2812143Y-20258315D01*
X1868714Y-19206029D02*
X1868714Y-19133457D01*
X1905000Y-19060886D01*
X1941286Y-19024600D01*
X2013857Y-18988314D01*
X2159000Y-18952029D01*
X2340429Y-18952029D01*
X2485571Y-18988314D01*
X2558143Y-19024600D01*
X2594429Y-19060886D01*
X2630714Y-19133457D01*
X2630714Y-19206029D01*
X2594429Y-19278600D01*
X2558143Y-19314886D01*
X2485571Y-19351171D01*
X2340429Y-19387457D01*
X2159000Y-19387457D01*
X2013857Y-19351171D01*
X1941286Y-19314886D01*
X1905000Y-19278600D01*
X1868714Y-19206029D01*
X2122714Y-18298886D02*
X2630714Y-18298886D01*
X1832429Y-18480315D02*
X2376714Y-18661743D01*
X2376714Y-18190029D01*
X1832429Y-17355458D02*
X2812143Y-18008601D01*
X2630714Y-16702315D02*
X2630714Y-17137743D01*
X2630714Y-16920029D02*
X1868714Y-16920029D01*
X1977571Y-16992600D01*
X2050143Y-17065172D01*
X2086429Y-17137743D01*
X2122714Y-16049172D02*
X2630714Y-16049172D01*
X1832429Y-16230601D02*
X2376714Y-16412029D01*
X2376714Y-15940315D01*
D14*
X54244542Y-28892500D02*
G75*
G03X54244542Y-28892500I-256842J0D01*
G01*
X43028446Y-13754100D02*
G75*
G03X43028446Y-13754100I-381846J0D01*
G01*
X74680038Y-12014200D02*
G75*
G03X74680038Y-12014200I-321538J0D01*
G01*
X74701400Y-21285200D02*
G75*
G03X74701400Y-21285200I-330200J0D01*
G01*
X77270750Y-33223200D02*
G75*
G03X77270750Y-33223200I-410350J0D01*
G01*
D11*
X58204100Y-27393900D02*
X58204100Y-26758900D01*
X63106300Y-32296100D02*
X63741300Y-32296100D01*
X58191400Y-37198300D02*
X58191400Y-37833300D01*
X53289200Y-32308800D02*
X52654200Y-32308800D01*
D13*
X77570371Y-24802314D02*
X77570371Y-25056314D01*
X77969514Y-25056314D02*
X77207514Y-25056314D01*
X77207514Y-24693457D01*
X77207514Y-24258029D02*
X77207514Y-24112886D01*
X77243800Y-24040314D01*
X77316371Y-23967743D01*
X77461514Y-23931457D01*
X77715514Y-23931457D01*
X77860657Y-23967743D01*
X77933229Y-24040314D01*
X77969514Y-24112886D01*
X77969514Y-24258029D01*
X77933229Y-24330600D01*
X77860657Y-24403171D01*
X77715514Y-24439457D01*
X77461514Y-24439457D01*
X77316371Y-24403171D01*
X77243800Y-24330600D01*
X77207514Y-24258029D01*
X77207514Y-23459743D02*
X77207514Y-23314600D01*
X77243800Y-23242028D01*
X77316371Y-23169457D01*
X77461514Y-23133171D01*
X77715514Y-23133171D01*
X77860657Y-23169457D01*
X77933229Y-23242028D01*
X77969514Y-23314600D01*
X77969514Y-23459743D01*
X77933229Y-23532314D01*
X77860657Y-23604885D01*
X77715514Y-23641171D01*
X77461514Y-23641171D01*
X77316371Y-23604885D01*
X77243800Y-23532314D01*
X77207514Y-23459743D01*
X77207514Y-22915457D02*
X77207514Y-22480028D01*
X77969514Y-22697742D02*
X77207514Y-22697742D01*
X77941714Y-16763999D02*
X77179714Y-16763999D01*
X77179714Y-16473714D01*
X77216000Y-16401142D01*
X77252286Y-16364857D01*
X77324857Y-16328571D01*
X77433714Y-16328571D01*
X77506286Y-16364857D01*
X77542571Y-16401142D01*
X77578857Y-16473714D01*
X77578857Y-16763999D01*
X77179714Y-15856857D02*
X77179714Y-15711714D01*
X77216000Y-15639142D01*
X77288571Y-15566571D01*
X77433714Y-15530285D01*
X77687714Y-15530285D01*
X77832857Y-15566571D01*
X77905429Y-15639142D01*
X77941714Y-15711714D01*
X77941714Y-15856857D01*
X77905429Y-15929428D01*
X77832857Y-16001999D01*
X77687714Y-16038285D01*
X77433714Y-16038285D01*
X77288571Y-16001999D01*
X77216000Y-15929428D01*
X77179714Y-15856857D01*
X77179714Y-15312571D02*
X77179714Y-14877142D01*
X77941714Y-15094856D02*
X77179714Y-15094856D01*
D15*
X6700000Y-12900000D02*
X6700000Y-14300000D01*
X6800000Y-12600000D02*
X6800000Y-14600000D01*
X6900000Y-12400000D02*
X6900000Y-14900000D01*
X7000000Y-12300000D02*
X7000000Y-15000000D01*
D16*
X11600000Y-13600000D02*
G75*
G03X11600000Y-13600000I-2500000J0D01*
G01*
D17*
X8473160Y-18585800D02*
X6187160Y-18585800D01*
X6187160Y-18585800D02*
X6187160Y-17315800D01*
X6187160Y-17315800D02*
X8473160Y-17315800D01*
X8473160Y-17315800D02*
X8473160Y-18585800D01*
D15*
X19530160Y-20950800D02*
X18130160Y-20950800D01*
X19830160Y-21050800D02*
X17830160Y-21050800D01*
X20030160Y-21150800D02*
X17530160Y-21150800D01*
X20130160Y-21250800D02*
X17430160Y-21250800D01*
D16*
X21330160Y-23350800D02*
G75*
G03X21330160Y-23350800I-2500000J0D01*
G01*
D17*
X23565160Y-26107800D02*
X23565160Y-28393800D01*
X23565160Y-28393800D02*
X22295160Y-28393800D01*
X22295160Y-28393800D02*
X22295160Y-26107800D01*
X22295160Y-26107800D02*
X23565160Y-26107800D01*
X61657000Y-19265000D02*
X63943000Y-19265000D01*
X63943000Y-19265000D02*
X63943000Y-20535000D01*
X63943000Y-20535000D02*
X61657000Y-20535000D01*
X61657000Y-20535000D02*
X61657000Y-19265000D01*
X28829000Y-13106400D02*
X28829000Y-15392400D01*
X28829000Y-15392400D02*
X27559000Y-15392400D01*
X27559000Y-15392400D02*
X27559000Y-13106400D01*
X27559000Y-13106400D02*
X28829000Y-13106400D01*
D15*
X21800000Y-34000000D02*
X20400000Y-34000000D01*
X22100000Y-34100000D02*
X20100000Y-34100000D01*
X22300000Y-34200000D02*
X19800000Y-34200000D01*
X22400000Y-34300000D02*
X19700000Y-34300000D01*
D16*
X23600000Y-36400000D02*
G75*
G03X23600000Y-36400000I-2500000J0D01*
G01*
D17*
X14097000Y-29108400D02*
X14097000Y-26822400D01*
X14097000Y-26822400D02*
X15367000Y-26822400D01*
X15367000Y-26822400D02*
X15367000Y-29108400D01*
X15367000Y-29108400D02*
X14097000Y-29108400D01*
X63689800Y-30365600D02*
X63689800Y-28079600D01*
X63689800Y-28079600D02*
X64959800Y-28079600D01*
X64959800Y-28079600D02*
X64959800Y-30365600D01*
X64959800Y-30365600D02*
X63689800Y-30365600D01*
X52443000Y-28335000D02*
X50157000Y-28335000D01*
X50157000Y-28335000D02*
X50157000Y-27065000D01*
X50157000Y-27065000D02*
X52443000Y-27065000D01*
X52443000Y-27065000D02*
X52443000Y-28335000D01*
X42257000Y-32765000D02*
X44543000Y-32765000D01*
X44543000Y-32765000D02*
X44543000Y-34035000D01*
X44543000Y-34035000D02*
X42257000Y-34035000D01*
X42257000Y-34035000D02*
X42257000Y-32765000D01*
X46557000Y-32765000D02*
X48843000Y-32765000D01*
X48843000Y-32765000D02*
X48843000Y-34035000D01*
X48843000Y-34035000D02*
X46557000Y-34035000D01*
X46557000Y-34035000D02*
X46557000Y-32765000D01*
X52435000Y-32957000D02*
X52435000Y-35243000D01*
X52435000Y-35243000D02*
X51165000Y-35243000D01*
X51165000Y-35243000D02*
X51165000Y-32957000D01*
X51165000Y-32957000D02*
X52435000Y-32957000D01*
X57357000Y-25265000D02*
X59643000Y-25265000D01*
X59643000Y-25265000D02*
X59643000Y-26535000D01*
X59643000Y-26535000D02*
X57357000Y-26535000D01*
X57357000Y-26535000D02*
X57357000Y-25265000D01*
X73459800Y-20079600D02*
X73459800Y-22365600D01*
X73459800Y-22365600D02*
X72189800Y-22365600D01*
X72189800Y-22365600D02*
X72189800Y-20079600D01*
X72189800Y-20079600D02*
X73459800Y-20079600D01*
D10*
X65850000Y0D02*
X78350000Y0D01*
X78350000Y0D02*
X78350000Y-10000000D01*
X78350000Y-10000000D02*
X65850000Y-10000000D01*
X65850000Y-10000000D02*
X65850000Y0D01*
X50000Y0D02*
X12550000Y0D01*
X12550000Y0D02*
X12550000Y-10000000D01*
X12550000Y-10000000D02*
X50000Y-10000000D01*
X50000Y-10000000D02*
X50000Y0D01*
D13*
X26250000Y-10500000D02*
X25450000Y-10500000D01*
X26950000Y-10500000D02*
X27650000Y-10500000D01*
X25450000Y-11900000D02*
X25450000Y-9100000D01*
X25050000Y-11900000D02*
X25050000Y-9100000D01*
D11*
X24050000Y-9100000D02*
X28550000Y-9100000D01*
X28550000Y-11900000D02*
X24050000Y-11900000D01*
D13*
X26277000Y-10500000D02*
X26912000Y-10974980D01*
X26912000Y-10974980D02*
X26912000Y-10500000D01*
X26912000Y-10500000D02*
X26912000Y-10025020D01*
X26912000Y-10025020D02*
X26277000Y-10500000D01*
X26277000Y-10500000D02*
X26277000Y-10817500D01*
X26277000Y-10817500D02*
X26434480Y-10974980D01*
X26277000Y-10500000D02*
X26277000Y-10182500D01*
X26277000Y-10182500D02*
X26119520Y-10025020D01*
D18*
X54274700Y-14451260D02*
X54274700Y-17148740D01*
X52725300Y-17148740D02*
X52725300Y-14451260D01*
X52725300Y-16399440D02*
X54274700Y-16399440D01*
X53500000Y-16399440D02*
X52900560Y-15797460D01*
X52900560Y-15797460D02*
X54099440Y-15797460D01*
X54099440Y-15797460D02*
X53500000Y-16399440D01*
X61674700Y-14451260D02*
X61674700Y-17148740D01*
X60125300Y-17148740D02*
X60125300Y-14451260D01*
X60125300Y-16399440D02*
X61674700Y-16399440D01*
X60900000Y-16399440D02*
X60300560Y-15797460D01*
X60300560Y-15797460D02*
X61499440Y-15797460D01*
X61499440Y-15797460D02*
X60900000Y-16399440D01*
X51225780Y-17824840D02*
X51225780Y-16575160D01*
X50799060Y-17624180D02*
X50799060Y-16775820D01*
X50799060Y-16775820D02*
X51225780Y-17200000D01*
X51225780Y-17200000D02*
X50799060Y-17624180D01*
X51550900Y-16575160D02*
X51550900Y-16699620D01*
X51550900Y-17824840D02*
X51550900Y-17700380D01*
X49849100Y-16575160D02*
X49849100Y-16699620D01*
X49849100Y-17824840D02*
X49849100Y-17700380D01*
X51550900Y-16580240D02*
X49849100Y-16580240D01*
X51550900Y-17829920D02*
X49849100Y-17829920D01*
D16*
X64828000Y-12120000D02*
X64828000Y-93100D01*
X48572000Y-93100D02*
X48572000Y-12120000D01*
X64828000Y-12120000D02*
X48572000Y-12120000D01*
X47528000Y-12120000D02*
X47528000Y-93100D01*
X31272000Y-93100D02*
X31272000Y-12120000D01*
X47528000Y-12120000D02*
X31272000Y-12120000D01*
D13*
X74354800Y-12012600D02*
X76894800Y-12012600D01*
X76894800Y-12012600D02*
X76894800Y-19632600D01*
X76894800Y-19632600D02*
X74354800Y-19632600D01*
X74354800Y-19632600D02*
X74354800Y-12012600D01*
X76894800Y-14552600D02*
X74354800Y-14552600D01*
D19*
X76874800Y-38262600D02*
X64174800Y-38262600D01*
X64174800Y-38262600D02*
X64174800Y-33182600D01*
X64174800Y-33182600D02*
X76874800Y-33182600D01*
X76874800Y-33182600D02*
X76874800Y-38262600D01*
D13*
X74354800Y-21282600D02*
X76894800Y-21282600D01*
X76894800Y-21282600D02*
X76894800Y-26362600D01*
X76894800Y-26362600D02*
X74354800Y-26362600D01*
X74354800Y-26362600D02*
X74354800Y-21282600D01*
D20*
X32618050Y-15384520D02*
G75*
G03X32618050Y-15384520I-159070J0D01*
G01*
X34905000Y-14526000D02*
X34905000Y-15542000D01*
X32301500Y-14526000D02*
X32301500Y-15542000D01*
X34905000Y-15542000D02*
X32301500Y-15542000D01*
X32301500Y-14526000D02*
X34905000Y-14526000D01*
X35838450Y-20949920D02*
G75*
G03X35838450Y-20949920I-159070J0D01*
G01*
X38125400Y-20091400D02*
X38125400Y-21107400D01*
X35521900Y-20091400D02*
X35521900Y-21107400D01*
X38125400Y-21107400D02*
X35521900Y-21107400D01*
X35521900Y-20091400D02*
X38125400Y-20091400D01*
D17*
X33900000Y-19477000D02*
X33900000Y-17191000D01*
X33900000Y-17191000D02*
X35170000Y-17191000D01*
X35170000Y-17191000D02*
X35170000Y-19477000D01*
X35170000Y-19477000D02*
X33900000Y-19477000D01*
X38082220Y-26222960D02*
X38082220Y-23936960D01*
X38082220Y-23936960D02*
X39352220Y-23936960D01*
X39352220Y-23936960D02*
X39352220Y-26222960D01*
X39352220Y-26222960D02*
X38082220Y-26222960D01*
D15*
X30988000Y-15113000D02*
X30988000Y-14097000D01*
X29464000Y-15113000D02*
X29464000Y-14071600D01*
X31115000Y-16256000D02*
G75*
G03X31115000Y-16256000I-127000J0D01*
G01*
X30988000Y-15113000D02*
X30988000Y-16129000D01*
X30988000Y-16129000D02*
X29464000Y-16129000D01*
X29464000Y-16129000D02*
X29464000Y-15113000D01*
X29464000Y-14097000D02*
X29464000Y-13081000D01*
X29464000Y-13081000D02*
X30988000Y-13081000D01*
X30988000Y-13081000D02*
X30988000Y-14097000D01*
X37662000Y-15108000D02*
X37662000Y-14092000D01*
X36138000Y-15108000D02*
X36138000Y-14066600D01*
X37789000Y-16251000D02*
G75*
G03X37789000Y-16251000I-127000J0D01*
G01*
X37662000Y-15108000D02*
X37662000Y-16124000D01*
X37662000Y-16124000D02*
X36138000Y-16124000D01*
X36138000Y-16124000D02*
X36138000Y-15108000D01*
X36138000Y-14092000D02*
X36138000Y-13076000D01*
X36138000Y-13076000D02*
X37662000Y-13076000D01*
X37662000Y-13076000D02*
X37662000Y-14092000D01*
X48392000Y-14562000D02*
X49408000Y-14562000D01*
X48392000Y-13038000D02*
X49433400Y-13038000D01*
X47376000Y-14562000D02*
G75*
G03X47376000Y-14562000I-127000J0D01*
G01*
X48392000Y-14562000D02*
X47376000Y-14562000D01*
X47376000Y-14562000D02*
X47376000Y-13038000D01*
X47376000Y-13038000D02*
X48392000Y-13038000D01*
X49408000Y-13038000D02*
X50424000Y-13038000D01*
X50424000Y-13038000D02*
X50424000Y-14562000D01*
X50424000Y-14562000D02*
X49408000Y-14562000D01*
X63392000Y-15062000D02*
X64408000Y-15062000D01*
X63392000Y-13538000D02*
X64433400Y-13538000D01*
X62376000Y-15062000D02*
G75*
G03X62376000Y-15062000I-127000J0D01*
G01*
X63392000Y-15062000D02*
X62376000Y-15062000D01*
X62376000Y-15062000D02*
X62376000Y-13538000D01*
X62376000Y-13538000D02*
X63392000Y-13538000D01*
X64408000Y-13538000D02*
X65424000Y-13538000D01*
X65424000Y-13538000D02*
X65424000Y-15062000D01*
X65424000Y-15062000D02*
X64408000Y-15062000D01*
X57438000Y-16292000D02*
X57438000Y-17308000D01*
X58962000Y-16292000D02*
X58962000Y-17333400D01*
X57565000Y-15149000D02*
G75*
G03X57565000Y-15149000I-127000J0D01*
G01*
X57438000Y-16292000D02*
X57438000Y-15276000D01*
X57438000Y-15276000D02*
X58962000Y-15276000D01*
X58962000Y-15276000D02*
X58962000Y-16292000D01*
X58962000Y-17308000D02*
X58962000Y-18324000D01*
X58962000Y-18324000D02*
X57438000Y-18324000D01*
X57438000Y-18324000D02*
X57438000Y-17308000D01*
X55438000Y-16292000D02*
X55438000Y-17308000D01*
X56962000Y-16292000D02*
X56962000Y-17333400D01*
X55565000Y-15149000D02*
G75*
G03X55565000Y-15149000I-127000J0D01*
G01*
X55438000Y-16292000D02*
X55438000Y-15276000D01*
X55438000Y-15276000D02*
X56962000Y-15276000D01*
X56962000Y-15276000D02*
X56962000Y-16292000D01*
X56962000Y-17308000D02*
X56962000Y-18324000D01*
X56962000Y-18324000D02*
X55438000Y-18324000D01*
X55438000Y-18324000D02*
X55438000Y-17308000D01*
D17*
X64643000Y-18135000D02*
X62357000Y-18135000D01*
X62357000Y-18135000D02*
X62357000Y-16865000D01*
X62357000Y-16865000D02*
X64643000Y-16865000D01*
X64643000Y-16865000D02*
X64643000Y-18135000D01*
X48643000Y-17835000D02*
X46357000Y-17835000D01*
X46357000Y-17835000D02*
X46357000Y-16565000D01*
X46357000Y-16565000D02*
X48643000Y-16565000D01*
X48643000Y-16565000D02*
X48643000Y-17835000D01*
D15*
X23422160Y-25112800D02*
X24438160Y-25112800D01*
X23422160Y-23588800D02*
X24463560Y-23588800D01*
X22406160Y-25112800D02*
G75*
G03X22406160Y-25112800I-127000J0D01*
G01*
X23422160Y-25112800D02*
X22406160Y-25112800D01*
X22406160Y-25112800D02*
X22406160Y-23588800D01*
X22406160Y-23588800D02*
X23422160Y-23588800D01*
X24438160Y-23588800D02*
X25454160Y-23588800D01*
X25454160Y-23588800D02*
X25454160Y-25112800D01*
X25454160Y-25112800D02*
X24438160Y-25112800D01*
X57708000Y-13038000D02*
X56692000Y-13038000D01*
X57708000Y-14562000D02*
X56666600Y-14562000D01*
X58978000Y-13038000D02*
G75*
G03X58978000Y-13038000I-127000J0D01*
G01*
X57708000Y-13038000D02*
X58724000Y-13038000D01*
X58724000Y-13038000D02*
X58724000Y-14562000D01*
X58724000Y-14562000D02*
X57708000Y-14562000D01*
X56692000Y-14562000D02*
X55676000Y-14562000D01*
X55676000Y-14562000D02*
X55676000Y-13038000D01*
X55676000Y-13038000D02*
X56692000Y-13038000D01*
D17*
X50457000Y-21665000D02*
X52743000Y-21665000D01*
X52743000Y-21665000D02*
X52743000Y-22935000D01*
X52743000Y-22935000D02*
X50457000Y-22935000D01*
X50457000Y-22935000D02*
X50457000Y-21665000D01*
X50457000Y-19465000D02*
X52743000Y-19465000D01*
X52743000Y-19465000D02*
X52743000Y-20735000D01*
X52743000Y-20735000D02*
X50457000Y-20735000D01*
X50457000Y-20735000D02*
X50457000Y-19465000D01*
X50457000Y-23865000D02*
X52743000Y-23865000D01*
X52743000Y-23865000D02*
X52743000Y-25135000D01*
X52743000Y-25135000D02*
X50457000Y-25135000D01*
X50457000Y-25135000D02*
X50457000Y-23865000D01*
D15*
X24960000Y-38062000D02*
X25976000Y-38062000D01*
X24960000Y-36538000D02*
X26001400Y-36538000D01*
X23944000Y-38062000D02*
G75*
G03X23944000Y-38062000I-127000J0D01*
G01*
X24960000Y-38062000D02*
X23944000Y-38062000D01*
X23944000Y-38062000D02*
X23944000Y-36538000D01*
X23944000Y-36538000D02*
X24960000Y-36538000D01*
X25976000Y-36538000D02*
X26992000Y-36538000D01*
X26992000Y-36538000D02*
X26992000Y-38062000D01*
X26992000Y-38062000D02*
X25976000Y-38062000D01*
D17*
X73167800Y-19057600D02*
X70881800Y-19057600D01*
X70881800Y-19057600D02*
X70881800Y-17787600D01*
X70881800Y-17787600D02*
X73167800Y-17787600D01*
X73167800Y-17787600D02*
X73167800Y-19057600D01*
X73167800Y-13957600D02*
X70881800Y-13957600D01*
X70881800Y-13957600D02*
X70881800Y-12687600D01*
X70881800Y-12687600D02*
X73167800Y-12687600D01*
X73167800Y-12687600D02*
X73167800Y-13957600D01*
X73167800Y-16457600D02*
X70881800Y-16457600D01*
X70881800Y-16457600D02*
X70881800Y-15187600D01*
X70881800Y-15187600D02*
X73167800Y-15187600D01*
X73167800Y-15187600D02*
X73167800Y-16457600D01*
X50157000Y-30365000D02*
X52443000Y-30365000D01*
X52443000Y-30365000D02*
X52443000Y-31635000D01*
X52443000Y-31635000D02*
X50157000Y-31635000D01*
X50157000Y-31635000D02*
X50157000Y-30365000D01*
X50157000Y-28715000D02*
X52443000Y-28715000D01*
X52443000Y-28715000D02*
X52443000Y-29985000D01*
X52443000Y-29985000D02*
X50157000Y-29985000D01*
X50157000Y-29985000D02*
X50157000Y-28715000D01*
D15*
X74862800Y-29914600D02*
X74862800Y-30930600D01*
X76386800Y-29914600D02*
X76386800Y-30956000D01*
X74989800Y-28771600D02*
G75*
G03X74989800Y-28771600I-127000J0D01*
G01*
X74862800Y-29914600D02*
X74862800Y-28898600D01*
X74862800Y-28898600D02*
X76386800Y-28898600D01*
X76386800Y-28898600D02*
X76386800Y-29914600D01*
X76386800Y-30930600D02*
X76386800Y-31946600D01*
X76386800Y-31946600D02*
X74862800Y-31946600D01*
X74862800Y-31946600D02*
X74862800Y-30930600D01*
D17*
X34740000Y-30390200D02*
X34740000Y-28104200D01*
X34740000Y-28104200D02*
X36010000Y-28104200D01*
X36010000Y-28104200D02*
X36010000Y-30390200D01*
X36010000Y-30390200D02*
X34740000Y-30390200D01*
X32340000Y-30390200D02*
X32340000Y-28104200D01*
X32340000Y-28104200D02*
X33610000Y-28104200D01*
X33610000Y-28104200D02*
X33610000Y-30390200D01*
X33610000Y-30390200D02*
X32340000Y-30390200D01*
X30390000Y-30390200D02*
X30390000Y-28104200D01*
X30390000Y-28104200D02*
X31660000Y-28104200D01*
X31660000Y-28104200D02*
X31660000Y-30390200D01*
X31660000Y-30390200D02*
X30390000Y-30390200D01*
X69881800Y-28787600D02*
X72167800Y-28787600D01*
X72167800Y-28787600D02*
X72167800Y-30057600D01*
X72167800Y-30057600D02*
X69881800Y-30057600D01*
X69881800Y-30057600D02*
X69881800Y-28787600D01*
X69881800Y-30687600D02*
X72167800Y-30687600D01*
X72167800Y-30687600D02*
X72167800Y-31957600D01*
X72167800Y-31957600D02*
X69881800Y-31957600D01*
X69881800Y-31957600D02*
X69881800Y-30687600D01*
X72167800Y-28157600D02*
X69881800Y-28157600D01*
X69881800Y-28157600D02*
X69881800Y-26887600D01*
X69881800Y-26887600D02*
X72167800Y-26887600D01*
X72167800Y-26887600D02*
X72167800Y-28157600D01*
D16*
X20700000Y-14950000D02*
X16300000Y-14950000D01*
X16300000Y-14950000D02*
X16300000Y-9450000D01*
X16300000Y-9450000D02*
X20700000Y-9450000D01*
X20700000Y-9450000D02*
X20700000Y-14950000D01*
D11*
X29250000Y250000D02*
X13750000Y250000D01*
X13750000Y750000D02*
X29250000Y750000D01*
X29250000Y-250000D02*
X13750000Y-250000D01*
X29250000Y-250000D02*
X29250000Y750000D01*
X13750000Y750000D02*
X13750000Y250000D01*
X13750000Y250000D02*
X13750000Y-250000D01*
X28750000Y-1500000D02*
X28750000Y-250000D01*
X28750000Y-7250000D02*
X28750000Y-3500000D01*
X14250000Y-1500000D02*
X14250000Y-250000D01*
X28750000Y-7250000D02*
X14250000Y-7250000D01*
X14250000Y-7250000D02*
X14250000Y-3500000D01*
D21*
X21660160Y-22520800D02*
X24200160Y-22520800D01*
X21660160Y-19980800D02*
X24200160Y-19980800D01*
D19*
X21660160Y-22520800D02*
X21660160Y-19980800D01*
X24200160Y-19980800D02*
X24200160Y-22520800D01*
D21*
X23241000Y-34594800D02*
X25781000Y-34594800D01*
X23241000Y-32054800D02*
X25781000Y-32054800D01*
D19*
X23241000Y-34594800D02*
X23241000Y-32054800D01*
X25781000Y-32054800D02*
X25781000Y-34594800D01*
D17*
X55598682Y-29480600D02*
G75*
G03X55598682Y-29480600I-279042J0D01*
G01*
X54753220Y-29160560D02*
X54753220Y-35439440D01*
X54753220Y-35439440D02*
X55060560Y-35746780D01*
X55060560Y-35746780D02*
X61339440Y-35746780D01*
X61339440Y-35746780D02*
X61646780Y-35439440D01*
X61646780Y-35439440D02*
X61646780Y-29160560D01*
X61646780Y-29160560D02*
X61339440Y-28853220D01*
X61339440Y-28853220D02*
X55060560Y-28853220D01*
X55060560Y-28853220D02*
X54753220Y-29160560D01*
D11*
X15680160Y-19650800D02*
X15680160Y-19400800D01*
X15680160Y-19400800D02*
X15930160Y-19400800D01*
D22*
X16033713Y-19400800D02*
G75*
G03X16033713Y-19400800I-353553J0D01*
G01*
D11*
X15680160Y-22900800D02*
X9180160Y-22900800D01*
X9180160Y-22900800D02*
X9180160Y-19400800D01*
X9180160Y-19400800D02*
X15680160Y-19400800D01*
X15680160Y-19400800D02*
X15680160Y-22900800D01*
X17982000Y-32663000D02*
X17982000Y-32413000D01*
X17982000Y-32413000D02*
X18232000Y-32413000D01*
D22*
X18335553Y-32413000D02*
G75*
G03X18335553Y-32413000I-353553J0D01*
G01*
D11*
X17982000Y-35913000D02*
X11482000Y-35913000D01*
X11482000Y-35913000D02*
X11482000Y-32413000D01*
X11482000Y-32413000D02*
X17982000Y-32413000D01*
X17982000Y-32413000D02*
X17982000Y-35913000D01*
D17*
X55422000Y-19133000D02*
X55295000Y-19133000D01*
X55295000Y-19133000D02*
X55295000Y-24467000D01*
X59105000Y-24467000D02*
X59105000Y-19133000D01*
X59105000Y-19133000D02*
X55422000Y-19133000D01*
X57708000Y-19133000D02*
X57708000Y-19641000D01*
X57708000Y-19641000D02*
X56692000Y-19641000D01*
X56692000Y-19641000D02*
X56692000Y-19133000D01*
X59105000Y-24467000D02*
X55295000Y-24467000D01*
D13*
X50050000Y-39513000D02*
X50050000Y-38420800D01*
X37324600Y-35779200D02*
X37324600Y-34687000D01*
X37324600Y-34687000D02*
X50050000Y-34687000D01*
X50050000Y-34687000D02*
X50050000Y-35779200D01*
X50050000Y-39513000D02*
X37350000Y-39513000D01*
X37350000Y-39513000D02*
X37350000Y-38420800D01*
D19*
X45110400Y-13665200D02*
X45110400Y-26365200D01*
X45110400Y-26365200D02*
X40030400Y-26365200D01*
X40030400Y-26365200D02*
X40030400Y-13665200D01*
X40030400Y-13665200D02*
X45110400Y-13665200D01*
D15*
X47828200Y-24053800D02*
X46812200Y-24053800D01*
X47828200Y-25577800D02*
X46786800Y-25577800D01*
X49098200Y-24053800D02*
G75*
G03X49098200Y-24053800I-127000J0D01*
G01*
X47828200Y-24053800D02*
X48844200Y-24053800D01*
X48844200Y-24053800D02*
X48844200Y-25577800D01*
X48844200Y-25577800D02*
X47828200Y-25577800D01*
X46812200Y-25577800D02*
X45796200Y-25577800D01*
X45796200Y-25577800D02*
X45796200Y-24053800D01*
X45796200Y-24053800D02*
X46812200Y-24053800D01*
X46431200Y-23317200D02*
X47447200Y-23317200D01*
X46431200Y-21793200D02*
X47472600Y-21793200D01*
X45415200Y-23317200D02*
G75*
G03X45415200Y-23317200I-127000J0D01*
G01*
X46431200Y-23317200D02*
X45415200Y-23317200D01*
X45415200Y-23317200D02*
X45415200Y-21793200D01*
X45415200Y-21793200D02*
X46431200Y-21793200D01*
X47447200Y-21793200D02*
X48463200Y-21793200D01*
X48463200Y-21793200D02*
X48463200Y-23317200D01*
X48463200Y-23317200D02*
X47447200Y-23317200D01*
D13*
X6172143Y-13627000D02*
X6208429Y-13663286D01*
X6244714Y-13772143D01*
X6244714Y-13844714D01*
X6208429Y-13953571D01*
X6135857Y-14026143D01*
X6063286Y-14062428D01*
X5918143Y-14098714D01*
X5809286Y-14098714D01*
X5664143Y-14062428D01*
X5591571Y-14026143D01*
X5519000Y-13953571D01*
X5482714Y-13844714D01*
X5482714Y-13772143D01*
X5519000Y-13663286D01*
X5555286Y-13627000D01*
X6244714Y-12901286D02*
X6244714Y-13336714D01*
X6244714Y-13119000D02*
X5482714Y-13119000D01*
X5591571Y-13191571D01*
X5664143Y-13264143D01*
X5700429Y-13336714D01*
D23*
X7253960Y-19432229D02*
X7232189Y-19456419D01*
X7166875Y-19480610D01*
X7123332Y-19480610D01*
X7058017Y-19456419D01*
X7014475Y-19408038D01*
X6992703Y-19359657D01*
X6970932Y-19262895D01*
X6970932Y-19190324D01*
X6992703Y-19093562D01*
X7014475Y-19045181D01*
X7058017Y-18996800D01*
X7123332Y-18972610D01*
X7166875Y-18972610D01*
X7232189Y-18996800D01*
X7253960Y-19020990D01*
X7428132Y-19020990D02*
X7449903Y-18996800D01*
X7493446Y-18972610D01*
X7602303Y-18972610D01*
X7645846Y-18996800D01*
X7667617Y-19020990D01*
X7689389Y-19069371D01*
X7689389Y-19117752D01*
X7667617Y-19190324D01*
X7406360Y-19480610D01*
X7689389Y-19480610D01*
D13*
X18703160Y-20522943D02*
X18666874Y-20559229D01*
X18558017Y-20595514D01*
X18485446Y-20595514D01*
X18376589Y-20559229D01*
X18304017Y-20486657D01*
X18267732Y-20414086D01*
X18231446Y-20268943D01*
X18231446Y-20160086D01*
X18267732Y-20014943D01*
X18304017Y-19942371D01*
X18376589Y-19869800D01*
X18485446Y-19833514D01*
X18558017Y-19833514D01*
X18666874Y-19869800D01*
X18703160Y-19906086D01*
X18957160Y-19833514D02*
X19428874Y-19833514D01*
X19174874Y-20123800D01*
X19283732Y-20123800D01*
X19356303Y-20160086D01*
X19392589Y-20196371D01*
X19428874Y-20268943D01*
X19428874Y-20450371D01*
X19392589Y-20522943D01*
X19356303Y-20559229D01*
X19283732Y-20595514D01*
X19066017Y-20595514D01*
X18993446Y-20559229D01*
X18957160Y-20522943D01*
D23*
X22753960Y-29132229D02*
X22732189Y-29156419D01*
X22666875Y-29180610D01*
X22623332Y-29180610D01*
X22558017Y-29156419D01*
X22514475Y-29108038D01*
X22492703Y-29059657D01*
X22470932Y-28962895D01*
X22470932Y-28890324D01*
X22492703Y-28793562D01*
X22514475Y-28745181D01*
X22558017Y-28696800D01*
X22623332Y-28672610D01*
X22666875Y-28672610D01*
X22732189Y-28696800D01*
X22753960Y-28720990D01*
X23145846Y-28841943D02*
X23145846Y-29180610D01*
X23036989Y-28648419D02*
X22928132Y-29011276D01*
X23211160Y-29011276D01*
X62723800Y-19081429D02*
X62702029Y-19105619D01*
X62636715Y-19129810D01*
X62593172Y-19129810D01*
X62527857Y-19105619D01*
X62484315Y-19057238D01*
X62462543Y-19008857D01*
X62440772Y-18912095D01*
X62440772Y-18839524D01*
X62462543Y-18742762D01*
X62484315Y-18694381D01*
X62527857Y-18646000D01*
X62593172Y-18621810D01*
X62636715Y-18621810D01*
X62702029Y-18646000D01*
X62723800Y-18670190D01*
X63137457Y-18621810D02*
X62919743Y-18621810D01*
X62897972Y-18863714D01*
X62919743Y-18839524D01*
X62963286Y-18815333D01*
X63072143Y-18815333D01*
X63115686Y-18839524D01*
X63137457Y-18863714D01*
X63159229Y-18912095D01*
X63159229Y-19033048D01*
X63137457Y-19081429D01*
X63115686Y-19105619D01*
X63072143Y-19129810D01*
X62963286Y-19129810D01*
X62919743Y-19105619D01*
X62897972Y-19081429D01*
X28017800Y-16130829D02*
X27996029Y-16155019D01*
X27930715Y-16179210D01*
X27887172Y-16179210D01*
X27821857Y-16155019D01*
X27778315Y-16106638D01*
X27756543Y-16058257D01*
X27734772Y-15961495D01*
X27734772Y-15888924D01*
X27756543Y-15792162D01*
X27778315Y-15743781D01*
X27821857Y-15695400D01*
X27887172Y-15671210D01*
X27930715Y-15671210D01*
X27996029Y-15695400D01*
X28017800Y-15719590D01*
X28409686Y-15671210D02*
X28322600Y-15671210D01*
X28279057Y-15695400D01*
X28257286Y-15719590D01*
X28213743Y-15792162D01*
X28191972Y-15888924D01*
X28191972Y-16082448D01*
X28213743Y-16130829D01*
X28235515Y-16155019D01*
X28279057Y-16179210D01*
X28366143Y-16179210D01*
X28409686Y-16155019D01*
X28431457Y-16130829D01*
X28453229Y-16082448D01*
X28453229Y-15961495D01*
X28431457Y-15913114D01*
X28409686Y-15888924D01*
X28366143Y-15864733D01*
X28279057Y-15864733D01*
X28235515Y-15888924D01*
X28213743Y-15913114D01*
X28191972Y-15961495D01*
D13*
X21059360Y-33586043D02*
X21023074Y-33622329D01*
X20914217Y-33658614D01*
X20841646Y-33658614D01*
X20732789Y-33622329D01*
X20660217Y-33549757D01*
X20623932Y-33477186D01*
X20587646Y-33332043D01*
X20587646Y-33223186D01*
X20623932Y-33078043D01*
X20660217Y-33005471D01*
X20732789Y-32932900D01*
X20841646Y-32896614D01*
X20914217Y-32896614D01*
X21023074Y-32932900D01*
X21059360Y-32969186D01*
X21313360Y-32896614D02*
X21821360Y-32896614D01*
X21494789Y-33658614D01*
D23*
X14655800Y-26470429D02*
X14634029Y-26494619D01*
X14568715Y-26518810D01*
X14525172Y-26518810D01*
X14459857Y-26494619D01*
X14416315Y-26446238D01*
X14394543Y-26397857D01*
X14372772Y-26301095D01*
X14372772Y-26228524D01*
X14394543Y-26131762D01*
X14416315Y-26083381D01*
X14459857Y-26035000D01*
X14525172Y-26010810D01*
X14568715Y-26010810D01*
X14634029Y-26035000D01*
X14655800Y-26059190D01*
X14917057Y-26228524D02*
X14873515Y-26204333D01*
X14851743Y-26180143D01*
X14829972Y-26131762D01*
X14829972Y-26107571D01*
X14851743Y-26059190D01*
X14873515Y-26035000D01*
X14917057Y-26010810D01*
X15004143Y-26010810D01*
X15047686Y-26035000D01*
X15069457Y-26059190D01*
X15091229Y-26107571D01*
X15091229Y-26131762D01*
X15069457Y-26180143D01*
X15047686Y-26204333D01*
X15004143Y-26228524D01*
X14917057Y-26228524D01*
X14873515Y-26252714D01*
X14851743Y-26276905D01*
X14829972Y-26325286D01*
X14829972Y-26422048D01*
X14851743Y-26470429D01*
X14873515Y-26494619D01*
X14917057Y-26518810D01*
X15004143Y-26518810D01*
X15047686Y-26494619D01*
X15069457Y-26470429D01*
X15091229Y-26422048D01*
X15091229Y-26325286D01*
X15069457Y-26276905D01*
X15047686Y-26252714D01*
X15004143Y-26228524D01*
X65706229Y-29298800D02*
X65730419Y-29320571D01*
X65754610Y-29385885D01*
X65754610Y-29429428D01*
X65730419Y-29494743D01*
X65682038Y-29538285D01*
X65633657Y-29560057D01*
X65536895Y-29581828D01*
X65464324Y-29581828D01*
X65367562Y-29560057D01*
X65319181Y-29538285D01*
X65270800Y-29494743D01*
X65246610Y-29429428D01*
X65246610Y-29385885D01*
X65270800Y-29320571D01*
X65294990Y-29298800D01*
X65754610Y-29081085D02*
X65754610Y-28994000D01*
X65730419Y-28950457D01*
X65706229Y-28928685D01*
X65633657Y-28885143D01*
X65536895Y-28863371D01*
X65343371Y-28863371D01*
X65294990Y-28885143D01*
X65270800Y-28906914D01*
X65246610Y-28950457D01*
X65246610Y-29037543D01*
X65270800Y-29081085D01*
X65294990Y-29102857D01*
X65343371Y-29124628D01*
X65464324Y-29124628D01*
X65512705Y-29102857D01*
X65536895Y-29081085D01*
X65561086Y-29037543D01*
X65561086Y-28950457D01*
X65536895Y-28906914D01*
X65512705Y-28885143D01*
X65464324Y-28863371D01*
X51056085Y-26831429D02*
X51034314Y-26855619D01*
X50969000Y-26879810D01*
X50925457Y-26879810D01*
X50860142Y-26855619D01*
X50816600Y-26807238D01*
X50794828Y-26758857D01*
X50773057Y-26662095D01*
X50773057Y-26589524D01*
X50794828Y-26492762D01*
X50816600Y-26444381D01*
X50860142Y-26396000D01*
X50925457Y-26371810D01*
X50969000Y-26371810D01*
X51034314Y-26396000D01*
X51056085Y-26420190D01*
X51491514Y-26879810D02*
X51230257Y-26879810D01*
X51360885Y-26879810D02*
X51360885Y-26371810D01*
X51317342Y-26444381D01*
X51273800Y-26492762D01*
X51230257Y-26516952D01*
X51774543Y-26371810D02*
X51818086Y-26371810D01*
X51861629Y-26396000D01*
X51883400Y-26420190D01*
X51905171Y-26468571D01*
X51926943Y-26565333D01*
X51926943Y-26686286D01*
X51905171Y-26783048D01*
X51883400Y-26831429D01*
X51861629Y-26855619D01*
X51818086Y-26879810D01*
X51774543Y-26879810D01*
X51731000Y-26855619D01*
X51709229Y-26831429D01*
X51687457Y-26783048D01*
X51665686Y-26686286D01*
X51665686Y-26565333D01*
X51687457Y-26468571D01*
X51709229Y-26420190D01*
X51731000Y-26396000D01*
X51774543Y-26371810D01*
X43089285Y-32490229D02*
X43067514Y-32514419D01*
X43002200Y-32538610D01*
X42958657Y-32538610D01*
X42893342Y-32514419D01*
X42849800Y-32466038D01*
X42828028Y-32417657D01*
X42806257Y-32320895D01*
X42806257Y-32248324D01*
X42828028Y-32151562D01*
X42849800Y-32103181D01*
X42893342Y-32054800D01*
X42958657Y-32030610D01*
X43002200Y-32030610D01*
X43067514Y-32054800D01*
X43089285Y-32078990D01*
X43524714Y-32538610D02*
X43263457Y-32538610D01*
X43394085Y-32538610D02*
X43394085Y-32030610D01*
X43350542Y-32103181D01*
X43307000Y-32151562D01*
X43263457Y-32175752D01*
X43960143Y-32538610D02*
X43698886Y-32538610D01*
X43829514Y-32538610D02*
X43829514Y-32030610D01*
X43785971Y-32103181D01*
X43742429Y-32151562D01*
X43698886Y-32175752D01*
X47331085Y-32464829D02*
X47309314Y-32489019D01*
X47244000Y-32513210D01*
X47200457Y-32513210D01*
X47135142Y-32489019D01*
X47091600Y-32440638D01*
X47069828Y-32392257D01*
X47048057Y-32295495D01*
X47048057Y-32222924D01*
X47069828Y-32126162D01*
X47091600Y-32077781D01*
X47135142Y-32029400D01*
X47200457Y-32005210D01*
X47244000Y-32005210D01*
X47309314Y-32029400D01*
X47331085Y-32053590D01*
X47766514Y-32513210D02*
X47505257Y-32513210D01*
X47635885Y-32513210D02*
X47635885Y-32005210D01*
X47592342Y-32077781D01*
X47548800Y-32126162D01*
X47505257Y-32150352D01*
X47940686Y-32053590D02*
X47962457Y-32029400D01*
X48006000Y-32005210D01*
X48114857Y-32005210D01*
X48158400Y-32029400D01*
X48180171Y-32053590D01*
X48201943Y-32101971D01*
X48201943Y-32150352D01*
X48180171Y-32222924D01*
X47918914Y-32513210D01*
X48201943Y-32513210D01*
X51506085Y-32681429D02*
X51484314Y-32705619D01*
X51419000Y-32729810D01*
X51375457Y-32729810D01*
X51310142Y-32705619D01*
X51266600Y-32657238D01*
X51244828Y-32608857D01*
X51223057Y-32512095D01*
X51223057Y-32439524D01*
X51244828Y-32342762D01*
X51266600Y-32294381D01*
X51310142Y-32246000D01*
X51375457Y-32221810D01*
X51419000Y-32221810D01*
X51484314Y-32246000D01*
X51506085Y-32270190D01*
X51941514Y-32729810D02*
X51680257Y-32729810D01*
X51810885Y-32729810D02*
X51810885Y-32221810D01*
X51767342Y-32294381D01*
X51723800Y-32342762D01*
X51680257Y-32366952D01*
X52093914Y-32221810D02*
X52376943Y-32221810D01*
X52224543Y-32415333D01*
X52289857Y-32415333D01*
X52333400Y-32439524D01*
X52355171Y-32463714D01*
X52376943Y-32512095D01*
X52376943Y-32633048D01*
X52355171Y-32681429D01*
X52333400Y-32705619D01*
X52289857Y-32729810D01*
X52159229Y-32729810D01*
X52115686Y-32705619D01*
X52093914Y-32681429D01*
X57064729Y-26201915D02*
X57088919Y-26223686D01*
X57113110Y-26289000D01*
X57113110Y-26332543D01*
X57088919Y-26397858D01*
X57040538Y-26441400D01*
X56992157Y-26463172D01*
X56895395Y-26484943D01*
X56822824Y-26484943D01*
X56726062Y-26463172D01*
X56677681Y-26441400D01*
X56629300Y-26397858D01*
X56605110Y-26332543D01*
X56605110Y-26289000D01*
X56629300Y-26223686D01*
X56653490Y-26201915D01*
X57113110Y-25766486D02*
X57113110Y-26027743D01*
X57113110Y-25897115D02*
X56605110Y-25897115D01*
X56677681Y-25940658D01*
X56726062Y-25984200D01*
X56750252Y-26027743D01*
X56774443Y-25374600D02*
X57113110Y-25374600D01*
X56580919Y-25483457D02*
X56943776Y-25592314D01*
X56943776Y-25309286D01*
X72530885Y-23104029D02*
X72509114Y-23128219D01*
X72443800Y-23152410D01*
X72400257Y-23152410D01*
X72334942Y-23128219D01*
X72291400Y-23079838D01*
X72269628Y-23031457D01*
X72247857Y-22934695D01*
X72247857Y-22862124D01*
X72269628Y-22765362D01*
X72291400Y-22716981D01*
X72334942Y-22668600D01*
X72400257Y-22644410D01*
X72443800Y-22644410D01*
X72509114Y-22668600D01*
X72530885Y-22692790D01*
X72966314Y-23152410D02*
X72705057Y-23152410D01*
X72835685Y-23152410D02*
X72835685Y-22644410D01*
X72792142Y-22716981D01*
X72748600Y-22765362D01*
X72705057Y-22789552D01*
X73379971Y-22644410D02*
X73162257Y-22644410D01*
X73140486Y-22886314D01*
X73162257Y-22862124D01*
X73205800Y-22837933D01*
X73314657Y-22837933D01*
X73358200Y-22862124D01*
X73379971Y-22886314D01*
X73401743Y-22934695D01*
X73401743Y-23055648D01*
X73379971Y-23104029D01*
X73358200Y-23128219D01*
X73314657Y-23152410D01*
X73205800Y-23152410D01*
X73162257Y-23128219D01*
X73140486Y-23104029D01*
D13*
X26254528Y-8421914D02*
X26254528Y-7659914D01*
X26454100Y-7659914D01*
X26573843Y-7696200D01*
X26653671Y-7768771D01*
X26693586Y-7841343D01*
X26733500Y-7986486D01*
X26733500Y-8095343D01*
X26693586Y-8240486D01*
X26653671Y-8313057D01*
X26573843Y-8385629D01*
X26454100Y-8421914D01*
X26254528Y-8421914D01*
X27531786Y-8421914D02*
X27052814Y-8421914D01*
X27292300Y-8421914D02*
X27292300Y-7659914D01*
X27212471Y-7768771D01*
X27132643Y-7841343D01*
X27052814Y-7877629D01*
X52937572Y-13444714D02*
X52937572Y-12682714D01*
X53119000Y-12682714D01*
X53227857Y-12719000D01*
X53300429Y-12791571D01*
X53336714Y-12864143D01*
X53373000Y-13009286D01*
X53373000Y-13118143D01*
X53336714Y-13263286D01*
X53300429Y-13335857D01*
X53227857Y-13408429D01*
X53119000Y-13444714D01*
X52937572Y-13444714D01*
X53663286Y-12755286D02*
X53699572Y-12719000D01*
X53772143Y-12682714D01*
X53953572Y-12682714D01*
X54026143Y-12719000D01*
X54062429Y-12755286D01*
X54098714Y-12827857D01*
X54098714Y-12900429D01*
X54062429Y-13009286D01*
X53627000Y-13444714D01*
X54098714Y-13444714D01*
X60437572Y-18944714D02*
X60437572Y-18182714D01*
X60619000Y-18182714D01*
X60727857Y-18219000D01*
X60800429Y-18291571D01*
X60836714Y-18364143D01*
X60873000Y-18509286D01*
X60873000Y-18618143D01*
X60836714Y-18763286D01*
X60800429Y-18835857D01*
X60727857Y-18908429D01*
X60619000Y-18944714D01*
X60437572Y-18944714D01*
X61127000Y-18182714D02*
X61598714Y-18182714D01*
X61344714Y-18473000D01*
X61453572Y-18473000D01*
X61526143Y-18509286D01*
X61562429Y-18545571D01*
X61598714Y-18618143D01*
X61598714Y-18799571D01*
X61562429Y-18872143D01*
X61526143Y-18908429D01*
X61453572Y-18944714D01*
X61235857Y-18944714D01*
X61163286Y-18908429D01*
X61127000Y-18872143D01*
X50137572Y-16344714D02*
X50137572Y-15582714D01*
X50319000Y-15582714D01*
X50427857Y-15619000D01*
X50500429Y-15691571D01*
X50536714Y-15764143D01*
X50573000Y-15909286D01*
X50573000Y-16018143D01*
X50536714Y-16163286D01*
X50500429Y-16235857D01*
X50427857Y-16308429D01*
X50319000Y-16344714D01*
X50137572Y-16344714D01*
X51226143Y-15836714D02*
X51226143Y-16344714D01*
X51044714Y-15546429D02*
X50863286Y-16090714D01*
X51335000Y-16090714D01*
X65496001Y-11082714D02*
X65496001Y-11627000D01*
X65459715Y-11735857D01*
X65387144Y-11808429D01*
X65278287Y-11844714D01*
X65205715Y-11844714D01*
X66258000Y-11844714D02*
X65822572Y-11844714D01*
X66040286Y-11844714D02*
X66040286Y-11082714D01*
X65967715Y-11191571D01*
X65895143Y-11264143D01*
X65822572Y-11300429D01*
X29996001Y-11082714D02*
X29996001Y-11627000D01*
X29959715Y-11735857D01*
X29887144Y-11808429D01*
X29778287Y-11844714D01*
X29705715Y-11844714D01*
X30322572Y-11155286D02*
X30358858Y-11119000D01*
X30431429Y-11082714D01*
X30612858Y-11082714D01*
X30685429Y-11119000D01*
X30721715Y-11155286D01*
X30758000Y-11227857D01*
X30758000Y-11300429D01*
X30721715Y-11409286D01*
X30286286Y-11844714D01*
X30758000Y-11844714D01*
X75062372Y-20567314D02*
X75062372Y-19805314D01*
X75352657Y-19805314D01*
X75425229Y-19841600D01*
X75461514Y-19877886D01*
X75497800Y-19950457D01*
X75497800Y-20059314D01*
X75461514Y-20131886D01*
X75425229Y-20168171D01*
X75352657Y-20204457D01*
X75062372Y-20204457D01*
X76223514Y-20567314D02*
X75788086Y-20567314D01*
X76005800Y-20567314D02*
X76005800Y-19805314D01*
X75933229Y-19914171D01*
X75860657Y-19986743D01*
X75788086Y-20023029D01*
X69962372Y-39367314D02*
X69962372Y-38605314D01*
X70252657Y-38605314D01*
X70325229Y-38641600D01*
X70361514Y-38677886D01*
X70397800Y-38750457D01*
X70397800Y-38859314D01*
X70361514Y-38931886D01*
X70325229Y-38968171D01*
X70252657Y-39004457D01*
X69962372Y-39004457D01*
X70651800Y-38605314D02*
X71123514Y-38605314D01*
X70869514Y-38895600D01*
X70978372Y-38895600D01*
X71050943Y-38931886D01*
X71087229Y-38968171D01*
X71123514Y-39040743D01*
X71123514Y-39222171D01*
X71087229Y-39294743D01*
X71050943Y-39331029D01*
X70978372Y-39367314D01*
X70760657Y-39367314D01*
X70688086Y-39331029D01*
X70651800Y-39294743D01*
X75162372Y-27467314D02*
X75162372Y-26705314D01*
X75452657Y-26705314D01*
X75525229Y-26741600D01*
X75561514Y-26777886D01*
X75597800Y-26850457D01*
X75597800Y-26959314D01*
X75561514Y-27031886D01*
X75525229Y-27068171D01*
X75452657Y-27104457D01*
X75162372Y-27104457D01*
X76250943Y-26959314D02*
X76250943Y-27467314D01*
X76069514Y-26669029D02*
X75888086Y-27213314D01*
X76359800Y-27213314D01*
X35127429Y-14017286D02*
X35054857Y-13981000D01*
X34982286Y-13908429D01*
X34873429Y-13799571D01*
X34800857Y-13763286D01*
X34728286Y-13763286D01*
X34764571Y-13944714D02*
X34692000Y-13908429D01*
X34619429Y-13835857D01*
X34583143Y-13690714D01*
X34583143Y-13436714D01*
X34619429Y-13291571D01*
X34692000Y-13219000D01*
X34764571Y-13182714D01*
X34909714Y-13182714D01*
X34982286Y-13219000D01*
X35054857Y-13291571D01*
X35091143Y-13436714D01*
X35091143Y-13690714D01*
X35054857Y-13835857D01*
X34982286Y-13908429D01*
X34909714Y-13944714D01*
X34764571Y-13944714D01*
X35816857Y-13944714D02*
X35381429Y-13944714D01*
X35599143Y-13944714D02*
X35599143Y-13182714D01*
X35526572Y-13291571D01*
X35454000Y-13364143D01*
X35381429Y-13400429D01*
X38217929Y-19772086D02*
X38145357Y-19735800D01*
X38072786Y-19663229D01*
X37963929Y-19554371D01*
X37891357Y-19518086D01*
X37818786Y-19518086D01*
X37855071Y-19699514D02*
X37782500Y-19663229D01*
X37709929Y-19590657D01*
X37673643Y-19445514D01*
X37673643Y-19191514D01*
X37709929Y-19046371D01*
X37782500Y-18973800D01*
X37855071Y-18937514D01*
X38000214Y-18937514D01*
X38072786Y-18973800D01*
X38145357Y-19046371D01*
X38181643Y-19191514D01*
X38181643Y-19445514D01*
X38145357Y-19590657D01*
X38072786Y-19663229D01*
X38000214Y-19699514D01*
X37855071Y-19699514D01*
X38471929Y-19010086D02*
X38508215Y-18973800D01*
X38580786Y-18937514D01*
X38762215Y-18937514D01*
X38834786Y-18973800D01*
X38871072Y-19010086D01*
X38907357Y-19082657D01*
X38907357Y-19155229D01*
X38871072Y-19264086D01*
X38435643Y-19699514D01*
X38907357Y-19699514D01*
D23*
X33664810Y-18410200D02*
X33422905Y-18562600D01*
X33664810Y-18671457D02*
X33156810Y-18671457D01*
X33156810Y-18497285D01*
X33181000Y-18453743D01*
X33205190Y-18431971D01*
X33253571Y-18410200D01*
X33326143Y-18410200D01*
X33374524Y-18431971D01*
X33398714Y-18453743D01*
X33422905Y-18497285D01*
X33422905Y-18671457D01*
X33664810Y-17974771D02*
X33664810Y-18236028D01*
X33664810Y-18105400D02*
X33156810Y-18105400D01*
X33229381Y-18148943D01*
X33277762Y-18192485D01*
X33301952Y-18236028D01*
X37847030Y-25256160D02*
X37605125Y-25408560D01*
X37847030Y-25517417D02*
X37339030Y-25517417D01*
X37339030Y-25343245D01*
X37363220Y-25299703D01*
X37387410Y-25277931D01*
X37435791Y-25256160D01*
X37508363Y-25256160D01*
X37556744Y-25277931D01*
X37580934Y-25299703D01*
X37605125Y-25343245D01*
X37605125Y-25517417D01*
X37387410Y-25081988D02*
X37363220Y-25060217D01*
X37339030Y-25016674D01*
X37339030Y-24907817D01*
X37363220Y-24864274D01*
X37387410Y-24842503D01*
X37435791Y-24820731D01*
X37484172Y-24820731D01*
X37556744Y-24842503D01*
X37847030Y-25103760D01*
X37847030Y-24820731D01*
D24*
X30142604Y-16863362D02*
X29975810Y-16625086D01*
X29856672Y-16863362D02*
X29856672Y-16362982D01*
X30047293Y-16362982D01*
X30094948Y-16386810D01*
X30118776Y-16410638D01*
X30142604Y-16458293D01*
X30142604Y-16529776D01*
X30118776Y-16577431D01*
X30094948Y-16601259D01*
X30047293Y-16625086D01*
X29856672Y-16625086D01*
X30309397Y-16362982D02*
X30619156Y-16362982D01*
X30452363Y-16553603D01*
X30523845Y-16553603D01*
X30571501Y-16577431D01*
X30595328Y-16601259D01*
X30619156Y-16648914D01*
X30619156Y-16768052D01*
X30595328Y-16815707D01*
X30571501Y-16839535D01*
X30523845Y-16863362D01*
X30380880Y-16863362D01*
X30333224Y-16839535D01*
X30309397Y-16815707D01*
X36916604Y-16826362D02*
X36749810Y-16588086D01*
X36630672Y-16826362D02*
X36630672Y-16325982D01*
X36821293Y-16325982D01*
X36868948Y-16349810D01*
X36892776Y-16373638D01*
X36916604Y-16421293D01*
X36916604Y-16492776D01*
X36892776Y-16540431D01*
X36868948Y-16564259D01*
X36821293Y-16588086D01*
X36630672Y-16588086D01*
X37345501Y-16492776D02*
X37345501Y-16826362D01*
X37226363Y-16302155D02*
X37107224Y-16659569D01*
X37416984Y-16659569D01*
X48841404Y-15348962D02*
X48674610Y-15110686D01*
X48555472Y-15348962D02*
X48555472Y-14848582D01*
X48746093Y-14848582D01*
X48793748Y-14872410D01*
X48817576Y-14896238D01*
X48841404Y-14943893D01*
X48841404Y-15015376D01*
X48817576Y-15063031D01*
X48793748Y-15086859D01*
X48746093Y-15110686D01*
X48555472Y-15110686D01*
X49294128Y-14848582D02*
X49055852Y-14848582D01*
X49032024Y-15086859D01*
X49055852Y-15063031D01*
X49103507Y-15039203D01*
X49222645Y-15039203D01*
X49270301Y-15063031D01*
X49294128Y-15086859D01*
X49317956Y-15134514D01*
X49317956Y-15253652D01*
X49294128Y-15301307D01*
X49270301Y-15325135D01*
X49222645Y-15348962D01*
X49103507Y-15348962D01*
X49055852Y-15325135D01*
X49032024Y-15301307D01*
X63842004Y-15847162D02*
X63675210Y-15608886D01*
X63556072Y-15847162D02*
X63556072Y-15346782D01*
X63746693Y-15346782D01*
X63794348Y-15370610D01*
X63818176Y-15394438D01*
X63842004Y-15442093D01*
X63842004Y-15513576D01*
X63818176Y-15561231D01*
X63794348Y-15585059D01*
X63746693Y-15608886D01*
X63556072Y-15608886D01*
X64270901Y-15346782D02*
X64175590Y-15346782D01*
X64127935Y-15370610D01*
X64104107Y-15394438D01*
X64056452Y-15465920D01*
X64032624Y-15561231D01*
X64032624Y-15751852D01*
X64056452Y-15799507D01*
X64080280Y-15823335D01*
X64127935Y-15847162D01*
X64223245Y-15847162D01*
X64270901Y-15823335D01*
X64294728Y-15799507D01*
X64318556Y-15751852D01*
X64318556Y-15632714D01*
X64294728Y-15585059D01*
X64270901Y-15561231D01*
X64223245Y-15537403D01*
X64127935Y-15537403D01*
X64080280Y-15561231D01*
X64056452Y-15585059D01*
X64032624Y-15632714D01*
X59726362Y-16883396D02*
X59488086Y-17050190D01*
X59726362Y-17169328D02*
X59225982Y-17169328D01*
X59225982Y-16978707D01*
X59249810Y-16931052D01*
X59273638Y-16907224D01*
X59321293Y-16883396D01*
X59392776Y-16883396D01*
X59440431Y-16907224D01*
X59464259Y-16931052D01*
X59488086Y-16978707D01*
X59488086Y-17169328D01*
X59225982Y-16716603D02*
X59225982Y-16383016D01*
X59726362Y-16597465D01*
X55226362Y-16883396D02*
X54988086Y-17050190D01*
X55226362Y-17169328D02*
X54725982Y-17169328D01*
X54725982Y-16978707D01*
X54749810Y-16931052D01*
X54773638Y-16907224D01*
X54821293Y-16883396D01*
X54892776Y-16883396D01*
X54940431Y-16907224D01*
X54964259Y-16931052D01*
X54988086Y-16978707D01*
X54988086Y-17169328D01*
X54940431Y-16597465D02*
X54916603Y-16645120D01*
X54892776Y-16668948D01*
X54845120Y-16692776D01*
X54821293Y-16692776D01*
X54773638Y-16668948D01*
X54749810Y-16645120D01*
X54725982Y-16597465D01*
X54725982Y-16502155D01*
X54749810Y-16454499D01*
X54773638Y-16430672D01*
X54821293Y-16406844D01*
X54845120Y-16406844D01*
X54892776Y-16430672D01*
X54916603Y-16454499D01*
X54940431Y-16502155D01*
X54940431Y-16597465D01*
X54964259Y-16645120D01*
X54988086Y-16668948D01*
X55035741Y-16692776D01*
X55131052Y-16692776D01*
X55178707Y-16668948D01*
X55202535Y-16645120D01*
X55226362Y-16597465D01*
X55226362Y-16502155D01*
X55202535Y-16454499D01*
X55178707Y-16430672D01*
X55131052Y-16406844D01*
X55035741Y-16406844D01*
X54988086Y-16430672D01*
X54964259Y-16454499D01*
X54940431Y-16502155D01*
D23*
X63423800Y-16629810D02*
X63271400Y-16387905D01*
X63162543Y-16629810D02*
X63162543Y-16121810D01*
X63336715Y-16121810D01*
X63380257Y-16146000D01*
X63402029Y-16170190D01*
X63423800Y-16218571D01*
X63423800Y-16291143D01*
X63402029Y-16339524D01*
X63380257Y-16363714D01*
X63336715Y-16387905D01*
X63162543Y-16387905D01*
X63641515Y-16629810D02*
X63728600Y-16629810D01*
X63772143Y-16605619D01*
X63793915Y-16581429D01*
X63837457Y-16508857D01*
X63859229Y-16412095D01*
X63859229Y-16218571D01*
X63837457Y-16170190D01*
X63815686Y-16146000D01*
X63772143Y-16121810D01*
X63685057Y-16121810D01*
X63641515Y-16146000D01*
X63619743Y-16170190D01*
X63597972Y-16218571D01*
X63597972Y-16339524D01*
X63619743Y-16387905D01*
X63641515Y-16412095D01*
X63685057Y-16436286D01*
X63772143Y-16436286D01*
X63815686Y-16412095D01*
X63837457Y-16387905D01*
X63859229Y-16339524D01*
X47206085Y-16229810D02*
X47053685Y-15987905D01*
X46944828Y-16229810D02*
X46944828Y-15721810D01*
X47119000Y-15721810D01*
X47162542Y-15746000D01*
X47184314Y-15770190D01*
X47206085Y-15818571D01*
X47206085Y-15891143D01*
X47184314Y-15939524D01*
X47162542Y-15963714D01*
X47119000Y-15987905D01*
X46944828Y-15987905D01*
X47641514Y-16229810D02*
X47380257Y-16229810D01*
X47510885Y-16229810D02*
X47510885Y-15721810D01*
X47467342Y-15794381D01*
X47423800Y-15842762D01*
X47380257Y-15866952D01*
X47924543Y-15721810D02*
X47968086Y-15721810D01*
X48011629Y-15746000D01*
X48033400Y-15770190D01*
X48055171Y-15818571D01*
X48076943Y-15915333D01*
X48076943Y-16036286D01*
X48055171Y-16133048D01*
X48033400Y-16181429D01*
X48011629Y-16205619D01*
X47968086Y-16229810D01*
X47924543Y-16229810D01*
X47881000Y-16205619D01*
X47859229Y-16181429D01*
X47837457Y-16133048D01*
X47815686Y-16036286D01*
X47815686Y-15915333D01*
X47837457Y-15818571D01*
X47859229Y-15770190D01*
X47881000Y-15746000D01*
X47924543Y-15721810D01*
D24*
X23608488Y-23377162D02*
X23441694Y-23138886D01*
X23322556Y-23377162D02*
X23322556Y-22876782D01*
X23513177Y-22876782D01*
X23560832Y-22900610D01*
X23584660Y-22924438D01*
X23608488Y-22972093D01*
X23608488Y-23043576D01*
X23584660Y-23091231D01*
X23560832Y-23115059D01*
X23513177Y-23138886D01*
X23322556Y-23138886D01*
X24085040Y-23377162D02*
X23799108Y-23377162D01*
X23942074Y-23377162D02*
X23942074Y-22876782D01*
X23894419Y-22948265D01*
X23846764Y-22995920D01*
X23799108Y-23019748D01*
X24561592Y-23377162D02*
X24275660Y-23377162D01*
X24418626Y-23377162D02*
X24418626Y-22876782D01*
X24370971Y-22948265D01*
X24323316Y-22995920D01*
X24275660Y-23019748D01*
X59378328Y-13326362D02*
X59211534Y-13088086D01*
X59092396Y-13326362D02*
X59092396Y-12825982D01*
X59283017Y-12825982D01*
X59330672Y-12849810D01*
X59354500Y-12873638D01*
X59378328Y-12921293D01*
X59378328Y-12992776D01*
X59354500Y-13040431D01*
X59330672Y-13064259D01*
X59283017Y-13088086D01*
X59092396Y-13088086D01*
X59854880Y-13326362D02*
X59568948Y-13326362D01*
X59711914Y-13326362D02*
X59711914Y-12825982D01*
X59664259Y-12897465D01*
X59616604Y-12945120D01*
X59568948Y-12968948D01*
X60045500Y-12873638D02*
X60069328Y-12849810D01*
X60116983Y-12825982D01*
X60236121Y-12825982D01*
X60283777Y-12849810D01*
X60307604Y-12873638D01*
X60331432Y-12921293D01*
X60331432Y-12968948D01*
X60307604Y-13040431D01*
X60021673Y-13326362D01*
X60331432Y-13326362D01*
D23*
X53493610Y-22536315D02*
X53251705Y-22688715D01*
X53493610Y-22797572D02*
X52985610Y-22797572D01*
X52985610Y-22623400D01*
X53009800Y-22579858D01*
X53033990Y-22558086D01*
X53082371Y-22536315D01*
X53154943Y-22536315D01*
X53203324Y-22558086D01*
X53227514Y-22579858D01*
X53251705Y-22623400D01*
X53251705Y-22797572D01*
X53493610Y-22100886D02*
X53493610Y-22362143D01*
X53493610Y-22231515D02*
X52985610Y-22231515D01*
X53058181Y-22275058D01*
X53106562Y-22318600D01*
X53130752Y-22362143D01*
X52985610Y-21948486D02*
X52985610Y-21665457D01*
X53179133Y-21817857D01*
X53179133Y-21752543D01*
X53203324Y-21709000D01*
X53227514Y-21687229D01*
X53275895Y-21665457D01*
X53396848Y-21665457D01*
X53445229Y-21687229D01*
X53469419Y-21709000D01*
X53493610Y-21752543D01*
X53493610Y-21883171D01*
X53469419Y-21926714D01*
X53445229Y-21948486D01*
X53468210Y-20377315D02*
X53226305Y-20529715D01*
X53468210Y-20638572D02*
X52960210Y-20638572D01*
X52960210Y-20464400D01*
X52984400Y-20420858D01*
X53008590Y-20399086D01*
X53056971Y-20377315D01*
X53129543Y-20377315D01*
X53177924Y-20399086D01*
X53202114Y-20420858D01*
X53226305Y-20464400D01*
X53226305Y-20638572D01*
X53468210Y-19941886D02*
X53468210Y-20203143D01*
X53468210Y-20072515D02*
X52960210Y-20072515D01*
X53032781Y-20116058D01*
X53081162Y-20159600D01*
X53105352Y-20203143D01*
X53129543Y-19550000D02*
X53468210Y-19550000D01*
X52936019Y-19658857D02*
X53298876Y-19767714D01*
X53298876Y-19484686D01*
X53519010Y-24771515D02*
X53277105Y-24923915D01*
X53519010Y-25032772D02*
X53011010Y-25032772D01*
X53011010Y-24858600D01*
X53035200Y-24815058D01*
X53059390Y-24793286D01*
X53107771Y-24771515D01*
X53180343Y-24771515D01*
X53228724Y-24793286D01*
X53252914Y-24815058D01*
X53277105Y-24858600D01*
X53277105Y-25032772D01*
X53519010Y-24336086D02*
X53519010Y-24597343D01*
X53519010Y-24466715D02*
X53011010Y-24466715D01*
X53083581Y-24510258D01*
X53131962Y-24553800D01*
X53156152Y-24597343D01*
X53011010Y-23922429D02*
X53011010Y-24140143D01*
X53252914Y-24161914D01*
X53228724Y-24140143D01*
X53204533Y-24096600D01*
X53204533Y-23987743D01*
X53228724Y-23944200D01*
X53252914Y-23922429D01*
X53301295Y-23900657D01*
X53422248Y-23900657D01*
X53470629Y-23922429D01*
X53494819Y-23944200D01*
X53519010Y-23987743D01*
X53519010Y-24096600D01*
X53494819Y-24140143D01*
X53470629Y-24161914D01*
D24*
X25196328Y-36351362D02*
X25029534Y-36113086D01*
X24910396Y-36351362D02*
X24910396Y-35850982D01*
X25101017Y-35850982D01*
X25148672Y-35874810D01*
X25172500Y-35898638D01*
X25196328Y-35946293D01*
X25196328Y-36017776D01*
X25172500Y-36065431D01*
X25148672Y-36089259D01*
X25101017Y-36113086D01*
X24910396Y-36113086D01*
X25672880Y-36351362D02*
X25386948Y-36351362D01*
X25529914Y-36351362D02*
X25529914Y-35850982D01*
X25482259Y-35922465D01*
X25434604Y-35970120D01*
X25386948Y-35993948D01*
X26101777Y-35850982D02*
X26006466Y-35850982D01*
X25958811Y-35874810D01*
X25934983Y-35898638D01*
X25887328Y-35970120D01*
X25863500Y-36065431D01*
X25863500Y-36256052D01*
X25887328Y-36303707D01*
X25911156Y-36327535D01*
X25958811Y-36351362D01*
X26054121Y-36351362D01*
X26101777Y-36327535D01*
X26125604Y-36303707D01*
X26149432Y-36256052D01*
X26149432Y-36136914D01*
X26125604Y-36089259D01*
X26101777Y-36065431D01*
X26054121Y-36041603D01*
X25958811Y-36041603D01*
X25911156Y-36065431D01*
X25887328Y-36089259D01*
X25863500Y-36136914D01*
D23*
X71730885Y-17552410D02*
X71578485Y-17310505D01*
X71469628Y-17552410D02*
X71469628Y-17044410D01*
X71643800Y-17044410D01*
X71687342Y-17068600D01*
X71709114Y-17092790D01*
X71730885Y-17141171D01*
X71730885Y-17213743D01*
X71709114Y-17262124D01*
X71687342Y-17286314D01*
X71643800Y-17310505D01*
X71469628Y-17310505D01*
X72166314Y-17552410D02*
X71905057Y-17552410D01*
X72035685Y-17552410D02*
X72035685Y-17044410D01*
X71992142Y-17116981D01*
X71948600Y-17165362D01*
X71905057Y-17189552D01*
X72318714Y-17044410D02*
X72623514Y-17044410D01*
X72427571Y-17552410D01*
X71730885Y-12452410D02*
X71578485Y-12210505D01*
X71469628Y-12452410D02*
X71469628Y-11944410D01*
X71643800Y-11944410D01*
X71687342Y-11968600D01*
X71709114Y-11992790D01*
X71730885Y-12041171D01*
X71730885Y-12113743D01*
X71709114Y-12162124D01*
X71687342Y-12186314D01*
X71643800Y-12210505D01*
X71469628Y-12210505D01*
X72166314Y-12452410D02*
X71905057Y-12452410D01*
X72035685Y-12452410D02*
X72035685Y-11944410D01*
X71992142Y-12016981D01*
X71948600Y-12065362D01*
X71905057Y-12089552D01*
X72427571Y-12162124D02*
X72384029Y-12137933D01*
X72362257Y-12113743D01*
X72340486Y-12065362D01*
X72340486Y-12041171D01*
X72362257Y-11992790D01*
X72384029Y-11968600D01*
X72427571Y-11944410D01*
X72514657Y-11944410D01*
X72558200Y-11968600D01*
X72579971Y-11992790D01*
X72601743Y-12041171D01*
X72601743Y-12065362D01*
X72579971Y-12113743D01*
X72558200Y-12137933D01*
X72514657Y-12162124D01*
X72427571Y-12162124D01*
X72384029Y-12186314D01*
X72362257Y-12210505D01*
X72340486Y-12258886D01*
X72340486Y-12355648D01*
X72362257Y-12404029D01*
X72384029Y-12428219D01*
X72427571Y-12452410D01*
X72514657Y-12452410D01*
X72558200Y-12428219D01*
X72579971Y-12404029D01*
X72601743Y-12355648D01*
X72601743Y-12258886D01*
X72579971Y-12210505D01*
X72558200Y-12186314D01*
X72514657Y-12162124D01*
X71730885Y-15052410D02*
X71578485Y-14810505D01*
X71469628Y-15052410D02*
X71469628Y-14544410D01*
X71643800Y-14544410D01*
X71687342Y-14568600D01*
X71709114Y-14592790D01*
X71730885Y-14641171D01*
X71730885Y-14713743D01*
X71709114Y-14762124D01*
X71687342Y-14786314D01*
X71643800Y-14810505D01*
X71469628Y-14810505D01*
X72166314Y-15052410D02*
X71905057Y-15052410D01*
X72035685Y-15052410D02*
X72035685Y-14544410D01*
X71992142Y-14616981D01*
X71948600Y-14665362D01*
X71905057Y-14689552D01*
X72384029Y-15052410D02*
X72471114Y-15052410D01*
X72514657Y-15028219D01*
X72536429Y-15004029D01*
X72579971Y-14931457D01*
X72601743Y-14834695D01*
X72601743Y-14641171D01*
X72579971Y-14592790D01*
X72558200Y-14568600D01*
X72514657Y-14544410D01*
X72427571Y-14544410D01*
X72384029Y-14568600D01*
X72362257Y-14592790D01*
X72340486Y-14641171D01*
X72340486Y-14762124D01*
X72362257Y-14810505D01*
X72384029Y-14834695D01*
X72427571Y-14858886D01*
X72514657Y-14858886D01*
X72558200Y-14834695D01*
X72579971Y-14810505D01*
X72601743Y-14762124D01*
X49929810Y-31243915D02*
X49687905Y-31396315D01*
X49929810Y-31505172D02*
X49421810Y-31505172D01*
X49421810Y-31331000D01*
X49446000Y-31287458D01*
X49470190Y-31265686D01*
X49518571Y-31243915D01*
X49591143Y-31243915D01*
X49639524Y-31265686D01*
X49663714Y-31287458D01*
X49687905Y-31331000D01*
X49687905Y-31505172D01*
X49470190Y-31069743D02*
X49446000Y-31047972D01*
X49421810Y-31004429D01*
X49421810Y-30895572D01*
X49446000Y-30852029D01*
X49470190Y-30830258D01*
X49518571Y-30808486D01*
X49566952Y-30808486D01*
X49639524Y-30830258D01*
X49929810Y-31091515D01*
X49929810Y-30808486D01*
X49421810Y-30525457D02*
X49421810Y-30481914D01*
X49446000Y-30438371D01*
X49470190Y-30416600D01*
X49518571Y-30394829D01*
X49615333Y-30373057D01*
X49736286Y-30373057D01*
X49833048Y-30394829D01*
X49881429Y-30416600D01*
X49905619Y-30438371D01*
X49929810Y-30481914D01*
X49929810Y-30525457D01*
X49905619Y-30569000D01*
X49881429Y-30590771D01*
X49833048Y-30612543D01*
X49736286Y-30634314D01*
X49615333Y-30634314D01*
X49518571Y-30612543D01*
X49470190Y-30590771D01*
X49446000Y-30569000D01*
X49421810Y-30525457D01*
X49929810Y-29593915D02*
X49687905Y-29746315D01*
X49929810Y-29855172D02*
X49421810Y-29855172D01*
X49421810Y-29681000D01*
X49446000Y-29637458D01*
X49470190Y-29615686D01*
X49518571Y-29593915D01*
X49591143Y-29593915D01*
X49639524Y-29615686D01*
X49663714Y-29637458D01*
X49687905Y-29681000D01*
X49687905Y-29855172D01*
X49470190Y-29419743D02*
X49446000Y-29397972D01*
X49421810Y-29354429D01*
X49421810Y-29245572D01*
X49446000Y-29202029D01*
X49470190Y-29180258D01*
X49518571Y-29158486D01*
X49566952Y-29158486D01*
X49639524Y-29180258D01*
X49929810Y-29441515D01*
X49929810Y-29158486D01*
X49929810Y-28723057D02*
X49929810Y-28984314D01*
X49929810Y-28853686D02*
X49421810Y-28853686D01*
X49494381Y-28897229D01*
X49542762Y-28940771D01*
X49566952Y-28984314D01*
D24*
X75303128Y-28648962D02*
X75136334Y-28410686D01*
X75017196Y-28648962D02*
X75017196Y-28148582D01*
X75207817Y-28148582D01*
X75255472Y-28172410D01*
X75279300Y-28196238D01*
X75303128Y-28243893D01*
X75303128Y-28315376D01*
X75279300Y-28363031D01*
X75255472Y-28386859D01*
X75207817Y-28410686D01*
X75017196Y-28410686D01*
X75493748Y-28196238D02*
X75517576Y-28172410D01*
X75565231Y-28148582D01*
X75684369Y-28148582D01*
X75732025Y-28172410D01*
X75755852Y-28196238D01*
X75779680Y-28243893D01*
X75779680Y-28291548D01*
X75755852Y-28363031D01*
X75469921Y-28648962D01*
X75779680Y-28648962D01*
X75970300Y-28196238D02*
X75994128Y-28172410D01*
X76041783Y-28148582D01*
X76160921Y-28148582D01*
X76208577Y-28172410D01*
X76232404Y-28196238D01*
X76256232Y-28243893D01*
X76256232Y-28291548D01*
X76232404Y-28363031D01*
X75946473Y-28648962D01*
X76256232Y-28648962D01*
D23*
X35056085Y-27827010D02*
X34903685Y-27585105D01*
X34794828Y-27827010D02*
X34794828Y-27319010D01*
X34969000Y-27319010D01*
X35012542Y-27343200D01*
X35034314Y-27367390D01*
X35056085Y-27415771D01*
X35056085Y-27488343D01*
X35034314Y-27536724D01*
X35012542Y-27560914D01*
X34969000Y-27585105D01*
X34794828Y-27585105D01*
X35230257Y-27367390D02*
X35252028Y-27343200D01*
X35295571Y-27319010D01*
X35404428Y-27319010D01*
X35447971Y-27343200D01*
X35469742Y-27367390D01*
X35491514Y-27415771D01*
X35491514Y-27464152D01*
X35469742Y-27536724D01*
X35208485Y-27827010D01*
X35491514Y-27827010D01*
X35643914Y-27319010D02*
X35926943Y-27319010D01*
X35774543Y-27512533D01*
X35839857Y-27512533D01*
X35883400Y-27536724D01*
X35905171Y-27560914D01*
X35926943Y-27609295D01*
X35926943Y-27730248D01*
X35905171Y-27778629D01*
X35883400Y-27802819D01*
X35839857Y-27827010D01*
X35709229Y-27827010D01*
X35665686Y-27802819D01*
X35643914Y-27778629D01*
X32631085Y-27802010D02*
X32478685Y-27560105D01*
X32369828Y-27802010D02*
X32369828Y-27294010D01*
X32544000Y-27294010D01*
X32587542Y-27318200D01*
X32609314Y-27342390D01*
X32631085Y-27390771D01*
X32631085Y-27463343D01*
X32609314Y-27511724D01*
X32587542Y-27535914D01*
X32544000Y-27560105D01*
X32369828Y-27560105D01*
X32805257Y-27342390D02*
X32827028Y-27318200D01*
X32870571Y-27294010D01*
X32979428Y-27294010D01*
X33022971Y-27318200D01*
X33044742Y-27342390D01*
X33066514Y-27390771D01*
X33066514Y-27439152D01*
X33044742Y-27511724D01*
X32783485Y-27802010D01*
X33066514Y-27802010D01*
X33458400Y-27463343D02*
X33458400Y-27802010D01*
X33349543Y-27269819D02*
X33240686Y-27632676D01*
X33523714Y-27632676D01*
X30806085Y-27827010D02*
X30653685Y-27585105D01*
X30544828Y-27827010D02*
X30544828Y-27319010D01*
X30719000Y-27319010D01*
X30762542Y-27343200D01*
X30784314Y-27367390D01*
X30806085Y-27415771D01*
X30806085Y-27488343D01*
X30784314Y-27536724D01*
X30762542Y-27560914D01*
X30719000Y-27585105D01*
X30544828Y-27585105D01*
X30980257Y-27367390D02*
X31002028Y-27343200D01*
X31045571Y-27319010D01*
X31154428Y-27319010D01*
X31197971Y-27343200D01*
X31219742Y-27367390D01*
X31241514Y-27415771D01*
X31241514Y-27464152D01*
X31219742Y-27536724D01*
X30958485Y-27827010D01*
X31241514Y-27827010D01*
X31655171Y-27319010D02*
X31437457Y-27319010D01*
X31415686Y-27560914D01*
X31437457Y-27536724D01*
X31481000Y-27512533D01*
X31589857Y-27512533D01*
X31633400Y-27536724D01*
X31655171Y-27560914D01*
X31676943Y-27609295D01*
X31676943Y-27730248D01*
X31655171Y-27778629D01*
X31633400Y-27802819D01*
X31589857Y-27827010D01*
X31481000Y-27827010D01*
X31437457Y-27802819D01*
X31415686Y-27778629D01*
X69454610Y-29716515D02*
X69212705Y-29868915D01*
X69454610Y-29977772D02*
X68946610Y-29977772D01*
X68946610Y-29803600D01*
X68970800Y-29760058D01*
X68994990Y-29738286D01*
X69043371Y-29716515D01*
X69115943Y-29716515D01*
X69164324Y-29738286D01*
X69188514Y-29760058D01*
X69212705Y-29803600D01*
X69212705Y-29977772D01*
X68994990Y-29542343D02*
X68970800Y-29520572D01*
X68946610Y-29477029D01*
X68946610Y-29368172D01*
X68970800Y-29324629D01*
X68994990Y-29302858D01*
X69043371Y-29281086D01*
X69091752Y-29281086D01*
X69164324Y-29302858D01*
X69454610Y-29564115D01*
X69454610Y-29281086D01*
X68946610Y-28889200D02*
X68946610Y-28976286D01*
X68970800Y-29019829D01*
X68994990Y-29041600D01*
X69067562Y-29085143D01*
X69164324Y-29106914D01*
X69357848Y-29106914D01*
X69406229Y-29085143D01*
X69430419Y-29063371D01*
X69454610Y-29019829D01*
X69454610Y-28932743D01*
X69430419Y-28889200D01*
X69406229Y-28867429D01*
X69357848Y-28845657D01*
X69236895Y-28845657D01*
X69188514Y-28867429D01*
X69164324Y-28889200D01*
X69140133Y-28932743D01*
X69140133Y-29019829D01*
X69164324Y-29063371D01*
X69188514Y-29085143D01*
X69236895Y-29106914D01*
X70730885Y-32752410D02*
X70578485Y-32510505D01*
X70469628Y-32752410D02*
X70469628Y-32244410D01*
X70643800Y-32244410D01*
X70687342Y-32268600D01*
X70709114Y-32292790D01*
X70730885Y-32341171D01*
X70730885Y-32413743D01*
X70709114Y-32462124D01*
X70687342Y-32486314D01*
X70643800Y-32510505D01*
X70469628Y-32510505D01*
X70905057Y-32292790D02*
X70926828Y-32268600D01*
X70970371Y-32244410D01*
X71079228Y-32244410D01*
X71122771Y-32268600D01*
X71144542Y-32292790D01*
X71166314Y-32341171D01*
X71166314Y-32389552D01*
X71144542Y-32462124D01*
X70883285Y-32752410D01*
X71166314Y-32752410D01*
X71318714Y-32244410D02*
X71623514Y-32244410D01*
X71427571Y-32752410D01*
X70830885Y-26652410D02*
X70678485Y-26410505D01*
X70569628Y-26652410D02*
X70569628Y-26144410D01*
X70743800Y-26144410D01*
X70787342Y-26168600D01*
X70809114Y-26192790D01*
X70830885Y-26241171D01*
X70830885Y-26313743D01*
X70809114Y-26362124D01*
X70787342Y-26386314D01*
X70743800Y-26410505D01*
X70569628Y-26410505D01*
X71005057Y-26192790D02*
X71026828Y-26168600D01*
X71070371Y-26144410D01*
X71179228Y-26144410D01*
X71222771Y-26168600D01*
X71244542Y-26192790D01*
X71266314Y-26241171D01*
X71266314Y-26289552D01*
X71244542Y-26362124D01*
X70983285Y-26652410D01*
X71266314Y-26652410D01*
X71527571Y-26362124D02*
X71484029Y-26337933D01*
X71462257Y-26313743D01*
X71440486Y-26265362D01*
X71440486Y-26241171D01*
X71462257Y-26192790D01*
X71484029Y-26168600D01*
X71527571Y-26144410D01*
X71614657Y-26144410D01*
X71658200Y-26168600D01*
X71679971Y-26192790D01*
X71701743Y-26241171D01*
X71701743Y-26265362D01*
X71679971Y-26313743D01*
X71658200Y-26337933D01*
X71614657Y-26362124D01*
X71527571Y-26362124D01*
X71484029Y-26386314D01*
X71462257Y-26410505D01*
X71440486Y-26458886D01*
X71440486Y-26555648D01*
X71462257Y-26604029D01*
X71484029Y-26628219D01*
X71527571Y-26652410D01*
X71614657Y-26652410D01*
X71658200Y-26628219D01*
X71679971Y-26604029D01*
X71701743Y-26555648D01*
X71701743Y-26458886D01*
X71679971Y-26410505D01*
X71658200Y-26386314D01*
X71614657Y-26362124D01*
D13*
X18182715Y-16044714D02*
X17928715Y-15681857D01*
X17747287Y-16044714D02*
X17747287Y-15282714D01*
X18037572Y-15282714D01*
X18110144Y-15319000D01*
X18146429Y-15355286D01*
X18182715Y-15427857D01*
X18182715Y-15536714D01*
X18146429Y-15609286D01*
X18110144Y-15645571D01*
X18037572Y-15681857D01*
X17747287Y-15681857D01*
X18400429Y-15282714D02*
X18835858Y-15282714D01*
X18618144Y-16044714D02*
X18618144Y-15282714D01*
X19489000Y-16044714D02*
X19053572Y-16044714D01*
X19271286Y-16044714D02*
X19271286Y-15282714D01*
X19198715Y-15391571D01*
X19126143Y-15464143D01*
X19053572Y-15500429D01*
X20484001Y-8208429D02*
X20592858Y-8244714D01*
X20774287Y-8244714D01*
X20846858Y-8208429D01*
X20883144Y-8172143D01*
X20919429Y-8099571D01*
X20919429Y-8027000D01*
X20883144Y-7954429D01*
X20846858Y-7918143D01*
X20774287Y-7881857D01*
X20629144Y-7845571D01*
X20556572Y-7809286D01*
X20520287Y-7773000D01*
X20484001Y-7700429D01*
X20484001Y-7627857D01*
X20520287Y-7555286D01*
X20556572Y-7519000D01*
X20629144Y-7482714D01*
X20810572Y-7482714D01*
X20919429Y-7519000D01*
X21173429Y-7482714D02*
X21354858Y-8244714D01*
X21500001Y-7700429D01*
X21645143Y-8244714D01*
X21826572Y-7482714D01*
X22516000Y-8244714D02*
X22080572Y-8244714D01*
X22298286Y-8244714D02*
X22298286Y-7482714D01*
X22225715Y-7591571D01*
X22153143Y-7664143D01*
X22080572Y-7700429D01*
X21968589Y-18833514D02*
X22404018Y-18833514D01*
X22186304Y-19595514D02*
X22186304Y-18833514D01*
X22658018Y-19595514D02*
X22658018Y-18833514D01*
X22948303Y-18833514D01*
X23020875Y-18869800D01*
X23057160Y-18906086D01*
X23093446Y-18978657D01*
X23093446Y-19087514D01*
X23057160Y-19160086D01*
X23020875Y-19196371D01*
X22948303Y-19232657D01*
X22658018Y-19232657D01*
X23819160Y-19595514D02*
X23383732Y-19595514D01*
X23601446Y-19595514D02*
X23601446Y-18833514D01*
X23528875Y-18942371D01*
X23456303Y-19014943D01*
X23383732Y-19051229D01*
X23549429Y-30907514D02*
X23984858Y-30907514D01*
X23767144Y-31669514D02*
X23767144Y-30907514D01*
X24238858Y-31669514D02*
X24238858Y-30907514D01*
X24529143Y-30907514D01*
X24601715Y-30943800D01*
X24638000Y-30980086D01*
X24674286Y-31052657D01*
X24674286Y-31161514D01*
X24638000Y-31234086D01*
X24601715Y-31270371D01*
X24529143Y-31306657D01*
X24238858Y-31306657D01*
X24964572Y-30980086D02*
X25000858Y-30943800D01*
X25073429Y-30907514D01*
X25254858Y-30907514D01*
X25327429Y-30943800D01*
X25363715Y-30980086D01*
X25400000Y-31052657D01*
X25400000Y-31125229D01*
X25363715Y-31234086D01*
X24928286Y-31669514D01*
X25400000Y-31669514D01*
X52840709Y-27454134D02*
X52840709Y-28070991D01*
X52876994Y-28143563D01*
X52913280Y-28179849D01*
X52985851Y-28216134D01*
X53130994Y-28216134D01*
X53203566Y-28179849D01*
X53239851Y-28143563D01*
X53276137Y-28070991D01*
X53276137Y-27454134D01*
X54038137Y-28216134D02*
X53602709Y-28216134D01*
X53820423Y-28216134D02*
X53820423Y-27454134D01*
X53747852Y-27562991D01*
X53675280Y-27635563D01*
X53602709Y-27671849D01*
X8089174Y-21637171D02*
X8706031Y-21637171D01*
X8778603Y-21600886D01*
X8814889Y-21564600D01*
X8851174Y-21492029D01*
X8851174Y-21346886D01*
X8814889Y-21274314D01*
X8778603Y-21238029D01*
X8706031Y-21201743D01*
X8089174Y-21201743D01*
X8161746Y-20875171D02*
X8125460Y-20838885D01*
X8089174Y-20766314D01*
X8089174Y-20584885D01*
X8125460Y-20512314D01*
X8161746Y-20476028D01*
X8234317Y-20439743D01*
X8306889Y-20439743D01*
X8415746Y-20476028D01*
X8851174Y-20911457D01*
X8851174Y-20439743D01*
X10238914Y-34717671D02*
X10855771Y-34717671D01*
X10928343Y-34681386D01*
X10964629Y-34645100D01*
X11000914Y-34572529D01*
X11000914Y-34427386D01*
X10964629Y-34354814D01*
X10928343Y-34318529D01*
X10855771Y-34282243D01*
X10238914Y-34282243D01*
X10238914Y-33991957D02*
X10238914Y-33520243D01*
X10529200Y-33774243D01*
X10529200Y-33665385D01*
X10565486Y-33592814D01*
X10601771Y-33556528D01*
X10674343Y-33520243D01*
X10855771Y-33520243D01*
X10928343Y-33556528D01*
X10964629Y-33592814D01*
X11000914Y-33665385D01*
X11000914Y-33883100D01*
X10964629Y-33955671D01*
X10928343Y-33991957D01*
X61182714Y-22480571D02*
X61799571Y-22480571D01*
X61872143Y-22444286D01*
X61908429Y-22408000D01*
X61944714Y-22335429D01*
X61944714Y-22190286D01*
X61908429Y-22117714D01*
X61872143Y-22081429D01*
X61799571Y-22045143D01*
X61182714Y-22045143D01*
X61436714Y-21355714D02*
X61944714Y-21355714D01*
X61146429Y-21537143D02*
X61690714Y-21718571D01*
X61690714Y-21246857D01*
X37683143Y-33682714D02*
X38191143Y-34444714D01*
X38191143Y-33682714D02*
X37683143Y-34444714D01*
X38880571Y-34444714D02*
X38445143Y-34444714D01*
X38662857Y-34444714D02*
X38662857Y-33682714D01*
X38590286Y-33791571D01*
X38517714Y-33864143D01*
X38445143Y-33900429D01*
X43778957Y-27581255D02*
X43778957Y-26768455D01*
X44088595Y-26768455D01*
X44166004Y-26807160D01*
X44204709Y-26845865D01*
X44243414Y-26923274D01*
X44243414Y-27039389D01*
X44204709Y-27116798D01*
X44166004Y-27155503D01*
X44088595Y-27194208D01*
X43778957Y-27194208D01*
X44553052Y-26845865D02*
X44591757Y-26807160D01*
X44669166Y-26768455D01*
X44862690Y-26768455D01*
X44940100Y-26807160D01*
X44978804Y-26845865D01*
X45017509Y-26923274D01*
X45017509Y-27000684D01*
X44978804Y-27116798D01*
X44514347Y-27581255D01*
X45017509Y-27581255D01*
D10*
X46131845Y-26458829D02*
X45931845Y-26173114D01*
X45788988Y-26458829D02*
X45788988Y-25858829D01*
X46017560Y-25858829D01*
X46074702Y-25887400D01*
X46103274Y-25915971D01*
X46131845Y-25973114D01*
X46131845Y-26058829D01*
X46103274Y-26115971D01*
X46074702Y-26144543D01*
X46017560Y-26173114D01*
X45788988Y-26173114D01*
X46360417Y-25915971D02*
X46388988Y-25887400D01*
X46446131Y-25858829D01*
X46588988Y-25858829D01*
X46646131Y-25887400D01*
X46674702Y-25915971D01*
X46703274Y-25973114D01*
X46703274Y-26030257D01*
X46674702Y-26115971D01*
X46331845Y-26458829D01*
X46703274Y-26458829D01*
X46988989Y-26458829D02*
X47103274Y-26458829D01*
X47160417Y-26430257D01*
X47188989Y-26401686D01*
X47246131Y-26315971D01*
X47274703Y-26201686D01*
X47274703Y-25973114D01*
X47246131Y-25915971D01*
X47217560Y-25887400D01*
X47160417Y-25858829D01*
X47046131Y-25858829D01*
X46988989Y-25887400D01*
X46960417Y-25915971D01*
X46931846Y-25973114D01*
X46931846Y-26115971D01*
X46960417Y-26173114D01*
X46988989Y-26201686D01*
X47046131Y-26230257D01*
X47160417Y-26230257D01*
X47217560Y-26201686D01*
X47246131Y-26173114D01*
X47274703Y-26115971D01*
X45796565Y-21543929D02*
X45596565Y-21258214D01*
X45453708Y-21543929D02*
X45453708Y-20943929D01*
X45682280Y-20943929D01*
X45739422Y-20972500D01*
X45767994Y-21001071D01*
X45796565Y-21058214D01*
X45796565Y-21143929D01*
X45767994Y-21201071D01*
X45739422Y-21229643D01*
X45682280Y-21258214D01*
X45453708Y-21258214D01*
X45996565Y-20943929D02*
X46367994Y-20943929D01*
X46167994Y-21172500D01*
X46253708Y-21172500D01*
X46310851Y-21201071D01*
X46339422Y-21229643D01*
X46367994Y-21286786D01*
X46367994Y-21429643D01*
X46339422Y-21486786D01*
X46310851Y-21515357D01*
X46253708Y-21543929D01*
X46082280Y-21543929D01*
X46025137Y-21515357D01*
X45996565Y-21486786D01*
X46739423Y-20943929D02*
X46796566Y-20943929D01*
X46853709Y-20972500D01*
X46882280Y-21001071D01*
X46910851Y-21058214D01*
X46939423Y-21172500D01*
X46939423Y-21315357D01*
X46910851Y-21429643D01*
X46882280Y-21486786D01*
X46853709Y-21515357D01*
X46796566Y-21543929D01*
X46739423Y-21543929D01*
X46682280Y-21515357D01*
X46653709Y-21486786D01*
X46625137Y-21429643D01*
X46596566Y-21315357D01*
X46596566Y-21172500D01*
X46625137Y-21058214D01*
X46653709Y-21001071D01*
X46682280Y-20972500D01*
X46739423Y-20943929D01*
M02*
