G04 #@! TF.FileFunction,Soldermask,Top*
%FSLAX46Y46*%
G04 Gerber Fmt 4.6, Leading zero omitted, Abs format (unit mm)*
G04 Created by KiCad (PCBNEW (2014-jul-16 BZR unknown)-product) date Seg 15 Dez 2014 16:45:29 BRST*
%MOMM*%
G01*
G04 APERTURE LIST*
%ADD10C,0.150000*%
%ADD11C,1.600000*%
%ADD12R,1.600000X1.600000*%
%ADD13R,0.635000X1.143000*%
%ADD14R,1.143000X0.635000*%
%ADD15C,4.500000*%
%ADD16R,1.500000X2.600000*%
%ADD17R,0.850900X1.016000*%
%ADD18R,1.016000X0.850900*%
%ADD19C,1.320800*%
%ADD20C,3.251200*%
%ADD21R,1.524000X1.524000*%
%ADD22C,1.524000*%
%ADD23R,0.800100X1.000760*%
%ADD24R,1.397000X0.889000*%
%ADD25R,0.889000X1.397000*%
%ADD26R,1.250000X1.250000*%
%ADD27C,1.250000*%
%ADD28C,1.550000*%
%ADD29R,1.700000X1.700000*%
%ADD30R,1.000760X0.269240*%
%ADD31R,0.269240X1.000760*%
%ADD32R,3.600000X1.900000*%
%ADD33R,1.200000X1.900000*%
%ADD34R,5.588000X2.108200*%
%ADD35R,1.270000X2.540000*%
%ADD36R,2.000000X5.400000*%
%ADD37R,2.540000X1.270000*%
%ADD38R,1.470660X0.419100*%
G04 APERTURE END LIST*
D10*
D11*
X8100000Y-13600000D03*
D12*
X10100000Y-13600000D03*
D13*
X8092160Y-17950800D03*
X6568160Y-17950800D03*
D11*
X18830160Y-22350800D03*
D12*
X18830160Y-24350800D03*
D14*
X22930160Y-26488800D03*
X22930160Y-28012800D03*
X29900000Y-8062000D03*
X29900000Y-6538000D03*
D11*
X21100000Y-35400000D03*
D12*
X21100000Y-37400000D03*
D14*
X14732000Y-28727400D03*
X14732000Y-27203400D03*
X64324800Y-29984600D03*
X64324800Y-28460600D03*
D13*
X52062000Y-27700000D03*
X50538000Y-27700000D03*
X42638000Y-33400000D03*
X44162000Y-33400000D03*
X46938000Y-33400000D03*
X48462000Y-33400000D03*
D14*
X51800000Y-33338000D03*
X51800000Y-34862000D03*
D13*
X57738000Y-26100000D03*
X59262000Y-26100000D03*
D14*
X72824800Y-20460600D03*
X72824800Y-21984600D03*
D15*
X75850000Y-7500000D03*
X68350000Y-7500000D03*
X75850000Y-2500000D03*
X68350000Y-2500000D03*
X10050000Y-7500000D03*
X2550000Y-7500000D03*
X10050000Y-2500000D03*
X2550000Y-2500000D03*
D16*
X28550000Y-10500000D03*
X24050000Y-10500000D03*
D17*
X53000000Y-17378000D03*
X53000000Y-13822000D03*
D18*
X57922000Y-17200000D03*
X61478000Y-17200000D03*
D19*
X49842000Y-11104000D03*
X52128000Y-11104000D03*
X61272000Y-11104000D03*
X63558000Y-11104000D03*
X60256000Y-6278000D03*
X58224000Y-6278000D03*
X56192000Y-6278000D03*
X54160000Y-6278000D03*
X57208000Y-4500000D03*
X55176000Y-4500000D03*
X59240000Y-4500000D03*
X53144000Y-4500000D03*
D20*
X50350000Y-1960000D03*
X63050000Y-1960000D03*
D19*
X32542000Y-11104000D03*
X34828000Y-11104000D03*
X43972000Y-11104000D03*
X46258000Y-11104000D03*
X42956000Y-6278000D03*
X40924000Y-6278000D03*
X38892000Y-6278000D03*
X36860000Y-6278000D03*
X39908000Y-4500000D03*
X37876000Y-4500000D03*
X41940000Y-4500000D03*
X35844000Y-4500000D03*
D20*
X33050000Y-1960000D03*
X45750000Y-1960000D03*
D21*
X75624800Y-13282600D03*
D22*
X75624800Y-15822600D03*
X75624800Y-18362600D03*
D21*
X75604800Y-34452600D03*
D22*
X75604800Y-36992600D03*
X73064800Y-34452600D03*
X73064800Y-36992600D03*
X70524800Y-34452600D03*
X70524800Y-36992600D03*
X67984800Y-34452600D03*
X67984800Y-36992600D03*
X65444800Y-34452600D03*
X65444800Y-36992600D03*
D21*
X75624800Y-22552600D03*
D22*
X75624800Y-25092600D03*
D23*
X33635000Y-13934180D03*
X34587500Y-16133820D03*
X32682500Y-16133820D03*
X36855400Y-19499580D03*
X37807900Y-21699220D03*
X35902900Y-21699220D03*
D14*
X34535000Y-19096000D03*
X34535000Y-17572000D03*
D24*
X30226000Y-15557500D03*
X30226000Y-13652500D03*
X37000000Y-15952500D03*
X37000000Y-14047500D03*
D25*
X47947500Y-13800000D03*
X49852500Y-13800000D03*
X62647500Y-13400000D03*
X64552500Y-13400000D03*
D13*
X64662000Y-17100000D03*
X63138000Y-17100000D03*
X48162000Y-20000000D03*
X46638000Y-20000000D03*
D25*
X22977660Y-24350800D03*
X24882660Y-24350800D03*
D13*
X50838000Y-22300000D03*
X52362000Y-22300000D03*
X50838000Y-20100000D03*
X52362000Y-20100000D03*
D25*
X24515500Y-37300000D03*
X26420500Y-37300000D03*
D13*
X72786800Y-18422600D03*
X71262800Y-18422600D03*
X72786800Y-13322600D03*
X71262800Y-13322600D03*
X72786800Y-15822600D03*
X71262800Y-15822600D03*
X50538000Y-31000000D03*
X52062000Y-31000000D03*
X50538000Y-29350000D03*
X52062000Y-29350000D03*
D14*
X35375000Y-30009200D03*
X35375000Y-28485200D03*
X32975000Y-30009200D03*
X32975000Y-28485200D03*
X31025000Y-30009200D03*
X31025000Y-28485200D03*
D13*
X70262800Y-29422600D03*
X71786800Y-29422600D03*
X70262800Y-31322600D03*
X71786800Y-31322600D03*
X71786800Y-27522600D03*
X70262800Y-27522600D03*
D26*
X25500000Y-3750000D03*
D27*
X21500000Y-3750000D03*
X19500000Y-3750000D03*
D28*
X28500000Y-2500000D03*
X14500000Y-2500000D03*
D27*
X23500000Y-3750000D03*
D29*
X22930160Y-21250800D03*
X24511000Y-33324800D03*
D30*
X62401160Y-35050820D03*
X53998840Y-29549180D03*
X53998840Y-30049560D03*
X53998840Y-30549940D03*
X53998840Y-31050320D03*
X53998840Y-31550700D03*
X53998840Y-32051080D03*
X53998840Y-32548920D03*
X53998840Y-33049300D03*
X53998840Y-33549680D03*
X53998840Y-34050060D03*
X53998840Y-34550440D03*
X53998840Y-35050820D03*
D31*
X55449180Y-36501160D03*
X55949560Y-36501160D03*
X56449940Y-36501160D03*
X56937620Y-36501160D03*
X57450700Y-36501160D03*
X57951080Y-36501160D03*
X58448920Y-36501160D03*
X58949300Y-36501160D03*
X59449680Y-36501160D03*
X59950060Y-36501160D03*
X60450440Y-36501160D03*
X60950820Y-36501160D03*
D30*
X62401160Y-34550440D03*
X62401160Y-34050060D03*
X62401160Y-33549680D03*
X62401160Y-33049300D03*
X62401160Y-32548920D03*
X62401160Y-32051080D03*
X62401160Y-31550700D03*
X62401160Y-31050320D03*
X62401160Y-30549940D03*
X62401160Y-30049560D03*
X62401160Y-29549180D03*
D31*
X60950820Y-28098840D03*
X60450440Y-28098840D03*
X59950060Y-28098840D03*
X59449680Y-28098840D03*
X58949300Y-28098840D03*
X58448920Y-28098840D03*
X57951080Y-28098840D03*
X57450700Y-28098840D03*
X56950320Y-28098840D03*
X56449940Y-28098840D03*
X55949560Y-28098840D03*
X55449180Y-28098840D03*
D32*
X12430160Y-24350800D03*
D33*
X12430160Y-17950800D03*
X10130160Y-17950800D03*
X14730160Y-17950800D03*
D32*
X14732000Y-37363000D03*
D33*
X14732000Y-30963000D03*
X12432000Y-30963000D03*
X17032000Y-30963000D03*
D34*
X48449800Y-37100000D03*
X38950200Y-37100000D03*
D21*
X41300400Y-14935200D03*
D22*
X43840400Y-14935200D03*
X41300400Y-17475200D03*
X43840400Y-17475200D03*
X41300400Y-20015200D03*
X43840400Y-20015200D03*
X41300400Y-22555200D03*
X43840400Y-22555200D03*
X41300400Y-25095200D03*
X43840400Y-25095200D03*
D35*
X20024000Y-12200000D03*
X16976000Y-12200000D03*
D36*
X21742940Y-12303760D03*
X15142940Y-12303760D03*
D11*
X28200000Y-15800000D03*
D12*
X28200000Y-13800000D03*
D13*
X55762000Y-24700000D03*
X54238000Y-24700000D03*
D35*
X43224000Y-28700000D03*
X40176000Y-28700000D03*
D37*
X63900000Y-22424000D03*
X63900000Y-19376000D03*
D14*
X56200000Y-16038000D03*
X56200000Y-17562000D03*
D13*
X57962000Y-13800000D03*
X56438000Y-13800000D03*
X38738000Y-32500000D03*
X40262000Y-32500000D03*
D25*
X47952500Y-28900000D03*
X46047500Y-28900000D03*
D38*
X54500920Y-19589920D03*
X54500920Y-20240160D03*
X54500920Y-20890400D03*
X54500920Y-21540640D03*
X54500920Y-22190880D03*
X54500920Y-22841120D03*
X54500920Y-23491360D03*
X60099080Y-23491360D03*
X60099080Y-22841120D03*
X60099080Y-22190880D03*
X60099080Y-21540640D03*
X60094000Y-20890400D03*
X60094000Y-20250320D03*
X60099080Y-19589920D03*
D13*
X36138000Y-24100000D03*
X37662000Y-24100000D03*
D14*
X75624800Y-29660600D03*
X75624800Y-31184600D03*
D13*
X48082200Y-24815800D03*
X46558200Y-24815800D03*
X46177200Y-22555200D03*
X47701200Y-22555200D03*
M02*
