G04 #@! TF.FileFunction,Soldermask,Bot*
%FSLAX46Y46*%
G04 Gerber Fmt 4.6, Leading zero omitted, Abs format (unit mm)*
G04 Created by KiCad (PCBNEW (2014-jul-16 BZR unknown)-product) date Qua 17 Dez 2014 18:12:30 BRST*
%MOMM*%
G01*
G04 APERTURE LIST*
%ADD10C,0.150000*%
%ADD11C,1.600000*%
%ADD12R,1.600000X1.600000*%
%ADD13C,4.500000*%
%ADD14C,1.320800*%
%ADD15C,3.251200*%
%ADD16R,1.524000X1.524000*%
%ADD17C,1.524000*%
%ADD18R,1.250000X1.250000*%
%ADD19C,1.250000*%
%ADD20C,1.550000*%
%ADD21R,1.700000X1.700000*%
G04 APERTURE END LIST*
D10*
D11*
X8100000Y-13600000D03*
D12*
X10100000Y-13600000D03*
D11*
X18830160Y-22350800D03*
D12*
X18830160Y-24350800D03*
D11*
X21100000Y-35400000D03*
D12*
X21100000Y-37400000D03*
D13*
X75850000Y-7500000D03*
X68350000Y-7500000D03*
X75850000Y-2500000D03*
X68350000Y-2500000D03*
X10050000Y-7500000D03*
X2550000Y-7500000D03*
X10050000Y-2500000D03*
X2550000Y-2500000D03*
D14*
X49842000Y-11104000D03*
X52128000Y-11104000D03*
X61272000Y-11104000D03*
X63558000Y-11104000D03*
X60256000Y-6278000D03*
X58224000Y-6278000D03*
X56192000Y-6278000D03*
X54160000Y-6278000D03*
X57208000Y-4500000D03*
X55176000Y-4500000D03*
X59240000Y-4500000D03*
X53144000Y-4500000D03*
D15*
X50350000Y-1960000D03*
X63050000Y-1960000D03*
D14*
X32542000Y-11104000D03*
X34828000Y-11104000D03*
X43972000Y-11104000D03*
X46258000Y-11104000D03*
X42956000Y-6278000D03*
X40924000Y-6278000D03*
X38892000Y-6278000D03*
X36860000Y-6278000D03*
X39908000Y-4500000D03*
X37876000Y-4500000D03*
X41940000Y-4500000D03*
X35844000Y-4500000D03*
D15*
X33050000Y-1960000D03*
X45750000Y-1960000D03*
D16*
X75624800Y-13282600D03*
D17*
X75624800Y-15822600D03*
X75624800Y-18362600D03*
D16*
X75604800Y-34452600D03*
D17*
X75604800Y-36992600D03*
X73064800Y-34452600D03*
X73064800Y-36992600D03*
X70524800Y-34452600D03*
X70524800Y-36992600D03*
X67984800Y-34452600D03*
X67984800Y-36992600D03*
X65444800Y-34452600D03*
X65444800Y-36992600D03*
D16*
X75624800Y-22552600D03*
D17*
X75624800Y-25092600D03*
D18*
X25500000Y-3750000D03*
D19*
X21500000Y-3750000D03*
X19500000Y-3750000D03*
D20*
X28500000Y-2500000D03*
X14500000Y-2500000D03*
D19*
X23500000Y-3750000D03*
D21*
X22930160Y-21250800D03*
X24511000Y-33324800D03*
D16*
X41300400Y-14935200D03*
D17*
X43840400Y-14935200D03*
X41300400Y-17475200D03*
X43840400Y-17475200D03*
X41300400Y-20015200D03*
X43840400Y-20015200D03*
X41300400Y-22555200D03*
X43840400Y-22555200D03*
X41300400Y-25095200D03*
X43840400Y-25095200D03*
D11*
X28200000Y-15800000D03*
D12*
X28200000Y-13800000D03*
M02*
