G04 #@! TF.FileFunction,Copper,L1,Top,Signal*
%FSLAX46Y46*%
G04 Gerber Fmt 4.6, Leading zero omitted, Abs format (unit mm)*
G04 Created by KiCad (PCBNEW (2014-jul-16 BZR unknown)-product) date Qua 03 Dez 2014 13:36:08 BRST*
%MOMM*%
G01*
G04 APERTURE LIST*
%ADD10C,0.150000*%
%ADD11R,0.800100X1.000760*%
%ADD12R,3.600000X1.900000*%
%ADD13R,1.200000X1.900000*%
%ADD14R,1.399540X0.599440*%
%ADD15R,2.000000X5.400000*%
%ADD16R,1.397000X0.889000*%
%ADD17R,0.889000X1.397000*%
%ADD18R,1.143000X0.635000*%
%ADD19R,0.635000X1.143000*%
%ADD20R,1.397000X1.397000*%
%ADD21C,1.320800*%
%ADD22C,3.251200*%
%ADD23R,1.524000X1.524000*%
%ADD24C,1.524000*%
%ADD25C,1.500000*%
%ADD26R,1.000760X0.269240*%
%ADD27R,0.269240X1.000760*%
%ADD28R,5.588000X2.108200*%
%ADD29R,1.600200X2.199640*%
%ADD30C,4.500000*%
%ADD31C,1.200000*%
%ADD32R,1.200000X1.200000*%
%ADD33R,1.250000X1.250000*%
%ADD34C,1.250000*%
%ADD35C,1.550000*%
%ADD36R,0.850900X0.850900*%
%ADD37R,0.609600X0.685800*%
%ADD38C,0.889000*%
%ADD39C,1.270000*%
%ADD40C,0.635000*%
%ADD41C,0.508000*%
%ADD42C,0.304800*%
%ADD43C,0.381000*%
%ADD44C,0.635000*%
%ADD45C,1.016000*%
%ADD46C,0.762000*%
%ADD47C,1.524000*%
%ADD48C,0.508000*%
%ADD49C,2.032000*%
%ADD50C,1.778000*%
%ADD51C,1.270000*%
%ADD52C,0.254000*%
G04 APERTURE END LIST*
D10*
D11*
X40400000Y-13900180D03*
X41352500Y-16099820D03*
X39447500Y-16099820D03*
X33635000Y-13934180D03*
X34587500Y-16133820D03*
X32682500Y-16133820D03*
D12*
X12430160Y-24350800D03*
D13*
X12430160Y-17950800D03*
X10130160Y-17950800D03*
X14730160Y-17950800D03*
D12*
X14732000Y-37363000D03*
D13*
X14732000Y-30963000D03*
X12432000Y-30963000D03*
X17032000Y-30963000D03*
D14*
X59867000Y-19895000D03*
X54533000Y-19895000D03*
X59867000Y-21165000D03*
X59867000Y-22435000D03*
X59867000Y-23705000D03*
X54533000Y-21165000D03*
X54533000Y-22435000D03*
X54533000Y-23705000D03*
D15*
X21800000Y-12200000D03*
X15200000Y-12200000D03*
D16*
X75624800Y-29470100D03*
X75624800Y-31375100D03*
D17*
X22977660Y-24350800D03*
X24882660Y-24350800D03*
X58152500Y-13800000D03*
X56247500Y-13800000D03*
X24515500Y-37300000D03*
X26420500Y-37300000D03*
D16*
X30226000Y-15557500D03*
X30226000Y-13652500D03*
X36900000Y-15552500D03*
X36900000Y-13647500D03*
D17*
X47947500Y-13800000D03*
X49852500Y-13800000D03*
X62947500Y-14300000D03*
X64852500Y-14300000D03*
D16*
X58200000Y-15847500D03*
X58200000Y-17752500D03*
X56200000Y-15847500D03*
X56200000Y-17752500D03*
D18*
X22930160Y-26488800D03*
X22930160Y-28012800D03*
D19*
X50538000Y-31000000D03*
X52062000Y-31000000D03*
X8092160Y-17950800D03*
X6568160Y-17950800D03*
X50838000Y-24500000D03*
X52362000Y-24500000D03*
X70262800Y-31322600D03*
X71786800Y-31322600D03*
X70262800Y-29422600D03*
X71786800Y-29422600D03*
D18*
X35375000Y-30009200D03*
X35375000Y-28485200D03*
X32975000Y-30009200D03*
X32975000Y-28485200D03*
X31025000Y-30009200D03*
X31025000Y-28485200D03*
D19*
X71786800Y-27522600D03*
X70262800Y-27522600D03*
X72786800Y-18422600D03*
X71262800Y-18422600D03*
X72786800Y-13322600D03*
X71262800Y-13322600D03*
X72786800Y-15822600D03*
X71262800Y-15822600D03*
D18*
X64324800Y-29984600D03*
X64324800Y-28460600D03*
X34535000Y-19096000D03*
X34535000Y-17572000D03*
D19*
X57738000Y-25900000D03*
X59262000Y-25900000D03*
D18*
X51800000Y-33338000D03*
X51800000Y-34862000D03*
D19*
X42638000Y-33400000D03*
X44162000Y-33400000D03*
X46938000Y-33400000D03*
X48462000Y-33400000D03*
X50538000Y-29350000D03*
X52062000Y-29350000D03*
X52062000Y-27700000D03*
X50538000Y-27700000D03*
D18*
X28194000Y-13487400D03*
X28194000Y-15011400D03*
D19*
X50838000Y-22300000D03*
X52362000Y-22300000D03*
D18*
X41300000Y-19062000D03*
X41300000Y-17538000D03*
X14732000Y-28727400D03*
X14732000Y-27203400D03*
D19*
X48262000Y-17200000D03*
X46738000Y-17200000D03*
X50838000Y-20100000D03*
X52362000Y-20100000D03*
X62038000Y-19900000D03*
X63562000Y-19900000D03*
X64262000Y-17500000D03*
X62738000Y-17500000D03*
D20*
X22930160Y-21250800D03*
X24511000Y-33324800D03*
D21*
X32542000Y-11104000D03*
X34828000Y-11104000D03*
X43972000Y-11104000D03*
X46258000Y-11104000D03*
X42956000Y-6278000D03*
X40924000Y-6278000D03*
X38892000Y-6278000D03*
X36860000Y-6278000D03*
X39908000Y-4500000D03*
X37876000Y-4500000D03*
X41940000Y-4500000D03*
X35844000Y-4500000D03*
D22*
X33050000Y-1960000D03*
X45750000Y-1960000D03*
D21*
X49842000Y-11104000D03*
X52128000Y-11104000D03*
X61272000Y-11104000D03*
X63558000Y-11104000D03*
X60256000Y-6278000D03*
X58224000Y-6278000D03*
X56192000Y-6278000D03*
X54160000Y-6278000D03*
X57208000Y-4500000D03*
X55176000Y-4500000D03*
X59240000Y-4500000D03*
X53144000Y-4500000D03*
D22*
X50350000Y-1960000D03*
X63050000Y-1960000D03*
D23*
X75604800Y-34452600D03*
D24*
X75604800Y-36992600D03*
X73064800Y-34452600D03*
X73064800Y-36992600D03*
X70524800Y-34452600D03*
X70524800Y-36992600D03*
X67984800Y-34452600D03*
X67984800Y-36992600D03*
X65444800Y-34452600D03*
X65444800Y-36992600D03*
D23*
X43900000Y-15020000D03*
D24*
X43900000Y-17560000D03*
X43900000Y-20100000D03*
X43900000Y-22640000D03*
D25*
X43900000Y-25180000D03*
D23*
X75624800Y-13282600D03*
D24*
X75624800Y-15822600D03*
X75624800Y-18362600D03*
D23*
X75624800Y-22552600D03*
D24*
X75624800Y-25092600D03*
D26*
X62401160Y-35050820D03*
X53998840Y-29549180D03*
X53998840Y-30049560D03*
X53998840Y-30549940D03*
X53998840Y-31050320D03*
X53998840Y-31550700D03*
X53998840Y-32051080D03*
X53998840Y-32548920D03*
X53998840Y-33049300D03*
X53998840Y-33549680D03*
X53998840Y-34050060D03*
X53998840Y-34550440D03*
X53998840Y-35050820D03*
D27*
X55449180Y-36501160D03*
X55949560Y-36501160D03*
X56449940Y-36501160D03*
X56937620Y-36501160D03*
X57450700Y-36501160D03*
X57951080Y-36501160D03*
X58448920Y-36501160D03*
X58949300Y-36501160D03*
X59449680Y-36501160D03*
X59950060Y-36501160D03*
X60450440Y-36501160D03*
X60950820Y-36501160D03*
D26*
X62401160Y-34550440D03*
X62401160Y-34050060D03*
X62401160Y-33549680D03*
X62401160Y-33049300D03*
X62401160Y-32548920D03*
X62401160Y-32051080D03*
X62401160Y-31550700D03*
X62401160Y-31050320D03*
X62401160Y-30549940D03*
X62401160Y-30049560D03*
X62401160Y-29549180D03*
D27*
X60950820Y-28098840D03*
X60450440Y-28098840D03*
X59950060Y-28098840D03*
X59449680Y-28098840D03*
X58949300Y-28098840D03*
X58448920Y-28098840D03*
X57951080Y-28098840D03*
X57450700Y-28098840D03*
X56950320Y-28098840D03*
X56449940Y-28098840D03*
X55949560Y-28098840D03*
X55449180Y-28098840D03*
D28*
X48449800Y-37100000D03*
X38950200Y-37100000D03*
D29*
X28199920Y-10500000D03*
X24400080Y-10500000D03*
D30*
X75850000Y-7500000D03*
X68350000Y-7500000D03*
X75850000Y-2500000D03*
X68350000Y-2500000D03*
X10050000Y-7500000D03*
X2550000Y-7500000D03*
X10050000Y-2500000D03*
X2550000Y-2500000D03*
D31*
X8100000Y-13600000D03*
D32*
X10100000Y-13600000D03*
D31*
X21100000Y-35400000D03*
D32*
X21100000Y-37400000D03*
D31*
X18830160Y-22350800D03*
D32*
X18830160Y-24350800D03*
D33*
X25500000Y-3750000D03*
D34*
X21500000Y-3750000D03*
X19500000Y-3750000D03*
D35*
X28500000Y-2500000D03*
X14500000Y-2500000D03*
D34*
X23500000Y-3750000D03*
D36*
X60900000Y-17473860D03*
X60900000Y-14126140D03*
X53500000Y-17473860D03*
X53500000Y-14126140D03*
D37*
X51817600Y-17200000D03*
X49582400Y-17200000D03*
D18*
X72824800Y-20460600D03*
X72824800Y-21984600D03*
D38*
X35382200Y-30988000D03*
X32969200Y-30988000D03*
X31038800Y-30988000D03*
D39*
X32925000Y-38925000D03*
X52950000Y-37400000D03*
D38*
X55000000Y-12200000D03*
X59300000Y-12200000D03*
D39*
X57683400Y-38912800D03*
D40*
X49987200Y-24503000D03*
X49987200Y-20083400D03*
X49987200Y-22293200D03*
D39*
X34620200Y-24384000D03*
X29591000Y-24358600D03*
X39192200Y-20574000D03*
D38*
X59900000Y-18700000D03*
X54700000Y-18700000D03*
X64500000Y-19900000D03*
X61200000Y-23700000D03*
X55458360Y-31551880D03*
X32685000Y-17284000D03*
X39450000Y-17250000D03*
X5430160Y-17950800D03*
D39*
X14730160Y-16150800D03*
X16330160Y-17950800D03*
D38*
X50600000Y-34850000D03*
X58950860Y-29560520D03*
X26974800Y-15011400D03*
D39*
X17043400Y-29159200D03*
X18491200Y-30962600D03*
D38*
X15951200Y-27228800D03*
X21717000Y-28016200D03*
X41681400Y-33401000D03*
X45974000Y-33401000D03*
X59800000Y-14100000D03*
X54600000Y-14100000D03*
X65300000Y-17500000D03*
X49500000Y-27700000D03*
X60224800Y-25922600D03*
X70224800Y-13322600D03*
X64324800Y-27422600D03*
D41*
X55702200Y-22428200D03*
X57162700Y-22428200D03*
D40*
X59424800Y-33722600D03*
X63652400Y-33756600D03*
D38*
X56200000Y-8900000D03*
D40*
X25740360Y-7894320D03*
X25740360Y-12966700D03*
X24902160Y-7894320D03*
X24902160Y-12969240D03*
X24063960Y-7894320D03*
X24061420Y-12966700D03*
X61124800Y-31822600D03*
X63624800Y-31822600D03*
X45500000Y-9900000D03*
X59100000Y-9900000D03*
X55100000Y-9900000D03*
D42*
X53250700Y-33049300D02*
X52962000Y-33338000D01*
X52925000Y-33338000D02*
X51800000Y-33338000D01*
X52962000Y-33338000D02*
X52925000Y-33338000D01*
X53998840Y-33049300D02*
X53250700Y-33049300D01*
D43*
X50538000Y-29350000D02*
X50538000Y-31000000D01*
D42*
X57450700Y-27049300D02*
X57738000Y-26762000D01*
X57738000Y-26762000D02*
X57738000Y-25900000D01*
X57450700Y-28098840D02*
X57450700Y-27049300D01*
D44*
X35375000Y-30009200D02*
X35375000Y-30980800D01*
X35375000Y-30980800D02*
X35382200Y-30988000D01*
X32975000Y-30982200D02*
X32975000Y-30009200D01*
X32975000Y-30982200D02*
X32969200Y-30988000D01*
X31025000Y-30974200D02*
X31025000Y-30009200D01*
X31025000Y-30974200D02*
X31038800Y-30988000D01*
D45*
X26420500Y-35606300D02*
X31038800Y-30988000D01*
X26420500Y-37300000D02*
X26420500Y-35606300D01*
D44*
X50526000Y-30988000D02*
X50538000Y-31000000D01*
D46*
X37058600Y-30988000D02*
X50526000Y-30988000D01*
X35382200Y-30988000D02*
X37058600Y-30988000D01*
X33068106Y-20910906D02*
X33068106Y-25271712D01*
X33068106Y-20910906D02*
X30226000Y-18068800D01*
X30226000Y-18068800D02*
X30226000Y-15557500D01*
X36042600Y-26124000D02*
X37058600Y-27140000D01*
X33920394Y-26124000D02*
X36042600Y-26124000D01*
X33068106Y-25271712D02*
X33920394Y-26124000D01*
X37058600Y-30988000D02*
X37058600Y-27140000D01*
D47*
X26420500Y-37300000D02*
X28045500Y-38925000D01*
X32925000Y-38925000D02*
X28045500Y-38925000D01*
D42*
X52925000Y-33338000D02*
X52925000Y-37375000D01*
X52925000Y-37375000D02*
X52950000Y-37400000D01*
D48*
X36347500Y-15000000D02*
X36900000Y-15552500D01*
X36347400Y-15000000D02*
X36347500Y-15000000D01*
X30226000Y-15557500D02*
X30542500Y-15557500D01*
X30542500Y-15557500D02*
X31100000Y-15000000D01*
X31100000Y-15000000D02*
X36347400Y-15000000D01*
X37452500Y-15000000D02*
X36900000Y-15552500D01*
X37820600Y-15000000D02*
X37452500Y-15000000D01*
X38201600Y-15000000D02*
X37820600Y-15000000D01*
X41210200Y-15000000D02*
X42799000Y-13411200D01*
X41210200Y-15000000D02*
X38201600Y-15000000D01*
X37820600Y-15000000D02*
X36347400Y-15000000D01*
X47947500Y-13800000D02*
X47558700Y-13411200D01*
X42799000Y-13411200D02*
X47558700Y-13411200D01*
X50636200Y-15163800D02*
X53600000Y-12200000D01*
X53600000Y-12200000D02*
X55000000Y-12200000D01*
X62947500Y-14147500D02*
X62947500Y-14300000D01*
X61000000Y-12200000D02*
X59300000Y-12200000D01*
X62947500Y-14147500D02*
X61000000Y-12200000D01*
X47947500Y-13800000D02*
X47947500Y-14775100D01*
X47947500Y-14775100D02*
X48336200Y-15163800D01*
X48336200Y-15163800D02*
X50636200Y-15163800D01*
D45*
X57683400Y-38912800D02*
X62224800Y-38912800D01*
X77524800Y-29422600D02*
X77524800Y-27522600D01*
X62224800Y-38912800D02*
X76334600Y-38912800D01*
X76334600Y-38912800D02*
X77524800Y-37722600D01*
X77524800Y-37722600D02*
X77524800Y-29422600D01*
D42*
X57450700Y-29205900D02*
X57454800Y-29210000D01*
X57450700Y-29122600D02*
X57450700Y-29205900D01*
X57450700Y-28098840D02*
X57450700Y-29122600D01*
D44*
X71786800Y-27522600D02*
X77524800Y-27522600D01*
D46*
X77524800Y-29470100D02*
X77524800Y-29422600D01*
X75624800Y-29470100D02*
X77524800Y-29470100D01*
D44*
X57450700Y-29748500D02*
X60524800Y-32822600D01*
X60524800Y-32822600D02*
X60524800Y-34622600D01*
X60524800Y-34622600D02*
X62306200Y-36404000D01*
X62306200Y-36404000D02*
X62306200Y-38912800D01*
X62306200Y-38912800D02*
X62224800Y-38912800D01*
X57450700Y-29122600D02*
X57450700Y-29748500D01*
X76762800Y-20460600D02*
X76724800Y-20422600D01*
D45*
X77524800Y-21222600D02*
X77524800Y-27522600D01*
X77524800Y-21222600D02*
X76724800Y-20422600D01*
D44*
X72824800Y-20460600D02*
X76762800Y-20460600D01*
X71262800Y-19860600D02*
X71862800Y-20460600D01*
X71862800Y-20460600D02*
X72824800Y-20460600D01*
X71262800Y-18422600D02*
X71262800Y-19860600D01*
X43960000Y-17500000D02*
X43900000Y-17560000D01*
D48*
X62033000Y-19895000D02*
X62038000Y-19900000D01*
X59867000Y-19895000D02*
X62033000Y-19895000D01*
X49987200Y-24503000D02*
X49990200Y-24500000D01*
X49990200Y-24500000D02*
X50838000Y-24500000D01*
X50838000Y-20100000D02*
X50003800Y-20100000D01*
X50003800Y-20100000D02*
X49987200Y-20083400D01*
X49994000Y-22300000D02*
X49987200Y-22293200D01*
X50838000Y-22300000D02*
X49994000Y-22300000D01*
D47*
X34620200Y-24384000D02*
X35382200Y-24384000D01*
X29583200Y-24350800D02*
X24882660Y-24350800D01*
X29583200Y-24350800D02*
X29591000Y-24358600D01*
X35382200Y-24384000D02*
X39192200Y-20574000D01*
D46*
X43900000Y-17600000D02*
X45000000Y-18700000D01*
X46800000Y-18700000D02*
X49900000Y-18700000D01*
X45000000Y-18700000D02*
X46800000Y-18700000D01*
X43900000Y-17560000D02*
X43900000Y-17600000D01*
X49900000Y-18700000D02*
X54700000Y-18700000D01*
D48*
X59900000Y-19862000D02*
X59867000Y-19895000D01*
X59900000Y-18700000D02*
X59900000Y-19862000D01*
X46738000Y-18700000D02*
X46800000Y-18638000D01*
X46800000Y-18638000D02*
X46800000Y-18700000D01*
X46738000Y-17200000D02*
X46738000Y-18700000D01*
X49987200Y-18700000D02*
X49900000Y-18700000D01*
X49987200Y-20083400D02*
X49987200Y-18700000D01*
D44*
X8092160Y-17950800D02*
X10130160Y-17950800D01*
D49*
X14000000Y-13600000D02*
X10100000Y-13600000D01*
X15200000Y-12400000D02*
X14000000Y-13600000D01*
X15200000Y-12200000D02*
X15200000Y-12400000D01*
D50*
X10130160Y-13630160D02*
X10100000Y-13600000D01*
X10130160Y-17950800D02*
X10130160Y-13630160D01*
D46*
X60256000Y-5516000D02*
X59240000Y-4500000D01*
X60256000Y-6278000D02*
X60256000Y-5516000D01*
X42956000Y-5516000D02*
X41940000Y-4500000D01*
X42956000Y-6278000D02*
X42956000Y-5516000D01*
D48*
X63562000Y-19900000D02*
X64500000Y-19900000D01*
X61195000Y-23705000D02*
X61200000Y-23700000D01*
X59867000Y-23705000D02*
X61195000Y-23705000D01*
D42*
X55457180Y-31550700D02*
X55458360Y-31551880D01*
X53998840Y-31550700D02*
X55457180Y-31550700D01*
D44*
X32682500Y-17281500D02*
X32685000Y-17284000D01*
X32682500Y-16133820D02*
X32682500Y-17281500D01*
X39447500Y-17247500D02*
X39450000Y-17250000D01*
X39447500Y-16099820D02*
X39447500Y-17247500D01*
X6568160Y-17950800D02*
X5430160Y-17950800D01*
D51*
X14730160Y-17950800D02*
X14730160Y-16150800D01*
X14730160Y-17950800D02*
X16330160Y-17950800D01*
D48*
X50612000Y-34862000D02*
X50600000Y-34850000D01*
X51800000Y-34862000D02*
X50612000Y-34862000D01*
D42*
X58949300Y-29558960D02*
X58950860Y-29560520D01*
X58949300Y-28098840D02*
X58949300Y-29558960D01*
D44*
X28194000Y-15011400D02*
X26974800Y-15011400D01*
D51*
X17032000Y-29170600D02*
X17043400Y-29159200D01*
X17032000Y-30963000D02*
X17032000Y-29170600D01*
X18490800Y-30963000D02*
X18491200Y-30962600D01*
X17032000Y-30963000D02*
X18490800Y-30963000D01*
D48*
X15925800Y-27203400D02*
X15951200Y-27228800D01*
X14732000Y-27203400D02*
X15925800Y-27203400D01*
X21720400Y-28012800D02*
X21717000Y-28016200D01*
X22930160Y-28012800D02*
X21720400Y-28012800D01*
D44*
X41682400Y-33400000D02*
X41681400Y-33401000D01*
X42638000Y-33400000D02*
X41682400Y-33400000D01*
X45975000Y-33400000D02*
X45974000Y-33401000D01*
X46938000Y-33400000D02*
X45975000Y-33400000D01*
D48*
X59826140Y-14126140D02*
X59800000Y-14100000D01*
X60900000Y-14126140D02*
X59826140Y-14126140D01*
X54573860Y-14126140D02*
X54600000Y-14100000D01*
X53500000Y-14126140D02*
X54573860Y-14126140D01*
D44*
X64262000Y-17500000D02*
X65300000Y-17500000D01*
X50538000Y-27700000D02*
X49500000Y-27700000D01*
X60202200Y-25900000D02*
X60224800Y-25922600D01*
X59262000Y-25900000D02*
X60202200Y-25900000D01*
X75056800Y-21984600D02*
X75624800Y-22552600D01*
X72824800Y-21984600D02*
X75056800Y-21984600D01*
X71262800Y-13322600D02*
X70224800Y-13322600D01*
X64324800Y-28460600D02*
X64324800Y-27422600D01*
D52*
X56950320Y-22640580D02*
X57162700Y-22428200D01*
X55695400Y-22435000D02*
X55702200Y-22428200D01*
D43*
X55695400Y-22435000D02*
X54533000Y-22435000D01*
D52*
X56950320Y-28098840D02*
X56950320Y-22640580D01*
D48*
X54533000Y-22435000D02*
X54533000Y-21165000D01*
D43*
X52362000Y-23138000D02*
X52100000Y-23400000D01*
X52362000Y-22300000D02*
X52362000Y-23138000D01*
X44660000Y-23400000D02*
X43900000Y-22640000D01*
X52100000Y-23400000D02*
X44660000Y-23400000D01*
D48*
X52497000Y-22435000D02*
X52362000Y-22300000D01*
X54533000Y-22435000D02*
X52497000Y-22435000D01*
D52*
X66967080Y-31050320D02*
X70494800Y-27522600D01*
X70494800Y-27522600D02*
X70262800Y-27522600D01*
X62401160Y-31050320D02*
X66967080Y-31050320D01*
D43*
X71854800Y-25092600D02*
X70262800Y-26684600D01*
X70262800Y-26684600D02*
X70262800Y-27522600D01*
X75624800Y-25092600D02*
X71854800Y-25092600D01*
D52*
X34569000Y-19062000D02*
X34535000Y-19096000D01*
X54800000Y-26350000D02*
X43375000Y-26350000D01*
X55449180Y-26999180D02*
X54800000Y-26350000D01*
X55449180Y-28098840D02*
X55449180Y-26999180D01*
X40700000Y-20200000D02*
X39562000Y-19062000D01*
X40700000Y-23675000D02*
X40700000Y-20200000D01*
X43375000Y-26350000D02*
X40700000Y-23675000D01*
X39562000Y-19062000D02*
X34569000Y-19062000D01*
D42*
X64259840Y-30049560D02*
X64324800Y-29984600D01*
X62401160Y-30049560D02*
X64259840Y-30049560D01*
D43*
X64962800Y-29984600D02*
X67959800Y-26987600D01*
X67959800Y-26987600D02*
X67959800Y-19125600D01*
X67959800Y-19125600D02*
X71262800Y-15822600D01*
X64324800Y-29984600D02*
X64962800Y-29984600D01*
X52062000Y-29350000D02*
X52062000Y-27700000D01*
D52*
X53349940Y-30549940D02*
X52150000Y-29350000D01*
X52150000Y-29350000D02*
X52062000Y-29350000D01*
X53998840Y-30549940D02*
X53349940Y-30549940D01*
X56252140Y-30549940D02*
X59424800Y-33722600D01*
D43*
X63652400Y-33756600D02*
X63652400Y-35200200D01*
X63652400Y-35200200D02*
X65444800Y-36992600D01*
D52*
X53998840Y-30549940D02*
X56252140Y-30549940D01*
D46*
X56192000Y-5516000D02*
X55176000Y-4500000D01*
X56192000Y-6278000D02*
X56192000Y-5516000D01*
X38892000Y-5516000D02*
X37876000Y-4500000D01*
X38892000Y-6278000D02*
X38892000Y-5516000D01*
D48*
X38892000Y-6278000D02*
X39028000Y-6278000D01*
D44*
X41514000Y-8900000D02*
X38892000Y-6278000D01*
X56200000Y-8900000D02*
X41514000Y-8900000D01*
X56200000Y-13752500D02*
X56247500Y-13800000D01*
X56200000Y-8900000D02*
X56200000Y-13752500D01*
D48*
X56247500Y-15800000D02*
X56200000Y-15847500D01*
X56247500Y-13800000D02*
X56247500Y-15800000D01*
D46*
X58224000Y-5516000D02*
X57208000Y-4500000D01*
X58224000Y-6278000D02*
X58224000Y-5516000D01*
X40924000Y-5516000D02*
X39908000Y-4500000D01*
X40924000Y-6278000D02*
X40924000Y-5516000D01*
D44*
X58152500Y-6349500D02*
X58224000Y-6278000D01*
X58152500Y-7700000D02*
X58152500Y-6349500D01*
X58152500Y-13800000D02*
X58152500Y-7700000D01*
X40978000Y-6278000D02*
X42400000Y-7700000D01*
X42400000Y-7700000D02*
X58152500Y-7700000D01*
X40924000Y-6278000D02*
X40978000Y-6278000D01*
D48*
X58152500Y-15800000D02*
X58200000Y-15847500D01*
X58152500Y-13800000D02*
X58152500Y-15800000D01*
D52*
X56449940Y-20949940D02*
X55395000Y-19895000D01*
X55395000Y-19895000D02*
X54533000Y-19895000D01*
X56449940Y-28098840D02*
X56449940Y-20949940D01*
D43*
X52362000Y-20938000D02*
X52100000Y-21200000D01*
X52362000Y-20100000D02*
X52362000Y-20938000D01*
X45000000Y-21200000D02*
X43900000Y-20100000D01*
X52100000Y-21200000D02*
X45000000Y-21200000D01*
D48*
X52567000Y-19895000D02*
X52362000Y-20100000D01*
X54533000Y-19895000D02*
X52567000Y-19895000D01*
D52*
X35112000Y-28485200D02*
X35375000Y-28485200D01*
D43*
X35375000Y-28485200D02*
X35127800Y-28485200D01*
D52*
X54900000Y-38700000D02*
X35940764Y-38700000D01*
X55449180Y-38150820D02*
X54900000Y-38700000D01*
X55449180Y-38150820D02*
X55449180Y-36501160D01*
X35375000Y-28485200D02*
X35091000Y-28485200D01*
X34417002Y-29159198D02*
X35091000Y-28485200D01*
X35940764Y-38700000D02*
X34417002Y-37176238D01*
X34417002Y-29159198D02*
X34417002Y-37176238D01*
D43*
X34886000Y-28485200D02*
X35375000Y-28485200D01*
X25740360Y-7894320D02*
X25740360Y-5990360D01*
X23500000Y-3750000D02*
X25740360Y-5990360D01*
X25740360Y-15401188D02*
X25740360Y-12966700D01*
X32193404Y-21854232D02*
X25740360Y-15401188D01*
X34886000Y-28485200D02*
X32193404Y-25792604D01*
X32193404Y-21854232D02*
X32193404Y-25792604D01*
D52*
X33238000Y-28485200D02*
X32975000Y-28485200D01*
D43*
X32975000Y-28485200D02*
X32962802Y-28485200D01*
D52*
X55089380Y-39157202D02*
X35675184Y-39157202D01*
X55949560Y-38297022D02*
X55089380Y-39157202D01*
X55949560Y-38297022D02*
X55949560Y-36501160D01*
X32975000Y-28485200D02*
X33235000Y-28485200D01*
X33959800Y-29210000D02*
X33235000Y-28485200D01*
X35675184Y-39157202D02*
X33959800Y-37441818D01*
X33959800Y-37441818D02*
X33959800Y-29210000D01*
D43*
X32975000Y-28289798D02*
X32975000Y-28485200D01*
X24902160Y-7894320D02*
X24902160Y-7152160D01*
X21500000Y-3750000D02*
X24902160Y-7152160D01*
X24902160Y-15541574D02*
X24902160Y-12969240D01*
X31609202Y-22248616D02*
X24902160Y-15541574D01*
X32975000Y-28289798D02*
X31609202Y-26924000D01*
X31609202Y-22248616D02*
X31609202Y-26924000D01*
D52*
X31288000Y-28485200D02*
X31025000Y-28485200D01*
X55278760Y-39614404D02*
X35460404Y-39614404D01*
X56449940Y-38443224D02*
X55278760Y-39614404D01*
X56449940Y-38443224D02*
X56449940Y-36501160D01*
X31025000Y-28485200D02*
X31338000Y-28485200D01*
X32000000Y-29147200D02*
X31338000Y-28485200D01*
X35460404Y-39614404D02*
X32000000Y-36154000D01*
X32000000Y-29147200D02*
X32000000Y-36154000D01*
D43*
X24061420Y-12966700D02*
X24061420Y-15654020D01*
X24023320Y-7894320D02*
X19879000Y-3750000D01*
X19879000Y-3750000D02*
X19500000Y-3750000D01*
X24063960Y-7894320D02*
X24023320Y-7894320D01*
X24061420Y-15654020D02*
X31025000Y-22617600D01*
X31025000Y-28485200D02*
X31025000Y-22617600D01*
D52*
X67698100Y-33049300D02*
X62401160Y-33049300D01*
X67698100Y-33049300D02*
X69424800Y-31322600D01*
X70262800Y-31322600D02*
X69424800Y-31322600D01*
X59950060Y-30647860D02*
X61124800Y-31822600D01*
D43*
X70224800Y-29422600D02*
X70262800Y-29422600D01*
X67824800Y-31822600D02*
X63624800Y-31822600D01*
X70224800Y-29422600D02*
X67824800Y-31822600D01*
D52*
X59950060Y-28098840D02*
X59950060Y-30647860D01*
D47*
X35844000Y-5262000D02*
X36860000Y-6278000D01*
X35844000Y-4500000D02*
X35844000Y-5262000D01*
X53144000Y-5262000D02*
X54160000Y-6278000D01*
X53144000Y-4500000D02*
X53144000Y-5262000D01*
X35844000Y-3906000D02*
X37100000Y-2650000D01*
X37100000Y-2650000D02*
X42700000Y-2650000D01*
X42700000Y-2650000D02*
X45312000Y-5262000D01*
X45312000Y-5262000D02*
X53144000Y-5262000D01*
X35844000Y-4500000D02*
X35844000Y-3906000D01*
D49*
X29300000Y-10500000D02*
X35300000Y-4500000D01*
X35300000Y-4500000D02*
X35844000Y-4500000D01*
X28199920Y-10500000D02*
X29300000Y-10500000D01*
D44*
X28194000Y-10505920D02*
X28199920Y-10500000D01*
X28194000Y-13487400D02*
X28194000Y-10505920D01*
D47*
X18830160Y-24350800D02*
X22977660Y-24350800D01*
D44*
X22930160Y-24398300D02*
X22977660Y-24350800D01*
X22930160Y-26488800D02*
X22930160Y-24398300D01*
D46*
X22977660Y-21298300D02*
X22930160Y-21250800D01*
D50*
X12432000Y-24352640D02*
X12430160Y-24350800D01*
X12432000Y-30963000D02*
X12432000Y-24352640D01*
D47*
X12430160Y-24350800D02*
X18830160Y-24350800D01*
X9347020Y-24350800D02*
X9344660Y-24348440D01*
X12430160Y-24350800D02*
X9347020Y-24350800D01*
X12430160Y-22073200D02*
X12435840Y-22067520D01*
X12430160Y-24350800D02*
X12430160Y-22073200D01*
D45*
X12430160Y-17950800D02*
X12430160Y-22073200D01*
D46*
X22977660Y-24350800D02*
X22977660Y-21298300D01*
D48*
X15090140Y-30502860D02*
X14693000Y-30900000D01*
D50*
X21063000Y-37363000D02*
X21100000Y-37400000D01*
X14732000Y-37363000D02*
X21063000Y-37363000D01*
X24415500Y-37400000D02*
X24515500Y-37300000D01*
X21100000Y-37400000D02*
X24415500Y-37400000D01*
D44*
X14732000Y-28727400D02*
X14732000Y-30963000D01*
D46*
X24515500Y-33329300D02*
X24511000Y-33324800D01*
X24515500Y-37300000D02*
X24515500Y-33329300D01*
D47*
X14732000Y-35610800D02*
X14732000Y-34950400D01*
X14732000Y-37363000D02*
X14732000Y-35610800D01*
X11227200Y-37363000D02*
X11226800Y-37363400D01*
X14732000Y-37363000D02*
X11227200Y-37363000D01*
D45*
X14732000Y-30963000D02*
X14732000Y-35610800D01*
D52*
X45510920Y-32051080D02*
X44162000Y-33400000D01*
X53998840Y-32051080D02*
X45510920Y-32051080D01*
D48*
X44162000Y-34938000D02*
X42000000Y-37100000D01*
X42000000Y-37100000D02*
X38950200Y-37100000D01*
X44162000Y-33400000D02*
X44162000Y-34938000D01*
D52*
X49313080Y-32548920D02*
X48462000Y-33400000D01*
X53998840Y-32548920D02*
X49313080Y-32548920D01*
D48*
X48462000Y-37087800D02*
X48449800Y-37100000D01*
X48462000Y-33400000D02*
X48462000Y-37087800D01*
D49*
X21800000Y-11500000D02*
X22800000Y-10500000D01*
X21800000Y-12200000D02*
X21800000Y-11500000D01*
X22800000Y-10500000D02*
X24400080Y-10500000D01*
D48*
X53473860Y-17500000D02*
X53500000Y-17473860D01*
X58535000Y-22435000D02*
X57200000Y-21100000D01*
X59867000Y-22435000D02*
X58535000Y-22435000D01*
X57200000Y-18952500D02*
X56100000Y-17852500D01*
X57200000Y-21100000D02*
X57200000Y-18952500D01*
X55921360Y-17473860D02*
X56200000Y-17752500D01*
X53500000Y-17473860D02*
X55921360Y-17473860D01*
X52873860Y-17473860D02*
X52600000Y-17200000D01*
X52600000Y-17200000D02*
X51817600Y-17200000D01*
X53500000Y-17473860D02*
X52873860Y-17473860D01*
X62711860Y-17473860D02*
X62738000Y-17500000D01*
X60900000Y-17473860D02*
X62711860Y-17473860D01*
X58478640Y-17473860D02*
X58200000Y-17752500D01*
X60900000Y-17473860D02*
X58478640Y-17473860D01*
X58200000Y-20600000D02*
X58765000Y-21165000D01*
X58765000Y-21165000D02*
X59867000Y-21165000D01*
X58200000Y-17752500D02*
X58200000Y-20600000D01*
X49582400Y-17200000D02*
X48262000Y-17200000D01*
D44*
X49842000Y-13789500D02*
X49852500Y-13800000D01*
D48*
X49852500Y-11114500D02*
X49842000Y-11104000D01*
X49852500Y-13800000D02*
X49852500Y-11114500D01*
D44*
X34696000Y-11104000D02*
X33635000Y-12165000D01*
X33635000Y-12165000D02*
X33635000Y-13934180D01*
X34828000Y-11104000D02*
X34696000Y-11104000D01*
D48*
X36032000Y-9900000D02*
X34828000Y-11104000D01*
X45500000Y-9900000D02*
X36032000Y-9900000D01*
X61704000Y-11104000D02*
X63100000Y-12500000D01*
X63100000Y-12500000D02*
X64200000Y-12500000D01*
X64200000Y-12500000D02*
X64852500Y-13152500D01*
X64852500Y-13152500D02*
X64852500Y-14300000D01*
X61272000Y-11104000D02*
X61704000Y-11104000D01*
D44*
X40400000Y-13400000D02*
X41301600Y-12498400D01*
X41301600Y-12498400D02*
X44863600Y-12498400D01*
X44863600Y-12498400D02*
X46258000Y-11104000D01*
X40400000Y-13900180D02*
X40400000Y-13400000D01*
D48*
X47462000Y-9900000D02*
X46258000Y-11104000D01*
X63558000Y-10958000D02*
X62500000Y-9900000D01*
X62500000Y-9900000D02*
X59100000Y-9900000D01*
X63558000Y-11104000D02*
X63558000Y-10958000D01*
X55100000Y-9900000D02*
X47462000Y-9900000D01*
D44*
X30347500Y-13652500D02*
X32542000Y-11458000D01*
X32542000Y-11458000D02*
X32542000Y-11104000D01*
X30226000Y-13652500D02*
X30347500Y-13652500D01*
X36900000Y-12200000D02*
X37996000Y-11104000D01*
X37996000Y-11104000D02*
X43972000Y-11104000D01*
X36900000Y-13647500D02*
X36900000Y-12200000D01*
X72786800Y-13322600D02*
X75584800Y-13322600D01*
X75584800Y-13322600D02*
X75624800Y-13282600D01*
X72786800Y-15822600D02*
X75624800Y-15822600D01*
X75564800Y-18422600D02*
X75624800Y-18362600D01*
X72786800Y-18422600D02*
X75564800Y-18422600D01*
D46*
X75624800Y-34432600D02*
X75604800Y-34452600D01*
X75624800Y-31375100D02*
X75624800Y-34432600D01*
D43*
X73124800Y-29422600D02*
X74324800Y-30622600D01*
X74324800Y-30622600D02*
X74324800Y-35712600D01*
X74324800Y-35712600D02*
X75604800Y-36992600D01*
X71786800Y-29422600D02*
X73124800Y-29422600D01*
X71786800Y-35714600D02*
X73064800Y-36992600D01*
X71786800Y-31322600D02*
X71786800Y-35714600D01*
X34535000Y-16186320D02*
X34587500Y-16133820D01*
X34535000Y-17572000D02*
X34535000Y-16186320D01*
X41300000Y-16152320D02*
X41352500Y-16099820D01*
X41300000Y-17538000D02*
X41300000Y-16152320D01*
D52*
X52112320Y-31050320D02*
X52062000Y-31000000D01*
X53998840Y-31050320D02*
X52112320Y-31050320D01*
X55949560Y-24249560D02*
X55405000Y-23705000D01*
X55405000Y-23705000D02*
X54533000Y-23705000D01*
X55949560Y-28098840D02*
X55949560Y-24249560D01*
D43*
X41300000Y-22580000D02*
X43900000Y-25180000D01*
X41300000Y-19062000D02*
X41300000Y-22580000D01*
X52362000Y-24500000D02*
X52362000Y-25238000D01*
X52362000Y-25238000D02*
X52000000Y-25600000D01*
X44320000Y-25600000D02*
X43900000Y-25180000D01*
X52000000Y-25600000D02*
X44320000Y-25600000D01*
D48*
X53157000Y-23705000D02*
X52362000Y-24500000D01*
X54533000Y-23705000D02*
X53157000Y-23705000D01*
M02*
