G04 #@! TF.FileFunction,Copper,L2,Bot,Signal*
%FSLAX46Y46*%
G04 Gerber Fmt 4.6, Leading zero omitted, Abs format (unit mm)*
G04 Created by KiCad (PCBNEW (2014-jul-16 BZR unknown)-product) date Ter 09 Dez 2014 17:14:19 BRST*
%MOMM*%
G01*
G04 APERTURE LIST*
%ADD10C,0.150000*%
%ADD11C,1.600000*%
%ADD12R,1.600000X1.600000*%
%ADD13C,4.500000*%
%ADD14C,1.320800*%
%ADD15C,3.251200*%
%ADD16R,1.524000X1.524000*%
%ADD17C,1.524000*%
%ADD18R,1.250000X1.250000*%
%ADD19C,1.250000*%
%ADD20C,1.550000*%
%ADD21R,1.700000X1.700000*%
%ADD22C,0.889000*%
%ADD23C,1.270000*%
%ADD24C,0.635000*%
%ADD25C,0.508000*%
%ADD26C,1.016000*%
%ADD27C,1.524000*%
%ADD28C,0.508000*%
%ADD29C,0.762000*%
%ADD30C,2.540000*%
%ADD31C,0.381000*%
%ADD32C,0.254000*%
%ADD33C,0.635000*%
G04 APERTURE END LIST*
D10*
D11*
X8100000Y-13600000D03*
D12*
X10100000Y-13600000D03*
D11*
X18830160Y-22350800D03*
D12*
X18830160Y-24350800D03*
D11*
X21100000Y-35400000D03*
D12*
X21100000Y-37400000D03*
D13*
X75850000Y-7500000D03*
X68350000Y-7500000D03*
X75850000Y-2500000D03*
X68350000Y-2500000D03*
X10050000Y-7500000D03*
X2550000Y-7500000D03*
X10050000Y-2500000D03*
X2550000Y-2500000D03*
D14*
X49842000Y-11104000D03*
X52128000Y-11104000D03*
X61272000Y-11104000D03*
X63558000Y-11104000D03*
X60256000Y-6278000D03*
X58224000Y-6278000D03*
X56192000Y-6278000D03*
X54160000Y-6278000D03*
X57208000Y-4500000D03*
X55176000Y-4500000D03*
X59240000Y-4500000D03*
X53144000Y-4500000D03*
D15*
X50350000Y-1960000D03*
X63050000Y-1960000D03*
D14*
X32542000Y-11104000D03*
X34828000Y-11104000D03*
X43972000Y-11104000D03*
X46258000Y-11104000D03*
X42956000Y-6278000D03*
X40924000Y-6278000D03*
X38892000Y-6278000D03*
X36860000Y-6278000D03*
X39908000Y-4500000D03*
X37876000Y-4500000D03*
X41940000Y-4500000D03*
X35844000Y-4500000D03*
D15*
X33050000Y-1960000D03*
X45750000Y-1960000D03*
D16*
X75624800Y-13282600D03*
D17*
X75624800Y-15822600D03*
X75624800Y-18362600D03*
D16*
X75604800Y-34452600D03*
D17*
X75604800Y-36992600D03*
X73064800Y-34452600D03*
X73064800Y-36992600D03*
X70524800Y-34452600D03*
X70524800Y-36992600D03*
X67984800Y-34452600D03*
X67984800Y-36992600D03*
X65444800Y-34452600D03*
X65444800Y-36992600D03*
D16*
X75624800Y-22552600D03*
D17*
X75624800Y-25092600D03*
D18*
X25500000Y-3750000D03*
D19*
X21500000Y-3750000D03*
X19500000Y-3750000D03*
D20*
X28500000Y-2500000D03*
X14500000Y-2500000D03*
D19*
X23500000Y-3750000D03*
D21*
X22930160Y-21250800D03*
X24511000Y-33324800D03*
D16*
X41300400Y-14935200D03*
D17*
X43840400Y-14935200D03*
X41300400Y-17475200D03*
X43840400Y-17475200D03*
X41300400Y-20015200D03*
X43840400Y-20015200D03*
X41300400Y-22555200D03*
X43840400Y-22555200D03*
X41300400Y-25095200D03*
X43840400Y-25095200D03*
D22*
X35382200Y-30988000D03*
X32969200Y-30988000D03*
X31038800Y-30988000D03*
D23*
X32925000Y-38925000D03*
X52950000Y-37400000D03*
D22*
X55000000Y-12200000D03*
X59300000Y-12200000D03*
D23*
X57683400Y-38912800D03*
D24*
X49987200Y-24503000D03*
X49987200Y-20083400D03*
X49987200Y-22293200D03*
D22*
X59900000Y-18700000D03*
X54700000Y-18700000D03*
D23*
X29591000Y-24358600D03*
D22*
X38912800Y-17757140D03*
X64500000Y-19900000D03*
X61200000Y-23700000D03*
X55458360Y-31551880D03*
X32685000Y-17284000D03*
X5430160Y-17950800D03*
D23*
X14730160Y-16150800D03*
X16330160Y-17950800D03*
D22*
X50600000Y-34850000D03*
X58950860Y-29560520D03*
X26974800Y-15011400D03*
D23*
X17043400Y-29159200D03*
X18491200Y-30962600D03*
D22*
X15951200Y-27228800D03*
X21717000Y-28016200D03*
X41681400Y-33401000D03*
X45974000Y-33401000D03*
X59800000Y-14100000D03*
X54600000Y-14100000D03*
X65300000Y-17500000D03*
X49500000Y-27700000D03*
X60224800Y-25922600D03*
X70224800Y-13322600D03*
X64324800Y-27422600D03*
X34610040Y-21701760D03*
D25*
X55702200Y-22428200D03*
X57162700Y-22428200D03*
D22*
X49029620Y-23088600D03*
X34660840Y-20350480D03*
D25*
X54488080Y-28049220D03*
D24*
X63652400Y-33756600D03*
X59424800Y-33722600D03*
D22*
X56200000Y-8900000D03*
D24*
X25740360Y-7894320D03*
X25740360Y-12966700D03*
X24902160Y-7894320D03*
X24902160Y-12969240D03*
X24063960Y-7894320D03*
X24061420Y-12966700D03*
X61124800Y-31822600D03*
X63624800Y-31822600D03*
X45500000Y-9900000D03*
X59100000Y-9900000D03*
X55100000Y-9900000D03*
D22*
X38272720Y-16487140D03*
X38285420Y-14008100D03*
D25*
X49382680Y-25600000D03*
X39395400Y-27178000D03*
X49169320Y-22026880D03*
X48762920Y-26289000D03*
D26*
X35382200Y-30988000D02*
X32969200Y-30988000D01*
X32969200Y-30988000D02*
X31038800Y-30988000D01*
D27*
X32925000Y-38925000D02*
X52959000Y-38925000D01*
X52950000Y-38925000D02*
X52959000Y-38925000D01*
X52950000Y-37400000D02*
X52950000Y-38925000D01*
D28*
X59300000Y-12200000D02*
X55000000Y-12200000D01*
D27*
X52959000Y-38925000D02*
X57671200Y-38925000D01*
X57671200Y-38925000D02*
X57683400Y-38912800D01*
D28*
X49987200Y-22293200D02*
X49987200Y-24503000D01*
X49987200Y-20083400D02*
X49987200Y-22293200D01*
D29*
X59900000Y-18700000D02*
X54700000Y-18700000D01*
X30378400Y-24358600D02*
X33629600Y-21107400D01*
X33629600Y-21107400D02*
X33629600Y-17780000D01*
X29591000Y-24358600D02*
X30378400Y-24358600D01*
X38889940Y-17780000D02*
X38912800Y-17757140D01*
X33629600Y-17780000D02*
X38889940Y-17780000D01*
D30*
X2550000Y-2500000D02*
X10050000Y-2500000D01*
X2550000Y-7500000D02*
X2550000Y-2500000D01*
X10050000Y-7500000D02*
X2550000Y-7500000D01*
X10050000Y-2500000D02*
X10050000Y-7500000D01*
X5050000Y-2500000D02*
X10050000Y-7500000D01*
X2550000Y-2500000D02*
X5050000Y-2500000D01*
X71334000Y-2500000D02*
X68350000Y-2500000D01*
X73350000Y-4516000D02*
X71334000Y-2500000D01*
X73350000Y-7500000D02*
X73350000Y-4516000D01*
X71025000Y-5175000D02*
X73350000Y-7500000D01*
X68350000Y-2500000D02*
X71025000Y-5175000D01*
X68350000Y-7500000D02*
X68350000Y-2500000D01*
X75850000Y-7500000D02*
X68350000Y-7500000D01*
X75850000Y-2500000D02*
X75850000Y-7500000D01*
X68350000Y-2500000D02*
X75850000Y-2500000D01*
X6644000Y-2500000D02*
X10050000Y-2500000D01*
X2550000Y-6594000D02*
X6644000Y-2500000D01*
X2550000Y-7500000D02*
X2550000Y-6594000D01*
X5050000Y-7500000D02*
X10050000Y-2500000D01*
X2550000Y-7500000D02*
X5050000Y-7500000D01*
X68700000Y-7500000D02*
X71025000Y-5175000D01*
X68350000Y-7500000D02*
X68700000Y-7500000D01*
X68350000Y-10136000D02*
X68326000Y-10160000D01*
X68350000Y-7500000D02*
X68350000Y-10136000D01*
X65158000Y-7500000D02*
X65024000Y-7366000D01*
X68350000Y-7500000D02*
X65158000Y-7500000D01*
X75850000Y-10064000D02*
X75946000Y-10160000D01*
X75850000Y-7500000D02*
X75850000Y-10064000D01*
X13088000Y-7500000D02*
X13208000Y-7620000D01*
X10050000Y-7500000D02*
X13088000Y-7500000D01*
X10050000Y-10270000D02*
X9906000Y-10414000D01*
X10050000Y-7500000D02*
X10050000Y-10270000D01*
X2550000Y-9916000D02*
X2794000Y-10160000D01*
X2550000Y-7500000D02*
X2550000Y-9916000D01*
D31*
X55702200Y-22428200D02*
X57162700Y-22428200D01*
X49029620Y-23088600D02*
X48389540Y-23728680D01*
X48389540Y-23728680D02*
X45206920Y-23728680D01*
X45206920Y-23728680D02*
X43840400Y-25095200D01*
D32*
X39400480Y-28529280D02*
X52852320Y-28529280D01*
X35407600Y-24536400D02*
X39400480Y-28529280D01*
X35407600Y-21097240D02*
X35407600Y-24536400D01*
X34660840Y-20350480D02*
X35407600Y-21097240D01*
X54008020Y-28529280D02*
X54488080Y-28049220D01*
X52852320Y-28529280D02*
X54008020Y-28529280D01*
D31*
X59458800Y-33756600D02*
X63652400Y-33756600D01*
D32*
X59424800Y-33722600D02*
X59458800Y-33756600D01*
D29*
X56192000Y-6278000D02*
X56192000Y-8892000D01*
D33*
X56192000Y-8892000D02*
X56200000Y-8900000D01*
D31*
X25740360Y-7894320D02*
X25740360Y-12966700D01*
X24902160Y-7894320D02*
X24902160Y-12969240D01*
X24061420Y-7896860D02*
X24063960Y-7894320D01*
X24061420Y-12966700D02*
X24061420Y-7896860D01*
X63624800Y-31822600D02*
X61124800Y-31822600D01*
D28*
X52128000Y-11104000D02*
X52104000Y-11104000D01*
X50900000Y-9900000D02*
X45500000Y-9900000D01*
X52104000Y-11104000D02*
X50900000Y-9900000D01*
X59100000Y-9900000D02*
X55100000Y-9900000D01*
D29*
X38272720Y-16487140D02*
X38285420Y-16474440D01*
X38285420Y-16474440D02*
X38285420Y-14008100D01*
D32*
X45643800Y-28067000D02*
X45643800Y-28072078D01*
X47843440Y-28072078D02*
X45643800Y-28072078D01*
X49390300Y-26525218D02*
X47843440Y-28072078D01*
X49390300Y-25607620D02*
X49390300Y-26525218D01*
X49390300Y-25607620D02*
X49382680Y-25600000D01*
X45643800Y-28067000D02*
X45643800Y-28067000D01*
X45643800Y-28067000D02*
X40284400Y-28067000D01*
X40284400Y-28067000D02*
X39395400Y-27178000D01*
X42570400Y-25626060D02*
X42570400Y-21285200D01*
X42570400Y-21285200D02*
X43840400Y-20015200D01*
X47157640Y-20015200D02*
X49169320Y-22026880D01*
X43840400Y-20015200D02*
X47157640Y-20015200D01*
X48762920Y-26289000D02*
X48265080Y-25791160D01*
X48265080Y-25791160D02*
X46255940Y-25791160D01*
X46255940Y-25791160D02*
X45562520Y-26484580D01*
X45562520Y-26484580D02*
X43428920Y-26484580D01*
X43428920Y-26484580D02*
X42570400Y-25626060D01*
G36*
X77792000Y-39392000D02*
X77021800Y-39392000D01*
X77021800Y-23440909D01*
X77021800Y-22838350D01*
X77021800Y-22266850D01*
X77021800Y-21664291D01*
X76925127Y-21430902D01*
X76746499Y-21252273D01*
X76513110Y-21155600D01*
X76260491Y-21155600D01*
X75910550Y-21155600D01*
X75751800Y-21314350D01*
X75751800Y-22425600D01*
X76863050Y-22425600D01*
X77021800Y-22266850D01*
X77021800Y-22838350D01*
X76863050Y-22679600D01*
X75751800Y-22679600D01*
X75751800Y-22699600D01*
X75497800Y-22699600D01*
X75497800Y-22679600D01*
X75497800Y-22425600D01*
X75497800Y-21314350D01*
X75339050Y-21155600D01*
X74989109Y-21155600D01*
X74736490Y-21155600D01*
X74503101Y-21252273D01*
X74324473Y-21430902D01*
X74227800Y-21664291D01*
X74227800Y-22266850D01*
X74386550Y-22425600D01*
X75497800Y-22425600D01*
X75497800Y-22679600D01*
X74386550Y-22679600D01*
X74227800Y-22838350D01*
X74227800Y-23440909D01*
X74324473Y-23674298D01*
X74503101Y-23852927D01*
X74736490Y-23949600D01*
X74989109Y-23949600D01*
X75065392Y-23949600D01*
X74906342Y-24015318D01*
X74548774Y-24372263D01*
X74355021Y-24838873D01*
X74354580Y-25344110D01*
X74547518Y-25811058D01*
X74904463Y-26168626D01*
X75371073Y-26362379D01*
X75876310Y-26362820D01*
X76343258Y-26169882D01*
X76700826Y-25812937D01*
X76894579Y-25346327D01*
X76895020Y-24841090D01*
X76702082Y-24374142D01*
X76345137Y-24016574D01*
X76183845Y-23949600D01*
X76260491Y-23949600D01*
X76513110Y-23949600D01*
X76746499Y-23852927D01*
X76925127Y-23674298D01*
X77021800Y-23440909D01*
X77021800Y-39392000D01*
X76884752Y-39392000D01*
X76884752Y-35214600D01*
X76884752Y-33690600D01*
X76847170Y-33496901D01*
X76735339Y-33326658D01*
X76566512Y-33212699D01*
X76366800Y-33172648D01*
X74842800Y-33172648D01*
X74649101Y-33210230D01*
X74478858Y-33322061D01*
X74364899Y-33490888D01*
X74324848Y-33690600D01*
X74324848Y-33812354D01*
X74287197Y-33721457D01*
X74045013Y-33651992D01*
X73865408Y-33831597D01*
X73865408Y-33472387D01*
X73795943Y-33230203D01*
X73272498Y-33043456D01*
X72717432Y-33071238D01*
X72333657Y-33230203D01*
X72264192Y-33472387D01*
X73064800Y-34272995D01*
X73865408Y-33472387D01*
X73865408Y-33831597D01*
X73244405Y-34452600D01*
X74045013Y-35253208D01*
X74287197Y-35183743D01*
X74324848Y-35078208D01*
X74324848Y-35214600D01*
X74362430Y-35408299D01*
X74474261Y-35578542D01*
X74643088Y-35692501D01*
X74842800Y-35732552D01*
X75328671Y-35732552D01*
X74886342Y-35915318D01*
X74528774Y-36272263D01*
X74335021Y-36738873D01*
X74335019Y-36741087D01*
X74142082Y-36274142D01*
X73785137Y-35916574D01*
X73499283Y-35797877D01*
X73795943Y-35674997D01*
X73865408Y-35432813D01*
X73064800Y-34632205D01*
X72885195Y-34811810D01*
X72885195Y-34452600D01*
X72084587Y-33651992D01*
X71842403Y-33721457D01*
X71798347Y-33844944D01*
X71747197Y-33721457D01*
X71505013Y-33651992D01*
X71325408Y-33831597D01*
X71325408Y-33472387D01*
X71255943Y-33230203D01*
X70732498Y-33043456D01*
X70177432Y-33071238D01*
X69793657Y-33230203D01*
X69724192Y-33472387D01*
X70524800Y-34272995D01*
X71325408Y-33472387D01*
X71325408Y-33831597D01*
X70704405Y-34452600D01*
X71505013Y-35253208D01*
X71747197Y-35183743D01*
X71791252Y-35060255D01*
X71842403Y-35183743D01*
X72084587Y-35253208D01*
X72885195Y-34452600D01*
X72885195Y-34811810D01*
X72264192Y-35432813D01*
X72333657Y-35674997D01*
X72652587Y-35788780D01*
X72346342Y-35915318D01*
X71988774Y-36272263D01*
X71795021Y-36738873D01*
X71795019Y-36741087D01*
X71602082Y-36274142D01*
X71245137Y-35916574D01*
X70959283Y-35797877D01*
X71255943Y-35674997D01*
X71325408Y-35432813D01*
X70524800Y-34632205D01*
X70345195Y-34811810D01*
X70345195Y-34452600D01*
X69544587Y-33651992D01*
X69302403Y-33721457D01*
X69258347Y-33844944D01*
X69207197Y-33721457D01*
X68965013Y-33651992D01*
X68785408Y-33831597D01*
X68785408Y-33472387D01*
X68715943Y-33230203D01*
X68192498Y-33043456D01*
X67637432Y-33071238D01*
X67253657Y-33230203D01*
X67184192Y-33472387D01*
X67984800Y-34272995D01*
X68785408Y-33472387D01*
X68785408Y-33831597D01*
X68164405Y-34452600D01*
X68965013Y-35253208D01*
X69207197Y-35183743D01*
X69251252Y-35060255D01*
X69302403Y-35183743D01*
X69544587Y-35253208D01*
X70345195Y-34452600D01*
X70345195Y-34811810D01*
X69724192Y-35432813D01*
X69793657Y-35674997D01*
X70112587Y-35788780D01*
X69806342Y-35915318D01*
X69448774Y-36272263D01*
X69255021Y-36738873D01*
X69255019Y-36741087D01*
X69062082Y-36274142D01*
X68705137Y-35916574D01*
X68419283Y-35797877D01*
X68715943Y-35674997D01*
X68785408Y-35432813D01*
X67984800Y-34632205D01*
X67805195Y-34811810D01*
X67805195Y-34452600D01*
X67004587Y-33651992D01*
X66762403Y-33721457D01*
X66718347Y-33844944D01*
X66667197Y-33721457D01*
X66425013Y-33651992D01*
X66245408Y-33831597D01*
X66245408Y-33472387D01*
X66175943Y-33230203D01*
X65652498Y-33043456D01*
X65097432Y-33071238D01*
X64713657Y-33230203D01*
X64644192Y-33472387D01*
X65444800Y-34272995D01*
X66245408Y-33472387D01*
X66245408Y-33831597D01*
X65624405Y-34452600D01*
X66425013Y-35253208D01*
X66667197Y-35183743D01*
X66711252Y-35060255D01*
X66762403Y-35183743D01*
X67004587Y-35253208D01*
X67805195Y-34452600D01*
X67805195Y-34811810D01*
X67184192Y-35432813D01*
X67253657Y-35674997D01*
X67572587Y-35788780D01*
X67266342Y-35915318D01*
X66908774Y-36272263D01*
X66715021Y-36738873D01*
X66715019Y-36741087D01*
X66522082Y-36274142D01*
X66165137Y-35916574D01*
X65879283Y-35797877D01*
X66175943Y-35674997D01*
X66245408Y-35432813D01*
X65444800Y-34632205D01*
X65265195Y-34811810D01*
X65265195Y-34452600D01*
X64477980Y-33665385D01*
X64478043Y-33593118D01*
X64450443Y-33526320D01*
X64450443Y-31659118D01*
X64325033Y-31355602D01*
X64093019Y-31123183D01*
X63789723Y-30997243D01*
X63461318Y-30996957D01*
X63157802Y-31122367D01*
X63156065Y-31124100D01*
X61593934Y-31124100D01*
X61593019Y-31123183D01*
X61289723Y-30997243D01*
X60961318Y-30996957D01*
X60852665Y-31041851D01*
X60852665Y-18511367D01*
X60707961Y-18161157D01*
X60440253Y-17892980D01*
X60252665Y-17815086D01*
X60252665Y-12011367D01*
X60107961Y-11661157D01*
X59840253Y-11392980D01*
X59490295Y-11247665D01*
X59111367Y-11247335D01*
X58761157Y-11392039D01*
X58715115Y-11438000D01*
X55585194Y-11438000D01*
X55540253Y-11392980D01*
X55190295Y-11247665D01*
X54811367Y-11247335D01*
X54461157Y-11392039D01*
X54192980Y-11659747D01*
X54047665Y-12009705D01*
X54047335Y-12388633D01*
X54192039Y-12738843D01*
X54459747Y-13007020D01*
X54809705Y-13152335D01*
X55188633Y-13152665D01*
X55538843Y-13007961D01*
X55584884Y-12962000D01*
X58714805Y-12962000D01*
X58759747Y-13007020D01*
X59109705Y-13152335D01*
X59488633Y-13152665D01*
X59838843Y-13007961D01*
X60107020Y-12740253D01*
X60252335Y-12390295D01*
X60252665Y-12011367D01*
X60252665Y-17815086D01*
X60090295Y-17747665D01*
X59711367Y-17747335D01*
X59557286Y-17811000D01*
X55042822Y-17811000D01*
X54890295Y-17747665D01*
X54511367Y-17747335D01*
X54161157Y-17892039D01*
X53892980Y-18159747D01*
X53747665Y-18509705D01*
X53747335Y-18888633D01*
X53892039Y-19238843D01*
X54159747Y-19507020D01*
X54509705Y-19652335D01*
X54888633Y-19652665D01*
X55042713Y-19589000D01*
X59557177Y-19589000D01*
X59709705Y-19652335D01*
X60088633Y-19652665D01*
X60438843Y-19507961D01*
X60707020Y-19240253D01*
X60852335Y-18890295D01*
X60852665Y-18511367D01*
X60852665Y-31041851D01*
X60657802Y-31122367D01*
X60425383Y-31354381D01*
X60299443Y-31657677D01*
X60299157Y-31986082D01*
X60424567Y-32289598D01*
X60656581Y-32522017D01*
X60959877Y-32647957D01*
X61288282Y-32648243D01*
X61591798Y-32522833D01*
X61593534Y-32521100D01*
X63155665Y-32521100D01*
X63156581Y-32522017D01*
X63459877Y-32647957D01*
X63788282Y-32648243D01*
X64091798Y-32522833D01*
X64324217Y-32290819D01*
X64450157Y-31987523D01*
X64450443Y-31659118D01*
X64450443Y-33526320D01*
X64352633Y-33289602D01*
X64120619Y-33057183D01*
X63817323Y-32931243D01*
X63488918Y-32930957D01*
X63185402Y-33056367D01*
X63183665Y-33058100D01*
X59927875Y-33058100D01*
X59893019Y-33023183D01*
X59589723Y-32897243D01*
X59261318Y-32896957D01*
X58957802Y-33022367D01*
X58725383Y-33254381D01*
X58599443Y-33557677D01*
X58599157Y-33886082D01*
X58724567Y-34189598D01*
X58956581Y-34422017D01*
X59259877Y-34547957D01*
X59588282Y-34548243D01*
X59813705Y-34455100D01*
X63183265Y-34455100D01*
X63184181Y-34456017D01*
X63487477Y-34581957D01*
X63815882Y-34582243D01*
X64047745Y-34486439D01*
X64063438Y-34799968D01*
X64222403Y-35183743D01*
X64464587Y-35253208D01*
X65265195Y-34452600D01*
X65265195Y-34811810D01*
X64644192Y-35432813D01*
X64713657Y-35674997D01*
X65032587Y-35788780D01*
X64726342Y-35915318D01*
X64368774Y-36272263D01*
X64175021Y-36738873D01*
X64174580Y-37244110D01*
X64367518Y-37711058D01*
X64724463Y-38068626D01*
X65191073Y-38262379D01*
X65696310Y-38262820D01*
X66163258Y-38069882D01*
X66520826Y-37712937D01*
X66714579Y-37246327D01*
X66714580Y-37244112D01*
X66907518Y-37711058D01*
X67264463Y-38068626D01*
X67731073Y-38262379D01*
X68236310Y-38262820D01*
X68703258Y-38069882D01*
X69060826Y-37712937D01*
X69254579Y-37246327D01*
X69254580Y-37244112D01*
X69447518Y-37711058D01*
X69804463Y-38068626D01*
X70271073Y-38262379D01*
X70776310Y-38262820D01*
X71243258Y-38069882D01*
X71600826Y-37712937D01*
X71794579Y-37246327D01*
X71794580Y-37244112D01*
X71987518Y-37711058D01*
X72344463Y-38068626D01*
X72811073Y-38262379D01*
X73316310Y-38262820D01*
X73783258Y-38069882D01*
X74140826Y-37712937D01*
X74334579Y-37246327D01*
X74334580Y-37244112D01*
X74527518Y-37711058D01*
X74884463Y-38068626D01*
X75351073Y-38262379D01*
X75856310Y-38262820D01*
X76323258Y-38069882D01*
X76680826Y-37712937D01*
X76874579Y-37246327D01*
X76875020Y-36741090D01*
X76682082Y-36274142D01*
X76325137Y-35916574D01*
X75881961Y-35732552D01*
X76366800Y-35732552D01*
X76560499Y-35694970D01*
X76730742Y-35583139D01*
X76844701Y-35414312D01*
X76884752Y-35214600D01*
X76884752Y-39392000D01*
X58858081Y-39392000D01*
X58953400Y-38912800D01*
X58856727Y-38426792D01*
X58581425Y-38014775D01*
X58169408Y-37739473D01*
X57924832Y-37690823D01*
X57924832Y-22277294D01*
X57809068Y-21997126D01*
X57594902Y-21782585D01*
X57314936Y-21666333D01*
X57011794Y-21666068D01*
X56857794Y-21729700D01*
X56007040Y-21729700D01*
X55854436Y-21666333D01*
X55551294Y-21666068D01*
X55271126Y-21781832D01*
X55056585Y-21995998D01*
X54940333Y-22275964D01*
X54940068Y-22579106D01*
X55055832Y-22859274D01*
X55269998Y-23073815D01*
X55549964Y-23190067D01*
X55853106Y-23190332D01*
X56007105Y-23126700D01*
X56857859Y-23126700D01*
X57010464Y-23190067D01*
X57313606Y-23190332D01*
X57593774Y-23074568D01*
X57808315Y-22860402D01*
X57924567Y-22580436D01*
X57924832Y-22277294D01*
X57924832Y-37690823D01*
X57683400Y-37642800D01*
X57622066Y-37655000D01*
X55250212Y-37655000D01*
X55250212Y-27898314D01*
X55134448Y-27618146D01*
X54920282Y-27403605D01*
X54640316Y-27287353D01*
X54337174Y-27287088D01*
X54057006Y-27402852D01*
X53842465Y-27617018D01*
X53727335Y-27894280D01*
X53296602Y-27894280D01*
X53296602Y-10872611D01*
X53119099Y-10443019D01*
X52790709Y-10114057D01*
X52361429Y-9935804D01*
X52013129Y-9935499D01*
X51438815Y-9361185D01*
X51191605Y-9196004D01*
X50900000Y-9138000D01*
X45817502Y-9138000D01*
X45664923Y-9074643D01*
X45336518Y-9074357D01*
X45033002Y-9199767D01*
X44800583Y-9431781D01*
X44674643Y-9735077D01*
X44674357Y-10063482D01*
X44738012Y-10217540D01*
X44634709Y-10114057D01*
X44263981Y-9960116D01*
X44263981Y-6461410D01*
X44234605Y-5946906D01*
X44094229Y-5608009D01*
X43862558Y-5551047D01*
X43682953Y-5730652D01*
X43682953Y-5371442D01*
X43625991Y-5139771D01*
X43147061Y-4972688D01*
X43247981Y-4683410D01*
X43218605Y-4168906D01*
X43078229Y-3830009D01*
X42846558Y-3773047D01*
X42666953Y-3952652D01*
X42666953Y-3593442D01*
X42609991Y-3361771D01*
X42123410Y-3192019D01*
X41608906Y-3221395D01*
X41270009Y-3361771D01*
X41213047Y-3593442D01*
X41940000Y-4320395D01*
X42666953Y-3593442D01*
X42666953Y-3952652D01*
X42119605Y-4500000D01*
X42133747Y-4514142D01*
X41954142Y-4693747D01*
X41940000Y-4679605D01*
X41925857Y-4693747D01*
X41746252Y-4514142D01*
X41760395Y-4500000D01*
X41033442Y-3773047D01*
X40872696Y-3812570D01*
X40570709Y-3510057D01*
X40141429Y-3331804D01*
X39676611Y-3331398D01*
X39247019Y-3508901D01*
X38918057Y-3837291D01*
X38892157Y-3899664D01*
X38867099Y-3839019D01*
X38538709Y-3510057D01*
X38109429Y-3331804D01*
X37644611Y-3331398D01*
X37215019Y-3508901D01*
X36886057Y-3837291D01*
X36860157Y-3899664D01*
X36835099Y-3839019D01*
X36506709Y-3510057D01*
X36077429Y-3331804D01*
X35612611Y-3331398D01*
X35183019Y-3508901D01*
X34854057Y-3837291D01*
X34675804Y-4266571D01*
X34675398Y-4731389D01*
X34852901Y-5160981D01*
X35181291Y-5489943D01*
X35610571Y-5668196D01*
X35848002Y-5668403D01*
X35691804Y-6044571D01*
X35691398Y-6509389D01*
X35868901Y-6938981D01*
X36197291Y-7267943D01*
X36626571Y-7446196D01*
X37091389Y-7446602D01*
X37520981Y-7269099D01*
X37849943Y-6940709D01*
X37875842Y-6878335D01*
X37900901Y-6938981D01*
X38229291Y-7267943D01*
X38658571Y-7446196D01*
X39123389Y-7446602D01*
X39552981Y-7269099D01*
X39881943Y-6940709D01*
X39907842Y-6878335D01*
X39932901Y-6938981D01*
X40261291Y-7267943D01*
X40690571Y-7446196D01*
X41155389Y-7446602D01*
X41584981Y-7269099D01*
X41889083Y-6965524D01*
X42049442Y-7004953D01*
X42776395Y-6278000D01*
X42762252Y-6263857D01*
X42941857Y-6084252D01*
X42956000Y-6098395D01*
X43682953Y-5371442D01*
X43682953Y-5730652D01*
X43135605Y-6278000D01*
X43862558Y-7004953D01*
X44094229Y-6947991D01*
X44263981Y-6461410D01*
X44263981Y-9960116D01*
X44205429Y-9935804D01*
X43740611Y-9935398D01*
X43682953Y-9959221D01*
X43682953Y-7184558D01*
X42956000Y-6457605D01*
X42229047Y-7184558D01*
X42286009Y-7416229D01*
X42772590Y-7585981D01*
X43287094Y-7556605D01*
X43625991Y-7416229D01*
X43682953Y-7184558D01*
X43682953Y-9959221D01*
X43311019Y-10112901D01*
X42982057Y-10441291D01*
X42803804Y-10870571D01*
X42803398Y-11335389D01*
X42980901Y-11764981D01*
X43309291Y-12093943D01*
X43738571Y-12272196D01*
X44203389Y-12272602D01*
X44632981Y-12095099D01*
X44961943Y-11766709D01*
X45115156Y-11397730D01*
X45266901Y-11764981D01*
X45595291Y-12093943D01*
X46024571Y-12272196D01*
X46489389Y-12272602D01*
X46918981Y-12095099D01*
X47247943Y-11766709D01*
X47426196Y-11337429D01*
X47426602Y-10872611D01*
X47339579Y-10662000D01*
X48760410Y-10662000D01*
X48673804Y-10870571D01*
X48673398Y-11335389D01*
X48850901Y-11764981D01*
X49179291Y-12093943D01*
X49608571Y-12272196D01*
X50073389Y-12272602D01*
X50502981Y-12095099D01*
X50831943Y-11766709D01*
X50985156Y-11397730D01*
X51136901Y-11764981D01*
X51465291Y-12093943D01*
X51894571Y-12272196D01*
X52359389Y-12272602D01*
X52788981Y-12095099D01*
X53117943Y-11766709D01*
X53296196Y-11337429D01*
X53296602Y-10872611D01*
X53296602Y-27894280D01*
X52852320Y-27894280D01*
X48919264Y-27894280D01*
X49839313Y-26974231D01*
X49976964Y-26768223D01*
X49976964Y-26768222D01*
X50025300Y-26525218D01*
X50025300Y-26035191D01*
X50028295Y-26032202D01*
X50144547Y-25752236D01*
X50144812Y-25449094D01*
X50095022Y-25328594D01*
X50150682Y-25328643D01*
X50454198Y-25203233D01*
X50686617Y-24971219D01*
X50812557Y-24667923D01*
X50812843Y-24339518D01*
X50749200Y-24185489D01*
X50749200Y-22610702D01*
X50812557Y-22458123D01*
X50812843Y-22129718D01*
X50749200Y-21975689D01*
X50749200Y-20400902D01*
X50812557Y-20248323D01*
X50812843Y-19919918D01*
X50687433Y-19616402D01*
X50455419Y-19383983D01*
X50152123Y-19258043D01*
X49823718Y-19257757D01*
X49520202Y-19383167D01*
X49287783Y-19615181D01*
X49161843Y-19918477D01*
X49161557Y-20246882D01*
X49225200Y-20400910D01*
X49225200Y-21184734D01*
X47606653Y-19566187D01*
X47400644Y-19428536D01*
X47157640Y-19380200D01*
X45249544Y-19380200D01*
X45249544Y-15142898D01*
X45221762Y-14587832D01*
X45062797Y-14204057D01*
X44820613Y-14134592D01*
X44641008Y-14314197D01*
X44641008Y-13954987D01*
X44571543Y-13712803D01*
X44048098Y-13526056D01*
X43493032Y-13553838D01*
X43109257Y-13712803D01*
X43039792Y-13954987D01*
X43840400Y-14755595D01*
X44641008Y-13954987D01*
X44641008Y-14314197D01*
X44020005Y-14935200D01*
X44820613Y-15735808D01*
X45062797Y-15666343D01*
X45249544Y-15142898D01*
X45249544Y-19380200D01*
X44952165Y-19380200D01*
X44917682Y-19296742D01*
X44560737Y-18939174D01*
X44094127Y-18745421D01*
X44091912Y-18745419D01*
X44558858Y-18552482D01*
X44916426Y-18195537D01*
X45110179Y-17728927D01*
X45110620Y-17223690D01*
X44917682Y-16756742D01*
X44560737Y-16399174D01*
X44274883Y-16280477D01*
X44571543Y-16157597D01*
X44641008Y-15915413D01*
X43840400Y-15114805D01*
X43039792Y-15915413D01*
X43109257Y-16157597D01*
X43428187Y-16271380D01*
X43121942Y-16397918D01*
X42764374Y-16754863D01*
X42570621Y-17221473D01*
X42570619Y-17223687D01*
X42377682Y-16756742D01*
X42020737Y-16399174D01*
X41859445Y-16332200D01*
X41936091Y-16332200D01*
X42188710Y-16332200D01*
X42422099Y-16235527D01*
X42600727Y-16056898D01*
X42697400Y-15823509D01*
X42697400Y-15689116D01*
X42860187Y-15735808D01*
X43660795Y-14935200D01*
X42860187Y-14134592D01*
X42697400Y-14181283D01*
X42697400Y-14046891D01*
X42600727Y-13813502D01*
X42422099Y-13634873D01*
X42188710Y-13538200D01*
X41936091Y-13538200D01*
X41586150Y-13538200D01*
X41427400Y-13696950D01*
X41427400Y-14808200D01*
X41447400Y-14808200D01*
X41447400Y-15062200D01*
X41427400Y-15062200D01*
X41427400Y-15082200D01*
X41173400Y-15082200D01*
X41173400Y-15062200D01*
X41173400Y-14808200D01*
X41173400Y-13696950D01*
X41014650Y-13538200D01*
X40664709Y-13538200D01*
X40412090Y-13538200D01*
X40178701Y-13634873D01*
X40000073Y-13813502D01*
X39903400Y-14046891D01*
X39903400Y-14649450D01*
X40062150Y-14808200D01*
X41173400Y-14808200D01*
X41173400Y-15062200D01*
X40062150Y-15062200D01*
X39903400Y-15220950D01*
X39903400Y-15823509D01*
X40000073Y-16056898D01*
X40178701Y-16235527D01*
X40412090Y-16332200D01*
X40664709Y-16332200D01*
X40740992Y-16332200D01*
X40581942Y-16397918D01*
X40224374Y-16754863D01*
X40030621Y-17221473D01*
X40030180Y-17726710D01*
X40223118Y-18193658D01*
X40580063Y-18551226D01*
X41046673Y-18744979D01*
X41048887Y-18744980D01*
X40581942Y-18937918D01*
X40224374Y-19294863D01*
X40030621Y-19761473D01*
X40030180Y-20266710D01*
X40223118Y-20733658D01*
X40580063Y-21091226D01*
X41046673Y-21284979D01*
X41048887Y-21284980D01*
X40581942Y-21477918D01*
X40224374Y-21834863D01*
X40030621Y-22301473D01*
X40030180Y-22806710D01*
X40223118Y-23273658D01*
X40580063Y-23631226D01*
X41046673Y-23824979D01*
X41048887Y-23824980D01*
X40581942Y-24017918D01*
X40224374Y-24374863D01*
X40030621Y-24841473D01*
X40030180Y-25346710D01*
X40223118Y-25813658D01*
X40580063Y-26171226D01*
X41046673Y-26364979D01*
X41551910Y-26365420D01*
X42018858Y-26172482D01*
X42119406Y-26072108D01*
X42121387Y-26075073D01*
X42979907Y-26933593D01*
X43185916Y-27071244D01*
X43428920Y-27119581D01*
X43428920Y-27119580D01*
X43428925Y-27119580D01*
X45562520Y-27119580D01*
X45805524Y-27071244D01*
X46011533Y-26933593D01*
X46518966Y-26426160D01*
X48000800Y-26426160D01*
X48000788Y-26439906D01*
X48116552Y-26720074D01*
X48206905Y-26810586D01*
X47580414Y-27437078D01*
X45669329Y-27437078D01*
X45643800Y-27432000D01*
X40547426Y-27432000D01*
X40157518Y-27042092D01*
X40157532Y-27027094D01*
X40041768Y-26746926D01*
X39827602Y-26532385D01*
X39547636Y-26416133D01*
X39244494Y-26415868D01*
X38964326Y-26531632D01*
X38749785Y-26745798D01*
X38680905Y-26911679D01*
X36042600Y-24273374D01*
X36042600Y-21097240D01*
X35994264Y-20854236D01*
X35856613Y-20648227D01*
X35613293Y-20404907D01*
X35613505Y-20161847D01*
X35468801Y-19811637D01*
X35201093Y-19543460D01*
X34851135Y-19398145D01*
X34518600Y-19397855D01*
X34518600Y-18669000D01*
X38625030Y-18669000D01*
X38722505Y-18709475D01*
X39101433Y-18709805D01*
X39451643Y-18565101D01*
X39719820Y-18297393D01*
X39865135Y-17947435D01*
X39865465Y-17568507D01*
X39720761Y-17218297D01*
X39453053Y-16950120D01*
X39162008Y-16829267D01*
X39225055Y-16677435D01*
X39225385Y-16298507D01*
X39174420Y-16175162D01*
X39174420Y-14350922D01*
X39237755Y-14198395D01*
X39238085Y-13819467D01*
X39093381Y-13469257D01*
X38825673Y-13201080D01*
X38475715Y-13055765D01*
X38096787Y-13055435D01*
X37746577Y-13200139D01*
X37478400Y-13467847D01*
X37333085Y-13817805D01*
X37332755Y-14196733D01*
X37396420Y-14350813D01*
X37396420Y-16113732D01*
X37320385Y-16296845D01*
X37320055Y-16675773D01*
X37408985Y-16891000D01*
X35996602Y-16891000D01*
X35996602Y-10872611D01*
X35819099Y-10443019D01*
X35490709Y-10114057D01*
X35061429Y-9935804D01*
X34596611Y-9935398D01*
X34167019Y-10112901D01*
X33838057Y-10441291D01*
X33684843Y-10810269D01*
X33533099Y-10443019D01*
X33204709Y-10114057D01*
X32775429Y-9935804D01*
X32310611Y-9935398D01*
X31881019Y-10112901D01*
X31552057Y-10441291D01*
X31373804Y-10870571D01*
X31373398Y-11335389D01*
X31550901Y-11764981D01*
X31879291Y-12093943D01*
X32308571Y-12272196D01*
X32773389Y-12272602D01*
X33202981Y-12095099D01*
X33531943Y-11766709D01*
X33685156Y-11397730D01*
X33836901Y-11764981D01*
X34165291Y-12093943D01*
X34594571Y-12272196D01*
X35059389Y-12272602D01*
X35488981Y-12095099D01*
X35817943Y-11766709D01*
X35996196Y-11337429D01*
X35996602Y-10872611D01*
X35996602Y-16891000D01*
X33629600Y-16891000D01*
X33289394Y-16958671D01*
X33000982Y-17151382D01*
X32808271Y-17439794D01*
X32740600Y-17780000D01*
X32740600Y-20739164D01*
X30133514Y-23346249D01*
X29819354Y-23215799D01*
X29783222Y-23215767D01*
X29783222Y-2245915D01*
X29588308Y-1774189D01*
X29227710Y-1412960D01*
X28756324Y-1217224D01*
X28245915Y-1216778D01*
X27774189Y-1411692D01*
X27412960Y-1772290D01*
X27217224Y-2243676D01*
X27216778Y-2754085D01*
X27411692Y-3225811D01*
X27772290Y-3587040D01*
X28243676Y-3782776D01*
X28754085Y-3783222D01*
X29225811Y-3588308D01*
X29587040Y-3227710D01*
X29782776Y-2756324D01*
X29783222Y-2245915D01*
X29783222Y-23215767D01*
X29364641Y-23215402D01*
X28944388Y-23389046D01*
X28622577Y-23710297D01*
X28448199Y-24130246D01*
X28447802Y-24584959D01*
X28621446Y-25005212D01*
X28942697Y-25327023D01*
X29362646Y-25501401D01*
X29817359Y-25501798D01*
X30237612Y-25328154D01*
X30318306Y-25247600D01*
X30378400Y-25247600D01*
X30718605Y-25179929D01*
X30718606Y-25179929D01*
X31007018Y-24987218D01*
X34258218Y-21736018D01*
X34450929Y-21447606D01*
X34450929Y-21447605D01*
X34479728Y-21302822D01*
X34715362Y-21303028D01*
X34772600Y-21360266D01*
X34772600Y-24536400D01*
X34820936Y-24779404D01*
X34958587Y-24985413D01*
X38951467Y-28978293D01*
X39157476Y-29115944D01*
X39400480Y-29164280D01*
X52852320Y-29164280D01*
X54008020Y-29164280D01*
X54251024Y-29115944D01*
X54457033Y-28978293D01*
X54623987Y-28811338D01*
X54638986Y-28811352D01*
X54919154Y-28695588D01*
X55133695Y-28481422D01*
X55249947Y-28201456D01*
X55250212Y-27898314D01*
X55250212Y-37655000D01*
X54220000Y-37655000D01*
X54220000Y-37400000D01*
X54123327Y-36913992D01*
X53848026Y-36501974D01*
X53436008Y-36226673D01*
X52950000Y-36130000D01*
X52463992Y-36226673D01*
X52051974Y-36501974D01*
X51776673Y-36913992D01*
X51680000Y-37400000D01*
X51680000Y-37655000D01*
X36398200Y-37655000D01*
X36398200Y-30988000D01*
X36320862Y-30599194D01*
X36100620Y-30269580D01*
X35771006Y-30049338D01*
X35382200Y-29972000D01*
X32969200Y-29972000D01*
X31038800Y-29972000D01*
X30649994Y-30049338D01*
X30320380Y-30269580D01*
X30100138Y-30599194D01*
X30022800Y-30988000D01*
X30100138Y-31376806D01*
X30320380Y-31706420D01*
X30649994Y-31926662D01*
X31038800Y-32004000D01*
X32969200Y-32004000D01*
X35382200Y-32004000D01*
X35771006Y-31926662D01*
X36100620Y-31706420D01*
X36320862Y-31376806D01*
X36398200Y-30988000D01*
X36398200Y-37655000D01*
X32925000Y-37655000D01*
X32438992Y-37751673D01*
X32026974Y-38026974D01*
X31751673Y-38438992D01*
X31655000Y-38925000D01*
X31747892Y-39392000D01*
X26760000Y-39392000D01*
X26760000Y-4501310D01*
X26760000Y-4248691D01*
X26760000Y-4035750D01*
X26760000Y-3464250D01*
X26760000Y-3251309D01*
X26760000Y-2998690D01*
X26663327Y-2765301D01*
X26484698Y-2586673D01*
X26251309Y-2490000D01*
X25785750Y-2490000D01*
X25627000Y-2648750D01*
X25627000Y-3623000D01*
X26601250Y-3623000D01*
X26760000Y-3464250D01*
X26760000Y-4035750D01*
X26601250Y-3877000D01*
X25627000Y-3877000D01*
X25627000Y-4851250D01*
X25785750Y-5010000D01*
X26251309Y-5010000D01*
X26484698Y-4913327D01*
X26663327Y-4734699D01*
X26760000Y-4501310D01*
X26760000Y-39392000D01*
X26566003Y-39392000D01*
X26566003Y-12803218D01*
X26440593Y-12499702D01*
X26438860Y-12497965D01*
X26438860Y-8363454D01*
X26439777Y-8362539D01*
X26565717Y-8059243D01*
X26566003Y-7730838D01*
X26440593Y-7427322D01*
X26208579Y-7194903D01*
X25905283Y-7068963D01*
X25576878Y-7068677D01*
X25373000Y-7152917D01*
X25373000Y-4851250D01*
X25373000Y-3877000D01*
X25353000Y-3877000D01*
X25353000Y-3623000D01*
X25373000Y-3623000D01*
X25373000Y-2648750D01*
X25214250Y-2490000D01*
X24748691Y-2490000D01*
X24515302Y-2586673D01*
X24336673Y-2765301D01*
X24272524Y-2920169D01*
X24142631Y-2790049D01*
X23726356Y-2617197D01*
X23275621Y-2616804D01*
X22859045Y-2788929D01*
X22540049Y-3107369D01*
X22500115Y-3203540D01*
X22461071Y-3109045D01*
X22142631Y-2790049D01*
X21726356Y-2617197D01*
X21275621Y-2616804D01*
X20859045Y-2788929D01*
X20540049Y-3107369D01*
X20500115Y-3203540D01*
X20461071Y-3109045D01*
X20142631Y-2790049D01*
X19726356Y-2617197D01*
X19275621Y-2616804D01*
X18859045Y-2788929D01*
X18540049Y-3107369D01*
X18367197Y-3523644D01*
X18366804Y-3974379D01*
X18538929Y-4390955D01*
X18857369Y-4709951D01*
X19273644Y-4882803D01*
X19724379Y-4883196D01*
X20140955Y-4711071D01*
X20459951Y-4392631D01*
X20499884Y-4296459D01*
X20538929Y-4390955D01*
X20857369Y-4709951D01*
X21273644Y-4882803D01*
X21724379Y-4883196D01*
X22140955Y-4711071D01*
X22459951Y-4392631D01*
X22499884Y-4296459D01*
X22538929Y-4390955D01*
X22857369Y-4709951D01*
X23273644Y-4882803D01*
X23724379Y-4883196D01*
X24140955Y-4711071D01*
X24272495Y-4579760D01*
X24336673Y-4734699D01*
X24515302Y-4913327D01*
X24748691Y-5010000D01*
X25214250Y-5010000D01*
X25373000Y-4851250D01*
X25373000Y-7152917D01*
X25321005Y-7174401D01*
X25067083Y-7068963D01*
X24738678Y-7068677D01*
X24482805Y-7174401D01*
X24228883Y-7068963D01*
X23900478Y-7068677D01*
X23596962Y-7194087D01*
X23364543Y-7426101D01*
X23238603Y-7729397D01*
X23238317Y-8057802D01*
X23362920Y-8359364D01*
X23362920Y-12497565D01*
X23362003Y-12498481D01*
X23236063Y-12801777D01*
X23235777Y-13130182D01*
X23361187Y-13433698D01*
X23593201Y-13666117D01*
X23896497Y-13792057D01*
X24224902Y-13792343D01*
X24478981Y-13687359D01*
X24737237Y-13794597D01*
X25065642Y-13794883D01*
X25324580Y-13687891D01*
X25575437Y-13792057D01*
X25903842Y-13792343D01*
X26207358Y-13666933D01*
X26439777Y-13434919D01*
X26565717Y-13131623D01*
X26566003Y-12803218D01*
X26566003Y-39392000D01*
X25878952Y-39392000D01*
X25878952Y-34174800D01*
X25878952Y-32474800D01*
X25841370Y-32281101D01*
X25729539Y-32110858D01*
X25560712Y-31996899D01*
X25361000Y-31956848D01*
X24298112Y-31956848D01*
X24298112Y-22100800D01*
X24298112Y-20400800D01*
X24260530Y-20207101D01*
X24148699Y-20036858D01*
X23979872Y-19922899D01*
X23780160Y-19882848D01*
X22080160Y-19882848D01*
X21886461Y-19920430D01*
X21716218Y-20032261D01*
X21602259Y-20201088D01*
X21562208Y-20400800D01*
X21562208Y-22100800D01*
X21599790Y-22294499D01*
X21711621Y-22464742D01*
X21880448Y-22578701D01*
X22080160Y-22618752D01*
X23780160Y-22618752D01*
X23973859Y-22581170D01*
X24144102Y-22469339D01*
X24258061Y-22300512D01*
X24298112Y-22100800D01*
X24298112Y-31956848D01*
X23661000Y-31956848D01*
X23467301Y-31994430D01*
X23297058Y-32106261D01*
X23183099Y-32275088D01*
X23143048Y-32474800D01*
X23143048Y-34174800D01*
X23180630Y-34368499D01*
X23292461Y-34538742D01*
X23461288Y-34652701D01*
X23661000Y-34692752D01*
X25361000Y-34692752D01*
X25554699Y-34655170D01*
X25724942Y-34543339D01*
X25838901Y-34374512D01*
X25878952Y-34174800D01*
X25878952Y-39392000D01*
X22546965Y-39392000D01*
X22546965Y-35616777D01*
X22519778Y-35046546D01*
X22353864Y-34645995D01*
X22107745Y-34571861D01*
X21928139Y-34751466D01*
X21928139Y-34392255D01*
X21854005Y-34146136D01*
X21316777Y-33953035D01*
X20746546Y-33980222D01*
X20345995Y-34146136D01*
X20277125Y-34374778D01*
X20277125Y-22567577D01*
X20249938Y-21997346D01*
X20084024Y-21596795D01*
X19837905Y-21522661D01*
X19658299Y-21702266D01*
X19658299Y-21343055D01*
X19584165Y-21096936D01*
X19046937Y-20903835D01*
X18476706Y-20931022D01*
X18076155Y-21096936D01*
X18002021Y-21343055D01*
X18830160Y-22171195D01*
X19658299Y-21343055D01*
X19658299Y-21702266D01*
X19009765Y-22350800D01*
X19023907Y-22364942D01*
X18844302Y-22544547D01*
X18830160Y-22530405D01*
X18816017Y-22544547D01*
X18636412Y-22364942D01*
X18650555Y-22350800D01*
X17822415Y-21522661D01*
X17576296Y-21596795D01*
X17383195Y-22134023D01*
X17410382Y-22704254D01*
X17576296Y-23104805D01*
X17718791Y-23147726D01*
X17666218Y-23182261D01*
X17552259Y-23351088D01*
X17512208Y-23550800D01*
X17512208Y-25150800D01*
X17549790Y-25344499D01*
X17661621Y-25514742D01*
X17830448Y-25628701D01*
X18030160Y-25668752D01*
X19630160Y-25668752D01*
X19823859Y-25631170D01*
X19994102Y-25519339D01*
X20108061Y-25350512D01*
X20148112Y-25150800D01*
X20148112Y-23550800D01*
X20110530Y-23357101D01*
X19998699Y-23186858D01*
X19940974Y-23147893D01*
X20084024Y-23104805D01*
X20277125Y-22567577D01*
X20277125Y-34374778D01*
X20271861Y-34392255D01*
X21100000Y-35220395D01*
X21928139Y-34392255D01*
X21928139Y-34751466D01*
X21279605Y-35400000D01*
X21293747Y-35414142D01*
X21114142Y-35593747D01*
X21100000Y-35579605D01*
X21085857Y-35593747D01*
X20906252Y-35414142D01*
X20920395Y-35400000D01*
X20092255Y-34571861D01*
X19846136Y-34645995D01*
X19653035Y-35183223D01*
X19680222Y-35753454D01*
X19846136Y-36154005D01*
X19988631Y-36196926D01*
X19936058Y-36231461D01*
X19822099Y-36400288D01*
X19782048Y-36600000D01*
X19782048Y-38200000D01*
X19819630Y-38393699D01*
X19931461Y-38563942D01*
X20100288Y-38677901D01*
X20300000Y-38717952D01*
X21900000Y-38717952D01*
X22093699Y-38680370D01*
X22263942Y-38568539D01*
X22377901Y-38399712D01*
X22417952Y-38200000D01*
X22417952Y-36600000D01*
X22380370Y-36406301D01*
X22268539Y-36236058D01*
X22210814Y-36197093D01*
X22353864Y-36154005D01*
X22546965Y-35616777D01*
X22546965Y-39392000D01*
X15783222Y-39392000D01*
X15783222Y-2245915D01*
X15588308Y-1774189D01*
X15227710Y-1412960D01*
X14756324Y-1217224D01*
X14245915Y-1216778D01*
X13774189Y-1411692D01*
X13412960Y-1772290D01*
X13217224Y-2243676D01*
X13216778Y-2754085D01*
X13411692Y-3225811D01*
X13772290Y-3587040D01*
X14243676Y-3782776D01*
X14754085Y-3783222D01*
X15225811Y-3588308D01*
X15587040Y-3227710D01*
X15782776Y-2756324D01*
X15783222Y-2245915D01*
X15783222Y-39392000D01*
X12937227Y-39392000D01*
X12937227Y-8062554D01*
X12932730Y-6914838D01*
X12502169Y-5875375D01*
X12105467Y-5624138D01*
X11925862Y-5803743D01*
X11925862Y-5444533D01*
X11674625Y-5047831D01*
X11558508Y-5000266D01*
X11674625Y-4952169D01*
X11925862Y-4555467D01*
X10050000Y-2679605D01*
X9870395Y-2859210D01*
X8174138Y-4555467D01*
X8425375Y-4952169D01*
X8541491Y-4999733D01*
X8425375Y-5047831D01*
X8174138Y-5444533D01*
X10050000Y-7320395D01*
X11925862Y-5444533D01*
X11925862Y-5803743D01*
X10229605Y-7500000D01*
X12105467Y-9375862D01*
X12502169Y-9124625D01*
X12937227Y-8062554D01*
X12937227Y-39392000D01*
X11925862Y-39392000D01*
X11925862Y-9555467D01*
X10050000Y-7679605D01*
X9870395Y-7859210D01*
X9870395Y-7500000D01*
X7994533Y-5624138D01*
X7597831Y-5875375D01*
X7162773Y-6937446D01*
X7167270Y-8085162D01*
X7597831Y-9124625D01*
X7994533Y-9375862D01*
X9870395Y-7500000D01*
X9870395Y-7859210D01*
X8174138Y-9555467D01*
X8425375Y-9952169D01*
X9487446Y-10387227D01*
X10635162Y-10382730D01*
X11674625Y-9952169D01*
X11925862Y-9555467D01*
X11925862Y-39392000D01*
X11417952Y-39392000D01*
X11417952Y-14400000D01*
X11417952Y-12800000D01*
X11380370Y-12606301D01*
X11268539Y-12436058D01*
X11099712Y-12322099D01*
X10900000Y-12282048D01*
X9300000Y-12282048D01*
X9106301Y-12319630D01*
X8936058Y-12431461D01*
X8897093Y-12489185D01*
X8854005Y-12346136D01*
X8316777Y-12153035D01*
X7746546Y-12180222D01*
X7345995Y-12346136D01*
X7271861Y-12592255D01*
X8100000Y-13420395D01*
X8114142Y-13406252D01*
X8293747Y-13585857D01*
X8279605Y-13600000D01*
X8293747Y-13614142D01*
X8114142Y-13793747D01*
X8100000Y-13779605D01*
X7920395Y-13959210D01*
X7920395Y-13600000D01*
X7092255Y-12771861D01*
X6846136Y-12845995D01*
X6653035Y-13383223D01*
X6680222Y-13953454D01*
X6846136Y-14354005D01*
X7092255Y-14428139D01*
X7920395Y-13600000D01*
X7920395Y-13959210D01*
X7271861Y-14607745D01*
X7345995Y-14853864D01*
X7883223Y-15046965D01*
X8453454Y-15019778D01*
X8854005Y-14853864D01*
X8896926Y-14711368D01*
X8931461Y-14763942D01*
X9100288Y-14877901D01*
X9300000Y-14917952D01*
X10900000Y-14917952D01*
X11093699Y-14880370D01*
X11263942Y-14768539D01*
X11377901Y-14599712D01*
X11417952Y-14400000D01*
X11417952Y-39392000D01*
X5437227Y-39392000D01*
X5437227Y-8062554D01*
X5432730Y-6914838D01*
X5002169Y-5875375D01*
X4605467Y-5624138D01*
X4425862Y-5803743D01*
X2729605Y-7500000D01*
X4605467Y-9375862D01*
X5002169Y-9124625D01*
X5437227Y-8062554D01*
X5437227Y-39392000D01*
X4425862Y-39392000D01*
X608000Y-39392000D01*
X608000Y-9621608D01*
X674139Y-9555468D01*
X925375Y-9952169D01*
X1987446Y-10387227D01*
X3135162Y-10382730D01*
X4174625Y-9952169D01*
X4425862Y-9555467D01*
X2550000Y-7679605D01*
X2535857Y-7693747D01*
X2356252Y-7514142D01*
X2370395Y-7500000D01*
X2356252Y-7485857D01*
X2535857Y-7306252D01*
X2550000Y-7320395D01*
X4425862Y-5444533D01*
X4174625Y-5047831D01*
X4058508Y-5000266D01*
X4174625Y-4952169D01*
X4425862Y-4555467D01*
X2550000Y-2679605D01*
X2535857Y-2693747D01*
X2356252Y-2514142D01*
X2370395Y-2500000D01*
X2356252Y-2485857D01*
X2535857Y-2306252D01*
X2550000Y-2320395D01*
X2564142Y-2306252D01*
X2743747Y-2485857D01*
X2729605Y-2500000D01*
X4605467Y-4375862D01*
X5002169Y-4124625D01*
X5437227Y-3062554D01*
X5432730Y-1914838D01*
X5002169Y-875375D01*
X4605468Y-624139D01*
X4621608Y-608000D01*
X7978392Y-608000D01*
X7994531Y-624139D01*
X7597831Y-875375D01*
X7162773Y-1937446D01*
X7167270Y-3085162D01*
X7597831Y-4124625D01*
X7994533Y-4375862D01*
X9870395Y-2500000D01*
X9856252Y-2485857D01*
X10035857Y-2306252D01*
X10050000Y-2320395D01*
X10064142Y-2306252D01*
X10243747Y-2485857D01*
X10229605Y-2500000D01*
X12105467Y-4375862D01*
X12502169Y-4124625D01*
X12937227Y-3062554D01*
X12932730Y-1914838D01*
X12502169Y-875375D01*
X12105468Y-624139D01*
X12121608Y-608000D01*
X31384358Y-608000D01*
X31242276Y-749835D01*
X30916771Y-1533739D01*
X30916030Y-2382537D01*
X31240167Y-3167009D01*
X31839835Y-3767724D01*
X32623739Y-4093229D01*
X33472537Y-4093970D01*
X34257009Y-3769833D01*
X34857724Y-3170165D01*
X35183229Y-2386261D01*
X35183970Y-1537463D01*
X34859833Y-752991D01*
X34715094Y-608000D01*
X44084358Y-608000D01*
X43942276Y-749835D01*
X43616771Y-1533739D01*
X43616030Y-2382537D01*
X43940167Y-3167009D01*
X44539835Y-3767724D01*
X45323739Y-4093229D01*
X46172537Y-4093970D01*
X46957009Y-3769833D01*
X47557724Y-3170165D01*
X47883229Y-2386261D01*
X47883970Y-1537463D01*
X47559833Y-752991D01*
X47415094Y-608000D01*
X48684358Y-608000D01*
X48542276Y-749835D01*
X48216771Y-1533739D01*
X48216030Y-2382537D01*
X48540167Y-3167009D01*
X49139835Y-3767724D01*
X49923739Y-4093229D01*
X50772537Y-4093970D01*
X51557009Y-3769833D01*
X52157724Y-3170165D01*
X52483229Y-2386261D01*
X52483970Y-1537463D01*
X52159833Y-752991D01*
X52015094Y-608000D01*
X61384358Y-608000D01*
X61242276Y-749835D01*
X60916771Y-1533739D01*
X60916030Y-2382537D01*
X61240167Y-3167009D01*
X61839835Y-3767724D01*
X62623739Y-4093229D01*
X63472537Y-4093970D01*
X64257009Y-3769833D01*
X64857724Y-3170165D01*
X65183229Y-2386261D01*
X65183970Y-1537463D01*
X64859833Y-752991D01*
X64715094Y-608000D01*
X66278392Y-608000D01*
X66294531Y-624139D01*
X65897831Y-875375D01*
X65462773Y-1937446D01*
X65467270Y-3085162D01*
X65897831Y-4124625D01*
X66294533Y-4375862D01*
X68170395Y-2500000D01*
X68156252Y-2485857D01*
X68335857Y-2306252D01*
X68350000Y-2320395D01*
X68364142Y-2306252D01*
X68543747Y-2485857D01*
X68529605Y-2500000D01*
X70405467Y-4375862D01*
X70802169Y-4124625D01*
X71237227Y-3062554D01*
X71232730Y-1914838D01*
X70802169Y-875375D01*
X70405468Y-624139D01*
X70421608Y-608000D01*
X73778392Y-608000D01*
X73794531Y-624139D01*
X73397831Y-875375D01*
X72962773Y-1937446D01*
X72967270Y-3085162D01*
X73397831Y-4124625D01*
X73794533Y-4375862D01*
X75670395Y-2500000D01*
X75656252Y-2485857D01*
X75835857Y-2306252D01*
X75850000Y-2320395D01*
X75864142Y-2306252D01*
X76043747Y-2485857D01*
X76029605Y-2500000D01*
X76043747Y-2514142D01*
X75864142Y-2693747D01*
X75850000Y-2679605D01*
X75670395Y-2859210D01*
X73974138Y-4555467D01*
X74225375Y-4952169D01*
X74341491Y-4999733D01*
X74225375Y-5047831D01*
X73974138Y-5444533D01*
X75850000Y-7320395D01*
X75864142Y-7306252D01*
X76043747Y-7485857D01*
X76029605Y-7500000D01*
X76043747Y-7514142D01*
X75864142Y-7693747D01*
X75850000Y-7679605D01*
X75670395Y-7859210D01*
X75670395Y-7500000D01*
X73794533Y-5624138D01*
X73397831Y-5875375D01*
X72962773Y-6937446D01*
X72967270Y-8085162D01*
X73397831Y-9124625D01*
X73794533Y-9375862D01*
X75670395Y-7500000D01*
X75670395Y-7859210D01*
X73974138Y-9555467D01*
X74225375Y-9952169D01*
X75287446Y-10387227D01*
X76435162Y-10382730D01*
X77474625Y-9952169D01*
X77725860Y-9555468D01*
X77725862Y-9555470D01*
X77792000Y-9621608D01*
X77792000Y-11633200D01*
X77725862Y-11633200D01*
X71237227Y-11633200D01*
X71237227Y-8062554D01*
X71232730Y-6914838D01*
X70802169Y-5875375D01*
X70405467Y-5624138D01*
X70225862Y-5803743D01*
X70225862Y-5444533D01*
X69974625Y-5047831D01*
X69858508Y-5000266D01*
X69974625Y-4952169D01*
X70225862Y-4555467D01*
X68350000Y-2679605D01*
X68170395Y-2859210D01*
X66474138Y-4555467D01*
X66725375Y-4952169D01*
X66841491Y-4999733D01*
X66725375Y-5047831D01*
X66474138Y-5444533D01*
X68350000Y-7320395D01*
X70225862Y-5444533D01*
X70225862Y-5803743D01*
X68529605Y-7500000D01*
X70405467Y-9375862D01*
X70802169Y-9124625D01*
X71237227Y-8062554D01*
X71237227Y-11633200D01*
X70225862Y-11633200D01*
X70225862Y-9555467D01*
X68350000Y-7679605D01*
X68170395Y-7859210D01*
X68170395Y-7500000D01*
X66294533Y-5624138D01*
X65897831Y-5875375D01*
X65462773Y-6937446D01*
X65467270Y-8085162D01*
X65897831Y-9124625D01*
X66294533Y-9375862D01*
X68170395Y-7500000D01*
X68170395Y-7859210D01*
X66474138Y-9555467D01*
X66725375Y-9952169D01*
X67787446Y-10387227D01*
X68935162Y-10382730D01*
X69974625Y-9952169D01*
X70225862Y-9555467D01*
X70225862Y-11633200D01*
X68183701Y-11633200D01*
X66319400Y-12964844D01*
X66319400Y-23061948D01*
X64726602Y-24678637D01*
X64726602Y-10872611D01*
X64549099Y-10443019D01*
X64220709Y-10114057D01*
X63791429Y-9935804D01*
X63326611Y-9935398D01*
X62897019Y-10112901D01*
X62568057Y-10441291D01*
X62414843Y-10810269D01*
X62263099Y-10443019D01*
X61934709Y-10114057D01*
X61563981Y-9960116D01*
X61563981Y-6461410D01*
X61534605Y-5946906D01*
X61394229Y-5608009D01*
X61162558Y-5551047D01*
X60982953Y-5730652D01*
X60982953Y-5371442D01*
X60925991Y-5139771D01*
X60447061Y-4972688D01*
X60547981Y-4683410D01*
X60518605Y-4168906D01*
X60378229Y-3830009D01*
X60146558Y-3773047D01*
X59966953Y-3952652D01*
X59966953Y-3593442D01*
X59909991Y-3361771D01*
X59423410Y-3192019D01*
X58908906Y-3221395D01*
X58570009Y-3361771D01*
X58513047Y-3593442D01*
X59240000Y-4320395D01*
X59966953Y-3593442D01*
X59966953Y-3952652D01*
X59419605Y-4500000D01*
X59433747Y-4514142D01*
X59254142Y-4693747D01*
X59240000Y-4679605D01*
X59225857Y-4693747D01*
X59046252Y-4514142D01*
X59060395Y-4500000D01*
X58333442Y-3773047D01*
X58172696Y-3812570D01*
X57870709Y-3510057D01*
X57441429Y-3331804D01*
X56976611Y-3331398D01*
X56547019Y-3508901D01*
X56218057Y-3837291D01*
X56192157Y-3899664D01*
X56167099Y-3839019D01*
X55838709Y-3510057D01*
X55409429Y-3331804D01*
X54944611Y-3331398D01*
X54515019Y-3508901D01*
X54186057Y-3837291D01*
X54160157Y-3899664D01*
X54135099Y-3839019D01*
X53806709Y-3510057D01*
X53377429Y-3331804D01*
X52912611Y-3331398D01*
X52483019Y-3508901D01*
X52154057Y-3837291D01*
X51975804Y-4266571D01*
X51975398Y-4731389D01*
X52152901Y-5160981D01*
X52481291Y-5489943D01*
X52910571Y-5668196D01*
X53148002Y-5668403D01*
X52991804Y-6044571D01*
X52991398Y-6509389D01*
X53168901Y-6938981D01*
X53497291Y-7267943D01*
X53926571Y-7446196D01*
X54391389Y-7446602D01*
X54820981Y-7269099D01*
X55149943Y-6940709D01*
X55175842Y-6878335D01*
X55200901Y-6938981D01*
X55303000Y-7041257D01*
X55303000Y-8576443D01*
X55247665Y-8709705D01*
X55247347Y-9074627D01*
X54936518Y-9074357D01*
X54633002Y-9199767D01*
X54400583Y-9431781D01*
X54274643Y-9735077D01*
X54274357Y-10063482D01*
X54399767Y-10366998D01*
X54631781Y-10599417D01*
X54935077Y-10725357D01*
X55263482Y-10725643D01*
X55417510Y-10662000D01*
X58782497Y-10662000D01*
X58935077Y-10725357D01*
X59263482Y-10725643D01*
X59566998Y-10600233D01*
X59799417Y-10368219D01*
X59925357Y-10064923D01*
X59925643Y-9736518D01*
X59800233Y-9433002D01*
X59568219Y-9200583D01*
X59264923Y-9074643D01*
X58936518Y-9074357D01*
X58782489Y-9138000D01*
X57132526Y-9138000D01*
X57152335Y-9090295D01*
X57152665Y-8711367D01*
X57081000Y-8537924D01*
X57081000Y-7041476D01*
X57181943Y-6940709D01*
X57207842Y-6878335D01*
X57232901Y-6938981D01*
X57561291Y-7267943D01*
X57990571Y-7446196D01*
X58455389Y-7446602D01*
X58884981Y-7269099D01*
X59189083Y-6965524D01*
X59349442Y-7004953D01*
X60076395Y-6278000D01*
X60062252Y-6263857D01*
X60241857Y-6084252D01*
X60256000Y-6098395D01*
X60982953Y-5371442D01*
X60982953Y-5730652D01*
X60435605Y-6278000D01*
X61162558Y-7004953D01*
X61394229Y-6947991D01*
X61563981Y-6461410D01*
X61563981Y-9960116D01*
X61505429Y-9935804D01*
X61040611Y-9935398D01*
X60982953Y-9959221D01*
X60982953Y-7184558D01*
X60256000Y-6457605D01*
X59529047Y-7184558D01*
X59586009Y-7416229D01*
X60072590Y-7585981D01*
X60587094Y-7556605D01*
X60925991Y-7416229D01*
X60982953Y-7184558D01*
X60982953Y-9959221D01*
X60611019Y-10112901D01*
X60282057Y-10441291D01*
X60103804Y-10870571D01*
X60103398Y-11335389D01*
X60280901Y-11764981D01*
X60609291Y-12093943D01*
X61038571Y-12272196D01*
X61503389Y-12272602D01*
X61932981Y-12095099D01*
X62261943Y-11766709D01*
X62415156Y-11397730D01*
X62566901Y-11764981D01*
X62895291Y-12093943D01*
X63324571Y-12272196D01*
X63789389Y-12272602D01*
X64218981Y-12095099D01*
X64547943Y-11766709D01*
X64726196Y-11337429D01*
X64726602Y-10872611D01*
X64726602Y-24678637D01*
X61187461Y-28270866D01*
X61557453Y-28640858D01*
X66827400Y-23305849D01*
X66827400Y-13222254D01*
X68328863Y-12141200D01*
X74515391Y-12141200D01*
X74498858Y-12152061D01*
X74384899Y-12320888D01*
X74344848Y-12520600D01*
X74344848Y-14044600D01*
X74382430Y-14238299D01*
X74494261Y-14408542D01*
X74663088Y-14522501D01*
X74862800Y-14562552D01*
X75348671Y-14562552D01*
X74906342Y-14745318D01*
X74548774Y-15102263D01*
X74355021Y-15568873D01*
X74354580Y-16074110D01*
X74547518Y-16541058D01*
X74904463Y-16898626D01*
X75371073Y-17092379D01*
X75373287Y-17092380D01*
X74906342Y-17285318D01*
X74548774Y-17642263D01*
X74355021Y-18108873D01*
X74354580Y-18614110D01*
X74547518Y-19081058D01*
X74904463Y-19438626D01*
X75069607Y-19507200D01*
X70711795Y-19507200D01*
X69113400Y-21105595D01*
X69113400Y-28220920D01*
X66501661Y-31079539D01*
X66880300Y-31377041D01*
X69583300Y-28382541D01*
X69583300Y-21287005D01*
X70893205Y-19977100D01*
X77792000Y-19977100D01*
X77792000Y-39392000D01*
X77792000Y-39392000D01*
G37*
X77792000Y-39392000D02*
X77021800Y-39392000D01*
X77021800Y-23440909D01*
X77021800Y-22838350D01*
X77021800Y-22266850D01*
X77021800Y-21664291D01*
X76925127Y-21430902D01*
X76746499Y-21252273D01*
X76513110Y-21155600D01*
X76260491Y-21155600D01*
X75910550Y-21155600D01*
X75751800Y-21314350D01*
X75751800Y-22425600D01*
X76863050Y-22425600D01*
X77021800Y-22266850D01*
X77021800Y-22838350D01*
X76863050Y-22679600D01*
X75751800Y-22679600D01*
X75751800Y-22699600D01*
X75497800Y-22699600D01*
X75497800Y-22679600D01*
X75497800Y-22425600D01*
X75497800Y-21314350D01*
X75339050Y-21155600D01*
X74989109Y-21155600D01*
X74736490Y-21155600D01*
X74503101Y-21252273D01*
X74324473Y-21430902D01*
X74227800Y-21664291D01*
X74227800Y-22266850D01*
X74386550Y-22425600D01*
X75497800Y-22425600D01*
X75497800Y-22679600D01*
X74386550Y-22679600D01*
X74227800Y-22838350D01*
X74227800Y-23440909D01*
X74324473Y-23674298D01*
X74503101Y-23852927D01*
X74736490Y-23949600D01*
X74989109Y-23949600D01*
X75065392Y-23949600D01*
X74906342Y-24015318D01*
X74548774Y-24372263D01*
X74355021Y-24838873D01*
X74354580Y-25344110D01*
X74547518Y-25811058D01*
X74904463Y-26168626D01*
X75371073Y-26362379D01*
X75876310Y-26362820D01*
X76343258Y-26169882D01*
X76700826Y-25812937D01*
X76894579Y-25346327D01*
X76895020Y-24841090D01*
X76702082Y-24374142D01*
X76345137Y-24016574D01*
X76183845Y-23949600D01*
X76260491Y-23949600D01*
X76513110Y-23949600D01*
X76746499Y-23852927D01*
X76925127Y-23674298D01*
X77021800Y-23440909D01*
X77021800Y-39392000D01*
X76884752Y-39392000D01*
X76884752Y-35214600D01*
X76884752Y-33690600D01*
X76847170Y-33496901D01*
X76735339Y-33326658D01*
X76566512Y-33212699D01*
X76366800Y-33172648D01*
X74842800Y-33172648D01*
X74649101Y-33210230D01*
X74478858Y-33322061D01*
X74364899Y-33490888D01*
X74324848Y-33690600D01*
X74324848Y-33812354D01*
X74287197Y-33721457D01*
X74045013Y-33651992D01*
X73865408Y-33831597D01*
X73865408Y-33472387D01*
X73795943Y-33230203D01*
X73272498Y-33043456D01*
X72717432Y-33071238D01*
X72333657Y-33230203D01*
X72264192Y-33472387D01*
X73064800Y-34272995D01*
X73865408Y-33472387D01*
X73865408Y-33831597D01*
X73244405Y-34452600D01*
X74045013Y-35253208D01*
X74287197Y-35183743D01*
X74324848Y-35078208D01*
X74324848Y-35214600D01*
X74362430Y-35408299D01*
X74474261Y-35578542D01*
X74643088Y-35692501D01*
X74842800Y-35732552D01*
X75328671Y-35732552D01*
X74886342Y-35915318D01*
X74528774Y-36272263D01*
X74335021Y-36738873D01*
X74335019Y-36741087D01*
X74142082Y-36274142D01*
X73785137Y-35916574D01*
X73499283Y-35797877D01*
X73795943Y-35674997D01*
X73865408Y-35432813D01*
X73064800Y-34632205D01*
X72885195Y-34811810D01*
X72885195Y-34452600D01*
X72084587Y-33651992D01*
X71842403Y-33721457D01*
X71798347Y-33844944D01*
X71747197Y-33721457D01*
X71505013Y-33651992D01*
X71325408Y-33831597D01*
X71325408Y-33472387D01*
X71255943Y-33230203D01*
X70732498Y-33043456D01*
X70177432Y-33071238D01*
X69793657Y-33230203D01*
X69724192Y-33472387D01*
X70524800Y-34272995D01*
X71325408Y-33472387D01*
X71325408Y-33831597D01*
X70704405Y-34452600D01*
X71505013Y-35253208D01*
X71747197Y-35183743D01*
X71791252Y-35060255D01*
X71842403Y-35183743D01*
X72084587Y-35253208D01*
X72885195Y-34452600D01*
X72885195Y-34811810D01*
X72264192Y-35432813D01*
X72333657Y-35674997D01*
X72652587Y-35788780D01*
X72346342Y-35915318D01*
X71988774Y-36272263D01*
X71795021Y-36738873D01*
X71795019Y-36741087D01*
X71602082Y-36274142D01*
X71245137Y-35916574D01*
X70959283Y-35797877D01*
X71255943Y-35674997D01*
X71325408Y-35432813D01*
X70524800Y-34632205D01*
X70345195Y-34811810D01*
X70345195Y-34452600D01*
X69544587Y-33651992D01*
X69302403Y-33721457D01*
X69258347Y-33844944D01*
X69207197Y-33721457D01*
X68965013Y-33651992D01*
X68785408Y-33831597D01*
X68785408Y-33472387D01*
X68715943Y-33230203D01*
X68192498Y-33043456D01*
X67637432Y-33071238D01*
X67253657Y-33230203D01*
X67184192Y-33472387D01*
X67984800Y-34272995D01*
X68785408Y-33472387D01*
X68785408Y-33831597D01*
X68164405Y-34452600D01*
X68965013Y-35253208D01*
X69207197Y-35183743D01*
X69251252Y-35060255D01*
X69302403Y-35183743D01*
X69544587Y-35253208D01*
X70345195Y-34452600D01*
X70345195Y-34811810D01*
X69724192Y-35432813D01*
X69793657Y-35674997D01*
X70112587Y-35788780D01*
X69806342Y-35915318D01*
X69448774Y-36272263D01*
X69255021Y-36738873D01*
X69255019Y-36741087D01*
X69062082Y-36274142D01*
X68705137Y-35916574D01*
X68419283Y-35797877D01*
X68715943Y-35674997D01*
X68785408Y-35432813D01*
X67984800Y-34632205D01*
X67805195Y-34811810D01*
X67805195Y-34452600D01*
X67004587Y-33651992D01*
X66762403Y-33721457D01*
X66718347Y-33844944D01*
X66667197Y-33721457D01*
X66425013Y-33651992D01*
X66245408Y-33831597D01*
X66245408Y-33472387D01*
X66175943Y-33230203D01*
X65652498Y-33043456D01*
X65097432Y-33071238D01*
X64713657Y-33230203D01*
X64644192Y-33472387D01*
X65444800Y-34272995D01*
X66245408Y-33472387D01*
X66245408Y-33831597D01*
X65624405Y-34452600D01*
X66425013Y-35253208D01*
X66667197Y-35183743D01*
X66711252Y-35060255D01*
X66762403Y-35183743D01*
X67004587Y-35253208D01*
X67805195Y-34452600D01*
X67805195Y-34811810D01*
X67184192Y-35432813D01*
X67253657Y-35674997D01*
X67572587Y-35788780D01*
X67266342Y-35915318D01*
X66908774Y-36272263D01*
X66715021Y-36738873D01*
X66715019Y-36741087D01*
X66522082Y-36274142D01*
X66165137Y-35916574D01*
X65879283Y-35797877D01*
X66175943Y-35674997D01*
X66245408Y-35432813D01*
X65444800Y-34632205D01*
X65265195Y-34811810D01*
X65265195Y-34452600D01*
X64477980Y-33665385D01*
X64478043Y-33593118D01*
X64450443Y-33526320D01*
X64450443Y-31659118D01*
X64325033Y-31355602D01*
X64093019Y-31123183D01*
X63789723Y-30997243D01*
X63461318Y-30996957D01*
X63157802Y-31122367D01*
X63156065Y-31124100D01*
X61593934Y-31124100D01*
X61593019Y-31123183D01*
X61289723Y-30997243D01*
X60961318Y-30996957D01*
X60852665Y-31041851D01*
X60852665Y-18511367D01*
X60707961Y-18161157D01*
X60440253Y-17892980D01*
X60252665Y-17815086D01*
X60252665Y-12011367D01*
X60107961Y-11661157D01*
X59840253Y-11392980D01*
X59490295Y-11247665D01*
X59111367Y-11247335D01*
X58761157Y-11392039D01*
X58715115Y-11438000D01*
X55585194Y-11438000D01*
X55540253Y-11392980D01*
X55190295Y-11247665D01*
X54811367Y-11247335D01*
X54461157Y-11392039D01*
X54192980Y-11659747D01*
X54047665Y-12009705D01*
X54047335Y-12388633D01*
X54192039Y-12738843D01*
X54459747Y-13007020D01*
X54809705Y-13152335D01*
X55188633Y-13152665D01*
X55538843Y-13007961D01*
X55584884Y-12962000D01*
X58714805Y-12962000D01*
X58759747Y-13007020D01*
X59109705Y-13152335D01*
X59488633Y-13152665D01*
X59838843Y-13007961D01*
X60107020Y-12740253D01*
X60252335Y-12390295D01*
X60252665Y-12011367D01*
X60252665Y-17815086D01*
X60090295Y-17747665D01*
X59711367Y-17747335D01*
X59557286Y-17811000D01*
X55042822Y-17811000D01*
X54890295Y-17747665D01*
X54511367Y-17747335D01*
X54161157Y-17892039D01*
X53892980Y-18159747D01*
X53747665Y-18509705D01*
X53747335Y-18888633D01*
X53892039Y-19238843D01*
X54159747Y-19507020D01*
X54509705Y-19652335D01*
X54888633Y-19652665D01*
X55042713Y-19589000D01*
X59557177Y-19589000D01*
X59709705Y-19652335D01*
X60088633Y-19652665D01*
X60438843Y-19507961D01*
X60707020Y-19240253D01*
X60852335Y-18890295D01*
X60852665Y-18511367D01*
X60852665Y-31041851D01*
X60657802Y-31122367D01*
X60425383Y-31354381D01*
X60299443Y-31657677D01*
X60299157Y-31986082D01*
X60424567Y-32289598D01*
X60656581Y-32522017D01*
X60959877Y-32647957D01*
X61288282Y-32648243D01*
X61591798Y-32522833D01*
X61593534Y-32521100D01*
X63155665Y-32521100D01*
X63156581Y-32522017D01*
X63459877Y-32647957D01*
X63788282Y-32648243D01*
X64091798Y-32522833D01*
X64324217Y-32290819D01*
X64450157Y-31987523D01*
X64450443Y-31659118D01*
X64450443Y-33526320D01*
X64352633Y-33289602D01*
X64120619Y-33057183D01*
X63817323Y-32931243D01*
X63488918Y-32930957D01*
X63185402Y-33056367D01*
X63183665Y-33058100D01*
X59927875Y-33058100D01*
X59893019Y-33023183D01*
X59589723Y-32897243D01*
X59261318Y-32896957D01*
X58957802Y-33022367D01*
X58725383Y-33254381D01*
X58599443Y-33557677D01*
X58599157Y-33886082D01*
X58724567Y-34189598D01*
X58956581Y-34422017D01*
X59259877Y-34547957D01*
X59588282Y-34548243D01*
X59813705Y-34455100D01*
X63183265Y-34455100D01*
X63184181Y-34456017D01*
X63487477Y-34581957D01*
X63815882Y-34582243D01*
X64047745Y-34486439D01*
X64063438Y-34799968D01*
X64222403Y-35183743D01*
X64464587Y-35253208D01*
X65265195Y-34452600D01*
X65265195Y-34811810D01*
X64644192Y-35432813D01*
X64713657Y-35674997D01*
X65032587Y-35788780D01*
X64726342Y-35915318D01*
X64368774Y-36272263D01*
X64175021Y-36738873D01*
X64174580Y-37244110D01*
X64367518Y-37711058D01*
X64724463Y-38068626D01*
X65191073Y-38262379D01*
X65696310Y-38262820D01*
X66163258Y-38069882D01*
X66520826Y-37712937D01*
X66714579Y-37246327D01*
X66714580Y-37244112D01*
X66907518Y-37711058D01*
X67264463Y-38068626D01*
X67731073Y-38262379D01*
X68236310Y-38262820D01*
X68703258Y-38069882D01*
X69060826Y-37712937D01*
X69254579Y-37246327D01*
X69254580Y-37244112D01*
X69447518Y-37711058D01*
X69804463Y-38068626D01*
X70271073Y-38262379D01*
X70776310Y-38262820D01*
X71243258Y-38069882D01*
X71600826Y-37712937D01*
X71794579Y-37246327D01*
X71794580Y-37244112D01*
X71987518Y-37711058D01*
X72344463Y-38068626D01*
X72811073Y-38262379D01*
X73316310Y-38262820D01*
X73783258Y-38069882D01*
X74140826Y-37712937D01*
X74334579Y-37246327D01*
X74334580Y-37244112D01*
X74527518Y-37711058D01*
X74884463Y-38068626D01*
X75351073Y-38262379D01*
X75856310Y-38262820D01*
X76323258Y-38069882D01*
X76680826Y-37712937D01*
X76874579Y-37246327D01*
X76875020Y-36741090D01*
X76682082Y-36274142D01*
X76325137Y-35916574D01*
X75881961Y-35732552D01*
X76366800Y-35732552D01*
X76560499Y-35694970D01*
X76730742Y-35583139D01*
X76844701Y-35414312D01*
X76884752Y-35214600D01*
X76884752Y-39392000D01*
X58858081Y-39392000D01*
X58953400Y-38912800D01*
X58856727Y-38426792D01*
X58581425Y-38014775D01*
X58169408Y-37739473D01*
X57924832Y-37690823D01*
X57924832Y-22277294D01*
X57809068Y-21997126D01*
X57594902Y-21782585D01*
X57314936Y-21666333D01*
X57011794Y-21666068D01*
X56857794Y-21729700D01*
X56007040Y-21729700D01*
X55854436Y-21666333D01*
X55551294Y-21666068D01*
X55271126Y-21781832D01*
X55056585Y-21995998D01*
X54940333Y-22275964D01*
X54940068Y-22579106D01*
X55055832Y-22859274D01*
X55269998Y-23073815D01*
X55549964Y-23190067D01*
X55853106Y-23190332D01*
X56007105Y-23126700D01*
X56857859Y-23126700D01*
X57010464Y-23190067D01*
X57313606Y-23190332D01*
X57593774Y-23074568D01*
X57808315Y-22860402D01*
X57924567Y-22580436D01*
X57924832Y-22277294D01*
X57924832Y-37690823D01*
X57683400Y-37642800D01*
X57622066Y-37655000D01*
X55250212Y-37655000D01*
X55250212Y-27898314D01*
X55134448Y-27618146D01*
X54920282Y-27403605D01*
X54640316Y-27287353D01*
X54337174Y-27287088D01*
X54057006Y-27402852D01*
X53842465Y-27617018D01*
X53727335Y-27894280D01*
X53296602Y-27894280D01*
X53296602Y-10872611D01*
X53119099Y-10443019D01*
X52790709Y-10114057D01*
X52361429Y-9935804D01*
X52013129Y-9935499D01*
X51438815Y-9361185D01*
X51191605Y-9196004D01*
X50900000Y-9138000D01*
X45817502Y-9138000D01*
X45664923Y-9074643D01*
X45336518Y-9074357D01*
X45033002Y-9199767D01*
X44800583Y-9431781D01*
X44674643Y-9735077D01*
X44674357Y-10063482D01*
X44738012Y-10217540D01*
X44634709Y-10114057D01*
X44263981Y-9960116D01*
X44263981Y-6461410D01*
X44234605Y-5946906D01*
X44094229Y-5608009D01*
X43862558Y-5551047D01*
X43682953Y-5730652D01*
X43682953Y-5371442D01*
X43625991Y-5139771D01*
X43147061Y-4972688D01*
X43247981Y-4683410D01*
X43218605Y-4168906D01*
X43078229Y-3830009D01*
X42846558Y-3773047D01*
X42666953Y-3952652D01*
X42666953Y-3593442D01*
X42609991Y-3361771D01*
X42123410Y-3192019D01*
X41608906Y-3221395D01*
X41270009Y-3361771D01*
X41213047Y-3593442D01*
X41940000Y-4320395D01*
X42666953Y-3593442D01*
X42666953Y-3952652D01*
X42119605Y-4500000D01*
X42133747Y-4514142D01*
X41954142Y-4693747D01*
X41940000Y-4679605D01*
X41925857Y-4693747D01*
X41746252Y-4514142D01*
X41760395Y-4500000D01*
X41033442Y-3773047D01*
X40872696Y-3812570D01*
X40570709Y-3510057D01*
X40141429Y-3331804D01*
X39676611Y-3331398D01*
X39247019Y-3508901D01*
X38918057Y-3837291D01*
X38892157Y-3899664D01*
X38867099Y-3839019D01*
X38538709Y-3510057D01*
X38109429Y-3331804D01*
X37644611Y-3331398D01*
X37215019Y-3508901D01*
X36886057Y-3837291D01*
X36860157Y-3899664D01*
X36835099Y-3839019D01*
X36506709Y-3510057D01*
X36077429Y-3331804D01*
X35612611Y-3331398D01*
X35183019Y-3508901D01*
X34854057Y-3837291D01*
X34675804Y-4266571D01*
X34675398Y-4731389D01*
X34852901Y-5160981D01*
X35181291Y-5489943D01*
X35610571Y-5668196D01*
X35848002Y-5668403D01*
X35691804Y-6044571D01*
X35691398Y-6509389D01*
X35868901Y-6938981D01*
X36197291Y-7267943D01*
X36626571Y-7446196D01*
X37091389Y-7446602D01*
X37520981Y-7269099D01*
X37849943Y-6940709D01*
X37875842Y-6878335D01*
X37900901Y-6938981D01*
X38229291Y-7267943D01*
X38658571Y-7446196D01*
X39123389Y-7446602D01*
X39552981Y-7269099D01*
X39881943Y-6940709D01*
X39907842Y-6878335D01*
X39932901Y-6938981D01*
X40261291Y-7267943D01*
X40690571Y-7446196D01*
X41155389Y-7446602D01*
X41584981Y-7269099D01*
X41889083Y-6965524D01*
X42049442Y-7004953D01*
X42776395Y-6278000D01*
X42762252Y-6263857D01*
X42941857Y-6084252D01*
X42956000Y-6098395D01*
X43682953Y-5371442D01*
X43682953Y-5730652D01*
X43135605Y-6278000D01*
X43862558Y-7004953D01*
X44094229Y-6947991D01*
X44263981Y-6461410D01*
X44263981Y-9960116D01*
X44205429Y-9935804D01*
X43740611Y-9935398D01*
X43682953Y-9959221D01*
X43682953Y-7184558D01*
X42956000Y-6457605D01*
X42229047Y-7184558D01*
X42286009Y-7416229D01*
X42772590Y-7585981D01*
X43287094Y-7556605D01*
X43625991Y-7416229D01*
X43682953Y-7184558D01*
X43682953Y-9959221D01*
X43311019Y-10112901D01*
X42982057Y-10441291D01*
X42803804Y-10870571D01*
X42803398Y-11335389D01*
X42980901Y-11764981D01*
X43309291Y-12093943D01*
X43738571Y-12272196D01*
X44203389Y-12272602D01*
X44632981Y-12095099D01*
X44961943Y-11766709D01*
X45115156Y-11397730D01*
X45266901Y-11764981D01*
X45595291Y-12093943D01*
X46024571Y-12272196D01*
X46489389Y-12272602D01*
X46918981Y-12095099D01*
X47247943Y-11766709D01*
X47426196Y-11337429D01*
X47426602Y-10872611D01*
X47339579Y-10662000D01*
X48760410Y-10662000D01*
X48673804Y-10870571D01*
X48673398Y-11335389D01*
X48850901Y-11764981D01*
X49179291Y-12093943D01*
X49608571Y-12272196D01*
X50073389Y-12272602D01*
X50502981Y-12095099D01*
X50831943Y-11766709D01*
X50985156Y-11397730D01*
X51136901Y-11764981D01*
X51465291Y-12093943D01*
X51894571Y-12272196D01*
X52359389Y-12272602D01*
X52788981Y-12095099D01*
X53117943Y-11766709D01*
X53296196Y-11337429D01*
X53296602Y-10872611D01*
X53296602Y-27894280D01*
X52852320Y-27894280D01*
X48919264Y-27894280D01*
X49839313Y-26974231D01*
X49976964Y-26768223D01*
X49976964Y-26768222D01*
X50025300Y-26525218D01*
X50025300Y-26035191D01*
X50028295Y-26032202D01*
X50144547Y-25752236D01*
X50144812Y-25449094D01*
X50095022Y-25328594D01*
X50150682Y-25328643D01*
X50454198Y-25203233D01*
X50686617Y-24971219D01*
X50812557Y-24667923D01*
X50812843Y-24339518D01*
X50749200Y-24185489D01*
X50749200Y-22610702D01*
X50812557Y-22458123D01*
X50812843Y-22129718D01*
X50749200Y-21975689D01*
X50749200Y-20400902D01*
X50812557Y-20248323D01*
X50812843Y-19919918D01*
X50687433Y-19616402D01*
X50455419Y-19383983D01*
X50152123Y-19258043D01*
X49823718Y-19257757D01*
X49520202Y-19383167D01*
X49287783Y-19615181D01*
X49161843Y-19918477D01*
X49161557Y-20246882D01*
X49225200Y-20400910D01*
X49225200Y-21184734D01*
X47606653Y-19566187D01*
X47400644Y-19428536D01*
X47157640Y-19380200D01*
X45249544Y-19380200D01*
X45249544Y-15142898D01*
X45221762Y-14587832D01*
X45062797Y-14204057D01*
X44820613Y-14134592D01*
X44641008Y-14314197D01*
X44641008Y-13954987D01*
X44571543Y-13712803D01*
X44048098Y-13526056D01*
X43493032Y-13553838D01*
X43109257Y-13712803D01*
X43039792Y-13954987D01*
X43840400Y-14755595D01*
X44641008Y-13954987D01*
X44641008Y-14314197D01*
X44020005Y-14935200D01*
X44820613Y-15735808D01*
X45062797Y-15666343D01*
X45249544Y-15142898D01*
X45249544Y-19380200D01*
X44952165Y-19380200D01*
X44917682Y-19296742D01*
X44560737Y-18939174D01*
X44094127Y-18745421D01*
X44091912Y-18745419D01*
X44558858Y-18552482D01*
X44916426Y-18195537D01*
X45110179Y-17728927D01*
X45110620Y-17223690D01*
X44917682Y-16756742D01*
X44560737Y-16399174D01*
X44274883Y-16280477D01*
X44571543Y-16157597D01*
X44641008Y-15915413D01*
X43840400Y-15114805D01*
X43039792Y-15915413D01*
X43109257Y-16157597D01*
X43428187Y-16271380D01*
X43121942Y-16397918D01*
X42764374Y-16754863D01*
X42570621Y-17221473D01*
X42570619Y-17223687D01*
X42377682Y-16756742D01*
X42020737Y-16399174D01*
X41859445Y-16332200D01*
X41936091Y-16332200D01*
X42188710Y-16332200D01*
X42422099Y-16235527D01*
X42600727Y-16056898D01*
X42697400Y-15823509D01*
X42697400Y-15689116D01*
X42860187Y-15735808D01*
X43660795Y-14935200D01*
X42860187Y-14134592D01*
X42697400Y-14181283D01*
X42697400Y-14046891D01*
X42600727Y-13813502D01*
X42422099Y-13634873D01*
X42188710Y-13538200D01*
X41936091Y-13538200D01*
X41586150Y-13538200D01*
X41427400Y-13696950D01*
X41427400Y-14808200D01*
X41447400Y-14808200D01*
X41447400Y-15062200D01*
X41427400Y-15062200D01*
X41427400Y-15082200D01*
X41173400Y-15082200D01*
X41173400Y-15062200D01*
X41173400Y-14808200D01*
X41173400Y-13696950D01*
X41014650Y-13538200D01*
X40664709Y-13538200D01*
X40412090Y-13538200D01*
X40178701Y-13634873D01*
X40000073Y-13813502D01*
X39903400Y-14046891D01*
X39903400Y-14649450D01*
X40062150Y-14808200D01*
X41173400Y-14808200D01*
X41173400Y-15062200D01*
X40062150Y-15062200D01*
X39903400Y-15220950D01*
X39903400Y-15823509D01*
X40000073Y-16056898D01*
X40178701Y-16235527D01*
X40412090Y-16332200D01*
X40664709Y-16332200D01*
X40740992Y-16332200D01*
X40581942Y-16397918D01*
X40224374Y-16754863D01*
X40030621Y-17221473D01*
X40030180Y-17726710D01*
X40223118Y-18193658D01*
X40580063Y-18551226D01*
X41046673Y-18744979D01*
X41048887Y-18744980D01*
X40581942Y-18937918D01*
X40224374Y-19294863D01*
X40030621Y-19761473D01*
X40030180Y-20266710D01*
X40223118Y-20733658D01*
X40580063Y-21091226D01*
X41046673Y-21284979D01*
X41048887Y-21284980D01*
X40581942Y-21477918D01*
X40224374Y-21834863D01*
X40030621Y-22301473D01*
X40030180Y-22806710D01*
X40223118Y-23273658D01*
X40580063Y-23631226D01*
X41046673Y-23824979D01*
X41048887Y-23824980D01*
X40581942Y-24017918D01*
X40224374Y-24374863D01*
X40030621Y-24841473D01*
X40030180Y-25346710D01*
X40223118Y-25813658D01*
X40580063Y-26171226D01*
X41046673Y-26364979D01*
X41551910Y-26365420D01*
X42018858Y-26172482D01*
X42119406Y-26072108D01*
X42121387Y-26075073D01*
X42979907Y-26933593D01*
X43185916Y-27071244D01*
X43428920Y-27119581D01*
X43428920Y-27119580D01*
X43428925Y-27119580D01*
X45562520Y-27119580D01*
X45805524Y-27071244D01*
X46011533Y-26933593D01*
X46518966Y-26426160D01*
X48000800Y-26426160D01*
X48000788Y-26439906D01*
X48116552Y-26720074D01*
X48206905Y-26810586D01*
X47580414Y-27437078D01*
X45669329Y-27437078D01*
X45643800Y-27432000D01*
X40547426Y-27432000D01*
X40157518Y-27042092D01*
X40157532Y-27027094D01*
X40041768Y-26746926D01*
X39827602Y-26532385D01*
X39547636Y-26416133D01*
X39244494Y-26415868D01*
X38964326Y-26531632D01*
X38749785Y-26745798D01*
X38680905Y-26911679D01*
X36042600Y-24273374D01*
X36042600Y-21097240D01*
X35994264Y-20854236D01*
X35856613Y-20648227D01*
X35613293Y-20404907D01*
X35613505Y-20161847D01*
X35468801Y-19811637D01*
X35201093Y-19543460D01*
X34851135Y-19398145D01*
X34518600Y-19397855D01*
X34518600Y-18669000D01*
X38625030Y-18669000D01*
X38722505Y-18709475D01*
X39101433Y-18709805D01*
X39451643Y-18565101D01*
X39719820Y-18297393D01*
X39865135Y-17947435D01*
X39865465Y-17568507D01*
X39720761Y-17218297D01*
X39453053Y-16950120D01*
X39162008Y-16829267D01*
X39225055Y-16677435D01*
X39225385Y-16298507D01*
X39174420Y-16175162D01*
X39174420Y-14350922D01*
X39237755Y-14198395D01*
X39238085Y-13819467D01*
X39093381Y-13469257D01*
X38825673Y-13201080D01*
X38475715Y-13055765D01*
X38096787Y-13055435D01*
X37746577Y-13200139D01*
X37478400Y-13467847D01*
X37333085Y-13817805D01*
X37332755Y-14196733D01*
X37396420Y-14350813D01*
X37396420Y-16113732D01*
X37320385Y-16296845D01*
X37320055Y-16675773D01*
X37408985Y-16891000D01*
X35996602Y-16891000D01*
X35996602Y-10872611D01*
X35819099Y-10443019D01*
X35490709Y-10114057D01*
X35061429Y-9935804D01*
X34596611Y-9935398D01*
X34167019Y-10112901D01*
X33838057Y-10441291D01*
X33684843Y-10810269D01*
X33533099Y-10443019D01*
X33204709Y-10114057D01*
X32775429Y-9935804D01*
X32310611Y-9935398D01*
X31881019Y-10112901D01*
X31552057Y-10441291D01*
X31373804Y-10870571D01*
X31373398Y-11335389D01*
X31550901Y-11764981D01*
X31879291Y-12093943D01*
X32308571Y-12272196D01*
X32773389Y-12272602D01*
X33202981Y-12095099D01*
X33531943Y-11766709D01*
X33685156Y-11397730D01*
X33836901Y-11764981D01*
X34165291Y-12093943D01*
X34594571Y-12272196D01*
X35059389Y-12272602D01*
X35488981Y-12095099D01*
X35817943Y-11766709D01*
X35996196Y-11337429D01*
X35996602Y-10872611D01*
X35996602Y-16891000D01*
X33629600Y-16891000D01*
X33289394Y-16958671D01*
X33000982Y-17151382D01*
X32808271Y-17439794D01*
X32740600Y-17780000D01*
X32740600Y-20739164D01*
X30133514Y-23346249D01*
X29819354Y-23215799D01*
X29783222Y-23215767D01*
X29783222Y-2245915D01*
X29588308Y-1774189D01*
X29227710Y-1412960D01*
X28756324Y-1217224D01*
X28245915Y-1216778D01*
X27774189Y-1411692D01*
X27412960Y-1772290D01*
X27217224Y-2243676D01*
X27216778Y-2754085D01*
X27411692Y-3225811D01*
X27772290Y-3587040D01*
X28243676Y-3782776D01*
X28754085Y-3783222D01*
X29225811Y-3588308D01*
X29587040Y-3227710D01*
X29782776Y-2756324D01*
X29783222Y-2245915D01*
X29783222Y-23215767D01*
X29364641Y-23215402D01*
X28944388Y-23389046D01*
X28622577Y-23710297D01*
X28448199Y-24130246D01*
X28447802Y-24584959D01*
X28621446Y-25005212D01*
X28942697Y-25327023D01*
X29362646Y-25501401D01*
X29817359Y-25501798D01*
X30237612Y-25328154D01*
X30318306Y-25247600D01*
X30378400Y-25247600D01*
X30718605Y-25179929D01*
X30718606Y-25179929D01*
X31007018Y-24987218D01*
X34258218Y-21736018D01*
X34450929Y-21447606D01*
X34450929Y-21447605D01*
X34479728Y-21302822D01*
X34715362Y-21303028D01*
X34772600Y-21360266D01*
X34772600Y-24536400D01*
X34820936Y-24779404D01*
X34958587Y-24985413D01*
X38951467Y-28978293D01*
X39157476Y-29115944D01*
X39400480Y-29164280D01*
X52852320Y-29164280D01*
X54008020Y-29164280D01*
X54251024Y-29115944D01*
X54457033Y-28978293D01*
X54623987Y-28811338D01*
X54638986Y-28811352D01*
X54919154Y-28695588D01*
X55133695Y-28481422D01*
X55249947Y-28201456D01*
X55250212Y-27898314D01*
X55250212Y-37655000D01*
X54220000Y-37655000D01*
X54220000Y-37400000D01*
X54123327Y-36913992D01*
X53848026Y-36501974D01*
X53436008Y-36226673D01*
X52950000Y-36130000D01*
X52463992Y-36226673D01*
X52051974Y-36501974D01*
X51776673Y-36913992D01*
X51680000Y-37400000D01*
X51680000Y-37655000D01*
X36398200Y-37655000D01*
X36398200Y-30988000D01*
X36320862Y-30599194D01*
X36100620Y-30269580D01*
X35771006Y-30049338D01*
X35382200Y-29972000D01*
X32969200Y-29972000D01*
X31038800Y-29972000D01*
X30649994Y-30049338D01*
X30320380Y-30269580D01*
X30100138Y-30599194D01*
X30022800Y-30988000D01*
X30100138Y-31376806D01*
X30320380Y-31706420D01*
X30649994Y-31926662D01*
X31038800Y-32004000D01*
X32969200Y-32004000D01*
X35382200Y-32004000D01*
X35771006Y-31926662D01*
X36100620Y-31706420D01*
X36320862Y-31376806D01*
X36398200Y-30988000D01*
X36398200Y-37655000D01*
X32925000Y-37655000D01*
X32438992Y-37751673D01*
X32026974Y-38026974D01*
X31751673Y-38438992D01*
X31655000Y-38925000D01*
X31747892Y-39392000D01*
X26760000Y-39392000D01*
X26760000Y-4501310D01*
X26760000Y-4248691D01*
X26760000Y-4035750D01*
X26760000Y-3464250D01*
X26760000Y-3251309D01*
X26760000Y-2998690D01*
X26663327Y-2765301D01*
X26484698Y-2586673D01*
X26251309Y-2490000D01*
X25785750Y-2490000D01*
X25627000Y-2648750D01*
X25627000Y-3623000D01*
X26601250Y-3623000D01*
X26760000Y-3464250D01*
X26760000Y-4035750D01*
X26601250Y-3877000D01*
X25627000Y-3877000D01*
X25627000Y-4851250D01*
X25785750Y-5010000D01*
X26251309Y-5010000D01*
X26484698Y-4913327D01*
X26663327Y-4734699D01*
X26760000Y-4501310D01*
X26760000Y-39392000D01*
X26566003Y-39392000D01*
X26566003Y-12803218D01*
X26440593Y-12499702D01*
X26438860Y-12497965D01*
X26438860Y-8363454D01*
X26439777Y-8362539D01*
X26565717Y-8059243D01*
X26566003Y-7730838D01*
X26440593Y-7427322D01*
X26208579Y-7194903D01*
X25905283Y-7068963D01*
X25576878Y-7068677D01*
X25373000Y-7152917D01*
X25373000Y-4851250D01*
X25373000Y-3877000D01*
X25353000Y-3877000D01*
X25353000Y-3623000D01*
X25373000Y-3623000D01*
X25373000Y-2648750D01*
X25214250Y-2490000D01*
X24748691Y-2490000D01*
X24515302Y-2586673D01*
X24336673Y-2765301D01*
X24272524Y-2920169D01*
X24142631Y-2790049D01*
X23726356Y-2617197D01*
X23275621Y-2616804D01*
X22859045Y-2788929D01*
X22540049Y-3107369D01*
X22500115Y-3203540D01*
X22461071Y-3109045D01*
X22142631Y-2790049D01*
X21726356Y-2617197D01*
X21275621Y-2616804D01*
X20859045Y-2788929D01*
X20540049Y-3107369D01*
X20500115Y-3203540D01*
X20461071Y-3109045D01*
X20142631Y-2790049D01*
X19726356Y-2617197D01*
X19275621Y-2616804D01*
X18859045Y-2788929D01*
X18540049Y-3107369D01*
X18367197Y-3523644D01*
X18366804Y-3974379D01*
X18538929Y-4390955D01*
X18857369Y-4709951D01*
X19273644Y-4882803D01*
X19724379Y-4883196D01*
X20140955Y-4711071D01*
X20459951Y-4392631D01*
X20499884Y-4296459D01*
X20538929Y-4390955D01*
X20857369Y-4709951D01*
X21273644Y-4882803D01*
X21724379Y-4883196D01*
X22140955Y-4711071D01*
X22459951Y-4392631D01*
X22499884Y-4296459D01*
X22538929Y-4390955D01*
X22857369Y-4709951D01*
X23273644Y-4882803D01*
X23724379Y-4883196D01*
X24140955Y-4711071D01*
X24272495Y-4579760D01*
X24336673Y-4734699D01*
X24515302Y-4913327D01*
X24748691Y-5010000D01*
X25214250Y-5010000D01*
X25373000Y-4851250D01*
X25373000Y-7152917D01*
X25321005Y-7174401D01*
X25067083Y-7068963D01*
X24738678Y-7068677D01*
X24482805Y-7174401D01*
X24228883Y-7068963D01*
X23900478Y-7068677D01*
X23596962Y-7194087D01*
X23364543Y-7426101D01*
X23238603Y-7729397D01*
X23238317Y-8057802D01*
X23362920Y-8359364D01*
X23362920Y-12497565D01*
X23362003Y-12498481D01*
X23236063Y-12801777D01*
X23235777Y-13130182D01*
X23361187Y-13433698D01*
X23593201Y-13666117D01*
X23896497Y-13792057D01*
X24224902Y-13792343D01*
X24478981Y-13687359D01*
X24737237Y-13794597D01*
X25065642Y-13794883D01*
X25324580Y-13687891D01*
X25575437Y-13792057D01*
X25903842Y-13792343D01*
X26207358Y-13666933D01*
X26439777Y-13434919D01*
X26565717Y-13131623D01*
X26566003Y-12803218D01*
X26566003Y-39392000D01*
X25878952Y-39392000D01*
X25878952Y-34174800D01*
X25878952Y-32474800D01*
X25841370Y-32281101D01*
X25729539Y-32110858D01*
X25560712Y-31996899D01*
X25361000Y-31956848D01*
X24298112Y-31956848D01*
X24298112Y-22100800D01*
X24298112Y-20400800D01*
X24260530Y-20207101D01*
X24148699Y-20036858D01*
X23979872Y-19922899D01*
X23780160Y-19882848D01*
X22080160Y-19882848D01*
X21886461Y-19920430D01*
X21716218Y-20032261D01*
X21602259Y-20201088D01*
X21562208Y-20400800D01*
X21562208Y-22100800D01*
X21599790Y-22294499D01*
X21711621Y-22464742D01*
X21880448Y-22578701D01*
X22080160Y-22618752D01*
X23780160Y-22618752D01*
X23973859Y-22581170D01*
X24144102Y-22469339D01*
X24258061Y-22300512D01*
X24298112Y-22100800D01*
X24298112Y-31956848D01*
X23661000Y-31956848D01*
X23467301Y-31994430D01*
X23297058Y-32106261D01*
X23183099Y-32275088D01*
X23143048Y-32474800D01*
X23143048Y-34174800D01*
X23180630Y-34368499D01*
X23292461Y-34538742D01*
X23461288Y-34652701D01*
X23661000Y-34692752D01*
X25361000Y-34692752D01*
X25554699Y-34655170D01*
X25724942Y-34543339D01*
X25838901Y-34374512D01*
X25878952Y-34174800D01*
X25878952Y-39392000D01*
X22546965Y-39392000D01*
X22546965Y-35616777D01*
X22519778Y-35046546D01*
X22353864Y-34645995D01*
X22107745Y-34571861D01*
X21928139Y-34751466D01*
X21928139Y-34392255D01*
X21854005Y-34146136D01*
X21316777Y-33953035D01*
X20746546Y-33980222D01*
X20345995Y-34146136D01*
X20277125Y-34374778D01*
X20277125Y-22567577D01*
X20249938Y-21997346D01*
X20084024Y-21596795D01*
X19837905Y-21522661D01*
X19658299Y-21702266D01*
X19658299Y-21343055D01*
X19584165Y-21096936D01*
X19046937Y-20903835D01*
X18476706Y-20931022D01*
X18076155Y-21096936D01*
X18002021Y-21343055D01*
X18830160Y-22171195D01*
X19658299Y-21343055D01*
X19658299Y-21702266D01*
X19009765Y-22350800D01*
X19023907Y-22364942D01*
X18844302Y-22544547D01*
X18830160Y-22530405D01*
X18816017Y-22544547D01*
X18636412Y-22364942D01*
X18650555Y-22350800D01*
X17822415Y-21522661D01*
X17576296Y-21596795D01*
X17383195Y-22134023D01*
X17410382Y-22704254D01*
X17576296Y-23104805D01*
X17718791Y-23147726D01*
X17666218Y-23182261D01*
X17552259Y-23351088D01*
X17512208Y-23550800D01*
X17512208Y-25150800D01*
X17549790Y-25344499D01*
X17661621Y-25514742D01*
X17830448Y-25628701D01*
X18030160Y-25668752D01*
X19630160Y-25668752D01*
X19823859Y-25631170D01*
X19994102Y-25519339D01*
X20108061Y-25350512D01*
X20148112Y-25150800D01*
X20148112Y-23550800D01*
X20110530Y-23357101D01*
X19998699Y-23186858D01*
X19940974Y-23147893D01*
X20084024Y-23104805D01*
X20277125Y-22567577D01*
X20277125Y-34374778D01*
X20271861Y-34392255D01*
X21100000Y-35220395D01*
X21928139Y-34392255D01*
X21928139Y-34751466D01*
X21279605Y-35400000D01*
X21293747Y-35414142D01*
X21114142Y-35593747D01*
X21100000Y-35579605D01*
X21085857Y-35593747D01*
X20906252Y-35414142D01*
X20920395Y-35400000D01*
X20092255Y-34571861D01*
X19846136Y-34645995D01*
X19653035Y-35183223D01*
X19680222Y-35753454D01*
X19846136Y-36154005D01*
X19988631Y-36196926D01*
X19936058Y-36231461D01*
X19822099Y-36400288D01*
X19782048Y-36600000D01*
X19782048Y-38200000D01*
X19819630Y-38393699D01*
X19931461Y-38563942D01*
X20100288Y-38677901D01*
X20300000Y-38717952D01*
X21900000Y-38717952D01*
X22093699Y-38680370D01*
X22263942Y-38568539D01*
X22377901Y-38399712D01*
X22417952Y-38200000D01*
X22417952Y-36600000D01*
X22380370Y-36406301D01*
X22268539Y-36236058D01*
X22210814Y-36197093D01*
X22353864Y-36154005D01*
X22546965Y-35616777D01*
X22546965Y-39392000D01*
X15783222Y-39392000D01*
X15783222Y-2245915D01*
X15588308Y-1774189D01*
X15227710Y-1412960D01*
X14756324Y-1217224D01*
X14245915Y-1216778D01*
X13774189Y-1411692D01*
X13412960Y-1772290D01*
X13217224Y-2243676D01*
X13216778Y-2754085D01*
X13411692Y-3225811D01*
X13772290Y-3587040D01*
X14243676Y-3782776D01*
X14754085Y-3783222D01*
X15225811Y-3588308D01*
X15587040Y-3227710D01*
X15782776Y-2756324D01*
X15783222Y-2245915D01*
X15783222Y-39392000D01*
X12937227Y-39392000D01*
X12937227Y-8062554D01*
X12932730Y-6914838D01*
X12502169Y-5875375D01*
X12105467Y-5624138D01*
X11925862Y-5803743D01*
X11925862Y-5444533D01*
X11674625Y-5047831D01*
X11558508Y-5000266D01*
X11674625Y-4952169D01*
X11925862Y-4555467D01*
X10050000Y-2679605D01*
X9870395Y-2859210D01*
X8174138Y-4555467D01*
X8425375Y-4952169D01*
X8541491Y-4999733D01*
X8425375Y-5047831D01*
X8174138Y-5444533D01*
X10050000Y-7320395D01*
X11925862Y-5444533D01*
X11925862Y-5803743D01*
X10229605Y-7500000D01*
X12105467Y-9375862D01*
X12502169Y-9124625D01*
X12937227Y-8062554D01*
X12937227Y-39392000D01*
X11925862Y-39392000D01*
X11925862Y-9555467D01*
X10050000Y-7679605D01*
X9870395Y-7859210D01*
X9870395Y-7500000D01*
X7994533Y-5624138D01*
X7597831Y-5875375D01*
X7162773Y-6937446D01*
X7167270Y-8085162D01*
X7597831Y-9124625D01*
X7994533Y-9375862D01*
X9870395Y-7500000D01*
X9870395Y-7859210D01*
X8174138Y-9555467D01*
X8425375Y-9952169D01*
X9487446Y-10387227D01*
X10635162Y-10382730D01*
X11674625Y-9952169D01*
X11925862Y-9555467D01*
X11925862Y-39392000D01*
X11417952Y-39392000D01*
X11417952Y-14400000D01*
X11417952Y-12800000D01*
X11380370Y-12606301D01*
X11268539Y-12436058D01*
X11099712Y-12322099D01*
X10900000Y-12282048D01*
X9300000Y-12282048D01*
X9106301Y-12319630D01*
X8936058Y-12431461D01*
X8897093Y-12489185D01*
X8854005Y-12346136D01*
X8316777Y-12153035D01*
X7746546Y-12180222D01*
X7345995Y-12346136D01*
X7271861Y-12592255D01*
X8100000Y-13420395D01*
X8114142Y-13406252D01*
X8293747Y-13585857D01*
X8279605Y-13600000D01*
X8293747Y-13614142D01*
X8114142Y-13793747D01*
X8100000Y-13779605D01*
X7920395Y-13959210D01*
X7920395Y-13600000D01*
X7092255Y-12771861D01*
X6846136Y-12845995D01*
X6653035Y-13383223D01*
X6680222Y-13953454D01*
X6846136Y-14354005D01*
X7092255Y-14428139D01*
X7920395Y-13600000D01*
X7920395Y-13959210D01*
X7271861Y-14607745D01*
X7345995Y-14853864D01*
X7883223Y-15046965D01*
X8453454Y-15019778D01*
X8854005Y-14853864D01*
X8896926Y-14711368D01*
X8931461Y-14763942D01*
X9100288Y-14877901D01*
X9300000Y-14917952D01*
X10900000Y-14917952D01*
X11093699Y-14880370D01*
X11263942Y-14768539D01*
X11377901Y-14599712D01*
X11417952Y-14400000D01*
X11417952Y-39392000D01*
X5437227Y-39392000D01*
X5437227Y-8062554D01*
X5432730Y-6914838D01*
X5002169Y-5875375D01*
X4605467Y-5624138D01*
X4425862Y-5803743D01*
X2729605Y-7500000D01*
X4605467Y-9375862D01*
X5002169Y-9124625D01*
X5437227Y-8062554D01*
X5437227Y-39392000D01*
X4425862Y-39392000D01*
X608000Y-39392000D01*
X608000Y-9621608D01*
X674139Y-9555468D01*
X925375Y-9952169D01*
X1987446Y-10387227D01*
X3135162Y-10382730D01*
X4174625Y-9952169D01*
X4425862Y-9555467D01*
X2550000Y-7679605D01*
X2535857Y-7693747D01*
X2356252Y-7514142D01*
X2370395Y-7500000D01*
X2356252Y-7485857D01*
X2535857Y-7306252D01*
X2550000Y-7320395D01*
X4425862Y-5444533D01*
X4174625Y-5047831D01*
X4058508Y-5000266D01*
X4174625Y-4952169D01*
X4425862Y-4555467D01*
X2550000Y-2679605D01*
X2535857Y-2693747D01*
X2356252Y-2514142D01*
X2370395Y-2500000D01*
X2356252Y-2485857D01*
X2535857Y-2306252D01*
X2550000Y-2320395D01*
X2564142Y-2306252D01*
X2743747Y-2485857D01*
X2729605Y-2500000D01*
X4605467Y-4375862D01*
X5002169Y-4124625D01*
X5437227Y-3062554D01*
X5432730Y-1914838D01*
X5002169Y-875375D01*
X4605468Y-624139D01*
X4621608Y-608000D01*
X7978392Y-608000D01*
X7994531Y-624139D01*
X7597831Y-875375D01*
X7162773Y-1937446D01*
X7167270Y-3085162D01*
X7597831Y-4124625D01*
X7994533Y-4375862D01*
X9870395Y-2500000D01*
X9856252Y-2485857D01*
X10035857Y-2306252D01*
X10050000Y-2320395D01*
X10064142Y-2306252D01*
X10243747Y-2485857D01*
X10229605Y-2500000D01*
X12105467Y-4375862D01*
X12502169Y-4124625D01*
X12937227Y-3062554D01*
X12932730Y-1914838D01*
X12502169Y-875375D01*
X12105468Y-624139D01*
X12121608Y-608000D01*
X31384358Y-608000D01*
X31242276Y-749835D01*
X30916771Y-1533739D01*
X30916030Y-2382537D01*
X31240167Y-3167009D01*
X31839835Y-3767724D01*
X32623739Y-4093229D01*
X33472537Y-4093970D01*
X34257009Y-3769833D01*
X34857724Y-3170165D01*
X35183229Y-2386261D01*
X35183970Y-1537463D01*
X34859833Y-752991D01*
X34715094Y-608000D01*
X44084358Y-608000D01*
X43942276Y-749835D01*
X43616771Y-1533739D01*
X43616030Y-2382537D01*
X43940167Y-3167009D01*
X44539835Y-3767724D01*
X45323739Y-4093229D01*
X46172537Y-4093970D01*
X46957009Y-3769833D01*
X47557724Y-3170165D01*
X47883229Y-2386261D01*
X47883970Y-1537463D01*
X47559833Y-752991D01*
X47415094Y-608000D01*
X48684358Y-608000D01*
X48542276Y-749835D01*
X48216771Y-1533739D01*
X48216030Y-2382537D01*
X48540167Y-3167009D01*
X49139835Y-3767724D01*
X49923739Y-4093229D01*
X50772537Y-4093970D01*
X51557009Y-3769833D01*
X52157724Y-3170165D01*
X52483229Y-2386261D01*
X52483970Y-1537463D01*
X52159833Y-752991D01*
X52015094Y-608000D01*
X61384358Y-608000D01*
X61242276Y-749835D01*
X60916771Y-1533739D01*
X60916030Y-2382537D01*
X61240167Y-3167009D01*
X61839835Y-3767724D01*
X62623739Y-4093229D01*
X63472537Y-4093970D01*
X64257009Y-3769833D01*
X64857724Y-3170165D01*
X65183229Y-2386261D01*
X65183970Y-1537463D01*
X64859833Y-752991D01*
X64715094Y-608000D01*
X66278392Y-608000D01*
X66294531Y-624139D01*
X65897831Y-875375D01*
X65462773Y-1937446D01*
X65467270Y-3085162D01*
X65897831Y-4124625D01*
X66294533Y-4375862D01*
X68170395Y-2500000D01*
X68156252Y-2485857D01*
X68335857Y-2306252D01*
X68350000Y-2320395D01*
X68364142Y-2306252D01*
X68543747Y-2485857D01*
X68529605Y-2500000D01*
X70405467Y-4375862D01*
X70802169Y-4124625D01*
X71237227Y-3062554D01*
X71232730Y-1914838D01*
X70802169Y-875375D01*
X70405468Y-624139D01*
X70421608Y-608000D01*
X73778392Y-608000D01*
X73794531Y-624139D01*
X73397831Y-875375D01*
X72962773Y-1937446D01*
X72967270Y-3085162D01*
X73397831Y-4124625D01*
X73794533Y-4375862D01*
X75670395Y-2500000D01*
X75656252Y-2485857D01*
X75835857Y-2306252D01*
X75850000Y-2320395D01*
X75864142Y-2306252D01*
X76043747Y-2485857D01*
X76029605Y-2500000D01*
X76043747Y-2514142D01*
X75864142Y-2693747D01*
X75850000Y-2679605D01*
X75670395Y-2859210D01*
X73974138Y-4555467D01*
X74225375Y-4952169D01*
X74341491Y-4999733D01*
X74225375Y-5047831D01*
X73974138Y-5444533D01*
X75850000Y-7320395D01*
X75864142Y-7306252D01*
X76043747Y-7485857D01*
X76029605Y-7500000D01*
X76043747Y-7514142D01*
X75864142Y-7693747D01*
X75850000Y-7679605D01*
X75670395Y-7859210D01*
X75670395Y-7500000D01*
X73794533Y-5624138D01*
X73397831Y-5875375D01*
X72962773Y-6937446D01*
X72967270Y-8085162D01*
X73397831Y-9124625D01*
X73794533Y-9375862D01*
X75670395Y-7500000D01*
X75670395Y-7859210D01*
X73974138Y-9555467D01*
X74225375Y-9952169D01*
X75287446Y-10387227D01*
X76435162Y-10382730D01*
X77474625Y-9952169D01*
X77725860Y-9555468D01*
X77725862Y-9555470D01*
X77792000Y-9621608D01*
X77792000Y-11633200D01*
X77725862Y-11633200D01*
X71237227Y-11633200D01*
X71237227Y-8062554D01*
X71232730Y-6914838D01*
X70802169Y-5875375D01*
X70405467Y-5624138D01*
X70225862Y-5803743D01*
X70225862Y-5444533D01*
X69974625Y-5047831D01*
X69858508Y-5000266D01*
X69974625Y-4952169D01*
X70225862Y-4555467D01*
X68350000Y-2679605D01*
X68170395Y-2859210D01*
X66474138Y-4555467D01*
X66725375Y-4952169D01*
X66841491Y-4999733D01*
X66725375Y-5047831D01*
X66474138Y-5444533D01*
X68350000Y-7320395D01*
X70225862Y-5444533D01*
X70225862Y-5803743D01*
X68529605Y-7500000D01*
X70405467Y-9375862D01*
X70802169Y-9124625D01*
X71237227Y-8062554D01*
X71237227Y-11633200D01*
X70225862Y-11633200D01*
X70225862Y-9555467D01*
X68350000Y-7679605D01*
X68170395Y-7859210D01*
X68170395Y-7500000D01*
X66294533Y-5624138D01*
X65897831Y-5875375D01*
X65462773Y-6937446D01*
X65467270Y-8085162D01*
X65897831Y-9124625D01*
X66294533Y-9375862D01*
X68170395Y-7500000D01*
X68170395Y-7859210D01*
X66474138Y-9555467D01*
X66725375Y-9952169D01*
X67787446Y-10387227D01*
X68935162Y-10382730D01*
X69974625Y-9952169D01*
X70225862Y-9555467D01*
X70225862Y-11633200D01*
X68183701Y-11633200D01*
X66319400Y-12964844D01*
X66319400Y-23061948D01*
X64726602Y-24678637D01*
X64726602Y-10872611D01*
X64549099Y-10443019D01*
X64220709Y-10114057D01*
X63791429Y-9935804D01*
X63326611Y-9935398D01*
X62897019Y-10112901D01*
X62568057Y-10441291D01*
X62414843Y-10810269D01*
X62263099Y-10443019D01*
X61934709Y-10114057D01*
X61563981Y-9960116D01*
X61563981Y-6461410D01*
X61534605Y-5946906D01*
X61394229Y-5608009D01*
X61162558Y-5551047D01*
X60982953Y-5730652D01*
X60982953Y-5371442D01*
X60925991Y-5139771D01*
X60447061Y-4972688D01*
X60547981Y-4683410D01*
X60518605Y-4168906D01*
X60378229Y-3830009D01*
X60146558Y-3773047D01*
X59966953Y-3952652D01*
X59966953Y-3593442D01*
X59909991Y-3361771D01*
X59423410Y-3192019D01*
X58908906Y-3221395D01*
X58570009Y-3361771D01*
X58513047Y-3593442D01*
X59240000Y-4320395D01*
X59966953Y-3593442D01*
X59966953Y-3952652D01*
X59419605Y-4500000D01*
X59433747Y-4514142D01*
X59254142Y-4693747D01*
X59240000Y-4679605D01*
X59225857Y-4693747D01*
X59046252Y-4514142D01*
X59060395Y-4500000D01*
X58333442Y-3773047D01*
X58172696Y-3812570D01*
X57870709Y-3510057D01*
X57441429Y-3331804D01*
X56976611Y-3331398D01*
X56547019Y-3508901D01*
X56218057Y-3837291D01*
X56192157Y-3899664D01*
X56167099Y-3839019D01*
X55838709Y-3510057D01*
X55409429Y-3331804D01*
X54944611Y-3331398D01*
X54515019Y-3508901D01*
X54186057Y-3837291D01*
X54160157Y-3899664D01*
X54135099Y-3839019D01*
X53806709Y-3510057D01*
X53377429Y-3331804D01*
X52912611Y-3331398D01*
X52483019Y-3508901D01*
X52154057Y-3837291D01*
X51975804Y-4266571D01*
X51975398Y-4731389D01*
X52152901Y-5160981D01*
X52481291Y-5489943D01*
X52910571Y-5668196D01*
X53148002Y-5668403D01*
X52991804Y-6044571D01*
X52991398Y-6509389D01*
X53168901Y-6938981D01*
X53497291Y-7267943D01*
X53926571Y-7446196D01*
X54391389Y-7446602D01*
X54820981Y-7269099D01*
X55149943Y-6940709D01*
X55175842Y-6878335D01*
X55200901Y-6938981D01*
X55303000Y-7041257D01*
X55303000Y-8576443D01*
X55247665Y-8709705D01*
X55247347Y-9074627D01*
X54936518Y-9074357D01*
X54633002Y-9199767D01*
X54400583Y-9431781D01*
X54274643Y-9735077D01*
X54274357Y-10063482D01*
X54399767Y-10366998D01*
X54631781Y-10599417D01*
X54935077Y-10725357D01*
X55263482Y-10725643D01*
X55417510Y-10662000D01*
X58782497Y-10662000D01*
X58935077Y-10725357D01*
X59263482Y-10725643D01*
X59566998Y-10600233D01*
X59799417Y-10368219D01*
X59925357Y-10064923D01*
X59925643Y-9736518D01*
X59800233Y-9433002D01*
X59568219Y-9200583D01*
X59264923Y-9074643D01*
X58936518Y-9074357D01*
X58782489Y-9138000D01*
X57132526Y-9138000D01*
X57152335Y-9090295D01*
X57152665Y-8711367D01*
X57081000Y-8537924D01*
X57081000Y-7041476D01*
X57181943Y-6940709D01*
X57207842Y-6878335D01*
X57232901Y-6938981D01*
X57561291Y-7267943D01*
X57990571Y-7446196D01*
X58455389Y-7446602D01*
X58884981Y-7269099D01*
X59189083Y-6965524D01*
X59349442Y-7004953D01*
X60076395Y-6278000D01*
X60062252Y-6263857D01*
X60241857Y-6084252D01*
X60256000Y-6098395D01*
X60982953Y-5371442D01*
X60982953Y-5730652D01*
X60435605Y-6278000D01*
X61162558Y-7004953D01*
X61394229Y-6947991D01*
X61563981Y-6461410D01*
X61563981Y-9960116D01*
X61505429Y-9935804D01*
X61040611Y-9935398D01*
X60982953Y-9959221D01*
X60982953Y-7184558D01*
X60256000Y-6457605D01*
X59529047Y-7184558D01*
X59586009Y-7416229D01*
X60072590Y-7585981D01*
X60587094Y-7556605D01*
X60925991Y-7416229D01*
X60982953Y-7184558D01*
X60982953Y-9959221D01*
X60611019Y-10112901D01*
X60282057Y-10441291D01*
X60103804Y-10870571D01*
X60103398Y-11335389D01*
X60280901Y-11764981D01*
X60609291Y-12093943D01*
X61038571Y-12272196D01*
X61503389Y-12272602D01*
X61932981Y-12095099D01*
X62261943Y-11766709D01*
X62415156Y-11397730D01*
X62566901Y-11764981D01*
X62895291Y-12093943D01*
X63324571Y-12272196D01*
X63789389Y-12272602D01*
X64218981Y-12095099D01*
X64547943Y-11766709D01*
X64726196Y-11337429D01*
X64726602Y-10872611D01*
X64726602Y-24678637D01*
X61187461Y-28270866D01*
X61557453Y-28640858D01*
X66827400Y-23305849D01*
X66827400Y-13222254D01*
X68328863Y-12141200D01*
X74515391Y-12141200D01*
X74498858Y-12152061D01*
X74384899Y-12320888D01*
X74344848Y-12520600D01*
X74344848Y-14044600D01*
X74382430Y-14238299D01*
X74494261Y-14408542D01*
X74663088Y-14522501D01*
X74862800Y-14562552D01*
X75348671Y-14562552D01*
X74906342Y-14745318D01*
X74548774Y-15102263D01*
X74355021Y-15568873D01*
X74354580Y-16074110D01*
X74547518Y-16541058D01*
X74904463Y-16898626D01*
X75371073Y-17092379D01*
X75373287Y-17092380D01*
X74906342Y-17285318D01*
X74548774Y-17642263D01*
X74355021Y-18108873D01*
X74354580Y-18614110D01*
X74547518Y-19081058D01*
X74904463Y-19438626D01*
X75069607Y-19507200D01*
X70711795Y-19507200D01*
X69113400Y-21105595D01*
X69113400Y-28220920D01*
X66501661Y-31079539D01*
X66880300Y-31377041D01*
X69583300Y-28382541D01*
X69583300Y-21287005D01*
X70893205Y-19977100D01*
X77792000Y-19977100D01*
X77792000Y-39392000D01*
M02*
