%FSLAX34Y34*%
G04 Gerber Fmt 3.4, Leading zero omitted, Abs format*
G04 (created by PCBNEW (2014-03-19 BZR 4756)-product) date Ter 03 Jun 2014 12:28:43 BRT*
%MOIN*%
G01*
G70*
G90*
G04 APERTURE LIST*
%ADD10C,0.005906*%
%ADD11R,0.055000X0.055000*%
%ADD12C,0.052000*%
%ADD13C,0.128000*%
%ADD14R,0.060000X0.060000*%
%ADD15C,0.060000*%
%ADD16C,0.059055*%
%ADD17C,0.177165*%
%ADD18C,0.047244*%
%ADD19R,0.047244X0.047244*%
%ADD20R,0.049213X0.049213*%
%ADD21C,0.049213*%
%ADD22C,0.061024*%
%ADD23C,0.035000*%
%ADD24C,0.050000*%
%ADD25C,0.025000*%
%ADD26C,0.020000*%
%ADD27C,0.040000*%
%ADD28C,0.060000*%
%ADD29C,0.020000*%
%ADD30C,0.030000*%
%ADD31C,0.015000*%
%ADD32C,0.010000*%
%ADD33C,0.025000*%
G04 APERTURE END LIST*
G54D10*
G54D11*
X9027Y-8366D03*
X9650Y-13120D03*
G54D12*
X12811Y-4371D03*
X13711Y-4371D03*
X17311Y-4371D03*
X18211Y-4371D03*
X16911Y-2471D03*
X16111Y-2471D03*
X15311Y-2471D03*
X14511Y-2471D03*
X15711Y-1771D03*
X14911Y-1771D03*
X16511Y-1771D03*
X14111Y-1771D03*
G54D13*
X13011Y-771D03*
X18011Y-771D03*
G54D12*
X19622Y-4371D03*
X20522Y-4371D03*
X24122Y-4371D03*
X25022Y-4371D03*
X23722Y-2471D03*
X22922Y-2471D03*
X22122Y-2471D03*
X21322Y-2471D03*
X22522Y-1771D03*
X21722Y-1771D03*
X23322Y-1771D03*
X20922Y-1771D03*
G54D13*
X19822Y-771D03*
X24822Y-771D03*
G54D14*
X29765Y-13564D03*
G54D15*
X29765Y-14564D03*
X28765Y-13564D03*
X28765Y-14564D03*
X27765Y-13564D03*
X27765Y-14564D03*
X26765Y-13564D03*
X26765Y-14564D03*
X25765Y-13564D03*
X25765Y-14564D03*
G54D14*
X17283Y-5913D03*
G54D15*
X17283Y-6913D03*
X17283Y-7913D03*
X17283Y-8913D03*
G54D16*
X17283Y-9913D03*
G54D14*
X29773Y-5229D03*
G54D15*
X29773Y-6229D03*
X29773Y-7229D03*
G54D14*
X29773Y-8878D03*
G54D15*
X29773Y-9878D03*
G54D17*
X29862Y-2952D03*
X26909Y-2952D03*
X29862Y-984D03*
X26909Y-984D03*
X3956Y-2952D03*
X1003Y-2952D03*
X3956Y-984D03*
X1003Y-984D03*
G54D18*
X3188Y-5354D03*
G54D19*
X3976Y-5354D03*
G54D18*
X8307Y-13937D03*
G54D19*
X8307Y-14724D03*
G54D18*
X7413Y-8799D03*
G54D19*
X7413Y-9586D03*
G54D20*
X10039Y-1476D03*
G54D21*
X8464Y-1476D03*
X7677Y-1476D03*
G54D22*
X11220Y-984D03*
X5708Y-984D03*
G54D21*
X9251Y-1476D03*
G54D23*
X13930Y-12200D03*
X12980Y-12200D03*
X12220Y-12200D03*
G54D24*
X12962Y-15324D03*
X20846Y-14724D03*
G54D23*
X21653Y-4803D03*
X23346Y-4803D03*
G54D24*
X22710Y-15320D03*
G54D25*
X19680Y-9646D03*
X19680Y-7906D03*
X19680Y-8776D03*
G54D24*
X13630Y-9600D03*
X11650Y-9590D03*
X15430Y-8100D03*
G54D23*
X23582Y-7362D03*
X21535Y-7362D03*
X25393Y-7834D03*
X24094Y-9330D03*
X21834Y-12422D03*
X12868Y-6804D03*
X15531Y-6791D03*
X2137Y-7067D03*
G54D24*
X5799Y-6358D03*
X6429Y-7067D03*
G54D23*
X19921Y-13720D03*
X23209Y-11638D03*
X10620Y-5910D03*
G54D24*
X6710Y-11480D03*
X7280Y-12190D03*
G54D23*
X6280Y-10720D03*
X8550Y-11030D03*
X16410Y-13150D03*
X18100Y-13150D03*
X23543Y-5551D03*
X21496Y-5551D03*
X25708Y-6889D03*
X19488Y-10905D03*
X23710Y-10205D03*
X27647Y-5245D03*
X25324Y-10796D03*
G54D26*
X21930Y-8830D03*
X22505Y-8830D03*
G54D25*
X23267Y-3897D03*
X21692Y-3897D03*
X17913Y-3897D03*
X23395Y-13276D03*
X25060Y-13290D03*
G54D23*
X22125Y-3503D03*
G54D25*
X10134Y-3108D03*
X10134Y-5105D03*
X9804Y-3108D03*
X9804Y-5106D03*
X9474Y-3108D03*
X9473Y-5105D03*
X24064Y-12528D03*
X25049Y-12528D03*
G54D27*
X13930Y-12200D02*
X12980Y-12200D01*
X12980Y-12200D02*
X12220Y-12200D01*
G54D28*
X12962Y-15324D02*
X20850Y-15324D01*
X20846Y-15324D02*
X20850Y-15324D01*
X20846Y-14724D02*
X20846Y-15324D01*
G54D29*
X23346Y-4803D02*
X21653Y-4803D01*
G54D28*
X20850Y-15324D02*
X22705Y-15324D01*
X22705Y-15324D02*
X22710Y-15320D01*
G54D29*
X19680Y-8776D02*
X19680Y-9646D01*
X19680Y-7906D02*
X19680Y-8776D01*
G54D28*
X16616Y-6913D02*
X15430Y-8100D01*
X13620Y-9590D02*
X13630Y-9600D01*
X11650Y-9590D02*
X13620Y-9590D01*
X17283Y-6913D02*
X16616Y-6913D01*
G54D30*
X23582Y-7362D02*
X21535Y-7362D01*
G54D31*
X21930Y-8830D02*
X22505Y-8830D01*
G54D29*
X23267Y-3897D02*
X21692Y-3897D01*
X20522Y-4371D02*
X20513Y-4371D01*
X20039Y-3897D02*
X17913Y-3897D01*
X20513Y-4371D02*
X20039Y-3897D01*
G54D32*
X23395Y-13276D02*
X23408Y-13290D01*
G54D31*
X23408Y-13290D02*
X25060Y-13290D01*
G54D30*
X22122Y-2471D02*
X22122Y-3500D01*
G54D33*
X22122Y-3500D02*
X22125Y-3503D01*
G54D31*
X10134Y-3108D02*
X10134Y-5105D01*
X9804Y-3108D02*
X9804Y-5106D01*
X9473Y-3109D02*
X9474Y-3108D01*
X9473Y-5105D02*
X9473Y-3109D01*
X25049Y-12528D02*
X24064Y-12528D01*
G54D10*
G36*
X30626Y-15508D02*
X30323Y-15508D01*
X30323Y-9228D01*
X30323Y-8529D01*
X30285Y-8437D01*
X30215Y-8367D01*
X30123Y-8329D01*
X30024Y-8328D01*
X29886Y-8328D01*
X29823Y-8391D01*
X29823Y-8828D01*
X30261Y-8828D01*
X30323Y-8766D01*
X30323Y-8529D01*
X30323Y-9228D01*
X30323Y-8991D01*
X30261Y-8928D01*
X29823Y-8928D01*
X29823Y-8936D01*
X29723Y-8936D01*
X29723Y-8928D01*
X29723Y-8828D01*
X29723Y-8391D01*
X29661Y-8328D01*
X29523Y-8328D01*
X29423Y-8329D01*
X29331Y-8367D01*
X29261Y-8437D01*
X29223Y-8529D01*
X29223Y-8766D01*
X29286Y-8828D01*
X29723Y-8828D01*
X29723Y-8928D01*
X29286Y-8928D01*
X29223Y-8991D01*
X29223Y-9228D01*
X29261Y-9320D01*
X29331Y-9390D01*
X29423Y-9428D01*
X29523Y-9429D01*
X29553Y-9429D01*
X29490Y-9454D01*
X29349Y-9595D01*
X29273Y-9779D01*
X29273Y-9977D01*
X29349Y-10161D01*
X29489Y-10302D01*
X29673Y-10378D01*
X29872Y-10379D01*
X30056Y-10303D01*
X30197Y-10162D01*
X30273Y-9978D01*
X30273Y-9779D01*
X30197Y-9596D01*
X30057Y-9455D01*
X29993Y-9429D01*
X30024Y-9429D01*
X30123Y-9428D01*
X30215Y-9390D01*
X30285Y-9320D01*
X30323Y-9228D01*
X30323Y-15508D01*
X30265Y-15508D01*
X30265Y-14464D01*
X30189Y-14281D01*
X30049Y-14140D01*
X29865Y-14064D01*
X29805Y-14064D01*
X30105Y-14064D01*
X30178Y-14033D01*
X30235Y-13977D01*
X30265Y-13903D01*
X30265Y-13824D01*
X30265Y-13224D01*
X30235Y-13150D01*
X30179Y-13094D01*
X30105Y-13064D01*
X30026Y-13063D01*
X29426Y-13063D01*
X29352Y-13094D01*
X29296Y-13150D01*
X29265Y-13224D01*
X29265Y-13303D01*
X29265Y-13321D01*
X29246Y-13276D01*
X29151Y-13248D01*
X29080Y-13319D01*
X29080Y-13178D01*
X29053Y-13082D01*
X28847Y-13009D01*
X28628Y-13020D01*
X28477Y-13082D01*
X28450Y-13178D01*
X28765Y-13493D01*
X29080Y-13178D01*
X29080Y-13319D01*
X28836Y-13564D01*
X29151Y-13879D01*
X29246Y-13851D01*
X29265Y-13799D01*
X29265Y-13903D01*
X29296Y-13977D01*
X29352Y-14033D01*
X29425Y-14063D01*
X29505Y-14064D01*
X29666Y-14064D01*
X29482Y-14139D01*
X29342Y-14280D01*
X29265Y-14464D01*
X29265Y-14465D01*
X29265Y-14464D01*
X29189Y-14281D01*
X29049Y-14140D01*
X28936Y-14093D01*
X29053Y-14045D01*
X29080Y-13949D01*
X28765Y-13634D01*
X28694Y-13705D01*
X28694Y-13564D01*
X28379Y-13248D01*
X28284Y-13276D01*
X28267Y-13324D01*
X28246Y-13276D01*
X28151Y-13248D01*
X28080Y-13319D01*
X28080Y-13178D01*
X28053Y-13082D01*
X27847Y-13009D01*
X27628Y-13020D01*
X27477Y-13082D01*
X27450Y-13178D01*
X27765Y-13493D01*
X28080Y-13178D01*
X28080Y-13319D01*
X27836Y-13564D01*
X28151Y-13879D01*
X28246Y-13851D01*
X28264Y-13803D01*
X28284Y-13851D01*
X28379Y-13879D01*
X28694Y-13564D01*
X28694Y-13705D01*
X28450Y-13949D01*
X28477Y-14045D01*
X28603Y-14090D01*
X28482Y-14139D01*
X28342Y-14280D01*
X28265Y-14464D01*
X28265Y-14465D01*
X28265Y-14464D01*
X28189Y-14281D01*
X28049Y-14140D01*
X27936Y-14093D01*
X28053Y-14045D01*
X28080Y-13949D01*
X27765Y-13634D01*
X27694Y-13705D01*
X27694Y-13564D01*
X27379Y-13248D01*
X27284Y-13276D01*
X27267Y-13324D01*
X27246Y-13276D01*
X27151Y-13248D01*
X27080Y-13319D01*
X27080Y-13178D01*
X27053Y-13082D01*
X26847Y-13009D01*
X26628Y-13020D01*
X26477Y-13082D01*
X26450Y-13178D01*
X26765Y-13493D01*
X27080Y-13178D01*
X27080Y-13319D01*
X26836Y-13564D01*
X27151Y-13879D01*
X27246Y-13851D01*
X27264Y-13803D01*
X27284Y-13851D01*
X27379Y-13879D01*
X27694Y-13564D01*
X27694Y-13705D01*
X27450Y-13949D01*
X27477Y-14045D01*
X27603Y-14090D01*
X27482Y-14139D01*
X27342Y-14280D01*
X27265Y-14464D01*
X27265Y-14465D01*
X27265Y-14464D01*
X27189Y-14281D01*
X27049Y-14140D01*
X26936Y-14093D01*
X27053Y-14045D01*
X27080Y-13949D01*
X26765Y-13634D01*
X26694Y-13705D01*
X26694Y-13564D01*
X26379Y-13248D01*
X26284Y-13276D01*
X26267Y-13324D01*
X26246Y-13276D01*
X26151Y-13248D01*
X26080Y-13319D01*
X26080Y-13178D01*
X26053Y-13082D01*
X25847Y-13009D01*
X25628Y-13020D01*
X25477Y-13082D01*
X25450Y-13178D01*
X25765Y-13493D01*
X26080Y-13178D01*
X26080Y-13319D01*
X25836Y-13564D01*
X26151Y-13879D01*
X26246Y-13851D01*
X26264Y-13803D01*
X26284Y-13851D01*
X26379Y-13879D01*
X26694Y-13564D01*
X26694Y-13705D01*
X26450Y-13949D01*
X26477Y-14045D01*
X26603Y-14090D01*
X26482Y-14139D01*
X26342Y-14280D01*
X26265Y-14464D01*
X26265Y-14465D01*
X26265Y-14464D01*
X26189Y-14281D01*
X26049Y-14140D01*
X25936Y-14093D01*
X26053Y-14045D01*
X26080Y-13949D01*
X25765Y-13634D01*
X25694Y-13705D01*
X25694Y-13564D01*
X25385Y-13254D01*
X25385Y-13225D01*
X25374Y-13199D01*
X25374Y-12464D01*
X25324Y-12344D01*
X25233Y-12253D01*
X25114Y-12203D01*
X24984Y-12203D01*
X24865Y-12252D01*
X24864Y-12253D01*
X24249Y-12253D01*
X24249Y-12253D01*
X24129Y-12203D01*
X24000Y-12203D01*
X23957Y-12221D01*
X23957Y-7287D01*
X23900Y-7150D01*
X23795Y-7044D01*
X23721Y-7013D01*
X23721Y-4728D01*
X23664Y-4591D01*
X23559Y-4485D01*
X23421Y-4428D01*
X23272Y-4428D01*
X23134Y-4485D01*
X23116Y-4503D01*
X21883Y-4503D01*
X21866Y-4485D01*
X21728Y-4428D01*
X21579Y-4428D01*
X21441Y-4485D01*
X21335Y-4590D01*
X21278Y-4728D01*
X21278Y-4877D01*
X21335Y-5015D01*
X21440Y-5120D01*
X21578Y-5178D01*
X21727Y-5178D01*
X21865Y-5121D01*
X21883Y-5103D01*
X23116Y-5103D01*
X23133Y-5120D01*
X23271Y-5178D01*
X23420Y-5178D01*
X23558Y-5121D01*
X23664Y-5015D01*
X23721Y-4878D01*
X23721Y-4728D01*
X23721Y-7013D01*
X23657Y-6987D01*
X23508Y-6987D01*
X23447Y-7012D01*
X21670Y-7012D01*
X21610Y-6987D01*
X21461Y-6987D01*
X21323Y-7044D01*
X21217Y-7149D01*
X21160Y-7287D01*
X21160Y-7436D01*
X21217Y-7574D01*
X21322Y-7679D01*
X21460Y-7737D01*
X21609Y-7737D01*
X21670Y-7712D01*
X23447Y-7712D01*
X23507Y-7737D01*
X23656Y-7737D01*
X23794Y-7680D01*
X23900Y-7574D01*
X23957Y-7437D01*
X23957Y-7287D01*
X23957Y-12221D01*
X23881Y-12252D01*
X23789Y-12344D01*
X23739Y-12463D01*
X23739Y-12592D01*
X23789Y-12712D01*
X23880Y-12803D01*
X23999Y-12853D01*
X24129Y-12853D01*
X24248Y-12804D01*
X24249Y-12803D01*
X24864Y-12803D01*
X24864Y-12803D01*
X24984Y-12853D01*
X25113Y-12853D01*
X25232Y-12804D01*
X25324Y-12712D01*
X25374Y-12593D01*
X25374Y-12464D01*
X25374Y-13199D01*
X25335Y-13106D01*
X25244Y-13014D01*
X25124Y-12965D01*
X24995Y-12964D01*
X24876Y-13014D01*
X24875Y-13015D01*
X23593Y-13015D01*
X23579Y-13001D01*
X23460Y-12951D01*
X23331Y-12951D01*
X23211Y-13000D01*
X23120Y-13092D01*
X23070Y-13211D01*
X23070Y-13340D01*
X23119Y-13460D01*
X23211Y-13551D01*
X23330Y-13601D01*
X23459Y-13601D01*
X23548Y-13565D01*
X24875Y-13565D01*
X24875Y-13565D01*
X24995Y-13614D01*
X25124Y-13615D01*
X25215Y-13577D01*
X25221Y-13700D01*
X25284Y-13851D01*
X25379Y-13879D01*
X25694Y-13564D01*
X25694Y-13705D01*
X25450Y-13949D01*
X25477Y-14045D01*
X25603Y-14090D01*
X25482Y-14139D01*
X25342Y-14280D01*
X25265Y-14464D01*
X25265Y-14663D01*
X25341Y-14846D01*
X25482Y-14987D01*
X25665Y-15063D01*
X25864Y-15064D01*
X26048Y-14988D01*
X26189Y-14847D01*
X26265Y-14663D01*
X26265Y-14464D01*
X26265Y-14465D01*
X26265Y-14663D01*
X26341Y-14846D01*
X26482Y-14987D01*
X26665Y-15063D01*
X26864Y-15064D01*
X27048Y-14988D01*
X27189Y-14847D01*
X27265Y-14663D01*
X27265Y-14464D01*
X27265Y-14465D01*
X27265Y-14663D01*
X27341Y-14846D01*
X27482Y-14987D01*
X27665Y-15063D01*
X27864Y-15064D01*
X28048Y-14988D01*
X28189Y-14847D01*
X28265Y-14663D01*
X28265Y-14464D01*
X28265Y-14465D01*
X28265Y-14663D01*
X28341Y-14846D01*
X28482Y-14987D01*
X28665Y-15063D01*
X28864Y-15064D01*
X29048Y-14988D01*
X29189Y-14847D01*
X29265Y-14663D01*
X29265Y-14464D01*
X29265Y-14465D01*
X29265Y-14663D01*
X29341Y-14846D01*
X29482Y-14987D01*
X29665Y-15063D01*
X29864Y-15064D01*
X30048Y-14988D01*
X30189Y-14847D01*
X30265Y-14663D01*
X30265Y-14464D01*
X30265Y-15508D01*
X23172Y-15508D01*
X23210Y-15320D01*
X23171Y-15128D01*
X23063Y-14966D01*
X22901Y-14858D01*
X22805Y-14838D01*
X22805Y-8770D01*
X22759Y-8660D01*
X22675Y-8575D01*
X22564Y-8530D01*
X22445Y-8529D01*
X22384Y-8555D01*
X22050Y-8555D01*
X21989Y-8530D01*
X21870Y-8529D01*
X21760Y-8575D01*
X21675Y-8659D01*
X21630Y-8770D01*
X21629Y-8889D01*
X21675Y-8999D01*
X21759Y-9084D01*
X21870Y-9129D01*
X21989Y-9130D01*
X22050Y-9105D01*
X22384Y-9105D01*
X22445Y-9129D01*
X22564Y-9130D01*
X22674Y-9084D01*
X22759Y-9000D01*
X22804Y-8889D01*
X22805Y-8770D01*
X22805Y-14838D01*
X22710Y-14820D01*
X22685Y-14824D01*
X21346Y-14824D01*
X21346Y-14724D01*
X21308Y-14533D01*
X21200Y-14370D01*
X21037Y-14262D01*
X20982Y-14251D01*
X20982Y-4280D01*
X20913Y-4111D01*
X20783Y-3981D01*
X20614Y-3911D01*
X20477Y-3911D01*
X20251Y-3685D01*
X20154Y-3620D01*
X20039Y-3597D01*
X18038Y-3597D01*
X17978Y-3572D01*
X17849Y-3572D01*
X17729Y-3621D01*
X17638Y-3713D01*
X17588Y-3832D01*
X17588Y-3962D01*
X17613Y-4022D01*
X17572Y-3981D01*
X17426Y-3921D01*
X17426Y-2543D01*
X17415Y-2341D01*
X17359Y-2207D01*
X17268Y-2185D01*
X17198Y-2256D01*
X17198Y-2114D01*
X17175Y-2023D01*
X16987Y-1957D01*
X17026Y-1843D01*
X17015Y-1641D01*
X16959Y-1507D01*
X16868Y-1485D01*
X16798Y-1556D01*
X16798Y-1414D01*
X16775Y-1323D01*
X16584Y-1256D01*
X16381Y-1268D01*
X16248Y-1323D01*
X16225Y-1414D01*
X16511Y-1700D01*
X16798Y-1414D01*
X16798Y-1556D01*
X16582Y-1771D01*
X16588Y-1777D01*
X16517Y-1847D01*
X16511Y-1842D01*
X16506Y-1847D01*
X16435Y-1777D01*
X16441Y-1771D01*
X16154Y-1485D01*
X16091Y-1501D01*
X15972Y-1381D01*
X15803Y-1311D01*
X15620Y-1311D01*
X15451Y-1381D01*
X15322Y-1510D01*
X15311Y-1535D01*
X15302Y-1511D01*
X15172Y-1381D01*
X15003Y-1311D01*
X14820Y-1311D01*
X14651Y-1381D01*
X14522Y-1510D01*
X14511Y-1535D01*
X14502Y-1511D01*
X14372Y-1381D01*
X14203Y-1311D01*
X14020Y-1311D01*
X13851Y-1381D01*
X13722Y-1510D01*
X13651Y-1679D01*
X13651Y-1862D01*
X13721Y-2031D01*
X13850Y-2161D01*
X14019Y-2231D01*
X14113Y-2231D01*
X14051Y-2379D01*
X14051Y-2562D01*
X14121Y-2731D01*
X14250Y-2861D01*
X14419Y-2931D01*
X14602Y-2931D01*
X14772Y-2861D01*
X14901Y-2732D01*
X14911Y-2708D01*
X14921Y-2731D01*
X15050Y-2861D01*
X15219Y-2931D01*
X15402Y-2931D01*
X15572Y-2861D01*
X15701Y-2732D01*
X15711Y-2708D01*
X15721Y-2731D01*
X15850Y-2861D01*
X16019Y-2931D01*
X16202Y-2931D01*
X16372Y-2861D01*
X16491Y-2742D01*
X16554Y-2757D01*
X16841Y-2471D01*
X16835Y-2466D01*
X16906Y-2395D01*
X16911Y-2400D01*
X17198Y-2114D01*
X17198Y-2256D01*
X16982Y-2471D01*
X17268Y-2757D01*
X17359Y-2735D01*
X17426Y-2543D01*
X17426Y-3921D01*
X17403Y-3911D01*
X17220Y-3911D01*
X17198Y-3920D01*
X17198Y-2828D01*
X16911Y-2542D01*
X16625Y-2828D01*
X16648Y-2919D01*
X16839Y-2986D01*
X17042Y-2975D01*
X17175Y-2919D01*
X17198Y-2828D01*
X17198Y-3920D01*
X17051Y-3981D01*
X16922Y-4110D01*
X16851Y-4279D01*
X16851Y-4462D01*
X16921Y-4631D01*
X17050Y-4761D01*
X17219Y-4831D01*
X17402Y-4831D01*
X17572Y-4761D01*
X17701Y-4632D01*
X17761Y-4487D01*
X17821Y-4631D01*
X17950Y-4761D01*
X18119Y-4831D01*
X18302Y-4831D01*
X18472Y-4761D01*
X18601Y-4632D01*
X18671Y-4463D01*
X18671Y-4280D01*
X18637Y-4197D01*
X19197Y-4197D01*
X19162Y-4279D01*
X19162Y-4462D01*
X19232Y-4631D01*
X19361Y-4761D01*
X19530Y-4831D01*
X19713Y-4831D01*
X19883Y-4761D01*
X20012Y-4632D01*
X20072Y-4487D01*
X20132Y-4631D01*
X20261Y-4761D01*
X20430Y-4831D01*
X20613Y-4831D01*
X20783Y-4761D01*
X20912Y-4632D01*
X20982Y-4463D01*
X20982Y-4280D01*
X20982Y-14251D01*
X20846Y-14224D01*
X20655Y-14262D01*
X20492Y-14370D01*
X20384Y-14533D01*
X20346Y-14724D01*
X20346Y-14824D01*
X20005Y-14824D01*
X20005Y-9582D01*
X19980Y-9521D01*
X19980Y-8901D01*
X20004Y-8841D01*
X20005Y-8712D01*
X19980Y-8651D01*
X19980Y-8031D01*
X20004Y-7971D01*
X20005Y-7842D01*
X19955Y-7722D01*
X19864Y-7631D01*
X19744Y-7581D01*
X19615Y-7581D01*
X19496Y-7631D01*
X19404Y-7722D01*
X19355Y-7841D01*
X19354Y-7971D01*
X19380Y-8031D01*
X19380Y-8651D01*
X19355Y-8711D01*
X19354Y-8841D01*
X19380Y-8901D01*
X19380Y-9521D01*
X19355Y-9581D01*
X19354Y-9711D01*
X19404Y-9830D01*
X19495Y-9922D01*
X19615Y-9971D01*
X19744Y-9971D01*
X19863Y-9922D01*
X19955Y-9831D01*
X20004Y-9711D01*
X20005Y-9582D01*
X20005Y-14824D01*
X17833Y-14824D01*
X17833Y-6262D01*
X17833Y-5563D01*
X17795Y-5471D01*
X17725Y-5401D01*
X17633Y-5363D01*
X17533Y-5363D01*
X17395Y-5363D01*
X17333Y-5425D01*
X17333Y-5863D01*
X17770Y-5863D01*
X17833Y-5800D01*
X17833Y-5563D01*
X17833Y-6262D01*
X17833Y-6025D01*
X17770Y-5963D01*
X17333Y-5963D01*
X17333Y-5971D01*
X17233Y-5971D01*
X17233Y-5963D01*
X17233Y-5863D01*
X17233Y-5425D01*
X17170Y-5363D01*
X17032Y-5363D01*
X16933Y-5363D01*
X16841Y-5401D01*
X16771Y-5471D01*
X16733Y-5563D01*
X16733Y-5800D01*
X16795Y-5863D01*
X17233Y-5863D01*
X17233Y-5963D01*
X16795Y-5963D01*
X16733Y-6025D01*
X16733Y-6262D01*
X16771Y-6354D01*
X16829Y-6413D01*
X16616Y-6413D01*
X16425Y-6451D01*
X16263Y-6559D01*
X16263Y-6559D01*
X15076Y-7746D01*
X14968Y-7908D01*
X14929Y-8100D01*
X14968Y-8291D01*
X15076Y-8453D01*
X15238Y-8561D01*
X15430Y-8600D01*
X15621Y-8561D01*
X15783Y-8453D01*
X16823Y-7413D01*
X17184Y-7413D01*
X17000Y-7489D01*
X16859Y-7629D01*
X16783Y-7813D01*
X16783Y-8012D01*
X16859Y-8196D01*
X16999Y-8337D01*
X17183Y-8413D01*
X17382Y-8413D01*
X17566Y-8337D01*
X17707Y-8196D01*
X17783Y-8013D01*
X17783Y-7814D01*
X17707Y-7630D01*
X17567Y-7489D01*
X17383Y-7413D01*
X17283Y-7413D01*
X17283Y-7413D01*
X17382Y-7413D01*
X17474Y-7375D01*
X17474Y-7375D01*
X17474Y-7375D01*
X17566Y-7337D01*
X17637Y-7266D01*
X17637Y-7266D01*
X17637Y-7266D01*
X17707Y-7196D01*
X17745Y-7104D01*
X17745Y-7104D01*
X17745Y-7104D01*
X17783Y-7013D01*
X17783Y-6913D01*
X17783Y-6913D01*
X17783Y-6913D01*
X17783Y-6814D01*
X17745Y-6722D01*
X17745Y-6722D01*
X17745Y-6722D01*
X17707Y-6630D01*
X17637Y-6559D01*
X17637Y-6559D01*
X17637Y-6559D01*
X17567Y-6489D01*
X17503Y-6463D01*
X17533Y-6463D01*
X17633Y-6463D01*
X17725Y-6425D01*
X17795Y-6354D01*
X17833Y-6262D01*
X17833Y-14824D01*
X17783Y-14824D01*
X17783Y-8814D01*
X17707Y-8630D01*
X17567Y-8489D01*
X17383Y-8413D01*
X17184Y-8413D01*
X17000Y-8489D01*
X16859Y-8629D01*
X16783Y-8813D01*
X16783Y-9012D01*
X16859Y-9196D01*
X16999Y-9337D01*
X17183Y-9413D01*
X17382Y-9413D01*
X17566Y-9337D01*
X17707Y-9196D01*
X17783Y-9013D01*
X17783Y-8814D01*
X17783Y-14824D01*
X17778Y-14824D01*
X17778Y-9815D01*
X17703Y-9633D01*
X17564Y-9493D01*
X17382Y-9418D01*
X17185Y-9418D01*
X17003Y-9493D01*
X16863Y-9632D01*
X16788Y-9814D01*
X16788Y-10011D01*
X16863Y-10193D01*
X17002Y-10333D01*
X17184Y-10408D01*
X17381Y-10408D01*
X17563Y-10333D01*
X17703Y-10194D01*
X17778Y-10012D01*
X17778Y-9815D01*
X17778Y-14824D01*
X14330Y-14824D01*
X14330Y-12200D01*
X14299Y-12046D01*
X14212Y-11917D01*
X14171Y-11889D01*
X14171Y-4280D01*
X14102Y-4111D01*
X13972Y-3981D01*
X13803Y-3911D01*
X13620Y-3911D01*
X13451Y-3981D01*
X13322Y-4110D01*
X13261Y-4256D01*
X13202Y-4111D01*
X13072Y-3981D01*
X12903Y-3911D01*
X12720Y-3911D01*
X12551Y-3981D01*
X12422Y-4110D01*
X12351Y-4279D01*
X12351Y-4462D01*
X12421Y-4631D01*
X12550Y-4761D01*
X12719Y-4831D01*
X12902Y-4831D01*
X13072Y-4761D01*
X13201Y-4632D01*
X13261Y-4487D01*
X13321Y-4631D01*
X13450Y-4761D01*
X13619Y-4831D01*
X13802Y-4831D01*
X13972Y-4761D01*
X14101Y-4632D01*
X14171Y-4463D01*
X14171Y-4280D01*
X14171Y-11889D01*
X14130Y-11861D01*
X14130Y-9600D01*
X14091Y-9408D01*
X13983Y-9246D01*
X13973Y-9236D01*
X13811Y-9128D01*
X13620Y-9089D01*
X13619Y-9090D01*
X11725Y-9090D01*
X11725Y-884D01*
X11648Y-698D01*
X11506Y-556D01*
X11321Y-479D01*
X11120Y-479D01*
X10934Y-555D01*
X10792Y-697D01*
X10715Y-883D01*
X10715Y-1084D01*
X10792Y-1270D01*
X10933Y-1412D01*
X11119Y-1489D01*
X11320Y-1489D01*
X11506Y-1412D01*
X11648Y-1270D01*
X11725Y-1085D01*
X11725Y-884D01*
X11725Y-9090D01*
X11650Y-9090D01*
X11458Y-9128D01*
X11296Y-9236D01*
X11188Y-9398D01*
X11150Y-9590D01*
X11188Y-9781D01*
X11296Y-9943D01*
X11458Y-10051D01*
X11650Y-10090D01*
X13579Y-10090D01*
X13630Y-10100D01*
X13821Y-10061D01*
X13983Y-9953D01*
X14091Y-9791D01*
X14130Y-9600D01*
X14130Y-11861D01*
X14083Y-11830D01*
X13930Y-11800D01*
X12980Y-11800D01*
X12220Y-11800D01*
X12066Y-11830D01*
X11937Y-11917D01*
X11850Y-12046D01*
X11820Y-12200D01*
X11850Y-12353D01*
X11937Y-12482D01*
X12066Y-12569D01*
X12220Y-12600D01*
X12980Y-12600D01*
X13930Y-12600D01*
X14083Y-12569D01*
X14212Y-12482D01*
X14299Y-12353D01*
X14330Y-12200D01*
X14330Y-14824D01*
X12962Y-14824D01*
X12771Y-14862D01*
X12609Y-14971D01*
X12500Y-15133D01*
X12462Y-15324D01*
X12499Y-15508D01*
X10535Y-15508D01*
X10535Y-1672D01*
X10535Y-1279D01*
X10535Y-1180D01*
X10497Y-1088D01*
X10426Y-1018D01*
X10334Y-980D01*
X10151Y-980D01*
X10089Y-1042D01*
X10089Y-1426D01*
X10472Y-1426D01*
X10535Y-1363D01*
X10535Y-1279D01*
X10535Y-1672D01*
X10535Y-1588D01*
X10472Y-1526D01*
X10089Y-1526D01*
X10089Y-1909D01*
X10151Y-1972D01*
X10334Y-1972D01*
X10426Y-1934D01*
X10497Y-1864D01*
X10535Y-1772D01*
X10535Y-1672D01*
X10535Y-15508D01*
X10459Y-15508D01*
X10459Y-5040D01*
X10409Y-4921D01*
X10409Y-4920D01*
X10409Y-3292D01*
X10409Y-3292D01*
X10458Y-3172D01*
X10459Y-3043D01*
X10409Y-2924D01*
X10318Y-2832D01*
X10198Y-2783D01*
X10069Y-2782D01*
X9989Y-2816D01*
X9989Y-1909D01*
X9989Y-1526D01*
X9981Y-1526D01*
X9981Y-1426D01*
X9989Y-1426D01*
X9989Y-1042D01*
X9926Y-980D01*
X9743Y-980D01*
X9651Y-1018D01*
X9581Y-1088D01*
X9556Y-1149D01*
X9504Y-1098D01*
X9341Y-1030D01*
X9163Y-1030D01*
X8999Y-1098D01*
X8874Y-1223D01*
X8858Y-1261D01*
X8842Y-1224D01*
X8717Y-1098D01*
X8553Y-1030D01*
X8376Y-1030D01*
X8212Y-1098D01*
X8086Y-1223D01*
X8070Y-1261D01*
X8055Y-1224D01*
X7930Y-1098D01*
X7766Y-1030D01*
X7588Y-1030D01*
X7424Y-1098D01*
X7299Y-1223D01*
X7231Y-1387D01*
X7231Y-1564D01*
X7298Y-1728D01*
X7424Y-1854D01*
X7588Y-1922D01*
X7765Y-1922D01*
X7929Y-1854D01*
X8055Y-1729D01*
X8070Y-1691D01*
X8086Y-1728D01*
X8211Y-1854D01*
X8375Y-1922D01*
X8552Y-1922D01*
X8716Y-1854D01*
X8842Y-1729D01*
X8858Y-1691D01*
X8873Y-1728D01*
X8998Y-1854D01*
X9162Y-1922D01*
X9340Y-1922D01*
X9504Y-1854D01*
X9556Y-1803D01*
X9581Y-1864D01*
X9651Y-1934D01*
X9743Y-1972D01*
X9926Y-1972D01*
X9989Y-1909D01*
X9989Y-2816D01*
X9968Y-2824D01*
X9868Y-2783D01*
X9739Y-2782D01*
X9638Y-2824D01*
X9538Y-2783D01*
X9409Y-2782D01*
X9290Y-2832D01*
X9198Y-2923D01*
X9149Y-3043D01*
X9148Y-3172D01*
X9198Y-3291D01*
X9198Y-4920D01*
X9197Y-4920D01*
X9148Y-5040D01*
X9147Y-5169D01*
X9197Y-5288D01*
X9288Y-5380D01*
X9408Y-5429D01*
X9537Y-5430D01*
X9637Y-5388D01*
X9739Y-5430D01*
X9868Y-5431D01*
X9970Y-5388D01*
X10069Y-5429D01*
X10198Y-5430D01*
X10317Y-5380D01*
X10409Y-5289D01*
X10458Y-5169D01*
X10459Y-5040D01*
X10459Y-15508D01*
X10125Y-15508D01*
X10125Y-13355D01*
X10125Y-12805D01*
X10094Y-12731D01*
X10038Y-12675D01*
X9964Y-12645D01*
X9885Y-12644D01*
X9502Y-12644D01*
X9502Y-8601D01*
X9502Y-8051D01*
X9472Y-7978D01*
X9416Y-7922D01*
X9342Y-7891D01*
X9263Y-7891D01*
X8713Y-7891D01*
X8639Y-7921D01*
X8583Y-7978D01*
X8552Y-8051D01*
X8552Y-8131D01*
X8552Y-8681D01*
X8582Y-8754D01*
X8639Y-8810D01*
X8712Y-8841D01*
X8792Y-8841D01*
X9342Y-8841D01*
X9415Y-8811D01*
X9472Y-8754D01*
X9502Y-8681D01*
X9502Y-8601D01*
X9502Y-12644D01*
X9335Y-12644D01*
X9261Y-12675D01*
X9205Y-12731D01*
X9175Y-12805D01*
X9174Y-12884D01*
X9174Y-13434D01*
X9205Y-13508D01*
X9261Y-13564D01*
X9335Y-13594D01*
X9414Y-13595D01*
X9964Y-13595D01*
X10038Y-13564D01*
X10094Y-13508D01*
X10124Y-13434D01*
X10125Y-13355D01*
X10125Y-15508D01*
X8798Y-15508D01*
X8798Y-14003D01*
X8786Y-13810D01*
X8735Y-13687D01*
X8646Y-13668D01*
X8576Y-13738D01*
X8576Y-13597D01*
X8556Y-13508D01*
X8373Y-13445D01*
X8180Y-13457D01*
X8057Y-13508D01*
X8038Y-13597D01*
X8307Y-13866D01*
X8576Y-13597D01*
X8576Y-13738D01*
X8377Y-13937D01*
X8646Y-14205D01*
X8735Y-14186D01*
X8798Y-14003D01*
X8798Y-15508D01*
X8743Y-15508D01*
X8743Y-14921D01*
X8743Y-14448D01*
X8712Y-14375D01*
X8656Y-14318D01*
X8583Y-14288D01*
X8573Y-14288D01*
X8576Y-14276D01*
X8307Y-14007D01*
X8236Y-14078D01*
X8236Y-13937D01*
X7967Y-13668D01*
X7904Y-13681D01*
X7904Y-8866D01*
X7892Y-8672D01*
X7841Y-8550D01*
X7753Y-8530D01*
X7682Y-8601D01*
X7682Y-8459D01*
X7662Y-8371D01*
X7479Y-8308D01*
X7286Y-8320D01*
X7163Y-8371D01*
X7144Y-8459D01*
X7413Y-8728D01*
X7682Y-8459D01*
X7682Y-8601D01*
X7484Y-8799D01*
X7753Y-9068D01*
X7841Y-9048D01*
X7904Y-8866D01*
X7904Y-13681D01*
X7878Y-13687D01*
X7849Y-13771D01*
X7849Y-9783D01*
X7849Y-9311D01*
X7819Y-9237D01*
X7763Y-9181D01*
X7689Y-9150D01*
X7679Y-9150D01*
X7682Y-9139D01*
X7413Y-8870D01*
X7342Y-8940D01*
X7342Y-8799D01*
X7073Y-8530D01*
X6985Y-8550D01*
X6922Y-8733D01*
X6934Y-8926D01*
X6985Y-9048D01*
X7073Y-9068D01*
X7342Y-8799D01*
X7342Y-8940D01*
X7144Y-9139D01*
X7147Y-9150D01*
X7137Y-9150D01*
X7064Y-9181D01*
X7007Y-9237D01*
X6977Y-9310D01*
X6977Y-9390D01*
X6977Y-9862D01*
X7007Y-9936D01*
X7063Y-9992D01*
X7137Y-10023D01*
X7216Y-10023D01*
X7689Y-10023D01*
X7762Y-9992D01*
X7819Y-9936D01*
X7849Y-9863D01*
X7849Y-9783D01*
X7849Y-13771D01*
X7815Y-13870D01*
X7827Y-14063D01*
X7878Y-14186D01*
X7967Y-14205D01*
X8236Y-13937D01*
X8236Y-14078D01*
X8038Y-14276D01*
X8040Y-14288D01*
X8031Y-14288D01*
X7957Y-14318D01*
X7901Y-14374D01*
X7870Y-14448D01*
X7870Y-14527D01*
X7870Y-15000D01*
X7901Y-15073D01*
X7957Y-15130D01*
X8030Y-15160D01*
X8110Y-15160D01*
X8582Y-15160D01*
X8656Y-15130D01*
X8712Y-15074D01*
X8743Y-15000D01*
X8743Y-14921D01*
X8743Y-15508D01*
X6213Y-15508D01*
X6213Y-884D01*
X6137Y-698D01*
X5995Y-556D01*
X5809Y-479D01*
X5608Y-479D01*
X5422Y-555D01*
X5280Y-697D01*
X5203Y-883D01*
X5203Y-1084D01*
X5280Y-1270D01*
X5422Y-1412D01*
X5607Y-1489D01*
X5808Y-1489D01*
X5994Y-1412D01*
X6136Y-1270D01*
X6213Y-1085D01*
X6213Y-884D01*
X6213Y-15508D01*
X4412Y-15508D01*
X4412Y-5550D01*
X4412Y-5078D01*
X4382Y-5004D01*
X4326Y-4948D01*
X4252Y-4918D01*
X4172Y-4918D01*
X3700Y-4918D01*
X3627Y-4948D01*
X3570Y-5004D01*
X3540Y-5078D01*
X3540Y-5087D01*
X3528Y-5085D01*
X3457Y-5156D01*
X3457Y-5014D01*
X3438Y-4925D01*
X3255Y-4863D01*
X3062Y-4875D01*
X2939Y-4925D01*
X2920Y-5014D01*
X3188Y-5283D01*
X3457Y-5014D01*
X3457Y-5156D01*
X3259Y-5354D01*
X3528Y-5623D01*
X3540Y-5620D01*
X3540Y-5630D01*
X3570Y-5703D01*
X3626Y-5760D01*
X3700Y-5790D01*
X3779Y-5790D01*
X4252Y-5790D01*
X4325Y-5760D01*
X4382Y-5703D01*
X4412Y-5630D01*
X4412Y-5550D01*
X4412Y-15508D01*
X3457Y-15508D01*
X3457Y-5693D01*
X3188Y-5425D01*
X3118Y-5495D01*
X3118Y-5354D01*
X2849Y-5085D01*
X2760Y-5104D01*
X2697Y-5287D01*
X2709Y-5480D01*
X2760Y-5603D01*
X2849Y-5623D01*
X3118Y-5354D01*
X3118Y-5495D01*
X2920Y-5693D01*
X2939Y-5782D01*
X3122Y-5845D01*
X3315Y-5833D01*
X3438Y-5782D01*
X3457Y-5693D01*
X3457Y-15508D01*
X239Y-15508D01*
X239Y-3723D01*
X388Y-3872D01*
X787Y-4038D01*
X1218Y-4038D01*
X1618Y-3873D01*
X1923Y-3568D01*
X2089Y-3169D01*
X2089Y-2737D01*
X1924Y-2338D01*
X1619Y-2032D01*
X1465Y-1968D01*
X1618Y-1905D01*
X1923Y-1600D01*
X2089Y-1201D01*
X2089Y-769D01*
X1924Y-369D01*
X1794Y-239D01*
X3165Y-239D01*
X3036Y-368D01*
X2871Y-767D01*
X2870Y-1199D01*
X3035Y-1598D01*
X3340Y-1904D01*
X3495Y-1968D01*
X3342Y-2031D01*
X3036Y-2336D01*
X2871Y-2735D01*
X2870Y-3167D01*
X3035Y-3567D01*
X3340Y-3872D01*
X3739Y-4038D01*
X4171Y-4038D01*
X4570Y-3873D01*
X4876Y-3568D01*
X5042Y-3169D01*
X5042Y-2737D01*
X4877Y-2338D01*
X4572Y-2032D01*
X4417Y-1968D01*
X4570Y-1905D01*
X4876Y-1600D01*
X5042Y-1201D01*
X5042Y-769D01*
X4877Y-369D01*
X4747Y-239D01*
X12356Y-239D01*
X12300Y-295D01*
X12171Y-603D01*
X12171Y-938D01*
X12299Y-1246D01*
X12535Y-1483D01*
X12843Y-1611D01*
X13178Y-1611D01*
X13487Y-1484D01*
X13723Y-1248D01*
X13851Y-939D01*
X13851Y-605D01*
X13724Y-296D01*
X13667Y-239D01*
X17356Y-239D01*
X17300Y-295D01*
X17171Y-603D01*
X17171Y-938D01*
X17299Y-1246D01*
X17535Y-1483D01*
X17843Y-1611D01*
X18178Y-1611D01*
X18487Y-1484D01*
X18723Y-1248D01*
X18851Y-939D01*
X18851Y-605D01*
X18724Y-296D01*
X18667Y-239D01*
X19167Y-239D01*
X19111Y-295D01*
X18982Y-603D01*
X18982Y-938D01*
X19110Y-1246D01*
X19346Y-1483D01*
X19655Y-1611D01*
X19989Y-1611D01*
X20298Y-1484D01*
X20534Y-1248D01*
X20662Y-939D01*
X20662Y-605D01*
X20535Y-296D01*
X20478Y-239D01*
X24167Y-239D01*
X24111Y-295D01*
X23982Y-603D01*
X23982Y-938D01*
X24110Y-1246D01*
X24346Y-1483D01*
X24655Y-1611D01*
X24989Y-1611D01*
X25298Y-1484D01*
X25534Y-1248D01*
X25662Y-939D01*
X25662Y-605D01*
X25535Y-296D01*
X25478Y-239D01*
X26118Y-239D01*
X25989Y-368D01*
X25823Y-767D01*
X25823Y-1199D01*
X25988Y-1598D01*
X26293Y-1904D01*
X26448Y-1968D01*
X26295Y-2031D01*
X25989Y-2336D01*
X25823Y-2735D01*
X25823Y-3167D01*
X25988Y-3567D01*
X26293Y-3872D01*
X26692Y-4038D01*
X27124Y-4038D01*
X27523Y-3873D01*
X27829Y-3568D01*
X27995Y-3169D01*
X27995Y-2737D01*
X27830Y-2338D01*
X27525Y-2032D01*
X27370Y-1968D01*
X27523Y-1905D01*
X27829Y-1600D01*
X27995Y-1201D01*
X27995Y-769D01*
X27830Y-369D01*
X27700Y-239D01*
X29071Y-239D01*
X28942Y-368D01*
X28776Y-767D01*
X28776Y-1199D01*
X28941Y-1598D01*
X29246Y-1904D01*
X29400Y-1968D01*
X29247Y-2031D01*
X28942Y-2336D01*
X28776Y-2735D01*
X28776Y-3167D01*
X28941Y-3567D01*
X29246Y-3872D01*
X29645Y-4038D01*
X30077Y-4038D01*
X30476Y-3873D01*
X30626Y-3723D01*
X30626Y-4580D01*
X26843Y-4580D01*
X26110Y-5104D01*
X26110Y-9079D01*
X25482Y-9715D01*
X25482Y-4280D01*
X25413Y-4111D01*
X25283Y-3981D01*
X25114Y-3911D01*
X24931Y-3911D01*
X24762Y-3981D01*
X24633Y-4110D01*
X24572Y-4256D01*
X24513Y-4111D01*
X24383Y-3981D01*
X24237Y-3921D01*
X24237Y-2543D01*
X24226Y-2341D01*
X24170Y-2207D01*
X24079Y-2185D01*
X24009Y-2256D01*
X24009Y-2114D01*
X23986Y-2023D01*
X23798Y-1957D01*
X23837Y-1843D01*
X23826Y-1641D01*
X23770Y-1507D01*
X23679Y-1485D01*
X23609Y-1556D01*
X23609Y-1414D01*
X23586Y-1323D01*
X23395Y-1256D01*
X23192Y-1268D01*
X23059Y-1323D01*
X23036Y-1414D01*
X23322Y-1700D01*
X23609Y-1414D01*
X23609Y-1556D01*
X23393Y-1771D01*
X23399Y-1777D01*
X23328Y-1847D01*
X23322Y-1842D01*
X23317Y-1847D01*
X23246Y-1777D01*
X23252Y-1771D01*
X22965Y-1485D01*
X22902Y-1501D01*
X22783Y-1381D01*
X22614Y-1311D01*
X22431Y-1311D01*
X22262Y-1381D01*
X22133Y-1510D01*
X22122Y-1535D01*
X22113Y-1511D01*
X21983Y-1381D01*
X21814Y-1311D01*
X21631Y-1311D01*
X21462Y-1381D01*
X21333Y-1510D01*
X21322Y-1535D01*
X21313Y-1511D01*
X21183Y-1381D01*
X21014Y-1311D01*
X20831Y-1311D01*
X20662Y-1381D01*
X20533Y-1510D01*
X20462Y-1679D01*
X20462Y-1862D01*
X20532Y-2031D01*
X20661Y-2161D01*
X20830Y-2231D01*
X20924Y-2231D01*
X20862Y-2379D01*
X20862Y-2562D01*
X20932Y-2731D01*
X21061Y-2861D01*
X21230Y-2931D01*
X21413Y-2931D01*
X21583Y-2861D01*
X21712Y-2732D01*
X21722Y-2708D01*
X21732Y-2731D01*
X21772Y-2772D01*
X21772Y-3376D01*
X21751Y-3429D01*
X21750Y-3572D01*
X21628Y-3572D01*
X21509Y-3621D01*
X21417Y-3713D01*
X21367Y-3832D01*
X21367Y-3962D01*
X21417Y-4081D01*
X21508Y-4172D01*
X21627Y-4222D01*
X21757Y-4222D01*
X21817Y-4197D01*
X23142Y-4197D01*
X23202Y-4222D01*
X23332Y-4222D01*
X23451Y-4173D01*
X23543Y-4081D01*
X23592Y-3962D01*
X23592Y-3833D01*
X23543Y-3713D01*
X23452Y-3622D01*
X23332Y-3572D01*
X23203Y-3572D01*
X23142Y-3597D01*
X22493Y-3597D01*
X22500Y-3578D01*
X22501Y-3429D01*
X22472Y-3361D01*
X22472Y-2772D01*
X22512Y-2732D01*
X22522Y-2708D01*
X22532Y-2731D01*
X22661Y-2861D01*
X22830Y-2931D01*
X23013Y-2931D01*
X23183Y-2861D01*
X23302Y-2742D01*
X23365Y-2757D01*
X23652Y-2471D01*
X23646Y-2466D01*
X23717Y-2395D01*
X23722Y-2400D01*
X24009Y-2114D01*
X24009Y-2256D01*
X23793Y-2471D01*
X24079Y-2757D01*
X24170Y-2735D01*
X24237Y-2543D01*
X24237Y-3921D01*
X24214Y-3911D01*
X24031Y-3911D01*
X24009Y-3920D01*
X24009Y-2828D01*
X23722Y-2542D01*
X23436Y-2828D01*
X23459Y-2919D01*
X23650Y-2986D01*
X23853Y-2975D01*
X23986Y-2919D01*
X24009Y-2828D01*
X24009Y-3920D01*
X23862Y-3981D01*
X23733Y-4110D01*
X23662Y-4279D01*
X23662Y-4462D01*
X23732Y-4631D01*
X23861Y-4761D01*
X24030Y-4831D01*
X24213Y-4831D01*
X24383Y-4761D01*
X24512Y-4632D01*
X24572Y-4487D01*
X24632Y-4631D01*
X24761Y-4761D01*
X24930Y-4831D01*
X25113Y-4831D01*
X25283Y-4761D01*
X25412Y-4632D01*
X25482Y-4463D01*
X25482Y-4280D01*
X25482Y-9715D01*
X24089Y-11130D01*
X24235Y-11275D01*
X26310Y-9175D01*
X26310Y-5205D01*
X26901Y-4780D01*
X29340Y-4780D01*
X29304Y-4815D01*
X29273Y-4889D01*
X29273Y-4968D01*
X29273Y-5568D01*
X29303Y-5642D01*
X29360Y-5698D01*
X29433Y-5729D01*
X29513Y-5729D01*
X29674Y-5729D01*
X29490Y-5805D01*
X29349Y-5945D01*
X29273Y-6129D01*
X29273Y-6328D01*
X29349Y-6512D01*
X29489Y-6653D01*
X29673Y-6729D01*
X29872Y-6729D01*
X30056Y-6653D01*
X30197Y-6512D01*
X30273Y-6329D01*
X30273Y-6130D01*
X30197Y-5946D01*
X30057Y-5805D01*
X29873Y-5729D01*
X29812Y-5729D01*
X30113Y-5729D01*
X30186Y-5699D01*
X30242Y-5642D01*
X30273Y-5569D01*
X30273Y-5489D01*
X30273Y-4889D01*
X30243Y-4816D01*
X30207Y-4780D01*
X30626Y-4780D01*
X30626Y-7680D01*
X29992Y-7680D01*
X30056Y-7653D01*
X30197Y-7512D01*
X30273Y-7329D01*
X30273Y-7130D01*
X30197Y-6946D01*
X30057Y-6805D01*
X29873Y-6729D01*
X29674Y-6729D01*
X29490Y-6805D01*
X29349Y-6945D01*
X29273Y-7129D01*
X29273Y-7328D01*
X29349Y-7512D01*
X29489Y-7653D01*
X29554Y-7680D01*
X27839Y-7680D01*
X27210Y-8309D01*
X27210Y-11110D01*
X26181Y-12236D01*
X26330Y-12353D01*
X27395Y-11174D01*
X27395Y-8380D01*
X27910Y-7865D01*
X30626Y-7865D01*
X30626Y-15508D01*
X30626Y-15508D01*
G37*
G54D32*
X30626Y-15508D02*
X30323Y-15508D01*
X30323Y-9228D01*
X30323Y-8529D01*
X30285Y-8437D01*
X30215Y-8367D01*
X30123Y-8329D01*
X30024Y-8328D01*
X29886Y-8328D01*
X29823Y-8391D01*
X29823Y-8828D01*
X30261Y-8828D01*
X30323Y-8766D01*
X30323Y-8529D01*
X30323Y-9228D01*
X30323Y-8991D01*
X30261Y-8928D01*
X29823Y-8928D01*
X29823Y-8936D01*
X29723Y-8936D01*
X29723Y-8928D01*
X29723Y-8828D01*
X29723Y-8391D01*
X29661Y-8328D01*
X29523Y-8328D01*
X29423Y-8329D01*
X29331Y-8367D01*
X29261Y-8437D01*
X29223Y-8529D01*
X29223Y-8766D01*
X29286Y-8828D01*
X29723Y-8828D01*
X29723Y-8928D01*
X29286Y-8928D01*
X29223Y-8991D01*
X29223Y-9228D01*
X29261Y-9320D01*
X29331Y-9390D01*
X29423Y-9428D01*
X29523Y-9429D01*
X29553Y-9429D01*
X29490Y-9454D01*
X29349Y-9595D01*
X29273Y-9779D01*
X29273Y-9977D01*
X29349Y-10161D01*
X29489Y-10302D01*
X29673Y-10378D01*
X29872Y-10379D01*
X30056Y-10303D01*
X30197Y-10162D01*
X30273Y-9978D01*
X30273Y-9779D01*
X30197Y-9596D01*
X30057Y-9455D01*
X29993Y-9429D01*
X30024Y-9429D01*
X30123Y-9428D01*
X30215Y-9390D01*
X30285Y-9320D01*
X30323Y-9228D01*
X30323Y-15508D01*
X30265Y-15508D01*
X30265Y-14464D01*
X30189Y-14281D01*
X30049Y-14140D01*
X29865Y-14064D01*
X29805Y-14064D01*
X30105Y-14064D01*
X30178Y-14033D01*
X30235Y-13977D01*
X30265Y-13903D01*
X30265Y-13824D01*
X30265Y-13224D01*
X30235Y-13150D01*
X30179Y-13094D01*
X30105Y-13064D01*
X30026Y-13063D01*
X29426Y-13063D01*
X29352Y-13094D01*
X29296Y-13150D01*
X29265Y-13224D01*
X29265Y-13303D01*
X29265Y-13321D01*
X29246Y-13276D01*
X29151Y-13248D01*
X29080Y-13319D01*
X29080Y-13178D01*
X29053Y-13082D01*
X28847Y-13009D01*
X28628Y-13020D01*
X28477Y-13082D01*
X28450Y-13178D01*
X28765Y-13493D01*
X29080Y-13178D01*
X29080Y-13319D01*
X28836Y-13564D01*
X29151Y-13879D01*
X29246Y-13851D01*
X29265Y-13799D01*
X29265Y-13903D01*
X29296Y-13977D01*
X29352Y-14033D01*
X29425Y-14063D01*
X29505Y-14064D01*
X29666Y-14064D01*
X29482Y-14139D01*
X29342Y-14280D01*
X29265Y-14464D01*
X29265Y-14465D01*
X29265Y-14464D01*
X29189Y-14281D01*
X29049Y-14140D01*
X28936Y-14093D01*
X29053Y-14045D01*
X29080Y-13949D01*
X28765Y-13634D01*
X28694Y-13705D01*
X28694Y-13564D01*
X28379Y-13248D01*
X28284Y-13276D01*
X28267Y-13324D01*
X28246Y-13276D01*
X28151Y-13248D01*
X28080Y-13319D01*
X28080Y-13178D01*
X28053Y-13082D01*
X27847Y-13009D01*
X27628Y-13020D01*
X27477Y-13082D01*
X27450Y-13178D01*
X27765Y-13493D01*
X28080Y-13178D01*
X28080Y-13319D01*
X27836Y-13564D01*
X28151Y-13879D01*
X28246Y-13851D01*
X28264Y-13803D01*
X28284Y-13851D01*
X28379Y-13879D01*
X28694Y-13564D01*
X28694Y-13705D01*
X28450Y-13949D01*
X28477Y-14045D01*
X28603Y-14090D01*
X28482Y-14139D01*
X28342Y-14280D01*
X28265Y-14464D01*
X28265Y-14465D01*
X28265Y-14464D01*
X28189Y-14281D01*
X28049Y-14140D01*
X27936Y-14093D01*
X28053Y-14045D01*
X28080Y-13949D01*
X27765Y-13634D01*
X27694Y-13705D01*
X27694Y-13564D01*
X27379Y-13248D01*
X27284Y-13276D01*
X27267Y-13324D01*
X27246Y-13276D01*
X27151Y-13248D01*
X27080Y-13319D01*
X27080Y-13178D01*
X27053Y-13082D01*
X26847Y-13009D01*
X26628Y-13020D01*
X26477Y-13082D01*
X26450Y-13178D01*
X26765Y-13493D01*
X27080Y-13178D01*
X27080Y-13319D01*
X26836Y-13564D01*
X27151Y-13879D01*
X27246Y-13851D01*
X27264Y-13803D01*
X27284Y-13851D01*
X27379Y-13879D01*
X27694Y-13564D01*
X27694Y-13705D01*
X27450Y-13949D01*
X27477Y-14045D01*
X27603Y-14090D01*
X27482Y-14139D01*
X27342Y-14280D01*
X27265Y-14464D01*
X27265Y-14465D01*
X27265Y-14464D01*
X27189Y-14281D01*
X27049Y-14140D01*
X26936Y-14093D01*
X27053Y-14045D01*
X27080Y-13949D01*
X26765Y-13634D01*
X26694Y-13705D01*
X26694Y-13564D01*
X26379Y-13248D01*
X26284Y-13276D01*
X26267Y-13324D01*
X26246Y-13276D01*
X26151Y-13248D01*
X26080Y-13319D01*
X26080Y-13178D01*
X26053Y-13082D01*
X25847Y-13009D01*
X25628Y-13020D01*
X25477Y-13082D01*
X25450Y-13178D01*
X25765Y-13493D01*
X26080Y-13178D01*
X26080Y-13319D01*
X25836Y-13564D01*
X26151Y-13879D01*
X26246Y-13851D01*
X26264Y-13803D01*
X26284Y-13851D01*
X26379Y-13879D01*
X26694Y-13564D01*
X26694Y-13705D01*
X26450Y-13949D01*
X26477Y-14045D01*
X26603Y-14090D01*
X26482Y-14139D01*
X26342Y-14280D01*
X26265Y-14464D01*
X26265Y-14465D01*
X26265Y-14464D01*
X26189Y-14281D01*
X26049Y-14140D01*
X25936Y-14093D01*
X26053Y-14045D01*
X26080Y-13949D01*
X25765Y-13634D01*
X25694Y-13705D01*
X25694Y-13564D01*
X25385Y-13254D01*
X25385Y-13225D01*
X25374Y-13199D01*
X25374Y-12464D01*
X25324Y-12344D01*
X25233Y-12253D01*
X25114Y-12203D01*
X24984Y-12203D01*
X24865Y-12252D01*
X24864Y-12253D01*
X24249Y-12253D01*
X24249Y-12253D01*
X24129Y-12203D01*
X24000Y-12203D01*
X23957Y-12221D01*
X23957Y-7287D01*
X23900Y-7150D01*
X23795Y-7044D01*
X23721Y-7013D01*
X23721Y-4728D01*
X23664Y-4591D01*
X23559Y-4485D01*
X23421Y-4428D01*
X23272Y-4428D01*
X23134Y-4485D01*
X23116Y-4503D01*
X21883Y-4503D01*
X21866Y-4485D01*
X21728Y-4428D01*
X21579Y-4428D01*
X21441Y-4485D01*
X21335Y-4590D01*
X21278Y-4728D01*
X21278Y-4877D01*
X21335Y-5015D01*
X21440Y-5120D01*
X21578Y-5178D01*
X21727Y-5178D01*
X21865Y-5121D01*
X21883Y-5103D01*
X23116Y-5103D01*
X23133Y-5120D01*
X23271Y-5178D01*
X23420Y-5178D01*
X23558Y-5121D01*
X23664Y-5015D01*
X23721Y-4878D01*
X23721Y-4728D01*
X23721Y-7013D01*
X23657Y-6987D01*
X23508Y-6987D01*
X23447Y-7012D01*
X21670Y-7012D01*
X21610Y-6987D01*
X21461Y-6987D01*
X21323Y-7044D01*
X21217Y-7149D01*
X21160Y-7287D01*
X21160Y-7436D01*
X21217Y-7574D01*
X21322Y-7679D01*
X21460Y-7737D01*
X21609Y-7737D01*
X21670Y-7712D01*
X23447Y-7712D01*
X23507Y-7737D01*
X23656Y-7737D01*
X23794Y-7680D01*
X23900Y-7574D01*
X23957Y-7437D01*
X23957Y-7287D01*
X23957Y-12221D01*
X23881Y-12252D01*
X23789Y-12344D01*
X23739Y-12463D01*
X23739Y-12592D01*
X23789Y-12712D01*
X23880Y-12803D01*
X23999Y-12853D01*
X24129Y-12853D01*
X24248Y-12804D01*
X24249Y-12803D01*
X24864Y-12803D01*
X24864Y-12803D01*
X24984Y-12853D01*
X25113Y-12853D01*
X25232Y-12804D01*
X25324Y-12712D01*
X25374Y-12593D01*
X25374Y-12464D01*
X25374Y-13199D01*
X25335Y-13106D01*
X25244Y-13014D01*
X25124Y-12965D01*
X24995Y-12964D01*
X24876Y-13014D01*
X24875Y-13015D01*
X23593Y-13015D01*
X23579Y-13001D01*
X23460Y-12951D01*
X23331Y-12951D01*
X23211Y-13000D01*
X23120Y-13092D01*
X23070Y-13211D01*
X23070Y-13340D01*
X23119Y-13460D01*
X23211Y-13551D01*
X23330Y-13601D01*
X23459Y-13601D01*
X23548Y-13565D01*
X24875Y-13565D01*
X24875Y-13565D01*
X24995Y-13614D01*
X25124Y-13615D01*
X25215Y-13577D01*
X25221Y-13700D01*
X25284Y-13851D01*
X25379Y-13879D01*
X25694Y-13564D01*
X25694Y-13705D01*
X25450Y-13949D01*
X25477Y-14045D01*
X25603Y-14090D01*
X25482Y-14139D01*
X25342Y-14280D01*
X25265Y-14464D01*
X25265Y-14663D01*
X25341Y-14846D01*
X25482Y-14987D01*
X25665Y-15063D01*
X25864Y-15064D01*
X26048Y-14988D01*
X26189Y-14847D01*
X26265Y-14663D01*
X26265Y-14464D01*
X26265Y-14465D01*
X26265Y-14663D01*
X26341Y-14846D01*
X26482Y-14987D01*
X26665Y-15063D01*
X26864Y-15064D01*
X27048Y-14988D01*
X27189Y-14847D01*
X27265Y-14663D01*
X27265Y-14464D01*
X27265Y-14465D01*
X27265Y-14663D01*
X27341Y-14846D01*
X27482Y-14987D01*
X27665Y-15063D01*
X27864Y-15064D01*
X28048Y-14988D01*
X28189Y-14847D01*
X28265Y-14663D01*
X28265Y-14464D01*
X28265Y-14465D01*
X28265Y-14663D01*
X28341Y-14846D01*
X28482Y-14987D01*
X28665Y-15063D01*
X28864Y-15064D01*
X29048Y-14988D01*
X29189Y-14847D01*
X29265Y-14663D01*
X29265Y-14464D01*
X29265Y-14465D01*
X29265Y-14663D01*
X29341Y-14846D01*
X29482Y-14987D01*
X29665Y-15063D01*
X29864Y-15064D01*
X30048Y-14988D01*
X30189Y-14847D01*
X30265Y-14663D01*
X30265Y-14464D01*
X30265Y-15508D01*
X23172Y-15508D01*
X23210Y-15320D01*
X23171Y-15128D01*
X23063Y-14966D01*
X22901Y-14858D01*
X22805Y-14838D01*
X22805Y-8770D01*
X22759Y-8660D01*
X22675Y-8575D01*
X22564Y-8530D01*
X22445Y-8529D01*
X22384Y-8555D01*
X22050Y-8555D01*
X21989Y-8530D01*
X21870Y-8529D01*
X21760Y-8575D01*
X21675Y-8659D01*
X21630Y-8770D01*
X21629Y-8889D01*
X21675Y-8999D01*
X21759Y-9084D01*
X21870Y-9129D01*
X21989Y-9130D01*
X22050Y-9105D01*
X22384Y-9105D01*
X22445Y-9129D01*
X22564Y-9130D01*
X22674Y-9084D01*
X22759Y-9000D01*
X22804Y-8889D01*
X22805Y-8770D01*
X22805Y-14838D01*
X22710Y-14820D01*
X22685Y-14824D01*
X21346Y-14824D01*
X21346Y-14724D01*
X21308Y-14533D01*
X21200Y-14370D01*
X21037Y-14262D01*
X20982Y-14251D01*
X20982Y-4280D01*
X20913Y-4111D01*
X20783Y-3981D01*
X20614Y-3911D01*
X20477Y-3911D01*
X20251Y-3685D01*
X20154Y-3620D01*
X20039Y-3597D01*
X18038Y-3597D01*
X17978Y-3572D01*
X17849Y-3572D01*
X17729Y-3621D01*
X17638Y-3713D01*
X17588Y-3832D01*
X17588Y-3962D01*
X17613Y-4022D01*
X17572Y-3981D01*
X17426Y-3921D01*
X17426Y-2543D01*
X17415Y-2341D01*
X17359Y-2207D01*
X17268Y-2185D01*
X17198Y-2256D01*
X17198Y-2114D01*
X17175Y-2023D01*
X16987Y-1957D01*
X17026Y-1843D01*
X17015Y-1641D01*
X16959Y-1507D01*
X16868Y-1485D01*
X16798Y-1556D01*
X16798Y-1414D01*
X16775Y-1323D01*
X16584Y-1256D01*
X16381Y-1268D01*
X16248Y-1323D01*
X16225Y-1414D01*
X16511Y-1700D01*
X16798Y-1414D01*
X16798Y-1556D01*
X16582Y-1771D01*
X16588Y-1777D01*
X16517Y-1847D01*
X16511Y-1842D01*
X16506Y-1847D01*
X16435Y-1777D01*
X16441Y-1771D01*
X16154Y-1485D01*
X16091Y-1501D01*
X15972Y-1381D01*
X15803Y-1311D01*
X15620Y-1311D01*
X15451Y-1381D01*
X15322Y-1510D01*
X15311Y-1535D01*
X15302Y-1511D01*
X15172Y-1381D01*
X15003Y-1311D01*
X14820Y-1311D01*
X14651Y-1381D01*
X14522Y-1510D01*
X14511Y-1535D01*
X14502Y-1511D01*
X14372Y-1381D01*
X14203Y-1311D01*
X14020Y-1311D01*
X13851Y-1381D01*
X13722Y-1510D01*
X13651Y-1679D01*
X13651Y-1862D01*
X13721Y-2031D01*
X13850Y-2161D01*
X14019Y-2231D01*
X14113Y-2231D01*
X14051Y-2379D01*
X14051Y-2562D01*
X14121Y-2731D01*
X14250Y-2861D01*
X14419Y-2931D01*
X14602Y-2931D01*
X14772Y-2861D01*
X14901Y-2732D01*
X14911Y-2708D01*
X14921Y-2731D01*
X15050Y-2861D01*
X15219Y-2931D01*
X15402Y-2931D01*
X15572Y-2861D01*
X15701Y-2732D01*
X15711Y-2708D01*
X15721Y-2731D01*
X15850Y-2861D01*
X16019Y-2931D01*
X16202Y-2931D01*
X16372Y-2861D01*
X16491Y-2742D01*
X16554Y-2757D01*
X16841Y-2471D01*
X16835Y-2466D01*
X16906Y-2395D01*
X16911Y-2400D01*
X17198Y-2114D01*
X17198Y-2256D01*
X16982Y-2471D01*
X17268Y-2757D01*
X17359Y-2735D01*
X17426Y-2543D01*
X17426Y-3921D01*
X17403Y-3911D01*
X17220Y-3911D01*
X17198Y-3920D01*
X17198Y-2828D01*
X16911Y-2542D01*
X16625Y-2828D01*
X16648Y-2919D01*
X16839Y-2986D01*
X17042Y-2975D01*
X17175Y-2919D01*
X17198Y-2828D01*
X17198Y-3920D01*
X17051Y-3981D01*
X16922Y-4110D01*
X16851Y-4279D01*
X16851Y-4462D01*
X16921Y-4631D01*
X17050Y-4761D01*
X17219Y-4831D01*
X17402Y-4831D01*
X17572Y-4761D01*
X17701Y-4632D01*
X17761Y-4487D01*
X17821Y-4631D01*
X17950Y-4761D01*
X18119Y-4831D01*
X18302Y-4831D01*
X18472Y-4761D01*
X18601Y-4632D01*
X18671Y-4463D01*
X18671Y-4280D01*
X18637Y-4197D01*
X19197Y-4197D01*
X19162Y-4279D01*
X19162Y-4462D01*
X19232Y-4631D01*
X19361Y-4761D01*
X19530Y-4831D01*
X19713Y-4831D01*
X19883Y-4761D01*
X20012Y-4632D01*
X20072Y-4487D01*
X20132Y-4631D01*
X20261Y-4761D01*
X20430Y-4831D01*
X20613Y-4831D01*
X20783Y-4761D01*
X20912Y-4632D01*
X20982Y-4463D01*
X20982Y-4280D01*
X20982Y-14251D01*
X20846Y-14224D01*
X20655Y-14262D01*
X20492Y-14370D01*
X20384Y-14533D01*
X20346Y-14724D01*
X20346Y-14824D01*
X20005Y-14824D01*
X20005Y-9582D01*
X19980Y-9521D01*
X19980Y-8901D01*
X20004Y-8841D01*
X20005Y-8712D01*
X19980Y-8651D01*
X19980Y-8031D01*
X20004Y-7971D01*
X20005Y-7842D01*
X19955Y-7722D01*
X19864Y-7631D01*
X19744Y-7581D01*
X19615Y-7581D01*
X19496Y-7631D01*
X19404Y-7722D01*
X19355Y-7841D01*
X19354Y-7971D01*
X19380Y-8031D01*
X19380Y-8651D01*
X19355Y-8711D01*
X19354Y-8841D01*
X19380Y-8901D01*
X19380Y-9521D01*
X19355Y-9581D01*
X19354Y-9711D01*
X19404Y-9830D01*
X19495Y-9922D01*
X19615Y-9971D01*
X19744Y-9971D01*
X19863Y-9922D01*
X19955Y-9831D01*
X20004Y-9711D01*
X20005Y-9582D01*
X20005Y-14824D01*
X17833Y-14824D01*
X17833Y-6262D01*
X17833Y-5563D01*
X17795Y-5471D01*
X17725Y-5401D01*
X17633Y-5363D01*
X17533Y-5363D01*
X17395Y-5363D01*
X17333Y-5425D01*
X17333Y-5863D01*
X17770Y-5863D01*
X17833Y-5800D01*
X17833Y-5563D01*
X17833Y-6262D01*
X17833Y-6025D01*
X17770Y-5963D01*
X17333Y-5963D01*
X17333Y-5971D01*
X17233Y-5971D01*
X17233Y-5963D01*
X17233Y-5863D01*
X17233Y-5425D01*
X17170Y-5363D01*
X17032Y-5363D01*
X16933Y-5363D01*
X16841Y-5401D01*
X16771Y-5471D01*
X16733Y-5563D01*
X16733Y-5800D01*
X16795Y-5863D01*
X17233Y-5863D01*
X17233Y-5963D01*
X16795Y-5963D01*
X16733Y-6025D01*
X16733Y-6262D01*
X16771Y-6354D01*
X16829Y-6413D01*
X16616Y-6413D01*
X16425Y-6451D01*
X16263Y-6559D01*
X16263Y-6559D01*
X15076Y-7746D01*
X14968Y-7908D01*
X14929Y-8100D01*
X14968Y-8291D01*
X15076Y-8453D01*
X15238Y-8561D01*
X15430Y-8600D01*
X15621Y-8561D01*
X15783Y-8453D01*
X16823Y-7413D01*
X17184Y-7413D01*
X17000Y-7489D01*
X16859Y-7629D01*
X16783Y-7813D01*
X16783Y-8012D01*
X16859Y-8196D01*
X16999Y-8337D01*
X17183Y-8413D01*
X17382Y-8413D01*
X17566Y-8337D01*
X17707Y-8196D01*
X17783Y-8013D01*
X17783Y-7814D01*
X17707Y-7630D01*
X17567Y-7489D01*
X17383Y-7413D01*
X17283Y-7413D01*
X17283Y-7413D01*
X17382Y-7413D01*
X17474Y-7375D01*
X17474Y-7375D01*
X17474Y-7375D01*
X17566Y-7337D01*
X17637Y-7266D01*
X17637Y-7266D01*
X17637Y-7266D01*
X17707Y-7196D01*
X17745Y-7104D01*
X17745Y-7104D01*
X17745Y-7104D01*
X17783Y-7013D01*
X17783Y-6913D01*
X17783Y-6913D01*
X17783Y-6913D01*
X17783Y-6814D01*
X17745Y-6722D01*
X17745Y-6722D01*
X17745Y-6722D01*
X17707Y-6630D01*
X17637Y-6559D01*
X17637Y-6559D01*
X17637Y-6559D01*
X17567Y-6489D01*
X17503Y-6463D01*
X17533Y-6463D01*
X17633Y-6463D01*
X17725Y-6425D01*
X17795Y-6354D01*
X17833Y-6262D01*
X17833Y-14824D01*
X17783Y-14824D01*
X17783Y-8814D01*
X17707Y-8630D01*
X17567Y-8489D01*
X17383Y-8413D01*
X17184Y-8413D01*
X17000Y-8489D01*
X16859Y-8629D01*
X16783Y-8813D01*
X16783Y-9012D01*
X16859Y-9196D01*
X16999Y-9337D01*
X17183Y-9413D01*
X17382Y-9413D01*
X17566Y-9337D01*
X17707Y-9196D01*
X17783Y-9013D01*
X17783Y-8814D01*
X17783Y-14824D01*
X17778Y-14824D01*
X17778Y-9815D01*
X17703Y-9633D01*
X17564Y-9493D01*
X17382Y-9418D01*
X17185Y-9418D01*
X17003Y-9493D01*
X16863Y-9632D01*
X16788Y-9814D01*
X16788Y-10011D01*
X16863Y-10193D01*
X17002Y-10333D01*
X17184Y-10408D01*
X17381Y-10408D01*
X17563Y-10333D01*
X17703Y-10194D01*
X17778Y-10012D01*
X17778Y-9815D01*
X17778Y-14824D01*
X14330Y-14824D01*
X14330Y-12200D01*
X14299Y-12046D01*
X14212Y-11917D01*
X14171Y-11889D01*
X14171Y-4280D01*
X14102Y-4111D01*
X13972Y-3981D01*
X13803Y-3911D01*
X13620Y-3911D01*
X13451Y-3981D01*
X13322Y-4110D01*
X13261Y-4256D01*
X13202Y-4111D01*
X13072Y-3981D01*
X12903Y-3911D01*
X12720Y-3911D01*
X12551Y-3981D01*
X12422Y-4110D01*
X12351Y-4279D01*
X12351Y-4462D01*
X12421Y-4631D01*
X12550Y-4761D01*
X12719Y-4831D01*
X12902Y-4831D01*
X13072Y-4761D01*
X13201Y-4632D01*
X13261Y-4487D01*
X13321Y-4631D01*
X13450Y-4761D01*
X13619Y-4831D01*
X13802Y-4831D01*
X13972Y-4761D01*
X14101Y-4632D01*
X14171Y-4463D01*
X14171Y-4280D01*
X14171Y-11889D01*
X14130Y-11861D01*
X14130Y-9600D01*
X14091Y-9408D01*
X13983Y-9246D01*
X13973Y-9236D01*
X13811Y-9128D01*
X13620Y-9089D01*
X13619Y-9090D01*
X11725Y-9090D01*
X11725Y-884D01*
X11648Y-698D01*
X11506Y-556D01*
X11321Y-479D01*
X11120Y-479D01*
X10934Y-555D01*
X10792Y-697D01*
X10715Y-883D01*
X10715Y-1084D01*
X10792Y-1270D01*
X10933Y-1412D01*
X11119Y-1489D01*
X11320Y-1489D01*
X11506Y-1412D01*
X11648Y-1270D01*
X11725Y-1085D01*
X11725Y-884D01*
X11725Y-9090D01*
X11650Y-9090D01*
X11458Y-9128D01*
X11296Y-9236D01*
X11188Y-9398D01*
X11150Y-9590D01*
X11188Y-9781D01*
X11296Y-9943D01*
X11458Y-10051D01*
X11650Y-10090D01*
X13579Y-10090D01*
X13630Y-10100D01*
X13821Y-10061D01*
X13983Y-9953D01*
X14091Y-9791D01*
X14130Y-9600D01*
X14130Y-11861D01*
X14083Y-11830D01*
X13930Y-11800D01*
X12980Y-11800D01*
X12220Y-11800D01*
X12066Y-11830D01*
X11937Y-11917D01*
X11850Y-12046D01*
X11820Y-12200D01*
X11850Y-12353D01*
X11937Y-12482D01*
X12066Y-12569D01*
X12220Y-12600D01*
X12980Y-12600D01*
X13930Y-12600D01*
X14083Y-12569D01*
X14212Y-12482D01*
X14299Y-12353D01*
X14330Y-12200D01*
X14330Y-14824D01*
X12962Y-14824D01*
X12771Y-14862D01*
X12609Y-14971D01*
X12500Y-15133D01*
X12462Y-15324D01*
X12499Y-15508D01*
X10535Y-15508D01*
X10535Y-1672D01*
X10535Y-1279D01*
X10535Y-1180D01*
X10497Y-1088D01*
X10426Y-1018D01*
X10334Y-980D01*
X10151Y-980D01*
X10089Y-1042D01*
X10089Y-1426D01*
X10472Y-1426D01*
X10535Y-1363D01*
X10535Y-1279D01*
X10535Y-1672D01*
X10535Y-1588D01*
X10472Y-1526D01*
X10089Y-1526D01*
X10089Y-1909D01*
X10151Y-1972D01*
X10334Y-1972D01*
X10426Y-1934D01*
X10497Y-1864D01*
X10535Y-1772D01*
X10535Y-1672D01*
X10535Y-15508D01*
X10459Y-15508D01*
X10459Y-5040D01*
X10409Y-4921D01*
X10409Y-4920D01*
X10409Y-3292D01*
X10409Y-3292D01*
X10458Y-3172D01*
X10459Y-3043D01*
X10409Y-2924D01*
X10318Y-2832D01*
X10198Y-2783D01*
X10069Y-2782D01*
X9989Y-2816D01*
X9989Y-1909D01*
X9989Y-1526D01*
X9981Y-1526D01*
X9981Y-1426D01*
X9989Y-1426D01*
X9989Y-1042D01*
X9926Y-980D01*
X9743Y-980D01*
X9651Y-1018D01*
X9581Y-1088D01*
X9556Y-1149D01*
X9504Y-1098D01*
X9341Y-1030D01*
X9163Y-1030D01*
X8999Y-1098D01*
X8874Y-1223D01*
X8858Y-1261D01*
X8842Y-1224D01*
X8717Y-1098D01*
X8553Y-1030D01*
X8376Y-1030D01*
X8212Y-1098D01*
X8086Y-1223D01*
X8070Y-1261D01*
X8055Y-1224D01*
X7930Y-1098D01*
X7766Y-1030D01*
X7588Y-1030D01*
X7424Y-1098D01*
X7299Y-1223D01*
X7231Y-1387D01*
X7231Y-1564D01*
X7298Y-1728D01*
X7424Y-1854D01*
X7588Y-1922D01*
X7765Y-1922D01*
X7929Y-1854D01*
X8055Y-1729D01*
X8070Y-1691D01*
X8086Y-1728D01*
X8211Y-1854D01*
X8375Y-1922D01*
X8552Y-1922D01*
X8716Y-1854D01*
X8842Y-1729D01*
X8858Y-1691D01*
X8873Y-1728D01*
X8998Y-1854D01*
X9162Y-1922D01*
X9340Y-1922D01*
X9504Y-1854D01*
X9556Y-1803D01*
X9581Y-1864D01*
X9651Y-1934D01*
X9743Y-1972D01*
X9926Y-1972D01*
X9989Y-1909D01*
X9989Y-2816D01*
X9968Y-2824D01*
X9868Y-2783D01*
X9739Y-2782D01*
X9638Y-2824D01*
X9538Y-2783D01*
X9409Y-2782D01*
X9290Y-2832D01*
X9198Y-2923D01*
X9149Y-3043D01*
X9148Y-3172D01*
X9198Y-3291D01*
X9198Y-4920D01*
X9197Y-4920D01*
X9148Y-5040D01*
X9147Y-5169D01*
X9197Y-5288D01*
X9288Y-5380D01*
X9408Y-5429D01*
X9537Y-5430D01*
X9637Y-5388D01*
X9739Y-5430D01*
X9868Y-5431D01*
X9970Y-5388D01*
X10069Y-5429D01*
X10198Y-5430D01*
X10317Y-5380D01*
X10409Y-5289D01*
X10458Y-5169D01*
X10459Y-5040D01*
X10459Y-15508D01*
X10125Y-15508D01*
X10125Y-13355D01*
X10125Y-12805D01*
X10094Y-12731D01*
X10038Y-12675D01*
X9964Y-12645D01*
X9885Y-12644D01*
X9502Y-12644D01*
X9502Y-8601D01*
X9502Y-8051D01*
X9472Y-7978D01*
X9416Y-7922D01*
X9342Y-7891D01*
X9263Y-7891D01*
X8713Y-7891D01*
X8639Y-7921D01*
X8583Y-7978D01*
X8552Y-8051D01*
X8552Y-8131D01*
X8552Y-8681D01*
X8582Y-8754D01*
X8639Y-8810D01*
X8712Y-8841D01*
X8792Y-8841D01*
X9342Y-8841D01*
X9415Y-8811D01*
X9472Y-8754D01*
X9502Y-8681D01*
X9502Y-8601D01*
X9502Y-12644D01*
X9335Y-12644D01*
X9261Y-12675D01*
X9205Y-12731D01*
X9175Y-12805D01*
X9174Y-12884D01*
X9174Y-13434D01*
X9205Y-13508D01*
X9261Y-13564D01*
X9335Y-13594D01*
X9414Y-13595D01*
X9964Y-13595D01*
X10038Y-13564D01*
X10094Y-13508D01*
X10124Y-13434D01*
X10125Y-13355D01*
X10125Y-15508D01*
X8798Y-15508D01*
X8798Y-14003D01*
X8786Y-13810D01*
X8735Y-13687D01*
X8646Y-13668D01*
X8576Y-13738D01*
X8576Y-13597D01*
X8556Y-13508D01*
X8373Y-13445D01*
X8180Y-13457D01*
X8057Y-13508D01*
X8038Y-13597D01*
X8307Y-13866D01*
X8576Y-13597D01*
X8576Y-13738D01*
X8377Y-13937D01*
X8646Y-14205D01*
X8735Y-14186D01*
X8798Y-14003D01*
X8798Y-15508D01*
X8743Y-15508D01*
X8743Y-14921D01*
X8743Y-14448D01*
X8712Y-14375D01*
X8656Y-14318D01*
X8583Y-14288D01*
X8573Y-14288D01*
X8576Y-14276D01*
X8307Y-14007D01*
X8236Y-14078D01*
X8236Y-13937D01*
X7967Y-13668D01*
X7904Y-13681D01*
X7904Y-8866D01*
X7892Y-8672D01*
X7841Y-8550D01*
X7753Y-8530D01*
X7682Y-8601D01*
X7682Y-8459D01*
X7662Y-8371D01*
X7479Y-8308D01*
X7286Y-8320D01*
X7163Y-8371D01*
X7144Y-8459D01*
X7413Y-8728D01*
X7682Y-8459D01*
X7682Y-8601D01*
X7484Y-8799D01*
X7753Y-9068D01*
X7841Y-9048D01*
X7904Y-8866D01*
X7904Y-13681D01*
X7878Y-13687D01*
X7849Y-13771D01*
X7849Y-9783D01*
X7849Y-9311D01*
X7819Y-9237D01*
X7763Y-9181D01*
X7689Y-9150D01*
X7679Y-9150D01*
X7682Y-9139D01*
X7413Y-8870D01*
X7342Y-8940D01*
X7342Y-8799D01*
X7073Y-8530D01*
X6985Y-8550D01*
X6922Y-8733D01*
X6934Y-8926D01*
X6985Y-9048D01*
X7073Y-9068D01*
X7342Y-8799D01*
X7342Y-8940D01*
X7144Y-9139D01*
X7147Y-9150D01*
X7137Y-9150D01*
X7064Y-9181D01*
X7007Y-9237D01*
X6977Y-9310D01*
X6977Y-9390D01*
X6977Y-9862D01*
X7007Y-9936D01*
X7063Y-9992D01*
X7137Y-10023D01*
X7216Y-10023D01*
X7689Y-10023D01*
X7762Y-9992D01*
X7819Y-9936D01*
X7849Y-9863D01*
X7849Y-9783D01*
X7849Y-13771D01*
X7815Y-13870D01*
X7827Y-14063D01*
X7878Y-14186D01*
X7967Y-14205D01*
X8236Y-13937D01*
X8236Y-14078D01*
X8038Y-14276D01*
X8040Y-14288D01*
X8031Y-14288D01*
X7957Y-14318D01*
X7901Y-14374D01*
X7870Y-14448D01*
X7870Y-14527D01*
X7870Y-15000D01*
X7901Y-15073D01*
X7957Y-15130D01*
X8030Y-15160D01*
X8110Y-15160D01*
X8582Y-15160D01*
X8656Y-15130D01*
X8712Y-15074D01*
X8743Y-15000D01*
X8743Y-14921D01*
X8743Y-15508D01*
X6213Y-15508D01*
X6213Y-884D01*
X6137Y-698D01*
X5995Y-556D01*
X5809Y-479D01*
X5608Y-479D01*
X5422Y-555D01*
X5280Y-697D01*
X5203Y-883D01*
X5203Y-1084D01*
X5280Y-1270D01*
X5422Y-1412D01*
X5607Y-1489D01*
X5808Y-1489D01*
X5994Y-1412D01*
X6136Y-1270D01*
X6213Y-1085D01*
X6213Y-884D01*
X6213Y-15508D01*
X4412Y-15508D01*
X4412Y-5550D01*
X4412Y-5078D01*
X4382Y-5004D01*
X4326Y-4948D01*
X4252Y-4918D01*
X4172Y-4918D01*
X3700Y-4918D01*
X3627Y-4948D01*
X3570Y-5004D01*
X3540Y-5078D01*
X3540Y-5087D01*
X3528Y-5085D01*
X3457Y-5156D01*
X3457Y-5014D01*
X3438Y-4925D01*
X3255Y-4863D01*
X3062Y-4875D01*
X2939Y-4925D01*
X2920Y-5014D01*
X3188Y-5283D01*
X3457Y-5014D01*
X3457Y-5156D01*
X3259Y-5354D01*
X3528Y-5623D01*
X3540Y-5620D01*
X3540Y-5630D01*
X3570Y-5703D01*
X3626Y-5760D01*
X3700Y-5790D01*
X3779Y-5790D01*
X4252Y-5790D01*
X4325Y-5760D01*
X4382Y-5703D01*
X4412Y-5630D01*
X4412Y-5550D01*
X4412Y-15508D01*
X3457Y-15508D01*
X3457Y-5693D01*
X3188Y-5425D01*
X3118Y-5495D01*
X3118Y-5354D01*
X2849Y-5085D01*
X2760Y-5104D01*
X2697Y-5287D01*
X2709Y-5480D01*
X2760Y-5603D01*
X2849Y-5623D01*
X3118Y-5354D01*
X3118Y-5495D01*
X2920Y-5693D01*
X2939Y-5782D01*
X3122Y-5845D01*
X3315Y-5833D01*
X3438Y-5782D01*
X3457Y-5693D01*
X3457Y-15508D01*
X239Y-15508D01*
X239Y-3723D01*
X388Y-3872D01*
X787Y-4038D01*
X1218Y-4038D01*
X1618Y-3873D01*
X1923Y-3568D01*
X2089Y-3169D01*
X2089Y-2737D01*
X1924Y-2338D01*
X1619Y-2032D01*
X1465Y-1968D01*
X1618Y-1905D01*
X1923Y-1600D01*
X2089Y-1201D01*
X2089Y-769D01*
X1924Y-369D01*
X1794Y-239D01*
X3165Y-239D01*
X3036Y-368D01*
X2871Y-767D01*
X2870Y-1199D01*
X3035Y-1598D01*
X3340Y-1904D01*
X3495Y-1968D01*
X3342Y-2031D01*
X3036Y-2336D01*
X2871Y-2735D01*
X2870Y-3167D01*
X3035Y-3567D01*
X3340Y-3872D01*
X3739Y-4038D01*
X4171Y-4038D01*
X4570Y-3873D01*
X4876Y-3568D01*
X5042Y-3169D01*
X5042Y-2737D01*
X4877Y-2338D01*
X4572Y-2032D01*
X4417Y-1968D01*
X4570Y-1905D01*
X4876Y-1600D01*
X5042Y-1201D01*
X5042Y-769D01*
X4877Y-369D01*
X4747Y-239D01*
X12356Y-239D01*
X12300Y-295D01*
X12171Y-603D01*
X12171Y-938D01*
X12299Y-1246D01*
X12535Y-1483D01*
X12843Y-1611D01*
X13178Y-1611D01*
X13487Y-1484D01*
X13723Y-1248D01*
X13851Y-939D01*
X13851Y-605D01*
X13724Y-296D01*
X13667Y-239D01*
X17356Y-239D01*
X17300Y-295D01*
X17171Y-603D01*
X17171Y-938D01*
X17299Y-1246D01*
X17535Y-1483D01*
X17843Y-1611D01*
X18178Y-1611D01*
X18487Y-1484D01*
X18723Y-1248D01*
X18851Y-939D01*
X18851Y-605D01*
X18724Y-296D01*
X18667Y-239D01*
X19167Y-239D01*
X19111Y-295D01*
X18982Y-603D01*
X18982Y-938D01*
X19110Y-1246D01*
X19346Y-1483D01*
X19655Y-1611D01*
X19989Y-1611D01*
X20298Y-1484D01*
X20534Y-1248D01*
X20662Y-939D01*
X20662Y-605D01*
X20535Y-296D01*
X20478Y-239D01*
X24167Y-239D01*
X24111Y-295D01*
X23982Y-603D01*
X23982Y-938D01*
X24110Y-1246D01*
X24346Y-1483D01*
X24655Y-1611D01*
X24989Y-1611D01*
X25298Y-1484D01*
X25534Y-1248D01*
X25662Y-939D01*
X25662Y-605D01*
X25535Y-296D01*
X25478Y-239D01*
X26118Y-239D01*
X25989Y-368D01*
X25823Y-767D01*
X25823Y-1199D01*
X25988Y-1598D01*
X26293Y-1904D01*
X26448Y-1968D01*
X26295Y-2031D01*
X25989Y-2336D01*
X25823Y-2735D01*
X25823Y-3167D01*
X25988Y-3567D01*
X26293Y-3872D01*
X26692Y-4038D01*
X27124Y-4038D01*
X27523Y-3873D01*
X27829Y-3568D01*
X27995Y-3169D01*
X27995Y-2737D01*
X27830Y-2338D01*
X27525Y-2032D01*
X27370Y-1968D01*
X27523Y-1905D01*
X27829Y-1600D01*
X27995Y-1201D01*
X27995Y-769D01*
X27830Y-369D01*
X27700Y-239D01*
X29071Y-239D01*
X28942Y-368D01*
X28776Y-767D01*
X28776Y-1199D01*
X28941Y-1598D01*
X29246Y-1904D01*
X29400Y-1968D01*
X29247Y-2031D01*
X28942Y-2336D01*
X28776Y-2735D01*
X28776Y-3167D01*
X28941Y-3567D01*
X29246Y-3872D01*
X29645Y-4038D01*
X30077Y-4038D01*
X30476Y-3873D01*
X30626Y-3723D01*
X30626Y-4580D01*
X26843Y-4580D01*
X26110Y-5104D01*
X26110Y-9079D01*
X25482Y-9715D01*
X25482Y-4280D01*
X25413Y-4111D01*
X25283Y-3981D01*
X25114Y-3911D01*
X24931Y-3911D01*
X24762Y-3981D01*
X24633Y-4110D01*
X24572Y-4256D01*
X24513Y-4111D01*
X24383Y-3981D01*
X24237Y-3921D01*
X24237Y-2543D01*
X24226Y-2341D01*
X24170Y-2207D01*
X24079Y-2185D01*
X24009Y-2256D01*
X24009Y-2114D01*
X23986Y-2023D01*
X23798Y-1957D01*
X23837Y-1843D01*
X23826Y-1641D01*
X23770Y-1507D01*
X23679Y-1485D01*
X23609Y-1556D01*
X23609Y-1414D01*
X23586Y-1323D01*
X23395Y-1256D01*
X23192Y-1268D01*
X23059Y-1323D01*
X23036Y-1414D01*
X23322Y-1700D01*
X23609Y-1414D01*
X23609Y-1556D01*
X23393Y-1771D01*
X23399Y-1777D01*
X23328Y-1847D01*
X23322Y-1842D01*
X23317Y-1847D01*
X23246Y-1777D01*
X23252Y-1771D01*
X22965Y-1485D01*
X22902Y-1501D01*
X22783Y-1381D01*
X22614Y-1311D01*
X22431Y-1311D01*
X22262Y-1381D01*
X22133Y-1510D01*
X22122Y-1535D01*
X22113Y-1511D01*
X21983Y-1381D01*
X21814Y-1311D01*
X21631Y-1311D01*
X21462Y-1381D01*
X21333Y-1510D01*
X21322Y-1535D01*
X21313Y-1511D01*
X21183Y-1381D01*
X21014Y-1311D01*
X20831Y-1311D01*
X20662Y-1381D01*
X20533Y-1510D01*
X20462Y-1679D01*
X20462Y-1862D01*
X20532Y-2031D01*
X20661Y-2161D01*
X20830Y-2231D01*
X20924Y-2231D01*
X20862Y-2379D01*
X20862Y-2562D01*
X20932Y-2731D01*
X21061Y-2861D01*
X21230Y-2931D01*
X21413Y-2931D01*
X21583Y-2861D01*
X21712Y-2732D01*
X21722Y-2708D01*
X21732Y-2731D01*
X21772Y-2772D01*
X21772Y-3376D01*
X21751Y-3429D01*
X21750Y-3572D01*
X21628Y-3572D01*
X21509Y-3621D01*
X21417Y-3713D01*
X21367Y-3832D01*
X21367Y-3962D01*
X21417Y-4081D01*
X21508Y-4172D01*
X21627Y-4222D01*
X21757Y-4222D01*
X21817Y-4197D01*
X23142Y-4197D01*
X23202Y-4222D01*
X23332Y-4222D01*
X23451Y-4173D01*
X23543Y-4081D01*
X23592Y-3962D01*
X23592Y-3833D01*
X23543Y-3713D01*
X23452Y-3622D01*
X23332Y-3572D01*
X23203Y-3572D01*
X23142Y-3597D01*
X22493Y-3597D01*
X22500Y-3578D01*
X22501Y-3429D01*
X22472Y-3361D01*
X22472Y-2772D01*
X22512Y-2732D01*
X22522Y-2708D01*
X22532Y-2731D01*
X22661Y-2861D01*
X22830Y-2931D01*
X23013Y-2931D01*
X23183Y-2861D01*
X23302Y-2742D01*
X23365Y-2757D01*
X23652Y-2471D01*
X23646Y-2466D01*
X23717Y-2395D01*
X23722Y-2400D01*
X24009Y-2114D01*
X24009Y-2256D01*
X23793Y-2471D01*
X24079Y-2757D01*
X24170Y-2735D01*
X24237Y-2543D01*
X24237Y-3921D01*
X24214Y-3911D01*
X24031Y-3911D01*
X24009Y-3920D01*
X24009Y-2828D01*
X23722Y-2542D01*
X23436Y-2828D01*
X23459Y-2919D01*
X23650Y-2986D01*
X23853Y-2975D01*
X23986Y-2919D01*
X24009Y-2828D01*
X24009Y-3920D01*
X23862Y-3981D01*
X23733Y-4110D01*
X23662Y-4279D01*
X23662Y-4462D01*
X23732Y-4631D01*
X23861Y-4761D01*
X24030Y-4831D01*
X24213Y-4831D01*
X24383Y-4761D01*
X24512Y-4632D01*
X24572Y-4487D01*
X24632Y-4631D01*
X24761Y-4761D01*
X24930Y-4831D01*
X25113Y-4831D01*
X25283Y-4761D01*
X25412Y-4632D01*
X25482Y-4463D01*
X25482Y-4280D01*
X25482Y-9715D01*
X24089Y-11130D01*
X24235Y-11275D01*
X26310Y-9175D01*
X26310Y-5205D01*
X26901Y-4780D01*
X29340Y-4780D01*
X29304Y-4815D01*
X29273Y-4889D01*
X29273Y-4968D01*
X29273Y-5568D01*
X29303Y-5642D01*
X29360Y-5698D01*
X29433Y-5729D01*
X29513Y-5729D01*
X29674Y-5729D01*
X29490Y-5805D01*
X29349Y-5945D01*
X29273Y-6129D01*
X29273Y-6328D01*
X29349Y-6512D01*
X29489Y-6653D01*
X29673Y-6729D01*
X29872Y-6729D01*
X30056Y-6653D01*
X30197Y-6512D01*
X30273Y-6329D01*
X30273Y-6130D01*
X30197Y-5946D01*
X30057Y-5805D01*
X29873Y-5729D01*
X29812Y-5729D01*
X30113Y-5729D01*
X30186Y-5699D01*
X30242Y-5642D01*
X30273Y-5569D01*
X30273Y-5489D01*
X30273Y-4889D01*
X30243Y-4816D01*
X30207Y-4780D01*
X30626Y-4780D01*
X30626Y-7680D01*
X29992Y-7680D01*
X30056Y-7653D01*
X30197Y-7512D01*
X30273Y-7329D01*
X30273Y-7130D01*
X30197Y-6946D01*
X30057Y-6805D01*
X29873Y-6729D01*
X29674Y-6729D01*
X29490Y-6805D01*
X29349Y-6945D01*
X29273Y-7129D01*
X29273Y-7328D01*
X29349Y-7512D01*
X29489Y-7653D01*
X29554Y-7680D01*
X27839Y-7680D01*
X27210Y-8309D01*
X27210Y-11110D01*
X26181Y-12236D01*
X26330Y-12353D01*
X27395Y-11174D01*
X27395Y-8380D01*
X27910Y-7865D01*
X30626Y-7865D01*
X30626Y-15508D01*
M02*
