M48
;DRILL file {kicad (2014-jul-16 BZR unknown)-product} date Qua 03 Dez 2014 17:18:46 BRST
;FORMAT={-:-/ absolute / inch / decimal}
FMAT,2
INCH,TZ
T1C0.012
T2C0.015
T3C0.020
T4C0.025
T5C0.028
T6C0.031
T7C0.035
T8C0.039
T9C0.040
T10C0.059
T11C0.061
T12C0.128
T13C0.138
%
G90
G05
M72
T1
X4.693Y-3.383
X4.7505Y-3.383
T2
X3.4473Y-3.0105
X3.4474Y-2.8108
X3.4804Y-2.8108
X3.4804Y-3.0106
X3.5134Y-2.8108
X3.5134Y-3.0105
X4.2913Y-2.8898
X4.468Y-3.2907
X4.468Y-3.3777
X4.468Y-3.4647
X4.6693Y-2.8898
X4.8268Y-2.8898
X4.8396Y-3.8277
X4.9065Y-3.7529
X5.0049Y-3.7529
X5.006Y-3.829
T3
X3.0799Y-3.1359
X3.1429Y-3.2067
X3.171Y-3.648
X3.228Y-3.719
X3.665Y-3.459
X3.7963Y-4.0325
X3.863Y-3.46
X4.043Y-3.31
X4.5846Y-3.9724
X4.771Y-4.032
T4
X2.7138Y-3.2067
X3.128Y-3.572
X3.355Y-3.603
X3.562Y-3.091
X3.722Y-3.72
X3.7868Y-3.1805
X3.798Y-3.72
X3.893Y-3.72
X4.0531Y-3.1791
X4.141Y-3.815
X4.31Y-3.815
X4.4488Y-3.5906
X4.4921Y-3.872
X4.6496Y-3.0551
X4.6535Y-3.2362
X4.6654Y-2.9803
X4.6834Y-3.7422
X4.7126Y-2.8504
X4.8209Y-3.6638
X4.8346Y-2.9803
X4.8543Y-3.0551
X4.8583Y-3.2362
X4.8711Y-3.5206
X4.9094Y-3.4331
X5.0325Y-3.5796
X5.0394Y-3.2835
X5.0709Y-3.189
X5.2648Y-3.0245
T5
X2.8189Y-3.0354
X2.8976Y-3.0354
X3.2413Y-3.38
X3.2413Y-3.4587
X3.3307Y-3.8937
X3.3307Y-3.9724
T6
X3.2677Y-2.6476
X3.3465Y-2.6476
X3.4252Y-2.6476
X3.5039Y-2.6476
T7
X3.7812Y-2.9372
X3.8712Y-2.9372
X3.9112Y-2.6772
X3.9512Y-2.7472
X3.9912Y-2.6772
X4.0312Y-2.7472
X4.0712Y-2.6772
X4.1112Y-2.7472
X4.1512Y-2.6772
X4.1912Y-2.7472
X4.2312Y-2.9372
X4.3212Y-2.9372
X4.4623Y-2.9372
X4.5523Y-2.9372
X4.5923Y-2.6772
X4.6323Y-2.7472
X4.6723Y-2.6772
X4.7123Y-2.7472
X4.7523Y-2.6772
X4.7923Y-2.7472
X4.8323Y-2.6772
X4.8723Y-2.7472
X4.9123Y-2.9372
X5.0023Y-2.9372
T8
X4.2283Y-3.4913
T9
X4.2283Y-3.0913
X4.2283Y-3.1913
X4.2283Y-3.2913
X4.2283Y-3.3913
X5.0766Y-3.8564
X5.0766Y-3.9564
X5.1766Y-3.8564
X5.1766Y-3.9564
X5.2766Y-3.8564
X5.2766Y-3.9564
X5.3766Y-3.8564
X5.3766Y-3.9564
X5.4766Y-3.8564
X5.4766Y-3.9564
X5.4774Y-3.0229
X5.4774Y-3.1229
X5.4774Y-3.2229
X5.4774Y-3.3879
X5.4774Y-3.4879
T10
X3.4028Y-3.3366
X3.465Y-3.812
T11
X3.0709Y-2.5984
X3.622Y-2.5984
T12
X3.8012Y-2.5772
X4.3012Y-2.5772
X4.4823Y-2.5772
X4.9823Y-2.5772
T13
X2.6004Y-2.5984
X2.6004Y-2.7953
X2.8957Y-2.5984
X2.8957Y-2.7953
X5.1909Y-2.5984
X5.1909Y-2.7953
X5.4862Y-2.5984
X5.4862Y-2.7953
T0
M30
