%FSLAX34Y34*%
G04 Gerber Fmt 3.4, Leading zero omitted, Abs format*
G04 (created by PCBNEW (2014-03-19 BZR 4756)-product) date Ter 03 Jun 2014 12:28:43 BRT*
%MOIN*%
G01*
G70*
G90*
G04 APERTURE LIST*
%ADD10C,0.005906*%
%ADD11R,0.055000X0.055000*%
%ADD12C,0.052000*%
%ADD13C,0.128000*%
%ADD14R,0.060000X0.060000*%
%ADD15C,0.060000*%
%ADD16C,0.059055*%
%ADD17C,0.177165*%
%ADD18C,0.047244*%
%ADD19R,0.047244X0.047244*%
%ADD20R,0.049213X0.049213*%
%ADD21C,0.049213*%
%ADD22C,0.061024*%
G04 APERTURE END LIST*
G54D10*
G54D11*
X9027Y-8366D03*
X9650Y-13120D03*
G54D12*
X12811Y-4371D03*
X13711Y-4371D03*
X17311Y-4371D03*
X18211Y-4371D03*
X16911Y-2471D03*
X16111Y-2471D03*
X15311Y-2471D03*
X14511Y-2471D03*
X15711Y-1771D03*
X14911Y-1771D03*
X16511Y-1771D03*
X14111Y-1771D03*
G54D13*
X13011Y-771D03*
X18011Y-771D03*
G54D12*
X19622Y-4371D03*
X20522Y-4371D03*
X24122Y-4371D03*
X25022Y-4371D03*
X23722Y-2471D03*
X22922Y-2471D03*
X22122Y-2471D03*
X21322Y-2471D03*
X22522Y-1771D03*
X21722Y-1771D03*
X23322Y-1771D03*
X20922Y-1771D03*
G54D13*
X19822Y-771D03*
X24822Y-771D03*
G54D14*
X29765Y-13564D03*
G54D15*
X29765Y-14564D03*
X28765Y-13564D03*
X28765Y-14564D03*
X27765Y-13564D03*
X27765Y-14564D03*
X26765Y-13564D03*
X26765Y-14564D03*
X25765Y-13564D03*
X25765Y-14564D03*
G54D14*
X17283Y-5913D03*
G54D15*
X17283Y-6913D03*
X17283Y-7913D03*
X17283Y-8913D03*
G54D16*
X17283Y-9913D03*
G54D14*
X29773Y-5229D03*
G54D15*
X29773Y-6229D03*
X29773Y-7229D03*
G54D14*
X29773Y-8878D03*
G54D15*
X29773Y-9878D03*
G54D17*
X29862Y-2952D03*
X26909Y-2952D03*
X29862Y-984D03*
X26909Y-984D03*
X3956Y-2952D03*
X1003Y-2952D03*
X3956Y-984D03*
X1003Y-984D03*
G54D18*
X3188Y-5354D03*
G54D19*
X3976Y-5354D03*
G54D18*
X8307Y-13937D03*
G54D19*
X8307Y-14724D03*
G54D18*
X7413Y-8799D03*
G54D19*
X7413Y-9586D03*
G54D20*
X10039Y-1476D03*
G54D21*
X8464Y-1476D03*
X7677Y-1476D03*
G54D22*
X11220Y-984D03*
X5708Y-984D03*
G54D21*
X9251Y-1476D03*
M02*
