G04 #@! TF.FileFunction,Legend,Top*
%FSLAX46Y46*%
G04 Gerber Fmt 4.6, Leading zero omitted, Abs format (unit mm)*
G04 Created by KiCad (PCBNEW (2014-jul-16 BZR unknown)-product) date Seg 15 Dez 2014 16:45:29 BRST*
%MOMM*%
G01*
G04 APERTURE LIST*
%ADD10C,0.150000*%
%ADD11C,0.152400*%
%ADD12C,0.200000*%
%ADD13C,0.125000*%
%ADD14C,0.508000*%
%ADD15C,0.099060*%
%ADD16C,0.254000*%
%ADD17C,0.127000*%
%ADD18C,0.190500*%
%ADD19C,0.304800*%
%ADD20C,0.078740*%
%ADD21C,0.317500*%
%ADD22C,0.500000*%
%ADD23C,0.100000*%
%ADD24C,0.114300*%
%ADD25C,0.109220*%
G04 APERTURE END LIST*
D10*
D11*
X4581434Y-28185291D02*
X3819434Y-28185291D01*
X4363720Y-27931291D01*
X3819434Y-27677291D01*
X4581434Y-27677291D01*
X3819434Y-27169292D02*
X3819434Y-27024149D01*
X3855720Y-26951577D01*
X3928291Y-26879006D01*
X4073434Y-26842720D01*
X4327434Y-26842720D01*
X4472577Y-26879006D01*
X4545149Y-26951577D01*
X4581434Y-27024149D01*
X4581434Y-27169292D01*
X4545149Y-27241863D01*
X4472577Y-27314434D01*
X4327434Y-27350720D01*
X4073434Y-27350720D01*
X3928291Y-27314434D01*
X3855720Y-27241863D01*
X3819434Y-27169292D01*
X4581434Y-26516148D02*
X3819434Y-26516148D01*
X3819434Y-26334720D01*
X3855720Y-26225863D01*
X3928291Y-26153291D01*
X4000863Y-26117006D01*
X4146006Y-26080720D01*
X4254863Y-26080720D01*
X4400006Y-26117006D01*
X4472577Y-26153291D01*
X4545149Y-26225863D01*
X4581434Y-26334720D01*
X4581434Y-26516148D01*
X4581434Y-25173577D02*
X3819434Y-25173577D01*
X3819434Y-24883292D01*
X3855720Y-24810720D01*
X3892006Y-24774435D01*
X3964577Y-24738149D01*
X4073434Y-24738149D01*
X4146006Y-24774435D01*
X4182291Y-24810720D01*
X4218577Y-24883292D01*
X4218577Y-25173577D01*
X4182291Y-24411577D02*
X4182291Y-24157577D01*
X4581434Y-24048720D02*
X4581434Y-24411577D01*
X3819434Y-24411577D01*
X3819434Y-24048720D01*
X3819434Y-23794720D02*
X4581434Y-23286720D01*
X3819434Y-23286720D02*
X4581434Y-23794720D01*
X4581434Y-21980435D02*
X4218577Y-22234435D01*
X4581434Y-22415863D02*
X3819434Y-22415863D01*
X3819434Y-22125578D01*
X3855720Y-22053006D01*
X3892006Y-22016721D01*
X3964577Y-21980435D01*
X4073434Y-21980435D01*
X4146006Y-22016721D01*
X4182291Y-22053006D01*
X4218577Y-22125578D01*
X4218577Y-22415863D01*
X4182291Y-21653863D02*
X4182291Y-21399863D01*
X4581434Y-21291006D02*
X4581434Y-21653863D01*
X3819434Y-21653863D01*
X3819434Y-21291006D01*
X3819434Y-21073292D02*
X4581434Y-20819292D01*
X3819434Y-20565292D01*
X3892006Y-20347577D02*
X3855720Y-20311291D01*
X3819434Y-20238720D01*
X3819434Y-20057291D01*
X3855720Y-19984720D01*
X3892006Y-19948434D01*
X3964577Y-19912149D01*
X4037149Y-19912149D01*
X4146006Y-19948434D01*
X4581434Y-20383863D01*
X4581434Y-19912149D01*
X4508863Y-19585577D02*
X4545149Y-19549292D01*
X4581434Y-19585577D01*
X4545149Y-19621863D01*
X4508863Y-19585577D01*
X4581434Y-19585577D01*
X3819434Y-19077578D02*
X3819434Y-19005006D01*
X3855720Y-18932435D01*
X3892006Y-18896149D01*
X3964577Y-18859863D01*
X4109720Y-18823578D01*
X4291149Y-18823578D01*
X4436291Y-18859863D01*
X4508863Y-18896149D01*
X4545149Y-18932435D01*
X4581434Y-19005006D01*
X4581434Y-19077578D01*
X4545149Y-19150149D01*
X4508863Y-19186435D01*
X4436291Y-19222720D01*
X4291149Y-19259006D01*
X4109720Y-19259006D01*
X3964577Y-19222720D01*
X3892006Y-19186435D01*
X3855720Y-19150149D01*
X3819434Y-19077578D01*
X5728063Y-27749863D02*
X5764349Y-27786149D01*
X5800634Y-27895006D01*
X5800634Y-27967577D01*
X5764349Y-28076434D01*
X5691777Y-28149006D01*
X5619206Y-28185291D01*
X5474063Y-28221577D01*
X5365206Y-28221577D01*
X5220063Y-28185291D01*
X5147491Y-28149006D01*
X5074920Y-28076434D01*
X5038634Y-27967577D01*
X5038634Y-27895006D01*
X5074920Y-27786149D01*
X5111206Y-27749863D01*
X5728063Y-26987863D02*
X5764349Y-27024149D01*
X5800634Y-27133006D01*
X5800634Y-27205577D01*
X5764349Y-27314434D01*
X5691777Y-27387006D01*
X5619206Y-27423291D01*
X5474063Y-27459577D01*
X5365206Y-27459577D01*
X5220063Y-27423291D01*
X5147491Y-27387006D01*
X5074920Y-27314434D01*
X5038634Y-27205577D01*
X5038634Y-27133006D01*
X5074920Y-27024149D01*
X5111206Y-26987863D01*
X5401491Y-25826720D02*
X5437777Y-25717863D01*
X5474063Y-25681578D01*
X5546634Y-25645292D01*
X5655491Y-25645292D01*
X5728063Y-25681578D01*
X5764349Y-25717863D01*
X5800634Y-25790435D01*
X5800634Y-26080720D01*
X5038634Y-26080720D01*
X5038634Y-25826720D01*
X5074920Y-25754149D01*
X5111206Y-25717863D01*
X5183777Y-25681578D01*
X5256349Y-25681578D01*
X5328920Y-25717863D01*
X5365206Y-25754149D01*
X5401491Y-25826720D01*
X5401491Y-26080720D01*
X5437777Y-25173578D02*
X5800634Y-25173578D01*
X5038634Y-25427578D02*
X5437777Y-25173578D01*
X5038634Y-24919578D01*
X5510349Y-24665577D02*
X5510349Y-24085006D01*
X5764349Y-23758434D02*
X5800634Y-23649577D01*
X5800634Y-23468148D01*
X5764349Y-23395577D01*
X5728063Y-23359291D01*
X5655491Y-23323006D01*
X5582920Y-23323006D01*
X5510349Y-23359291D01*
X5474063Y-23395577D01*
X5437777Y-23468148D01*
X5401491Y-23613291D01*
X5365206Y-23685863D01*
X5328920Y-23722148D01*
X5256349Y-23758434D01*
X5183777Y-23758434D01*
X5111206Y-23722148D01*
X5074920Y-23685863D01*
X5038634Y-23613291D01*
X5038634Y-23431863D01*
X5074920Y-23323006D01*
X5582920Y-23032720D02*
X5582920Y-22669863D01*
X5800634Y-23105292D02*
X5038634Y-22851292D01*
X5800634Y-22597292D01*
X6330406Y-28221577D02*
X6294120Y-28185291D01*
X6257834Y-28112720D01*
X6257834Y-27931291D01*
X6294120Y-27858720D01*
X6330406Y-27822434D01*
X6402977Y-27786149D01*
X6475549Y-27786149D01*
X6584406Y-27822434D01*
X7019834Y-28257863D01*
X7019834Y-27786149D01*
X6257834Y-27314435D02*
X6257834Y-27241863D01*
X6294120Y-27169292D01*
X6330406Y-27133006D01*
X6402977Y-27096720D01*
X6548120Y-27060435D01*
X6729549Y-27060435D01*
X6874691Y-27096720D01*
X6947263Y-27133006D01*
X6983549Y-27169292D01*
X7019834Y-27241863D01*
X7019834Y-27314435D01*
X6983549Y-27387006D01*
X6947263Y-27423292D01*
X6874691Y-27459577D01*
X6729549Y-27495863D01*
X6548120Y-27495863D01*
X6402977Y-27459577D01*
X6330406Y-27423292D01*
X6294120Y-27387006D01*
X6257834Y-27314435D01*
X7019834Y-26334721D02*
X7019834Y-26770149D01*
X7019834Y-26552435D02*
X6257834Y-26552435D01*
X6366691Y-26625006D01*
X6439263Y-26697578D01*
X6475549Y-26770149D01*
X6511834Y-25681578D02*
X7019834Y-25681578D01*
X6221549Y-25863007D02*
X6765834Y-26044435D01*
X6765834Y-25572721D01*
X6221549Y-24738150D02*
X7201263Y-25391293D01*
X7019834Y-24085007D02*
X7019834Y-24520435D01*
X7019834Y-24302721D02*
X6257834Y-24302721D01*
X6366691Y-24375292D01*
X6439263Y-24447864D01*
X6475549Y-24520435D01*
X6330406Y-23794721D02*
X6294120Y-23758435D01*
X6257834Y-23685864D01*
X6257834Y-23504435D01*
X6294120Y-23431864D01*
X6330406Y-23395578D01*
X6402977Y-23359293D01*
X6475549Y-23359293D01*
X6584406Y-23395578D01*
X7019834Y-23831007D01*
X7019834Y-23359293D01*
D12*
X44028360Y-13416280D02*
X43454320Y-12842240D01*
X44058840Y-13385800D02*
X44587160Y-12857480D01*
X44058840Y-12506960D02*
X44058840Y-13385800D01*
X45760640Y-12506960D02*
X44058840Y-12506960D01*
X45760640Y-13431520D02*
X45760640Y-12506960D01*
D13*
X45532550Y-19668120D02*
X45937312Y-19668120D01*
X45984931Y-19644311D01*
X46008741Y-19620501D01*
X46032550Y-19572882D01*
X46032550Y-19477644D01*
X46008741Y-19430025D01*
X45984931Y-19406216D01*
X45937312Y-19382406D01*
X45532550Y-19382406D01*
X45889693Y-19168120D02*
X45889693Y-18930025D01*
X46032550Y-19215739D02*
X45532550Y-19049072D01*
X46032550Y-18882406D01*
X46032550Y-18430025D02*
X45794455Y-18596692D01*
X46032550Y-18715739D02*
X45532550Y-18715739D01*
X45532550Y-18525263D01*
X45556360Y-18477644D01*
X45580170Y-18453835D01*
X45627789Y-18430025D01*
X45699217Y-18430025D01*
X45746836Y-18453835D01*
X45770646Y-18477644D01*
X45794455Y-18525263D01*
X45794455Y-18715739D01*
X45532550Y-18287168D02*
X45532550Y-18001454D01*
X46032550Y-18144311D02*
X45532550Y-18144311D01*
X46032550Y-17453835D02*
X45532550Y-17453835D01*
X45532550Y-17334788D01*
X45556360Y-17263359D01*
X45603979Y-17215740D01*
X45651598Y-17191931D01*
X45746836Y-17168121D01*
X45818265Y-17168121D01*
X45913503Y-17191931D01*
X45961122Y-17215740D01*
X46008741Y-17263359D01*
X46032550Y-17334788D01*
X46032550Y-17453835D01*
X45770646Y-16953835D02*
X45770646Y-16787169D01*
X46032550Y-16715740D02*
X46032550Y-16953835D01*
X45532550Y-16953835D01*
X45532550Y-16715740D01*
X45770646Y-16334788D02*
X45794455Y-16263359D01*
X45818265Y-16239550D01*
X45865884Y-16215740D01*
X45937312Y-16215740D01*
X45984931Y-16239550D01*
X46008741Y-16263359D01*
X46032550Y-16310978D01*
X46032550Y-16501454D01*
X45532550Y-16501454D01*
X45532550Y-16334788D01*
X45556360Y-16287169D01*
X45580170Y-16263359D01*
X45627789Y-16239550D01*
X45675408Y-16239550D01*
X45723027Y-16263359D01*
X45746836Y-16287169D01*
X45770646Y-16334788D01*
X45770646Y-16501454D01*
X45532550Y-16001454D02*
X45937312Y-16001454D01*
X45984931Y-15977645D01*
X46008741Y-15953835D01*
X46032550Y-15906216D01*
X46032550Y-15810978D01*
X46008741Y-15763359D01*
X45984931Y-15739550D01*
X45937312Y-15715740D01*
X45532550Y-15715740D01*
X45556360Y-15215740D02*
X45532550Y-15263359D01*
X45532550Y-15334787D01*
X45556360Y-15406216D01*
X45603979Y-15453835D01*
X45651598Y-15477644D01*
X45746836Y-15501454D01*
X45818265Y-15501454D01*
X45913503Y-15477644D01*
X45961122Y-15453835D01*
X46008741Y-15406216D01*
X46032550Y-15334787D01*
X46032550Y-15287168D01*
X46008741Y-15215740D01*
X45984931Y-15191930D01*
X45818265Y-15191930D01*
X45818265Y-15287168D01*
X45556360Y-14715740D02*
X45532550Y-14763359D01*
X45532550Y-14834787D01*
X45556360Y-14906216D01*
X45603979Y-14953835D01*
X45651598Y-14977644D01*
X45746836Y-15001454D01*
X45818265Y-15001454D01*
X45913503Y-14977644D01*
X45961122Y-14953835D01*
X46008741Y-14906216D01*
X46032550Y-14834787D01*
X46032550Y-14787168D01*
X46008741Y-14715740D01*
X45984931Y-14691930D01*
X45818265Y-14691930D01*
X45818265Y-14787168D01*
X45770646Y-14477644D02*
X45770646Y-14310978D01*
X46032550Y-14239549D02*
X46032550Y-14477644D01*
X45532550Y-14477644D01*
X45532550Y-14239549D01*
X46032550Y-13739549D02*
X45794455Y-13906216D01*
X46032550Y-14025263D02*
X45532550Y-14025263D01*
X45532550Y-13834787D01*
X45556360Y-13787168D01*
X45580170Y-13763359D01*
X45627789Y-13739549D01*
X45699217Y-13739549D01*
X45746836Y-13763359D01*
X45770646Y-13787168D01*
X45794455Y-13834787D01*
X45794455Y-14025263D01*
D11*
X1614714Y-30020989D02*
X852714Y-30020989D01*
X1614714Y-29694418D02*
X1215571Y-29694418D01*
X1143000Y-29730704D01*
X1106714Y-29803275D01*
X1106714Y-29912132D01*
X1143000Y-29984704D01*
X1179286Y-30020989D01*
X1106714Y-29440418D02*
X1106714Y-29150132D01*
X852714Y-29331560D02*
X1505857Y-29331560D01*
X1578429Y-29295275D01*
X1614714Y-29222703D01*
X1614714Y-29150132D01*
X1106714Y-29004989D02*
X1106714Y-28714703D01*
X852714Y-28896131D02*
X1505857Y-28896131D01*
X1578429Y-28859846D01*
X1614714Y-28787274D01*
X1614714Y-28714703D01*
X1106714Y-28460702D02*
X1868714Y-28460702D01*
X1143000Y-28460702D02*
X1106714Y-28388131D01*
X1106714Y-28242988D01*
X1143000Y-28170417D01*
X1179286Y-28134131D01*
X1251857Y-28097845D01*
X1469571Y-28097845D01*
X1542143Y-28134131D01*
X1578429Y-28170417D01*
X1614714Y-28242988D01*
X1614714Y-28388131D01*
X1578429Y-28460702D01*
X1578429Y-27807559D02*
X1614714Y-27734988D01*
X1614714Y-27589845D01*
X1578429Y-27517273D01*
X1505857Y-27480988D01*
X1469571Y-27480988D01*
X1397000Y-27517273D01*
X1360714Y-27589845D01*
X1360714Y-27698702D01*
X1324429Y-27771273D01*
X1251857Y-27807559D01*
X1215571Y-27807559D01*
X1143000Y-27771273D01*
X1106714Y-27698702D01*
X1106714Y-27589845D01*
X1143000Y-27517273D01*
X1542143Y-27154416D02*
X1578429Y-27118131D01*
X1614714Y-27154416D01*
X1578429Y-27190702D01*
X1542143Y-27154416D01*
X1614714Y-27154416D01*
X1143000Y-27154416D02*
X1179286Y-27118131D01*
X1215571Y-27154416D01*
X1179286Y-27190702D01*
X1143000Y-27154416D01*
X1215571Y-27154416D01*
X816429Y-26247274D02*
X1796143Y-26900417D01*
X816429Y-25448988D02*
X1796143Y-26102131D01*
X1106714Y-24868416D02*
X1723571Y-24868416D01*
X1796143Y-24904702D01*
X1832429Y-24940987D01*
X1868714Y-25013559D01*
X1868714Y-25122416D01*
X1832429Y-25194987D01*
X1578429Y-24868416D02*
X1614714Y-24940987D01*
X1614714Y-25086130D01*
X1578429Y-25158702D01*
X1542143Y-25194987D01*
X1469571Y-25231273D01*
X1251857Y-25231273D01*
X1179286Y-25194987D01*
X1143000Y-25158702D01*
X1106714Y-25086130D01*
X1106714Y-24940987D01*
X1143000Y-24868416D01*
X1614714Y-24505558D02*
X1106714Y-24505558D01*
X852714Y-24505558D02*
X889000Y-24541844D01*
X925286Y-24505558D01*
X889000Y-24469273D01*
X852714Y-24505558D01*
X925286Y-24505558D01*
X1106714Y-24251559D02*
X1106714Y-23961273D01*
X852714Y-24142701D02*
X1505857Y-24142701D01*
X1578429Y-24106416D01*
X1614714Y-24033844D01*
X1614714Y-23961273D01*
X1614714Y-23707272D02*
X852714Y-23707272D01*
X1614714Y-23380701D02*
X1215571Y-23380701D01*
X1143000Y-23416987D01*
X1106714Y-23489558D01*
X1106714Y-23598415D01*
X1143000Y-23670987D01*
X1179286Y-23707272D01*
X1106714Y-22691272D02*
X1614714Y-22691272D01*
X1106714Y-23017843D02*
X1505857Y-23017843D01*
X1578429Y-22981558D01*
X1614714Y-22908986D01*
X1614714Y-22800129D01*
X1578429Y-22727558D01*
X1542143Y-22691272D01*
X1614714Y-22328414D02*
X852714Y-22328414D01*
X1143000Y-22328414D02*
X1106714Y-22255843D01*
X1106714Y-22110700D01*
X1143000Y-22038129D01*
X1179286Y-22001843D01*
X1251857Y-21965557D01*
X1469571Y-21965557D01*
X1542143Y-22001843D01*
X1578429Y-22038129D01*
X1614714Y-22110700D01*
X1614714Y-22255843D01*
X1578429Y-22328414D01*
X1542143Y-21638985D02*
X1578429Y-21602700D01*
X1614714Y-21638985D01*
X1578429Y-21675271D01*
X1542143Y-21638985D01*
X1614714Y-21638985D01*
X1578429Y-20949557D02*
X1614714Y-21022128D01*
X1614714Y-21167271D01*
X1578429Y-21239843D01*
X1542143Y-21276128D01*
X1469571Y-21312414D01*
X1251857Y-21312414D01*
X1179286Y-21276128D01*
X1143000Y-21239843D01*
X1106714Y-21167271D01*
X1106714Y-21022128D01*
X1143000Y-20949557D01*
X1614714Y-20514128D02*
X1578429Y-20586700D01*
X1542143Y-20622985D01*
X1469571Y-20659271D01*
X1251857Y-20659271D01*
X1179286Y-20622985D01*
X1143000Y-20586700D01*
X1106714Y-20514128D01*
X1106714Y-20405271D01*
X1143000Y-20332700D01*
X1179286Y-20296414D01*
X1251857Y-20260128D01*
X1469571Y-20260128D01*
X1542143Y-20296414D01*
X1578429Y-20332700D01*
X1614714Y-20405271D01*
X1614714Y-20514128D01*
X1614714Y-19933556D02*
X1106714Y-19933556D01*
X1179286Y-19933556D02*
X1143000Y-19897271D01*
X1106714Y-19824699D01*
X1106714Y-19715842D01*
X1143000Y-19643271D01*
X1215571Y-19606985D01*
X1614714Y-19606985D01*
X1215571Y-19606985D02*
X1143000Y-19570699D01*
X1106714Y-19498128D01*
X1106714Y-19389271D01*
X1143000Y-19316699D01*
X1215571Y-19280414D01*
X1614714Y-19280414D01*
X816429Y-18373271D02*
X1796143Y-19026414D01*
X1106714Y-18119270D02*
X1868714Y-18119270D01*
X1143000Y-18119270D02*
X1106714Y-18046699D01*
X1106714Y-17901556D01*
X1143000Y-17828985D01*
X1179286Y-17792699D01*
X1251857Y-17756413D01*
X1469571Y-17756413D01*
X1542143Y-17792699D01*
X1578429Y-17828985D01*
X1614714Y-17901556D01*
X1614714Y-18046699D01*
X1578429Y-18119270D01*
X1614714Y-17320984D02*
X1578429Y-17393556D01*
X1542143Y-17429841D01*
X1469571Y-17466127D01*
X1251857Y-17466127D01*
X1179286Y-17429841D01*
X1143000Y-17393556D01*
X1106714Y-17320984D01*
X1106714Y-17212127D01*
X1143000Y-17139556D01*
X1179286Y-17103270D01*
X1251857Y-17066984D01*
X1469571Y-17066984D01*
X1542143Y-17103270D01*
X1578429Y-17139556D01*
X1614714Y-17212127D01*
X1614714Y-17320984D01*
X1614714Y-16740412D02*
X1106714Y-16740412D01*
X1251857Y-16740412D02*
X1179286Y-16704127D01*
X1143000Y-16667841D01*
X1106714Y-16595270D01*
X1106714Y-16522698D01*
X1106714Y-16377556D02*
X1106714Y-16087270D01*
X852714Y-16268698D02*
X1505857Y-16268698D01*
X1578429Y-16232413D01*
X1614714Y-16159841D01*
X1614714Y-16087270D01*
X1614714Y-15506698D02*
X1215571Y-15506698D01*
X1143000Y-15542984D01*
X1106714Y-15615555D01*
X1106714Y-15760698D01*
X1143000Y-15833269D01*
X1578429Y-15506698D02*
X1614714Y-15579269D01*
X1614714Y-15760698D01*
X1578429Y-15833269D01*
X1505857Y-15869555D01*
X1433286Y-15869555D01*
X1360714Y-15833269D01*
X1324429Y-15760698D01*
X1324429Y-15579269D01*
X1288143Y-15506698D01*
X1614714Y-15034983D02*
X1578429Y-15107555D01*
X1505857Y-15143840D01*
X852714Y-15143840D01*
X1614714Y-14744697D02*
X1106714Y-14744697D01*
X1179286Y-14744697D02*
X1143000Y-14708412D01*
X1106714Y-14635840D01*
X1106714Y-14526983D01*
X1143000Y-14454412D01*
X1215571Y-14418126D01*
X1614714Y-14418126D01*
X1215571Y-14418126D02*
X1143000Y-14381840D01*
X1106714Y-14309269D01*
X1106714Y-14200412D01*
X1143000Y-14127840D01*
X1215571Y-14091555D01*
X1614714Y-14091555D01*
X1614714Y-13619840D02*
X1578429Y-13692412D01*
X1542143Y-13728697D01*
X1469571Y-13764983D01*
X1251857Y-13764983D01*
X1179286Y-13728697D01*
X1143000Y-13692412D01*
X1106714Y-13619840D01*
X1106714Y-13510983D01*
X1143000Y-13438412D01*
X1179286Y-13402126D01*
X1251857Y-13365840D01*
X1469571Y-13365840D01*
X1542143Y-13402126D01*
X1578429Y-13438412D01*
X1614714Y-13510983D01*
X1614714Y-13619840D01*
X1614714Y-12712697D02*
X852714Y-12712697D01*
X1578429Y-12712697D02*
X1614714Y-12785268D01*
X1614714Y-12930411D01*
X1578429Y-13002983D01*
X1542143Y-13039268D01*
X1469571Y-13075554D01*
X1251857Y-13075554D01*
X1179286Y-13039268D01*
X1143000Y-13002983D01*
X1106714Y-12930411D01*
X1106714Y-12785268D01*
X1143000Y-12712697D01*
X816429Y-11805554D02*
X1796143Y-12458697D01*
X2833914Y-28732845D02*
X2325914Y-28732845D01*
X2398486Y-28732845D02*
X2362200Y-28696560D01*
X2325914Y-28623988D01*
X2325914Y-28515131D01*
X2362200Y-28442560D01*
X2434771Y-28406274D01*
X2833914Y-28406274D01*
X2434771Y-28406274D02*
X2362200Y-28369988D01*
X2325914Y-28297417D01*
X2325914Y-28188560D01*
X2362200Y-28115988D01*
X2434771Y-28079703D01*
X2833914Y-28079703D01*
X2833914Y-27607988D02*
X2797629Y-27680560D01*
X2761343Y-27716845D01*
X2688771Y-27753131D01*
X2471057Y-27753131D01*
X2398486Y-27716845D01*
X2362200Y-27680560D01*
X2325914Y-27607988D01*
X2325914Y-27499131D01*
X2362200Y-27426560D01*
X2398486Y-27390274D01*
X2471057Y-27353988D01*
X2688771Y-27353988D01*
X2761343Y-27390274D01*
X2797629Y-27426560D01*
X2833914Y-27499131D01*
X2833914Y-27607988D01*
X2833914Y-26700845D02*
X2071914Y-26700845D01*
X2797629Y-26700845D02*
X2833914Y-26773416D01*
X2833914Y-26918559D01*
X2797629Y-26991131D01*
X2761343Y-27027416D01*
X2688771Y-27063702D01*
X2471057Y-27063702D01*
X2398486Y-27027416D01*
X2362200Y-26991131D01*
X2325914Y-26918559D01*
X2325914Y-26773416D01*
X2362200Y-26700845D01*
X2543629Y-26337987D02*
X2543629Y-25757416D01*
X2833914Y-25394558D02*
X2071914Y-25394558D01*
X2833914Y-25067987D02*
X2434771Y-25067987D01*
X2362200Y-25104273D01*
X2325914Y-25176844D01*
X2325914Y-25285701D01*
X2362200Y-25358273D01*
X2398486Y-25394558D01*
X2325914Y-24777701D02*
X2833914Y-24632558D01*
X2471057Y-24487415D01*
X2833914Y-24342272D01*
X2325914Y-24197129D01*
X2543629Y-23906843D02*
X2543629Y-23326272D01*
X2797629Y-22673129D02*
X2833914Y-22745700D01*
X2833914Y-22890843D01*
X2797629Y-22963414D01*
X2725057Y-22999700D01*
X2434771Y-22999700D01*
X2362200Y-22963414D01*
X2325914Y-22890843D01*
X2325914Y-22745700D01*
X2362200Y-22673129D01*
X2434771Y-22636843D01*
X2507343Y-22636843D01*
X2579914Y-22999700D01*
X2833914Y-22382843D02*
X2325914Y-21983700D01*
X2325914Y-22382843D02*
X2833914Y-21983700D01*
X2325914Y-21693414D02*
X3087914Y-21693414D01*
X2362200Y-21693414D02*
X2325914Y-21620843D01*
X2325914Y-21475700D01*
X2362200Y-21403129D01*
X2398486Y-21366843D01*
X2471057Y-21330557D01*
X2688771Y-21330557D01*
X2761343Y-21366843D01*
X2797629Y-21403129D01*
X2833914Y-21475700D01*
X2833914Y-21620843D01*
X2797629Y-21693414D01*
X2833914Y-21003985D02*
X2325914Y-21003985D01*
X2471057Y-21003985D02*
X2398486Y-20967700D01*
X2362200Y-20931414D01*
X2325914Y-20858843D01*
X2325914Y-20786271D01*
X2797629Y-20241986D02*
X2833914Y-20314557D01*
X2833914Y-20459700D01*
X2797629Y-20532271D01*
X2725057Y-20568557D01*
X2434771Y-20568557D01*
X2362200Y-20532271D01*
X2325914Y-20459700D01*
X2325914Y-20314557D01*
X2362200Y-20241986D01*
X2434771Y-20205700D01*
X2507343Y-20205700D01*
X2579914Y-20568557D01*
X2797629Y-19915414D02*
X2833914Y-19842843D01*
X2833914Y-19697700D01*
X2797629Y-19625128D01*
X2725057Y-19588843D01*
X2688771Y-19588843D01*
X2616200Y-19625128D01*
X2579914Y-19697700D01*
X2579914Y-19806557D01*
X2543629Y-19879128D01*
X2471057Y-19915414D01*
X2434771Y-19915414D01*
X2362200Y-19879128D01*
X2325914Y-19806557D01*
X2325914Y-19697700D01*
X2362200Y-19625128D01*
X2797629Y-19298557D02*
X2833914Y-19225986D01*
X2833914Y-19080843D01*
X2797629Y-19008271D01*
X2725057Y-18971986D01*
X2688771Y-18971986D01*
X2616200Y-19008271D01*
X2579914Y-19080843D01*
X2579914Y-19189700D01*
X2543629Y-19262271D01*
X2471057Y-19298557D01*
X2434771Y-19298557D01*
X2362200Y-19262271D01*
X2325914Y-19189700D01*
X2325914Y-19080843D01*
X2362200Y-19008271D01*
X2833914Y-18645414D02*
X2325914Y-18645414D01*
X2071914Y-18645414D02*
X2108200Y-18681700D01*
X2144486Y-18645414D01*
X2108200Y-18609129D01*
X2071914Y-18645414D01*
X2144486Y-18645414D01*
X2833914Y-18173700D02*
X2797629Y-18246272D01*
X2761343Y-18282557D01*
X2688771Y-18318843D01*
X2471057Y-18318843D01*
X2398486Y-18282557D01*
X2362200Y-18246272D01*
X2325914Y-18173700D01*
X2325914Y-18064843D01*
X2362200Y-17992272D01*
X2398486Y-17955986D01*
X2471057Y-17919700D01*
X2688771Y-17919700D01*
X2761343Y-17955986D01*
X2797629Y-17992272D01*
X2833914Y-18064843D01*
X2833914Y-18173700D01*
X2325914Y-17593128D02*
X2833914Y-17593128D01*
X2398486Y-17593128D02*
X2362200Y-17556843D01*
X2325914Y-17484271D01*
X2325914Y-17375414D01*
X2362200Y-17302843D01*
X2434771Y-17266557D01*
X2833914Y-17266557D01*
X2543629Y-16903699D02*
X2543629Y-16323128D01*
X2325914Y-15960270D02*
X3087914Y-15960270D01*
X2362200Y-15960270D02*
X2325914Y-15887699D01*
X2325914Y-15742556D01*
X2362200Y-15669985D01*
X2398486Y-15633699D01*
X2471057Y-15597413D01*
X2688771Y-15597413D01*
X2761343Y-15633699D01*
X2797629Y-15669985D01*
X2833914Y-15742556D01*
X2833914Y-15887699D01*
X2797629Y-15960270D01*
X2797629Y-14980556D02*
X2833914Y-15053127D01*
X2833914Y-15198270D01*
X2797629Y-15270841D01*
X2725057Y-15307127D01*
X2434771Y-15307127D01*
X2362200Y-15270841D01*
X2325914Y-15198270D01*
X2325914Y-15053127D01*
X2362200Y-14980556D01*
X2434771Y-14944270D01*
X2507343Y-14944270D01*
X2579914Y-15307127D01*
X2833914Y-14291127D02*
X2071914Y-14291127D01*
X2797629Y-14291127D02*
X2833914Y-14363698D01*
X2833914Y-14508841D01*
X2797629Y-14581413D01*
X2761343Y-14617698D01*
X2688771Y-14653984D01*
X2471057Y-14653984D01*
X2398486Y-14617698D01*
X2362200Y-14581413D01*
X2325914Y-14508841D01*
X2325914Y-14363698D01*
X2362200Y-14291127D01*
X2833914Y-13601698D02*
X2434771Y-13601698D01*
X2362200Y-13637984D01*
X2325914Y-13710555D01*
X2325914Y-13855698D01*
X2362200Y-13928269D01*
X2797629Y-13601698D02*
X2833914Y-13674269D01*
X2833914Y-13855698D01*
X2797629Y-13928269D01*
X2725057Y-13964555D01*
X2652486Y-13964555D01*
X2579914Y-13928269D01*
X2543629Y-13855698D01*
X2543629Y-13674269D01*
X2507343Y-13601698D01*
X2833914Y-13129983D02*
X2797629Y-13202555D01*
X2725057Y-13238840D01*
X2071914Y-13238840D01*
D14*
X54244542Y-28892500D02*
G75*
G03X54244542Y-28892500I-256842J0D01*
G01*
X43028446Y-13754100D02*
G75*
G03X43028446Y-13754100I-381846J0D01*
G01*
X74680038Y-12014200D02*
G75*
G03X74680038Y-12014200I-321538J0D01*
G01*
X74701400Y-21285200D02*
G75*
G03X74701400Y-21285200I-330200J0D01*
G01*
X77270750Y-33223200D02*
G75*
G03X77270750Y-33223200I-410350J0D01*
G01*
D12*
X58204100Y-27393900D02*
X58204100Y-26758900D01*
X63106300Y-32296100D02*
X63741300Y-32296100D01*
X58191400Y-37198300D02*
X58191400Y-37833300D01*
X53289200Y-32308800D02*
X52654200Y-32308800D01*
D11*
X77570371Y-24802314D02*
X77570371Y-25056314D01*
X77969514Y-25056314D02*
X77207514Y-25056314D01*
X77207514Y-24693457D01*
X77207514Y-24258029D02*
X77207514Y-24112886D01*
X77243800Y-24040314D01*
X77316371Y-23967743D01*
X77461514Y-23931457D01*
X77715514Y-23931457D01*
X77860657Y-23967743D01*
X77933229Y-24040314D01*
X77969514Y-24112886D01*
X77969514Y-24258029D01*
X77933229Y-24330600D01*
X77860657Y-24403171D01*
X77715514Y-24439457D01*
X77461514Y-24439457D01*
X77316371Y-24403171D01*
X77243800Y-24330600D01*
X77207514Y-24258029D01*
X77207514Y-23459743D02*
X77207514Y-23314600D01*
X77243800Y-23242028D01*
X77316371Y-23169457D01*
X77461514Y-23133171D01*
X77715514Y-23133171D01*
X77860657Y-23169457D01*
X77933229Y-23242028D01*
X77969514Y-23314600D01*
X77969514Y-23459743D01*
X77933229Y-23532314D01*
X77860657Y-23604885D01*
X77715514Y-23641171D01*
X77461514Y-23641171D01*
X77316371Y-23604885D01*
X77243800Y-23532314D01*
X77207514Y-23459743D01*
X77207514Y-22915457D02*
X77207514Y-22480028D01*
X77969514Y-22697742D02*
X77207514Y-22697742D01*
X77941714Y-16763999D02*
X77179714Y-16763999D01*
X77179714Y-16473714D01*
X77216000Y-16401142D01*
X77252286Y-16364857D01*
X77324857Y-16328571D01*
X77433714Y-16328571D01*
X77506286Y-16364857D01*
X77542571Y-16401142D01*
X77578857Y-16473714D01*
X77578857Y-16763999D01*
X77179714Y-15856857D02*
X77179714Y-15711714D01*
X77216000Y-15639142D01*
X77288571Y-15566571D01*
X77433714Y-15530285D01*
X77687714Y-15530285D01*
X77832857Y-15566571D01*
X77905429Y-15639142D01*
X77941714Y-15711714D01*
X77941714Y-15856857D01*
X77905429Y-15929428D01*
X77832857Y-16001999D01*
X77687714Y-16038285D01*
X77433714Y-16038285D01*
X77288571Y-16001999D01*
X77216000Y-15929428D01*
X77179714Y-15856857D01*
X77179714Y-15312571D02*
X77179714Y-14877142D01*
X77941714Y-15094856D02*
X77179714Y-15094856D01*
D15*
X6700000Y-12900000D02*
X6700000Y-14300000D01*
X6800000Y-12600000D02*
X6800000Y-14600000D01*
X6900000Y-12400000D02*
X6900000Y-14900000D01*
X7000000Y-12300000D02*
X7000000Y-15000000D01*
D16*
X11600000Y-13600000D02*
G75*
G03X11600000Y-13600000I-2500000J0D01*
G01*
D17*
X8473160Y-18585800D02*
X6187160Y-18585800D01*
X6187160Y-18585800D02*
X6187160Y-17315800D01*
X6187160Y-17315800D02*
X8473160Y-17315800D01*
X8473160Y-17315800D02*
X8473160Y-18585800D01*
D15*
X19530160Y-20950800D02*
X18130160Y-20950800D01*
X19830160Y-21050800D02*
X17830160Y-21050800D01*
X20030160Y-21150800D02*
X17530160Y-21150800D01*
X20130160Y-21250800D02*
X17430160Y-21250800D01*
D16*
X21330160Y-23350800D02*
G75*
G03X21330160Y-23350800I-2500000J0D01*
G01*
D17*
X23565160Y-26107800D02*
X23565160Y-28393800D01*
X23565160Y-28393800D02*
X22295160Y-28393800D01*
X22295160Y-28393800D02*
X22295160Y-26107800D01*
X22295160Y-26107800D02*
X23565160Y-26107800D01*
X29265000Y-8443000D02*
X29265000Y-6157000D01*
X29265000Y-6157000D02*
X30535000Y-6157000D01*
X30535000Y-6157000D02*
X30535000Y-8443000D01*
X30535000Y-8443000D02*
X29265000Y-8443000D01*
D15*
X21800000Y-34000000D02*
X20400000Y-34000000D01*
X22100000Y-34100000D02*
X20100000Y-34100000D01*
X22300000Y-34200000D02*
X19800000Y-34200000D01*
X22400000Y-34300000D02*
X19700000Y-34300000D01*
D16*
X23600000Y-36400000D02*
G75*
G03X23600000Y-36400000I-2500000J0D01*
G01*
D17*
X14097000Y-29108400D02*
X14097000Y-26822400D01*
X14097000Y-26822400D02*
X15367000Y-26822400D01*
X15367000Y-26822400D02*
X15367000Y-29108400D01*
X15367000Y-29108400D02*
X14097000Y-29108400D01*
X63689800Y-30365600D02*
X63689800Y-28079600D01*
X63689800Y-28079600D02*
X64959800Y-28079600D01*
X64959800Y-28079600D02*
X64959800Y-30365600D01*
X64959800Y-30365600D02*
X63689800Y-30365600D01*
X52443000Y-28335000D02*
X50157000Y-28335000D01*
X50157000Y-28335000D02*
X50157000Y-27065000D01*
X50157000Y-27065000D02*
X52443000Y-27065000D01*
X52443000Y-27065000D02*
X52443000Y-28335000D01*
X42257000Y-32765000D02*
X44543000Y-32765000D01*
X44543000Y-32765000D02*
X44543000Y-34035000D01*
X44543000Y-34035000D02*
X42257000Y-34035000D01*
X42257000Y-34035000D02*
X42257000Y-32765000D01*
X46557000Y-32765000D02*
X48843000Y-32765000D01*
X48843000Y-32765000D02*
X48843000Y-34035000D01*
X48843000Y-34035000D02*
X46557000Y-34035000D01*
X46557000Y-34035000D02*
X46557000Y-32765000D01*
X52435000Y-32957000D02*
X52435000Y-35243000D01*
X52435000Y-35243000D02*
X51165000Y-35243000D01*
X51165000Y-35243000D02*
X51165000Y-32957000D01*
X51165000Y-32957000D02*
X52435000Y-32957000D01*
X57357000Y-25465000D02*
X59643000Y-25465000D01*
X59643000Y-25465000D02*
X59643000Y-26735000D01*
X59643000Y-26735000D02*
X57357000Y-26735000D01*
X57357000Y-26735000D02*
X57357000Y-25465000D01*
X73459800Y-20079600D02*
X73459800Y-22365600D01*
X73459800Y-22365600D02*
X72189800Y-22365600D01*
X72189800Y-22365600D02*
X72189800Y-20079600D01*
X72189800Y-20079600D02*
X73459800Y-20079600D01*
D10*
X65850000Y0D02*
X78350000Y0D01*
X78350000Y0D02*
X78350000Y-10000000D01*
X78350000Y-10000000D02*
X65850000Y-10000000D01*
X65850000Y-10000000D02*
X65850000Y0D01*
X50000Y0D02*
X12550000Y0D01*
X12550000Y0D02*
X12550000Y-10000000D01*
X12550000Y-10000000D02*
X50000Y-10000000D01*
X50000Y-10000000D02*
X50000Y0D01*
D11*
X26250000Y-10500000D02*
X25450000Y-10500000D01*
X26950000Y-10500000D02*
X27650000Y-10500000D01*
X25450000Y-11900000D02*
X25450000Y-9100000D01*
X25050000Y-11900000D02*
X25050000Y-9100000D01*
D12*
X24050000Y-9100000D02*
X28550000Y-9100000D01*
X28550000Y-11900000D02*
X24050000Y-11900000D01*
D11*
X26277000Y-10500000D02*
X26912000Y-10974980D01*
X26912000Y-10974980D02*
X26912000Y-10500000D01*
X26912000Y-10500000D02*
X26912000Y-10025020D01*
X26912000Y-10025020D02*
X26277000Y-10500000D01*
X26277000Y-10500000D02*
X26277000Y-10817500D01*
X26277000Y-10817500D02*
X26434480Y-10974980D01*
X26277000Y-10500000D02*
X26277000Y-10182500D01*
X26277000Y-10182500D02*
X26119520Y-10025020D01*
D18*
X53774700Y-14251260D02*
X53774700Y-16948740D01*
X52225300Y-16948740D02*
X52225300Y-14251260D01*
X52225300Y-16199440D02*
X53774700Y-16199440D01*
X53000000Y-16199440D02*
X52400560Y-15597460D01*
X52400560Y-15597460D02*
X53599440Y-15597460D01*
X53599440Y-15597460D02*
X53000000Y-16199440D01*
X61048740Y-17974700D02*
X58351260Y-17974700D01*
X58351260Y-16425300D02*
X61048740Y-16425300D01*
X59100560Y-16425300D02*
X59100560Y-17974700D01*
X59100560Y-17200000D02*
X59702540Y-16600560D01*
X59702540Y-16600560D02*
X59702540Y-17799440D01*
X59702540Y-17799440D02*
X59100560Y-17200000D01*
D16*
X64828000Y-12120000D02*
X64828000Y-93100D01*
X48572000Y-93100D02*
X48572000Y-12120000D01*
X64828000Y-12120000D02*
X48572000Y-12120000D01*
X47528000Y-12120000D02*
X47528000Y-93100D01*
X31272000Y-93100D02*
X31272000Y-12120000D01*
X47528000Y-12120000D02*
X31272000Y-12120000D01*
D11*
X74354800Y-12012600D02*
X76894800Y-12012600D01*
X76894800Y-12012600D02*
X76894800Y-19632600D01*
X76894800Y-19632600D02*
X74354800Y-19632600D01*
X74354800Y-19632600D02*
X74354800Y-12012600D01*
X76894800Y-14552600D02*
X74354800Y-14552600D01*
D19*
X76874800Y-38262600D02*
X64174800Y-38262600D01*
X64174800Y-38262600D02*
X64174800Y-33182600D01*
X64174800Y-33182600D02*
X76874800Y-33182600D01*
X76874800Y-33182600D02*
X76874800Y-38262600D01*
D11*
X74354800Y-21282600D02*
X76894800Y-21282600D01*
X76894800Y-21282600D02*
X76894800Y-26362600D01*
X76894800Y-26362600D02*
X74354800Y-26362600D01*
X74354800Y-26362600D02*
X74354800Y-21282600D01*
D20*
X32618050Y-15384520D02*
G75*
G03X32618050Y-15384520I-159070J0D01*
G01*
X34905000Y-14526000D02*
X34905000Y-15542000D01*
X32301500Y-14526000D02*
X32301500Y-15542000D01*
X34905000Y-15542000D02*
X32301500Y-15542000D01*
X32301500Y-14526000D02*
X34905000Y-14526000D01*
X35838450Y-20949920D02*
G75*
G03X35838450Y-20949920I-159070J0D01*
G01*
X38125400Y-20091400D02*
X38125400Y-21107400D01*
X35521900Y-20091400D02*
X35521900Y-21107400D01*
X38125400Y-21107400D02*
X35521900Y-21107400D01*
X35521900Y-20091400D02*
X38125400Y-20091400D01*
D17*
X33900000Y-19477000D02*
X33900000Y-17191000D01*
X33900000Y-17191000D02*
X35170000Y-17191000D01*
X35170000Y-17191000D02*
X35170000Y-19477000D01*
X35170000Y-19477000D02*
X33900000Y-19477000D01*
D15*
X30988000Y-15113000D02*
X30988000Y-14097000D01*
X29464000Y-15113000D02*
X29464000Y-14071600D01*
X31115000Y-16256000D02*
G75*
G03X31115000Y-16256000I-127000J0D01*
G01*
X30988000Y-15113000D02*
X30988000Y-16129000D01*
X30988000Y-16129000D02*
X29464000Y-16129000D01*
X29464000Y-16129000D02*
X29464000Y-15113000D01*
X29464000Y-14097000D02*
X29464000Y-13081000D01*
X29464000Y-13081000D02*
X30988000Y-13081000D01*
X30988000Y-13081000D02*
X30988000Y-14097000D01*
X37762000Y-15508000D02*
X37762000Y-14492000D01*
X36238000Y-15508000D02*
X36238000Y-14466600D01*
X37889000Y-16651000D02*
G75*
G03X37889000Y-16651000I-127000J0D01*
G01*
X37762000Y-15508000D02*
X37762000Y-16524000D01*
X37762000Y-16524000D02*
X36238000Y-16524000D01*
X36238000Y-16524000D02*
X36238000Y-15508000D01*
X36238000Y-14492000D02*
X36238000Y-13476000D01*
X36238000Y-13476000D02*
X37762000Y-13476000D01*
X37762000Y-13476000D02*
X37762000Y-14492000D01*
X48392000Y-14562000D02*
X49408000Y-14562000D01*
X48392000Y-13038000D02*
X49433400Y-13038000D01*
X47376000Y-14562000D02*
G75*
G03X47376000Y-14562000I-127000J0D01*
G01*
X48392000Y-14562000D02*
X47376000Y-14562000D01*
X47376000Y-14562000D02*
X47376000Y-13038000D01*
X47376000Y-13038000D02*
X48392000Y-13038000D01*
X49408000Y-13038000D02*
X50424000Y-13038000D01*
X50424000Y-13038000D02*
X50424000Y-14562000D01*
X50424000Y-14562000D02*
X49408000Y-14562000D01*
X63092000Y-14162000D02*
X64108000Y-14162000D01*
X63092000Y-12638000D02*
X64133400Y-12638000D01*
X62076000Y-14162000D02*
G75*
G03X62076000Y-14162000I-127000J0D01*
G01*
X63092000Y-14162000D02*
X62076000Y-14162000D01*
X62076000Y-14162000D02*
X62076000Y-12638000D01*
X62076000Y-12638000D02*
X63092000Y-12638000D01*
X64108000Y-12638000D02*
X65124000Y-12638000D01*
X65124000Y-12638000D02*
X65124000Y-14162000D01*
X65124000Y-14162000D02*
X64108000Y-14162000D01*
D17*
X65043000Y-17735000D02*
X62757000Y-17735000D01*
X62757000Y-17735000D02*
X62757000Y-16465000D01*
X62757000Y-16465000D02*
X65043000Y-16465000D01*
X65043000Y-16465000D02*
X65043000Y-17735000D01*
X48543000Y-20635000D02*
X46257000Y-20635000D01*
X46257000Y-20635000D02*
X46257000Y-19365000D01*
X46257000Y-19365000D02*
X48543000Y-19365000D01*
X48543000Y-19365000D02*
X48543000Y-20635000D01*
D15*
X23422160Y-25112800D02*
X24438160Y-25112800D01*
X23422160Y-23588800D02*
X24463560Y-23588800D01*
X22406160Y-25112800D02*
G75*
G03X22406160Y-25112800I-127000J0D01*
G01*
X23422160Y-25112800D02*
X22406160Y-25112800D01*
X22406160Y-25112800D02*
X22406160Y-23588800D01*
X22406160Y-23588800D02*
X23422160Y-23588800D01*
X24438160Y-23588800D02*
X25454160Y-23588800D01*
X25454160Y-23588800D02*
X25454160Y-25112800D01*
X25454160Y-25112800D02*
X24438160Y-25112800D01*
D17*
X50457000Y-21665000D02*
X52743000Y-21665000D01*
X52743000Y-21665000D02*
X52743000Y-22935000D01*
X52743000Y-22935000D02*
X50457000Y-22935000D01*
X50457000Y-22935000D02*
X50457000Y-21665000D01*
X50457000Y-19465000D02*
X52743000Y-19465000D01*
X52743000Y-19465000D02*
X52743000Y-20735000D01*
X52743000Y-20735000D02*
X50457000Y-20735000D01*
X50457000Y-20735000D02*
X50457000Y-19465000D01*
D15*
X24960000Y-38062000D02*
X25976000Y-38062000D01*
X24960000Y-36538000D02*
X26001400Y-36538000D01*
X23944000Y-38062000D02*
G75*
G03X23944000Y-38062000I-127000J0D01*
G01*
X24960000Y-38062000D02*
X23944000Y-38062000D01*
X23944000Y-38062000D02*
X23944000Y-36538000D01*
X23944000Y-36538000D02*
X24960000Y-36538000D01*
X25976000Y-36538000D02*
X26992000Y-36538000D01*
X26992000Y-36538000D02*
X26992000Y-38062000D01*
X26992000Y-38062000D02*
X25976000Y-38062000D01*
D17*
X73167800Y-19057600D02*
X70881800Y-19057600D01*
X70881800Y-19057600D02*
X70881800Y-17787600D01*
X70881800Y-17787600D02*
X73167800Y-17787600D01*
X73167800Y-17787600D02*
X73167800Y-19057600D01*
X73167800Y-13957600D02*
X70881800Y-13957600D01*
X70881800Y-13957600D02*
X70881800Y-12687600D01*
X70881800Y-12687600D02*
X73167800Y-12687600D01*
X73167800Y-12687600D02*
X73167800Y-13957600D01*
X73167800Y-16457600D02*
X70881800Y-16457600D01*
X70881800Y-16457600D02*
X70881800Y-15187600D01*
X70881800Y-15187600D02*
X73167800Y-15187600D01*
X73167800Y-15187600D02*
X73167800Y-16457600D01*
X50157000Y-30365000D02*
X52443000Y-30365000D01*
X52443000Y-30365000D02*
X52443000Y-31635000D01*
X52443000Y-31635000D02*
X50157000Y-31635000D01*
X50157000Y-31635000D02*
X50157000Y-30365000D01*
X50157000Y-28715000D02*
X52443000Y-28715000D01*
X52443000Y-28715000D02*
X52443000Y-29985000D01*
X52443000Y-29985000D02*
X50157000Y-29985000D01*
X50157000Y-29985000D02*
X50157000Y-28715000D01*
X34740000Y-30390200D02*
X34740000Y-28104200D01*
X34740000Y-28104200D02*
X36010000Y-28104200D01*
X36010000Y-28104200D02*
X36010000Y-30390200D01*
X36010000Y-30390200D02*
X34740000Y-30390200D01*
X32340000Y-30390200D02*
X32340000Y-28104200D01*
X32340000Y-28104200D02*
X33610000Y-28104200D01*
X33610000Y-28104200D02*
X33610000Y-30390200D01*
X33610000Y-30390200D02*
X32340000Y-30390200D01*
X30390000Y-30390200D02*
X30390000Y-28104200D01*
X30390000Y-28104200D02*
X31660000Y-28104200D01*
X31660000Y-28104200D02*
X31660000Y-30390200D01*
X31660000Y-30390200D02*
X30390000Y-30390200D01*
X69881800Y-28787600D02*
X72167800Y-28787600D01*
X72167800Y-28787600D02*
X72167800Y-30057600D01*
X72167800Y-30057600D02*
X69881800Y-30057600D01*
X69881800Y-30057600D02*
X69881800Y-28787600D01*
X69881800Y-30687600D02*
X72167800Y-30687600D01*
X72167800Y-30687600D02*
X72167800Y-31957600D01*
X72167800Y-31957600D02*
X69881800Y-31957600D01*
X69881800Y-31957600D02*
X69881800Y-30687600D01*
X72167800Y-28157600D02*
X69881800Y-28157600D01*
X69881800Y-28157600D02*
X69881800Y-26887600D01*
X69881800Y-26887600D02*
X72167800Y-26887600D01*
X72167800Y-26887600D02*
X72167800Y-28157600D01*
D12*
X29250000Y250000D02*
X13750000Y250000D01*
X13750000Y750000D02*
X29250000Y750000D01*
X29250000Y-250000D02*
X13750000Y-250000D01*
X29250000Y-250000D02*
X29250000Y750000D01*
X13750000Y750000D02*
X13750000Y250000D01*
X13750000Y250000D02*
X13750000Y-250000D01*
X28750000Y-1500000D02*
X28750000Y-250000D01*
X28750000Y-7250000D02*
X28750000Y-3500000D01*
X14250000Y-1500000D02*
X14250000Y-250000D01*
X28750000Y-7250000D02*
X14250000Y-7250000D01*
X14250000Y-7250000D02*
X14250000Y-3500000D01*
D21*
X21660160Y-22520800D02*
X24200160Y-22520800D01*
X21660160Y-19980800D02*
X24200160Y-19980800D01*
D19*
X21660160Y-22520800D02*
X21660160Y-19980800D01*
X24200160Y-19980800D02*
X24200160Y-22520800D01*
D21*
X23241000Y-34594800D02*
X25781000Y-34594800D01*
X23241000Y-32054800D02*
X25781000Y-32054800D01*
D19*
X23241000Y-34594800D02*
X23241000Y-32054800D01*
X25781000Y-32054800D02*
X25781000Y-34594800D01*
D17*
X55598682Y-29480600D02*
G75*
G03X55598682Y-29480600I-279042J0D01*
G01*
X54753220Y-29160560D02*
X54753220Y-35439440D01*
X54753220Y-35439440D02*
X55060560Y-35746780D01*
X55060560Y-35746780D02*
X61339440Y-35746780D01*
X61339440Y-35746780D02*
X61646780Y-35439440D01*
X61646780Y-35439440D02*
X61646780Y-29160560D01*
X61646780Y-29160560D02*
X61339440Y-28853220D01*
X61339440Y-28853220D02*
X55060560Y-28853220D01*
X55060560Y-28853220D02*
X54753220Y-29160560D01*
D12*
X15680160Y-19650800D02*
X15680160Y-19400800D01*
X15680160Y-19400800D02*
X15930160Y-19400800D01*
D22*
X16033713Y-19400800D02*
G75*
G03X16033713Y-19400800I-353553J0D01*
G01*
D12*
X15680160Y-22900800D02*
X9180160Y-22900800D01*
X9180160Y-22900800D02*
X9180160Y-19400800D01*
X9180160Y-19400800D02*
X15680160Y-19400800D01*
X15680160Y-19400800D02*
X15680160Y-22900800D01*
X17982000Y-32663000D02*
X17982000Y-32413000D01*
X17982000Y-32413000D02*
X18232000Y-32413000D01*
D22*
X18335553Y-32413000D02*
G75*
G03X18335553Y-32413000I-353553J0D01*
G01*
D12*
X17982000Y-35913000D02*
X11482000Y-35913000D01*
X11482000Y-35913000D02*
X11482000Y-32413000D01*
X11482000Y-32413000D02*
X17982000Y-32413000D01*
X17982000Y-32413000D02*
X17982000Y-35913000D01*
D11*
X50050000Y-39513000D02*
X50050000Y-38420800D01*
X37324600Y-35779200D02*
X37324600Y-34687000D01*
X37324600Y-34687000D02*
X50050000Y-34687000D01*
X50050000Y-34687000D02*
X50050000Y-35779200D01*
X50050000Y-39513000D02*
X37350000Y-39513000D01*
X37350000Y-39513000D02*
X37350000Y-38420800D01*
D19*
X45110400Y-13665200D02*
X45110400Y-26365200D01*
X45110400Y-26365200D02*
X40030400Y-26365200D01*
X40030400Y-26365200D02*
X40030400Y-13665200D01*
X40030400Y-13665200D02*
X45110400Y-13665200D01*
D17*
X19287400Y-10803000D02*
X17636400Y-10803000D01*
X19262000Y-13597000D02*
X17687200Y-13597000D01*
X21092605Y-10676000D02*
G75*
G03X21092605Y-10676000I-179605J0D01*
G01*
X19262000Y-13597000D02*
X20786000Y-13597000D01*
X20786000Y-13597000D02*
X20786000Y-10803000D01*
X20786000Y-10803000D02*
X19262000Y-10803000D01*
X17738000Y-10803000D02*
X16214000Y-10803000D01*
X16214000Y-10803000D02*
X16214000Y-13597000D01*
X16214000Y-13597000D02*
X17738000Y-13597000D01*
D16*
X20642940Y-15053760D02*
X16242940Y-15053760D01*
X16242940Y-15053760D02*
X16242940Y-9553760D01*
X16242940Y-9553760D02*
X20642940Y-9553760D01*
X20642940Y-9553760D02*
X20642940Y-15053760D01*
D15*
X27500000Y-17200000D02*
X28900000Y-17200000D01*
X27200000Y-17100000D02*
X29200000Y-17100000D01*
X27000000Y-17000000D02*
X29500000Y-17000000D01*
X26900000Y-16900000D02*
X29600000Y-16900000D01*
D16*
X30700000Y-14800000D02*
G75*
G03X30700000Y-14800000I-2500000J0D01*
G01*
D17*
X56143000Y-25335000D02*
X53857000Y-25335000D01*
X53857000Y-25335000D02*
X53857000Y-24065000D01*
X53857000Y-24065000D02*
X56143000Y-24065000D01*
X56143000Y-24065000D02*
X56143000Y-25335000D01*
X42487400Y-27303000D02*
X40836400Y-27303000D01*
X42462000Y-30097000D02*
X40887200Y-30097000D01*
X44292605Y-27176000D02*
G75*
G03X44292605Y-27176000I-179605J0D01*
G01*
X42462000Y-30097000D02*
X43986000Y-30097000D01*
X43986000Y-30097000D02*
X43986000Y-27303000D01*
X43986000Y-27303000D02*
X42462000Y-27303000D01*
X40938000Y-27303000D02*
X39414000Y-27303000D01*
X39414000Y-27303000D02*
X39414000Y-30097000D01*
X39414000Y-30097000D02*
X40938000Y-30097000D01*
X65297000Y-21687400D02*
X65297000Y-20036400D01*
X62503000Y-21662000D02*
X62503000Y-20087200D01*
X65603605Y-23313000D02*
G75*
G03X65603605Y-23313000I-179605J0D01*
G01*
X62503000Y-21662000D02*
X62503000Y-23186000D01*
X62503000Y-23186000D02*
X65297000Y-23186000D01*
X65297000Y-23186000D02*
X65297000Y-21662000D01*
X65297000Y-20138000D02*
X65297000Y-18614000D01*
X65297000Y-18614000D02*
X62503000Y-18614000D01*
X62503000Y-18614000D02*
X62503000Y-20138000D01*
X56835000Y-15657000D02*
X56835000Y-17943000D01*
X56835000Y-17943000D02*
X55565000Y-17943000D01*
X55565000Y-17943000D02*
X55565000Y-15657000D01*
X55565000Y-15657000D02*
X56835000Y-15657000D01*
X58343000Y-14435000D02*
X56057000Y-14435000D01*
X56057000Y-14435000D02*
X56057000Y-13165000D01*
X56057000Y-13165000D02*
X58343000Y-13165000D01*
X58343000Y-13165000D02*
X58343000Y-14435000D01*
X38357000Y-31865000D02*
X40643000Y-31865000D01*
X40643000Y-31865000D02*
X40643000Y-33135000D01*
X40643000Y-33135000D02*
X38357000Y-33135000D01*
X38357000Y-33135000D02*
X38357000Y-31865000D01*
D15*
X47508000Y-28138000D02*
X46492000Y-28138000D01*
X47508000Y-29662000D02*
X46466600Y-29662000D01*
X48778000Y-28138000D02*
G75*
G03X48778000Y-28138000I-127000J0D01*
G01*
X47508000Y-28138000D02*
X48524000Y-28138000D01*
X48524000Y-28138000D02*
X48524000Y-29662000D01*
X48524000Y-29662000D02*
X47508000Y-29662000D01*
X46492000Y-29662000D02*
X45476000Y-29662000D01*
X45476000Y-29662000D02*
X45476000Y-28138000D01*
X45476000Y-28138000D02*
X46492000Y-28138000D01*
D17*
X59586000Y-19214000D02*
X55014000Y-19214000D01*
X55014000Y-23786000D02*
X59586000Y-23786000D01*
X55099981Y-19023000D02*
G75*
G03X55099981Y-19023000I-283981J0D01*
G01*
X35757000Y-23465000D02*
X38043000Y-23465000D01*
X38043000Y-23465000D02*
X38043000Y-24735000D01*
X38043000Y-24735000D02*
X35757000Y-24735000D01*
X35757000Y-24735000D02*
X35757000Y-23465000D01*
X76259800Y-29279600D02*
X76259800Y-31565600D01*
X76259800Y-31565600D02*
X74989800Y-31565600D01*
X74989800Y-31565600D02*
X74989800Y-29279600D01*
X74989800Y-29279600D02*
X76259800Y-29279600D01*
X48463200Y-25450800D02*
X46177200Y-25450800D01*
X46177200Y-25450800D02*
X46177200Y-24180800D01*
X46177200Y-24180800D02*
X48463200Y-24180800D01*
X48463200Y-24180800D02*
X48463200Y-25450800D01*
X45796200Y-21920200D02*
X48082200Y-21920200D01*
X48082200Y-21920200D02*
X48082200Y-23190200D01*
X48082200Y-23190200D02*
X45796200Y-23190200D01*
X45796200Y-23190200D02*
X45796200Y-21920200D01*
D23*
G36*
X5786543Y-29107393D02*
X5941916Y-29109515D01*
X6085224Y-29114232D01*
X6207309Y-29121543D01*
X6244770Y-29124857D01*
X6646328Y-29181404D01*
X7040817Y-29270681D01*
X7426663Y-29392047D01*
X7802293Y-29544858D01*
X8166135Y-29728474D01*
X8395590Y-29868432D01*
X5792815Y-29868432D01*
X5642686Y-29868795D01*
X5498777Y-29872098D01*
X5371065Y-29878341D01*
X5291581Y-29884989D01*
X4919061Y-29941219D01*
X4555950Y-30029612D01*
X4203752Y-30149445D01*
X3863970Y-30299996D01*
X3538108Y-30480541D01*
X3227671Y-30690360D01*
X2934161Y-30928730D01*
X2742090Y-31109679D01*
X2484421Y-31390618D01*
X2254803Y-31689523D01*
X2053960Y-32004891D01*
X1882612Y-32335218D01*
X1741484Y-32679000D01*
X1631297Y-33034734D01*
X1552773Y-33400915D01*
X1517400Y-33659170D01*
X1508941Y-33768086D01*
X1503422Y-33900717D01*
X1500844Y-34047085D01*
X1501206Y-34197214D01*
X1504509Y-34341123D01*
X1510753Y-34468835D01*
X1517400Y-34548319D01*
X1573630Y-34920839D01*
X1662023Y-35283950D01*
X1781856Y-35636148D01*
X1932407Y-35975930D01*
X2112953Y-36301792D01*
X2322772Y-36612229D01*
X2561141Y-36905739D01*
X2742090Y-37097810D01*
X3023029Y-37355479D01*
X3321934Y-37585097D01*
X3637302Y-37785940D01*
X3967629Y-37957288D01*
X4311411Y-38098416D01*
X4667145Y-38208603D01*
X5033326Y-38287127D01*
X5291581Y-38322500D01*
X5400497Y-38330959D01*
X5533128Y-38336478D01*
X5679497Y-38339056D01*
X5829625Y-38338694D01*
X5973534Y-38335391D01*
X6101247Y-38329147D01*
X6180730Y-38322500D01*
X6553250Y-38266270D01*
X6916361Y-38177877D01*
X7268560Y-38058044D01*
X7608341Y-37907493D01*
X7934203Y-37726947D01*
X8244640Y-37517128D01*
X8538150Y-37278759D01*
X8730221Y-37097810D01*
X8989017Y-36815802D01*
X9219203Y-36516387D01*
X9420191Y-36200759D01*
X9591396Y-35870115D01*
X9732230Y-35525649D01*
X9842107Y-35168557D01*
X9920440Y-34800033D01*
X9946652Y-34619523D01*
X9956491Y-34514392D01*
X9963714Y-34384725D01*
X9968244Y-34239714D01*
X9970000Y-34088550D01*
X9968904Y-33940422D01*
X9964877Y-33804523D01*
X9957840Y-33690043D01*
X9954911Y-33659170D01*
X9898681Y-33286650D01*
X9810288Y-32923539D01*
X9690455Y-32571340D01*
X9539904Y-32231559D01*
X9359359Y-31905697D01*
X9149540Y-31595260D01*
X8911170Y-31301750D01*
X8730221Y-31109679D01*
X8449282Y-30852009D01*
X8150377Y-30622392D01*
X7835009Y-30421548D01*
X7504682Y-30250201D01*
X7160900Y-30109073D01*
X6805166Y-29998885D01*
X6438985Y-29920361D01*
X6180730Y-29884989D01*
X6071814Y-29876529D01*
X5939183Y-29871011D01*
X5792815Y-29868432D01*
X8395590Y-29868432D01*
X8516615Y-29942252D01*
X8852162Y-30185550D01*
X8861232Y-30192706D01*
X8966013Y-30280378D01*
X9084835Y-30387838D01*
X9210871Y-30508257D01*
X9337292Y-30634809D01*
X9457271Y-30760665D01*
X9563981Y-30878998D01*
X9647194Y-30978668D01*
X9891301Y-31313779D01*
X10105906Y-31663866D01*
X10290366Y-32027359D01*
X10444040Y-32402684D01*
X10566285Y-32788267D01*
X10656460Y-33182538D01*
X10713923Y-33583922D01*
X10715043Y-33595130D01*
X10721587Y-33685890D01*
X10726344Y-33802281D01*
X10729321Y-33936381D01*
X10730525Y-34080269D01*
X10729961Y-34226023D01*
X10727637Y-34365720D01*
X10723560Y-34491440D01*
X10717735Y-34595261D01*
X10714175Y-34636434D01*
X10657517Y-35027771D01*
X10568077Y-35415142D01*
X10446858Y-35796105D01*
X10294866Y-36168221D01*
X10113104Y-36529049D01*
X9902578Y-36876148D01*
X9664291Y-37207079D01*
X9647194Y-37228821D01*
X9559522Y-37333602D01*
X9452062Y-37452424D01*
X9331643Y-37578459D01*
X9205091Y-37704881D01*
X9079235Y-37824860D01*
X8960902Y-37931570D01*
X8861232Y-38014783D01*
X8526121Y-38258890D01*
X8176034Y-38473495D01*
X7812541Y-38657955D01*
X7437216Y-38811628D01*
X7051633Y-38933874D01*
X6657362Y-39024049D01*
X6255978Y-39081511D01*
X6244770Y-39082632D01*
X6132709Y-39090890D01*
X5996083Y-39096554D01*
X5844051Y-39099622D01*
X5685769Y-39100095D01*
X5530395Y-39097974D01*
X5387087Y-39093257D01*
X5265003Y-39085946D01*
X5227541Y-39082632D01*
X4825983Y-39026085D01*
X4431494Y-38936807D01*
X4045649Y-38815442D01*
X3670018Y-38662631D01*
X3306177Y-38479015D01*
X2955696Y-38265237D01*
X2620150Y-38021939D01*
X2611079Y-38014783D01*
X2506298Y-37927111D01*
X2387476Y-37819651D01*
X2261441Y-37699232D01*
X2135019Y-37572680D01*
X2015040Y-37446824D01*
X1908330Y-37328491D01*
X1825117Y-37228821D01*
X1581010Y-36893710D01*
X1366405Y-36543622D01*
X1181945Y-36180130D01*
X1028272Y-35804805D01*
X906026Y-35419221D01*
X815851Y-35024951D01*
X758389Y-34623567D01*
X757268Y-34612359D01*
X749010Y-34500297D01*
X743346Y-34363672D01*
X740278Y-34211639D01*
X739805Y-34053357D01*
X741926Y-33897984D01*
X746643Y-33754676D01*
X753954Y-33632591D01*
X757268Y-33595130D01*
X813815Y-33193572D01*
X903093Y-32799083D01*
X1024458Y-32413237D01*
X1177269Y-32037607D01*
X1360885Y-31673765D01*
X1574663Y-31323285D01*
X1817961Y-30987738D01*
X1825117Y-30978668D01*
X1912789Y-30873887D01*
X2020249Y-30755065D01*
X2140668Y-30629029D01*
X2267220Y-30502608D01*
X2393076Y-30382629D01*
X2511409Y-30275919D01*
X2611079Y-30192706D01*
X2946190Y-29948599D01*
X3296278Y-29733994D01*
X3659770Y-29549534D01*
X4035095Y-29395860D01*
X4420679Y-29273615D01*
X4814949Y-29183440D01*
X5216333Y-29125977D01*
X5227541Y-29124857D01*
X5339603Y-29116599D01*
X5476228Y-29110935D01*
X5628261Y-29107867D01*
X5786543Y-29107393D01*
X5786543Y-29107393D01*
X5786543Y-29107393D01*
G37*
X5786543Y-29107393D02*
X5941916Y-29109515D01*
X6085224Y-29114232D01*
X6207309Y-29121543D01*
X6244770Y-29124857D01*
X6646328Y-29181404D01*
X7040817Y-29270681D01*
X7426663Y-29392047D01*
X7802293Y-29544858D01*
X8166135Y-29728474D01*
X8395590Y-29868432D01*
X5792815Y-29868432D01*
X5642686Y-29868795D01*
X5498777Y-29872098D01*
X5371065Y-29878341D01*
X5291581Y-29884989D01*
X4919061Y-29941219D01*
X4555950Y-30029612D01*
X4203752Y-30149445D01*
X3863970Y-30299996D01*
X3538108Y-30480541D01*
X3227671Y-30690360D01*
X2934161Y-30928730D01*
X2742090Y-31109679D01*
X2484421Y-31390618D01*
X2254803Y-31689523D01*
X2053960Y-32004891D01*
X1882612Y-32335218D01*
X1741484Y-32679000D01*
X1631297Y-33034734D01*
X1552773Y-33400915D01*
X1517400Y-33659170D01*
X1508941Y-33768086D01*
X1503422Y-33900717D01*
X1500844Y-34047085D01*
X1501206Y-34197214D01*
X1504509Y-34341123D01*
X1510753Y-34468835D01*
X1517400Y-34548319D01*
X1573630Y-34920839D01*
X1662023Y-35283950D01*
X1781856Y-35636148D01*
X1932407Y-35975930D01*
X2112953Y-36301792D01*
X2322772Y-36612229D01*
X2561141Y-36905739D01*
X2742090Y-37097810D01*
X3023029Y-37355479D01*
X3321934Y-37585097D01*
X3637302Y-37785940D01*
X3967629Y-37957288D01*
X4311411Y-38098416D01*
X4667145Y-38208603D01*
X5033326Y-38287127D01*
X5291581Y-38322500D01*
X5400497Y-38330959D01*
X5533128Y-38336478D01*
X5679497Y-38339056D01*
X5829625Y-38338694D01*
X5973534Y-38335391D01*
X6101247Y-38329147D01*
X6180730Y-38322500D01*
X6553250Y-38266270D01*
X6916361Y-38177877D01*
X7268560Y-38058044D01*
X7608341Y-37907493D01*
X7934203Y-37726947D01*
X8244640Y-37517128D01*
X8538150Y-37278759D01*
X8730221Y-37097810D01*
X8989017Y-36815802D01*
X9219203Y-36516387D01*
X9420191Y-36200759D01*
X9591396Y-35870115D01*
X9732230Y-35525649D01*
X9842107Y-35168557D01*
X9920440Y-34800033D01*
X9946652Y-34619523D01*
X9956491Y-34514392D01*
X9963714Y-34384725D01*
X9968244Y-34239714D01*
X9970000Y-34088550D01*
X9968904Y-33940422D01*
X9964877Y-33804523D01*
X9957840Y-33690043D01*
X9954911Y-33659170D01*
X9898681Y-33286650D01*
X9810288Y-32923539D01*
X9690455Y-32571340D01*
X9539904Y-32231559D01*
X9359359Y-31905697D01*
X9149540Y-31595260D01*
X8911170Y-31301750D01*
X8730221Y-31109679D01*
X8449282Y-30852009D01*
X8150377Y-30622392D01*
X7835009Y-30421548D01*
X7504682Y-30250201D01*
X7160900Y-30109073D01*
X6805166Y-29998885D01*
X6438985Y-29920361D01*
X6180730Y-29884989D01*
X6071814Y-29876529D01*
X5939183Y-29871011D01*
X5792815Y-29868432D01*
X8395590Y-29868432D01*
X8516615Y-29942252D01*
X8852162Y-30185550D01*
X8861232Y-30192706D01*
X8966013Y-30280378D01*
X9084835Y-30387838D01*
X9210871Y-30508257D01*
X9337292Y-30634809D01*
X9457271Y-30760665D01*
X9563981Y-30878998D01*
X9647194Y-30978668D01*
X9891301Y-31313779D01*
X10105906Y-31663866D01*
X10290366Y-32027359D01*
X10444040Y-32402684D01*
X10566285Y-32788267D01*
X10656460Y-33182538D01*
X10713923Y-33583922D01*
X10715043Y-33595130D01*
X10721587Y-33685890D01*
X10726344Y-33802281D01*
X10729321Y-33936381D01*
X10730525Y-34080269D01*
X10729961Y-34226023D01*
X10727637Y-34365720D01*
X10723560Y-34491440D01*
X10717735Y-34595261D01*
X10714175Y-34636434D01*
X10657517Y-35027771D01*
X10568077Y-35415142D01*
X10446858Y-35796105D01*
X10294866Y-36168221D01*
X10113104Y-36529049D01*
X9902578Y-36876148D01*
X9664291Y-37207079D01*
X9647194Y-37228821D01*
X9559522Y-37333602D01*
X9452062Y-37452424D01*
X9331643Y-37578459D01*
X9205091Y-37704881D01*
X9079235Y-37824860D01*
X8960902Y-37931570D01*
X8861232Y-38014783D01*
X8526121Y-38258890D01*
X8176034Y-38473495D01*
X7812541Y-38657955D01*
X7437216Y-38811628D01*
X7051633Y-38933874D01*
X6657362Y-39024049D01*
X6255978Y-39081511D01*
X6244770Y-39082632D01*
X6132709Y-39090890D01*
X5996083Y-39096554D01*
X5844051Y-39099622D01*
X5685769Y-39100095D01*
X5530395Y-39097974D01*
X5387087Y-39093257D01*
X5265003Y-39085946D01*
X5227541Y-39082632D01*
X4825983Y-39026085D01*
X4431494Y-38936807D01*
X4045649Y-38815442D01*
X3670018Y-38662631D01*
X3306177Y-38479015D01*
X2955696Y-38265237D01*
X2620150Y-38021939D01*
X2611079Y-38014783D01*
X2506298Y-37927111D01*
X2387476Y-37819651D01*
X2261441Y-37699232D01*
X2135019Y-37572680D01*
X2015040Y-37446824D01*
X1908330Y-37328491D01*
X1825117Y-37228821D01*
X1581010Y-36893710D01*
X1366405Y-36543622D01*
X1181945Y-36180130D01*
X1028272Y-35804805D01*
X906026Y-35419221D01*
X815851Y-35024951D01*
X758389Y-34623567D01*
X757268Y-34612359D01*
X749010Y-34500297D01*
X743346Y-34363672D01*
X740278Y-34211639D01*
X739805Y-34053357D01*
X741926Y-33897984D01*
X746643Y-33754676D01*
X753954Y-33632591D01*
X757268Y-33595130D01*
X813815Y-33193572D01*
X903093Y-32799083D01*
X1024458Y-32413237D01*
X1177269Y-32037607D01*
X1360885Y-31673765D01*
X1574663Y-31323285D01*
X1817961Y-30987738D01*
X1825117Y-30978668D01*
X1912789Y-30873887D01*
X2020249Y-30755065D01*
X2140668Y-30629029D01*
X2267220Y-30502608D01*
X2393076Y-30382629D01*
X2511409Y-30275919D01*
X2611079Y-30192706D01*
X2946190Y-29948599D01*
X3296278Y-29733994D01*
X3659770Y-29549534D01*
X4035095Y-29395860D01*
X4420679Y-29273615D01*
X4814949Y-29183440D01*
X5216333Y-29125977D01*
X5227541Y-29124857D01*
X5339603Y-29116599D01*
X5476228Y-29110935D01*
X5628261Y-29107867D01*
X5786543Y-29107393D01*
X5786543Y-29107393D01*
G36*
X8205130Y-31905342D02*
X8314901Y-31944945D01*
X8441525Y-32002607D01*
X8547717Y-32078423D01*
X8636342Y-32175777D01*
X8710263Y-32298051D01*
X8772343Y-32448629D01*
X8791730Y-32508404D01*
X8798479Y-32530844D01*
X8804381Y-32552668D01*
X8805617Y-32558355D01*
X7544512Y-32558355D01*
X7381116Y-32558762D01*
X7187843Y-32559569D01*
X7094471Y-32560026D01*
X6890288Y-32561083D01*
X6717202Y-32562100D01*
X6572486Y-32563186D01*
X6453415Y-32564451D01*
X6357266Y-32566001D01*
X6281311Y-32567948D01*
X6222826Y-32570399D01*
X6179087Y-32573464D01*
X6147367Y-32577251D01*
X6124941Y-32581869D01*
X6109085Y-32587428D01*
X6097072Y-32594036D01*
X6088279Y-32600239D01*
X6014857Y-32675373D01*
X5964508Y-32773535D01*
X5947995Y-32833248D01*
X5943980Y-32868594D01*
X5940615Y-32933210D01*
X5937891Y-33027687D01*
X5935804Y-33152616D01*
X5934347Y-33308589D01*
X5933514Y-33496194D01*
X5933299Y-33716024D01*
X5933696Y-33968669D01*
X5934329Y-34163930D01*
X5939085Y-35405875D01*
X5978586Y-35486083D01*
X6012598Y-35541262D01*
X6053443Y-35589036D01*
X6071595Y-35604459D01*
X6125104Y-35642626D01*
X7089019Y-35647810D01*
X7326369Y-35648758D01*
X7533796Y-35648894D01*
X7710700Y-35648226D01*
X7856482Y-35646761D01*
X7970542Y-35644506D01*
X8052281Y-35641468D01*
X8101101Y-35637654D01*
X8112823Y-35635505D01*
X8166322Y-35610537D01*
X8215233Y-35573550D01*
X8218112Y-35570629D01*
X8235193Y-35552775D01*
X8250083Y-35535713D01*
X8262934Y-35517116D01*
X8273898Y-35494657D01*
X8283129Y-35466007D01*
X8290779Y-35428841D01*
X8297000Y-35380829D01*
X8301945Y-35319646D01*
X8305767Y-35242963D01*
X8308619Y-35148453D01*
X8310652Y-35033790D01*
X8312020Y-34896644D01*
X8312875Y-34734690D01*
X8313371Y-34545599D01*
X8313658Y-34327045D01*
X8313859Y-34110496D01*
X8313928Y-33845186D01*
X8313599Y-33612439D01*
X8312855Y-33410997D01*
X8311679Y-33239603D01*
X8310054Y-33096999D01*
X8307962Y-32981928D01*
X8305387Y-32893133D01*
X8302312Y-32829358D01*
X8298720Y-32789343D01*
X8295804Y-32774543D01*
X8250818Y-32684128D01*
X8185862Y-32616295D01*
X8125095Y-32582674D01*
X8106644Y-32576758D01*
X8083105Y-32571787D01*
X8051724Y-32567700D01*
X8009747Y-32564436D01*
X7954419Y-32561936D01*
X7882985Y-32560138D01*
X7792693Y-32558982D01*
X7680787Y-32558408D01*
X7544512Y-32558355D01*
X8805617Y-32558355D01*
X8809499Y-32576199D01*
X8813894Y-32603763D01*
X8817628Y-32637685D01*
X8820765Y-32680290D01*
X8823365Y-32733902D01*
X8825491Y-32800847D01*
X8827205Y-32883451D01*
X8828570Y-32984037D01*
X8829647Y-33104931D01*
X8830498Y-33248458D01*
X8831186Y-33416942D01*
X8831773Y-33612710D01*
X8832321Y-33838085D01*
X8832780Y-34044557D01*
X8833080Y-34262735D01*
X8833021Y-34473026D01*
X8832626Y-34672707D01*
X8831915Y-34859058D01*
X8830909Y-35029359D01*
X8829630Y-35180890D01*
X8828099Y-35310929D01*
X8826336Y-35416756D01*
X8824364Y-35495651D01*
X8822203Y-35544892D01*
X8820984Y-35558072D01*
X8785462Y-35719739D01*
X8729586Y-35869013D01*
X8656130Y-36001289D01*
X8567863Y-36111962D01*
X8467558Y-36196428D01*
X8420001Y-36224270D01*
X8385547Y-36241266D01*
X8351923Y-36255860D01*
X8316364Y-36268236D01*
X8276105Y-36278576D01*
X8228384Y-36287064D01*
X8170435Y-36293884D01*
X8099495Y-36299219D01*
X8012800Y-36303251D01*
X7907586Y-36306165D01*
X7781088Y-36308143D01*
X7630543Y-36309370D01*
X7453186Y-36310028D01*
X7246255Y-36310301D01*
X7122165Y-36310352D01*
X6900723Y-36310348D01*
X6710295Y-36310088D01*
X6548073Y-36309380D01*
X6411250Y-36308030D01*
X6297018Y-36305844D01*
X6202571Y-36302628D01*
X6125100Y-36298188D01*
X6061797Y-36292332D01*
X6009856Y-36284864D01*
X5966469Y-36275592D01*
X5928829Y-36264321D01*
X5894127Y-36250859D01*
X5859556Y-36235011D01*
X5831781Y-36221321D01*
X5761758Y-36174743D01*
X5687228Y-36106017D01*
X5616528Y-36024285D01*
X5557997Y-35938685D01*
X5535599Y-35896655D01*
X5513302Y-35847541D01*
X5493638Y-35798600D01*
X5476458Y-35747508D01*
X5461614Y-35691939D01*
X5448957Y-35629568D01*
X5438339Y-35558070D01*
X5429612Y-35475121D01*
X5422628Y-35378395D01*
X5417237Y-35265567D01*
X5413292Y-35134312D01*
X5410644Y-34982306D01*
X5409145Y-34807223D01*
X5408647Y-34606739D01*
X5409001Y-34378527D01*
X5410059Y-34120265D01*
X5411004Y-33943993D01*
X5412438Y-33696364D01*
X5413863Y-33480011D01*
X5415469Y-33292389D01*
X5417449Y-33130950D01*
X5419993Y-32993151D01*
X5423293Y-32876446D01*
X5427541Y-32778289D01*
X5432928Y-32696135D01*
X5439645Y-32627438D01*
X5447884Y-32569653D01*
X5457837Y-32520234D01*
X5469695Y-32476637D01*
X5483649Y-32436315D01*
X5499891Y-32396723D01*
X5518612Y-32355316D01*
X5532788Y-32324970D01*
X5612370Y-32187441D01*
X5710068Y-32077765D01*
X5828109Y-31993937D01*
X5966273Y-31934739D01*
X5987245Y-31928740D01*
X6011879Y-31923610D01*
X6042824Y-31919280D01*
X6082728Y-31915686D01*
X6134239Y-31912758D01*
X6200006Y-31910432D01*
X6282676Y-31908640D01*
X6384898Y-31907315D01*
X6509320Y-31906391D01*
X6658590Y-31905800D01*
X6835358Y-31905475D01*
X7042270Y-31905351D01*
X7131295Y-31905342D01*
X8205130Y-31905342D01*
X8205130Y-31905342D01*
X8205130Y-31905342D01*
G37*
X8205130Y-31905342D02*
X8314901Y-31944945D01*
X8441525Y-32002607D01*
X8547717Y-32078423D01*
X8636342Y-32175777D01*
X8710263Y-32298051D01*
X8772343Y-32448629D01*
X8791730Y-32508404D01*
X8798479Y-32530844D01*
X8804381Y-32552668D01*
X8805617Y-32558355D01*
X7544512Y-32558355D01*
X7381116Y-32558762D01*
X7187843Y-32559569D01*
X7094471Y-32560026D01*
X6890288Y-32561083D01*
X6717202Y-32562100D01*
X6572486Y-32563186D01*
X6453415Y-32564451D01*
X6357266Y-32566001D01*
X6281311Y-32567948D01*
X6222826Y-32570399D01*
X6179087Y-32573464D01*
X6147367Y-32577251D01*
X6124941Y-32581869D01*
X6109085Y-32587428D01*
X6097072Y-32594036D01*
X6088279Y-32600239D01*
X6014857Y-32675373D01*
X5964508Y-32773535D01*
X5947995Y-32833248D01*
X5943980Y-32868594D01*
X5940615Y-32933210D01*
X5937891Y-33027687D01*
X5935804Y-33152616D01*
X5934347Y-33308589D01*
X5933514Y-33496194D01*
X5933299Y-33716024D01*
X5933696Y-33968669D01*
X5934329Y-34163930D01*
X5939085Y-35405875D01*
X5978586Y-35486083D01*
X6012598Y-35541262D01*
X6053443Y-35589036D01*
X6071595Y-35604459D01*
X6125104Y-35642626D01*
X7089019Y-35647810D01*
X7326369Y-35648758D01*
X7533796Y-35648894D01*
X7710700Y-35648226D01*
X7856482Y-35646761D01*
X7970542Y-35644506D01*
X8052281Y-35641468D01*
X8101101Y-35637654D01*
X8112823Y-35635505D01*
X8166322Y-35610537D01*
X8215233Y-35573550D01*
X8218112Y-35570629D01*
X8235193Y-35552775D01*
X8250083Y-35535713D01*
X8262934Y-35517116D01*
X8273898Y-35494657D01*
X8283129Y-35466007D01*
X8290779Y-35428841D01*
X8297000Y-35380829D01*
X8301945Y-35319646D01*
X8305767Y-35242963D01*
X8308619Y-35148453D01*
X8310652Y-35033790D01*
X8312020Y-34896644D01*
X8312875Y-34734690D01*
X8313371Y-34545599D01*
X8313658Y-34327045D01*
X8313859Y-34110496D01*
X8313928Y-33845186D01*
X8313599Y-33612439D01*
X8312855Y-33410997D01*
X8311679Y-33239603D01*
X8310054Y-33096999D01*
X8307962Y-32981928D01*
X8305387Y-32893133D01*
X8302312Y-32829358D01*
X8298720Y-32789343D01*
X8295804Y-32774543D01*
X8250818Y-32684128D01*
X8185862Y-32616295D01*
X8125095Y-32582674D01*
X8106644Y-32576758D01*
X8083105Y-32571787D01*
X8051724Y-32567700D01*
X8009747Y-32564436D01*
X7954419Y-32561936D01*
X7882985Y-32560138D01*
X7792693Y-32558982D01*
X7680787Y-32558408D01*
X7544512Y-32558355D01*
X8805617Y-32558355D01*
X8809499Y-32576199D01*
X8813894Y-32603763D01*
X8817628Y-32637685D01*
X8820765Y-32680290D01*
X8823365Y-32733902D01*
X8825491Y-32800847D01*
X8827205Y-32883451D01*
X8828570Y-32984037D01*
X8829647Y-33104931D01*
X8830498Y-33248458D01*
X8831186Y-33416942D01*
X8831773Y-33612710D01*
X8832321Y-33838085D01*
X8832780Y-34044557D01*
X8833080Y-34262735D01*
X8833021Y-34473026D01*
X8832626Y-34672707D01*
X8831915Y-34859058D01*
X8830909Y-35029359D01*
X8829630Y-35180890D01*
X8828099Y-35310929D01*
X8826336Y-35416756D01*
X8824364Y-35495651D01*
X8822203Y-35544892D01*
X8820984Y-35558072D01*
X8785462Y-35719739D01*
X8729586Y-35869013D01*
X8656130Y-36001289D01*
X8567863Y-36111962D01*
X8467558Y-36196428D01*
X8420001Y-36224270D01*
X8385547Y-36241266D01*
X8351923Y-36255860D01*
X8316364Y-36268236D01*
X8276105Y-36278576D01*
X8228384Y-36287064D01*
X8170435Y-36293884D01*
X8099495Y-36299219D01*
X8012800Y-36303251D01*
X7907586Y-36306165D01*
X7781088Y-36308143D01*
X7630543Y-36309370D01*
X7453186Y-36310028D01*
X7246255Y-36310301D01*
X7122165Y-36310352D01*
X6900723Y-36310348D01*
X6710295Y-36310088D01*
X6548073Y-36309380D01*
X6411250Y-36308030D01*
X6297018Y-36305844D01*
X6202571Y-36302628D01*
X6125100Y-36298188D01*
X6061797Y-36292332D01*
X6009856Y-36284864D01*
X5966469Y-36275592D01*
X5928829Y-36264321D01*
X5894127Y-36250859D01*
X5859556Y-36235011D01*
X5831781Y-36221321D01*
X5761758Y-36174743D01*
X5687228Y-36106017D01*
X5616528Y-36024285D01*
X5557997Y-35938685D01*
X5535599Y-35896655D01*
X5513302Y-35847541D01*
X5493638Y-35798600D01*
X5476458Y-35747508D01*
X5461614Y-35691939D01*
X5448957Y-35629568D01*
X5438339Y-35558070D01*
X5429612Y-35475121D01*
X5422628Y-35378395D01*
X5417237Y-35265567D01*
X5413292Y-35134312D01*
X5410644Y-34982306D01*
X5409145Y-34807223D01*
X5408647Y-34606739D01*
X5409001Y-34378527D01*
X5410059Y-34120265D01*
X5411004Y-33943993D01*
X5412438Y-33696364D01*
X5413863Y-33480011D01*
X5415469Y-33292389D01*
X5417449Y-33130950D01*
X5419993Y-32993151D01*
X5423293Y-32876446D01*
X5427541Y-32778289D01*
X5432928Y-32696135D01*
X5439645Y-32627438D01*
X5447884Y-32569653D01*
X5457837Y-32520234D01*
X5469695Y-32476637D01*
X5483649Y-32436315D01*
X5499891Y-32396723D01*
X5518612Y-32355316D01*
X5532788Y-32324970D01*
X5612370Y-32187441D01*
X5710068Y-32077765D01*
X5828109Y-31993937D01*
X5966273Y-31934739D01*
X5987245Y-31928740D01*
X6011879Y-31923610D01*
X6042824Y-31919280D01*
X6082728Y-31915686D01*
X6134239Y-31912758D01*
X6200006Y-31910432D01*
X6282676Y-31908640D01*
X6384898Y-31907315D01*
X6509320Y-31906391D01*
X6658590Y-31905800D01*
X6835358Y-31905475D01*
X7042270Y-31905351D01*
X7131295Y-31905342D01*
X8205130Y-31905342D01*
X8205130Y-31905342D01*
G36*
X4653865Y-32378844D02*
X4755330Y-32419110D01*
X4866868Y-32479747D01*
X4960558Y-32566644D01*
X5037431Y-32681110D01*
X5057225Y-32727558D01*
X3884993Y-32727558D01*
X3828181Y-32749715D01*
X3783545Y-32795721D01*
X3768194Y-32828096D01*
X3759216Y-32894090D01*
X3776620Y-32950114D01*
X3813701Y-32993225D01*
X3863760Y-33020483D01*
X3920093Y-33028946D01*
X3975998Y-33015675D01*
X4024774Y-32977728D01*
X4044083Y-32949158D01*
X4065406Y-32900452D01*
X4065786Y-32860045D01*
X4045324Y-32810547D01*
X4044902Y-32809731D01*
X4001712Y-32757011D01*
X3945623Y-32729805D01*
X3884993Y-32727558D01*
X5057225Y-32727558D01*
X5098520Y-32824455D01*
X5114161Y-32874097D01*
X5120003Y-32897026D01*
X5125021Y-32924739D01*
X5129286Y-32959887D01*
X5132870Y-33005123D01*
X5135844Y-33063100D01*
X5138280Y-33136469D01*
X5140250Y-33227884D01*
X5141826Y-33339996D01*
X5143079Y-33475459D01*
X5144081Y-33636925D01*
X5144904Y-33827045D01*
X5145583Y-34036101D01*
X5146027Y-34224239D01*
X5146248Y-34403372D01*
X5146256Y-34570464D01*
X5146060Y-34722479D01*
X5145670Y-34856380D01*
X5145095Y-34969132D01*
X5144344Y-35057698D01*
X5143427Y-35119041D01*
X5142353Y-35150125D01*
X5142151Y-35152213D01*
X5110038Y-35329623D01*
X5062537Y-35477846D01*
X4998540Y-35598352D01*
X4916942Y-35692611D01*
X4816635Y-35762096D01*
X4696512Y-35808277D01*
X4638607Y-35821315D01*
X4595617Y-35825750D01*
X4520418Y-35829299D01*
X4414615Y-35831940D01*
X4279808Y-35833651D01*
X4117602Y-35834413D01*
X3929597Y-35834202D01*
X3744617Y-35833200D01*
X3548529Y-35831765D01*
X3383128Y-35830219D01*
X3245284Y-35828135D01*
X3131863Y-35825085D01*
X3039733Y-35820640D01*
X2965763Y-35814374D01*
X2906820Y-35805858D01*
X2859772Y-35794665D01*
X2821487Y-35780367D01*
X2788833Y-35762535D01*
X2758677Y-35740743D01*
X2727888Y-35714562D01*
X2701285Y-35690700D01*
X2618351Y-35597909D01*
X2553888Y-35484257D01*
X2507235Y-35347626D01*
X2477729Y-35185902D01*
X2464711Y-34996965D01*
X2463919Y-34930885D01*
X2463919Y-34720988D01*
X2869455Y-34720988D01*
X3274992Y-34720988D01*
X3285144Y-34767493D01*
X3322061Y-34872092D01*
X3381161Y-34952597D01*
X3460992Y-35007332D01*
X3507697Y-35024365D01*
X3543838Y-35029751D01*
X3607641Y-35034485D01*
X3692950Y-35038304D01*
X3793609Y-35040947D01*
X3903460Y-35042152D01*
X3927609Y-35042199D01*
X4046542Y-35042082D01*
X4136961Y-35041325D01*
X4204171Y-35039420D01*
X4253480Y-35035863D01*
X4290194Y-35030147D01*
X4319620Y-35021768D01*
X4347065Y-35010219D01*
X4367289Y-35000305D01*
X4430920Y-34959271D01*
X4482984Y-34909463D01*
X4493213Y-34895851D01*
X4508008Y-34872853D01*
X4518875Y-34850357D01*
X4526418Y-34822929D01*
X4531245Y-34785135D01*
X4533961Y-34731543D01*
X4535171Y-34656718D01*
X4535482Y-34555227D01*
X4535490Y-34516640D01*
X4535490Y-34199893D01*
X4483555Y-34134908D01*
X4453013Y-34098341D01*
X4423723Y-34069758D01*
X4391168Y-34048177D01*
X4350831Y-34032616D01*
X4298192Y-34022094D01*
X4228735Y-34015630D01*
X4137941Y-34012242D01*
X4021294Y-34010948D01*
X3912093Y-34010761D01*
X3784447Y-34010889D01*
X3685918Y-34011544D01*
X3611802Y-34013103D01*
X3557394Y-34015946D01*
X3517991Y-34020448D01*
X3488889Y-34026990D01*
X3465382Y-34035948D01*
X3442768Y-34047701D01*
X3441161Y-34048603D01*
X3378453Y-34099699D01*
X3325007Y-34172374D01*
X3289466Y-34254391D01*
X3285770Y-34268625D01*
X3274992Y-34315129D01*
X2869455Y-34315129D01*
X2463919Y-34315129D01*
X2463919Y-33690918D01*
X2464302Y-33503060D01*
X2465708Y-33345248D01*
X2468519Y-33213714D01*
X2473118Y-33104689D01*
X2479888Y-33014403D01*
X2489211Y-32939088D01*
X2501470Y-32874974D01*
X2517049Y-32818293D01*
X2536329Y-32765276D01*
X2559693Y-32712153D01*
X2564308Y-32702401D01*
X2638206Y-32584566D01*
X2735209Y-32490822D01*
X2853348Y-32423037D01*
X2862695Y-32419177D01*
X2962787Y-32378844D01*
X3808326Y-32378844D01*
X4653865Y-32378844D01*
X4653865Y-32378844D01*
X4653865Y-32378844D01*
G37*
X4653865Y-32378844D02*
X4755330Y-32419110D01*
X4866868Y-32479747D01*
X4960558Y-32566644D01*
X5037431Y-32681110D01*
X5057225Y-32727558D01*
X3884993Y-32727558D01*
X3828181Y-32749715D01*
X3783545Y-32795721D01*
X3768194Y-32828096D01*
X3759216Y-32894090D01*
X3776620Y-32950114D01*
X3813701Y-32993225D01*
X3863760Y-33020483D01*
X3920093Y-33028946D01*
X3975998Y-33015675D01*
X4024774Y-32977728D01*
X4044083Y-32949158D01*
X4065406Y-32900452D01*
X4065786Y-32860045D01*
X4045324Y-32810547D01*
X4044902Y-32809731D01*
X4001712Y-32757011D01*
X3945623Y-32729805D01*
X3884993Y-32727558D01*
X5057225Y-32727558D01*
X5098520Y-32824455D01*
X5114161Y-32874097D01*
X5120003Y-32897026D01*
X5125021Y-32924739D01*
X5129286Y-32959887D01*
X5132870Y-33005123D01*
X5135844Y-33063100D01*
X5138280Y-33136469D01*
X5140250Y-33227884D01*
X5141826Y-33339996D01*
X5143079Y-33475459D01*
X5144081Y-33636925D01*
X5144904Y-33827045D01*
X5145583Y-34036101D01*
X5146027Y-34224239D01*
X5146248Y-34403372D01*
X5146256Y-34570464D01*
X5146060Y-34722479D01*
X5145670Y-34856380D01*
X5145095Y-34969132D01*
X5144344Y-35057698D01*
X5143427Y-35119041D01*
X5142353Y-35150125D01*
X5142151Y-35152213D01*
X5110038Y-35329623D01*
X5062537Y-35477846D01*
X4998540Y-35598352D01*
X4916942Y-35692611D01*
X4816635Y-35762096D01*
X4696512Y-35808277D01*
X4638607Y-35821315D01*
X4595617Y-35825750D01*
X4520418Y-35829299D01*
X4414615Y-35831940D01*
X4279808Y-35833651D01*
X4117602Y-35834413D01*
X3929597Y-35834202D01*
X3744617Y-35833200D01*
X3548529Y-35831765D01*
X3383128Y-35830219D01*
X3245284Y-35828135D01*
X3131863Y-35825085D01*
X3039733Y-35820640D01*
X2965763Y-35814374D01*
X2906820Y-35805858D01*
X2859772Y-35794665D01*
X2821487Y-35780367D01*
X2788833Y-35762535D01*
X2758677Y-35740743D01*
X2727888Y-35714562D01*
X2701285Y-35690700D01*
X2618351Y-35597909D01*
X2553888Y-35484257D01*
X2507235Y-35347626D01*
X2477729Y-35185902D01*
X2464711Y-34996965D01*
X2463919Y-34930885D01*
X2463919Y-34720988D01*
X2869455Y-34720988D01*
X3274992Y-34720988D01*
X3285144Y-34767493D01*
X3322061Y-34872092D01*
X3381161Y-34952597D01*
X3460992Y-35007332D01*
X3507697Y-35024365D01*
X3543838Y-35029751D01*
X3607641Y-35034485D01*
X3692950Y-35038304D01*
X3793609Y-35040947D01*
X3903460Y-35042152D01*
X3927609Y-35042199D01*
X4046542Y-35042082D01*
X4136961Y-35041325D01*
X4204171Y-35039420D01*
X4253480Y-35035863D01*
X4290194Y-35030147D01*
X4319620Y-35021768D01*
X4347065Y-35010219D01*
X4367289Y-35000305D01*
X4430920Y-34959271D01*
X4482984Y-34909463D01*
X4493213Y-34895851D01*
X4508008Y-34872853D01*
X4518875Y-34850357D01*
X4526418Y-34822929D01*
X4531245Y-34785135D01*
X4533961Y-34731543D01*
X4535171Y-34656718D01*
X4535482Y-34555227D01*
X4535490Y-34516640D01*
X4535490Y-34199893D01*
X4483555Y-34134908D01*
X4453013Y-34098341D01*
X4423723Y-34069758D01*
X4391168Y-34048177D01*
X4350831Y-34032616D01*
X4298192Y-34022094D01*
X4228735Y-34015630D01*
X4137941Y-34012242D01*
X4021294Y-34010948D01*
X3912093Y-34010761D01*
X3784447Y-34010889D01*
X3685918Y-34011544D01*
X3611802Y-34013103D01*
X3557394Y-34015946D01*
X3517991Y-34020448D01*
X3488889Y-34026990D01*
X3465382Y-34035948D01*
X3442768Y-34047701D01*
X3441161Y-34048603D01*
X3378453Y-34099699D01*
X3325007Y-34172374D01*
X3289466Y-34254391D01*
X3285770Y-34268625D01*
X3274992Y-34315129D01*
X2869455Y-34315129D01*
X2463919Y-34315129D01*
X2463919Y-33690918D01*
X2464302Y-33503060D01*
X2465708Y-33345248D01*
X2468519Y-33213714D01*
X2473118Y-33104689D01*
X2479888Y-33014403D01*
X2489211Y-32939088D01*
X2501470Y-32874974D01*
X2517049Y-32818293D01*
X2536329Y-32765276D01*
X2559693Y-32712153D01*
X2564308Y-32702401D01*
X2638206Y-32584566D01*
X2735209Y-32490822D01*
X2853348Y-32423037D01*
X2862695Y-32419177D01*
X2962787Y-32378844D01*
X3808326Y-32378844D01*
X4653865Y-32378844D01*
X4653865Y-32378844D01*
G36*
X7143649Y-34162932D02*
X7327293Y-34162982D01*
X7480156Y-34163213D01*
X7605277Y-34163748D01*
X7705697Y-34164709D01*
X7784455Y-34166218D01*
X7844592Y-34168397D01*
X7889147Y-34171369D01*
X7921160Y-34175256D01*
X7943672Y-34180180D01*
X7959722Y-34186264D01*
X7972350Y-34193629D01*
X7976367Y-34196421D01*
X8019510Y-34235438D01*
X8049247Y-34284701D01*
X8067503Y-34350379D01*
X8076207Y-34438641D01*
X8077638Y-34520614D01*
X8074695Y-34617509D01*
X8067104Y-34694345D01*
X8055534Y-34744655D01*
X8054128Y-34748109D01*
X8024735Y-34793004D01*
X7982070Y-34835384D01*
X7974463Y-34841118D01*
X7917647Y-34881640D01*
X7147470Y-34881640D01*
X6959326Y-34881655D01*
X6801990Y-34881441D01*
X6672450Y-34880612D01*
X6567692Y-34878780D01*
X6484705Y-34875560D01*
X6420475Y-34870563D01*
X6371989Y-34863404D01*
X6336235Y-34853696D01*
X6310199Y-34841051D01*
X6290870Y-34825084D01*
X6275233Y-34805407D01*
X6260277Y-34781633D01*
X6251190Y-34766574D01*
X6236202Y-34736533D01*
X6226444Y-34700189D01*
X6220889Y-34649905D01*
X6218509Y-34578048D01*
X6218176Y-34521447D01*
X6220157Y-34418543D01*
X6227509Y-34342492D01*
X6242228Y-34286494D01*
X6266311Y-34243749D01*
X6301754Y-34207456D01*
X6313065Y-34198247D01*
X6324345Y-34190006D01*
X6337372Y-34183158D01*
X6355178Y-34177574D01*
X6380795Y-34173126D01*
X6417255Y-34169683D01*
X6467590Y-34167118D01*
X6534831Y-34165302D01*
X6622011Y-34164104D01*
X6732160Y-34163398D01*
X6868311Y-34163053D01*
X7033496Y-34162941D01*
X7143649Y-34162932D01*
X7143649Y-34162932D01*
X7143649Y-34162932D01*
G37*
X7143649Y-34162932D02*
X7327293Y-34162982D01*
X7480156Y-34163213D01*
X7605277Y-34163748D01*
X7705697Y-34164709D01*
X7784455Y-34166218D01*
X7844592Y-34168397D01*
X7889147Y-34171369D01*
X7921160Y-34175256D01*
X7943672Y-34180180D01*
X7959722Y-34186264D01*
X7972350Y-34193629D01*
X7976367Y-34196421D01*
X8019510Y-34235438D01*
X8049247Y-34284701D01*
X8067503Y-34350379D01*
X8076207Y-34438641D01*
X8077638Y-34520614D01*
X8074695Y-34617509D01*
X8067104Y-34694345D01*
X8055534Y-34744655D01*
X8054128Y-34748109D01*
X8024735Y-34793004D01*
X7982070Y-34835384D01*
X7974463Y-34841118D01*
X7917647Y-34881640D01*
X7147470Y-34881640D01*
X6959326Y-34881655D01*
X6801990Y-34881441D01*
X6672450Y-34880612D01*
X6567692Y-34878780D01*
X6484705Y-34875560D01*
X6420475Y-34870563D01*
X6371989Y-34863404D01*
X6336235Y-34853696D01*
X6310199Y-34841051D01*
X6290870Y-34825084D01*
X6275233Y-34805407D01*
X6260277Y-34781633D01*
X6251190Y-34766574D01*
X6236202Y-34736533D01*
X6226444Y-34700189D01*
X6220889Y-34649905D01*
X6218509Y-34578048D01*
X6218176Y-34521447D01*
X6220157Y-34418543D01*
X6227509Y-34342492D01*
X6242228Y-34286494D01*
X6266311Y-34243749D01*
X6301754Y-34207456D01*
X6313065Y-34198247D01*
X6324345Y-34190006D01*
X6337372Y-34183158D01*
X6355178Y-34177574D01*
X6380795Y-34173126D01*
X6417255Y-34169683D01*
X6467590Y-34167118D01*
X6534831Y-34165302D01*
X6622011Y-34164104D01*
X6732160Y-34163398D01*
X6868311Y-34163053D01*
X7033496Y-34162941D01*
X7143649Y-34162932D01*
X7143649Y-34162932D01*
D11*
X6172143Y-13627000D02*
X6208429Y-13663286D01*
X6244714Y-13772143D01*
X6244714Y-13844714D01*
X6208429Y-13953571D01*
X6135857Y-14026143D01*
X6063286Y-14062428D01*
X5918143Y-14098714D01*
X5809286Y-14098714D01*
X5664143Y-14062428D01*
X5591571Y-14026143D01*
X5519000Y-13953571D01*
X5482714Y-13844714D01*
X5482714Y-13772143D01*
X5519000Y-13663286D01*
X5555286Y-13627000D01*
X6244714Y-12901286D02*
X6244714Y-13336714D01*
X6244714Y-13119000D02*
X5482714Y-13119000D01*
X5591571Y-13191571D01*
X5664143Y-13264143D01*
X5700429Y-13336714D01*
D24*
X7253960Y-19432229D02*
X7232189Y-19456419D01*
X7166875Y-19480610D01*
X7123332Y-19480610D01*
X7058017Y-19456419D01*
X7014475Y-19408038D01*
X6992703Y-19359657D01*
X6970932Y-19262895D01*
X6970932Y-19190324D01*
X6992703Y-19093562D01*
X7014475Y-19045181D01*
X7058017Y-18996800D01*
X7123332Y-18972610D01*
X7166875Y-18972610D01*
X7232189Y-18996800D01*
X7253960Y-19020990D01*
X7428132Y-19020990D02*
X7449903Y-18996800D01*
X7493446Y-18972610D01*
X7602303Y-18972610D01*
X7645846Y-18996800D01*
X7667617Y-19020990D01*
X7689389Y-19069371D01*
X7689389Y-19117752D01*
X7667617Y-19190324D01*
X7406360Y-19480610D01*
X7689389Y-19480610D01*
D11*
X18703160Y-20522943D02*
X18666874Y-20559229D01*
X18558017Y-20595514D01*
X18485446Y-20595514D01*
X18376589Y-20559229D01*
X18304017Y-20486657D01*
X18267732Y-20414086D01*
X18231446Y-20268943D01*
X18231446Y-20160086D01*
X18267732Y-20014943D01*
X18304017Y-19942371D01*
X18376589Y-19869800D01*
X18485446Y-19833514D01*
X18558017Y-19833514D01*
X18666874Y-19869800D01*
X18703160Y-19906086D01*
X18957160Y-19833514D02*
X19428874Y-19833514D01*
X19174874Y-20123800D01*
X19283732Y-20123800D01*
X19356303Y-20160086D01*
X19392589Y-20196371D01*
X19428874Y-20268943D01*
X19428874Y-20450371D01*
X19392589Y-20522943D01*
X19356303Y-20559229D01*
X19283732Y-20595514D01*
X19066017Y-20595514D01*
X18993446Y-20559229D01*
X18957160Y-20522943D01*
D24*
X22753960Y-29132229D02*
X22732189Y-29156419D01*
X22666875Y-29180610D01*
X22623332Y-29180610D01*
X22558017Y-29156419D01*
X22514475Y-29108038D01*
X22492703Y-29059657D01*
X22470932Y-28962895D01*
X22470932Y-28890324D01*
X22492703Y-28793562D01*
X22514475Y-28745181D01*
X22558017Y-28696800D01*
X22623332Y-28672610D01*
X22666875Y-28672610D01*
X22732189Y-28696800D01*
X22753960Y-28720990D01*
X23145846Y-28841943D02*
X23145846Y-29180610D01*
X23036989Y-28648419D02*
X22928132Y-29011276D01*
X23211160Y-29011276D01*
X29923800Y-5781429D02*
X29902029Y-5805619D01*
X29836715Y-5829810D01*
X29793172Y-5829810D01*
X29727857Y-5805619D01*
X29684315Y-5757238D01*
X29662543Y-5708857D01*
X29640772Y-5612095D01*
X29640772Y-5539524D01*
X29662543Y-5442762D01*
X29684315Y-5394381D01*
X29727857Y-5346000D01*
X29793172Y-5321810D01*
X29836715Y-5321810D01*
X29902029Y-5346000D01*
X29923800Y-5370190D01*
X30315686Y-5321810D02*
X30228600Y-5321810D01*
X30185057Y-5346000D01*
X30163286Y-5370190D01*
X30119743Y-5442762D01*
X30097972Y-5539524D01*
X30097972Y-5733048D01*
X30119743Y-5781429D01*
X30141515Y-5805619D01*
X30185057Y-5829810D01*
X30272143Y-5829810D01*
X30315686Y-5805619D01*
X30337457Y-5781429D01*
X30359229Y-5733048D01*
X30359229Y-5612095D01*
X30337457Y-5563714D01*
X30315686Y-5539524D01*
X30272143Y-5515333D01*
X30185057Y-5515333D01*
X30141515Y-5539524D01*
X30119743Y-5563714D01*
X30097972Y-5612095D01*
D11*
X21059360Y-33586043D02*
X21023074Y-33622329D01*
X20914217Y-33658614D01*
X20841646Y-33658614D01*
X20732789Y-33622329D01*
X20660217Y-33549757D01*
X20623932Y-33477186D01*
X20587646Y-33332043D01*
X20587646Y-33223186D01*
X20623932Y-33078043D01*
X20660217Y-33005471D01*
X20732789Y-32932900D01*
X20841646Y-32896614D01*
X20914217Y-32896614D01*
X21023074Y-32932900D01*
X21059360Y-32969186D01*
X21313360Y-32896614D02*
X21821360Y-32896614D01*
X21494789Y-33658614D01*
D24*
X14655800Y-26470429D02*
X14634029Y-26494619D01*
X14568715Y-26518810D01*
X14525172Y-26518810D01*
X14459857Y-26494619D01*
X14416315Y-26446238D01*
X14394543Y-26397857D01*
X14372772Y-26301095D01*
X14372772Y-26228524D01*
X14394543Y-26131762D01*
X14416315Y-26083381D01*
X14459857Y-26035000D01*
X14525172Y-26010810D01*
X14568715Y-26010810D01*
X14634029Y-26035000D01*
X14655800Y-26059190D01*
X14917057Y-26228524D02*
X14873515Y-26204333D01*
X14851743Y-26180143D01*
X14829972Y-26131762D01*
X14829972Y-26107571D01*
X14851743Y-26059190D01*
X14873515Y-26035000D01*
X14917057Y-26010810D01*
X15004143Y-26010810D01*
X15047686Y-26035000D01*
X15069457Y-26059190D01*
X15091229Y-26107571D01*
X15091229Y-26131762D01*
X15069457Y-26180143D01*
X15047686Y-26204333D01*
X15004143Y-26228524D01*
X14917057Y-26228524D01*
X14873515Y-26252714D01*
X14851743Y-26276905D01*
X14829972Y-26325286D01*
X14829972Y-26422048D01*
X14851743Y-26470429D01*
X14873515Y-26494619D01*
X14917057Y-26518810D01*
X15004143Y-26518810D01*
X15047686Y-26494619D01*
X15069457Y-26470429D01*
X15091229Y-26422048D01*
X15091229Y-26325286D01*
X15069457Y-26276905D01*
X15047686Y-26252714D01*
X15004143Y-26228524D01*
X65706229Y-29298800D02*
X65730419Y-29320571D01*
X65754610Y-29385885D01*
X65754610Y-29429428D01*
X65730419Y-29494743D01*
X65682038Y-29538285D01*
X65633657Y-29560057D01*
X65536895Y-29581828D01*
X65464324Y-29581828D01*
X65367562Y-29560057D01*
X65319181Y-29538285D01*
X65270800Y-29494743D01*
X65246610Y-29429428D01*
X65246610Y-29385885D01*
X65270800Y-29320571D01*
X65294990Y-29298800D01*
X65754610Y-29081085D02*
X65754610Y-28994000D01*
X65730419Y-28950457D01*
X65706229Y-28928685D01*
X65633657Y-28885143D01*
X65536895Y-28863371D01*
X65343371Y-28863371D01*
X65294990Y-28885143D01*
X65270800Y-28906914D01*
X65246610Y-28950457D01*
X65246610Y-29037543D01*
X65270800Y-29081085D01*
X65294990Y-29102857D01*
X65343371Y-29124628D01*
X65464324Y-29124628D01*
X65512705Y-29102857D01*
X65536895Y-29081085D01*
X65561086Y-29037543D01*
X65561086Y-28950457D01*
X65536895Y-28906914D01*
X65512705Y-28885143D01*
X65464324Y-28863371D01*
X51056085Y-26831429D02*
X51034314Y-26855619D01*
X50969000Y-26879810D01*
X50925457Y-26879810D01*
X50860142Y-26855619D01*
X50816600Y-26807238D01*
X50794828Y-26758857D01*
X50773057Y-26662095D01*
X50773057Y-26589524D01*
X50794828Y-26492762D01*
X50816600Y-26444381D01*
X50860142Y-26396000D01*
X50925457Y-26371810D01*
X50969000Y-26371810D01*
X51034314Y-26396000D01*
X51056085Y-26420190D01*
X51491514Y-26879810D02*
X51230257Y-26879810D01*
X51360885Y-26879810D02*
X51360885Y-26371810D01*
X51317342Y-26444381D01*
X51273800Y-26492762D01*
X51230257Y-26516952D01*
X51774543Y-26371810D02*
X51818086Y-26371810D01*
X51861629Y-26396000D01*
X51883400Y-26420190D01*
X51905171Y-26468571D01*
X51926943Y-26565333D01*
X51926943Y-26686286D01*
X51905171Y-26783048D01*
X51883400Y-26831429D01*
X51861629Y-26855619D01*
X51818086Y-26879810D01*
X51774543Y-26879810D01*
X51731000Y-26855619D01*
X51709229Y-26831429D01*
X51687457Y-26783048D01*
X51665686Y-26686286D01*
X51665686Y-26565333D01*
X51687457Y-26468571D01*
X51709229Y-26420190D01*
X51731000Y-26396000D01*
X51774543Y-26371810D01*
X43089285Y-32490229D02*
X43067514Y-32514419D01*
X43002200Y-32538610D01*
X42958657Y-32538610D01*
X42893342Y-32514419D01*
X42849800Y-32466038D01*
X42828028Y-32417657D01*
X42806257Y-32320895D01*
X42806257Y-32248324D01*
X42828028Y-32151562D01*
X42849800Y-32103181D01*
X42893342Y-32054800D01*
X42958657Y-32030610D01*
X43002200Y-32030610D01*
X43067514Y-32054800D01*
X43089285Y-32078990D01*
X43524714Y-32538610D02*
X43263457Y-32538610D01*
X43394085Y-32538610D02*
X43394085Y-32030610D01*
X43350542Y-32103181D01*
X43307000Y-32151562D01*
X43263457Y-32175752D01*
X43960143Y-32538610D02*
X43698886Y-32538610D01*
X43829514Y-32538610D02*
X43829514Y-32030610D01*
X43785971Y-32103181D01*
X43742429Y-32151562D01*
X43698886Y-32175752D01*
X47331085Y-32464829D02*
X47309314Y-32489019D01*
X47244000Y-32513210D01*
X47200457Y-32513210D01*
X47135142Y-32489019D01*
X47091600Y-32440638D01*
X47069828Y-32392257D01*
X47048057Y-32295495D01*
X47048057Y-32222924D01*
X47069828Y-32126162D01*
X47091600Y-32077781D01*
X47135142Y-32029400D01*
X47200457Y-32005210D01*
X47244000Y-32005210D01*
X47309314Y-32029400D01*
X47331085Y-32053590D01*
X47766514Y-32513210D02*
X47505257Y-32513210D01*
X47635885Y-32513210D02*
X47635885Y-32005210D01*
X47592342Y-32077781D01*
X47548800Y-32126162D01*
X47505257Y-32150352D01*
X47940686Y-32053590D02*
X47962457Y-32029400D01*
X48006000Y-32005210D01*
X48114857Y-32005210D01*
X48158400Y-32029400D01*
X48180171Y-32053590D01*
X48201943Y-32101971D01*
X48201943Y-32150352D01*
X48180171Y-32222924D01*
X47918914Y-32513210D01*
X48201943Y-32513210D01*
X51506085Y-32681429D02*
X51484314Y-32705619D01*
X51419000Y-32729810D01*
X51375457Y-32729810D01*
X51310142Y-32705619D01*
X51266600Y-32657238D01*
X51244828Y-32608857D01*
X51223057Y-32512095D01*
X51223057Y-32439524D01*
X51244828Y-32342762D01*
X51266600Y-32294381D01*
X51310142Y-32246000D01*
X51375457Y-32221810D01*
X51419000Y-32221810D01*
X51484314Y-32246000D01*
X51506085Y-32270190D01*
X51941514Y-32729810D02*
X51680257Y-32729810D01*
X51810885Y-32729810D02*
X51810885Y-32221810D01*
X51767342Y-32294381D01*
X51723800Y-32342762D01*
X51680257Y-32366952D01*
X52093914Y-32221810D02*
X52376943Y-32221810D01*
X52224543Y-32415333D01*
X52289857Y-32415333D01*
X52333400Y-32439524D01*
X52355171Y-32463714D01*
X52376943Y-32512095D01*
X52376943Y-32633048D01*
X52355171Y-32681429D01*
X52333400Y-32705619D01*
X52289857Y-32729810D01*
X52159229Y-32729810D01*
X52115686Y-32705619D01*
X52093914Y-32681429D01*
X57064729Y-26401915D02*
X57088919Y-26423686D01*
X57113110Y-26489000D01*
X57113110Y-26532543D01*
X57088919Y-26597858D01*
X57040538Y-26641400D01*
X56992157Y-26663172D01*
X56895395Y-26684943D01*
X56822824Y-26684943D01*
X56726062Y-26663172D01*
X56677681Y-26641400D01*
X56629300Y-26597858D01*
X56605110Y-26532543D01*
X56605110Y-26489000D01*
X56629300Y-26423686D01*
X56653490Y-26401915D01*
X57113110Y-25966486D02*
X57113110Y-26227743D01*
X57113110Y-26097115D02*
X56605110Y-26097115D01*
X56677681Y-26140658D01*
X56726062Y-26184200D01*
X56750252Y-26227743D01*
X56774443Y-25574600D02*
X57113110Y-25574600D01*
X56580919Y-25683457D02*
X56943776Y-25792314D01*
X56943776Y-25509286D01*
X72530885Y-23104029D02*
X72509114Y-23128219D01*
X72443800Y-23152410D01*
X72400257Y-23152410D01*
X72334942Y-23128219D01*
X72291400Y-23079838D01*
X72269628Y-23031457D01*
X72247857Y-22934695D01*
X72247857Y-22862124D01*
X72269628Y-22765362D01*
X72291400Y-22716981D01*
X72334942Y-22668600D01*
X72400257Y-22644410D01*
X72443800Y-22644410D01*
X72509114Y-22668600D01*
X72530885Y-22692790D01*
X72966314Y-23152410D02*
X72705057Y-23152410D01*
X72835685Y-23152410D02*
X72835685Y-22644410D01*
X72792142Y-22716981D01*
X72748600Y-22765362D01*
X72705057Y-22789552D01*
X73379971Y-22644410D02*
X73162257Y-22644410D01*
X73140486Y-22886314D01*
X73162257Y-22862124D01*
X73205800Y-22837933D01*
X73314657Y-22837933D01*
X73358200Y-22862124D01*
X73379971Y-22886314D01*
X73401743Y-22934695D01*
X73401743Y-23055648D01*
X73379971Y-23104029D01*
X73358200Y-23128219D01*
X73314657Y-23152410D01*
X73205800Y-23152410D01*
X73162257Y-23128219D01*
X73140486Y-23104029D01*
D11*
X26254528Y-8421914D02*
X26254528Y-7659914D01*
X26454100Y-7659914D01*
X26573843Y-7696200D01*
X26653671Y-7768771D01*
X26693586Y-7841343D01*
X26733500Y-7986486D01*
X26733500Y-8095343D01*
X26693586Y-8240486D01*
X26653671Y-8313057D01*
X26573843Y-8385629D01*
X26454100Y-8421914D01*
X26254528Y-8421914D01*
X27531786Y-8421914D02*
X27052814Y-8421914D01*
X27292300Y-8421914D02*
X27292300Y-7659914D01*
X27212471Y-7768771D01*
X27132643Y-7841343D01*
X27052814Y-7877629D01*
X52437572Y-13244714D02*
X52437572Y-12482714D01*
X52619000Y-12482714D01*
X52727857Y-12519000D01*
X52800429Y-12591571D01*
X52836714Y-12664143D01*
X52873000Y-12809286D01*
X52873000Y-12918143D01*
X52836714Y-13063286D01*
X52800429Y-13135857D01*
X52727857Y-13208429D01*
X52619000Y-13244714D01*
X52437572Y-13244714D01*
X53163286Y-12555286D02*
X53199572Y-12519000D01*
X53272143Y-12482714D01*
X53453572Y-12482714D01*
X53526143Y-12519000D01*
X53562429Y-12555286D01*
X53598714Y-12627857D01*
X53598714Y-12700429D01*
X53562429Y-12809286D01*
X53127000Y-13244714D01*
X53598714Y-13244714D01*
X57244714Y-17862428D02*
X56482714Y-17862428D01*
X56482714Y-17681000D01*
X56519000Y-17572143D01*
X56591571Y-17499571D01*
X56664143Y-17463286D01*
X56809286Y-17427000D01*
X56918143Y-17427000D01*
X57063286Y-17463286D01*
X57135857Y-17499571D01*
X57208429Y-17572143D01*
X57244714Y-17681000D01*
X57244714Y-17862428D01*
X56482714Y-17173000D02*
X56482714Y-16701286D01*
X56773000Y-16955286D01*
X56773000Y-16846428D01*
X56809286Y-16773857D01*
X56845571Y-16737571D01*
X56918143Y-16701286D01*
X57099571Y-16701286D01*
X57172143Y-16737571D01*
X57208429Y-16773857D01*
X57244714Y-16846428D01*
X57244714Y-17064143D01*
X57208429Y-17136714D01*
X57172143Y-17173000D01*
X65496001Y-11082714D02*
X65496001Y-11627000D01*
X65459715Y-11735857D01*
X65387144Y-11808429D01*
X65278287Y-11844714D01*
X65205715Y-11844714D01*
X66258000Y-11844714D02*
X65822572Y-11844714D01*
X66040286Y-11844714D02*
X66040286Y-11082714D01*
X65967715Y-11191571D01*
X65895143Y-11264143D01*
X65822572Y-11300429D01*
X29996001Y-11082714D02*
X29996001Y-11627000D01*
X29959715Y-11735857D01*
X29887144Y-11808429D01*
X29778287Y-11844714D01*
X29705715Y-11844714D01*
X30322572Y-11155286D02*
X30358858Y-11119000D01*
X30431429Y-11082714D01*
X30612858Y-11082714D01*
X30685429Y-11119000D01*
X30721715Y-11155286D01*
X30758000Y-11227857D01*
X30758000Y-11300429D01*
X30721715Y-11409286D01*
X30286286Y-11844714D01*
X30758000Y-11844714D01*
X75062372Y-20567314D02*
X75062372Y-19805314D01*
X75352657Y-19805314D01*
X75425229Y-19841600D01*
X75461514Y-19877886D01*
X75497800Y-19950457D01*
X75497800Y-20059314D01*
X75461514Y-20131886D01*
X75425229Y-20168171D01*
X75352657Y-20204457D01*
X75062372Y-20204457D01*
X76223514Y-20567314D02*
X75788086Y-20567314D01*
X76005800Y-20567314D02*
X76005800Y-19805314D01*
X75933229Y-19914171D01*
X75860657Y-19986743D01*
X75788086Y-20023029D01*
X69962372Y-39367314D02*
X69962372Y-38605314D01*
X70252657Y-38605314D01*
X70325229Y-38641600D01*
X70361514Y-38677886D01*
X70397800Y-38750457D01*
X70397800Y-38859314D01*
X70361514Y-38931886D01*
X70325229Y-38968171D01*
X70252657Y-39004457D01*
X69962372Y-39004457D01*
X70651800Y-38605314D02*
X71123514Y-38605314D01*
X70869514Y-38895600D01*
X70978372Y-38895600D01*
X71050943Y-38931886D01*
X71087229Y-38968171D01*
X71123514Y-39040743D01*
X71123514Y-39222171D01*
X71087229Y-39294743D01*
X71050943Y-39331029D01*
X70978372Y-39367314D01*
X70760657Y-39367314D01*
X70688086Y-39331029D01*
X70651800Y-39294743D01*
X75162372Y-27467314D02*
X75162372Y-26705314D01*
X75452657Y-26705314D01*
X75525229Y-26741600D01*
X75561514Y-26777886D01*
X75597800Y-26850457D01*
X75597800Y-26959314D01*
X75561514Y-27031886D01*
X75525229Y-27068171D01*
X75452657Y-27104457D01*
X75162372Y-27104457D01*
X76250943Y-26959314D02*
X76250943Y-27467314D01*
X76069514Y-26669029D02*
X75888086Y-27213314D01*
X76359800Y-27213314D01*
X35127429Y-14017286D02*
X35054857Y-13981000D01*
X34982286Y-13908429D01*
X34873429Y-13799571D01*
X34800857Y-13763286D01*
X34728286Y-13763286D01*
X34764571Y-13944714D02*
X34692000Y-13908429D01*
X34619429Y-13835857D01*
X34583143Y-13690714D01*
X34583143Y-13436714D01*
X34619429Y-13291571D01*
X34692000Y-13219000D01*
X34764571Y-13182714D01*
X34909714Y-13182714D01*
X34982286Y-13219000D01*
X35054857Y-13291571D01*
X35091143Y-13436714D01*
X35091143Y-13690714D01*
X35054857Y-13835857D01*
X34982286Y-13908429D01*
X34909714Y-13944714D01*
X34764571Y-13944714D01*
X35816857Y-13944714D02*
X35381429Y-13944714D01*
X35599143Y-13944714D02*
X35599143Y-13182714D01*
X35526572Y-13291571D01*
X35454000Y-13364143D01*
X35381429Y-13400429D01*
X38217929Y-19772086D02*
X38145357Y-19735800D01*
X38072786Y-19663229D01*
X37963929Y-19554371D01*
X37891357Y-19518086D01*
X37818786Y-19518086D01*
X37855071Y-19699514D02*
X37782500Y-19663229D01*
X37709929Y-19590657D01*
X37673643Y-19445514D01*
X37673643Y-19191514D01*
X37709929Y-19046371D01*
X37782500Y-18973800D01*
X37855071Y-18937514D01*
X38000214Y-18937514D01*
X38072786Y-18973800D01*
X38145357Y-19046371D01*
X38181643Y-19191514D01*
X38181643Y-19445514D01*
X38145357Y-19590657D01*
X38072786Y-19663229D01*
X38000214Y-19699514D01*
X37855071Y-19699514D01*
X38471929Y-19010086D02*
X38508215Y-18973800D01*
X38580786Y-18937514D01*
X38762215Y-18937514D01*
X38834786Y-18973800D01*
X38871072Y-19010086D01*
X38907357Y-19082657D01*
X38907357Y-19155229D01*
X38871072Y-19264086D01*
X38435643Y-19699514D01*
X38907357Y-19699514D01*
D24*
X33664810Y-18410200D02*
X33422905Y-18562600D01*
X33664810Y-18671457D02*
X33156810Y-18671457D01*
X33156810Y-18497285D01*
X33181000Y-18453743D01*
X33205190Y-18431971D01*
X33253571Y-18410200D01*
X33326143Y-18410200D01*
X33374524Y-18431971D01*
X33398714Y-18453743D01*
X33422905Y-18497285D01*
X33422905Y-18671457D01*
X33664810Y-17974771D02*
X33664810Y-18236028D01*
X33664810Y-18105400D02*
X33156810Y-18105400D01*
X33229381Y-18148943D01*
X33277762Y-18192485D01*
X33301952Y-18236028D01*
D25*
X30142604Y-16863362D02*
X29975810Y-16625086D01*
X29856672Y-16863362D02*
X29856672Y-16362982D01*
X30047293Y-16362982D01*
X30094948Y-16386810D01*
X30118776Y-16410638D01*
X30142604Y-16458293D01*
X30142604Y-16529776D01*
X30118776Y-16577431D01*
X30094948Y-16601259D01*
X30047293Y-16625086D01*
X29856672Y-16625086D01*
X30309397Y-16362982D02*
X30619156Y-16362982D01*
X30452363Y-16553603D01*
X30523845Y-16553603D01*
X30571501Y-16577431D01*
X30595328Y-16601259D01*
X30619156Y-16648914D01*
X30619156Y-16768052D01*
X30595328Y-16815707D01*
X30571501Y-16839535D01*
X30523845Y-16863362D01*
X30380880Y-16863362D01*
X30333224Y-16839535D01*
X30309397Y-16815707D01*
X37016604Y-17226362D02*
X36849810Y-16988086D01*
X36730672Y-17226362D02*
X36730672Y-16725982D01*
X36921293Y-16725982D01*
X36968948Y-16749810D01*
X36992776Y-16773638D01*
X37016604Y-16821293D01*
X37016604Y-16892776D01*
X36992776Y-16940431D01*
X36968948Y-16964259D01*
X36921293Y-16988086D01*
X36730672Y-16988086D01*
X37445501Y-16892776D02*
X37445501Y-17226362D01*
X37326363Y-16702155D02*
X37207224Y-17059569D01*
X37516984Y-17059569D01*
X48841404Y-15348962D02*
X48674610Y-15110686D01*
X48555472Y-15348962D02*
X48555472Y-14848582D01*
X48746093Y-14848582D01*
X48793748Y-14872410D01*
X48817576Y-14896238D01*
X48841404Y-14943893D01*
X48841404Y-15015376D01*
X48817576Y-15063031D01*
X48793748Y-15086859D01*
X48746093Y-15110686D01*
X48555472Y-15110686D01*
X49294128Y-14848582D02*
X49055852Y-14848582D01*
X49032024Y-15086859D01*
X49055852Y-15063031D01*
X49103507Y-15039203D01*
X49222645Y-15039203D01*
X49270301Y-15063031D01*
X49294128Y-15086859D01*
X49317956Y-15134514D01*
X49317956Y-15253652D01*
X49294128Y-15301307D01*
X49270301Y-15325135D01*
X49222645Y-15348962D01*
X49103507Y-15348962D01*
X49055852Y-15325135D01*
X49032024Y-15301307D01*
X63542004Y-14947162D02*
X63375210Y-14708886D01*
X63256072Y-14947162D02*
X63256072Y-14446782D01*
X63446693Y-14446782D01*
X63494348Y-14470610D01*
X63518176Y-14494438D01*
X63542004Y-14542093D01*
X63542004Y-14613576D01*
X63518176Y-14661231D01*
X63494348Y-14685059D01*
X63446693Y-14708886D01*
X63256072Y-14708886D01*
X63970901Y-14446782D02*
X63875590Y-14446782D01*
X63827935Y-14470610D01*
X63804107Y-14494438D01*
X63756452Y-14565920D01*
X63732624Y-14661231D01*
X63732624Y-14851852D01*
X63756452Y-14899507D01*
X63780280Y-14923335D01*
X63827935Y-14947162D01*
X63923245Y-14947162D01*
X63970901Y-14923335D01*
X63994728Y-14899507D01*
X64018556Y-14851852D01*
X64018556Y-14732714D01*
X63994728Y-14685059D01*
X63970901Y-14661231D01*
X63923245Y-14637403D01*
X63827935Y-14637403D01*
X63780280Y-14661231D01*
X63756452Y-14685059D01*
X63732624Y-14732714D01*
D24*
X63823800Y-16229810D02*
X63671400Y-15987905D01*
X63562543Y-16229810D02*
X63562543Y-15721810D01*
X63736715Y-15721810D01*
X63780257Y-15746000D01*
X63802029Y-15770190D01*
X63823800Y-15818571D01*
X63823800Y-15891143D01*
X63802029Y-15939524D01*
X63780257Y-15963714D01*
X63736715Y-15987905D01*
X63562543Y-15987905D01*
X64041515Y-16229810D02*
X64128600Y-16229810D01*
X64172143Y-16205619D01*
X64193915Y-16181429D01*
X64237457Y-16108857D01*
X64259229Y-16012095D01*
X64259229Y-15818571D01*
X64237457Y-15770190D01*
X64215686Y-15746000D01*
X64172143Y-15721810D01*
X64085057Y-15721810D01*
X64041515Y-15746000D01*
X64019743Y-15770190D01*
X63997972Y-15818571D01*
X63997972Y-15939524D01*
X64019743Y-15987905D01*
X64041515Y-16012095D01*
X64085057Y-16036286D01*
X64172143Y-16036286D01*
X64215686Y-16012095D01*
X64237457Y-15987905D01*
X64259229Y-15939524D01*
X47106085Y-19029810D02*
X46953685Y-18787905D01*
X46844828Y-19029810D02*
X46844828Y-18521810D01*
X47019000Y-18521810D01*
X47062542Y-18546000D01*
X47084314Y-18570190D01*
X47106085Y-18618571D01*
X47106085Y-18691143D01*
X47084314Y-18739524D01*
X47062542Y-18763714D01*
X47019000Y-18787905D01*
X46844828Y-18787905D01*
X47541514Y-19029810D02*
X47280257Y-19029810D01*
X47410885Y-19029810D02*
X47410885Y-18521810D01*
X47367342Y-18594381D01*
X47323800Y-18642762D01*
X47280257Y-18666952D01*
X47824543Y-18521810D02*
X47868086Y-18521810D01*
X47911629Y-18546000D01*
X47933400Y-18570190D01*
X47955171Y-18618571D01*
X47976943Y-18715333D01*
X47976943Y-18836286D01*
X47955171Y-18933048D01*
X47933400Y-18981429D01*
X47911629Y-19005619D01*
X47868086Y-19029810D01*
X47824543Y-19029810D01*
X47781000Y-19005619D01*
X47759229Y-18981429D01*
X47737457Y-18933048D01*
X47715686Y-18836286D01*
X47715686Y-18715333D01*
X47737457Y-18618571D01*
X47759229Y-18570190D01*
X47781000Y-18546000D01*
X47824543Y-18521810D01*
D25*
X23608488Y-23377162D02*
X23441694Y-23138886D01*
X23322556Y-23377162D02*
X23322556Y-22876782D01*
X23513177Y-22876782D01*
X23560832Y-22900610D01*
X23584660Y-22924438D01*
X23608488Y-22972093D01*
X23608488Y-23043576D01*
X23584660Y-23091231D01*
X23560832Y-23115059D01*
X23513177Y-23138886D01*
X23322556Y-23138886D01*
X24085040Y-23377162D02*
X23799108Y-23377162D01*
X23942074Y-23377162D02*
X23942074Y-22876782D01*
X23894419Y-22948265D01*
X23846764Y-22995920D01*
X23799108Y-23019748D01*
X24561592Y-23377162D02*
X24275660Y-23377162D01*
X24418626Y-23377162D02*
X24418626Y-22876782D01*
X24370971Y-22948265D01*
X24323316Y-22995920D01*
X24275660Y-23019748D01*
D24*
X53493610Y-22536315D02*
X53251705Y-22688715D01*
X53493610Y-22797572D02*
X52985610Y-22797572D01*
X52985610Y-22623400D01*
X53009800Y-22579858D01*
X53033990Y-22558086D01*
X53082371Y-22536315D01*
X53154943Y-22536315D01*
X53203324Y-22558086D01*
X53227514Y-22579858D01*
X53251705Y-22623400D01*
X53251705Y-22797572D01*
X53493610Y-22100886D02*
X53493610Y-22362143D01*
X53493610Y-22231515D02*
X52985610Y-22231515D01*
X53058181Y-22275058D01*
X53106562Y-22318600D01*
X53130752Y-22362143D01*
X52985610Y-21948486D02*
X52985610Y-21665457D01*
X53179133Y-21817857D01*
X53179133Y-21752543D01*
X53203324Y-21709000D01*
X53227514Y-21687229D01*
X53275895Y-21665457D01*
X53396848Y-21665457D01*
X53445229Y-21687229D01*
X53469419Y-21709000D01*
X53493610Y-21752543D01*
X53493610Y-21883171D01*
X53469419Y-21926714D01*
X53445229Y-21948486D01*
X53468210Y-20377315D02*
X53226305Y-20529715D01*
X53468210Y-20638572D02*
X52960210Y-20638572D01*
X52960210Y-20464400D01*
X52984400Y-20420858D01*
X53008590Y-20399086D01*
X53056971Y-20377315D01*
X53129543Y-20377315D01*
X53177924Y-20399086D01*
X53202114Y-20420858D01*
X53226305Y-20464400D01*
X53226305Y-20638572D01*
X53468210Y-19941886D02*
X53468210Y-20203143D01*
X53468210Y-20072515D02*
X52960210Y-20072515D01*
X53032781Y-20116058D01*
X53081162Y-20159600D01*
X53105352Y-20203143D01*
X53129543Y-19550000D02*
X53468210Y-19550000D01*
X52936019Y-19658857D02*
X53298876Y-19767714D01*
X53298876Y-19484686D01*
D25*
X25196328Y-36351362D02*
X25029534Y-36113086D01*
X24910396Y-36351362D02*
X24910396Y-35850982D01*
X25101017Y-35850982D01*
X25148672Y-35874810D01*
X25172500Y-35898638D01*
X25196328Y-35946293D01*
X25196328Y-36017776D01*
X25172500Y-36065431D01*
X25148672Y-36089259D01*
X25101017Y-36113086D01*
X24910396Y-36113086D01*
X25672880Y-36351362D02*
X25386948Y-36351362D01*
X25529914Y-36351362D02*
X25529914Y-35850982D01*
X25482259Y-35922465D01*
X25434604Y-35970120D01*
X25386948Y-35993948D01*
X26101777Y-35850982D02*
X26006466Y-35850982D01*
X25958811Y-35874810D01*
X25934983Y-35898638D01*
X25887328Y-35970120D01*
X25863500Y-36065431D01*
X25863500Y-36256052D01*
X25887328Y-36303707D01*
X25911156Y-36327535D01*
X25958811Y-36351362D01*
X26054121Y-36351362D01*
X26101777Y-36327535D01*
X26125604Y-36303707D01*
X26149432Y-36256052D01*
X26149432Y-36136914D01*
X26125604Y-36089259D01*
X26101777Y-36065431D01*
X26054121Y-36041603D01*
X25958811Y-36041603D01*
X25911156Y-36065431D01*
X25887328Y-36089259D01*
X25863500Y-36136914D01*
D24*
X71730885Y-17552410D02*
X71578485Y-17310505D01*
X71469628Y-17552410D02*
X71469628Y-17044410D01*
X71643800Y-17044410D01*
X71687342Y-17068600D01*
X71709114Y-17092790D01*
X71730885Y-17141171D01*
X71730885Y-17213743D01*
X71709114Y-17262124D01*
X71687342Y-17286314D01*
X71643800Y-17310505D01*
X71469628Y-17310505D01*
X72166314Y-17552410D02*
X71905057Y-17552410D01*
X72035685Y-17552410D02*
X72035685Y-17044410D01*
X71992142Y-17116981D01*
X71948600Y-17165362D01*
X71905057Y-17189552D01*
X72318714Y-17044410D02*
X72623514Y-17044410D01*
X72427571Y-17552410D01*
X71730885Y-12452410D02*
X71578485Y-12210505D01*
X71469628Y-12452410D02*
X71469628Y-11944410D01*
X71643800Y-11944410D01*
X71687342Y-11968600D01*
X71709114Y-11992790D01*
X71730885Y-12041171D01*
X71730885Y-12113743D01*
X71709114Y-12162124D01*
X71687342Y-12186314D01*
X71643800Y-12210505D01*
X71469628Y-12210505D01*
X72166314Y-12452410D02*
X71905057Y-12452410D01*
X72035685Y-12452410D02*
X72035685Y-11944410D01*
X71992142Y-12016981D01*
X71948600Y-12065362D01*
X71905057Y-12089552D01*
X72427571Y-12162124D02*
X72384029Y-12137933D01*
X72362257Y-12113743D01*
X72340486Y-12065362D01*
X72340486Y-12041171D01*
X72362257Y-11992790D01*
X72384029Y-11968600D01*
X72427571Y-11944410D01*
X72514657Y-11944410D01*
X72558200Y-11968600D01*
X72579971Y-11992790D01*
X72601743Y-12041171D01*
X72601743Y-12065362D01*
X72579971Y-12113743D01*
X72558200Y-12137933D01*
X72514657Y-12162124D01*
X72427571Y-12162124D01*
X72384029Y-12186314D01*
X72362257Y-12210505D01*
X72340486Y-12258886D01*
X72340486Y-12355648D01*
X72362257Y-12404029D01*
X72384029Y-12428219D01*
X72427571Y-12452410D01*
X72514657Y-12452410D01*
X72558200Y-12428219D01*
X72579971Y-12404029D01*
X72601743Y-12355648D01*
X72601743Y-12258886D01*
X72579971Y-12210505D01*
X72558200Y-12186314D01*
X72514657Y-12162124D01*
X71730885Y-15052410D02*
X71578485Y-14810505D01*
X71469628Y-15052410D02*
X71469628Y-14544410D01*
X71643800Y-14544410D01*
X71687342Y-14568600D01*
X71709114Y-14592790D01*
X71730885Y-14641171D01*
X71730885Y-14713743D01*
X71709114Y-14762124D01*
X71687342Y-14786314D01*
X71643800Y-14810505D01*
X71469628Y-14810505D01*
X72166314Y-15052410D02*
X71905057Y-15052410D01*
X72035685Y-15052410D02*
X72035685Y-14544410D01*
X71992142Y-14616981D01*
X71948600Y-14665362D01*
X71905057Y-14689552D01*
X72384029Y-15052410D02*
X72471114Y-15052410D01*
X72514657Y-15028219D01*
X72536429Y-15004029D01*
X72579971Y-14931457D01*
X72601743Y-14834695D01*
X72601743Y-14641171D01*
X72579971Y-14592790D01*
X72558200Y-14568600D01*
X72514657Y-14544410D01*
X72427571Y-14544410D01*
X72384029Y-14568600D01*
X72362257Y-14592790D01*
X72340486Y-14641171D01*
X72340486Y-14762124D01*
X72362257Y-14810505D01*
X72384029Y-14834695D01*
X72427571Y-14858886D01*
X72514657Y-14858886D01*
X72558200Y-14834695D01*
X72579971Y-14810505D01*
X72601743Y-14762124D01*
X49929810Y-31243915D02*
X49687905Y-31396315D01*
X49929810Y-31505172D02*
X49421810Y-31505172D01*
X49421810Y-31331000D01*
X49446000Y-31287458D01*
X49470190Y-31265686D01*
X49518571Y-31243915D01*
X49591143Y-31243915D01*
X49639524Y-31265686D01*
X49663714Y-31287458D01*
X49687905Y-31331000D01*
X49687905Y-31505172D01*
X49470190Y-31069743D02*
X49446000Y-31047972D01*
X49421810Y-31004429D01*
X49421810Y-30895572D01*
X49446000Y-30852029D01*
X49470190Y-30830258D01*
X49518571Y-30808486D01*
X49566952Y-30808486D01*
X49639524Y-30830258D01*
X49929810Y-31091515D01*
X49929810Y-30808486D01*
X49421810Y-30525457D02*
X49421810Y-30481914D01*
X49446000Y-30438371D01*
X49470190Y-30416600D01*
X49518571Y-30394829D01*
X49615333Y-30373057D01*
X49736286Y-30373057D01*
X49833048Y-30394829D01*
X49881429Y-30416600D01*
X49905619Y-30438371D01*
X49929810Y-30481914D01*
X49929810Y-30525457D01*
X49905619Y-30569000D01*
X49881429Y-30590771D01*
X49833048Y-30612543D01*
X49736286Y-30634314D01*
X49615333Y-30634314D01*
X49518571Y-30612543D01*
X49470190Y-30590771D01*
X49446000Y-30569000D01*
X49421810Y-30525457D01*
X49929810Y-29593915D02*
X49687905Y-29746315D01*
X49929810Y-29855172D02*
X49421810Y-29855172D01*
X49421810Y-29681000D01*
X49446000Y-29637458D01*
X49470190Y-29615686D01*
X49518571Y-29593915D01*
X49591143Y-29593915D01*
X49639524Y-29615686D01*
X49663714Y-29637458D01*
X49687905Y-29681000D01*
X49687905Y-29855172D01*
X49470190Y-29419743D02*
X49446000Y-29397972D01*
X49421810Y-29354429D01*
X49421810Y-29245572D01*
X49446000Y-29202029D01*
X49470190Y-29180258D01*
X49518571Y-29158486D01*
X49566952Y-29158486D01*
X49639524Y-29180258D01*
X49929810Y-29441515D01*
X49929810Y-29158486D01*
X49929810Y-28723057D02*
X49929810Y-28984314D01*
X49929810Y-28853686D02*
X49421810Y-28853686D01*
X49494381Y-28897229D01*
X49542762Y-28940771D01*
X49566952Y-28984314D01*
X35056085Y-27827010D02*
X34903685Y-27585105D01*
X34794828Y-27827010D02*
X34794828Y-27319010D01*
X34969000Y-27319010D01*
X35012542Y-27343200D01*
X35034314Y-27367390D01*
X35056085Y-27415771D01*
X35056085Y-27488343D01*
X35034314Y-27536724D01*
X35012542Y-27560914D01*
X34969000Y-27585105D01*
X34794828Y-27585105D01*
X35230257Y-27367390D02*
X35252028Y-27343200D01*
X35295571Y-27319010D01*
X35404428Y-27319010D01*
X35447971Y-27343200D01*
X35469742Y-27367390D01*
X35491514Y-27415771D01*
X35491514Y-27464152D01*
X35469742Y-27536724D01*
X35208485Y-27827010D01*
X35491514Y-27827010D01*
X35643914Y-27319010D02*
X35926943Y-27319010D01*
X35774543Y-27512533D01*
X35839857Y-27512533D01*
X35883400Y-27536724D01*
X35905171Y-27560914D01*
X35926943Y-27609295D01*
X35926943Y-27730248D01*
X35905171Y-27778629D01*
X35883400Y-27802819D01*
X35839857Y-27827010D01*
X35709229Y-27827010D01*
X35665686Y-27802819D01*
X35643914Y-27778629D01*
X32631085Y-27802010D02*
X32478685Y-27560105D01*
X32369828Y-27802010D02*
X32369828Y-27294010D01*
X32544000Y-27294010D01*
X32587542Y-27318200D01*
X32609314Y-27342390D01*
X32631085Y-27390771D01*
X32631085Y-27463343D01*
X32609314Y-27511724D01*
X32587542Y-27535914D01*
X32544000Y-27560105D01*
X32369828Y-27560105D01*
X32805257Y-27342390D02*
X32827028Y-27318200D01*
X32870571Y-27294010D01*
X32979428Y-27294010D01*
X33022971Y-27318200D01*
X33044742Y-27342390D01*
X33066514Y-27390771D01*
X33066514Y-27439152D01*
X33044742Y-27511724D01*
X32783485Y-27802010D01*
X33066514Y-27802010D01*
X33458400Y-27463343D02*
X33458400Y-27802010D01*
X33349543Y-27269819D02*
X33240686Y-27632676D01*
X33523714Y-27632676D01*
X30806085Y-27827010D02*
X30653685Y-27585105D01*
X30544828Y-27827010D02*
X30544828Y-27319010D01*
X30719000Y-27319010D01*
X30762542Y-27343200D01*
X30784314Y-27367390D01*
X30806085Y-27415771D01*
X30806085Y-27488343D01*
X30784314Y-27536724D01*
X30762542Y-27560914D01*
X30719000Y-27585105D01*
X30544828Y-27585105D01*
X30980257Y-27367390D02*
X31002028Y-27343200D01*
X31045571Y-27319010D01*
X31154428Y-27319010D01*
X31197971Y-27343200D01*
X31219742Y-27367390D01*
X31241514Y-27415771D01*
X31241514Y-27464152D01*
X31219742Y-27536724D01*
X30958485Y-27827010D01*
X31241514Y-27827010D01*
X31655171Y-27319010D02*
X31437457Y-27319010D01*
X31415686Y-27560914D01*
X31437457Y-27536724D01*
X31481000Y-27512533D01*
X31589857Y-27512533D01*
X31633400Y-27536724D01*
X31655171Y-27560914D01*
X31676943Y-27609295D01*
X31676943Y-27730248D01*
X31655171Y-27778629D01*
X31633400Y-27802819D01*
X31589857Y-27827010D01*
X31481000Y-27827010D01*
X31437457Y-27802819D01*
X31415686Y-27778629D01*
X69454610Y-29716515D02*
X69212705Y-29868915D01*
X69454610Y-29977772D02*
X68946610Y-29977772D01*
X68946610Y-29803600D01*
X68970800Y-29760058D01*
X68994990Y-29738286D01*
X69043371Y-29716515D01*
X69115943Y-29716515D01*
X69164324Y-29738286D01*
X69188514Y-29760058D01*
X69212705Y-29803600D01*
X69212705Y-29977772D01*
X68994990Y-29542343D02*
X68970800Y-29520572D01*
X68946610Y-29477029D01*
X68946610Y-29368172D01*
X68970800Y-29324629D01*
X68994990Y-29302858D01*
X69043371Y-29281086D01*
X69091752Y-29281086D01*
X69164324Y-29302858D01*
X69454610Y-29564115D01*
X69454610Y-29281086D01*
X68946610Y-28889200D02*
X68946610Y-28976286D01*
X68970800Y-29019829D01*
X68994990Y-29041600D01*
X69067562Y-29085143D01*
X69164324Y-29106914D01*
X69357848Y-29106914D01*
X69406229Y-29085143D01*
X69430419Y-29063371D01*
X69454610Y-29019829D01*
X69454610Y-28932743D01*
X69430419Y-28889200D01*
X69406229Y-28867429D01*
X69357848Y-28845657D01*
X69236895Y-28845657D01*
X69188514Y-28867429D01*
X69164324Y-28889200D01*
X69140133Y-28932743D01*
X69140133Y-29019829D01*
X69164324Y-29063371D01*
X69188514Y-29085143D01*
X69236895Y-29106914D01*
X70730885Y-32752410D02*
X70578485Y-32510505D01*
X70469628Y-32752410D02*
X70469628Y-32244410D01*
X70643800Y-32244410D01*
X70687342Y-32268600D01*
X70709114Y-32292790D01*
X70730885Y-32341171D01*
X70730885Y-32413743D01*
X70709114Y-32462124D01*
X70687342Y-32486314D01*
X70643800Y-32510505D01*
X70469628Y-32510505D01*
X70905057Y-32292790D02*
X70926828Y-32268600D01*
X70970371Y-32244410D01*
X71079228Y-32244410D01*
X71122771Y-32268600D01*
X71144542Y-32292790D01*
X71166314Y-32341171D01*
X71166314Y-32389552D01*
X71144542Y-32462124D01*
X70883285Y-32752410D01*
X71166314Y-32752410D01*
X71318714Y-32244410D02*
X71623514Y-32244410D01*
X71427571Y-32752410D01*
X70830885Y-26652410D02*
X70678485Y-26410505D01*
X70569628Y-26652410D02*
X70569628Y-26144410D01*
X70743800Y-26144410D01*
X70787342Y-26168600D01*
X70809114Y-26192790D01*
X70830885Y-26241171D01*
X70830885Y-26313743D01*
X70809114Y-26362124D01*
X70787342Y-26386314D01*
X70743800Y-26410505D01*
X70569628Y-26410505D01*
X71005057Y-26192790D02*
X71026828Y-26168600D01*
X71070371Y-26144410D01*
X71179228Y-26144410D01*
X71222771Y-26168600D01*
X71244542Y-26192790D01*
X71266314Y-26241171D01*
X71266314Y-26289552D01*
X71244542Y-26362124D01*
X70983285Y-26652410D01*
X71266314Y-26652410D01*
X71527571Y-26362124D02*
X71484029Y-26337933D01*
X71462257Y-26313743D01*
X71440486Y-26265362D01*
X71440486Y-26241171D01*
X71462257Y-26192790D01*
X71484029Y-26168600D01*
X71527571Y-26144410D01*
X71614657Y-26144410D01*
X71658200Y-26168600D01*
X71679971Y-26192790D01*
X71701743Y-26241171D01*
X71701743Y-26265362D01*
X71679971Y-26313743D01*
X71658200Y-26337933D01*
X71614657Y-26362124D01*
X71527571Y-26362124D01*
X71484029Y-26386314D01*
X71462257Y-26410505D01*
X71440486Y-26458886D01*
X71440486Y-26555648D01*
X71462257Y-26604029D01*
X71484029Y-26628219D01*
X71527571Y-26652410D01*
X71614657Y-26652410D01*
X71658200Y-26628219D01*
X71679971Y-26604029D01*
X71701743Y-26555648D01*
X71701743Y-26458886D01*
X71679971Y-26410505D01*
X71658200Y-26386314D01*
X71614657Y-26362124D01*
D11*
X20484001Y-8208429D02*
X20592858Y-8244714D01*
X20774287Y-8244714D01*
X20846858Y-8208429D01*
X20883144Y-8172143D01*
X20919429Y-8099571D01*
X20919429Y-8027000D01*
X20883144Y-7954429D01*
X20846858Y-7918143D01*
X20774287Y-7881857D01*
X20629144Y-7845571D01*
X20556572Y-7809286D01*
X20520287Y-7773000D01*
X20484001Y-7700429D01*
X20484001Y-7627857D01*
X20520287Y-7555286D01*
X20556572Y-7519000D01*
X20629144Y-7482714D01*
X20810572Y-7482714D01*
X20919429Y-7519000D01*
X21173429Y-7482714D02*
X21354858Y-8244714D01*
X21500001Y-7700429D01*
X21645143Y-8244714D01*
X21826572Y-7482714D01*
X22516000Y-8244714D02*
X22080572Y-8244714D01*
X22298286Y-8244714D02*
X22298286Y-7482714D01*
X22225715Y-7591571D01*
X22153143Y-7664143D01*
X22080572Y-7700429D01*
X21968589Y-18833514D02*
X22404018Y-18833514D01*
X22186304Y-19595514D02*
X22186304Y-18833514D01*
X22658018Y-19595514D02*
X22658018Y-18833514D01*
X22948303Y-18833514D01*
X23020875Y-18869800D01*
X23057160Y-18906086D01*
X23093446Y-18978657D01*
X23093446Y-19087514D01*
X23057160Y-19160086D01*
X23020875Y-19196371D01*
X22948303Y-19232657D01*
X22658018Y-19232657D01*
X23819160Y-19595514D02*
X23383732Y-19595514D01*
X23601446Y-19595514D02*
X23601446Y-18833514D01*
X23528875Y-18942371D01*
X23456303Y-19014943D01*
X23383732Y-19051229D01*
X23549429Y-30907514D02*
X23984858Y-30907514D01*
X23767144Y-31669514D02*
X23767144Y-30907514D01*
X24238858Y-31669514D02*
X24238858Y-30907514D01*
X24529143Y-30907514D01*
X24601715Y-30943800D01*
X24638000Y-30980086D01*
X24674286Y-31052657D01*
X24674286Y-31161514D01*
X24638000Y-31234086D01*
X24601715Y-31270371D01*
X24529143Y-31306657D01*
X24238858Y-31306657D01*
X24964572Y-30980086D02*
X25000858Y-30943800D01*
X25073429Y-30907514D01*
X25254858Y-30907514D01*
X25327429Y-30943800D01*
X25363715Y-30980086D01*
X25400000Y-31052657D01*
X25400000Y-31125229D01*
X25363715Y-31234086D01*
X24928286Y-31669514D01*
X25400000Y-31669514D01*
X52840709Y-27454134D02*
X52840709Y-28070991D01*
X52876994Y-28143563D01*
X52913280Y-28179849D01*
X52985851Y-28216134D01*
X53130994Y-28216134D01*
X53203566Y-28179849D01*
X53239851Y-28143563D01*
X53276137Y-28070991D01*
X53276137Y-27454134D01*
X54038137Y-28216134D02*
X53602709Y-28216134D01*
X53820423Y-28216134D02*
X53820423Y-27454134D01*
X53747852Y-27562991D01*
X53675280Y-27635563D01*
X53602709Y-27671849D01*
X8089174Y-21637171D02*
X8706031Y-21637171D01*
X8778603Y-21600886D01*
X8814889Y-21564600D01*
X8851174Y-21492029D01*
X8851174Y-21346886D01*
X8814889Y-21274314D01*
X8778603Y-21238029D01*
X8706031Y-21201743D01*
X8089174Y-21201743D01*
X8161746Y-20875171D02*
X8125460Y-20838885D01*
X8089174Y-20766314D01*
X8089174Y-20584885D01*
X8125460Y-20512314D01*
X8161746Y-20476028D01*
X8234317Y-20439743D01*
X8306889Y-20439743D01*
X8415746Y-20476028D01*
X8851174Y-20911457D01*
X8851174Y-20439743D01*
X18302514Y-34464171D02*
X18919371Y-34464171D01*
X18991943Y-34427886D01*
X19028229Y-34391600D01*
X19064514Y-34319029D01*
X19064514Y-34173886D01*
X19028229Y-34101314D01*
X18991943Y-34065029D01*
X18919371Y-34028743D01*
X18302514Y-34028743D01*
X18302514Y-33738457D02*
X18302514Y-33266743D01*
X18592800Y-33520743D01*
X18592800Y-33411885D01*
X18629086Y-33339314D01*
X18665371Y-33303028D01*
X18737943Y-33266743D01*
X18919371Y-33266743D01*
X18991943Y-33303028D01*
X19028229Y-33339314D01*
X19064514Y-33411885D01*
X19064514Y-33629600D01*
X19028229Y-33702171D01*
X18991943Y-33738457D01*
X37683143Y-33682714D02*
X38191143Y-34444714D01*
X38191143Y-33682714D02*
X37683143Y-34444714D01*
X38880571Y-34444714D02*
X38445143Y-34444714D01*
X38662857Y-34444714D02*
X38662857Y-33682714D01*
X38590286Y-33791571D01*
X38517714Y-33864143D01*
X38445143Y-33900429D01*
X43778957Y-27581255D02*
X43778957Y-26768455D01*
X44088595Y-26768455D01*
X44166004Y-26807160D01*
X44204709Y-26845865D01*
X44243414Y-26923274D01*
X44243414Y-27039389D01*
X44204709Y-27116798D01*
X44166004Y-27155503D01*
X44088595Y-27194208D01*
X43778957Y-27194208D01*
X44553052Y-26845865D02*
X44591757Y-26807160D01*
X44669166Y-26768455D01*
X44862690Y-26768455D01*
X44940100Y-26807160D01*
X44978804Y-26845865D01*
X45017509Y-26923274D01*
X45017509Y-27000684D01*
X44978804Y-27116798D01*
X44514347Y-27581255D01*
X45017509Y-27581255D01*
D17*
X18082715Y-14444714D02*
X17828715Y-14081857D01*
X17647287Y-14444714D02*
X17647287Y-13682714D01*
X17937572Y-13682714D01*
X18010144Y-13719000D01*
X18046429Y-13755286D01*
X18082715Y-13827857D01*
X18082715Y-13936714D01*
X18046429Y-14009286D01*
X18010144Y-14045571D01*
X17937572Y-14081857D01*
X17647287Y-14081857D01*
X18300429Y-13682714D02*
X18735858Y-13682714D01*
X18518144Y-14444714D02*
X18518144Y-13682714D01*
X19389000Y-14444714D02*
X18953572Y-14444714D01*
X19171286Y-14444714D02*
X19171286Y-13682714D01*
X19098715Y-13791571D01*
X19026143Y-13864143D01*
X18953572Y-13900429D01*
D11*
X17896236Y-9178955D02*
X17625303Y-8791908D01*
X17431779Y-9178955D02*
X17431779Y-8366155D01*
X17741417Y-8366155D01*
X17818826Y-8404860D01*
X17857531Y-8443565D01*
X17896236Y-8520974D01*
X17896236Y-8637089D01*
X17857531Y-8714498D01*
X17818826Y-8753203D01*
X17741417Y-8791908D01*
X17431779Y-8791908D01*
X18128465Y-8366155D02*
X18592922Y-8366155D01*
X18360693Y-9178955D02*
X18360693Y-8366155D01*
X18825150Y-8443565D02*
X18863855Y-8404860D01*
X18941264Y-8366155D01*
X19134788Y-8366155D01*
X19212198Y-8404860D01*
X19250902Y-8443565D01*
X19289607Y-8520974D01*
X19289607Y-8598384D01*
X19250902Y-8714498D01*
X18786445Y-9178955D01*
X19289607Y-9178955D01*
X28130667Y-11862857D02*
X28082286Y-11911238D01*
X27937143Y-11959619D01*
X27840381Y-11959619D01*
X27695239Y-11911238D01*
X27598477Y-11814476D01*
X27550096Y-11717714D01*
X27501715Y-11524190D01*
X27501715Y-11379048D01*
X27550096Y-11185524D01*
X27598477Y-11088762D01*
X27695239Y-10992000D01*
X27840381Y-10943619D01*
X27937143Y-10943619D01*
X28082286Y-10992000D01*
X28130667Y-11040381D01*
X29049905Y-10943619D02*
X28566096Y-10943619D01*
X28517715Y-11427429D01*
X28566096Y-11379048D01*
X28662858Y-11330667D01*
X28904762Y-11330667D01*
X29001524Y-11379048D01*
X29049905Y-11427429D01*
X29098286Y-11524190D01*
X29098286Y-11766095D01*
X29049905Y-11862857D01*
X29001524Y-11911238D01*
X28904762Y-11959619D01*
X28662858Y-11959619D01*
X28566096Y-11911238D01*
X28517715Y-11862857D01*
X56979386Y-25209814D02*
X57018090Y-25248519D01*
X57056795Y-25364633D01*
X57056795Y-25442043D01*
X57018090Y-25558157D01*
X56940681Y-25635566D01*
X56863271Y-25674271D01*
X56708452Y-25712976D01*
X56592338Y-25712976D01*
X56437519Y-25674271D01*
X56360110Y-25635566D01*
X56282700Y-25558157D01*
X56243995Y-25442043D01*
X56243995Y-25364633D01*
X56282700Y-25248519D01*
X56321405Y-25209814D01*
X57056795Y-24435719D02*
X57056795Y-24900176D01*
X57056795Y-24667947D02*
X56243995Y-24667947D01*
X56360110Y-24745357D01*
X56437519Y-24822766D01*
X56476224Y-24900176D01*
X56592338Y-23971262D02*
X56553633Y-24048671D01*
X56514929Y-24087376D01*
X56437519Y-24126081D01*
X56398814Y-24126081D01*
X56321405Y-24087376D01*
X56282700Y-24048671D01*
X56243995Y-23971262D01*
X56243995Y-23816443D01*
X56282700Y-23739033D01*
X56321405Y-23700329D01*
X56398814Y-23661624D01*
X56437519Y-23661624D01*
X56514929Y-23700329D01*
X56553633Y-23739033D01*
X56592338Y-23816443D01*
X56592338Y-23971262D01*
X56631043Y-24048671D01*
X56669748Y-24087376D01*
X56747157Y-24126081D01*
X56901976Y-24126081D01*
X56979386Y-24087376D01*
X57018090Y-24048671D01*
X57056795Y-23971262D01*
X57056795Y-23816443D01*
X57018090Y-23739033D01*
X56979386Y-23700329D01*
X56901976Y-23661624D01*
X56747157Y-23661624D01*
X56669748Y-23700329D01*
X56631043Y-23739033D01*
X56592338Y-23816443D01*
D17*
X41573000Y-30944714D02*
X41319000Y-30581857D01*
X41137572Y-30944714D02*
X41137572Y-30182714D01*
X41427857Y-30182714D01*
X41500429Y-30219000D01*
X41536714Y-30255286D01*
X41573000Y-30327857D01*
X41573000Y-30436714D01*
X41536714Y-30509286D01*
X41500429Y-30545571D01*
X41427857Y-30581857D01*
X41137572Y-30581857D01*
X41863286Y-30255286D02*
X41899572Y-30219000D01*
X41972143Y-30182714D01*
X42153572Y-30182714D01*
X42226143Y-30219000D01*
X42262429Y-30255286D01*
X42298714Y-30327857D01*
X42298714Y-30400429D01*
X42262429Y-30509286D01*
X41827000Y-30944714D01*
X42298714Y-30944714D01*
X62344714Y-21027000D02*
X61981857Y-21281000D01*
X62344714Y-21462428D02*
X61582714Y-21462428D01*
X61582714Y-21172143D01*
X61619000Y-21099571D01*
X61655286Y-21063286D01*
X61727857Y-21027000D01*
X61836714Y-21027000D01*
X61909286Y-21063286D01*
X61945571Y-21099571D01*
X61981857Y-21172143D01*
X61981857Y-21462428D01*
X61582714Y-20773000D02*
X61582714Y-20265000D01*
X62344714Y-20591571D01*
D11*
X56051834Y-15478595D02*
X55780901Y-15091548D01*
X55587377Y-15478595D02*
X55587377Y-14665795D01*
X55897015Y-14665795D01*
X55974424Y-14704500D01*
X56013129Y-14743205D01*
X56051834Y-14820614D01*
X56051834Y-14936729D01*
X56013129Y-15014138D01*
X55974424Y-15052843D01*
X55897015Y-15091548D01*
X55587377Y-15091548D01*
X56516291Y-15014138D02*
X56438882Y-14975433D01*
X56400177Y-14936729D01*
X56361472Y-14859319D01*
X56361472Y-14820614D01*
X56400177Y-14743205D01*
X56438882Y-14704500D01*
X56516291Y-14665795D01*
X56671110Y-14665795D01*
X56748520Y-14704500D01*
X56787224Y-14743205D01*
X56825929Y-14820614D01*
X56825929Y-14859319D01*
X56787224Y-14936729D01*
X56748520Y-14975433D01*
X56671110Y-15014138D01*
X56516291Y-15014138D01*
X56438882Y-15052843D01*
X56400177Y-15091548D01*
X56361472Y-15168957D01*
X56361472Y-15323776D01*
X56400177Y-15401186D01*
X56438882Y-15439890D01*
X56516291Y-15478595D01*
X56671110Y-15478595D01*
X56748520Y-15439890D01*
X56787224Y-15401186D01*
X56825929Y-15323776D01*
X56825929Y-15168957D01*
X56787224Y-15091548D01*
X56748520Y-15052843D01*
X56671110Y-15014138D01*
X59256795Y-14309814D02*
X58869748Y-14580747D01*
X59256795Y-14774271D02*
X58443995Y-14774271D01*
X58443995Y-14464633D01*
X58482700Y-14387224D01*
X58521405Y-14348519D01*
X58598814Y-14309814D01*
X58714929Y-14309814D01*
X58792338Y-14348519D01*
X58831043Y-14387224D01*
X58869748Y-14464633D01*
X58869748Y-14774271D01*
X59256795Y-13535719D02*
X59256795Y-14000176D01*
X59256795Y-13767947D02*
X58443995Y-13767947D01*
X58560110Y-13845357D01*
X58637519Y-13922766D01*
X58676224Y-14000176D01*
X58521405Y-13226081D02*
X58482700Y-13187376D01*
X58443995Y-13109967D01*
X58443995Y-12916443D01*
X58482700Y-12839033D01*
X58521405Y-12800329D01*
X58598814Y-12761624D01*
X58676224Y-12761624D01*
X58792338Y-12800329D01*
X59256795Y-13264786D01*
X59256795Y-12761624D01*
X38178595Y-33035214D02*
X37791548Y-33306147D01*
X38178595Y-33499671D02*
X37365795Y-33499671D01*
X37365795Y-33190033D01*
X37404500Y-33112624D01*
X37443205Y-33073919D01*
X37520614Y-33035214D01*
X37636729Y-33035214D01*
X37714138Y-33073919D01*
X37752843Y-33112624D01*
X37791548Y-33190033D01*
X37791548Y-33499671D01*
X37365795Y-32764281D02*
X37365795Y-32261119D01*
X37675433Y-32532052D01*
X37675433Y-32415938D01*
X37714138Y-32338528D01*
X37752843Y-32299824D01*
X37830252Y-32261119D01*
X38023776Y-32261119D01*
X38101186Y-32299824D01*
X38139890Y-32338528D01*
X38178595Y-32415938D01*
X38178595Y-32648166D01*
X38139890Y-32725576D01*
X38101186Y-32764281D01*
X38178595Y-31487024D02*
X38178595Y-31951481D01*
X38178595Y-31719252D02*
X37365795Y-31719252D01*
X37481910Y-31796662D01*
X37559319Y-31874071D01*
X37598024Y-31951481D01*
X46346857Y-30859619D02*
X46008191Y-30375810D01*
X45766286Y-30859619D02*
X45766286Y-29843619D01*
X46153333Y-29843619D01*
X46250095Y-29892000D01*
X46298476Y-29940381D01*
X46346857Y-30037143D01*
X46346857Y-30182286D01*
X46298476Y-30279048D01*
X46250095Y-30327429D01*
X46153333Y-30375810D01*
X45766286Y-30375810D01*
X47217714Y-30182286D02*
X47217714Y-30859619D01*
X46975810Y-29795238D02*
X46733905Y-30520952D01*
X47362857Y-30520952D01*
X48185333Y-30182286D02*
X48185333Y-30859619D01*
X47943429Y-29795238D02*
X47701524Y-30520952D01*
X48330476Y-30520952D01*
X61096695Y-23187876D02*
X61754676Y-23187876D01*
X61832086Y-23149171D01*
X61870790Y-23110467D01*
X61909495Y-23033057D01*
X61909495Y-22878238D01*
X61870790Y-22800829D01*
X61832086Y-22762124D01*
X61754676Y-22723419D01*
X61096695Y-22723419D01*
X61367629Y-21988028D02*
X61909495Y-21988028D01*
X61057990Y-22181552D02*
X61638562Y-22375076D01*
X61638562Y-21871914D01*
X35578595Y-24635214D02*
X35191548Y-24906147D01*
X35578595Y-25099671D02*
X34765795Y-25099671D01*
X34765795Y-24790033D01*
X34804500Y-24712624D01*
X34843205Y-24673919D01*
X34920614Y-24635214D01*
X35036729Y-24635214D01*
X35114138Y-24673919D01*
X35152843Y-24712624D01*
X35191548Y-24790033D01*
X35191548Y-25099671D01*
X35578595Y-23861119D02*
X35578595Y-24325576D01*
X35578595Y-24093347D02*
X34765795Y-24093347D01*
X34881910Y-24170757D01*
X34959319Y-24248166D01*
X34998024Y-24325576D01*
X34765795Y-23125729D02*
X34765795Y-23512776D01*
X35152843Y-23551481D01*
X35114138Y-23512776D01*
X35075433Y-23435367D01*
X35075433Y-23241843D01*
X35114138Y-23164433D01*
X35152843Y-23125729D01*
X35230252Y-23087024D01*
X35423776Y-23087024D01*
X35501186Y-23125729D01*
X35539890Y-23164433D01*
X35578595Y-23241843D01*
X35578595Y-23435367D01*
X35539890Y-23512776D01*
X35501186Y-23551481D01*
X75089586Y-29101195D02*
X74818653Y-28714148D01*
X74625129Y-29101195D02*
X74625129Y-28288395D01*
X74934767Y-28288395D01*
X75012176Y-28327100D01*
X75050881Y-28365805D01*
X75089586Y-28443214D01*
X75089586Y-28559329D01*
X75050881Y-28636738D01*
X75012176Y-28675443D01*
X74934767Y-28714148D01*
X74625129Y-28714148D01*
X75399224Y-28365805D02*
X75437929Y-28327100D01*
X75515338Y-28288395D01*
X75708862Y-28288395D01*
X75786272Y-28327100D01*
X75824976Y-28365805D01*
X75863681Y-28443214D01*
X75863681Y-28520624D01*
X75824976Y-28636738D01*
X75360519Y-29101195D01*
X75863681Y-29101195D01*
X76173319Y-28365805D02*
X76212024Y-28327100D01*
X76289433Y-28288395D01*
X76482957Y-28288395D01*
X76560367Y-28327100D01*
X76599071Y-28365805D01*
X76637776Y-28443214D01*
X76637776Y-28520624D01*
X76599071Y-28636738D01*
X76134614Y-29101195D01*
X76637776Y-29101195D01*
X49376995Y-25325614D02*
X48989948Y-25596547D01*
X49376995Y-25790071D02*
X48564195Y-25790071D01*
X48564195Y-25480433D01*
X48602900Y-25403024D01*
X48641605Y-25364319D01*
X48719014Y-25325614D01*
X48835129Y-25325614D01*
X48912538Y-25364319D01*
X48951243Y-25403024D01*
X48989948Y-25480433D01*
X48989948Y-25790071D01*
X48641605Y-25015976D02*
X48602900Y-24977271D01*
X48564195Y-24899862D01*
X48564195Y-24706338D01*
X48602900Y-24628928D01*
X48641605Y-24590224D01*
X48719014Y-24551519D01*
X48796424Y-24551519D01*
X48912538Y-24590224D01*
X49376995Y-25054681D01*
X49376995Y-24551519D01*
X49376995Y-24164471D02*
X49376995Y-24009652D01*
X49338290Y-23932243D01*
X49299586Y-23893538D01*
X49183471Y-23816129D01*
X49028652Y-23777424D01*
X48719014Y-23777424D01*
X48641605Y-23816129D01*
X48602900Y-23854833D01*
X48564195Y-23932243D01*
X48564195Y-24087062D01*
X48602900Y-24164471D01*
X48641605Y-24203176D01*
X48719014Y-24241881D01*
X48912538Y-24241881D01*
X48989948Y-24203176D01*
X49028652Y-24164471D01*
X49067357Y-24087062D01*
X49067357Y-23932243D01*
X49028652Y-23854833D01*
X48989948Y-23816129D01*
X48912538Y-23777424D01*
X45617795Y-23090414D02*
X45230748Y-23361347D01*
X45617795Y-23554871D02*
X44804995Y-23554871D01*
X44804995Y-23245233D01*
X44843700Y-23167824D01*
X44882405Y-23129119D01*
X44959814Y-23090414D01*
X45075929Y-23090414D01*
X45153338Y-23129119D01*
X45192043Y-23167824D01*
X45230748Y-23245233D01*
X45230748Y-23554871D01*
X44804995Y-22819481D02*
X44804995Y-22316319D01*
X45114633Y-22587252D01*
X45114633Y-22471138D01*
X45153338Y-22393728D01*
X45192043Y-22355024D01*
X45269452Y-22316319D01*
X45462976Y-22316319D01*
X45540386Y-22355024D01*
X45579090Y-22393728D01*
X45617795Y-22471138D01*
X45617795Y-22703366D01*
X45579090Y-22780776D01*
X45540386Y-22819481D01*
X44804995Y-21813157D02*
X44804995Y-21735748D01*
X44843700Y-21658338D01*
X44882405Y-21619633D01*
X44959814Y-21580929D01*
X45114633Y-21542224D01*
X45308157Y-21542224D01*
X45462976Y-21580929D01*
X45540386Y-21619633D01*
X45579090Y-21658338D01*
X45617795Y-21735748D01*
X45617795Y-21813157D01*
X45579090Y-21890567D01*
X45540386Y-21929271D01*
X45462976Y-21967976D01*
X45308157Y-22006681D01*
X45114633Y-22006681D01*
X44959814Y-21967976D01*
X44882405Y-21929271D01*
X44843700Y-21890567D01*
X44804995Y-21813157D01*
M02*
