G04 #@! TF.FileFunction,Copper,L2,Bot,Signal*
%FSLAX46Y46*%
G04 Gerber Fmt 4.6, Leading zero omitted, Abs format (unit mm)*
G04 Created by KiCad (PCBNEW (2014-jul-16 BZR unknown)-product) date Qua 03 Dez 2014 17:18:42 BRST*
%MOMM*%
G01*
G04 APERTURE LIST*
%ADD10C,0.150000*%
%ADD11C,1.600000*%
%ADD12R,1.600000X1.600000*%
%ADD13C,4.500000*%
%ADD14C,1.320800*%
%ADD15C,3.251200*%
%ADD16R,1.524000X1.524000*%
%ADD17C,1.524000*%
%ADD18C,1.500000*%
%ADD19R,1.250000X1.250000*%
%ADD20C,1.250000*%
%ADD21C,1.550000*%
%ADD22R,1.700000X1.700000*%
%ADD23C,0.889000*%
%ADD24C,1.270000*%
%ADD25C,0.635000*%
%ADD26C,0.508000*%
%ADD27C,1.016000*%
%ADD28C,1.524000*%
%ADD29C,0.508000*%
%ADD30C,0.762000*%
%ADD31C,2.540000*%
%ADD32C,0.381000*%
%ADD33C,0.254000*%
%ADD34C,0.635000*%
G04 APERTURE END LIST*
D10*
D11*
X8100000Y-13600000D03*
D12*
X10100000Y-13600000D03*
D11*
X18830160Y-22350800D03*
D12*
X18830160Y-24350800D03*
D11*
X21100000Y-35400000D03*
D12*
X21100000Y-37400000D03*
D13*
X75850000Y-7500000D03*
X68350000Y-7500000D03*
X75850000Y-2500000D03*
X68350000Y-2500000D03*
X10050000Y-7500000D03*
X2550000Y-7500000D03*
X10050000Y-2500000D03*
X2550000Y-2500000D03*
D14*
X49842000Y-11104000D03*
X52128000Y-11104000D03*
X61272000Y-11104000D03*
X63558000Y-11104000D03*
X60256000Y-6278000D03*
X58224000Y-6278000D03*
X56192000Y-6278000D03*
X54160000Y-6278000D03*
X57208000Y-4500000D03*
X55176000Y-4500000D03*
X59240000Y-4500000D03*
X53144000Y-4500000D03*
D15*
X50350000Y-1960000D03*
X63050000Y-1960000D03*
D14*
X32542000Y-11104000D03*
X34828000Y-11104000D03*
X43972000Y-11104000D03*
X46258000Y-11104000D03*
X42956000Y-6278000D03*
X40924000Y-6278000D03*
X38892000Y-6278000D03*
X36860000Y-6278000D03*
X39908000Y-4500000D03*
X37876000Y-4500000D03*
X41940000Y-4500000D03*
X35844000Y-4500000D03*
D15*
X33050000Y-1960000D03*
X45750000Y-1960000D03*
D16*
X75624800Y-13282600D03*
D17*
X75624800Y-15822600D03*
X75624800Y-18362600D03*
D16*
X43900000Y-15020000D03*
D17*
X43900000Y-17560000D03*
X43900000Y-20100000D03*
X43900000Y-22640000D03*
D18*
X43900000Y-25180000D03*
D16*
X75604800Y-34452600D03*
D17*
X75604800Y-36992600D03*
X73064800Y-34452600D03*
X73064800Y-36992600D03*
X70524800Y-34452600D03*
X70524800Y-36992600D03*
X67984800Y-34452600D03*
X67984800Y-36992600D03*
X65444800Y-34452600D03*
X65444800Y-36992600D03*
D16*
X75624800Y-22552600D03*
D17*
X75624800Y-25092600D03*
D19*
X25500000Y-3750000D03*
D20*
X21500000Y-3750000D03*
X19500000Y-3750000D03*
D21*
X28500000Y-2500000D03*
X14500000Y-2500000D03*
D20*
X23500000Y-3750000D03*
D22*
X22930160Y-21250800D03*
X24511000Y-33324800D03*
D23*
X35382200Y-30988000D03*
X32969200Y-30988000D03*
X31038800Y-30988000D03*
D24*
X32925000Y-38925000D03*
X52950000Y-37400000D03*
D23*
X55000000Y-12200000D03*
X59300000Y-12200000D03*
D24*
X57683400Y-38912800D03*
D25*
X49987200Y-24503000D03*
X49987200Y-20083400D03*
X49987200Y-22293200D03*
D24*
X34620200Y-24384000D03*
X29591000Y-24358600D03*
X39192200Y-20574000D03*
D23*
X59900000Y-18700000D03*
X54700000Y-18700000D03*
X64500000Y-19900000D03*
X61200000Y-23700000D03*
X55458360Y-31551880D03*
X32685000Y-17284000D03*
X39450000Y-17250000D03*
X5430160Y-17950800D03*
D24*
X14730160Y-16150800D03*
X16330160Y-17950800D03*
D23*
X50600000Y-34850000D03*
X58950860Y-29560520D03*
X26974800Y-15011400D03*
D24*
X17043400Y-29159200D03*
X18491200Y-30962600D03*
D23*
X15951200Y-27228800D03*
X21717000Y-28016200D03*
X41681400Y-33401000D03*
X45974000Y-33401000D03*
X59800000Y-14100000D03*
X54600000Y-14100000D03*
X65300000Y-17500000D03*
X49500000Y-27700000D03*
X60224800Y-25922600D03*
X70224800Y-13322600D03*
X64324800Y-27422600D03*
D26*
X55702200Y-22428200D03*
X57162700Y-22428200D03*
D25*
X59424800Y-33722600D03*
X63652400Y-33756600D03*
D23*
X56200000Y-8900000D03*
D25*
X25740360Y-7894320D03*
X25740360Y-12966700D03*
X24902160Y-7894320D03*
X24902160Y-12969240D03*
X24063960Y-7894320D03*
X24061420Y-12966700D03*
X61124800Y-31822600D03*
X63624800Y-31822600D03*
X45500000Y-9900000D03*
X59100000Y-9900000D03*
X55100000Y-9900000D03*
D27*
X35382200Y-30988000D02*
X32969200Y-30988000D01*
X32969200Y-30988000D02*
X31038800Y-30988000D01*
D28*
X32925000Y-38925000D02*
X52959000Y-38925000D01*
X52950000Y-38925000D02*
X52959000Y-38925000D01*
X52950000Y-37400000D02*
X52950000Y-38925000D01*
D29*
X59300000Y-12200000D02*
X55000000Y-12200000D01*
D28*
X52959000Y-38925000D02*
X57671200Y-38925000D01*
X57671200Y-38925000D02*
X57683400Y-38912800D01*
D29*
X49987200Y-22293200D02*
X49987200Y-24503000D01*
X49987200Y-20083400D02*
X49987200Y-22293200D01*
D28*
X42206200Y-17560000D02*
X39192200Y-20574000D01*
X34594800Y-24358600D02*
X34620200Y-24384000D01*
X29591000Y-24358600D02*
X34594800Y-24358600D01*
X43900000Y-17560000D02*
X42206200Y-17560000D01*
D30*
X59900000Y-18700000D02*
X54700000Y-18700000D01*
D31*
X2550000Y-2500000D02*
X10050000Y-2500000D01*
X2550000Y-7500000D02*
X2550000Y-2500000D01*
X10050000Y-7500000D02*
X2550000Y-7500000D01*
X10050000Y-2500000D02*
X10050000Y-7500000D01*
X5050000Y-2500000D02*
X10050000Y-7500000D01*
X2550000Y-2500000D02*
X5050000Y-2500000D01*
X71334000Y-2500000D02*
X68350000Y-2500000D01*
X73350000Y-4516000D02*
X71334000Y-2500000D01*
X73350000Y-7500000D02*
X73350000Y-4516000D01*
X71025000Y-5175000D02*
X73350000Y-7500000D01*
X68350000Y-2500000D02*
X71025000Y-5175000D01*
X68350000Y-7500000D02*
X68350000Y-2500000D01*
X75850000Y-7500000D02*
X68350000Y-7500000D01*
X75850000Y-2500000D02*
X75850000Y-7500000D01*
X68350000Y-2500000D02*
X75850000Y-2500000D01*
X6644000Y-2500000D02*
X10050000Y-2500000D01*
X2550000Y-6594000D02*
X6644000Y-2500000D01*
X2550000Y-7500000D02*
X2550000Y-6594000D01*
X5050000Y-7500000D02*
X10050000Y-2500000D01*
X2550000Y-7500000D02*
X5050000Y-7500000D01*
X68700000Y-7500000D02*
X71025000Y-5175000D01*
X68350000Y-7500000D02*
X68700000Y-7500000D01*
X68350000Y-10136000D02*
X68326000Y-10160000D01*
X68350000Y-7500000D02*
X68350000Y-10136000D01*
X65158000Y-7500000D02*
X65024000Y-7366000D01*
X68350000Y-7500000D02*
X65158000Y-7500000D01*
X75850000Y-10064000D02*
X75946000Y-10160000D01*
X75850000Y-7500000D02*
X75850000Y-10064000D01*
X13088000Y-7500000D02*
X13208000Y-7620000D01*
X10050000Y-7500000D02*
X13088000Y-7500000D01*
X10050000Y-10270000D02*
X9906000Y-10414000D01*
X10050000Y-7500000D02*
X10050000Y-10270000D01*
X2550000Y-9916000D02*
X2794000Y-10160000D01*
X2550000Y-7500000D02*
X2550000Y-9916000D01*
D32*
X55702200Y-22428200D02*
X57162700Y-22428200D01*
D33*
X59424800Y-33722600D02*
X59458800Y-33756600D01*
D32*
X59458800Y-33756600D02*
X63652400Y-33756600D01*
D30*
X56192000Y-6278000D02*
X56192000Y-8892000D01*
D34*
X56192000Y-8892000D02*
X56200000Y-8900000D01*
D32*
X25740360Y-7894320D02*
X25740360Y-12966700D01*
X24902160Y-7894320D02*
X24902160Y-12969240D01*
X24061420Y-7896860D02*
X24063960Y-7894320D01*
X24061420Y-12966700D02*
X24061420Y-7896860D01*
X63624800Y-31822600D02*
X61124800Y-31822600D01*
D29*
X52128000Y-11104000D02*
X52104000Y-11104000D01*
X50900000Y-9900000D02*
X45500000Y-9900000D01*
X52104000Y-11104000D02*
X50900000Y-9900000D01*
X59100000Y-9900000D02*
X55100000Y-9900000D01*
D33*
G36*
X77792000Y-39392000D02*
X77021800Y-39392000D01*
X77021800Y-23440909D01*
X77021800Y-22838350D01*
X77021800Y-22266850D01*
X77021800Y-21664291D01*
X76925127Y-21430902D01*
X76746499Y-21252273D01*
X76513110Y-21155600D01*
X76260491Y-21155600D01*
X75910550Y-21155600D01*
X75751800Y-21314350D01*
X75751800Y-22425600D01*
X76863050Y-22425600D01*
X77021800Y-22266850D01*
X77021800Y-22838350D01*
X76863050Y-22679600D01*
X75751800Y-22679600D01*
X75751800Y-22699600D01*
X75497800Y-22699600D01*
X75497800Y-22679600D01*
X75497800Y-22425600D01*
X75497800Y-21314350D01*
X75339050Y-21155600D01*
X74989109Y-21155600D01*
X74736490Y-21155600D01*
X74503101Y-21252273D01*
X74324473Y-21430902D01*
X74227800Y-21664291D01*
X74227800Y-22266850D01*
X74386550Y-22425600D01*
X75497800Y-22425600D01*
X75497800Y-22679600D01*
X74386550Y-22679600D01*
X74227800Y-22838350D01*
X74227800Y-23440909D01*
X74324473Y-23674298D01*
X74503101Y-23852927D01*
X74736490Y-23949600D01*
X74989109Y-23949600D01*
X75065392Y-23949600D01*
X74906342Y-24015318D01*
X74548774Y-24372263D01*
X74355021Y-24838873D01*
X74354580Y-25344110D01*
X74547518Y-25811058D01*
X74904463Y-26168626D01*
X75371073Y-26362379D01*
X75876310Y-26362820D01*
X76343258Y-26169882D01*
X76700826Y-25812937D01*
X76894579Y-25346327D01*
X76895020Y-24841090D01*
X76702082Y-24374142D01*
X76345137Y-24016574D01*
X76183845Y-23949600D01*
X76260491Y-23949600D01*
X76513110Y-23949600D01*
X76746499Y-23852927D01*
X76925127Y-23674298D01*
X77021800Y-23440909D01*
X77021800Y-39392000D01*
X76875020Y-39392000D01*
X76875020Y-36741090D01*
X76682082Y-36274142D01*
X76325137Y-35916574D01*
X75858527Y-35722821D01*
X75605335Y-35722600D01*
X76467847Y-35722600D01*
X76654558Y-35645262D01*
X76797461Y-35502359D01*
X76874800Y-35315648D01*
X76874800Y-35113553D01*
X76874800Y-33589553D01*
X76797462Y-33402842D01*
X76654559Y-33259939D01*
X76467848Y-33182600D01*
X76265753Y-33182600D01*
X74741753Y-33182600D01*
X74555042Y-33259938D01*
X74412139Y-33402841D01*
X74334800Y-33589552D01*
X74334800Y-33791647D01*
X74334800Y-33836380D01*
X74287197Y-33721457D01*
X74045013Y-33651992D01*
X73865408Y-33831597D01*
X73865408Y-33472387D01*
X73795943Y-33230203D01*
X73272498Y-33043456D01*
X72717432Y-33071238D01*
X72333657Y-33230203D01*
X72264192Y-33472387D01*
X73064800Y-34272995D01*
X73865408Y-33472387D01*
X73865408Y-33831597D01*
X73244405Y-34452600D01*
X74045013Y-35253208D01*
X74287197Y-35183743D01*
X74334800Y-35050313D01*
X74334800Y-35315647D01*
X74412138Y-35502358D01*
X74555041Y-35645261D01*
X74741752Y-35722600D01*
X74943847Y-35722600D01*
X75352757Y-35722600D01*
X74886342Y-35915318D01*
X74528774Y-36272263D01*
X74335021Y-36738873D01*
X74335019Y-36741087D01*
X74142082Y-36274142D01*
X73785137Y-35916574D01*
X73499283Y-35797877D01*
X73795943Y-35674997D01*
X73865408Y-35432813D01*
X73064800Y-34632205D01*
X72885195Y-34811810D01*
X72885195Y-34452600D01*
X72084587Y-33651992D01*
X71842403Y-33721457D01*
X71798347Y-33844944D01*
X71747197Y-33721457D01*
X71505013Y-33651992D01*
X71325408Y-33831597D01*
X71325408Y-33472387D01*
X71255943Y-33230203D01*
X70732498Y-33043456D01*
X70177432Y-33071238D01*
X69793657Y-33230203D01*
X69724192Y-33472387D01*
X70524800Y-34272995D01*
X71325408Y-33472387D01*
X71325408Y-33831597D01*
X70704405Y-34452600D01*
X71505013Y-35253208D01*
X71747197Y-35183743D01*
X71791252Y-35060255D01*
X71842403Y-35183743D01*
X72084587Y-35253208D01*
X72885195Y-34452600D01*
X72885195Y-34811810D01*
X72264192Y-35432813D01*
X72333657Y-35674997D01*
X72652587Y-35788780D01*
X72346342Y-35915318D01*
X71988774Y-36272263D01*
X71795021Y-36738873D01*
X71795019Y-36741087D01*
X71602082Y-36274142D01*
X71245137Y-35916574D01*
X70959283Y-35797877D01*
X71255943Y-35674997D01*
X71325408Y-35432813D01*
X70524800Y-34632205D01*
X70345195Y-34811810D01*
X70345195Y-34452600D01*
X69544587Y-33651992D01*
X69302403Y-33721457D01*
X69258347Y-33844944D01*
X69207197Y-33721457D01*
X68965013Y-33651992D01*
X68785408Y-33831597D01*
X68785408Y-33472387D01*
X68715943Y-33230203D01*
X68192498Y-33043456D01*
X67637432Y-33071238D01*
X67253657Y-33230203D01*
X67184192Y-33472387D01*
X67984800Y-34272995D01*
X68785408Y-33472387D01*
X68785408Y-33831597D01*
X68164405Y-34452600D01*
X68965013Y-35253208D01*
X69207197Y-35183743D01*
X69251252Y-35060255D01*
X69302403Y-35183743D01*
X69544587Y-35253208D01*
X70345195Y-34452600D01*
X70345195Y-34811810D01*
X69724192Y-35432813D01*
X69793657Y-35674997D01*
X70112587Y-35788780D01*
X69806342Y-35915318D01*
X69448774Y-36272263D01*
X69255021Y-36738873D01*
X69255019Y-36741087D01*
X69062082Y-36274142D01*
X68705137Y-35916574D01*
X68419283Y-35797877D01*
X68715943Y-35674997D01*
X68785408Y-35432813D01*
X67984800Y-34632205D01*
X67805195Y-34811810D01*
X67805195Y-34452600D01*
X67004587Y-33651992D01*
X66762403Y-33721457D01*
X66718347Y-33844944D01*
X66667197Y-33721457D01*
X66425013Y-33651992D01*
X66245408Y-33831597D01*
X66245408Y-33472387D01*
X66175943Y-33230203D01*
X65652498Y-33043456D01*
X65097432Y-33071238D01*
X64713657Y-33230203D01*
X64644192Y-33472387D01*
X65444800Y-34272995D01*
X66245408Y-33472387D01*
X66245408Y-33831597D01*
X65624405Y-34452600D01*
X66425013Y-35253208D01*
X66667197Y-35183743D01*
X66711252Y-35060255D01*
X66762403Y-35183743D01*
X67004587Y-35253208D01*
X67805195Y-34452600D01*
X67805195Y-34811810D01*
X67184192Y-35432813D01*
X67253657Y-35674997D01*
X67572587Y-35788780D01*
X67266342Y-35915318D01*
X66908774Y-36272263D01*
X66715021Y-36738873D01*
X66715019Y-36741087D01*
X66522082Y-36274142D01*
X66165137Y-35916574D01*
X65879283Y-35797877D01*
X66175943Y-35674997D01*
X66245408Y-35432813D01*
X65444800Y-34632205D01*
X65265195Y-34811810D01*
X65265195Y-34452600D01*
X64477980Y-33665385D01*
X64478043Y-33593118D01*
X64450443Y-33526320D01*
X64450443Y-31659118D01*
X64325033Y-31355602D01*
X64093019Y-31123183D01*
X63789723Y-30997243D01*
X63461318Y-30996957D01*
X63157802Y-31122367D01*
X63156065Y-31124100D01*
X61593934Y-31124100D01*
X61593019Y-31123183D01*
X61289723Y-30997243D01*
X60961318Y-30996957D01*
X60852665Y-31041851D01*
X60852665Y-18511367D01*
X60707961Y-18161157D01*
X60440253Y-17892980D01*
X60252665Y-17815086D01*
X60252665Y-12011367D01*
X60107961Y-11661157D01*
X59840253Y-11392980D01*
X59490295Y-11247665D01*
X59111367Y-11247335D01*
X58761157Y-11392039D01*
X58715115Y-11438000D01*
X55585194Y-11438000D01*
X55540253Y-11392980D01*
X55190295Y-11247665D01*
X54811367Y-11247335D01*
X54461157Y-11392039D01*
X54192980Y-11659747D01*
X54047665Y-12009705D01*
X54047335Y-12388633D01*
X54192039Y-12738843D01*
X54459747Y-13007020D01*
X54809705Y-13152335D01*
X55188633Y-13152665D01*
X55538843Y-13007961D01*
X55584884Y-12962000D01*
X58714805Y-12962000D01*
X58759747Y-13007020D01*
X59109705Y-13152335D01*
X59488633Y-13152665D01*
X59838843Y-13007961D01*
X60107020Y-12740253D01*
X60252335Y-12390295D01*
X60252665Y-12011367D01*
X60252665Y-17815086D01*
X60090295Y-17747665D01*
X59711367Y-17747335D01*
X59557286Y-17811000D01*
X55042822Y-17811000D01*
X54890295Y-17747665D01*
X54511367Y-17747335D01*
X54161157Y-17892039D01*
X53892980Y-18159747D01*
X53747665Y-18509705D01*
X53747335Y-18888633D01*
X53892039Y-19238843D01*
X54159747Y-19507020D01*
X54509705Y-19652335D01*
X54888633Y-19652665D01*
X55042713Y-19589000D01*
X59557177Y-19589000D01*
X59709705Y-19652335D01*
X60088633Y-19652665D01*
X60438843Y-19507961D01*
X60707020Y-19240253D01*
X60852335Y-18890295D01*
X60852665Y-18511367D01*
X60852665Y-31041851D01*
X60657802Y-31122367D01*
X60425383Y-31354381D01*
X60299443Y-31657677D01*
X60299157Y-31986082D01*
X60424567Y-32289598D01*
X60656581Y-32522017D01*
X60959877Y-32647957D01*
X61288282Y-32648243D01*
X61591798Y-32522833D01*
X61593534Y-32521100D01*
X63155665Y-32521100D01*
X63156581Y-32522017D01*
X63459877Y-32647957D01*
X63788282Y-32648243D01*
X64091798Y-32522833D01*
X64324217Y-32290819D01*
X64450157Y-31987523D01*
X64450443Y-31659118D01*
X64450443Y-33526320D01*
X64352633Y-33289602D01*
X64120619Y-33057183D01*
X63817323Y-32931243D01*
X63488918Y-32930957D01*
X63185402Y-33056367D01*
X63183665Y-33058100D01*
X59927875Y-33058100D01*
X59893019Y-33023183D01*
X59589723Y-32897243D01*
X59261318Y-32896957D01*
X58957802Y-33022367D01*
X58725383Y-33254381D01*
X58599443Y-33557677D01*
X58599157Y-33886082D01*
X58724567Y-34189598D01*
X58956581Y-34422017D01*
X59259877Y-34547957D01*
X59588282Y-34548243D01*
X59813705Y-34455100D01*
X63183265Y-34455100D01*
X63184181Y-34456017D01*
X63487477Y-34581957D01*
X63815882Y-34582243D01*
X64047745Y-34486439D01*
X64063438Y-34799968D01*
X64222403Y-35183743D01*
X64464587Y-35253208D01*
X65265195Y-34452600D01*
X65265195Y-34811810D01*
X64644192Y-35432813D01*
X64713657Y-35674997D01*
X65032587Y-35788780D01*
X64726342Y-35915318D01*
X64368774Y-36272263D01*
X64175021Y-36738873D01*
X64174580Y-37244110D01*
X64367518Y-37711058D01*
X64724463Y-38068626D01*
X65191073Y-38262379D01*
X65696310Y-38262820D01*
X66163258Y-38069882D01*
X66520826Y-37712937D01*
X66714579Y-37246327D01*
X66714580Y-37244112D01*
X66907518Y-37711058D01*
X67264463Y-38068626D01*
X67731073Y-38262379D01*
X68236310Y-38262820D01*
X68703258Y-38069882D01*
X69060826Y-37712937D01*
X69254579Y-37246327D01*
X69254580Y-37244112D01*
X69447518Y-37711058D01*
X69804463Y-38068626D01*
X70271073Y-38262379D01*
X70776310Y-38262820D01*
X71243258Y-38069882D01*
X71600826Y-37712937D01*
X71794579Y-37246327D01*
X71794580Y-37244112D01*
X71987518Y-37711058D01*
X72344463Y-38068626D01*
X72811073Y-38262379D01*
X73316310Y-38262820D01*
X73783258Y-38069882D01*
X74140826Y-37712937D01*
X74334579Y-37246327D01*
X74334580Y-37244112D01*
X74527518Y-37711058D01*
X74884463Y-38068626D01*
X75351073Y-38262379D01*
X75856310Y-38262820D01*
X76323258Y-38069882D01*
X76680826Y-37712937D01*
X76874579Y-37246327D01*
X76875020Y-36741090D01*
X76875020Y-39392000D01*
X58858081Y-39392000D01*
X58953400Y-38912800D01*
X58856727Y-38426792D01*
X58581425Y-38014775D01*
X58169408Y-37739473D01*
X57924832Y-37690823D01*
X57924832Y-22277294D01*
X57809068Y-21997126D01*
X57594902Y-21782585D01*
X57314936Y-21666333D01*
X57011794Y-21666068D01*
X56857794Y-21729700D01*
X56007040Y-21729700D01*
X55854436Y-21666333D01*
X55551294Y-21666068D01*
X55271126Y-21781832D01*
X55056585Y-21995998D01*
X54940333Y-22275964D01*
X54940068Y-22579106D01*
X55055832Y-22859274D01*
X55269998Y-23073815D01*
X55549964Y-23190067D01*
X55853106Y-23190332D01*
X56007105Y-23126700D01*
X56857859Y-23126700D01*
X57010464Y-23190067D01*
X57313606Y-23190332D01*
X57593774Y-23074568D01*
X57808315Y-22860402D01*
X57924567Y-22580436D01*
X57924832Y-22277294D01*
X57924832Y-37690823D01*
X57683400Y-37642800D01*
X57622066Y-37655000D01*
X54220000Y-37655000D01*
X54220000Y-37400000D01*
X54123327Y-36913992D01*
X53848026Y-36501974D01*
X53436008Y-36226673D01*
X53296602Y-36198943D01*
X53296602Y-10872611D01*
X53119099Y-10443019D01*
X52790709Y-10114057D01*
X52361429Y-9935804D01*
X52013129Y-9935499D01*
X51438815Y-9361185D01*
X51191605Y-9196004D01*
X50900000Y-9138000D01*
X45817502Y-9138000D01*
X45664923Y-9074643D01*
X45336518Y-9074357D01*
X45033002Y-9199767D01*
X44800583Y-9431781D01*
X44674643Y-9735077D01*
X44674357Y-10063482D01*
X44738012Y-10217540D01*
X44634709Y-10114057D01*
X44263981Y-9960116D01*
X44263981Y-6461410D01*
X44234605Y-5946906D01*
X44094229Y-5608009D01*
X43862558Y-5551047D01*
X43682953Y-5730652D01*
X43682953Y-5371442D01*
X43625991Y-5139771D01*
X43147061Y-4972688D01*
X43247981Y-4683410D01*
X43218605Y-4168906D01*
X43078229Y-3830009D01*
X42846558Y-3773047D01*
X42666953Y-3952652D01*
X42666953Y-3593442D01*
X42609991Y-3361771D01*
X42123410Y-3192019D01*
X41608906Y-3221395D01*
X41270009Y-3361771D01*
X41213047Y-3593442D01*
X41940000Y-4320395D01*
X42666953Y-3593442D01*
X42666953Y-3952652D01*
X42119605Y-4500000D01*
X42133747Y-4514142D01*
X41954142Y-4693747D01*
X41940000Y-4679605D01*
X41925857Y-4693747D01*
X41746252Y-4514142D01*
X41760395Y-4500000D01*
X41033442Y-3773047D01*
X40872696Y-3812570D01*
X40570709Y-3510057D01*
X40141429Y-3331804D01*
X39676611Y-3331398D01*
X39247019Y-3508901D01*
X38918057Y-3837291D01*
X38892157Y-3899664D01*
X38867099Y-3839019D01*
X38538709Y-3510057D01*
X38109429Y-3331804D01*
X37644611Y-3331398D01*
X37215019Y-3508901D01*
X36886057Y-3837291D01*
X36860157Y-3899664D01*
X36835099Y-3839019D01*
X36506709Y-3510057D01*
X36077429Y-3331804D01*
X35612611Y-3331398D01*
X35183019Y-3508901D01*
X34854057Y-3837291D01*
X34675804Y-4266571D01*
X34675398Y-4731389D01*
X34852901Y-5160981D01*
X35181291Y-5489943D01*
X35610571Y-5668196D01*
X35848002Y-5668403D01*
X35691804Y-6044571D01*
X35691398Y-6509389D01*
X35868901Y-6938981D01*
X36197291Y-7267943D01*
X36626571Y-7446196D01*
X37091389Y-7446602D01*
X37520981Y-7269099D01*
X37849943Y-6940709D01*
X37875842Y-6878335D01*
X37900901Y-6938981D01*
X38229291Y-7267943D01*
X38658571Y-7446196D01*
X39123389Y-7446602D01*
X39552981Y-7269099D01*
X39881943Y-6940709D01*
X39907842Y-6878335D01*
X39932901Y-6938981D01*
X40261291Y-7267943D01*
X40690571Y-7446196D01*
X41155389Y-7446602D01*
X41584981Y-7269099D01*
X41889083Y-6965524D01*
X42049442Y-7004953D01*
X42776395Y-6278000D01*
X42762252Y-6263857D01*
X42941857Y-6084252D01*
X42956000Y-6098395D01*
X43682953Y-5371442D01*
X43682953Y-5730652D01*
X43135605Y-6278000D01*
X43862558Y-7004953D01*
X44094229Y-6947991D01*
X44263981Y-6461410D01*
X44263981Y-9960116D01*
X44205429Y-9935804D01*
X43740611Y-9935398D01*
X43682953Y-9959221D01*
X43682953Y-7184558D01*
X42956000Y-6457605D01*
X42229047Y-7184558D01*
X42286009Y-7416229D01*
X42772590Y-7585981D01*
X43287094Y-7556605D01*
X43625991Y-7416229D01*
X43682953Y-7184558D01*
X43682953Y-9959221D01*
X43311019Y-10112901D01*
X42982057Y-10441291D01*
X42803804Y-10870571D01*
X42803398Y-11335389D01*
X42980901Y-11764981D01*
X43309291Y-12093943D01*
X43738571Y-12272196D01*
X44203389Y-12272602D01*
X44632981Y-12095099D01*
X44961943Y-11766709D01*
X45115156Y-11397730D01*
X45266901Y-11764981D01*
X45595291Y-12093943D01*
X46024571Y-12272196D01*
X46489389Y-12272602D01*
X46918981Y-12095099D01*
X47247943Y-11766709D01*
X47426196Y-11337429D01*
X47426602Y-10872611D01*
X47339579Y-10662000D01*
X48760410Y-10662000D01*
X48673804Y-10870571D01*
X48673398Y-11335389D01*
X48850901Y-11764981D01*
X49179291Y-12093943D01*
X49608571Y-12272196D01*
X50073389Y-12272602D01*
X50502981Y-12095099D01*
X50831943Y-11766709D01*
X50985156Y-11397730D01*
X51136901Y-11764981D01*
X51465291Y-12093943D01*
X51894571Y-12272196D01*
X52359389Y-12272602D01*
X52788981Y-12095099D01*
X53117943Y-11766709D01*
X53296196Y-11337429D01*
X53296602Y-10872611D01*
X53296602Y-36198943D01*
X52950000Y-36130000D01*
X52463992Y-36226673D01*
X52051974Y-36501974D01*
X51776673Y-36913992D01*
X51680000Y-37400000D01*
X51680000Y-37655000D01*
X50812843Y-37655000D01*
X50812843Y-24339518D01*
X50749200Y-24185489D01*
X50749200Y-22610702D01*
X50812557Y-22458123D01*
X50812843Y-22129718D01*
X50749200Y-21975689D01*
X50749200Y-20400902D01*
X50812557Y-20248323D01*
X50812843Y-19919918D01*
X50687433Y-19616402D01*
X50455419Y-19383983D01*
X50152123Y-19258043D01*
X49823718Y-19257757D01*
X49520202Y-19383167D01*
X49287783Y-19615181D01*
X49161843Y-19918477D01*
X49161557Y-20246882D01*
X49225200Y-20400910D01*
X49225200Y-21975697D01*
X49161843Y-22128277D01*
X49161557Y-22456682D01*
X49225200Y-22610710D01*
X49225200Y-24185497D01*
X49161843Y-24338077D01*
X49161557Y-24666482D01*
X49286967Y-24969998D01*
X49518981Y-25202417D01*
X49822277Y-25328357D01*
X50150682Y-25328643D01*
X50454198Y-25203233D01*
X50686617Y-24971219D01*
X50812557Y-24667923D01*
X50812843Y-24339518D01*
X50812843Y-37655000D01*
X45297000Y-37655000D01*
X45297000Y-15908309D01*
X45297000Y-15305750D01*
X45297000Y-14734250D01*
X45297000Y-14131691D01*
X45200327Y-13898302D01*
X45021699Y-13719673D01*
X44788310Y-13623000D01*
X44535691Y-13623000D01*
X44185750Y-13623000D01*
X44027000Y-13781750D01*
X44027000Y-14893000D01*
X45138250Y-14893000D01*
X45297000Y-14734250D01*
X45297000Y-15305750D01*
X45138250Y-15147000D01*
X44027000Y-15147000D01*
X44027000Y-15167000D01*
X43773000Y-15167000D01*
X43773000Y-15147000D01*
X43773000Y-14893000D01*
X43773000Y-13781750D01*
X43614250Y-13623000D01*
X43264309Y-13623000D01*
X43011690Y-13623000D01*
X42778301Y-13719673D01*
X42599673Y-13898302D01*
X42503000Y-14131691D01*
X42503000Y-14734250D01*
X42661750Y-14893000D01*
X43773000Y-14893000D01*
X43773000Y-15147000D01*
X42661750Y-15147000D01*
X42503000Y-15305750D01*
X42503000Y-15908309D01*
X42599673Y-16141698D01*
X42747974Y-16290000D01*
X42206205Y-16290000D01*
X42206200Y-16289999D01*
X41720192Y-16386673D01*
X41308174Y-16661974D01*
X41308171Y-16661977D01*
X38294174Y-19675974D01*
X38018873Y-20087992D01*
X37922199Y-20574000D01*
X38018873Y-21060008D01*
X38294174Y-21472026D01*
X38706192Y-21747327D01*
X39192200Y-21844001D01*
X39678208Y-21747327D01*
X40090226Y-21472026D01*
X42732251Y-18830000D01*
X43647957Y-18830000D01*
X43181542Y-19022718D01*
X42823974Y-19379663D01*
X42630221Y-19846273D01*
X42629780Y-20351510D01*
X42822718Y-20818458D01*
X43179663Y-21176026D01*
X43646273Y-21369779D01*
X43648487Y-21369780D01*
X43181542Y-21562718D01*
X42823974Y-21919663D01*
X42630221Y-22386273D01*
X42629780Y-22891510D01*
X42822718Y-23358458D01*
X43179663Y-23716026D01*
X43646273Y-23909779D01*
X44151510Y-23910220D01*
X44618458Y-23717282D01*
X44976026Y-23360337D01*
X45169779Y-22893727D01*
X45170220Y-22388490D01*
X44977282Y-21921542D01*
X44620337Y-21563974D01*
X44153727Y-21370221D01*
X44151512Y-21370219D01*
X44618458Y-21177282D01*
X44976026Y-20820337D01*
X45169779Y-20353727D01*
X45170220Y-19848490D01*
X44977282Y-19381542D01*
X44620337Y-19023974D01*
X44153727Y-18830221D01*
X44151512Y-18830219D01*
X44386008Y-18733327D01*
X44618458Y-18637282D01*
X44798026Y-18458026D01*
X44976026Y-18280337D01*
X45073327Y-18046008D01*
X45169779Y-17813727D01*
X45170000Y-17560000D01*
X45170220Y-17308490D01*
X45073327Y-17073992D01*
X44977282Y-16841542D01*
X44798026Y-16661974D01*
X44620337Y-16483974D01*
X44459045Y-16417000D01*
X44535691Y-16417000D01*
X44788310Y-16417000D01*
X45021699Y-16320327D01*
X45200327Y-16141698D01*
X45297000Y-15908309D01*
X45297000Y-37655000D01*
X45158218Y-37655000D01*
X45158218Y-24930866D01*
X44967103Y-24468331D01*
X44613530Y-24114141D01*
X44151330Y-23922219D01*
X43650866Y-23921782D01*
X43188331Y-24112897D01*
X42834141Y-24466470D01*
X42642219Y-24928670D01*
X42641782Y-25429134D01*
X42832897Y-25891669D01*
X43186470Y-26245859D01*
X43648670Y-26437781D01*
X44149134Y-26438218D01*
X44611669Y-26247103D01*
X44965859Y-25893530D01*
X45157781Y-25431330D01*
X45158218Y-24930866D01*
X45158218Y-37655000D01*
X36398200Y-37655000D01*
X36398200Y-30988000D01*
X36320862Y-30599194D01*
X36100620Y-30269580D01*
X35996602Y-30200077D01*
X35996602Y-10872611D01*
X35819099Y-10443019D01*
X35490709Y-10114057D01*
X35061429Y-9935804D01*
X34596611Y-9935398D01*
X34167019Y-10112901D01*
X33838057Y-10441291D01*
X33684843Y-10810269D01*
X33533099Y-10443019D01*
X33204709Y-10114057D01*
X32775429Y-9935804D01*
X32310611Y-9935398D01*
X31881019Y-10112901D01*
X31552057Y-10441291D01*
X31373804Y-10870571D01*
X31373398Y-11335389D01*
X31550901Y-11764981D01*
X31879291Y-12093943D01*
X32308571Y-12272196D01*
X32773389Y-12272602D01*
X33202981Y-12095099D01*
X33531943Y-11766709D01*
X33685156Y-11397730D01*
X33836901Y-11764981D01*
X34165291Y-12093943D01*
X34594571Y-12272196D01*
X35059389Y-12272602D01*
X35488981Y-12095099D01*
X35817943Y-11766709D01*
X35996196Y-11337429D01*
X35996602Y-10872611D01*
X35996602Y-30200077D01*
X35890201Y-30128981D01*
X35890201Y-24384000D01*
X35793527Y-23897992D01*
X35518226Y-23485974D01*
X35492826Y-23460574D01*
X35080808Y-23185273D01*
X34594800Y-23088599D01*
X34594794Y-23088600D01*
X29783222Y-23088600D01*
X29783222Y-2245915D01*
X29588308Y-1774189D01*
X29227710Y-1412960D01*
X28756324Y-1217224D01*
X28245915Y-1216778D01*
X27774189Y-1411692D01*
X27412960Y-1772290D01*
X27217224Y-2243676D01*
X27216778Y-2754085D01*
X27411692Y-3225811D01*
X27772290Y-3587040D01*
X28243676Y-3782776D01*
X28754085Y-3783222D01*
X29225811Y-3588308D01*
X29587040Y-3227710D01*
X29782776Y-2756324D01*
X29783222Y-2245915D01*
X29783222Y-23088600D01*
X29591000Y-23088600D01*
X29104992Y-23185273D01*
X28692974Y-23460574D01*
X28417673Y-23872592D01*
X28321000Y-24358600D01*
X28417673Y-24844608D01*
X28692974Y-25256626D01*
X29104992Y-25531927D01*
X29591000Y-25628600D01*
X34492501Y-25628600D01*
X34620200Y-25654001D01*
X35106208Y-25557327D01*
X35518226Y-25282026D01*
X35793527Y-24870008D01*
X35890201Y-24384000D01*
X35890201Y-30128981D01*
X35771006Y-30049338D01*
X35382200Y-29972000D01*
X32969200Y-29972000D01*
X31038800Y-29972000D01*
X30649994Y-30049338D01*
X30320380Y-30269580D01*
X30100138Y-30599194D01*
X30022800Y-30988000D01*
X30100138Y-31376806D01*
X30320380Y-31706420D01*
X30649994Y-31926662D01*
X31038800Y-32004000D01*
X32969200Y-32004000D01*
X35382200Y-32004000D01*
X35771006Y-31926662D01*
X36100620Y-31706420D01*
X36320862Y-31376806D01*
X36398200Y-30988000D01*
X36398200Y-37655000D01*
X32925000Y-37655000D01*
X32438992Y-37751673D01*
X32026974Y-38026974D01*
X31751673Y-38438992D01*
X31655000Y-38925000D01*
X31747892Y-39392000D01*
X26760000Y-39392000D01*
X26760000Y-4501310D01*
X26760000Y-4248691D01*
X26760000Y-4035750D01*
X26760000Y-3464250D01*
X26760000Y-3251309D01*
X26760000Y-2998690D01*
X26663327Y-2765301D01*
X26484698Y-2586673D01*
X26251309Y-2490000D01*
X25785750Y-2490000D01*
X25627000Y-2648750D01*
X25627000Y-3623000D01*
X26601250Y-3623000D01*
X26760000Y-3464250D01*
X26760000Y-4035750D01*
X26601250Y-3877000D01*
X25627000Y-3877000D01*
X25627000Y-4851250D01*
X25785750Y-5010000D01*
X26251309Y-5010000D01*
X26484698Y-4913327D01*
X26663327Y-4734699D01*
X26760000Y-4501310D01*
X26760000Y-39392000D01*
X26566003Y-39392000D01*
X26566003Y-12803218D01*
X26440593Y-12499702D01*
X26438860Y-12497965D01*
X26438860Y-8363454D01*
X26439777Y-8362539D01*
X26565717Y-8059243D01*
X26566003Y-7730838D01*
X26440593Y-7427322D01*
X26208579Y-7194903D01*
X25905283Y-7068963D01*
X25576878Y-7068677D01*
X25373000Y-7152917D01*
X25373000Y-4851250D01*
X25373000Y-3877000D01*
X25353000Y-3877000D01*
X25353000Y-3623000D01*
X25373000Y-3623000D01*
X25373000Y-2648750D01*
X25214250Y-2490000D01*
X24748691Y-2490000D01*
X24515302Y-2586673D01*
X24336673Y-2765301D01*
X24272524Y-2920169D01*
X24142631Y-2790049D01*
X23726356Y-2617197D01*
X23275621Y-2616804D01*
X22859045Y-2788929D01*
X22540049Y-3107369D01*
X22500115Y-3203540D01*
X22461071Y-3109045D01*
X22142631Y-2790049D01*
X21726356Y-2617197D01*
X21275621Y-2616804D01*
X20859045Y-2788929D01*
X20540049Y-3107369D01*
X20500115Y-3203540D01*
X20461071Y-3109045D01*
X20142631Y-2790049D01*
X19726356Y-2617197D01*
X19275621Y-2616804D01*
X18859045Y-2788929D01*
X18540049Y-3107369D01*
X18367197Y-3523644D01*
X18366804Y-3974379D01*
X18538929Y-4390955D01*
X18857369Y-4709951D01*
X19273644Y-4882803D01*
X19724379Y-4883196D01*
X20140955Y-4711071D01*
X20459951Y-4392631D01*
X20499884Y-4296459D01*
X20538929Y-4390955D01*
X20857369Y-4709951D01*
X21273644Y-4882803D01*
X21724379Y-4883196D01*
X22140955Y-4711071D01*
X22459951Y-4392631D01*
X22499884Y-4296459D01*
X22538929Y-4390955D01*
X22857369Y-4709951D01*
X23273644Y-4882803D01*
X23724379Y-4883196D01*
X24140955Y-4711071D01*
X24272495Y-4579760D01*
X24336673Y-4734699D01*
X24515302Y-4913327D01*
X24748691Y-5010000D01*
X25214250Y-5010000D01*
X25373000Y-4851250D01*
X25373000Y-7152917D01*
X25321005Y-7174401D01*
X25067083Y-7068963D01*
X24738678Y-7068677D01*
X24482805Y-7174401D01*
X24228883Y-7068963D01*
X23900478Y-7068677D01*
X23596962Y-7194087D01*
X23364543Y-7426101D01*
X23238603Y-7729397D01*
X23238317Y-8057802D01*
X23362920Y-8359364D01*
X23362920Y-12497565D01*
X23362003Y-12498481D01*
X23236063Y-12801777D01*
X23235777Y-13130182D01*
X23361187Y-13433698D01*
X23593201Y-13666117D01*
X23896497Y-13792057D01*
X24224902Y-13792343D01*
X24478981Y-13687359D01*
X24737237Y-13794597D01*
X25065642Y-13794883D01*
X25324580Y-13687891D01*
X25575437Y-13792057D01*
X25903842Y-13792343D01*
X26207358Y-13666933D01*
X26439777Y-13434919D01*
X26565717Y-13131623D01*
X26566003Y-12803218D01*
X26566003Y-39392000D01*
X25869000Y-39392000D01*
X25869000Y-34275848D01*
X25869000Y-34073753D01*
X25869000Y-32373753D01*
X25791662Y-32187042D01*
X25648759Y-32044139D01*
X25462048Y-31966800D01*
X25259953Y-31966800D01*
X24288160Y-31966800D01*
X24288160Y-22201848D01*
X24288160Y-21999753D01*
X24288160Y-20299753D01*
X24210822Y-20113042D01*
X24067919Y-19970139D01*
X23881208Y-19892800D01*
X23679113Y-19892800D01*
X21979113Y-19892800D01*
X21792402Y-19970138D01*
X21649499Y-20113041D01*
X21572160Y-20299752D01*
X21572160Y-20501847D01*
X21572160Y-22201847D01*
X21649498Y-22388558D01*
X21792401Y-22531461D01*
X21979112Y-22608800D01*
X22181207Y-22608800D01*
X23881207Y-22608800D01*
X24067918Y-22531462D01*
X24210821Y-22388559D01*
X24288160Y-22201848D01*
X24288160Y-31966800D01*
X23559953Y-31966800D01*
X23373242Y-32044138D01*
X23230339Y-32187041D01*
X23153000Y-32373752D01*
X23153000Y-32575847D01*
X23153000Y-34275847D01*
X23230338Y-34462558D01*
X23373241Y-34605461D01*
X23559952Y-34682800D01*
X23762047Y-34682800D01*
X25462047Y-34682800D01*
X25648758Y-34605462D01*
X25791661Y-34462559D01*
X25869000Y-34275848D01*
X25869000Y-39392000D01*
X22546965Y-39392000D01*
X22546965Y-35616777D01*
X22519778Y-35046546D01*
X22353864Y-34645995D01*
X22107745Y-34571861D01*
X21928139Y-34751466D01*
X21928139Y-34392255D01*
X21854005Y-34146136D01*
X21316777Y-33953035D01*
X20746546Y-33980222D01*
X20345995Y-34146136D01*
X20277125Y-34374778D01*
X20277125Y-22567577D01*
X20249938Y-21997346D01*
X20084024Y-21596795D01*
X19837905Y-21522661D01*
X19658299Y-21702266D01*
X19658299Y-21343055D01*
X19584165Y-21096936D01*
X19046937Y-20903835D01*
X18476706Y-20931022D01*
X18076155Y-21096936D01*
X18002021Y-21343055D01*
X18830160Y-22171195D01*
X19658299Y-21343055D01*
X19658299Y-21702266D01*
X19009765Y-22350800D01*
X19023907Y-22364942D01*
X18844302Y-22544547D01*
X18830160Y-22530405D01*
X18816017Y-22544547D01*
X18636412Y-22364942D01*
X18650555Y-22350800D01*
X17822415Y-21522661D01*
X17576296Y-21596795D01*
X17383195Y-22134023D01*
X17410382Y-22704254D01*
X17576296Y-23104805D01*
X17715734Y-23146805D01*
X17599499Y-23263041D01*
X17522160Y-23449752D01*
X17522160Y-23651847D01*
X17522160Y-25251847D01*
X17599498Y-25438558D01*
X17742401Y-25581461D01*
X17929112Y-25658800D01*
X18131207Y-25658800D01*
X19731207Y-25658800D01*
X19917918Y-25581462D01*
X20060821Y-25438559D01*
X20138160Y-25251848D01*
X20138160Y-25049753D01*
X20138160Y-23449753D01*
X20060822Y-23263042D01*
X19944585Y-23146805D01*
X20084024Y-23104805D01*
X20277125Y-22567577D01*
X20277125Y-34374778D01*
X20271861Y-34392255D01*
X21100000Y-35220395D01*
X21928139Y-34392255D01*
X21928139Y-34751466D01*
X21279605Y-35400000D01*
X21293747Y-35414142D01*
X21114142Y-35593747D01*
X21100000Y-35579605D01*
X21085857Y-35593747D01*
X20906252Y-35414142D01*
X20920395Y-35400000D01*
X20092255Y-34571861D01*
X19846136Y-34645995D01*
X19653035Y-35183223D01*
X19680222Y-35753454D01*
X19846136Y-36154005D01*
X19985574Y-36196005D01*
X19869339Y-36312241D01*
X19792000Y-36498952D01*
X19792000Y-36701047D01*
X19792000Y-38301047D01*
X19869338Y-38487758D01*
X20012241Y-38630661D01*
X20198952Y-38708000D01*
X20401047Y-38708000D01*
X22001047Y-38708000D01*
X22187758Y-38630662D01*
X22330661Y-38487759D01*
X22408000Y-38301048D01*
X22408000Y-38098953D01*
X22408000Y-36498953D01*
X22330662Y-36312242D01*
X22214425Y-36196005D01*
X22353864Y-36154005D01*
X22546965Y-35616777D01*
X22546965Y-39392000D01*
X15783222Y-39392000D01*
X15783222Y-2245915D01*
X15588308Y-1774189D01*
X15227710Y-1412960D01*
X14756324Y-1217224D01*
X14245915Y-1216778D01*
X13774189Y-1411692D01*
X13412960Y-1772290D01*
X13217224Y-2243676D01*
X13216778Y-2754085D01*
X13411692Y-3225811D01*
X13772290Y-3587040D01*
X14243676Y-3782776D01*
X14754085Y-3783222D01*
X15225811Y-3588308D01*
X15587040Y-3227710D01*
X15782776Y-2756324D01*
X15783222Y-2245915D01*
X15783222Y-39392000D01*
X12937227Y-39392000D01*
X12937227Y-8062554D01*
X12932730Y-6914838D01*
X12502169Y-5875375D01*
X12105467Y-5624138D01*
X11925862Y-5803743D01*
X11925862Y-5444533D01*
X11674625Y-5047831D01*
X11558508Y-5000266D01*
X11674625Y-4952169D01*
X11925862Y-4555467D01*
X10050000Y-2679605D01*
X9870395Y-2859210D01*
X8174138Y-4555467D01*
X8425375Y-4952169D01*
X8541491Y-4999733D01*
X8425375Y-5047831D01*
X8174138Y-5444533D01*
X10050000Y-7320395D01*
X11925862Y-5444533D01*
X11925862Y-5803743D01*
X10229605Y-7500000D01*
X12105467Y-9375862D01*
X12502169Y-9124625D01*
X12937227Y-8062554D01*
X12937227Y-39392000D01*
X11925862Y-39392000D01*
X11925862Y-9555467D01*
X10050000Y-7679605D01*
X9870395Y-7859210D01*
X9870395Y-7500000D01*
X7994533Y-5624138D01*
X7597831Y-5875375D01*
X7162773Y-6937446D01*
X7167270Y-8085162D01*
X7597831Y-9124625D01*
X7994533Y-9375862D01*
X9870395Y-7500000D01*
X9870395Y-7859210D01*
X8174138Y-9555467D01*
X8425375Y-9952169D01*
X9487446Y-10387227D01*
X10635162Y-10382730D01*
X11674625Y-9952169D01*
X11925862Y-9555467D01*
X11925862Y-39392000D01*
X11408000Y-39392000D01*
X11408000Y-14501048D01*
X11408000Y-14298953D01*
X11408000Y-12698953D01*
X11330662Y-12512242D01*
X11187759Y-12369339D01*
X11001048Y-12292000D01*
X10798953Y-12292000D01*
X9198953Y-12292000D01*
X9012242Y-12369338D01*
X8896005Y-12485574D01*
X8854005Y-12346136D01*
X8316777Y-12153035D01*
X7746546Y-12180222D01*
X7345995Y-12346136D01*
X7271861Y-12592255D01*
X8100000Y-13420395D01*
X8114142Y-13406252D01*
X8293747Y-13585857D01*
X8279605Y-13600000D01*
X8293747Y-13614142D01*
X8114142Y-13793747D01*
X8100000Y-13779605D01*
X7920395Y-13959210D01*
X7920395Y-13600000D01*
X7092255Y-12771861D01*
X6846136Y-12845995D01*
X6653035Y-13383223D01*
X6680222Y-13953454D01*
X6846136Y-14354005D01*
X7092255Y-14428139D01*
X7920395Y-13600000D01*
X7920395Y-13959210D01*
X7271861Y-14607745D01*
X7345995Y-14853864D01*
X7883223Y-15046965D01*
X8453454Y-15019778D01*
X8854005Y-14853864D01*
X8896005Y-14714425D01*
X9012241Y-14830661D01*
X9198952Y-14908000D01*
X9401047Y-14908000D01*
X11001047Y-14908000D01*
X11187758Y-14830662D01*
X11330661Y-14687759D01*
X11408000Y-14501048D01*
X11408000Y-39392000D01*
X5437227Y-39392000D01*
X5437227Y-8062554D01*
X5432730Y-6914838D01*
X5002169Y-5875375D01*
X4605467Y-5624138D01*
X4425862Y-5803743D01*
X2729605Y-7500000D01*
X4605467Y-9375862D01*
X5002169Y-9124625D01*
X5437227Y-8062554D01*
X5437227Y-39392000D01*
X4425862Y-39392000D01*
X608000Y-39392000D01*
X608000Y-9621608D01*
X674139Y-9555468D01*
X925375Y-9952169D01*
X1987446Y-10387227D01*
X3135162Y-10382730D01*
X4174625Y-9952169D01*
X4425862Y-9555467D01*
X2550000Y-7679605D01*
X2535857Y-7693747D01*
X2356252Y-7514142D01*
X2370395Y-7500000D01*
X2356252Y-7485857D01*
X2535857Y-7306252D01*
X2550000Y-7320395D01*
X4425862Y-5444533D01*
X4174625Y-5047831D01*
X4058508Y-5000266D01*
X4174625Y-4952169D01*
X4425862Y-4555467D01*
X2550000Y-2679605D01*
X2535857Y-2693747D01*
X2356252Y-2514142D01*
X2370395Y-2500000D01*
X2356252Y-2485857D01*
X2535857Y-2306252D01*
X2550000Y-2320395D01*
X2564142Y-2306252D01*
X2743747Y-2485857D01*
X2729605Y-2500000D01*
X4605467Y-4375862D01*
X5002169Y-4124625D01*
X5437227Y-3062554D01*
X5432730Y-1914838D01*
X5002169Y-875375D01*
X4605468Y-624139D01*
X4621608Y-608000D01*
X7978392Y-608000D01*
X7994531Y-624139D01*
X7597831Y-875375D01*
X7162773Y-1937446D01*
X7167270Y-3085162D01*
X7597831Y-4124625D01*
X7994533Y-4375862D01*
X9870395Y-2500000D01*
X9856252Y-2485857D01*
X10035857Y-2306252D01*
X10050000Y-2320395D01*
X10064142Y-2306252D01*
X10243747Y-2485857D01*
X10229605Y-2500000D01*
X12105467Y-4375862D01*
X12502169Y-4124625D01*
X12937227Y-3062554D01*
X12932730Y-1914838D01*
X12502169Y-875375D01*
X12105468Y-624139D01*
X12121608Y-608000D01*
X31384358Y-608000D01*
X31242276Y-749835D01*
X30916771Y-1533739D01*
X30916030Y-2382537D01*
X31240167Y-3167009D01*
X31839835Y-3767724D01*
X32623739Y-4093229D01*
X33472537Y-4093970D01*
X34257009Y-3769833D01*
X34857724Y-3170165D01*
X35183229Y-2386261D01*
X35183970Y-1537463D01*
X34859833Y-752991D01*
X34715094Y-608000D01*
X44084358Y-608000D01*
X43942276Y-749835D01*
X43616771Y-1533739D01*
X43616030Y-2382537D01*
X43940167Y-3167009D01*
X44539835Y-3767724D01*
X45323739Y-4093229D01*
X46172537Y-4093970D01*
X46957009Y-3769833D01*
X47557724Y-3170165D01*
X47883229Y-2386261D01*
X47883970Y-1537463D01*
X47559833Y-752991D01*
X47415094Y-608000D01*
X48684358Y-608000D01*
X48542276Y-749835D01*
X48216771Y-1533739D01*
X48216030Y-2382537D01*
X48540167Y-3167009D01*
X49139835Y-3767724D01*
X49923739Y-4093229D01*
X50772537Y-4093970D01*
X51557009Y-3769833D01*
X52157724Y-3170165D01*
X52483229Y-2386261D01*
X52483970Y-1537463D01*
X52159833Y-752991D01*
X52015094Y-608000D01*
X61384358Y-608000D01*
X61242276Y-749835D01*
X60916771Y-1533739D01*
X60916030Y-2382537D01*
X61240167Y-3167009D01*
X61839835Y-3767724D01*
X62623739Y-4093229D01*
X63472537Y-4093970D01*
X64257009Y-3769833D01*
X64857724Y-3170165D01*
X65183229Y-2386261D01*
X65183970Y-1537463D01*
X64859833Y-752991D01*
X64715094Y-608000D01*
X66278392Y-608000D01*
X66294531Y-624139D01*
X65897831Y-875375D01*
X65462773Y-1937446D01*
X65467270Y-3085162D01*
X65897831Y-4124625D01*
X66294533Y-4375862D01*
X68170395Y-2500000D01*
X68156252Y-2485857D01*
X68335857Y-2306252D01*
X68350000Y-2320395D01*
X68364142Y-2306252D01*
X68543747Y-2485857D01*
X68529605Y-2500000D01*
X70405467Y-4375862D01*
X70802169Y-4124625D01*
X71237227Y-3062554D01*
X71232730Y-1914838D01*
X70802169Y-875375D01*
X70405468Y-624139D01*
X70421608Y-608000D01*
X73778392Y-608000D01*
X73794531Y-624139D01*
X73397831Y-875375D01*
X72962773Y-1937446D01*
X72967270Y-3085162D01*
X73397831Y-4124625D01*
X73794533Y-4375862D01*
X75670395Y-2500000D01*
X75656252Y-2485857D01*
X75835857Y-2306252D01*
X75850000Y-2320395D01*
X75864142Y-2306252D01*
X76043747Y-2485857D01*
X76029605Y-2500000D01*
X76043747Y-2514142D01*
X75864142Y-2693747D01*
X75850000Y-2679605D01*
X75670395Y-2859210D01*
X73974138Y-4555467D01*
X74225375Y-4952169D01*
X74341491Y-4999733D01*
X74225375Y-5047831D01*
X73974138Y-5444533D01*
X75850000Y-7320395D01*
X75864142Y-7306252D01*
X76043747Y-7485857D01*
X76029605Y-7500000D01*
X76043747Y-7514142D01*
X75864142Y-7693747D01*
X75850000Y-7679605D01*
X75670395Y-7859210D01*
X75670395Y-7500000D01*
X73794533Y-5624138D01*
X73397831Y-5875375D01*
X72962773Y-6937446D01*
X72967270Y-8085162D01*
X73397831Y-9124625D01*
X73794533Y-9375862D01*
X75670395Y-7500000D01*
X75670395Y-7859210D01*
X73974138Y-9555467D01*
X74225375Y-9952169D01*
X75287446Y-10387227D01*
X76435162Y-10382730D01*
X77474625Y-9952169D01*
X77725860Y-9555468D01*
X77725862Y-9555470D01*
X77792000Y-9621608D01*
X77792000Y-11633200D01*
X77725862Y-11633200D01*
X71237227Y-11633200D01*
X71237227Y-8062554D01*
X71232730Y-6914838D01*
X70802169Y-5875375D01*
X70405467Y-5624138D01*
X70225862Y-5803743D01*
X70225862Y-5444533D01*
X69974625Y-5047831D01*
X69858508Y-5000266D01*
X69974625Y-4952169D01*
X70225862Y-4555467D01*
X68350000Y-2679605D01*
X68170395Y-2859210D01*
X66474138Y-4555467D01*
X66725375Y-4952169D01*
X66841491Y-4999733D01*
X66725375Y-5047831D01*
X66474138Y-5444533D01*
X68350000Y-7320395D01*
X70225862Y-5444533D01*
X70225862Y-5803743D01*
X68529605Y-7500000D01*
X70405467Y-9375862D01*
X70802169Y-9124625D01*
X71237227Y-8062554D01*
X71237227Y-11633200D01*
X70225862Y-11633200D01*
X70225862Y-9555467D01*
X68350000Y-7679605D01*
X68170395Y-7859210D01*
X68170395Y-7500000D01*
X66294533Y-5624138D01*
X65897831Y-5875375D01*
X65462773Y-6937446D01*
X65467270Y-8085162D01*
X65897831Y-9124625D01*
X66294533Y-9375862D01*
X68170395Y-7500000D01*
X68170395Y-7859210D01*
X66474138Y-9555467D01*
X66725375Y-9952169D01*
X67787446Y-10387227D01*
X68935162Y-10382730D01*
X69974625Y-9952169D01*
X70225862Y-9555467D01*
X70225862Y-11633200D01*
X68183701Y-11633200D01*
X66319400Y-12964844D01*
X66319400Y-23061948D01*
X64726602Y-24678637D01*
X64726602Y-10872611D01*
X64549099Y-10443019D01*
X64220709Y-10114057D01*
X63791429Y-9935804D01*
X63326611Y-9935398D01*
X62897019Y-10112901D01*
X62568057Y-10441291D01*
X62414843Y-10810269D01*
X62263099Y-10443019D01*
X61934709Y-10114057D01*
X61563981Y-9960116D01*
X61563981Y-6461410D01*
X61534605Y-5946906D01*
X61394229Y-5608009D01*
X61162558Y-5551047D01*
X60982953Y-5730652D01*
X60982953Y-5371442D01*
X60925991Y-5139771D01*
X60447061Y-4972688D01*
X60547981Y-4683410D01*
X60518605Y-4168906D01*
X60378229Y-3830009D01*
X60146558Y-3773047D01*
X59966953Y-3952652D01*
X59966953Y-3593442D01*
X59909991Y-3361771D01*
X59423410Y-3192019D01*
X58908906Y-3221395D01*
X58570009Y-3361771D01*
X58513047Y-3593442D01*
X59240000Y-4320395D01*
X59966953Y-3593442D01*
X59966953Y-3952652D01*
X59419605Y-4500000D01*
X59433747Y-4514142D01*
X59254142Y-4693747D01*
X59240000Y-4679605D01*
X59225857Y-4693747D01*
X59046252Y-4514142D01*
X59060395Y-4500000D01*
X58333442Y-3773047D01*
X58172696Y-3812570D01*
X57870709Y-3510057D01*
X57441429Y-3331804D01*
X56976611Y-3331398D01*
X56547019Y-3508901D01*
X56218057Y-3837291D01*
X56192157Y-3899664D01*
X56167099Y-3839019D01*
X55838709Y-3510057D01*
X55409429Y-3331804D01*
X54944611Y-3331398D01*
X54515019Y-3508901D01*
X54186057Y-3837291D01*
X54160157Y-3899664D01*
X54135099Y-3839019D01*
X53806709Y-3510057D01*
X53377429Y-3331804D01*
X52912611Y-3331398D01*
X52483019Y-3508901D01*
X52154057Y-3837291D01*
X51975804Y-4266571D01*
X51975398Y-4731389D01*
X52152901Y-5160981D01*
X52481291Y-5489943D01*
X52910571Y-5668196D01*
X53148002Y-5668403D01*
X52991804Y-6044571D01*
X52991398Y-6509389D01*
X53168901Y-6938981D01*
X53497291Y-7267943D01*
X53926571Y-7446196D01*
X54391389Y-7446602D01*
X54820981Y-7269099D01*
X55149943Y-6940709D01*
X55175842Y-6878335D01*
X55200901Y-6938981D01*
X55303000Y-7041257D01*
X55303000Y-8576443D01*
X55247665Y-8709705D01*
X55247347Y-9074627D01*
X54936518Y-9074357D01*
X54633002Y-9199767D01*
X54400583Y-9431781D01*
X54274643Y-9735077D01*
X54274357Y-10063482D01*
X54399767Y-10366998D01*
X54631781Y-10599417D01*
X54935077Y-10725357D01*
X55263482Y-10725643D01*
X55417510Y-10662000D01*
X58782497Y-10662000D01*
X58935077Y-10725357D01*
X59263482Y-10725643D01*
X59566998Y-10600233D01*
X59799417Y-10368219D01*
X59925357Y-10064923D01*
X59925643Y-9736518D01*
X59800233Y-9433002D01*
X59568219Y-9200583D01*
X59264923Y-9074643D01*
X58936518Y-9074357D01*
X58782489Y-9138000D01*
X57132526Y-9138000D01*
X57152335Y-9090295D01*
X57152665Y-8711367D01*
X57081000Y-8537924D01*
X57081000Y-7041476D01*
X57181943Y-6940709D01*
X57207842Y-6878335D01*
X57232901Y-6938981D01*
X57561291Y-7267943D01*
X57990571Y-7446196D01*
X58455389Y-7446602D01*
X58884981Y-7269099D01*
X59189083Y-6965524D01*
X59349442Y-7004953D01*
X60076395Y-6278000D01*
X60062252Y-6263857D01*
X60241857Y-6084252D01*
X60256000Y-6098395D01*
X60982953Y-5371442D01*
X60982953Y-5730652D01*
X60435605Y-6278000D01*
X61162558Y-7004953D01*
X61394229Y-6947991D01*
X61563981Y-6461410D01*
X61563981Y-9960116D01*
X61505429Y-9935804D01*
X61040611Y-9935398D01*
X60982953Y-9959221D01*
X60982953Y-7184558D01*
X60256000Y-6457605D01*
X59529047Y-7184558D01*
X59586009Y-7416229D01*
X60072590Y-7585981D01*
X60587094Y-7556605D01*
X60925991Y-7416229D01*
X60982953Y-7184558D01*
X60982953Y-9959221D01*
X60611019Y-10112901D01*
X60282057Y-10441291D01*
X60103804Y-10870571D01*
X60103398Y-11335389D01*
X60280901Y-11764981D01*
X60609291Y-12093943D01*
X61038571Y-12272196D01*
X61503389Y-12272602D01*
X61932981Y-12095099D01*
X62261943Y-11766709D01*
X62415156Y-11397730D01*
X62566901Y-11764981D01*
X62895291Y-12093943D01*
X63324571Y-12272196D01*
X63789389Y-12272602D01*
X64218981Y-12095099D01*
X64547943Y-11766709D01*
X64726196Y-11337429D01*
X64726602Y-10872611D01*
X64726602Y-24678637D01*
X61187461Y-28270866D01*
X61557453Y-28640858D01*
X66827400Y-23305849D01*
X66827400Y-13222254D01*
X68328863Y-12141200D01*
X74523779Y-12141200D01*
X74432139Y-12232841D01*
X74354800Y-12419552D01*
X74354800Y-12621647D01*
X74354800Y-14145647D01*
X74432138Y-14332358D01*
X74575041Y-14475261D01*
X74761752Y-14552600D01*
X74963847Y-14552600D01*
X75372757Y-14552600D01*
X74906342Y-14745318D01*
X74548774Y-15102263D01*
X74355021Y-15568873D01*
X74354580Y-16074110D01*
X74547518Y-16541058D01*
X74904463Y-16898626D01*
X75371073Y-17092379D01*
X75373287Y-17092380D01*
X74906342Y-17285318D01*
X74548774Y-17642263D01*
X74355021Y-18108873D01*
X74354580Y-18614110D01*
X74547518Y-19081058D01*
X74904463Y-19438626D01*
X75069607Y-19507200D01*
X70711795Y-19507200D01*
X69113400Y-21105595D01*
X69113400Y-28220920D01*
X66501661Y-31079539D01*
X66880300Y-31377041D01*
X69583300Y-28382541D01*
X69583300Y-21287005D01*
X70893205Y-19977100D01*
X77792000Y-19977100D01*
X77792000Y-39392000D01*
X77792000Y-39392000D01*
G37*
X77792000Y-39392000D02*
X77021800Y-39392000D01*
X77021800Y-23440909D01*
X77021800Y-22838350D01*
X77021800Y-22266850D01*
X77021800Y-21664291D01*
X76925127Y-21430902D01*
X76746499Y-21252273D01*
X76513110Y-21155600D01*
X76260491Y-21155600D01*
X75910550Y-21155600D01*
X75751800Y-21314350D01*
X75751800Y-22425600D01*
X76863050Y-22425600D01*
X77021800Y-22266850D01*
X77021800Y-22838350D01*
X76863050Y-22679600D01*
X75751800Y-22679600D01*
X75751800Y-22699600D01*
X75497800Y-22699600D01*
X75497800Y-22679600D01*
X75497800Y-22425600D01*
X75497800Y-21314350D01*
X75339050Y-21155600D01*
X74989109Y-21155600D01*
X74736490Y-21155600D01*
X74503101Y-21252273D01*
X74324473Y-21430902D01*
X74227800Y-21664291D01*
X74227800Y-22266850D01*
X74386550Y-22425600D01*
X75497800Y-22425600D01*
X75497800Y-22679600D01*
X74386550Y-22679600D01*
X74227800Y-22838350D01*
X74227800Y-23440909D01*
X74324473Y-23674298D01*
X74503101Y-23852927D01*
X74736490Y-23949600D01*
X74989109Y-23949600D01*
X75065392Y-23949600D01*
X74906342Y-24015318D01*
X74548774Y-24372263D01*
X74355021Y-24838873D01*
X74354580Y-25344110D01*
X74547518Y-25811058D01*
X74904463Y-26168626D01*
X75371073Y-26362379D01*
X75876310Y-26362820D01*
X76343258Y-26169882D01*
X76700826Y-25812937D01*
X76894579Y-25346327D01*
X76895020Y-24841090D01*
X76702082Y-24374142D01*
X76345137Y-24016574D01*
X76183845Y-23949600D01*
X76260491Y-23949600D01*
X76513110Y-23949600D01*
X76746499Y-23852927D01*
X76925127Y-23674298D01*
X77021800Y-23440909D01*
X77021800Y-39392000D01*
X76875020Y-39392000D01*
X76875020Y-36741090D01*
X76682082Y-36274142D01*
X76325137Y-35916574D01*
X75858527Y-35722821D01*
X75605335Y-35722600D01*
X76467847Y-35722600D01*
X76654558Y-35645262D01*
X76797461Y-35502359D01*
X76874800Y-35315648D01*
X76874800Y-35113553D01*
X76874800Y-33589553D01*
X76797462Y-33402842D01*
X76654559Y-33259939D01*
X76467848Y-33182600D01*
X76265753Y-33182600D01*
X74741753Y-33182600D01*
X74555042Y-33259938D01*
X74412139Y-33402841D01*
X74334800Y-33589552D01*
X74334800Y-33791647D01*
X74334800Y-33836380D01*
X74287197Y-33721457D01*
X74045013Y-33651992D01*
X73865408Y-33831597D01*
X73865408Y-33472387D01*
X73795943Y-33230203D01*
X73272498Y-33043456D01*
X72717432Y-33071238D01*
X72333657Y-33230203D01*
X72264192Y-33472387D01*
X73064800Y-34272995D01*
X73865408Y-33472387D01*
X73865408Y-33831597D01*
X73244405Y-34452600D01*
X74045013Y-35253208D01*
X74287197Y-35183743D01*
X74334800Y-35050313D01*
X74334800Y-35315647D01*
X74412138Y-35502358D01*
X74555041Y-35645261D01*
X74741752Y-35722600D01*
X74943847Y-35722600D01*
X75352757Y-35722600D01*
X74886342Y-35915318D01*
X74528774Y-36272263D01*
X74335021Y-36738873D01*
X74335019Y-36741087D01*
X74142082Y-36274142D01*
X73785137Y-35916574D01*
X73499283Y-35797877D01*
X73795943Y-35674997D01*
X73865408Y-35432813D01*
X73064800Y-34632205D01*
X72885195Y-34811810D01*
X72885195Y-34452600D01*
X72084587Y-33651992D01*
X71842403Y-33721457D01*
X71798347Y-33844944D01*
X71747197Y-33721457D01*
X71505013Y-33651992D01*
X71325408Y-33831597D01*
X71325408Y-33472387D01*
X71255943Y-33230203D01*
X70732498Y-33043456D01*
X70177432Y-33071238D01*
X69793657Y-33230203D01*
X69724192Y-33472387D01*
X70524800Y-34272995D01*
X71325408Y-33472387D01*
X71325408Y-33831597D01*
X70704405Y-34452600D01*
X71505013Y-35253208D01*
X71747197Y-35183743D01*
X71791252Y-35060255D01*
X71842403Y-35183743D01*
X72084587Y-35253208D01*
X72885195Y-34452600D01*
X72885195Y-34811810D01*
X72264192Y-35432813D01*
X72333657Y-35674997D01*
X72652587Y-35788780D01*
X72346342Y-35915318D01*
X71988774Y-36272263D01*
X71795021Y-36738873D01*
X71795019Y-36741087D01*
X71602082Y-36274142D01*
X71245137Y-35916574D01*
X70959283Y-35797877D01*
X71255943Y-35674997D01*
X71325408Y-35432813D01*
X70524800Y-34632205D01*
X70345195Y-34811810D01*
X70345195Y-34452600D01*
X69544587Y-33651992D01*
X69302403Y-33721457D01*
X69258347Y-33844944D01*
X69207197Y-33721457D01*
X68965013Y-33651992D01*
X68785408Y-33831597D01*
X68785408Y-33472387D01*
X68715943Y-33230203D01*
X68192498Y-33043456D01*
X67637432Y-33071238D01*
X67253657Y-33230203D01*
X67184192Y-33472387D01*
X67984800Y-34272995D01*
X68785408Y-33472387D01*
X68785408Y-33831597D01*
X68164405Y-34452600D01*
X68965013Y-35253208D01*
X69207197Y-35183743D01*
X69251252Y-35060255D01*
X69302403Y-35183743D01*
X69544587Y-35253208D01*
X70345195Y-34452600D01*
X70345195Y-34811810D01*
X69724192Y-35432813D01*
X69793657Y-35674997D01*
X70112587Y-35788780D01*
X69806342Y-35915318D01*
X69448774Y-36272263D01*
X69255021Y-36738873D01*
X69255019Y-36741087D01*
X69062082Y-36274142D01*
X68705137Y-35916574D01*
X68419283Y-35797877D01*
X68715943Y-35674997D01*
X68785408Y-35432813D01*
X67984800Y-34632205D01*
X67805195Y-34811810D01*
X67805195Y-34452600D01*
X67004587Y-33651992D01*
X66762403Y-33721457D01*
X66718347Y-33844944D01*
X66667197Y-33721457D01*
X66425013Y-33651992D01*
X66245408Y-33831597D01*
X66245408Y-33472387D01*
X66175943Y-33230203D01*
X65652498Y-33043456D01*
X65097432Y-33071238D01*
X64713657Y-33230203D01*
X64644192Y-33472387D01*
X65444800Y-34272995D01*
X66245408Y-33472387D01*
X66245408Y-33831597D01*
X65624405Y-34452600D01*
X66425013Y-35253208D01*
X66667197Y-35183743D01*
X66711252Y-35060255D01*
X66762403Y-35183743D01*
X67004587Y-35253208D01*
X67805195Y-34452600D01*
X67805195Y-34811810D01*
X67184192Y-35432813D01*
X67253657Y-35674997D01*
X67572587Y-35788780D01*
X67266342Y-35915318D01*
X66908774Y-36272263D01*
X66715021Y-36738873D01*
X66715019Y-36741087D01*
X66522082Y-36274142D01*
X66165137Y-35916574D01*
X65879283Y-35797877D01*
X66175943Y-35674997D01*
X66245408Y-35432813D01*
X65444800Y-34632205D01*
X65265195Y-34811810D01*
X65265195Y-34452600D01*
X64477980Y-33665385D01*
X64478043Y-33593118D01*
X64450443Y-33526320D01*
X64450443Y-31659118D01*
X64325033Y-31355602D01*
X64093019Y-31123183D01*
X63789723Y-30997243D01*
X63461318Y-30996957D01*
X63157802Y-31122367D01*
X63156065Y-31124100D01*
X61593934Y-31124100D01*
X61593019Y-31123183D01*
X61289723Y-30997243D01*
X60961318Y-30996957D01*
X60852665Y-31041851D01*
X60852665Y-18511367D01*
X60707961Y-18161157D01*
X60440253Y-17892980D01*
X60252665Y-17815086D01*
X60252665Y-12011367D01*
X60107961Y-11661157D01*
X59840253Y-11392980D01*
X59490295Y-11247665D01*
X59111367Y-11247335D01*
X58761157Y-11392039D01*
X58715115Y-11438000D01*
X55585194Y-11438000D01*
X55540253Y-11392980D01*
X55190295Y-11247665D01*
X54811367Y-11247335D01*
X54461157Y-11392039D01*
X54192980Y-11659747D01*
X54047665Y-12009705D01*
X54047335Y-12388633D01*
X54192039Y-12738843D01*
X54459747Y-13007020D01*
X54809705Y-13152335D01*
X55188633Y-13152665D01*
X55538843Y-13007961D01*
X55584884Y-12962000D01*
X58714805Y-12962000D01*
X58759747Y-13007020D01*
X59109705Y-13152335D01*
X59488633Y-13152665D01*
X59838843Y-13007961D01*
X60107020Y-12740253D01*
X60252335Y-12390295D01*
X60252665Y-12011367D01*
X60252665Y-17815086D01*
X60090295Y-17747665D01*
X59711367Y-17747335D01*
X59557286Y-17811000D01*
X55042822Y-17811000D01*
X54890295Y-17747665D01*
X54511367Y-17747335D01*
X54161157Y-17892039D01*
X53892980Y-18159747D01*
X53747665Y-18509705D01*
X53747335Y-18888633D01*
X53892039Y-19238843D01*
X54159747Y-19507020D01*
X54509705Y-19652335D01*
X54888633Y-19652665D01*
X55042713Y-19589000D01*
X59557177Y-19589000D01*
X59709705Y-19652335D01*
X60088633Y-19652665D01*
X60438843Y-19507961D01*
X60707020Y-19240253D01*
X60852335Y-18890295D01*
X60852665Y-18511367D01*
X60852665Y-31041851D01*
X60657802Y-31122367D01*
X60425383Y-31354381D01*
X60299443Y-31657677D01*
X60299157Y-31986082D01*
X60424567Y-32289598D01*
X60656581Y-32522017D01*
X60959877Y-32647957D01*
X61288282Y-32648243D01*
X61591798Y-32522833D01*
X61593534Y-32521100D01*
X63155665Y-32521100D01*
X63156581Y-32522017D01*
X63459877Y-32647957D01*
X63788282Y-32648243D01*
X64091798Y-32522833D01*
X64324217Y-32290819D01*
X64450157Y-31987523D01*
X64450443Y-31659118D01*
X64450443Y-33526320D01*
X64352633Y-33289602D01*
X64120619Y-33057183D01*
X63817323Y-32931243D01*
X63488918Y-32930957D01*
X63185402Y-33056367D01*
X63183665Y-33058100D01*
X59927875Y-33058100D01*
X59893019Y-33023183D01*
X59589723Y-32897243D01*
X59261318Y-32896957D01*
X58957802Y-33022367D01*
X58725383Y-33254381D01*
X58599443Y-33557677D01*
X58599157Y-33886082D01*
X58724567Y-34189598D01*
X58956581Y-34422017D01*
X59259877Y-34547957D01*
X59588282Y-34548243D01*
X59813705Y-34455100D01*
X63183265Y-34455100D01*
X63184181Y-34456017D01*
X63487477Y-34581957D01*
X63815882Y-34582243D01*
X64047745Y-34486439D01*
X64063438Y-34799968D01*
X64222403Y-35183743D01*
X64464587Y-35253208D01*
X65265195Y-34452600D01*
X65265195Y-34811810D01*
X64644192Y-35432813D01*
X64713657Y-35674997D01*
X65032587Y-35788780D01*
X64726342Y-35915318D01*
X64368774Y-36272263D01*
X64175021Y-36738873D01*
X64174580Y-37244110D01*
X64367518Y-37711058D01*
X64724463Y-38068626D01*
X65191073Y-38262379D01*
X65696310Y-38262820D01*
X66163258Y-38069882D01*
X66520826Y-37712937D01*
X66714579Y-37246327D01*
X66714580Y-37244112D01*
X66907518Y-37711058D01*
X67264463Y-38068626D01*
X67731073Y-38262379D01*
X68236310Y-38262820D01*
X68703258Y-38069882D01*
X69060826Y-37712937D01*
X69254579Y-37246327D01*
X69254580Y-37244112D01*
X69447518Y-37711058D01*
X69804463Y-38068626D01*
X70271073Y-38262379D01*
X70776310Y-38262820D01*
X71243258Y-38069882D01*
X71600826Y-37712937D01*
X71794579Y-37246327D01*
X71794580Y-37244112D01*
X71987518Y-37711058D01*
X72344463Y-38068626D01*
X72811073Y-38262379D01*
X73316310Y-38262820D01*
X73783258Y-38069882D01*
X74140826Y-37712937D01*
X74334579Y-37246327D01*
X74334580Y-37244112D01*
X74527518Y-37711058D01*
X74884463Y-38068626D01*
X75351073Y-38262379D01*
X75856310Y-38262820D01*
X76323258Y-38069882D01*
X76680826Y-37712937D01*
X76874579Y-37246327D01*
X76875020Y-36741090D01*
X76875020Y-39392000D01*
X58858081Y-39392000D01*
X58953400Y-38912800D01*
X58856727Y-38426792D01*
X58581425Y-38014775D01*
X58169408Y-37739473D01*
X57924832Y-37690823D01*
X57924832Y-22277294D01*
X57809068Y-21997126D01*
X57594902Y-21782585D01*
X57314936Y-21666333D01*
X57011794Y-21666068D01*
X56857794Y-21729700D01*
X56007040Y-21729700D01*
X55854436Y-21666333D01*
X55551294Y-21666068D01*
X55271126Y-21781832D01*
X55056585Y-21995998D01*
X54940333Y-22275964D01*
X54940068Y-22579106D01*
X55055832Y-22859274D01*
X55269998Y-23073815D01*
X55549964Y-23190067D01*
X55853106Y-23190332D01*
X56007105Y-23126700D01*
X56857859Y-23126700D01*
X57010464Y-23190067D01*
X57313606Y-23190332D01*
X57593774Y-23074568D01*
X57808315Y-22860402D01*
X57924567Y-22580436D01*
X57924832Y-22277294D01*
X57924832Y-37690823D01*
X57683400Y-37642800D01*
X57622066Y-37655000D01*
X54220000Y-37655000D01*
X54220000Y-37400000D01*
X54123327Y-36913992D01*
X53848026Y-36501974D01*
X53436008Y-36226673D01*
X53296602Y-36198943D01*
X53296602Y-10872611D01*
X53119099Y-10443019D01*
X52790709Y-10114057D01*
X52361429Y-9935804D01*
X52013129Y-9935499D01*
X51438815Y-9361185D01*
X51191605Y-9196004D01*
X50900000Y-9138000D01*
X45817502Y-9138000D01*
X45664923Y-9074643D01*
X45336518Y-9074357D01*
X45033002Y-9199767D01*
X44800583Y-9431781D01*
X44674643Y-9735077D01*
X44674357Y-10063482D01*
X44738012Y-10217540D01*
X44634709Y-10114057D01*
X44263981Y-9960116D01*
X44263981Y-6461410D01*
X44234605Y-5946906D01*
X44094229Y-5608009D01*
X43862558Y-5551047D01*
X43682953Y-5730652D01*
X43682953Y-5371442D01*
X43625991Y-5139771D01*
X43147061Y-4972688D01*
X43247981Y-4683410D01*
X43218605Y-4168906D01*
X43078229Y-3830009D01*
X42846558Y-3773047D01*
X42666953Y-3952652D01*
X42666953Y-3593442D01*
X42609991Y-3361771D01*
X42123410Y-3192019D01*
X41608906Y-3221395D01*
X41270009Y-3361771D01*
X41213047Y-3593442D01*
X41940000Y-4320395D01*
X42666953Y-3593442D01*
X42666953Y-3952652D01*
X42119605Y-4500000D01*
X42133747Y-4514142D01*
X41954142Y-4693747D01*
X41940000Y-4679605D01*
X41925857Y-4693747D01*
X41746252Y-4514142D01*
X41760395Y-4500000D01*
X41033442Y-3773047D01*
X40872696Y-3812570D01*
X40570709Y-3510057D01*
X40141429Y-3331804D01*
X39676611Y-3331398D01*
X39247019Y-3508901D01*
X38918057Y-3837291D01*
X38892157Y-3899664D01*
X38867099Y-3839019D01*
X38538709Y-3510057D01*
X38109429Y-3331804D01*
X37644611Y-3331398D01*
X37215019Y-3508901D01*
X36886057Y-3837291D01*
X36860157Y-3899664D01*
X36835099Y-3839019D01*
X36506709Y-3510057D01*
X36077429Y-3331804D01*
X35612611Y-3331398D01*
X35183019Y-3508901D01*
X34854057Y-3837291D01*
X34675804Y-4266571D01*
X34675398Y-4731389D01*
X34852901Y-5160981D01*
X35181291Y-5489943D01*
X35610571Y-5668196D01*
X35848002Y-5668403D01*
X35691804Y-6044571D01*
X35691398Y-6509389D01*
X35868901Y-6938981D01*
X36197291Y-7267943D01*
X36626571Y-7446196D01*
X37091389Y-7446602D01*
X37520981Y-7269099D01*
X37849943Y-6940709D01*
X37875842Y-6878335D01*
X37900901Y-6938981D01*
X38229291Y-7267943D01*
X38658571Y-7446196D01*
X39123389Y-7446602D01*
X39552981Y-7269099D01*
X39881943Y-6940709D01*
X39907842Y-6878335D01*
X39932901Y-6938981D01*
X40261291Y-7267943D01*
X40690571Y-7446196D01*
X41155389Y-7446602D01*
X41584981Y-7269099D01*
X41889083Y-6965524D01*
X42049442Y-7004953D01*
X42776395Y-6278000D01*
X42762252Y-6263857D01*
X42941857Y-6084252D01*
X42956000Y-6098395D01*
X43682953Y-5371442D01*
X43682953Y-5730652D01*
X43135605Y-6278000D01*
X43862558Y-7004953D01*
X44094229Y-6947991D01*
X44263981Y-6461410D01*
X44263981Y-9960116D01*
X44205429Y-9935804D01*
X43740611Y-9935398D01*
X43682953Y-9959221D01*
X43682953Y-7184558D01*
X42956000Y-6457605D01*
X42229047Y-7184558D01*
X42286009Y-7416229D01*
X42772590Y-7585981D01*
X43287094Y-7556605D01*
X43625991Y-7416229D01*
X43682953Y-7184558D01*
X43682953Y-9959221D01*
X43311019Y-10112901D01*
X42982057Y-10441291D01*
X42803804Y-10870571D01*
X42803398Y-11335389D01*
X42980901Y-11764981D01*
X43309291Y-12093943D01*
X43738571Y-12272196D01*
X44203389Y-12272602D01*
X44632981Y-12095099D01*
X44961943Y-11766709D01*
X45115156Y-11397730D01*
X45266901Y-11764981D01*
X45595291Y-12093943D01*
X46024571Y-12272196D01*
X46489389Y-12272602D01*
X46918981Y-12095099D01*
X47247943Y-11766709D01*
X47426196Y-11337429D01*
X47426602Y-10872611D01*
X47339579Y-10662000D01*
X48760410Y-10662000D01*
X48673804Y-10870571D01*
X48673398Y-11335389D01*
X48850901Y-11764981D01*
X49179291Y-12093943D01*
X49608571Y-12272196D01*
X50073389Y-12272602D01*
X50502981Y-12095099D01*
X50831943Y-11766709D01*
X50985156Y-11397730D01*
X51136901Y-11764981D01*
X51465291Y-12093943D01*
X51894571Y-12272196D01*
X52359389Y-12272602D01*
X52788981Y-12095099D01*
X53117943Y-11766709D01*
X53296196Y-11337429D01*
X53296602Y-10872611D01*
X53296602Y-36198943D01*
X52950000Y-36130000D01*
X52463992Y-36226673D01*
X52051974Y-36501974D01*
X51776673Y-36913992D01*
X51680000Y-37400000D01*
X51680000Y-37655000D01*
X50812843Y-37655000D01*
X50812843Y-24339518D01*
X50749200Y-24185489D01*
X50749200Y-22610702D01*
X50812557Y-22458123D01*
X50812843Y-22129718D01*
X50749200Y-21975689D01*
X50749200Y-20400902D01*
X50812557Y-20248323D01*
X50812843Y-19919918D01*
X50687433Y-19616402D01*
X50455419Y-19383983D01*
X50152123Y-19258043D01*
X49823718Y-19257757D01*
X49520202Y-19383167D01*
X49287783Y-19615181D01*
X49161843Y-19918477D01*
X49161557Y-20246882D01*
X49225200Y-20400910D01*
X49225200Y-21975697D01*
X49161843Y-22128277D01*
X49161557Y-22456682D01*
X49225200Y-22610710D01*
X49225200Y-24185497D01*
X49161843Y-24338077D01*
X49161557Y-24666482D01*
X49286967Y-24969998D01*
X49518981Y-25202417D01*
X49822277Y-25328357D01*
X50150682Y-25328643D01*
X50454198Y-25203233D01*
X50686617Y-24971219D01*
X50812557Y-24667923D01*
X50812843Y-24339518D01*
X50812843Y-37655000D01*
X45297000Y-37655000D01*
X45297000Y-15908309D01*
X45297000Y-15305750D01*
X45297000Y-14734250D01*
X45297000Y-14131691D01*
X45200327Y-13898302D01*
X45021699Y-13719673D01*
X44788310Y-13623000D01*
X44535691Y-13623000D01*
X44185750Y-13623000D01*
X44027000Y-13781750D01*
X44027000Y-14893000D01*
X45138250Y-14893000D01*
X45297000Y-14734250D01*
X45297000Y-15305750D01*
X45138250Y-15147000D01*
X44027000Y-15147000D01*
X44027000Y-15167000D01*
X43773000Y-15167000D01*
X43773000Y-15147000D01*
X43773000Y-14893000D01*
X43773000Y-13781750D01*
X43614250Y-13623000D01*
X43264309Y-13623000D01*
X43011690Y-13623000D01*
X42778301Y-13719673D01*
X42599673Y-13898302D01*
X42503000Y-14131691D01*
X42503000Y-14734250D01*
X42661750Y-14893000D01*
X43773000Y-14893000D01*
X43773000Y-15147000D01*
X42661750Y-15147000D01*
X42503000Y-15305750D01*
X42503000Y-15908309D01*
X42599673Y-16141698D01*
X42747974Y-16290000D01*
X42206205Y-16290000D01*
X42206200Y-16289999D01*
X41720192Y-16386673D01*
X41308174Y-16661974D01*
X41308171Y-16661977D01*
X38294174Y-19675974D01*
X38018873Y-20087992D01*
X37922199Y-20574000D01*
X38018873Y-21060008D01*
X38294174Y-21472026D01*
X38706192Y-21747327D01*
X39192200Y-21844001D01*
X39678208Y-21747327D01*
X40090226Y-21472026D01*
X42732251Y-18830000D01*
X43647957Y-18830000D01*
X43181542Y-19022718D01*
X42823974Y-19379663D01*
X42630221Y-19846273D01*
X42629780Y-20351510D01*
X42822718Y-20818458D01*
X43179663Y-21176026D01*
X43646273Y-21369779D01*
X43648487Y-21369780D01*
X43181542Y-21562718D01*
X42823974Y-21919663D01*
X42630221Y-22386273D01*
X42629780Y-22891510D01*
X42822718Y-23358458D01*
X43179663Y-23716026D01*
X43646273Y-23909779D01*
X44151510Y-23910220D01*
X44618458Y-23717282D01*
X44976026Y-23360337D01*
X45169779Y-22893727D01*
X45170220Y-22388490D01*
X44977282Y-21921542D01*
X44620337Y-21563974D01*
X44153727Y-21370221D01*
X44151512Y-21370219D01*
X44618458Y-21177282D01*
X44976026Y-20820337D01*
X45169779Y-20353727D01*
X45170220Y-19848490D01*
X44977282Y-19381542D01*
X44620337Y-19023974D01*
X44153727Y-18830221D01*
X44151512Y-18830219D01*
X44386008Y-18733327D01*
X44618458Y-18637282D01*
X44798026Y-18458026D01*
X44976026Y-18280337D01*
X45073327Y-18046008D01*
X45169779Y-17813727D01*
X45170000Y-17560000D01*
X45170220Y-17308490D01*
X45073327Y-17073992D01*
X44977282Y-16841542D01*
X44798026Y-16661974D01*
X44620337Y-16483974D01*
X44459045Y-16417000D01*
X44535691Y-16417000D01*
X44788310Y-16417000D01*
X45021699Y-16320327D01*
X45200327Y-16141698D01*
X45297000Y-15908309D01*
X45297000Y-37655000D01*
X45158218Y-37655000D01*
X45158218Y-24930866D01*
X44967103Y-24468331D01*
X44613530Y-24114141D01*
X44151330Y-23922219D01*
X43650866Y-23921782D01*
X43188331Y-24112897D01*
X42834141Y-24466470D01*
X42642219Y-24928670D01*
X42641782Y-25429134D01*
X42832897Y-25891669D01*
X43186470Y-26245859D01*
X43648670Y-26437781D01*
X44149134Y-26438218D01*
X44611669Y-26247103D01*
X44965859Y-25893530D01*
X45157781Y-25431330D01*
X45158218Y-24930866D01*
X45158218Y-37655000D01*
X36398200Y-37655000D01*
X36398200Y-30988000D01*
X36320862Y-30599194D01*
X36100620Y-30269580D01*
X35996602Y-30200077D01*
X35996602Y-10872611D01*
X35819099Y-10443019D01*
X35490709Y-10114057D01*
X35061429Y-9935804D01*
X34596611Y-9935398D01*
X34167019Y-10112901D01*
X33838057Y-10441291D01*
X33684843Y-10810269D01*
X33533099Y-10443019D01*
X33204709Y-10114057D01*
X32775429Y-9935804D01*
X32310611Y-9935398D01*
X31881019Y-10112901D01*
X31552057Y-10441291D01*
X31373804Y-10870571D01*
X31373398Y-11335389D01*
X31550901Y-11764981D01*
X31879291Y-12093943D01*
X32308571Y-12272196D01*
X32773389Y-12272602D01*
X33202981Y-12095099D01*
X33531943Y-11766709D01*
X33685156Y-11397730D01*
X33836901Y-11764981D01*
X34165291Y-12093943D01*
X34594571Y-12272196D01*
X35059389Y-12272602D01*
X35488981Y-12095099D01*
X35817943Y-11766709D01*
X35996196Y-11337429D01*
X35996602Y-10872611D01*
X35996602Y-30200077D01*
X35890201Y-30128981D01*
X35890201Y-24384000D01*
X35793527Y-23897992D01*
X35518226Y-23485974D01*
X35492826Y-23460574D01*
X35080808Y-23185273D01*
X34594800Y-23088599D01*
X34594794Y-23088600D01*
X29783222Y-23088600D01*
X29783222Y-2245915D01*
X29588308Y-1774189D01*
X29227710Y-1412960D01*
X28756324Y-1217224D01*
X28245915Y-1216778D01*
X27774189Y-1411692D01*
X27412960Y-1772290D01*
X27217224Y-2243676D01*
X27216778Y-2754085D01*
X27411692Y-3225811D01*
X27772290Y-3587040D01*
X28243676Y-3782776D01*
X28754085Y-3783222D01*
X29225811Y-3588308D01*
X29587040Y-3227710D01*
X29782776Y-2756324D01*
X29783222Y-2245915D01*
X29783222Y-23088600D01*
X29591000Y-23088600D01*
X29104992Y-23185273D01*
X28692974Y-23460574D01*
X28417673Y-23872592D01*
X28321000Y-24358600D01*
X28417673Y-24844608D01*
X28692974Y-25256626D01*
X29104992Y-25531927D01*
X29591000Y-25628600D01*
X34492501Y-25628600D01*
X34620200Y-25654001D01*
X35106208Y-25557327D01*
X35518226Y-25282026D01*
X35793527Y-24870008D01*
X35890201Y-24384000D01*
X35890201Y-30128981D01*
X35771006Y-30049338D01*
X35382200Y-29972000D01*
X32969200Y-29972000D01*
X31038800Y-29972000D01*
X30649994Y-30049338D01*
X30320380Y-30269580D01*
X30100138Y-30599194D01*
X30022800Y-30988000D01*
X30100138Y-31376806D01*
X30320380Y-31706420D01*
X30649994Y-31926662D01*
X31038800Y-32004000D01*
X32969200Y-32004000D01*
X35382200Y-32004000D01*
X35771006Y-31926662D01*
X36100620Y-31706420D01*
X36320862Y-31376806D01*
X36398200Y-30988000D01*
X36398200Y-37655000D01*
X32925000Y-37655000D01*
X32438992Y-37751673D01*
X32026974Y-38026974D01*
X31751673Y-38438992D01*
X31655000Y-38925000D01*
X31747892Y-39392000D01*
X26760000Y-39392000D01*
X26760000Y-4501310D01*
X26760000Y-4248691D01*
X26760000Y-4035750D01*
X26760000Y-3464250D01*
X26760000Y-3251309D01*
X26760000Y-2998690D01*
X26663327Y-2765301D01*
X26484698Y-2586673D01*
X26251309Y-2490000D01*
X25785750Y-2490000D01*
X25627000Y-2648750D01*
X25627000Y-3623000D01*
X26601250Y-3623000D01*
X26760000Y-3464250D01*
X26760000Y-4035750D01*
X26601250Y-3877000D01*
X25627000Y-3877000D01*
X25627000Y-4851250D01*
X25785750Y-5010000D01*
X26251309Y-5010000D01*
X26484698Y-4913327D01*
X26663327Y-4734699D01*
X26760000Y-4501310D01*
X26760000Y-39392000D01*
X26566003Y-39392000D01*
X26566003Y-12803218D01*
X26440593Y-12499702D01*
X26438860Y-12497965D01*
X26438860Y-8363454D01*
X26439777Y-8362539D01*
X26565717Y-8059243D01*
X26566003Y-7730838D01*
X26440593Y-7427322D01*
X26208579Y-7194903D01*
X25905283Y-7068963D01*
X25576878Y-7068677D01*
X25373000Y-7152917D01*
X25373000Y-4851250D01*
X25373000Y-3877000D01*
X25353000Y-3877000D01*
X25353000Y-3623000D01*
X25373000Y-3623000D01*
X25373000Y-2648750D01*
X25214250Y-2490000D01*
X24748691Y-2490000D01*
X24515302Y-2586673D01*
X24336673Y-2765301D01*
X24272524Y-2920169D01*
X24142631Y-2790049D01*
X23726356Y-2617197D01*
X23275621Y-2616804D01*
X22859045Y-2788929D01*
X22540049Y-3107369D01*
X22500115Y-3203540D01*
X22461071Y-3109045D01*
X22142631Y-2790049D01*
X21726356Y-2617197D01*
X21275621Y-2616804D01*
X20859045Y-2788929D01*
X20540049Y-3107369D01*
X20500115Y-3203540D01*
X20461071Y-3109045D01*
X20142631Y-2790049D01*
X19726356Y-2617197D01*
X19275621Y-2616804D01*
X18859045Y-2788929D01*
X18540049Y-3107369D01*
X18367197Y-3523644D01*
X18366804Y-3974379D01*
X18538929Y-4390955D01*
X18857369Y-4709951D01*
X19273644Y-4882803D01*
X19724379Y-4883196D01*
X20140955Y-4711071D01*
X20459951Y-4392631D01*
X20499884Y-4296459D01*
X20538929Y-4390955D01*
X20857369Y-4709951D01*
X21273644Y-4882803D01*
X21724379Y-4883196D01*
X22140955Y-4711071D01*
X22459951Y-4392631D01*
X22499884Y-4296459D01*
X22538929Y-4390955D01*
X22857369Y-4709951D01*
X23273644Y-4882803D01*
X23724379Y-4883196D01*
X24140955Y-4711071D01*
X24272495Y-4579760D01*
X24336673Y-4734699D01*
X24515302Y-4913327D01*
X24748691Y-5010000D01*
X25214250Y-5010000D01*
X25373000Y-4851250D01*
X25373000Y-7152917D01*
X25321005Y-7174401D01*
X25067083Y-7068963D01*
X24738678Y-7068677D01*
X24482805Y-7174401D01*
X24228883Y-7068963D01*
X23900478Y-7068677D01*
X23596962Y-7194087D01*
X23364543Y-7426101D01*
X23238603Y-7729397D01*
X23238317Y-8057802D01*
X23362920Y-8359364D01*
X23362920Y-12497565D01*
X23362003Y-12498481D01*
X23236063Y-12801777D01*
X23235777Y-13130182D01*
X23361187Y-13433698D01*
X23593201Y-13666117D01*
X23896497Y-13792057D01*
X24224902Y-13792343D01*
X24478981Y-13687359D01*
X24737237Y-13794597D01*
X25065642Y-13794883D01*
X25324580Y-13687891D01*
X25575437Y-13792057D01*
X25903842Y-13792343D01*
X26207358Y-13666933D01*
X26439777Y-13434919D01*
X26565717Y-13131623D01*
X26566003Y-12803218D01*
X26566003Y-39392000D01*
X25869000Y-39392000D01*
X25869000Y-34275848D01*
X25869000Y-34073753D01*
X25869000Y-32373753D01*
X25791662Y-32187042D01*
X25648759Y-32044139D01*
X25462048Y-31966800D01*
X25259953Y-31966800D01*
X24288160Y-31966800D01*
X24288160Y-22201848D01*
X24288160Y-21999753D01*
X24288160Y-20299753D01*
X24210822Y-20113042D01*
X24067919Y-19970139D01*
X23881208Y-19892800D01*
X23679113Y-19892800D01*
X21979113Y-19892800D01*
X21792402Y-19970138D01*
X21649499Y-20113041D01*
X21572160Y-20299752D01*
X21572160Y-20501847D01*
X21572160Y-22201847D01*
X21649498Y-22388558D01*
X21792401Y-22531461D01*
X21979112Y-22608800D01*
X22181207Y-22608800D01*
X23881207Y-22608800D01*
X24067918Y-22531462D01*
X24210821Y-22388559D01*
X24288160Y-22201848D01*
X24288160Y-31966800D01*
X23559953Y-31966800D01*
X23373242Y-32044138D01*
X23230339Y-32187041D01*
X23153000Y-32373752D01*
X23153000Y-32575847D01*
X23153000Y-34275847D01*
X23230338Y-34462558D01*
X23373241Y-34605461D01*
X23559952Y-34682800D01*
X23762047Y-34682800D01*
X25462047Y-34682800D01*
X25648758Y-34605462D01*
X25791661Y-34462559D01*
X25869000Y-34275848D01*
X25869000Y-39392000D01*
X22546965Y-39392000D01*
X22546965Y-35616777D01*
X22519778Y-35046546D01*
X22353864Y-34645995D01*
X22107745Y-34571861D01*
X21928139Y-34751466D01*
X21928139Y-34392255D01*
X21854005Y-34146136D01*
X21316777Y-33953035D01*
X20746546Y-33980222D01*
X20345995Y-34146136D01*
X20277125Y-34374778D01*
X20277125Y-22567577D01*
X20249938Y-21997346D01*
X20084024Y-21596795D01*
X19837905Y-21522661D01*
X19658299Y-21702266D01*
X19658299Y-21343055D01*
X19584165Y-21096936D01*
X19046937Y-20903835D01*
X18476706Y-20931022D01*
X18076155Y-21096936D01*
X18002021Y-21343055D01*
X18830160Y-22171195D01*
X19658299Y-21343055D01*
X19658299Y-21702266D01*
X19009765Y-22350800D01*
X19023907Y-22364942D01*
X18844302Y-22544547D01*
X18830160Y-22530405D01*
X18816017Y-22544547D01*
X18636412Y-22364942D01*
X18650555Y-22350800D01*
X17822415Y-21522661D01*
X17576296Y-21596795D01*
X17383195Y-22134023D01*
X17410382Y-22704254D01*
X17576296Y-23104805D01*
X17715734Y-23146805D01*
X17599499Y-23263041D01*
X17522160Y-23449752D01*
X17522160Y-23651847D01*
X17522160Y-25251847D01*
X17599498Y-25438558D01*
X17742401Y-25581461D01*
X17929112Y-25658800D01*
X18131207Y-25658800D01*
X19731207Y-25658800D01*
X19917918Y-25581462D01*
X20060821Y-25438559D01*
X20138160Y-25251848D01*
X20138160Y-25049753D01*
X20138160Y-23449753D01*
X20060822Y-23263042D01*
X19944585Y-23146805D01*
X20084024Y-23104805D01*
X20277125Y-22567577D01*
X20277125Y-34374778D01*
X20271861Y-34392255D01*
X21100000Y-35220395D01*
X21928139Y-34392255D01*
X21928139Y-34751466D01*
X21279605Y-35400000D01*
X21293747Y-35414142D01*
X21114142Y-35593747D01*
X21100000Y-35579605D01*
X21085857Y-35593747D01*
X20906252Y-35414142D01*
X20920395Y-35400000D01*
X20092255Y-34571861D01*
X19846136Y-34645995D01*
X19653035Y-35183223D01*
X19680222Y-35753454D01*
X19846136Y-36154005D01*
X19985574Y-36196005D01*
X19869339Y-36312241D01*
X19792000Y-36498952D01*
X19792000Y-36701047D01*
X19792000Y-38301047D01*
X19869338Y-38487758D01*
X20012241Y-38630661D01*
X20198952Y-38708000D01*
X20401047Y-38708000D01*
X22001047Y-38708000D01*
X22187758Y-38630662D01*
X22330661Y-38487759D01*
X22408000Y-38301048D01*
X22408000Y-38098953D01*
X22408000Y-36498953D01*
X22330662Y-36312242D01*
X22214425Y-36196005D01*
X22353864Y-36154005D01*
X22546965Y-35616777D01*
X22546965Y-39392000D01*
X15783222Y-39392000D01*
X15783222Y-2245915D01*
X15588308Y-1774189D01*
X15227710Y-1412960D01*
X14756324Y-1217224D01*
X14245915Y-1216778D01*
X13774189Y-1411692D01*
X13412960Y-1772290D01*
X13217224Y-2243676D01*
X13216778Y-2754085D01*
X13411692Y-3225811D01*
X13772290Y-3587040D01*
X14243676Y-3782776D01*
X14754085Y-3783222D01*
X15225811Y-3588308D01*
X15587040Y-3227710D01*
X15782776Y-2756324D01*
X15783222Y-2245915D01*
X15783222Y-39392000D01*
X12937227Y-39392000D01*
X12937227Y-8062554D01*
X12932730Y-6914838D01*
X12502169Y-5875375D01*
X12105467Y-5624138D01*
X11925862Y-5803743D01*
X11925862Y-5444533D01*
X11674625Y-5047831D01*
X11558508Y-5000266D01*
X11674625Y-4952169D01*
X11925862Y-4555467D01*
X10050000Y-2679605D01*
X9870395Y-2859210D01*
X8174138Y-4555467D01*
X8425375Y-4952169D01*
X8541491Y-4999733D01*
X8425375Y-5047831D01*
X8174138Y-5444533D01*
X10050000Y-7320395D01*
X11925862Y-5444533D01*
X11925862Y-5803743D01*
X10229605Y-7500000D01*
X12105467Y-9375862D01*
X12502169Y-9124625D01*
X12937227Y-8062554D01*
X12937227Y-39392000D01*
X11925862Y-39392000D01*
X11925862Y-9555467D01*
X10050000Y-7679605D01*
X9870395Y-7859210D01*
X9870395Y-7500000D01*
X7994533Y-5624138D01*
X7597831Y-5875375D01*
X7162773Y-6937446D01*
X7167270Y-8085162D01*
X7597831Y-9124625D01*
X7994533Y-9375862D01*
X9870395Y-7500000D01*
X9870395Y-7859210D01*
X8174138Y-9555467D01*
X8425375Y-9952169D01*
X9487446Y-10387227D01*
X10635162Y-10382730D01*
X11674625Y-9952169D01*
X11925862Y-9555467D01*
X11925862Y-39392000D01*
X11408000Y-39392000D01*
X11408000Y-14501048D01*
X11408000Y-14298953D01*
X11408000Y-12698953D01*
X11330662Y-12512242D01*
X11187759Y-12369339D01*
X11001048Y-12292000D01*
X10798953Y-12292000D01*
X9198953Y-12292000D01*
X9012242Y-12369338D01*
X8896005Y-12485574D01*
X8854005Y-12346136D01*
X8316777Y-12153035D01*
X7746546Y-12180222D01*
X7345995Y-12346136D01*
X7271861Y-12592255D01*
X8100000Y-13420395D01*
X8114142Y-13406252D01*
X8293747Y-13585857D01*
X8279605Y-13600000D01*
X8293747Y-13614142D01*
X8114142Y-13793747D01*
X8100000Y-13779605D01*
X7920395Y-13959210D01*
X7920395Y-13600000D01*
X7092255Y-12771861D01*
X6846136Y-12845995D01*
X6653035Y-13383223D01*
X6680222Y-13953454D01*
X6846136Y-14354005D01*
X7092255Y-14428139D01*
X7920395Y-13600000D01*
X7920395Y-13959210D01*
X7271861Y-14607745D01*
X7345995Y-14853864D01*
X7883223Y-15046965D01*
X8453454Y-15019778D01*
X8854005Y-14853864D01*
X8896005Y-14714425D01*
X9012241Y-14830661D01*
X9198952Y-14908000D01*
X9401047Y-14908000D01*
X11001047Y-14908000D01*
X11187758Y-14830662D01*
X11330661Y-14687759D01*
X11408000Y-14501048D01*
X11408000Y-39392000D01*
X5437227Y-39392000D01*
X5437227Y-8062554D01*
X5432730Y-6914838D01*
X5002169Y-5875375D01*
X4605467Y-5624138D01*
X4425862Y-5803743D01*
X2729605Y-7500000D01*
X4605467Y-9375862D01*
X5002169Y-9124625D01*
X5437227Y-8062554D01*
X5437227Y-39392000D01*
X4425862Y-39392000D01*
X608000Y-39392000D01*
X608000Y-9621608D01*
X674139Y-9555468D01*
X925375Y-9952169D01*
X1987446Y-10387227D01*
X3135162Y-10382730D01*
X4174625Y-9952169D01*
X4425862Y-9555467D01*
X2550000Y-7679605D01*
X2535857Y-7693747D01*
X2356252Y-7514142D01*
X2370395Y-7500000D01*
X2356252Y-7485857D01*
X2535857Y-7306252D01*
X2550000Y-7320395D01*
X4425862Y-5444533D01*
X4174625Y-5047831D01*
X4058508Y-5000266D01*
X4174625Y-4952169D01*
X4425862Y-4555467D01*
X2550000Y-2679605D01*
X2535857Y-2693747D01*
X2356252Y-2514142D01*
X2370395Y-2500000D01*
X2356252Y-2485857D01*
X2535857Y-2306252D01*
X2550000Y-2320395D01*
X2564142Y-2306252D01*
X2743747Y-2485857D01*
X2729605Y-2500000D01*
X4605467Y-4375862D01*
X5002169Y-4124625D01*
X5437227Y-3062554D01*
X5432730Y-1914838D01*
X5002169Y-875375D01*
X4605468Y-624139D01*
X4621608Y-608000D01*
X7978392Y-608000D01*
X7994531Y-624139D01*
X7597831Y-875375D01*
X7162773Y-1937446D01*
X7167270Y-3085162D01*
X7597831Y-4124625D01*
X7994533Y-4375862D01*
X9870395Y-2500000D01*
X9856252Y-2485857D01*
X10035857Y-2306252D01*
X10050000Y-2320395D01*
X10064142Y-2306252D01*
X10243747Y-2485857D01*
X10229605Y-2500000D01*
X12105467Y-4375862D01*
X12502169Y-4124625D01*
X12937227Y-3062554D01*
X12932730Y-1914838D01*
X12502169Y-875375D01*
X12105468Y-624139D01*
X12121608Y-608000D01*
X31384358Y-608000D01*
X31242276Y-749835D01*
X30916771Y-1533739D01*
X30916030Y-2382537D01*
X31240167Y-3167009D01*
X31839835Y-3767724D01*
X32623739Y-4093229D01*
X33472537Y-4093970D01*
X34257009Y-3769833D01*
X34857724Y-3170165D01*
X35183229Y-2386261D01*
X35183970Y-1537463D01*
X34859833Y-752991D01*
X34715094Y-608000D01*
X44084358Y-608000D01*
X43942276Y-749835D01*
X43616771Y-1533739D01*
X43616030Y-2382537D01*
X43940167Y-3167009D01*
X44539835Y-3767724D01*
X45323739Y-4093229D01*
X46172537Y-4093970D01*
X46957009Y-3769833D01*
X47557724Y-3170165D01*
X47883229Y-2386261D01*
X47883970Y-1537463D01*
X47559833Y-752991D01*
X47415094Y-608000D01*
X48684358Y-608000D01*
X48542276Y-749835D01*
X48216771Y-1533739D01*
X48216030Y-2382537D01*
X48540167Y-3167009D01*
X49139835Y-3767724D01*
X49923739Y-4093229D01*
X50772537Y-4093970D01*
X51557009Y-3769833D01*
X52157724Y-3170165D01*
X52483229Y-2386261D01*
X52483970Y-1537463D01*
X52159833Y-752991D01*
X52015094Y-608000D01*
X61384358Y-608000D01*
X61242276Y-749835D01*
X60916771Y-1533739D01*
X60916030Y-2382537D01*
X61240167Y-3167009D01*
X61839835Y-3767724D01*
X62623739Y-4093229D01*
X63472537Y-4093970D01*
X64257009Y-3769833D01*
X64857724Y-3170165D01*
X65183229Y-2386261D01*
X65183970Y-1537463D01*
X64859833Y-752991D01*
X64715094Y-608000D01*
X66278392Y-608000D01*
X66294531Y-624139D01*
X65897831Y-875375D01*
X65462773Y-1937446D01*
X65467270Y-3085162D01*
X65897831Y-4124625D01*
X66294533Y-4375862D01*
X68170395Y-2500000D01*
X68156252Y-2485857D01*
X68335857Y-2306252D01*
X68350000Y-2320395D01*
X68364142Y-2306252D01*
X68543747Y-2485857D01*
X68529605Y-2500000D01*
X70405467Y-4375862D01*
X70802169Y-4124625D01*
X71237227Y-3062554D01*
X71232730Y-1914838D01*
X70802169Y-875375D01*
X70405468Y-624139D01*
X70421608Y-608000D01*
X73778392Y-608000D01*
X73794531Y-624139D01*
X73397831Y-875375D01*
X72962773Y-1937446D01*
X72967270Y-3085162D01*
X73397831Y-4124625D01*
X73794533Y-4375862D01*
X75670395Y-2500000D01*
X75656252Y-2485857D01*
X75835857Y-2306252D01*
X75850000Y-2320395D01*
X75864142Y-2306252D01*
X76043747Y-2485857D01*
X76029605Y-2500000D01*
X76043747Y-2514142D01*
X75864142Y-2693747D01*
X75850000Y-2679605D01*
X75670395Y-2859210D01*
X73974138Y-4555467D01*
X74225375Y-4952169D01*
X74341491Y-4999733D01*
X74225375Y-5047831D01*
X73974138Y-5444533D01*
X75850000Y-7320395D01*
X75864142Y-7306252D01*
X76043747Y-7485857D01*
X76029605Y-7500000D01*
X76043747Y-7514142D01*
X75864142Y-7693747D01*
X75850000Y-7679605D01*
X75670395Y-7859210D01*
X75670395Y-7500000D01*
X73794533Y-5624138D01*
X73397831Y-5875375D01*
X72962773Y-6937446D01*
X72967270Y-8085162D01*
X73397831Y-9124625D01*
X73794533Y-9375862D01*
X75670395Y-7500000D01*
X75670395Y-7859210D01*
X73974138Y-9555467D01*
X74225375Y-9952169D01*
X75287446Y-10387227D01*
X76435162Y-10382730D01*
X77474625Y-9952169D01*
X77725860Y-9555468D01*
X77725862Y-9555470D01*
X77792000Y-9621608D01*
X77792000Y-11633200D01*
X77725862Y-11633200D01*
X71237227Y-11633200D01*
X71237227Y-8062554D01*
X71232730Y-6914838D01*
X70802169Y-5875375D01*
X70405467Y-5624138D01*
X70225862Y-5803743D01*
X70225862Y-5444533D01*
X69974625Y-5047831D01*
X69858508Y-5000266D01*
X69974625Y-4952169D01*
X70225862Y-4555467D01*
X68350000Y-2679605D01*
X68170395Y-2859210D01*
X66474138Y-4555467D01*
X66725375Y-4952169D01*
X66841491Y-4999733D01*
X66725375Y-5047831D01*
X66474138Y-5444533D01*
X68350000Y-7320395D01*
X70225862Y-5444533D01*
X70225862Y-5803743D01*
X68529605Y-7500000D01*
X70405467Y-9375862D01*
X70802169Y-9124625D01*
X71237227Y-8062554D01*
X71237227Y-11633200D01*
X70225862Y-11633200D01*
X70225862Y-9555467D01*
X68350000Y-7679605D01*
X68170395Y-7859210D01*
X68170395Y-7500000D01*
X66294533Y-5624138D01*
X65897831Y-5875375D01*
X65462773Y-6937446D01*
X65467270Y-8085162D01*
X65897831Y-9124625D01*
X66294533Y-9375862D01*
X68170395Y-7500000D01*
X68170395Y-7859210D01*
X66474138Y-9555467D01*
X66725375Y-9952169D01*
X67787446Y-10387227D01*
X68935162Y-10382730D01*
X69974625Y-9952169D01*
X70225862Y-9555467D01*
X70225862Y-11633200D01*
X68183701Y-11633200D01*
X66319400Y-12964844D01*
X66319400Y-23061948D01*
X64726602Y-24678637D01*
X64726602Y-10872611D01*
X64549099Y-10443019D01*
X64220709Y-10114057D01*
X63791429Y-9935804D01*
X63326611Y-9935398D01*
X62897019Y-10112901D01*
X62568057Y-10441291D01*
X62414843Y-10810269D01*
X62263099Y-10443019D01*
X61934709Y-10114057D01*
X61563981Y-9960116D01*
X61563981Y-6461410D01*
X61534605Y-5946906D01*
X61394229Y-5608009D01*
X61162558Y-5551047D01*
X60982953Y-5730652D01*
X60982953Y-5371442D01*
X60925991Y-5139771D01*
X60447061Y-4972688D01*
X60547981Y-4683410D01*
X60518605Y-4168906D01*
X60378229Y-3830009D01*
X60146558Y-3773047D01*
X59966953Y-3952652D01*
X59966953Y-3593442D01*
X59909991Y-3361771D01*
X59423410Y-3192019D01*
X58908906Y-3221395D01*
X58570009Y-3361771D01*
X58513047Y-3593442D01*
X59240000Y-4320395D01*
X59966953Y-3593442D01*
X59966953Y-3952652D01*
X59419605Y-4500000D01*
X59433747Y-4514142D01*
X59254142Y-4693747D01*
X59240000Y-4679605D01*
X59225857Y-4693747D01*
X59046252Y-4514142D01*
X59060395Y-4500000D01*
X58333442Y-3773047D01*
X58172696Y-3812570D01*
X57870709Y-3510057D01*
X57441429Y-3331804D01*
X56976611Y-3331398D01*
X56547019Y-3508901D01*
X56218057Y-3837291D01*
X56192157Y-3899664D01*
X56167099Y-3839019D01*
X55838709Y-3510057D01*
X55409429Y-3331804D01*
X54944611Y-3331398D01*
X54515019Y-3508901D01*
X54186057Y-3837291D01*
X54160157Y-3899664D01*
X54135099Y-3839019D01*
X53806709Y-3510057D01*
X53377429Y-3331804D01*
X52912611Y-3331398D01*
X52483019Y-3508901D01*
X52154057Y-3837291D01*
X51975804Y-4266571D01*
X51975398Y-4731389D01*
X52152901Y-5160981D01*
X52481291Y-5489943D01*
X52910571Y-5668196D01*
X53148002Y-5668403D01*
X52991804Y-6044571D01*
X52991398Y-6509389D01*
X53168901Y-6938981D01*
X53497291Y-7267943D01*
X53926571Y-7446196D01*
X54391389Y-7446602D01*
X54820981Y-7269099D01*
X55149943Y-6940709D01*
X55175842Y-6878335D01*
X55200901Y-6938981D01*
X55303000Y-7041257D01*
X55303000Y-8576443D01*
X55247665Y-8709705D01*
X55247347Y-9074627D01*
X54936518Y-9074357D01*
X54633002Y-9199767D01*
X54400583Y-9431781D01*
X54274643Y-9735077D01*
X54274357Y-10063482D01*
X54399767Y-10366998D01*
X54631781Y-10599417D01*
X54935077Y-10725357D01*
X55263482Y-10725643D01*
X55417510Y-10662000D01*
X58782497Y-10662000D01*
X58935077Y-10725357D01*
X59263482Y-10725643D01*
X59566998Y-10600233D01*
X59799417Y-10368219D01*
X59925357Y-10064923D01*
X59925643Y-9736518D01*
X59800233Y-9433002D01*
X59568219Y-9200583D01*
X59264923Y-9074643D01*
X58936518Y-9074357D01*
X58782489Y-9138000D01*
X57132526Y-9138000D01*
X57152335Y-9090295D01*
X57152665Y-8711367D01*
X57081000Y-8537924D01*
X57081000Y-7041476D01*
X57181943Y-6940709D01*
X57207842Y-6878335D01*
X57232901Y-6938981D01*
X57561291Y-7267943D01*
X57990571Y-7446196D01*
X58455389Y-7446602D01*
X58884981Y-7269099D01*
X59189083Y-6965524D01*
X59349442Y-7004953D01*
X60076395Y-6278000D01*
X60062252Y-6263857D01*
X60241857Y-6084252D01*
X60256000Y-6098395D01*
X60982953Y-5371442D01*
X60982953Y-5730652D01*
X60435605Y-6278000D01*
X61162558Y-7004953D01*
X61394229Y-6947991D01*
X61563981Y-6461410D01*
X61563981Y-9960116D01*
X61505429Y-9935804D01*
X61040611Y-9935398D01*
X60982953Y-9959221D01*
X60982953Y-7184558D01*
X60256000Y-6457605D01*
X59529047Y-7184558D01*
X59586009Y-7416229D01*
X60072590Y-7585981D01*
X60587094Y-7556605D01*
X60925991Y-7416229D01*
X60982953Y-7184558D01*
X60982953Y-9959221D01*
X60611019Y-10112901D01*
X60282057Y-10441291D01*
X60103804Y-10870571D01*
X60103398Y-11335389D01*
X60280901Y-11764981D01*
X60609291Y-12093943D01*
X61038571Y-12272196D01*
X61503389Y-12272602D01*
X61932981Y-12095099D01*
X62261943Y-11766709D01*
X62415156Y-11397730D01*
X62566901Y-11764981D01*
X62895291Y-12093943D01*
X63324571Y-12272196D01*
X63789389Y-12272602D01*
X64218981Y-12095099D01*
X64547943Y-11766709D01*
X64726196Y-11337429D01*
X64726602Y-10872611D01*
X64726602Y-24678637D01*
X61187461Y-28270866D01*
X61557453Y-28640858D01*
X66827400Y-23305849D01*
X66827400Y-13222254D01*
X68328863Y-12141200D01*
X74523779Y-12141200D01*
X74432139Y-12232841D01*
X74354800Y-12419552D01*
X74354800Y-12621647D01*
X74354800Y-14145647D01*
X74432138Y-14332358D01*
X74575041Y-14475261D01*
X74761752Y-14552600D01*
X74963847Y-14552600D01*
X75372757Y-14552600D01*
X74906342Y-14745318D01*
X74548774Y-15102263D01*
X74355021Y-15568873D01*
X74354580Y-16074110D01*
X74547518Y-16541058D01*
X74904463Y-16898626D01*
X75371073Y-17092379D01*
X75373287Y-17092380D01*
X74906342Y-17285318D01*
X74548774Y-17642263D01*
X74355021Y-18108873D01*
X74354580Y-18614110D01*
X74547518Y-19081058D01*
X74904463Y-19438626D01*
X75069607Y-19507200D01*
X70711795Y-19507200D01*
X69113400Y-21105595D01*
X69113400Y-28220920D01*
X66501661Y-31079539D01*
X66880300Y-31377041D01*
X69583300Y-28382541D01*
X69583300Y-21287005D01*
X70893205Y-19977100D01*
X77792000Y-19977100D01*
X77792000Y-39392000D01*
M02*
